<?xml version="1.0" encoding="UTF-8" standalone="no"?><!DOCTYPE svg PUBLIC "-//W3C//DTD SVG 1.1//EN" "http://www.w3.org/Graphics/SVG/1.1/DTD/svg11.dtd"><svg width="100%" height="100%" viewBox="0 0 91 94" version="1.1" xmlns="http://www.w3.org/2000/svg" xmlns:xlink="http://www.w3.org/1999/xlink" xml:space="preserve" xmlns:serif="http://www.serif.com/" style="fill-rule:evenodd;clip-rule:evenodd;stroke-linejoin:round;stroke-miterlimit:2;"><g transform="matrix(1,0,0,1,-176.952,-120.446)"><g><path d="M196.526,193.19C185.534,192.048 176.952,182.743 176.952,171.45L176.952,142.305C176.952,130.241 186.746,120.446 198.81,120.446L245.971,120.446C258.035,120.446 267.83,130.241 267.83,142.305L267.83,171.45C267.83,183.514 258.035,193.309 245.971,193.309L217.126,193.309L196.526,213.909L196.526,193.19Z" style="fill:rgb(245,73,73);"/><g transform="matrix(-1.68937,0,0,1.68937,578.848,108.131)"><path d="M209.794,17.863C209.97,17.347 210.455,17 211,17C211.545,17 212.03,17.347 212.206,17.863L214.337,24.118C214.425,24.375 214.589,24.598 214.809,24.758C215.028,24.917 215.292,25.005 215.563,25.009L222.17,25.103C222.716,25.111 223.195,25.464 223.364,25.983C223.532,26.501 223.352,27.069 222.916,27.396L217.625,31.356C217.408,31.519 217.246,31.744 217.163,32.002C217.079,32.26 217.077,32.538 217.157,32.797L219.109,39.11C219.27,39.631 219.082,40.197 218.641,40.517C218.2,40.838 217.604,40.842 217.159,40.528L211.758,36.72C211.536,36.564 211.271,36.48 211,36.48C210.729,36.48 210.464,36.564 210.242,36.72L204.841,40.528C204.396,40.842 203.8,40.838 203.359,40.517C202.918,40.197 202.73,39.631 202.891,39.11L204.843,32.797C204.923,32.538 204.921,32.26 204.837,32.002C204.754,31.744 204.592,31.519 204.375,31.356L199.084,27.396C198.648,27.069 198.468,26.501 198.636,25.983C198.805,25.464 199.284,25.111 199.83,25.103L206.437,25.009C206.708,25.005 206.972,24.917 207.191,24.758C207.411,24.598 207.575,24.375 207.663,24.118L209.794,17.863Z" style="fill:white;"/></g></g></g></svg>