<?xml version="1.0" encoding="utf-8"?>
<!-- Generator: Adobe Illustrator 27.5.0, SVG Export Plug-In . SVG Version: 6.00 Build 0)  -->
<svg version="1.1" id="Layer_2_00000163787645759237200850000002163624441172611717_"
	 xmlns="http://www.w3.org/2000/svg" xmlns:xlink="http://www.w3.org/1999/xlink" x="0px" y="0px" viewBox="0 0 288 48.2"
	 style="enable-background:new 0 0 288 48.2;" xml:space="preserve">
<style type="text/css">
	.st0{fill:#FFFFFF;}
	.st1{fill:#1A976A;}
	.st2{fill-rule:evenodd;clip-rule:evenodd;fill:#FFFFFF;}
</style>
<g id="Layer_1-2">
	<g>
		<path class="st0" d="M66.9,15.7h-9.7V10h26.4v5.7h-9.7v24.6h-7L66.9,15.7L66.9,15.7z"/>
		<path class="st0" d="M92.1,20.1c0.8-1.1,1.9-2,3.3-2.5c1.3-0.6,2.9-0.9,4.7-0.9v6.2c-0.7,0-1.2-0.1-1.5-0.1
			c-1.9,0-3.5,0.5-4.5,1.6s-1.6,2.7-1.6,4.9v11h-6.8V17h6.4C92.1,17,92.1,20.1,92.1,20.1z"/>
		<path class="st0" d="M126.4,17v23.3H120v-2.8c-0.9,1-1.9,1.8-3.2,2.3c-1.2,0.6-2.6,0.8-4,0.8c-3.1,0-5.5-0.9-7.3-2.6
			c-1.8-1.8-2.7-4.4-2.7-7.8V17h6.8v12.1c0,3.8,1.6,5.6,4.7,5.6c1.6,0,2.9-0.5,3.9-1.6c1-1,1.5-2.6,1.5-4.7V17L126.4,17L126.4,17z"
			/>
		<path class="st0" d="M139.2,40.7c-1.9,0-3.8-0.3-5.7-0.7c-1.9-0.5-3.3-1-4.4-1.8l2.2-4.8c1,0.7,2.3,1.2,3.8,1.6
			c1.5,0.4,2.9,0.7,4.3,0.7c2.9,0,4.3-0.7,4.3-2.1c0-0.7-0.4-1.1-1.2-1.4c-0.8-0.3-2-0.5-3.6-0.7c-1.9-0.3-3.5-0.6-4.7-1
			c-1.2-0.4-2.3-1-3.2-2c-0.9-1-1.4-2.3-1.4-4.1c0-1.5,0.4-2.8,1.3-3.9c0.8-1.1,2.1-2,3.7-2.6c1.6-0.6,3.6-1,5.8-1
			c1.6,0,3.3,0.2,4.9,0.5c1.6,0.4,2.9,0.9,4,1.5l-2.2,4.8c-2-1.2-4.3-1.7-6.7-1.7c-1.4,0-2.5,0.2-3.2,0.6c-0.7,0.4-1.1,0.9-1.1,1.6
			c0,0.7,0.4,1.2,1.2,1.5s2,0.6,3.7,0.8c1.9,0.3,3.5,0.6,4.7,1c1.2,0.4,2.2,1,3.2,2s1.3,2.3,1.3,4c0,1.4-0.4,2.7-1.3,3.8
			c-0.9,1.1-2.1,2-3.8,2.6C143.4,40.3,141.5,40.6,139.2,40.7L139.2,40.7L139.2,40.7z"/>
		<path class="st0" d="M168.1,39.2c-0.6,0.5-1.5,0.9-2.4,1.1c-1,0.3-2,0.4-3.1,0.4c-2.8,0-4.9-0.7-6.4-2.1c-1.5-1.4-2.2-3.5-2.2-6.2
			v-9.6h-3.6v-5.2h3.6v-5.7h6.8v5.7h5.8v5.2h-5.8v9.5c0,1,0.3,1.7,0.8,2.2c0.5,0.6,1.2,0.8,2.1,0.8c1.1,0,2-0.3,2.7-0.9L168.1,39.2
			L168.1,39.2z"/>
		<path class="st0" d="M170.6,17h6.8v23.3h-6.8V17z M173.9,13.8c-1.2,0-2.2-0.4-3-1.1c-0.8-0.7-1.2-1.6-1.2-2.7s0.4-1.9,1.2-2.7
			c0.8-0.7,1.8-1.1,3-1.1s2.2,0.3,3,1s1.2,1.6,1.2,2.6c0,1.1-0.4,2-1.2,2.8S175.2,13.8,173.9,13.8z"/>
		<path class="st0" d="M196.4,16.7c2.9,0,5.2,0.9,7,2.6c1.8,1.7,2.6,4.3,2.6,7.7v13.3h-6.8V28c0-1.9-0.4-3.2-1.2-4.1s-2-1.3-3.5-1.3
			c-1.7,0-3.1,0.5-4.1,1.6c-1,1.1-1.5,2.6-1.5,4.7v11.5h-6.8V17h6.4v2.7c0.9-1,2-1.7,3.3-2.3C193.4,17,194.8,16.7,196.4,16.7
			L196.4,16.7z"/>
		<path class="st0" d="M234.6,8.2v32.1h-6.4v-2.7c-1.7,2-4.1,3-7.3,3c-2.2,0-4.2-0.5-5.9-1.5c-1.8-1-3.2-2.4-4.2-4.2
			c-1-1.8-1.5-3.9-1.5-6.3s0.5-4.5,1.5-6.3c1-1.8,2.4-3.2,4.2-4.2c1.7-1,3.7-1.5,5.9-1.5c3,0,5.3,1,7,2.8V8.2L234.6,8.2L234.6,8.2z
			 M222,35.1c1.7,0,3.1-0.6,4.2-1.8c1.1-1.2,1.7-2.7,1.7-4.7s-0.6-3.5-1.7-4.7c-1.1-1.2-2.6-1.7-4.2-1.7s-3.2,0.6-4.3,1.7
			c-1.1,1.2-1.7,2.8-1.7,4.7s0.6,3.5,1.7,4.7C218.9,34.5,220.3,35.1,222,35.1z"/>
		<path class="st0" d="M262.3,28.8c0,0.1,0,0.7-0.1,1.8h-17.6c0.3,1.4,1.1,2.6,2.2,3.4s2.6,1.2,4.4,1.2c1.2,0,2.3-0.2,3.2-0.6
			c0.9-0.3,1.8-0.9,2.6-1.7l3.6,3.9c-2.2,2.5-5.4,3.8-9.6,3.8c-2.6,0-4.9-0.5-7-1.6c-2-1-3.6-2.4-4.7-4.2s-1.6-3.9-1.6-6.2
			s0.6-4.3,1.6-6.1c1.1-1.9,2.6-3.3,4.4-4.3c1.9-1,4-1.6,6.4-1.6s4.3,0.5,6.2,1.5c1.9,1,3.3,2.4,4.4,4.2
			C261.8,24.2,262.3,26.3,262.3,28.8L262.3,28.8z M250.2,21.8c-1.5,0-2.8,0.4-3.9,1.3c-1,0.9-1.7,2-1.9,3.5h11.5
			c-0.2-1.5-0.9-2.6-1.9-3.5C253,22.2,251.8,21.8,250.2,21.8L250.2,21.8L250.2,21.8z"/>
		<path class="st0" d="M280.3,40.3l-5.1-7.1l-5.3,7.1h-7.4l9-11.7L262.9,17h7.6l4.9,6.8l5.1-6.8h7.2L279,28.4l9,11.9H280.3z"/>
		<g>
			<circle class="st1" cx="24.1" cy="24.1" r="24.1"/>
			<path class="st2" d="M23.2,23.4l9-9c0.7-0.7,1.8-0.7,2.4,0l2.4,2.4c0.7,0.7,0.7,1.8,0,2.4l-12,12c0,0-0.1,0.1-0.1,0.1l-2.4,2.4
				c-0.3,0.3-0.8,0.5-1.2,0.5s-0.9-0.2-1.2-0.5l-2.4-2.4c0,0-0.1-0.1-0.1-0.1L11.2,25c-0.7-0.7-0.7-1.8,0-2.4l2.4-2.4
				c0.7-0.7,1.8-0.7,2.4,0l4.8,4.8l0.4,0.4l4.9,4.8L23.2,23.4L23.2,23.4z"/>
		</g>
	</g>
</g>
</svg>
