<?xml version="1.0" standalone="no"?>
<!DOCTYPE svg PUBLIC "-//W3C//DTD SVG 1.1//EN" "http://www.w3.org/Graphics/SVG/1.1/DTD/svg11.dtd" >
<svg xmlns="http://www.w3.org/2000/svg" xmlns:xlink="http://www.w3.org/1999/xlink" version="1.1">
<metadata>
Created by FontForge 20201107 at Thu Aug 11 23:52:03 2022
 By 
Copyright (c) 2017 by Deni Anggara. All rights reserved.
</metadata>
<defs>
<font id="Mona-Sans-Medium" horiz-adv-x="613" >
  <font-face 
    font-family="Mona-Sans Medium"
    font-weight="500"
    font-stretch="normal"
    units-per-em="1000"
    panose-1="0 0 0 0 0 0 0 0 0 0"
    ascent="800"
    descent="-200"
    x-height="529"
    cap-height="729"
    bbox="-220 -232 1159 1000"
    underline-thickness="50"
    underline-position="-125"
    unicode-range="U+000D-FB02"
  />
<missing-glyph horiz-adv-x="865" 
d="M432 738q-79 0 -148.5 -29.5t-122 -82t-82 -122t-29.5 -148.5q0 -85 33.5 -158.5t92.5 -127t136 -78.5q11 -3 18 2t7 16v70q-40 -8 -65.5 -2.5t-39.5 17t-19.5 21.5l-5.5 10q-12 34 -26 45l-14 11q-17 12 -15.5 17t9 6l7.5 1q19 -1 32.5 -11.5t20.5 -20l7 -9.5
q16 -29 37.5 -36t41.5 -3t30 8q3 18 10.5 31.5t15.5 20.5q-32 4 -63.5 13.5t-56.5 30t-40 56t-15 90.5q0 30 10.5 56t29.5 45q-3 8 -7.5 35t11.5 67l11 0.5t34 -7t59 -33.5q24 8 48 11t48 3q25 0 49 -3t48 -11q37 26 59.5 33.5t33.5 7l11 -0.5q17 -40 12 -67t-8 -35
q19 -19 29.5 -45t10.5 -56q0 -56 -15 -91.5t-40 -56t-56.5 -29.5t-63.5 -13q10 -8 18 -26.5t8 -44.5v-105q0 -11 7.5 -16t19.5 -2q76 25 134.5 78.5t92 127t33.5 158.5q0 79 -29.5 148.5t-82 122t-122 82t-149.5 29.5zM196 189q0 3 -5 3q-2 3 -4 2.5t-2 -2.5q-1 -2 3 -5
q7 -2 8 2zM209 171q2 1 0 8q-4 4 -9 1q-3 -3 2 -8l4 -2t3 1zM227 148q2 3 0 10q-6 6 -11 3q-1 -1 -1 -4.5t1 -5.5q2 -2 5.5 -3t5.5 0zM246 127q3 3 -2 10q-5 5 -10 2q-3 -4 3 -10q4 -7 9 -2zM274 115q0 6 -5 8q-8 3 -10 -3q0 -5 5 -8q8 -2 10 3zM334 118q0 2 -2.5 3.5
t-5.5 0.5q-4 0 -6 -2.5t-1 -4.5q0 -4 8 -4q3 1 6 3t1 4zM305 114q0 4 -7 4t-7 -4q0 -2 2 -5.5t5 -3.5q7 4 7 9z" />
    <glyph glyph-name="fl" unicode="fl" horiz-adv-x="601" 
d="M108 0h103v445h215v-445h103v729h-103v-200h-215v70q0 26 12.5 42t47.5 16h67v72h-94q-63 0 -99.5 -31t-36.5 -91v-78h-96v-84h96v-445z" />
    <glyph glyph-name="f_f.liga" unicode="ff" horiz-adv-x="642" 
d="M108 0h103v445h201v-445h103v445h116v84h-116v70q0 26 12 42t47 16h68v72h-95q-63 0 -99 -31t-36 -91v-78h-201v70q0 26 12.5 42t47.5 16h67v72h-94q-63 0 -99.5 -31t-36.5 -91v-78h-96v-84h96v-445z" />
    <glyph glyph-name="t_t.liga" unicode="tt" horiz-adv-x="669" 
d="M223 0h106v85h-72q-25 0 -35 9t-10 35v316h207v-335q0 -53 24.5 -81.5t89.5 -28.5h106v85h-72q-25 0 -35 9t-10 35v316h117v84h-117v165l-103 -12v-153h-207v165l-103 -12v-153h-100v-84h100v-335q0 -53 24.5 -81.5t89.5 -28.5z" />
    <glyph glyph-name=".notdef" horiz-adv-x="865" 
d="M432 738q-79 0 -148.5 -29.5t-122 -82t-82 -122t-29.5 -148.5q0 -85 33.5 -158.5t92.5 -127t136 -78.5q11 -3 18 2t7 16v70q-40 -8 -65.5 -2.5t-39.5 17t-19.5 21.5l-5.5 10q-12 34 -26 45l-14 11q-17 12 -15.5 17t9 6l7.5 1q19 -1 32.5 -11.5t20.5 -20l7 -9.5
q16 -29 37.5 -36t41.5 -3t30 8q3 18 10.5 31.5t15.5 20.5q-32 4 -63.5 13.5t-56.5 30t-40 56t-15 90.5q0 30 10.5 56t29.5 45q-3 8 -7.5 35t11.5 67l11 0.5t34 -7t59 -33.5q24 8 48 11t48 3q25 0 49 -3t48 -11q37 26 59.5 33.5t33.5 7l11 -0.5q17 -40 12 -67t-8 -35
q19 -19 29.5 -45t10.5 -56q0 -56 -15 -91.5t-40 -56t-56.5 -29.5t-63.5 -13q10 -8 18 -26.5t8 -44.5v-105q0 -11 7.5 -16t19.5 -2q76 25 134.5 78.5t92 127t33.5 158.5q0 79 -29.5 148.5t-82 122t-122 82t-149.5 29.5zM196 189q0 3 -5 3q-2 3 -4 2.5t-2 -2.5q-1 -2 3 -5
q7 -2 8 2zM209 171q2 1 0 8q-4 4 -9 1q-3 -3 2 -8l4 -2t3 1zM227 148q2 3 0 10q-6 6 -11 3q-1 -1 -1 -4.5t1 -5.5q2 -2 5.5 -3t5.5 0zM246 127q3 3 -2 10q-5 5 -10 2q-3 -4 3 -10q4 -7 9 -2zM274 115q0 6 -5 8q-8 3 -10 -3q0 -5 5 -8q8 -2 10 3zM334 118q0 2 -2.5 3.5
t-5.5 0.5q-4 0 -6 -2.5t-1 -4.5q0 -4 8 -4q3 1 6 3t1 4zM305 114q0 4 -7 4t-7 -4q0 -2 2 -5.5t5 -3.5q7 4 7 9z" />
    <glyph glyph-name=".null" horiz-adv-x="0" 
 />
    <glyph glyph-name="nonmarkingreturn" horiz-adv-x="333" 
 />
    <glyph glyph-name="CR" unicode="&#xd;" horiz-adv-x="214" 
 />
    <glyph glyph-name="space" unicode=" " horiz-adv-x="224" 
 />
    <glyph glyph-name="exclam" unicode="!" horiz-adv-x="259" 
d="M102 205h54l26 285v239h-105v-239zM80 0h98v106h-98v-106z" />
    <glyph glyph-name="quotedbl" unicode="&#x22;" horiz-adv-x="420" 
d="M134 410l23 173v146h-92v-146l22 -173h47zM333 410l22 173v146h-92v-146l23 -173h47z" />
    <glyph glyph-name="numbersign" unicode="#" horiz-adv-x="667" 
d="M148 0h92v194h191v-194h91v194h110v82h-110v191h110v81h-110v181h-91v-181h-191v181h-92v-181h-113v-81h113v-191h-113v-82h113v-194zM240 276v191h191v-191h-191z" />
    <glyph glyph-name="dollar" unicode="$" horiz-adv-x="640" 
d="M286 -85h66v77q120 7 182 64t62 145q0 63 -20 102.5t-54 62.5t-77 35.5t-90 20.5q-66 13 -107 25.5t-59.5 34.5t-18.5 62q0 50 38 80t105 30q66 0 107.5 -32t43.5 -98h110q-1 89 -59.5 146t-162.5 66v78h-66v-78q-107 -7 -167.5 -62t-60.5 -144q0 -65 29 -105t83.5 -62
t130.5 -36q68 -12 108 -27.5t57.5 -40.5t17.5 -68q0 -58 -44.5 -86.5t-115.5 -28.5q-88 0 -128.5 41t-42.5 111h-111q1 -98 61.5 -162.5t182.5 -73.5v-77z" />
    <glyph glyph-name="percent" unicode="%" horiz-adv-x="860" 
d="M160 0h77l463 729h-77zM192 332q66 0 106.5 51t40.5 146q0 92 -38.5 144t-106.5 52q-67 0 -108 -50.5t-41 -144.5q0 -92 39 -145t108 -53zM193 394q-34 0 -54.5 29.5t-20.5 105.5q0 77 21 105.5t54 28.5q32 0 52.5 -28.5t20.5 -105.5q0 -76 -20.5 -105.5t-52.5 -29.5z
M668 -4q66 0 106.5 51t40.5 145q0 92 -38.5 145t-106.5 53q-67 0 -108 -51t-41 -145q0 -92 39 -145t108 -53zM669 58q-34 0 -54.5 29.5t-20.5 105.5q0 77 20.5 105.5t54.5 28.5q32 0 52 -28.5t20 -105.5t-20 -106t-52 -29z" />
    <glyph glyph-name="ampersand" unicode="&#x26;" horiz-adv-x="720" 
d="M271 -10q67 0 127 24t99 74l79 -88h124l-137 151q18 31 31.5 74t18.5 83h96v77h-169q-1 -43 -10 -90t-26 -80l-155 172v5q67 24 109.5 71.5t42.5 112.5q0 48 -23 84.5t-63 57.5t-92 21q-57 0 -100.5 -21.5t-67.5 -60t-24 -88.5q0 -48 22.5 -88.5t61.5 -81.5
q-79 -34 -121.5 -90t-42.5 -123q0 -64 29.5 -107.5t79.5 -66t111 -22.5zM296 441q-28 31 -47 59.5t-19 63.5q0 38 24.5 64.5t67.5 26.5q41 0 65 -25t24 -63q0 -43 -30 -74.5t-80 -51.5h-5zM154 197q0 48 29.5 86t83.5 60l173 -192q-23 -35 -62 -55t-90 -20q-57 0 -95.5 31
t-38.5 90z" />
    <glyph glyph-name="quotesingle" unicode="'" horiz-adv-x="222" 
d="M134 410l23 173v146h-92v-146l22 -173h47z" />
    <glyph glyph-name="parenleft" unicode="(" horiz-adv-x="350" 
d="M230 -167h90q-50 52 -88.5 127.5t-60 166t-21.5 186.5q0 93 20.5 182.5t58.5 166.5t91 131h-90q-56 -53 -97 -130t-62.5 -167t-21.5 -183t21.5 -183t62.5 -167t97 -130z" />
    <glyph glyph-name="parenright" unicode=")" horiz-adv-x="350" 
d="M120 793h-90q50 -52 88.5 -127.5t60 -166t21.5 -186.5q0 -93 -20.5 -182.5t-58.5 -166.5t-91 -131h90q56 53 97 130t62.5 167t21.5 183t-21.5 183t-62.5 167t-97 130z" />
    <glyph glyph-name="asterisk" unicode="*" horiz-adv-x="325" 
d="M138 449h48v52l-11 65l52 -41l45 -27l24 42l-45 26l-60 23l60 24l44 25l-23 41l-45 -25l-52 -41l11 65v51h-48v-51l12 -65l-52 41l-45 25l-23 -41l44 -25l61 -24l-61 -23l-45 -26l24 -42l45 27l52 41l-12 -65v-52z" />
    <glyph glyph-name="plus" unicode="+" horiz-adv-x="546" 
d="M230 123h85v197h196v82h-196v197h-85v-197h-195v-82h195v-197z" />
    <glyph glyph-name="comma" unicode="," horiz-adv-x="206" 
d="M33 -159h26q44 2 68 26t24 81v157h-102v-105h46v-46q0 -25 -10.5 -40.5t-36.5 -17.5h-15v-55z" />
    <glyph glyph-name="hyphen" unicode="-" horiz-adv-x="360" 
d="M30 221h300v87h-300v-87z" />
    <glyph glyph-name="period" unicode="." horiz-adv-x="213" 
d="M55 0h103v105h-103v-105z" />
    <glyph glyph-name="slash" unicode="/" horiz-adv-x="490" 
d="M30 -81h100l309 810h-99z" />
    <glyph glyph-name="zero" unicode="0" horiz-adv-x="594" 
d="M298 -8q78 0 136.5 42.5t91 124.5t32.5 202q0 176 -70 272t-189 96q-79 0 -138.5 -42t-92.5 -123.5t-33 -201.5q0 -117 32 -200t91.5 -126.5t139.5 -43.5zM297 80q-73 0 -115.5 66.5t-42.5 214.5q0 149 42.5 215t115.5 66q74 0 116 -66t42 -215q0 -148 -42 -214.5
t-116 -66.5z" />
    <glyph glyph-name="one" unicode="1" horiz-adv-x="407" 
d="M204 0h103v721h-99q-5 -54 -41.5 -87t-108.5 -33h-28v-79h174v-522z" />
    <glyph glyph-name="two" unicode="2" horiz-adv-x="575" 
d="M43 0h484v91h-355q9 39 37.5 71t68 61t81.5 59t78.5 64.5t59 77t22.5 97.5q0 63 -29 110t-81 73t-122 26q-73 0 -128.5 -29t-85.5 -81t-28 -123h101q-4 68 34.5 106t100.5 38q59 0 95 -34t36 -91q0 -46 -26.5 -81.5t-68.5 -67t-89.5 -64t-89.5 -72t-68.5 -91.5
t-26.5 -122v-18z" />
    <glyph glyph-name="three" unicode="3" horiz-adv-x="590" 
d="M285 -9q76 0 132.5 26.5t88 73.5t31.5 110q0 65 -32 110.5t-91 59.5v6q50 17 81 60t31 103q0 86 -64 138t-171 52q-74 0 -129.5 -28t-86 -79.5t-30.5 -120.5h101q1 63 37.5 101t103.5 38q60 0 96.5 -29.5t36.5 -83.5q0 -50 -32.5 -84t-94.5 -34h-73v-79h79q59 0 95.5 -30
t36.5 -91q0 -59 -40 -94.5t-106 -35.5q-67 0 -106.5 39t-38.5 103h-101q0 -69 29.5 -121t85 -81t131.5 -29z" />
    <glyph glyph-name="four" unicode="4" horiz-adv-x="636" 
d="M397 0h103v177h98v85h-98v459h-134l-323 -464v-80h354v-177zM148 262l249 355v-355h-249z" />
    <glyph glyph-name="five" unicode="5" horiz-adv-x="606" 
d="M299 -9q79 0 136.5 31t89 87.5t31.5 130.5q0 71 -28.5 125.5t-81 85t-124.5 30.5q-49 0 -89.5 -18t-62.5 -48l-6 2l10 214h344v90h-435l-17 -409h98q15 36 50 59t87 23q68 0 108.5 -42t40.5 -116q0 -68 -39.5 -111t-110.5 -43q-66 0 -105.5 38t-39.5 100h-103
q1 -68 31 -120t85.5 -80.5t130.5 -28.5z" />
    <glyph glyph-name="six" unicode="6" horiz-adv-x="602" 
d="M307 -8q75 0 131.5 29t88 83.5t31.5 130.5q0 72 -28 125t-78 82.5t-117 29.5t-114.5 -30.5t-64.5 -80.5h-5q1 84 15 146.5t49.5 97.5t101.5 35q53 0 90 -26t44 -73h100q-9 86 -70 137.5t-164 51.5q-133 0 -201.5 -97t-68.5 -300q0 -168 66.5 -254.5t193.5 -86.5zM310 82
q-66 0 -106 40.5t-40 111.5q0 68 39 113.5t108 45.5q65 0 104 -41.5t39 -112.5q0 -72 -39.5 -114.5t-104.5 -42.5z" />
    <glyph glyph-name="seven" unicode="7" horiz-adv-x="598" 
d="M205 0h110q0 113 18 203t49.5 165.5t73 143.5t88.5 135v74h-501v-231h84v141h295q-42 -60 -80.5 -126t-69.5 -142t-49 -165.5t-18 -197.5z" />
    <glyph glyph-name="eight" unicode="8" horiz-adv-x="608" 
d="M304 -7q78 0 136.5 24.5t91 69t32.5 105.5q0 66 -37.5 114t-107.5 56v5q68 12 100.5 59.5t32.5 106.5q0 88 -66 142t-182 54q-115 0 -181 -53.5t-66 -141.5q0 -60 33.5 -107t100.5 -60v-5q-70 -10 -108.5 -59t-38.5 -112q0 -61 32.5 -105.5t91.5 -68.5t136 -24zM304 405
q-72 0 -106.5 33.5t-34.5 85.5q0 55 37.5 87t103.5 32q65 0 104 -31.5t39 -87.5q0 -50 -34 -84.5t-109 -34.5zM304 82q-67 0 -108 32.5t-41 90.5q0 49 36 83t113 34t113.5 -33t36.5 -84q0 -57 -40.5 -90t-109.5 -33z" />
    <glyph glyph-name="nine" unicode="9" horiz-adv-x="601" 
d="M289 -8q86 0 145 39t89.5 125.5t30.5 230.5q0 170 -66.5 256.5t-193.5 86.5q-74 0 -131 -29t-89 -83.5t-32 -131.5q0 -71 28 -124t78.5 -82.5t116.5 -29.5q68 0 115 31t65 80h5q0 -85 -13 -148t-47.5 -97.5t-99.5 -34.5q-55 0 -90.5 27t-42.5 73h-99q8 -86 69.5 -137.5
t161.5 -51.5zM289 329q-64 0 -103.5 41.5t-39.5 112.5t40 114t105 43q67 0 106.5 -40.5t39.5 -111.5q0 -68 -39 -113.5t-109 -45.5z" />
    <glyph glyph-name="colon" unicode=":" horiz-adv-x="213" 
d="M55 423h103v106h-103v-106zM55 0h103v105h-103v-105z" />
    <glyph glyph-name="semicolon" unicode=";" horiz-adv-x="206" 
d="M49 423h102v106h-102v-106zM33 -159h26q44 2 68 26t24 81v157h-102v-105h46v-46q0 -25 -10.5 -40.5t-36.5 -17.5h-15v-55z" />
    <glyph glyph-name="less" unicode="&#x3c;" horiz-adv-x="687" 
d="M590 109v102l-391 145v8l391 146v103l-492 -194v-117z" />
    <glyph glyph-name="equal" unicode="=" horiz-adv-x="665" 
d="M95 434h475v82h-475v-82zM95 205h475v83h-475v-83z" />
    <glyph glyph-name="greater" unicode="&#x3e;" horiz-adv-x="687" 
d="M98 109l492 193v117l-492 194v-103l390 -146v-8l-390 -145v-102z" />
    <glyph glyph-name="question" unicode="?" horiz-adv-x="550" 
d="M237 194h94v15q0 35 17.5 64.5t44 57.5t52.5 58.5t43.5 68t17.5 86.5q0 88 -57 141t-168 53q-72 0 -126 -27t-83.5 -76t-29.5 -115h101q-1 57 34.5 94t98.5 37q56 0 90 -29t34 -87q0 -38 -16.5 -69t-40.5 -58.5t-48.5 -56t-41 -62.5t-16.5 -77v-18zM233 0h103v105h-103
v-105z" />
    <glyph glyph-name="at" unicode="@" horiz-adv-x="887" 
d="M455 -101q46 0 92 9t86.5 26.5t67.5 40.5l-27 56q-38 -30 -93 -47.5t-123 -17.5q-106 0 -182.5 43.5t-117.5 123t-41 186.5q0 102 40 181.5t116 125t183 45.5q93 0 165 -37t113 -106t41 -166q0 -86 -31 -139.5t-82 -53.5q-33 0 -49.5 26t-12.5 83l16 226h-51l-11 -71h-5
q-11 38 -41.5 60t-69.5 22q-73 0 -119 -59t-46 -160q0 -92 42.5 -140.5t106.5 -48.5q41 0 74.5 23.5t49.5 69.5h5q7 -44 35.5 -70t76.5 -26q54 0 96 33t65.5 92.5t23.5 137.5q0 111 -50.5 194.5t-139 130t-202.5 46.5q-93 0 -169 -30.5t-131.5 -87t-85.5 -134t-30 -171.5
q0 -125 51 -218.5t144 -145.5t220 -52zM433 171q-40 0 -64.5 32.5t-24.5 95.5q0 68 26 110.5t77 42.5q41 0 65.5 -33t27.5 -100q-4 -66 -31.5 -107t-75.5 -41z" />
    <glyph glyph-name="A" unicode="A" horiz-adv-x="676" 
d="M3 0h114l60 170h323l60 -170h114l-259 729h-153zM203 255l82 225l51 149h6l51 -149l80 -225h-270z" />
    <glyph glyph-name="B" unicode="B" horiz-adv-x="705" 
d="M88 0h325q118 0 184.5 53.5t66.5 151.5q0 62 -34.5 109.5t-101.5 60.5v5q59 15 88 60t29 102q0 84 -56 135.5t-163 51.5h-338v-729zM195 415v228h205q62 0 99 -30t37 -86q0 -50 -31.5 -81t-95.5 -31h-214zM195 86v246h219q65 0 102 -31t37 -90q0 -55 -36.5 -90
t-113.5 -35h-208z" />
    <glyph glyph-name="C" unicode="C" horiz-adv-x="768" 
d="M397 -9q90 0 161.5 31.5t116 89t53.5 134.5l-110 1q-13 -73 -72.5 -117.5t-148.5 -44.5q-113 0 -179 73t-66 206q0 134 66 206.5t179 72.5q89 0 147.5 -44t73.5 -114h110q-11 77 -55.5 133.5t-115 87.5t-160.5 31q-107 0 -187.5 -45t-125 -128.5t-44.5 -199.5
q0 -115 44.5 -198.5t125 -129t187.5 -45.5z" />
    <glyph glyph-name="D" unicode="D" horiz-adv-x="752" 
d="M88 0h295q105 0 179 45.5t112.5 127.5t38.5 191q0 110 -38.5 192t-112.5 127.5t-179 45.5h-295v-729zM197 94v541h170q105 0 169.5 -65t64.5 -204t-64 -205.5t-170 -66.5h-170z" />
    <glyph glyph-name="E" unicode="E" horiz-adv-x="650" 
d="M88 0h512v95h-403v233h353v88h-353v219h402v94h-511v-729z" />
    <glyph glyph-name="F" unicode="F" horiz-adv-x="626" 
d="M88 0h109v311h360v90h-360v234h400v94h-509v-729z" />
    <glyph glyph-name="G" unicode="G" horiz-adv-x="788" 
d="M396 -9q106 0 185 41t123 116.5t44 178.5v53h-343v-81h232q-6 -102 -70.5 -158.5t-168.5 -56.5q-113 0 -180 74t-67 207t68.5 205t180.5 72q85 0 145.5 -40t74.5 -115h112q-9 76 -53 132t-115 87t-164 31q-107 0 -188.5 -45t-126.5 -128.5t-45 -199.5q0 -111 43 -195
t123 -131t190 -47z" />
    <glyph glyph-name="H" unicode="H" horiz-adv-x="803" 
d="M88 0h109v322h408v-322h109v729h-109v-312h-408v312h-109v-729z" />
    <glyph glyph-name="I" unicode="I" horiz-adv-x="286" 
d="M88 0h109v729h-109v-729z" />
    <glyph glyph-name="J" unicode="J" horiz-adv-x="407" 
d="M114 -8q94 0 149.5 46.5t55.5 151.5v539h-108v-530q0 -61 -30 -88.5t-87 -27.5q-25 0 -45 5.5t-34 13.5v-89q17 -9 43 -15t56 -6z" />
    <glyph glyph-name="K" unicode="K" horiz-adv-x="700" 
d="M88 0h109v217l123 130l231 -347h129l-286 426l281 303h-132l-346 -382v382h-109v-729z" />
    <glyph glyph-name="L" unicode="L" horiz-adv-x="554" 
d="M88 0h457v98h-348v631h-109v-729z" />
    <glyph glyph-name="M" unicode="M" horiz-adv-x="920" 
d="M88 0h107v340l-2 274h7l217 -614h87l217 614h7l-3 -273v-341h106v729h-166l-203 -558h-4l-203 558h-167v-729z" />
    <glyph glyph-name="N" unicode="N" horiz-adv-x="794" 
d="M88 0h111v350l-4 227h6l377 -577h128v729h-106v-340l6 -244h-7l-377 584h-134v-729z" />
    <glyph glyph-name="O" unicode="O" horiz-adv-x="798" 
d="M399 -9q108 0 189 45t126 128.5t45 199.5t-45 199.5t-125.5 128.5t-189.5 45q-108 0 -188.5 -45t-125.5 -128.5t-45 -199.5q0 -115 44.5 -199t125.5 -129t189 -45zM399 85q-113 0 -180 73t-67 206t66.5 206t180.5 73t181 -73t67 -206q0 -132 -67 -205.5t-181 -73.5z" />
    <glyph glyph-name="P" unicode="P" horiz-adv-x="664" 
d="M88 0h109v265h185q80 0 137 28.5t87.5 81t30.5 122.5q0 111 -69 171.5t-185 60.5h-295v-729zM366 352h-169v283h169q71 0 115.5 -34t44.5 -107t-44.5 -108t-115.5 -34z" />
    <glyph glyph-name="Q" unicode="Q" horiz-adv-x="798" 
d="M664 -171h17v97l-183 82q122 27 191.5 120.5t69.5 235.5q0 116 -45 199.5t-125.5 128.5t-189.5 45q-108 0 -188.5 -45t-125.5 -128.5t-45 -199.5q0 -114 44 -197t123 -128.5t185 -47.5zM399 85q-113 0 -180 73t-67 206t66.5 206t180.5 73t181 -73t67 -206
q0 -132 -67 -205.5t-181 -73.5z" />
    <glyph glyph-name="R" unicode="R" horiz-adv-x="720" 
d="M88 0h109v295h217q77 0 103.5 -28.5t26.5 -84.5v-101q0 -25 2 -46t9 -35h110q-9 20 -10.5 40t-1.5 39v122q0 62 -26.5 98t-85.5 46v7q62 17 95.5 63.5t33.5 112.5q0 97 -61 149t-181 52h-340v-729zM197 383v254h216q65 0 105 -29t40 -94q0 -57 -33.5 -94t-111.5 -37h-216
z" />
    <glyph glyph-name="S" unicode="S" horiz-adv-x="661" 
d="M332 -9q140 0 212.5 58t72.5 152q0 63 -20.5 103t-56 63t-80.5 35t-93 20q-70 13 -113 25.5t-62.5 34.5t-19.5 62q0 50 39.5 79.5t111.5 29.5q71 0 114.5 -32t45.5 -97h111q-1 96 -71.5 154.5t-195.5 58.5t-196.5 -56t-71.5 -152q0 -62 28.5 -101.5t84.5 -63t140 -38.5
q72 -12 114 -26.5t60 -39.5t18 -69q0 -58 -46.5 -86t-123.5 -28q-93 0 -135.5 40.5t-44.5 110.5h-112q1 -70 33 -123.5t96 -83.5t161 -30z" />
    <glyph glyph-name="T" unicode="T" horiz-adv-x="588" 
d="M238 0h109v634h231v95h-569v-95h229v-634z" />
    <glyph glyph-name="U" unicode="U" horiz-adv-x="762" 
d="M380 -9q94 0 160.5 34t102.5 96.5t36 148.5v459h-108v-457q0 -85 -47 -134t-143 -49q-88 0 -139 46t-51 137v457h-109v-459q0 -86 35.5 -148.5t102.5 -96.5t160 -34z" />
    <glyph glyph-name="V" unicode="V" horiz-adv-x="690" 
d="M271 0h148l265 729h-120l-177 -508l-39 -118h-7l-38 119l-176 507h-122z" />
    <glyph glyph-name="W" unicode="W" horiz-adv-x="957" 
d="M171 0h150l155 588h6l154 -588h150l162 729h-119l-82 -404l-38 -207h-7l-154 611h-138l-152 -610h-7l-40 207l-83 403h-119z" />
    <glyph glyph-name="X" unicode="X" horiz-adv-x="682" 
d="M-2 0h127l213 314h3l214 -314h129l-271 394l234 335h-127l-178 -266h-4l-178 266h-127l236 -336z" />
    <glyph glyph-name="Y" unicode="Y" horiz-adv-x="657" 
d="M273 0h109v287l271 442h-123l-200 -336h-5l-198 336h-124l270 -442v-287z" />
    <glyph glyph-name="Z" unicode="Z" horiz-adv-x="644" 
d="M41 0h563v95h-428l417 543v91h-536v-95h399l-415 -543v-91z" />
    <glyph glyph-name="bracketleft" unicode="[" horiz-adv-x="341" 
d="M88 -167h244v80h-147v800h147v80h-244v-960z" />
    <glyph glyph-name="backslash" unicode="\" horiz-adv-x="490" 
d="M360 -81h100l-310 810h-99z" />
    <glyph glyph-name="bracketright" unicode="]" horiz-adv-x="341" 
d="M253 793h-244v-80h147v-800h-147v-80h244v960z" />
    <glyph glyph-name="asciicircum" unicode="^" horiz-adv-x="437" 
d="M27 472h97l95 174l93 -174h98l-138 257h-107z" />
    <glyph glyph-name="underscore" unicode="_" horiz-adv-x="362" 
d="M0 -87h362v87h-362v-87z" />
    <glyph glyph-name="grave" unicode="`" horiz-adv-x="244" 
d="M127 741h77l-59 142h-105z" />
    <glyph glyph-name="a" unicode="a" 
d="M252 -9q67 0 114 31.5t66 82.5h6v-105h103v529h-99l-4 -104h-6q-19 51 -66 82t-114 31q-97 0 -156.5 -70t-59.5 -203t59.5 -203.5t156.5 -70.5zM288 76q-66 0 -106 48t-40 141q0 94 40 141.5t106 47.5q49 0 82 -23t50 -59t17 -77v-60q0 -41 -17 -77.5t-50 -59t-82 -22.5z
" />
    <glyph glyph-name="b" unicode="b" 
d="M361 -9q97 0 156.5 70t59.5 203t-59.5 203.5t-156.5 70.5q-67 0 -114 -31.5t-66 -81.5h-6v304h-103v-729h99l4 104h6q19 -51 66 -82t114 -31zM325 76q-49 0 -82 22.5t-50 59t-17 77.5v59q0 41 17 77.5t50 59t82 22.5q66 0 106 -47.5t40 -141.5q0 -93 -40 -140.5
t-106 -47.5z" />
    <glyph glyph-name="c" unicode="c" horiz-adv-x="562" 
d="M293 -9q66 0 118 24.5t83 69t35 104.5h-100q-6 -50 -42 -81t-94 -31q-69 0 -110.5 48.5t-41.5 137.5q0 85 40 136.5t113 51.5q51 0 87.5 -26.5t45.5 -78.5h100q-4 57 -34.5 100t-81 67t-114.5 24q-79 0 -138 -34t-91 -95.5t-32 -143.5t32 -143.5t90 -95.5t135 -34z" />
    <glyph glyph-name="d" unicode="d" 
d="M252 -9q67 0 114 31.5t66 82.5h6l4 -105h99v729h-103v-304h-6q-19 51 -66 82t-114 31q-97 0 -156.5 -70t-59.5 -203t59.5 -203.5t156.5 -70.5zM288 76q-66 0 -106 48t-40 141q0 94 40 141.5t106 47.5q49 0 82 -23t50 -59t17 -77v-60q0 -41 -17 -77.5t-50 -59t-82 -22.5z
" />
    <glyph glyph-name="e" unicode="e" horiz-adv-x="569" 
d="M292 -9q63 0 113.5 21.5t82.5 60t39 90.5h-98q-10 -41 -47 -65.5t-90 -24.5q-69 0 -110.5 44.5t-43.5 126.5h392q8 83 -17 149.5t-81.5 105t-143.5 38.5q-77 0 -134 -34t-87.5 -95.5t-30.5 -145.5q0 -81 31 -142t88.5 -95t136.5 -34zM287 456q59 0 99.5 -33t42.5 -106
h-289q6 65 45.5 102t101.5 37z" />
    <glyph glyph-name="f" unicode="f" horiz-adv-x="352" 
d="M114 0h103v445h117v84h-117v68q0 26 12.5 41.5t47.5 15.5h68v75h-95q-63 0 -99.5 -31t-36.5 -91v-78h-96v-84h96v-445z" />
    <glyph glyph-name="g" unicode="g" horiz-adv-x="598" 
d="M281 -177q75 0 131 22t87.5 71.5t31.5 132.5v480h-100l-2 -98h-7q-18 48 -63.5 77.5t-108.5 29.5q-96 0 -155 -66t-59 -188q0 -121 58 -187t155 -66q63 0 109 29.5t64 77.5h7v-103q0 -73 -37.5 -104.5t-108.5 -31.5q-50 0 -82.5 20.5t-38.5 55.5h-100q8 -70 66 -111
t153 -41zM284 111q-64 0 -103 44.5t-39 128.5q0 83 38.5 128t104.5 45q47 0 78.5 -20.5t48 -52.5t16.5 -67l1 -64q-1 -35 -18 -67.5t-49 -53.5t-78 -21z" />
    <glyph glyph-name="h" unicode="h" horiz-adv-x="615" 
d="M72 0h102v289q0 46 18 82.5t51.5 58.5t78.5 22q63 0 93 -39t30 -120v-293h103v314q0 81 -24.5 130t-67.5 71t-97 22q-58 0 -107 -28.5t-72 -84.5h-6v305h-102v-729z" />
    <glyph glyph-name="i" unicode="i" horiz-adv-x="246" 
d="M72 610h103v119h-103v-119zM72 0h103v529h-103v-529z" />
    <glyph glyph-name="j" unicode="j" horiz-adv-x="236" 
d="M61 610h103v119h-103v-119zM-40 -173h70q71 0 102.5 35.5t31.5 98.5v568h-103v-559q0 -31 -13 -46.5t-45 -15.5h-43v-81z" />
    <glyph glyph-name="k" unicode="k" horiz-adv-x="584" 
d="M72 0h104v162l94 91l32 -53l132 -200h121l-213 323l205 206h-128l-197 -203l-46 -50v453h-104v-729z" />
    <glyph glyph-name="l" unicode="l" horiz-adv-x="246" 
d="M72 0h103v729h-103v-729z" />
    <glyph glyph-name="m" unicode="m" horiz-adv-x="970" 
d="M72 0h102v289q0 46 17.5 82.5t49.5 58.5t76 22q62 0 90.5 -39t28.5 -120v-293h103v289q0 46 17.5 82.5t49.5 58.5t75 22q62 0 91 -39t29 -120v-293h102v314q0 81 -24 130t-65 71t-94 22q-64 0 -114 -31t-72 -93h-8q-20 68 -66 96t-105 28q-58 0 -105 -28.5t-70 -84.5h-6
l-4 105h-98v-529z" />
    <glyph glyph-name="n" unicode="n" horiz-adv-x="615" 
d="M72 0h102v289q0 46 18 82.5t51.5 58.5t78.5 22q63 0 93 -39t30 -120v-293h103v314q0 81 -24.5 130t-67.5 71t-97 22q-58 0 -107 -28.5t-72 -84.5h-6l-4 105h-98v-529z" />
    <glyph glyph-name="o" unicode="o" horiz-adv-x="589" 
d="M295 -9q80 0 137.5 34.5t89 96t31.5 142.5q0 84 -32.5 145.5t-90.5 94.5t-135 33q-80 0 -138 -34.5t-89.5 -96t-31.5 -143.5q0 -83 32.5 -144t91 -94.5t135.5 -33.5zM295 77q-70 0 -112 49t-42 137q0 92 42.5 140.5t111.5 48.5q71 0 112 -49.5t41 -138.5
q0 -90 -42 -138.5t-111 -48.5z" />
    <glyph glyph-name="p" unicode="p" horiz-adv-x="614" 
d="M72 -167h103v271h6q20 -51 67 -82t113 -31q97 0 156.5 70t59.5 203t-59.5 203.5t-156.5 70.5q-66 0 -113 -31.5t-67 -81.5h-6l-4 104h-99v-696zM325 76q-49 0 -82 22.5t-50 59t-17 77.5v59q0 41 17 77.5t50 59t82 22.5q66 0 106.5 -47.5t40.5 -141.5q0 -93 -40.5 -140.5
t-106.5 -47.5z" />
    <glyph glyph-name="q" unicode="q" 
d="M438 -167h103v696h-99l-4 -104h-6q-19 51 -66 82t-114 31q-97 0 -156.5 -70t-59.5 -203t59.5 -203.5t156.5 -70.5q67 0 114 31.5t66 82.5h6v-272zM288 76q-66 0 -106 48t-40 141q0 94 40 141.5t106 47.5q49 0 82 -23t50 -59t17 -77v-60q0 -41 -17 -77.5t-50 -59
t-82 -22.5z" />
    <glyph glyph-name="r" unicode="r" horiz-adv-x="376" 
d="M72 0h102v302q4 65 43 100.5t109 35.5h17.5t14.5 -1v97q-7 1 -14.5 1.5t-16.5 0.5q-52 0 -94 -25t-59 -76h-5l-5 94h-92v-529z" />
    <glyph glyph-name="s" unicode="s" horiz-adv-x="538" 
d="M269 -10q104 0 164 39.5t60 120.5q0 61 -27.5 92.5t-73.5 46t-101 21.5q-67 9 -98.5 25t-31.5 55q0 34 28 55t80 21q51 0 81 -22.5t31 -70.5h101q-1 77 -57 121.5t-154 44.5q-96 0 -154.5 -41.5t-58.5 -117.5q0 -54 26 -84t71.5 -45t105.5 -24q67 -10 97 -26t30 -60
q0 -37 -29.5 -57.5t-86.5 -20.5q-55 0 -91 24.5t-36 78.5h-102q0 -79 58.5 -127.5t167.5 -48.5z" />
    <glyph glyph-name="t" unicode="t" horiz-adv-x="359" 
d="M223 0h106v85h-72q-25 0 -35 9t-10 35v316h117v84h-117v165l-103 -12v-153h-100v-84h100v-335q0 -53 24.5 -81.5t89.5 -28.5z" />
    <glyph glyph-name="u" unicode="u" horiz-adv-x="610" 
d="M257 -9q62 0 110 30.5t67 85.5h6l5 -107h98v529h-103v-286q0 -73 -40 -119.5t-105 -46.5q-67 0 -96 39.5t-29 112.5v300h-103v-326q0 -105 50 -158.5t140 -53.5z" />
    <glyph glyph-name="v" unicode="v" horiz-adv-x="498" 
d="M187 0h126l188 529h-111l-106 -326l-32 -114h-4l-34 114l-106 326h-111z" />
    <glyph glyph-name="w" unicode="w" horiz-adv-x="748" 
d="M141 0h134l95 398h4l98 -398h135l135 529h-101l-104 -427h-3l-101 427h-114l-98 -426h-5l-104 426h-106z" />
    <glyph glyph-name="x" unicode="x" horiz-adv-x="540" 
d="M-3 0h116l154 207h6l148 -207h121l-200 276l180 253h-117l-129 -185h-5l-131 185h-122l185 -256z" />
    <glyph glyph-name="y" unicode="y" horiz-adv-x="498" 
d="M37 -167h74q62 0 103.5 26t66.5 95l220 575h-109l-114 -322l-21 -63h-4l-22 63l-121 322h-113l208 -491l-23 -59q-13 -31 -33 -46t-55 -15h-57v-85z" />
    <glyph glyph-name="z" unicode="z" horiz-adv-x="506" 
d="M27 0h452v84h-321l310 370v75h-427v-84h297l-311 -370v-75z" />
    <glyph glyph-name="braceleft" unicode="{" horiz-adv-x="383" 
d="M209 -167h165v80h-147v279q0 46 -20 77.5t-58 40.5v4q32 4 55 32.5t23 82.5v284h147v80h-165q-40 0 -59 -22.5t-19 -56.5v-282q0 -39 -18.5 -61t-44.5 -22h-28v-80h28q26 0 44.5 -21t18.5 -60v-276q0 -34 19 -56.5t59 -22.5z" />
    <glyph glyph-name="bar" unicode="|" horiz-adv-x="273" 
d="M90 -67h94v796h-94v-796z" />
    <glyph glyph-name="braceright" unicode="}" horiz-adv-x="383" 
d="M174 793h-165v-80h147v-279q0 -46 20 -77.5t58 -40.5v-4q-32 -4 -55 -32.5t-23 -82.5v-284h-147v-80h165q40 0 59 22.5t19 56.5v282q0 39 18.5 61t44.5 22h28v80h-28q-26 0 -44.5 21t-18.5 60v276q0 34 -19 56.5t-59 22.5z" />
    <glyph glyph-name="asciitilde" unicode="~" horiz-adv-x="576" 
d="M96 287h56q-3 24 9 42.5t36 18.5t50.5 -14t58 -28t68.5 -14q28 0 54 13.5t42 46t12 88.5h-57q1 -28 -13 -45t-43 -17t-56 13.5t-55.5 27t-62.5 13.5q-26 0 -50 -13.5t-38.5 -45t-10.5 -86.5z" />
    <glyph glyph-name="uni00A0" unicode="&#xa0;" horiz-adv-x="224" 
 />
    <glyph glyph-name="exclamdown" unicode="&#xa1;" horiz-adv-x="259" 
d="M157 323h-54l-26 -285v-239h105v239zM179 528h-98v-106h98v106z" />
    <glyph glyph-name="cent" unicode="&#xa2;" horiz-adv-x="572" 
d="M252 -85h69v77q89 7 147 60t64 137h-100q-6 -50 -42 -81t-94 -31q-69 0 -110.5 48.5t-41.5 137.5q0 85 40 136.5t113 51.5q51 0 87.5 -26.5t45.5 -78.5h100q-4 54 -31.5 95.5t-73 66t-104.5 28.5v76h-69v-79q-98 -15 -155 -87t-57 -182q0 -111 57.5 -183.5t154.5 -86.5
v-79z" />
    <glyph glyph-name="sterling" unicode="&#xa3;" horiz-adv-x="616" 
d="M22 0h553v196h-90v-106h-276v229h200v80h-200v118q0 59 32 93.5t95 34.5q57 0 91 -32t34 -94v-20h99v27q0 98 -59.5 154.5t-165.5 56.5q-104 0 -167.5 -56.5t-63.5 -161.5v-120h-82v-80h82v-229h-82v-90z" />
    <glyph glyph-name="currency" unicode="&#xa4;" horiz-adv-x="615" 
d="M98 81l105 105q22 -13 48 -20.5t57 -7.5q28 0 55 7.5t49 21.5l105 -106l59 59l-102 102q17 23 25 50.5t8 55.5q0 60 -33 109l102 101l-59 60l-106 -107q-22 14 -49.5 21t-53.5 7q-29 0 -56 -7.5t-48 -20.5l-105 107l-59 -60l101 -101q-33 -46 -33 -109q0 -60 32 -106
l-101 -102zM308 240q-49 0 -80.5 30.5t-31.5 78.5t32 78.5t80 30.5q47 0 79 -30.5t32 -78.5q0 -47 -32 -78t-79 -31z" />
    <glyph glyph-name="yen" unicode="&#xa5;" horiz-adv-x="610" 
d="M253 0h104v126h182v75h-182v95h182v75h-136l203 358h-112l-187 -345h-6l-185 345h-113l205 -358h-138v-75h183v-95h-183v-75h183v-126z" />
    <glyph glyph-name="brokenbar" unicode="&#xa6;" horiz-adv-x="273" 
d="M90 401h94v328h-94v-328zM90 -67h94v328h-94v-328z" />
    <glyph glyph-name="dieresis" unicode="&#xa8;" horiz-adv-x="359" 
d="M40 759h91v124h-91v-124zM228 759h91v124h-91v-124z" />
    <glyph glyph-name="copyright" unicode="&#xa9;" horiz-adv-x="822" 
d="M28 364q0 -112 48.5 -196t135 -131t199.5 -47q114 0 200.5 47t135 131t48.5 196t-48.5 196t-135 130.5t-200.5 46.5q-113 0 -199.5 -46.5t-135 -130.5t-48.5 -196zM81 364q0 97 41.5 170.5t116 114.5t172.5 41q99 0 173.5 -41t116 -114.5t41.5 -170.5t-41.5 -170.5
t-116 -114t-173.5 -40.5q-98 0 -172.5 40.5t-116 114t-41.5 170.5zM217 363q0 -60 24.5 -105.5t68.5 -71t103 -25.5q77 0 127 40.5t54 106.5h-77q-4 -37 -32.5 -59t-71.5 -22q-52 0 -84 35.5t-32 100.5q0 62 30.5 100t86.5 38q37 0 66 -19t36 -58h77q-4 62 -53 102.5
t-123 40.5q-91 0 -145.5 -56t-54.5 -148z" />
    <glyph glyph-name="ordfeminine" unicode="&#xaa;" horiz-adv-x="402" 
d="M163 379q41 0 72 19.5t44 52.5h3v-66h75v345h-71l-4 -66h-3q-13 33 -43.5 52.5t-72.5 19.5q-63 0 -101.5 -45.5t-38.5 -133.5q0 -86 38.5 -132t101.5 -46zM190 440q-41 0 -66 30t-25 87q0 59 25 88.5t66 29.5q45 0 68 -30t23 -68v-38q0 -37 -23 -68t-68 -31z" />
    <glyph glyph-name="guillemotleft" unicode="&#xab;" horiz-adv-x="466" 
d="M156 0h89l-117 265l117 264h-89l-124 -264zM349 0h90l-118 265l118 264h-90l-123 -264z" />
    <glyph glyph-name="logicalnot" unicode="&#xac;" horiz-adv-x="668" 
d="M492 147h80v263h-475v-81h395v-182z" />
    <glyph glyph-name="registered" unicode="&#xae;" horiz-adv-x="606" 
d="M302 221q74 0 133.5 33t94 91.5t34.5 134.5q0 77 -34.5 135t-94 90.5t-133.5 32.5q-73 0 -131.5 -32.5t-93 -90.5t-34.5 -135q0 -76 34 -134.5t93 -91.5t132 -33zM302 259q-61 0 -111 28t-79.5 78t-29.5 114q0 65 29.5 115.5t79.5 79t112 28.5t111.5 -28.5t79 -78.5
t29.5 -115t-29.5 -115t-79.5 -78t-112 -28zM204 362h57v85h57q21 0 28 -9t7 -25v-21q0 -13 1 -19t3 -11h58q-3 7 -3.5 15t-0.5 13v26q0 46 -39 53v1q20 6 32 22.5t12 39.5q0 43 -28.5 59t-65.5 16h-118v-245zM312 563q46 0 46 -37q0 -18 -11.5 -29t-34.5 -11h-51v77h51z" />
    <glyph glyph-name="macron" unicode="&#xaf;" horiz-adv-x="422" 
d="M40 765h342v78h-342v-78z" />
    <glyph glyph-name="degree" unicode="&#xb0;" horiz-adv-x="414" 
d="M207 419q49 0 87 20t60.5 56t22.5 83q0 48 -22.5 84t-60.5 56t-87 20q-48 0 -86 -20t-60.5 -56t-22.5 -84q0 -47 22.5 -83t60.5 -56t86 -20zM207 490q-38 0 -64.5 24t-26.5 64q0 41 26.5 64.5t64.5 23.5t64.5 -23.5t26.5 -64.5q0 -40 -26.5 -64t-64.5 -24z" />
    <glyph glyph-name="plusminus" unicode="&#xb1;" horiz-adv-x="624" 
d="M270 176h85v172h204v82h-204v173h-85v-173h-204v-82h204v-172zM66 0h493v75h-493v-75z" />
    <glyph glyph-name="uni00B2" unicode="&#xb2;" horiz-adv-x="349" 
d="M25 326h297v64h-206q8 26 30.5 46.5t51.5 40t56 42t45 51t18 67.5q0 58 -39 92.5t-103 34.5q-67 0 -108.5 -38.5t-40.5 -103.5h71q-1 39 19.5 59t53.5 20q32 0 52 -18t20 -50q0 -31 -22 -54.5t-54 -45t-64.5 -47t-54.5 -61t-22 -87.5v-12z" />
    <glyph glyph-name="uni00B3" unicode="&#xb3;" horiz-adv-x="360" 
d="M174 321q69 0 112 34.5t43 92.5q0 40 -19.5 66t-52.5 34v4q28 9 47 34.5t19 62.5q0 53 -39.5 84t-104.5 31q-70 0 -111.5 -37.5t-41.5 -99.5h71q1 34 21.5 54.5t56.5 20.5q32 0 52.5 -16t20.5 -47q0 -27 -17.5 -45.5t-52.5 -18.5h-45v-55h50q32 0 52 -16.5t20 -49.5
q0 -32 -22 -51.5t-59 -19.5t-59 22t-21 54h-72q1 -61 41 -99.5t111 -38.5z" />
    <glyph glyph-name="acute" unicode="&#xb4;" horiz-adv-x="244" 
d="M40 741h78l86 142h-104z" />
    <glyph glyph-name="paragraph" unicode="&#xb6;" horiz-adv-x="734" 
d="M209 -151h98v791h157v-791h99v791h83v89h-437q-94 0 -147 -45.5t-53 -130.5q0 -82 52.5 -130t147.5 -47v-527z" />
    <glyph glyph-name="periodcentered" unicode="&#xb7;" horiz-adv-x="277" 
d="M55 277q0 -35 23.5 -58.5t60.5 -23.5q38 0 60 23.5t22 58.5t-22 58.5t-60 23.5q-37 0 -60.5 -23.5t-23.5 -58.5z" />
    <glyph glyph-name="cedilla" unicode="&#xb8;" horiz-adv-x="300" 
d="M150 -232q48 0 79.5 25t31.5 70q0 36 -22 59t-63 26v67h-60v-105h25q22 0 34.5 -11t12.5 -32q0 -19 -11.5 -31.5t-31.5 -12.5q-19 0 -29.5 11t-11.5 26h-67q0 -43 32 -67.5t81 -24.5z" />
    <glyph glyph-name="uni00B9" unicode="&#xb9;" horiz-adv-x="253" 
d="M123 326h72v433h-69q-3 -34 -26 -54t-66 -20h-17v-55h106v-304z" />
    <glyph glyph-name="ordmasculine" unicode="&#xba;" horiz-adv-x="385" 
d="M193 379q79 0 124 49.5t45 128.5q0 83 -46.5 131t-122.5 48q-79 0 -124.5 -49.5t-45.5 -129.5q0 -82 47 -130t123 -48zM193 441q-43 0 -68.5 30t-25.5 86q0 57 25.5 87t68.5 30t68 -30t25 -87t-25.5 -86.5t-67.5 -29.5z" />
    <glyph glyph-name="guillemotright" unicode="&#xbb;" horiz-adv-x="466" 
d="M310 529h-89l117 -265l-117 -264h89l124 264zM117 529h-90l118 -265l-118 -264h90l123 264z" />
    <glyph glyph-name="onequarter" unicode="&#xbc;" horiz-adv-x="631" 
d="M106 333h64v388h-61q-3 -29 -23.5 -47.5t-60.5 -18.5h-16v-50h97v-272zM7 0h80l497 721h-81zM504 0h65v92h52v54h-52v242h-83l-172 -246v-50h190v-92zM379 146l125 179v-179h-125z" />
    <glyph glyph-name="onehalf" unicode="&#xbd;" horiz-adv-x="693" 
d="M106 333h64v388h-61q-3 -29 -23.5 -47.5t-60.5 -18.5h-16v-50h97v-272zM7 0h80l497 721h-81zM396 0h269v57h-109q-16 0 -37.5 -0.5t-41.5 -2.5q9 24 30 43.5t47 37.5t50.5 38t40.5 46t16 60q0 52 -35.5 83t-93.5 31q-61 0 -98.5 -34.5t-36.5 -93.5h64q-2 32 16 51.5
t51 19.5q30 0 48 -16.5t18 -44.5t-20 -49t-49.5 -40t-59 -42.5t-49.5 -55.5t-20 -78v-10z" />
    <glyph glyph-name="threequarters" unicode="&#xbe;" horiz-adv-x="736" 
d="M161 328q62 0 101.5 32t39.5 82q0 33 -16.5 57.5t-49.5 33.5v2q29 10 44.5 33.5t15.5 54.5q0 47 -37 75t-94 28q-59 0 -98 -32.5t-40 -90.5h64q1 31 21 49t51 18q29 0 47.5 -15t18.5 -41q0 -25 -16 -41t-48 -16h-41v-50h45q30 0 48.5 -15.5t18.5 -43.5t-20.5 -46
t-54.5 -18q-32 0 -53 19t-21 50h-63q0 -55 36.5 -90t100.5 -35zM112 0h80l497 721h-81zM609 0h65v92h52v54h-52v242h-83l-172 -246v-50h190v-92zM484 146l125 179v-179h-125z" />
    <glyph glyph-name="questiondown" unicode="&#xbf;" horiz-adv-x="550" 
d="M311 335h-94v-15q0 -35 -17.5 -64.5t-44 -57.5t-52.5 -58.5t-43.5 -68t-17.5 -86.5q0 -88 57 -141t168 -53q72 0 126 27t83.5 76t29.5 115h-101q1 -57 -34.5 -94t-98.5 -37q-56 0 -90 29t-34 87q0 38 16.5 69t40.5 58.5t48.5 56t41 62.5t16.5 77v18zM315 529h-103v-105
h103v105z" />
    <glyph glyph-name="Agrave" unicode="&#xc0;" horiz-adv-x="676" 
d="M3 0h114l60 170h323l60 -170h114l-259 729h-153zM203 255l82 225l51 149h6l51 -149l80 -225h-270zM301 795h77l-59 142h-105z" />
    <glyph glyph-name="Aacute" unicode="&#xc1;" horiz-adv-x="676" 
d="M3 0h114l60 170h323l60 -170h114l-259 729h-153zM203 255l82 225l51 149h6l51 -149l80 -225h-270zM299 795h78l86 142h-104z" />
    <glyph glyph-name="Acircumflex" unicode="&#xc2;" horiz-adv-x="676" 
d="M3 0h114l60 170h323l60 -170h114l-259 729h-153zM203 255l82 225l51 149h6l51 -149l80 -225h-270zM179 795h91l69 89l68 -89h92l-113 142h-95z" />
    <glyph glyph-name="Atilde" unicode="&#xc3;" horiz-adv-x="676" 
d="M3 0h114l60 170h323l60 -170h114l-259 729h-153zM203 255l82 225l51 149h6l51 -149l80 -225h-270zM397 810q32 0 59.5 19t46.5 62l-44 28q-8 -13 -21.5 -24t-35.5 -11t-42 8t-39.5 16.5t-42.5 8.5q-29 0 -56 -17t-48 -62l42 -28q12 15 26 24t33 9q21 0 38.5 -8t37 -16
t46.5 -9z" />
    <glyph glyph-name="Adieresis" unicode="&#xc4;" horiz-adv-x="676" 
d="M3 0h114l60 170h323l60 -170h114l-259 729h-153zM203 255l82 225l51 149h6l51 -149l80 -225h-270zM199 813h91v124h-91v-124zM387 813h91v124h-91v-124z" />
    <glyph glyph-name="Aring" unicode="&#xc5;" horiz-adv-x="676" 
d="M3 0h114l60 170h323l60 -170h114l-259 729h-153zM203 255l82 225l51 149h6l51 -149l80 -225h-270zM340 796q49 0 79 28t30 74t-30 74t-79 28q-48 0 -78 -28t-30 -74t30 -74t78 -28zM340 847q-22 0 -36 14t-14 37t14 36.5t36 13.5q23 0 37 -13.5t14 -36.5t-14 -37t-37 -14
z" />
    <glyph glyph-name="AE" unicode="&#xc6;" horiz-adv-x="920" 
d="M3 0h114l60 170h184v-170h509v95h-403v233h353v88h-353v219h401v94h-606zM203 255l82 225l51 149h25v-374h-158z" />
    <glyph glyph-name="Ccedilla" unicode="&#xc7;" horiz-adv-x="768" 
d="M397 -9q90 0 161.5 31.5t116 89t53.5 134.5l-110 1q-13 -73 -72.5 -117.5t-148.5 -44.5q-113 0 -179 73t-66 206q0 134 66 206.5t179 72.5q89 0 147.5 -44t73.5 -114h110q-11 77 -55.5 133.5t-115 87.5t-160.5 31q-107 0 -187.5 -45t-125 -128.5t-44.5 -199.5
q0 -115 44.5 -198.5t125 -129t187.5 -45.5zM379 -232q48 0 79.5 25t31.5 70q0 36 -22 59t-63 26v67h-60v-105h25q22 0 34.5 -11t12.5 -32q0 -19 -11.5 -31.5t-31.5 -12.5q-19 0 -29.5 11t-11.5 26h-67q0 -43 32 -67.5t81 -24.5z" />
    <glyph glyph-name="Egrave" unicode="&#xc8;" horiz-adv-x="650" 
d="M88 0h512v95h-403v233h353v88h-353v219h402v94h-511v-729zM295 795h77l-59 142h-105z" />
    <glyph glyph-name="Eacute" unicode="&#xc9;" horiz-adv-x="650" 
d="M88 0h512v95h-403v233h353v88h-353v219h402v94h-511v-729zM292 795h78l86 142h-104z" />
    <glyph glyph-name="Ecircumflex" unicode="&#xca;" horiz-adv-x="650" 
d="M88 0h512v95h-403v233h353v88h-353v219h402v94h-511v-729zM172 795h91l69 89l68 -89h92l-113 142h-95z" />
    <glyph glyph-name="Edieresis" unicode="&#xcb;" horiz-adv-x="650" 
d="M88 0h512v95h-403v233h353v88h-353v219h402v94h-511v-729zM192 813h91v124h-91v-124zM380 813h91v124h-91v-124z" />
    <glyph glyph-name="Igrave" unicode="&#xcc;" horiz-adv-x="286" 
d="M88 0h109v729h-109v-729zM106 795h77l-59 142h-105z" />
    <glyph glyph-name="Iacute" unicode="&#xcd;" horiz-adv-x="286" 
d="M88 0h109v729h-109v-729zM103 795h78l86 142h-104z" />
    <glyph glyph-name="Icircumflex" unicode="&#xce;" horiz-adv-x="286" 
d="M88 0h109v729h-109v-729zM-17 795h91l69 89l68 -89h92l-113 142h-95z" />
    <glyph glyph-name="Idieresis" unicode="&#xcf;" horiz-adv-x="286" 
d="M88 0h109v729h-109v-729zM3 813h91v124h-91v-124zM191 813h91v124h-91v-124z" />
    <glyph glyph-name="Eth" unicode="&#xd0;" horiz-adv-x="753" 
d="M88 0h295q105 0 179 45.5t112.5 127.5t38.5 191q0 110 -38.5 192t-112.5 127.5t-179 45.5h-295v-325h-83v-79h83v-325zM197 94v231h150v79h-150v231h170q105 0 169.5 -65t64.5 -204t-64 -205.5t-170 -66.5h-170z" />
    <glyph glyph-name="Ntilde" unicode="&#xd1;" horiz-adv-x="794" 
d="M88 0h111v350l-4 227h6l377 -577h128v729h-106v-340l6 -244h-7l-377 584h-134v-729zM456 810q32 0 59.5 19t46.5 62l-44 28q-8 -13 -21.5 -24t-35.5 -11t-42 8t-39.5 16.5t-42.5 8.5q-29 0 -56 -17t-48 -62l42 -28q12 15 26 24t33 9q21 0 38.5 -8t37 -16t46.5 -9z" />
    <glyph glyph-name="Ograve" unicode="&#xd2;" horiz-adv-x="798" 
d="M399 -9q108 0 189 45t126 128.5t45 199.5t-45 199.5t-125.5 128.5t-189.5 45q-108 0 -188.5 -45t-125.5 -128.5t-45 -199.5q0 -115 44.5 -199t125.5 -129t189 -45zM399 85q-113 0 -180 73t-67 206t66.5 206t180.5 73t181 -73t67 -206q0 -132 -67 -205.5t-181 -73.5z
M362 795h77l-59 142h-105z" />
    <glyph glyph-name="Oacute" unicode="&#xd3;" horiz-adv-x="798" 
d="M399 -9q108 0 189 45t126 128.5t45 199.5t-45 199.5t-125.5 128.5t-189.5 45q-108 0 -188.5 -45t-125.5 -128.5t-45 -199.5q0 -115 44.5 -199t125.5 -129t189 -45zM399 85q-113 0 -180 73t-67 206t66.5 206t180.5 73t181 -73t67 -206q0 -132 -67 -205.5t-181 -73.5z
M359 795h78l86 142h-104z" />
    <glyph glyph-name="Ocircumflex" unicode="&#xd4;" horiz-adv-x="798" 
d="M399 -9q108 0 189 45t126 128.5t45 199.5t-45 199.5t-125.5 128.5t-189.5 45q-108 0 -188.5 -45t-125.5 -128.5t-45 -199.5q0 -115 44.5 -199t125.5 -129t189 -45zM399 85q-113 0 -180 73t-67 206t66.5 206t180.5 73t181 -73t67 -206q0 -132 -67 -205.5t-181 -73.5z
M240 795h91l69 89l68 -89h92l-113 142h-95z" />
    <glyph glyph-name="Otilde" unicode="&#xd5;" horiz-adv-x="798" 
d="M399 -9q108 0 189 45t126 128.5t45 199.5t-45 199.5t-125.5 128.5t-189.5 45q-108 0 -188.5 -45t-125.5 -128.5t-45 -199.5q0 -115 44.5 -199t125.5 -129t189 -45zM399 85q-113 0 -180 73t-67 206t66.5 206t180.5 73t181 -73t67 -206q0 -132 -67 -205.5t-181 -73.5z
M458 810q32 0 59.5 19t46.5 62l-44 28q-8 -13 -21.5 -24t-35.5 -11t-42 8t-39.5 16.5t-42.5 8.5q-29 0 -56 -17t-48 -62l42 -28q12 15 26 24t33 9q21 0 38.5 -8t37 -16t46.5 -9z" />
    <glyph glyph-name="Odieresis" unicode="&#xd6;" horiz-adv-x="798" 
d="M399 -9q108 0 189 45t126 128.5t45 199.5t-45 199.5t-125.5 128.5t-189.5 45q-108 0 -188.5 -45t-125.5 -128.5t-45 -199.5q0 -115 44.5 -199t125.5 -129t189 -45zM399 85q-113 0 -180 73t-67 206t66.5 206t180.5 73t181 -73t67 -206q0 -132 -67 -205.5t-181 -73.5z
M260 813h91v124h-91v-124zM448 813h91v124h-91v-124z" />
    <glyph glyph-name="multiply" unicode="&#xd7;" horiz-adv-x="582" 
d="M138 150l153 154l154 -154l57 57l-154 154l154 153l-57 57l-154 -153l-153 153l-57 -57l153 -153l-153 -154z" />
    <glyph glyph-name="Oslash" unicode="&#xd8;" horiz-adv-x="798" 
d="M399 -9q108 0 189 45t126 128.5t45 199.5t-45 199.5t-125.5 128.5t-189.5 45q-108 0 -188.5 -45t-125.5 -128.5t-45 -199.5q0 -115 44.5 -199t125.5 -129t189 -45zM399 85q-113 0 -180 73t-67 206t66.5 206t180.5 73t181 -73t67 -206q0 -132 -67 -205.5t-181 -73.5z
M60 -40h85l594 810h-82z" />
    <glyph glyph-name="Ugrave" unicode="&#xd9;" horiz-adv-x="762" 
d="M380 -9q94 0 160.5 34t102.5 96.5t36 148.5v459h-108v-457q0 -85 -47 -134t-143 -49q-88 0 -139 46t-51 137v457h-109v-459q0 -86 35.5 -148.5t102.5 -96.5t160 -34zM344 795h77l-59 142h-105z" />
    <glyph glyph-name="Uacute" unicode="&#xda;" horiz-adv-x="762" 
d="M380 -9q94 0 160.5 34t102.5 96.5t36 148.5v459h-108v-457q0 -85 -47 -134t-143 -49q-88 0 -139 46t-51 137v457h-109v-459q0 -86 35.5 -148.5t102.5 -96.5t160 -34zM341 795h78l86 142h-104z" />
    <glyph glyph-name="Ucircumflex" unicode="&#xdb;" horiz-adv-x="762" 
d="M380 -9q94 0 160.5 34t102.5 96.5t36 148.5v459h-108v-457q0 -85 -47 -134t-143 -49q-88 0 -139 46t-51 137v457h-109v-459q0 -86 35.5 -148.5t102.5 -96.5t160 -34zM222 795h91l69 89l68 -89h92l-113 142h-95z" />
    <glyph glyph-name="Udieresis" unicode="&#xdc;" horiz-adv-x="762" 
d="M380 -9q94 0 160.5 34t102.5 96.5t36 148.5v459h-108v-457q0 -85 -47 -134t-143 -49q-88 0 -139 46t-51 137v457h-109v-459q0 -86 35.5 -148.5t102.5 -96.5t160 -34zM242 813h91v124h-91v-124zM430 813h91v124h-91v-124z" />
    <glyph glyph-name="Yacute" unicode="&#xdd;" horiz-adv-x="657" 
d="M273 0h109v287l271 442h-123l-200 -336h-5l-198 336h-124l270 -442v-287zM288 795h78l86 142h-104z" />
    <glyph glyph-name="Thorn" unicode="&#xde;" horiz-adv-x="647" 
d="M88 0h109v133h169q80 0 137 28.5t87.5 81t30.5 122.5q0 111 -69.5 171.5t-185.5 60.5h-169v132h-109v-729zM349 220h-152v283h152q71 0 116 -34t45 -107t-45 -108t-116 -34z" />
    <glyph glyph-name="germandbls" unicode="&#xdf;" horiz-adv-x="653" 
d="M112 -167h103v167h153q123 0 186 59t63 155q0 50 -20 89t-53.5 63.5t-75.5 29.5v6q49 16 74.5 57t25.5 93q0 84 -58.5 135.5t-161.5 51.5q-62 0 -113 -22t-83.5 -68.5t-38.5 -119.5h-104v-84h103v-612zM347 647q59 0 92.5 -30.5t33.5 -82.5q0 -51 -33 -82t-92 -31h-33
v-70h60q66 0 101.5 -33.5t35.5 -93.5q0 -70 -40 -104.5t-115 -34.5h-142v421q0 68 34.5 104.5t97.5 36.5z" />
    <glyph glyph-name="agrave" unicode="&#xe0;" 
d="M252 -9q67 0 114 31.5t66 82.5h6v-105h103v529h-99l-4 -104h-6q-19 51 -66 82t-114 31q-97 0 -156.5 -70t-59.5 -203t59.5 -203.5t156.5 -70.5zM288 76q-66 0 -106 48t-40 141q0 94 40 141.5t106 47.5q49 0 82 -23t50 -59t17 -77v-60q0 -41 -17 -77.5t-50 -59t-82 -22.5z
M266 595h77l-59 142h-105z" />
    <glyph glyph-name="aacute" unicode="&#xe1;" 
d="M252 -9q67 0 114 31.5t66 82.5h6v-105h103v529h-99l-4 -104h-6q-19 51 -66 82t-114 31q-97 0 -156.5 -70t-59.5 -203t59.5 -203.5t156.5 -70.5zM288 76q-66 0 -106 48t-40 141q0 94 40 141.5t106 47.5q49 0 82 -23t50 -59t17 -77v-60q0 -41 -17 -77.5t-50 -59t-82 -22.5z
M264 595h78l86 142h-104z" />
    <glyph glyph-name="acircumflex" unicode="&#xe2;" 
d="M252 -9q67 0 114 31.5t66 82.5h6v-105h103v529h-99l-4 -104h-6q-19 51 -66 82t-114 31q-97 0 -156.5 -70t-59.5 -203t59.5 -203.5t156.5 -70.5zM288 76q-66 0 -106 48t-40 141q0 94 40 141.5t106 47.5q49 0 82 -23t50 -59t17 -77v-60q0 -41 -17 -77.5t-50 -59t-82 -22.5z
M144 595h91l69 89l68 -89h92l-113 142h-95z" />
    <glyph glyph-name="atilde" unicode="&#xe3;" 
d="M252 -9q67 0 114 31.5t66 82.5h6v-105h103v529h-99l-4 -104h-6q-19 51 -66 82t-114 31q-97 0 -156.5 -70t-59.5 -203t59.5 -203.5t156.5 -70.5zM288 76q-66 0 -106 48t-40 141q0 94 40 141.5t106 47.5q49 0 82 -23t50 -59t17 -77v-60q0 -41 -17 -77.5t-50 -59t-82 -22.5z
M363 610q32 0 59.5 19t46.5 62l-44 28q-8 -13 -21.5 -24t-35.5 -11t-42 8t-39.5 16.5t-42.5 8.5q-29 0 -56 -17t-48 -62l42 -28q12 15 26 24t33 9q21 0 38.5 -8t37 -16t46.5 -9z" />
    <glyph glyph-name="adieresis" unicode="&#xe4;" 
d="M252 -9q67 0 114 31.5t66 82.5h6v-105h103v529h-99l-4 -104h-6q-19 51 -66 82t-114 31q-97 0 -156.5 -70t-59.5 -203t59.5 -203.5t156.5 -70.5zM288 76q-66 0 -106 48t-40 141q0 94 40 141.5t106 47.5q49 0 82 -23t50 -59t17 -77v-60q0 -41 -17 -77.5t-50 -59t-82 -22.5z
M164 613h91v124h-91v-124zM352 613h91v124h-91v-124z" />
    <glyph glyph-name="aring" unicode="&#xe5;" 
d="M252 -9q67 0 114 31.5t66 82.5h6v-105h103v529h-99l-4 -104h-6q-19 51 -66 82t-114 31q-97 0 -156.5 -70t-59.5 -203t59.5 -203.5t156.5 -70.5zM288 76q-66 0 -106 48t-40 141q0 94 40 141.5t106 47.5q49 0 82 -23t50 -59t17 -77v-60q0 -41 -17 -77.5t-50 -59t-82 -22.5z
M305 596q49 0 79 28t30 74t-30 74t-79 28q-48 0 -78 -28t-30 -74t30 -74t78 -28zM305 647q-22 0 -36 14t-14 37t14 36.5t36 13.5q23 0 37 -13.5t14 -36.5t-14 -37t-37 -14z" />
    <glyph glyph-name="ae" unicode="&#xe6;" horiz-adv-x="992" 
d="M251 -9q68 0 115 31.5t66 82.5h6l3 -105h82v100h5q23 -52 74 -80.5t118 -28.5q62 0 111 21.5t81 60t39 90.5h-99q-10 -41 -46.5 -65.5t-90.5 -24.5q-69 0 -110.5 44.5t-43.5 126.5h392q9 85 -15.5 151t-79.5 104t-140 38q-63 0 -114 -29t-74 -79h-6v100h-82l-4 -104h-6
q-19 51 -66 82t-115 31q-95 0 -155 -70t-60 -203t60 -203.5t155 -70.5zM562 311q5 68 44.5 106.5t103.5 38.5q62 0 101.5 -34.5t40.5 -110.5h-290zM288 76q-66 0 -106 48t-40 141q0 94 40 141.5t106 47.5q49 0 82 -23t50 -59t17 -77v-60q0 -41 -17 -77.5t-50 -59t-82 -22.5z
" />
    <glyph glyph-name="ccedilla" unicode="&#xe7;" horiz-adv-x="562" 
d="M293 -9q66 0 118 24.5t83 69t35 104.5h-100q-6 -50 -42 -81t-94 -31q-69 0 -110.5 48.5t-41.5 137.5q0 85 40 136.5t113 51.5q51 0 87.5 -26.5t45.5 -78.5h100q-4 57 -34.5 100t-81 67t-114.5 24q-79 0 -138 -34t-91 -95.5t-32 -143.5t32 -143.5t90 -95.5t135 -34z
M284 -232q48 0 79.5 25t31.5 70q0 36 -22 59t-63 26v67h-60v-105h25q22 0 34.5 -11t12.5 -32q0 -19 -11.5 -31.5t-31.5 -12.5q-19 0 -29.5 11t-11.5 26h-67q0 -43 32 -67.5t81 -24.5z" />
    <glyph glyph-name="egrave" unicode="&#xe8;" horiz-adv-x="569" 
d="M292 -9q63 0 113.5 21.5t82.5 60t39 90.5h-98q-10 -41 -46.5 -66.5t-90.5 -25.5q-69 0 -110.5 45.5t-43.5 127.5h392q8 84 -17 150t-81.5 104.5t-143.5 38.5q-77 0 -134 -34t-87.5 -95.5t-30.5 -145.5q0 -81 31 -142t88.5 -95t136.5 -34zM287 458q63 0 102 -37t40 -110
h-290q5 68 44.5 107.5t103.5 39.5zM247 595h77l-59 142h-105z" />
    <glyph glyph-name="eacute" unicode="&#xe9;" horiz-adv-x="569" 
d="M292 -9q63 0 113.5 21.5t82.5 60t39 90.5h-98q-10 -41 -46.5 -66.5t-90.5 -25.5q-69 0 -110.5 45.5t-43.5 127.5h392q8 84 -17 150t-81.5 104.5t-143.5 38.5q-77 0 -134 -34t-87.5 -95.5t-30.5 -145.5q0 -81 31 -142t88.5 -95t136.5 -34zM287 458q63 0 102 -37t40 -110
h-290q5 68 44.5 107.5t103.5 39.5zM244 595h78l86 142h-104z" />
    <glyph glyph-name="ecircumflex" unicode="&#xea;" horiz-adv-x="569" 
d="M292 -9q63 0 113.5 21.5t82.5 60t39 90.5h-98q-10 -41 -46.5 -66.5t-90.5 -25.5q-69 0 -110.5 45.5t-43.5 127.5h392q8 84 -17 150t-81.5 104.5t-143.5 38.5q-77 0 -134 -34t-87.5 -95.5t-30.5 -145.5q0 -81 31 -142t88.5 -95t136.5 -34zM287 458q63 0 102 -37t40 -110
h-290q5 68 44.5 107.5t103.5 39.5zM125 595h91l69 89l68 -89h92l-113 142h-95z" />
    <glyph glyph-name="edieresis" unicode="&#xeb;" horiz-adv-x="569" 
d="M292 -9q63 0 113.5 21.5t82.5 60t39 90.5h-98q-10 -41 -46.5 -66.5t-90.5 -25.5q-69 0 -110.5 45.5t-43.5 127.5h392q8 84 -17 150t-81.5 104.5t-143.5 38.5q-77 0 -134 -34t-87.5 -95.5t-30.5 -145.5q0 -81 31 -142t88.5 -95t136.5 -34zM287 458q63 0 102 -37t40 -110
h-290q5 68 44.5 107.5t103.5 39.5zM145 613h91v124h-91v-124zM333 613h91v124h-91v-124z" />
    <glyph glyph-name="igrave" unicode="&#xec;" horiz-adv-x="246" 
d="M72 0h103v529h-103v-529zM86 595h77l-59 142h-105z" />
    <glyph glyph-name="iacute" unicode="&#xed;" horiz-adv-x="246" 
d="M72 0h103v529h-103v-529zM84 595h78l86 142h-104z" />
    <glyph glyph-name="icircumflex" unicode="&#xee;" horiz-adv-x="246" 
d="M72 0h103v529h-103v-529zM-36 595h91l69 89l68 -89h92l-113 142h-95z" />
    <glyph glyph-name="idieresis" unicode="&#xef;" horiz-adv-x="246" 
d="M72 0h103v529h-103v-529zM-16 613h91v124h-91v-124zM172 613h91v124h-91v-124z" />
    <glyph glyph-name="ntilde" unicode="&#xf1;" horiz-adv-x="615" 
d="M72 0h102v289q0 46 18 82.5t51.5 58.5t78.5 22q63 0 93 -39t30 -120v-293h103v314q0 81 -24.5 130t-67.5 71t-97 22q-58 0 -107 -28.5t-72 -84.5h-6l-4 105h-98v-529zM369 610q32 0 59.5 19t46.5 62l-44 28q-8 -13 -21.5 -24t-35.5 -11t-42 8t-39.5 16.5t-42.5 8.5
q-29 0 -56 -17t-48 -62l42 -28q12 15 26 24t33 9q21 0 38.5 -8t37 -16t46.5 -9z" />
    <glyph glyph-name="ograve" unicode="&#xf2;" horiz-adv-x="589" 
d="M295 -9q80 0 137.5 34.5t89 96t31.5 142.5q0 84 -32.5 145.5t-90.5 94.5t-135 33q-80 0 -138 -34.5t-89.5 -96t-31.5 -143.5q0 -83 32.5 -144t91 -94.5t135.5 -33.5zM295 77q-70 0 -112 49t-42 137q0 92 42.5 140.5t111.5 48.5q71 0 112 -49.5t41 -138.5
q0 -90 -42 -138.5t-111 -48.5zM257 595h77l-59 142h-105z" />
    <glyph glyph-name="oacute" unicode="&#xf3;" horiz-adv-x="589" 
d="M295 -9q80 0 137.5 34.5t89 96t31.5 142.5q0 84 -32.5 145.5t-90.5 94.5t-135 33q-80 0 -138 -34.5t-89.5 -96t-31.5 -143.5q0 -83 32.5 -144t91 -94.5t135.5 -33.5zM295 77q-70 0 -112 49t-42 137q0 92 42.5 140.5t111.5 48.5q71 0 112 -49.5t41 -138.5
q0 -90 -42 -138.5t-111 -48.5zM254 595h78l86 142h-104z" />
    <glyph glyph-name="ocircumflex" unicode="&#xf4;" horiz-adv-x="589" 
d="M295 -9q80 0 137.5 34.5t89 96t31.5 142.5q0 84 -32.5 145.5t-90.5 94.5t-135 33q-80 0 -138 -34.5t-89.5 -96t-31.5 -143.5q0 -83 32.5 -144t91 -94.5t135.5 -33.5zM295 77q-70 0 -112 49t-42 137q0 92 42.5 140.5t111.5 48.5q71 0 112 -49.5t41 -138.5
q0 -90 -42 -138.5t-111 -48.5zM135 595h91l69 89l68 -89h92l-113 142h-95z" />
    <glyph glyph-name="otilde" unicode="&#xf5;" horiz-adv-x="589" 
d="M295 -9q80 0 137.5 34.5t89 96t31.5 142.5q0 84 -32.5 145.5t-90.5 94.5t-135 33q-80 0 -138 -34.5t-89.5 -96t-31.5 -143.5q0 -83 32.5 -144t91 -94.5t135.5 -33.5zM295 77q-70 0 -112 49t-42 137q0 92 42.5 140.5t111.5 48.5q71 0 112 -49.5t41 -138.5
q0 -90 -42 -138.5t-111 -48.5zM353 610q32 0 59.5 19t46.5 62l-44 28q-8 -13 -21.5 -24t-35.5 -11t-42 8t-39.5 16.5t-42.5 8.5q-29 0 -56 -17t-48 -62l42 -28q12 15 26 24t33 9q21 0 38.5 -8t37 -16t46.5 -9z" />
    <glyph glyph-name="odieresis" unicode="&#xf6;" horiz-adv-x="589" 
d="M295 -9q80 0 137.5 34.5t89 96t31.5 142.5q0 84 -32.5 145.5t-90.5 94.5t-135 33q-80 0 -138 -34.5t-89.5 -96t-31.5 -143.5q0 -83 32.5 -144t91 -94.5t135.5 -33.5zM295 77q-70 0 -112 49t-42 137q0 92 42.5 140.5t111.5 48.5q71 0 112 -49.5t41 -138.5
q0 -90 -42 -138.5t-111 -48.5zM155 613h91v124h-91v-124zM343 613h91v124h-91v-124z" />
    <glyph glyph-name="divide" unicode="&#xf7;" horiz-adv-x="657" 
d="M281 483h96v91h-96v-91zM82 320h493v82h-493v-82zM281 148h96v91h-96v-91z" />
    <glyph glyph-name="oslash" unicode="&#xf8;" horiz-adv-x="589" 
d="M295 -9q80 0 137.5 34.5t89 96t31.5 142.5q0 84 -32.5 145.5t-90.5 94.5t-135 33q-80 0 -138 -34.5t-89.5 -96t-31.5 -143.5q0 -83 32.5 -144t91 -94.5t135.5 -33.5zM295 77q-70 0 -112 49t-42 137q0 92 42.5 140.5t111.5 48.5q71 0 112 -49.5t41 -138.5
q0 -90 -42 -138.5t-111 -48.5zM20 -60h72l476 649h-70z" />
    <glyph glyph-name="ugrave" unicode="&#xf9;" horiz-adv-x="610" 
d="M257 -9q62 0 110 30.5t67 85.5h6l5 -107h98v529h-103v-286q0 -73 -40 -119.5t-105 -46.5q-67 0 -96 39.5t-29 112.5v300h-103v-326q0 -105 50 -158.5t140 -53.5zM268 595h77l-59 142h-105z" />
    <glyph glyph-name="uacute" unicode="&#xfa;" horiz-adv-x="610" 
d="M257 -9q62 0 110 30.5t67 85.5h6l5 -107h98v529h-103v-286q0 -73 -40 -119.5t-105 -46.5q-67 0 -96 39.5t-29 112.5v300h-103v-326q0 -105 50 -158.5t140 -53.5zM265 595h78l86 142h-104z" />
    <glyph glyph-name="ucircumflex" unicode="&#xfb;" horiz-adv-x="610" 
d="M257 -9q62 0 110 30.5t67 85.5h6l5 -107h98v529h-103v-286q0 -73 -40 -119.5t-105 -46.5q-67 0 -96 39.5t-29 112.5v300h-103v-326q0 -105 50 -158.5t140 -53.5zM146 595h91l69 89l68 -89h92l-113 142h-95z" />
    <glyph glyph-name="udieresis" unicode="&#xfc;" horiz-adv-x="610" 
d="M257 -9q62 0 110 30.5t67 85.5h6l5 -107h98v529h-103v-286q0 -73 -40 -119.5t-105 -46.5q-67 0 -96 39.5t-29 112.5v300h-103v-326q0 -105 50 -158.5t140 -53.5zM166 613h91v124h-91v-124zM354 613h91v124h-91v-124z" />
    <glyph glyph-name="yacute" unicode="&#xfd;" horiz-adv-x="498" 
d="M37 -167h74q62 0 103.5 26t66.5 95l220 575h-109l-114 -322l-21 -63h-4l-22 63l-121 322h-113l208 -491l-23 -59q-13 -31 -33 -46t-55 -15h-57v-85zM209 595h78l86 142h-104z" />
    <glyph glyph-name="thorn" unicode="&#xfe;" 
d="M72 -167h102v271h7q19 -51 66 -82t114 -31q96 0 156 70t60 203t-60 203.5t-156 70.5q-67 0 -114 -31.5t-66 -81.5h-6v304h-103v-896zM325 76q-49 0 -82 22.5t-50 59t-17 77.5v59q0 41 17 77.5t50 59t82 22.5q66 0 106 -47.5t40 -141.5q0 -93 -40 -140.5t-106 -47.5z" />
    <glyph glyph-name="ydieresis" unicode="&#xff;" horiz-adv-x="498" 
d="M37 -167h74q62 0 103.5 26t66.5 95l220 575h-109l-114 -322l-21 -63h-4l-22 63l-121 322h-113l208 -491l-23 -59q-13 -31 -33 -46t-55 -15h-57v-85zM110 613h91v124h-91v-124zM298 613h91v124h-91v-124z" />
    <glyph glyph-name="dotlessi" unicode="&#x131;" horiz-adv-x="246" 
d="M72 0h103v529h-103v-529z" />
    <glyph glyph-name="OE" unicode="&#x152;" horiz-adv-x="1127" 
d="M370 0h707v95h-403v233h353v88h-353v219h402v94h-706q-105 0 -178.5 -45.5t-112.5 -127t-39 -191.5q0 -109 38.5 -191.5t112.5 -128t179 -45.5zM385 94q-105 0 -169.5 65t-64.5 204t64 205.5t170 66.5h180v-541h-180z" />
    <glyph glyph-name="oe" unicode="&#x153;" horiz-adv-x="983" 
d="M295 -9q80 0 137.5 34.5t89 96t31.5 142.5q0 84 -32.5 145.5t-90.5 94.5t-135 33q-80 0 -138 -34.5t-89.5 -96t-31.5 -143.5q0 -83 32.5 -144t91 -94.5t135.5 -33.5zM295 77q-70 0 -112 49t-42 137q0 92 42.5 140.5t111.5 48.5q71 0 112 -49.5t41 -138.5
q0 -90 -42 -138.5t-111 -48.5zM707 -9q63 0 113.5 21.5t82.5 60t39 90.5h-98q-10 -41 -46.5 -66.5t-90.5 -25.5q-69 0 -110.5 45.5t-43.5 127.5h392q8 84 -17 150t-81.5 104.5t-143.5 38.5q-77 0 -134 -34t-87.5 -95.5t-30.5 -145.5q0 -81 31 -142t88.5 -95t136.5 -34z
M702 458q63 0 102 -37t40 -110h-290q5 68 44.5 107.5t103.5 39.5z" />
    <glyph glyph-name="Wcircumflex" unicode="&#x174;" horiz-adv-x="957" 
d="M171 0h150l155 588h6l154 -588h150l162 729h-119l-82 -404l-38 -207h-7l-154 611h-138l-152 -610h-7l-40 207l-83 403h-119zM319 795h91l69 89l68 -89h92l-113 142h-95z" />
    <glyph glyph-name="wcircumflex" unicode="&#x175;" horiz-adv-x="748" 
d="M141 0h134l95 398h4l98 -398h135l135 529h-101l-104 -427h-3l-101 427h-114l-98 -426h-5l-104 426h-106zM215 595h91l69 89l68 -89h92l-113 142h-95z" />
    <glyph glyph-name="Ycircumflex" unicode="&#x176;" horiz-adv-x="657" 
d="M273 0h109v287l271 442h-123l-200 -336h-5l-198 336h-124l270 -442v-287zM168 795h91l69 89l68 -89h92l-113 142h-95z" />
    <glyph glyph-name="ycircumflex" unicode="&#x177;" horiz-adv-x="498" 
d="M37 -167h74q62 0 103.5 26t66.5 95l220 575h-109l-114 -322l-21 -63h-4l-22 63l-121 322h-113l208 -491l-23 -59q-13 -31 -33 -46t-55 -15h-57v-85zM90 595h91l69 89l68 -89h92l-113 142h-95z" />
    <glyph glyph-name="Ydieresis" unicode="&#x178;" horiz-adv-x="657" 
d="M273 0h109v287l271 442h-123l-200 -336h-5l-198 336h-124l270 -442v-287zM188 813h91v124h-91v-124zM376 813h91v124h-91v-124z" />
    <glyph glyph-name="circumflex" unicode="&#x2c6;" horiz-adv-x="400" 
d="M40 741h91l69 89l68 -89h92l-113 142h-95z" />
    <glyph glyph-name="caron" unicode="&#x2c7;" horiz-adv-x="400" 
d="M152 741h95l113 142h-92l-68 -89l-69 89h-91z" />
    <glyph glyph-name="breve" unicode="&#x2d8;" horiz-adv-x="386" 
d="M193 733q72 0 112.5 39t40.5 108h-73q1 -41 -20.5 -63t-59.5 -22q-37 0 -58.5 22t-21.5 63h-73q1 -69 41.5 -108t111.5 -39z" />
    <glyph glyph-name="dotaccent" unicode="&#x2d9;" horiz-adv-x="183" 
d="M40 759h103v128h-103v-128z" />
    <glyph glyph-name="ring" unicode="&#x2da;" horiz-adv-x="297" 
d="M148 742q49 0 79 28t30 74t-30 74t-79 28q-48 0 -78 -28t-30 -74t30 -74t78 -28zM148 793q-22 0 -36 14t-14 37t14 36.5t36 13.5q23 0 37 -13.5t14 -36.5t-14 -37t-37 -14z" />
    <glyph glyph-name="ogonek" unicode="&#x2db;" horiz-adv-x="260" 
d="M146 -179q23 0 43 3.5t31 9.5v60q-10 -5 -25.5 -8t-29.5 -3q-24 0 -38.5 12.5t-14.5 35.5t16 42t42 27l-59 12q-31 -9 -52.5 -35.5t-21.5 -64.5q0 -42 29 -66.5t80 -24.5z" />
    <glyph glyph-name="tilde" unicode="&#x2dc;" horiz-adv-x="409" 
d="M263 756q32 0 59.5 19t46.5 62l-44 28q-8 -13 -21.5 -24t-35.5 -11t-42 8t-39.5 16.5t-42.5 8.5q-29 0 -56 -17t-48 -62l42 -28q12 15 26 24t33 9q21 0 38.5 -8t37 -16t46.5 -9z" />
    <glyph glyph-name="hungarumlaut" unicode="&#x2dd;" horiz-adv-x="427" 
d="M40 741h75l86 142h-100zM204 741h81l102 142h-106z" />
    <glyph glyph-name="gravecomb" unicode="&#x300;" horiz-adv-x="0" 
d="M127 741h77l-59 142h-105z" />
    <glyph glyph-name="acutecomb" unicode="&#x301;" horiz-adv-x="0" 
d="M40 741h78l86 142h-104z" />
    <glyph glyph-name="uni0302" unicode="&#x302;" horiz-adv-x="0" 
d="M40 741h91l69 89l68 -89h92l-113 142h-95z" />
    <glyph glyph-name="tildecomb" unicode="&#x303;" horiz-adv-x="0" 
d="M263 756q32 0 59.5 19t46.5 62l-44 28q-8 -13 -21.5 -24t-35.5 -11t-42 8t-39.5 16.5t-42.5 8.5q-29 0 -56 -17t-48 -62l42 -28q12 15 26 24t33 9q21 0 38.5 -8t37 -16t46.5 -9z" />
    <glyph glyph-name="uni0307" unicode="&#x307;" horiz-adv-x="0" 
d="M40 759h103v128h-103v-128z" />
    <glyph glyph-name="uni0308" unicode="&#x308;" horiz-adv-x="0" 
d="M40 759h91v124h-91v-124zM228 759h91v124h-91v-124z" />
    <glyph glyph-name="uni030A" unicode="&#x30a;" horiz-adv-x="0" 
d="M148 742q49 0 79 28t30 74t-30 74t-79 28q-48 0 -78 -28t-30 -74t30 -74t78 -28zM148 793q-22 0 -36 14t-14 37t14 36.5t36 13.5q23 0 37 -13.5t14 -36.5t-14 -37t-37 -14z" />
    <glyph glyph-name="uni0327" unicode="&#x327;" horiz-adv-x="0" 
d="M150 -232q48 0 79.5 25t31.5 70q0 36 -22 59t-63 26v67h-60v-105h25q22 0 34.5 -11t12.5 -32q0 -19 -11.5 -31.5t-31.5 -12.5q-19 0 -29.5 11t-11.5 26h-67q0 -43 32 -67.5t81 -24.5z" />
    <glyph glyph-name="uni0337" unicode="&#x337;" horiz-adv-x="0" 
d="M78 -60h72l476 649h-70z" />
    <glyph glyph-name="uni0338" unicode="&#x338;" horiz-adv-x="0" 
d="M50 -81h85l594 810h-82z" />
    <glyph glyph-name="uni03BC" unicode="&#x3bc;" horiz-adv-x="609" 
d="M67 -132h103v144q37 -21 88 -21q61 0 107.5 29t68.5 87h5l5 -107h98v529h-103v-286q0 -75 -33.5 -120.5t-107.5 -45.5q-61 0 -94.5 32.5t-33.5 92.5v327h-103v-661z" />
    <glyph glyph-name="pi" unicode="&#x3c0;" horiz-adv-x="587" 
d="M506 -7q17 0 34.5 3.5t28.5 7.5v74q-13 -6 -33 -6q-28 0 -39 18t-11 52v302h84v85h-560v-85h86v-444h101v444h188v-318q0 -37 10 -67.5t36.5 -48t74.5 -17.5z" />
    <glyph glyph-name="Wgrave" unicode="&#x1e80;" horiz-adv-x="957" 
d="M171 0h150l155 588h6l154 -588h150l162 729h-119l-82 -404l-38 -207h-7l-154 611h-138l-152 -610h-7l-40 207l-83 403h-119zM441 795h77l-59 142h-105z" />
    <glyph glyph-name="wgrave" unicode="&#x1e81;" horiz-adv-x="748" 
d="M141 0h134l95 398h4l98 -398h135l135 529h-101l-104 -427h-3l-101 427h-114l-98 -426h-5l-104 426h-106zM337 595h77l-59 142h-105z" />
    <glyph glyph-name="Wacute" unicode="&#x1e82;" horiz-adv-x="957" 
d="M171 0h150l155 588h6l154 -588h150l162 729h-119l-82 -404l-38 -207h-7l-154 611h-138l-152 -610h-7l-40 207l-83 403h-119zM439 795h78l86 142h-104z" />
    <glyph glyph-name="wacute" unicode="&#x1e83;" horiz-adv-x="748" 
d="M141 0h134l95 398h4l98 -398h135l135 529h-101l-104 -427h-3l-101 427h-114l-98 -426h-5l-104 426h-106zM334 595h78l86 142h-104z" />
    <glyph glyph-name="Wdieresis" unicode="&#x1e84;" horiz-adv-x="957" 
d="M171 0h150l155 588h6l154 -588h150l162 729h-119l-82 -404l-38 -207h-7l-154 611h-138l-152 -610h-7l-40 207l-83 403h-119zM339 813h91v124h-91v-124zM527 813h91v124h-91v-124z" />
    <glyph glyph-name="wdieresis" unicode="&#x1e85;" horiz-adv-x="748" 
d="M141 0h134l95 398h4l98 -398h135l135 529h-101l-104 -427h-3l-101 427h-114l-98 -426h-5l-104 426h-106zM235 613h91v124h-91v-124zM423 613h91v124h-91v-124z" />
    <glyph glyph-name="uni1E9E" unicode="&#x1e9e;" horiz-adv-x="686" 
d="M88 0h110v636h303l-171 -222v-55h47q80 0 117.5 -35t37.5 -100q0 -58 -35.5 -96.5t-115.5 -38.5h-118v-89h135q115 0 181 57t66 157q0 87 -52 142t-150 57v7l158 201v108h-513v-729z" />
    <glyph glyph-name="Ygrave" unicode="&#x1ef2;" horiz-adv-x="657" 
d="M273 0h109v287l271 442h-123l-200 -336h-5l-198 336h-124l270 -442v-287zM291 795h77l-59 142h-105z" />
    <glyph glyph-name="ygrave" unicode="&#x1ef3;" horiz-adv-x="498" 
d="M37 -167h74q62 0 103.5 26t66.5 95l220 575h-109l-114 -322l-21 -63h-4l-22 63l-121 322h-113l208 -491l-23 -59q-13 -31 -33 -46t-55 -15h-57v-85zM212 595h77l-59 142h-105z" />
    <glyph glyph-name="endash" unicode="&#x2013;" horiz-adv-x="477" 
d="M30 221h417v87h-417v-87z" />
    <glyph glyph-name="emdash" unicode="&#x2014;" horiz-adv-x="644" 
d="M30 221h584v87h-584v-87z" />
    <glyph glyph-name="quoteleft" unicode="&#x2018;" horiz-adv-x="206" 
d="M173 729h-26q-44 -2 -68 -26t-24 -81v-157h102v105h-46v46q0 25 10.5 40.5t36.5 17.5h15v55z" />
    <glyph glyph-name="quoteright" unicode="&#x2019;" horiz-adv-x="206" 
d="M33 465h26q44 2 68 26t24 81v157h-102v-105h46v-46q0 -25 -10.5 -40.5t-36.5 -17.5h-15v-55z" />
    <glyph glyph-name="quotesinglbase" unicode="&#x201a;" horiz-adv-x="206" 
d="M33 -159h26q44 2 68 26t24 81v157h-102v-105h46v-46q0 -25 -10.5 -40.5t-36.5 -17.5h-15v-55z" />
    <glyph glyph-name="quotedblleft" unicode="&#x201c;" horiz-adv-x="389" 
d="M356 729h-26q-44 -2 -68 -26t-24 -81v-157h102v105h-46v46q0 25 10.5 40.5t36.5 17.5h15v55zM173 729h-26q-44 -2 -68 -26t-24 -81v-157h102v105h-46v46q0 25 10.5 40.5t36.5 17.5h15v55z" />
    <glyph glyph-name="quotedblright" unicode="&#x201d;" horiz-adv-x="389" 
d="M33 465h26q44 2 68 26t24 81v157h-102v-105h46v-46q0 -25 -10.5 -40.5t-36.5 -17.5h-15v-55zM216 465h26q44 2 68 26t24 81v157h-102v-105h46v-46q0 -25 -10.5 -40.5t-36.5 -17.5h-15v-55z" />
    <glyph glyph-name="quotedblbase" unicode="&#x201e;" horiz-adv-x="389" 
d="M33 -159h26q44 2 68 26t24 81v157h-102v-105h46v-46q0 -25 -10.5 -40.5t-36.5 -17.5h-15v-55zM216 -159h26q44 2 68 26t24 81v157h-102v-105h46v-46q0 -25 -10.5 -40.5t-36.5 -17.5h-15v-55z" />
    <glyph glyph-name="bullet" unicode="&#x2022;" horiz-adv-x="343" 
d="M51 277q0 -51 34.5 -84.5t86.5 -33.5q54 0 87 33.5t33 84.5t-33 85t-87 34q-52 0 -86.5 -34t-34.5 -85z" />
    <glyph glyph-name="ellipsis" unicode="&#x2026;" horiz-adv-x="639" 
d="M55 0h103v105h-103v-105zM268 0h103v105h-103v-105zM481 0h103v105h-103v-105z" />
    <glyph glyph-name="perthousand" unicode="&#x2030;" horiz-adv-x="1204" 
d="M160 0h77l463 729h-77zM192 332q66 0 106.5 51t40.5 146q0 92 -38.5 144t-106.5 52q-67 0 -108 -50.5t-41 -144.5q0 -92 39 -145t108 -53zM193 394q-34 0 -54.5 29.5t-20.5 105.5q0 77 21 105.5t54 28.5q32 0 52.5 -28.5t20.5 -105.5q0 -76 -20.5 -105.5t-52.5 -29.5z
M668 -4q66 0 106.5 51t40.5 145q0 92 -38.5 145t-106.5 53q-67 0 -108 -51t-41 -145q0 -92 39 -145t108 -53zM1012 -4q66 0 106.5 51t40.5 145q0 92 -38.5 145t-106.5 53q-67 0 -108 -51t-41 -145q0 -92 39 -145t108 -53zM669 58q-34 0 -54.5 29.5t-20.5 105.5
q0 77 20.5 105.5t54.5 28.5q32 0 52 -28.5t20 -105.5t-20 -106t-52 -29zM1013 58q-33 0 -54 29.5t-21 105.5q0 77 21 105.5t54 28.5q32 0 52 -28.5t20 -105.5t-20 -106t-52 -29z" />
    <glyph glyph-name="guilsinglleft" unicode="&#x2039;" horiz-adv-x="272" 
d="M156 0h89l-117 265l117 264h-89l-124 -264z" />
    <glyph glyph-name="guilsinglright" unicode="&#x203a;" horiz-adv-x="272" 
d="M116 529h-89l117 -265l-117 -264h89l124 264z" />
    <glyph glyph-name="fraction" unicode="&#x2044;" horiz-adv-x="137" 
d="M-220 0h80l497 721h-81z" />
    <glyph glyph-name="uni2070" unicode="&#x2070;" horiz-adv-x="360" 
d="M180 321q72 0 116 57t44 164q0 104 -42 162.5t-116 58.5q-73 0 -117 -56.5t-44 -163.5q0 -104 42.5 -163t116.5 -59zM181 383q-40 0 -64 36t-24 124t24 124t64 36t63.5 -36.5t23.5 -123.5q0 -88 -23.5 -124t-63.5 -36z" />
    <glyph glyph-name="uni2074" unicode="&#x2074;" horiz-adv-x="387" 
d="M233 326h72v103h58v60h-58v270h-92l-189 -275v-55h209v-103zM98 489l135 195v-195h-135z" />
    <glyph glyph-name="uni2075" unicode="&#x2075;" horiz-adv-x="368" 
d="M182 321q73 0 115 41.5t42 108.5q0 63 -37.5 104t-102.5 41q-27 0 -50.5 -9.5t-37.5 -25.5l-3 1l5 113h202v64h-266l-10 -250h68q8 20 28 33t48 13q38 0 60 -23.5t22 -63.5q0 -37 -21.5 -60.5t-61.5 -23.5q-34 0 -56 20t-23 54h-73q1 -61 42.5 -99t109.5 -38z" />
    <glyph glyph-name="uni2076" unicode="&#x2076;" horiz-adv-x="367" 
d="M188 321q68 0 111 39t43 108q0 65 -37.5 104t-97.5 39q-37 0 -64.5 -16.5t-37.5 -43.5h-4q0 71 20.5 110.5t71.5 39.5q29 0 49.5 -14t24.5 -38h70q-5 53 -42.5 84t-101.5 31q-80 0 -122.5 -57.5t-42.5 -178.5q0 -103 41.5 -155t118.5 -52zM190 384q-37 0 -59 23t-22 61
t22 63t59 25q36 0 57.5 -23t21.5 -63q0 -39 -21.5 -62.5t-57.5 -23.5z" />
    <glyph glyph-name="uni2077" unicode="&#x2077;" horiz-adv-x="365" 
d="M122 326h78q0 89 18 155t48 119.5t67 106.5v52h-307v-145h58v81h163q-31 -45 -60 -98.5t-47 -119.5t-18 -151z" />
    <glyph glyph-name="uni2078" unicode="&#x2078;" horiz-adv-x="369" 
d="M185 322q71 0 114.5 32.5t43.5 87.5q0 39 -22 67.5t-62 34.5v3q41 8 59 36.5t18 61.5q0 53 -40 85.5t-111 32.5q-70 0 -110.5 -32.5t-40.5 -85.5q0 -34 18.5 -62t57.5 -36v-3q-38 -6 -61 -35t-23 -68q0 -55 44.5 -87t114.5 -32zM185 574q-39 0 -58 18t-19 46
q0 31 20.5 48.5t56.5 17.5q35 0 56 -17.5t21 -48.5q0 -28 -18.5 -46t-58.5 -18zM185 385q-37 0 -59 17.5t-22 48.5q0 28 19.5 46.5t61.5 18.5q41 0 61 -18t20 -47q0 -31 -22 -48.5t-59 -17.5z" />
    <glyph glyph-name="uni2079" unicode="&#x2079;" horiz-adv-x="367" 
d="M177 321q78 0 120 55t42 180q0 104 -41.5 156t-118.5 52q-68 0 -111 -39t-43 -108q0 -64 37 -103t97 -39q39 0 66 16.5t37 42.5h4q0 -70 -18.5 -110t-70.5 -40q-31 0 -50 15t-23 37h-71q5 -51 42.5 -83t101.5 -32zM177 529q-36 0 -57.5 23t-21.5 62q0 40 21.5 63.5
t57.5 23.5q37 0 59 -23t22 -61q0 -37 -21.5 -62.5t-59.5 -25.5z" />
    <glyph glyph-name="uni2080" unicode="&#x2080;" horiz-adv-x="360" 
d="M180 -35q72 0 116 57t44 164q0 104 -42 162.5t-116 58.5q-73 0 -117 -56.5t-44 -163.5q0 -104 42.5 -163t116.5 -59zM181 27q-40 0 -64 36t-24 124t24 124t64 36t63.5 -36.5t23.5 -123.5q0 -88 -23.5 -124t-63.5 -36z" />
    <glyph glyph-name="uni2081" unicode="&#x2081;" horiz-adv-x="253" 
d="M123 -30h72v433h-69q-3 -34 -26 -54t-66 -20h-17v-55h106v-304z" />
    <glyph glyph-name="uni2082" unicode="&#x2082;" horiz-adv-x="349" 
d="M25 -30h297v64h-206q8 26 30.5 46.5t51.5 40t56 42t45 51t18 67.5q0 58 -39 92.5t-103 34.5q-67 0 -108.5 -38.5t-40.5 -103.5h71q-1 39 19.5 59t53.5 20q32 0 52 -18t20 -50q0 -31 -22 -54.5t-54 -45t-64.5 -47t-54.5 -61t-22 -87.5v-12z" />
    <glyph glyph-name="uni2083" unicode="&#x2083;" horiz-adv-x="360" 
d="M174 -35q69 0 112 34.5t43 92.5q0 40 -19.5 66t-52.5 34v4q28 9 47 34.5t19 62.5q0 53 -39.5 84t-104.5 31q-70 0 -111.5 -37.5t-41.5 -99.5h71q1 34 21.5 54.5t56.5 20.5q32 0 52.5 -16t20.5 -47q0 -27 -17.5 -45.5t-52.5 -18.5h-45v-55h50q32 0 52 -16.5t20 -49.5
q0 -32 -22 -51.5t-59 -19.5t-59 22t-21 54h-72q1 -61 41 -99.5t111 -38.5z" />
    <glyph glyph-name="uni2084" unicode="&#x2084;" horiz-adv-x="387" 
d="M233 -30h72v103h58v60h-58v270h-92l-189 -275v-55h209v-103zM98 133l135 195v-195h-135z" />
    <glyph glyph-name="uni2085" unicode="&#x2085;" horiz-adv-x="368" 
d="M182 -35q73 0 115 41.5t42 108.5q0 63 -37.5 104t-102.5 41q-27 0 -50.5 -9.5t-37.5 -25.5l-3 1l5 113h202v64h-266l-10 -250h68q8 20 28 33t48 13q38 0 60 -23.5t22 -63.5q0 -37 -21.5 -60.5t-61.5 -23.5q-34 0 -56 20t-23 54h-73q1 -61 42.5 -99t109.5 -38z" />
    <glyph glyph-name="uni2086" unicode="&#x2086;" horiz-adv-x="367" 
d="M188 -35q68 0 111 39t43 108q0 65 -37.5 104t-97.5 39q-37 0 -64.5 -16.5t-37.5 -43.5h-4q0 71 20.5 110.5t71.5 39.5q29 0 49.5 -14t24.5 -38h70q-5 53 -42.5 84t-101.5 31q-80 0 -122.5 -57.5t-42.5 -178.5q0 -103 41.5 -155t118.5 -52zM190 28q-37 0 -59 23t-22 61
t22 63t59 25q36 0 57.5 -23t21.5 -63q0 -39 -21.5 -62.5t-57.5 -23.5z" />
    <glyph glyph-name="uni2087" unicode="&#x2087;" horiz-adv-x="365" 
d="M122 -30h78q0 89 18 155t48 119.5t67 106.5v52h-307v-145h58v81h163q-31 -45 -60 -98.5t-47 -119.5t-18 -151z" />
    <glyph glyph-name="uni2088" unicode="&#x2088;" horiz-adv-x="369" 
d="M185 -34q71 0 114.5 32.5t43.5 87.5q0 39 -22 67.5t-62 34.5v3q41 8 59 36.5t18 61.5q0 53 -40 85.5t-111 32.5q-70 0 -110.5 -32.5t-40.5 -85.5q0 -34 18.5 -62t57.5 -36v-3q-38 -6 -61 -35t-23 -68q0 -55 44.5 -87t114.5 -32zM185 218q-39 0 -58 18t-19 46
q0 31 20.5 48.5t56.5 17.5q35 0 56 -17.5t21 -48.5q0 -28 -18.5 -46t-58.5 -18zM185 29q-37 0 -59 17.5t-22 48.5q0 28 19.5 46.5t61.5 18.5q41 0 61 -18t20 -47q0 -31 -22 -48.5t-59 -17.5z" />
    <glyph glyph-name="uni2089" unicode="&#x2089;" horiz-adv-x="367" 
d="M177 -35q78 0 120 55t42 180q0 104 -41.5 156t-118.5 52q-68 0 -111 -39t-43 -108q0 -64 37 -103t97 -39q39 0 66 16.5t37 42.5h4q0 -70 -18.5 -110t-70.5 -40q-31 0 -50 15t-23 37h-71q5 -51 42.5 -83t101.5 -32zM177 173q-36 0 -57.5 23t-21.5 62q0 40 21.5 63.5
t57.5 23.5q37 0 59 -23t22 -61q0 -37 -21.5 -62.5t-59.5 -25.5z" />
    <glyph glyph-name="uni20AA" unicode="&#x20aa;" horiz-adv-x="806" 
d="M378 0h340v729h-92v-643h-272v472h-78v-454q0 -61 27.5 -82.5t74.5 -21.5zM88 0h92v644h272v-472h78v454q0 61 -27 82t-74 21h-341v-729z" />
    <glyph glyph-name="Euro" unicode="&#x20ac;" horiz-adv-x="830" 
d="M40 248h75q30 -121 121 -189t223 -68q90 0 161.5 31.5t116.5 89t54 134.5l-113 1q-13 -73 -72 -116.5t-147 -43.5q-85 0 -143.5 41.5t-83.5 119.5h223l9 59h-244q-4 27 -4 57t4 58h261l9 58h-258q25 78 83.5 119.5t143.5 41.5q89 0 147 -44t72 -113h113q-11 77 -55.5 134
t-115.5 88t-161 31q-132 0 -223 -68t-121 -189h-75v-58h64q-3 -28 -3 -58q0 -29 3 -57h-64v-59z" />
    <glyph glyph-name="uni20B9" unicode="&#x20b9;" horiz-adv-x="634" 
d="M444 0h114v13q-7 3 -13 13.5t-9 29.5l-21 137q-18 108 -109 129v6q61 12 101 49t49 94h78v69h-78q-3 38 -25 70t-52 45v4h155v70h-546v-85h199q139 0 157 -108h-356v-61h355q-6 -49 -43.5 -77t-113.5 -28h-198v-81h182q33 0 59.5 -8t45 -31.5t26.5 -70.5l23 -133
q4 -19 10 -31t10 -15z" />
    <glyph glyph-name="uni20BA" unicode="&#x20ba;" horiz-adv-x="625" 
d="M106 0h88q170 0 276 85t122 249h-106q-14 -106 -82.5 -170t-194.5 -65v228l181 74v81l-181 -74v99l181 74v81l-181 -73v140h-103v-180l-90 -38v-80l90 36v-99l-90 -36v-81l90 36v-287z" />
    <glyph glyph-name="uni20BF" unicode="&#x20bf;" horiz-adv-x="687" 
d="M88 0h123v-85h65v85h97v-85h66v87q101 11 154.5 65t53.5 138q0 62 -34.5 109.5t-101.5 60.5v5q57 15 86.5 59.5t29.5 102.5q0 78 -48 128t-140 58v86h-65v-85h-98v85h-65v-85h-123v-729zM195 415v228h185q61 0 97.5 -30.5t36.5 -86.5q0 -50 -31.5 -80.5t-93.5 -30.5h-194
zM195 86v246h199q68 0 102.5 -32t34.5 -88q0 -57 -36.5 -91.5t-110.5 -34.5h-189z" />
    <glyph glyph-name="uni2117" unicode="&#x2117;" horiz-adv-x="822" 
d="M411 -10q114 0 200.5 47t135 131t48.5 196t-48.5 196t-135 130.5t-200.5 46.5q-113 0 -199.5 -46.5t-135 -130.5t-48.5 -196t48.5 -196t135 -131t199.5 -47zM411 39q-98 0 -172.5 40.5t-116 114t-41.5 170.5t41.5 170.5t116 114.5t172.5 41q99 0 173.5 -41t116 -114.5
t41.5 -170.5t-41.5 -170.5t-116 -114t-173.5 -40.5zM279 166h77v142h96q73 0 110.5 35t37.5 93q0 60 -38.5 93.5t-109.5 33.5h-173v-397zM435 506q38 0 62 -17t24 -55q0 -39 -24 -56.5t-62 -17.5h-78v146h78z" />
    <glyph glyph-name="trademark" unicode="&#x2122;" horiz-adv-x="745" 
d="M322 417h66v125l-1 103h3l93 -228h55l93 228h3l-2 -103l1 -125h67v312h-95l-92 -226h-4l-93 226h-94v-312zM103 417h70v251h101v61h-269v-61h98v-251z" />
    <glyph glyph-name="oneeighth" unicode="&#x215b;" horiz-adv-x="706" 
d="M106 333h64v388h-61q-3 -29 -23.5 -47.5t-60.5 -18.5h-16v-50h97v-272zM7 0h80l497 721h-81zM536 -4q65 0 104.5 29.5t39.5 78.5q0 35 -20.5 60.5t-56.5 30.5v2q36 8 53 32.5t17 55.5q0 48 -36.5 77.5t-100.5 29.5t-100 -29.5t-36 -76.5q0 -34 18 -58t51 -31v-2
q-37 -6 -57 -32t-20 -60q0 -49 40 -78t104 -29zM536 222q-35 0 -52.5 16t-17.5 41q0 27 18.5 43t51.5 16q32 0 51.5 -15.5t19.5 -43.5q0 -25 -17 -41t-54 -16zM536 53q-34 0 -54 15.5t-20 43.5q0 24 18 41t56 17t56.5 -16t18.5 -42q0 -28 -20.5 -43.5t-54.5 -15.5z" />
    <glyph glyph-name="threeeighths" unicode="&#x215c;" horiz-adv-x="811" 
d="M161 328q62 0 101.5 32t39.5 82q0 33 -16.5 57.5t-49.5 33.5v2q29 10 44.5 33.5t15.5 54.5q0 47 -37 75t-94 28q-59 0 -98 -32.5t-40 -90.5h64q1 31 21 49t51 18q29 0 47.5 -15t18.5 -41q0 -25 -16 -41t-48 -16h-41v-50h45q30 0 48.5 -15.5t18.5 -43.5t-20.5 -46
t-54.5 -18q-32 0 -53 19t-21 50h-63q0 -55 36.5 -90t100.5 -35zM112 0h80l497 721h-81zM641 -4q65 0 104.5 29.5t39.5 78.5q0 35 -20.5 60.5t-56.5 30.5v2q36 8 53 32.5t17 55.5q0 48 -36.5 77.5t-100.5 29.5t-100 -29.5t-36 -76.5q0 -34 18 -58t51 -31v-2q-37 -6 -57 -32
t-20 -60q0 -49 40 -78t104 -29zM641 222q-35 0 -52.5 16t-17.5 41q0 27 18.5 43t51.5 16q32 0 51.5 -15.5t19.5 -43.5q0 -25 -17 -41t-54 -16zM641 53q-34 0 -54 15.5t-20 43.5q0 24 18 41t56 17t56.5 -16t18.5 -42q0 -28 -20.5 -43.5t-54.5 -15.5z" />
    <glyph glyph-name="fiveeighths" unicode="&#x215d;" horiz-adv-x="820" 
d="M169 328q65 0 104 37.5t39 97.5q0 56 -35.5 93t-92.5 37q-25 0 -46.5 -8.5t-32.5 -22.5l-4 1l5 101h181v57h-238l-10 -224h62q8 19 26 30t43 11q34 0 54.5 -22t20.5 -55t-20.5 -54t-54.5 -21q-32 0 -52.5 18t-20.5 47h-66q1 -53 38.5 -88t99.5 -35zM122 0h80l497 721h-81
zM650 -4q65 0 104.5 29.5t39.5 78.5q0 35 -20.5 60.5t-56.5 30.5v2q36 8 53 32.5t17 55.5q0 48 -36.5 77.5t-100.5 29.5t-100 -29.5t-36 -76.5q0 -34 18 -58t51 -31v-2q-37 -6 -57 -32t-20 -60q0 -49 40 -78t104 -29zM650 222q-35 0 -52.5 16t-17.5 41q0 27 18.5 43t51.5 16
q32 0 51.5 -15.5t19.5 -43.5q0 -25 -17 -41t-54 -16zM650 53q-34 0 -54 15.5t-20 43.5q0 24 18 41t56 17t56.5 -16t18.5 -42q0 -28 -20.5 -43.5t-54.5 -15.5z" />
    <glyph glyph-name="seveneighths" unicode="&#x215e;" horiz-adv-x="726" 
d="M96 333h70q0 80 16.5 139t44 107t60.5 95v47h-278v-129h52v72h149q-28 -41 -54.5 -88.5t-43 -106.5t-16.5 -136zM27 0h80l497 721h-81zM555 -4q65 0 104.5 29.5t39.5 78.5q0 35 -20.5 60.5t-56.5 30.5v2q36 8 53 32.5t17 55.5q0 48 -36.5 77.5t-100.5 29.5t-100 -29.5
t-36 -76.5q0 -34 18 -58t51 -31v-2q-37 -6 -57 -32t-20 -60q0 -49 40 -78t104 -29zM555 222q-35 0 -52.5 16t-17.5 41q0 27 18.5 43t51.5 16q32 0 51.5 -15.5t19.5 -43.5q0 -25 -17 -41t-54 -16zM555 53q-34 0 -54 15.5t-20 43.5q0 24 18 41t56 17t56.5 -16t18.5 -42
q0 -28 -20.5 -43.5t-54.5 -15.5z" />
    <glyph glyph-name="arrowleft" unicode="&#x2190;" horiz-adv-x="746" 
d="M649 410h-432l111 158h-95l-141 -203l141 -203h95l-111 158h432v90z" />
    <glyph glyph-name="arrowup" unicode="&#x2191;" horiz-adv-x="532" 
d="M221 86h91v431l158 -111v95l-204 142l-203 -142v-95l158 111v-431z" />
    <glyph glyph-name="arrowright" unicode="&#x2192;" horiz-adv-x="746" 
d="M97 410v-90h432l-111 -158h95l141 203l-141 203h-95l111 -158h-432z" />
    <glyph glyph-name="arrowdown" unicode="&#x2193;" horiz-adv-x="524" 
d="M222 643v-431l-158 111v-95l204 -142l203 142v95l-158 -111v431h-91z" />
    <glyph glyph-name="arrowboth" unicode="&#x2194;" horiz-adv-x="830" 
d="M196 162h95l-111 158h470l-111 -158h95l142 203l-142 203h-95l111 -158h-470l111 158h-95l-142 -203z" />
    <glyph glyph-name="emptyset" unicode="&#x2205;" horiz-adv-x="783" 
d="M392 -6q76 0 142 27t116 77t78 118t28 150q0 81 -28 148.5t-78 117t-116 76.5t-142 27t-142 -27t-116 -76.5t-78 -117t-28 -148.5q0 -82 28 -150t78 -118t116 -77t142 -27zM109 222q-14 32 -22 68.5t-8 75.5q0 70 24.5 129t67.5 102t100 67t121 24q80 0 147.5 -36.5
t109.5 -98.5zM392 41q-81 0 -149.5 38t-110.5 103l541 329q15 -32 23.5 -68.5t8.5 -76.5q0 -70 -24.5 -129.5t-67.5 -103.5t-99.5 -68t-121.5 -24z" />
    <glyph glyph-name="product" unicode="&#x220f;" horiz-adv-x="783" 
d="M88 -151h109v781h388v-781h109v880h-606v-880z" />
    <glyph glyph-name="summation" unicode="&#x2211;" horiz-adv-x="670" 
d="M88 -151h494v105h-207l-152 -1v6l260 330l-260 330v6l152 -1h207v105h-494v-113l250 -320v-13l-250 -321v-113z" />
    <glyph glyph-name="minus" unicode="&#x2212;" horiz-adv-x="665" 
d="M95 320h475v82h-475v-82z" />
    <glyph glyph-name="radical" unicode="&#x221a;" horiz-adv-x="673" 
d="M243 -151h140l281 880h-116l-232 -760h-5l-133 453h-169v-97h85z" />
    <glyph glyph-name="infinity" unicode="&#x221e;" horiz-adv-x="899" 
d="M242 147q72 0 122.5 43t85.5 103q38 -63 87 -104.5t122 -41.5q60 0 105 29t70.5 78t25.5 109q0 61 -25 110.5t-70.5 79t-105.5 29.5q-49 0 -87.5 -20.5t-68 -54t-53.5 -72.5q-23 39 -53 72.5t-68 54t-87 20.5q-60 0 -105.5 -29.5t-71 -79t-25.5 -110.5q0 -63 25.5 -111.5
t71 -76.5t105.5 -28zM247 243q-50 0 -80 34t-30 88q0 52 30 87t80 35q48 0 83 -33t71 -89q-36 -58 -72 -90t-82 -32zM652 243q-47 0 -81.5 32.5t-71.5 89.5q35 56 70 89t83 33q50 0 80.5 -35.5t30.5 -86.5t-30.5 -86.5t-80.5 -35.5z" />
    <glyph glyph-name="integral" unicode="&#x222b;" horiz-adv-x="406" 
d="M9 -151h150q48 0 72 27t24 70v697h142v86h-151q-43 0 -69 -26.5t-26 -73.5v-695h-142v-85z" />
    <glyph glyph-name="approxequal" unicode="&#x2248;" horiz-adv-x="653" 
d="M412 286q45 0 77.5 32t30.5 104q1 11 0 23h-56q0 -28 -14 -45t-43 -17t-56 14t-55.5 27.5t-62.5 13.5q-26 0 -49 -12.5t-37.5 -41.5t-13.5 -78q0 -12 1 -24h56q-1 6 0 12v0v1q2 20 13.5 33.5t32.5 13.5q24 0 50 -14t57.5 -28t68.5 -14z" />
    <glyph glyph-name="notequal" unicode="&#x2260;" horiz-adv-x="641" 
d="M149 82h82l59 123h269v83h-233l72 146h161v82h-124l59 124h-81l-60 -124h-270v-82h233l-71 -146h-162v-83h125z" />
    <glyph glyph-name="lessequal" unicode="&#x2264;" horiz-adv-x="685" 
d="M589 144v93l-392 143v6l392 140v93l-492 -179v-115zM97 0h492v75h-492v-75z" />
    <glyph glyph-name="greaterequal" unicode="&#x2265;" horiz-adv-x="685" 
d="M97 144l492 181v115l-492 179v-93l391 -140v-6l-391 -143v-93zM97 0h492v75h-492v-75z" />
    <glyph glyph-name="uni2639" unicode="&#x2639;" horiz-adv-x="808" 
d="M404 -10q109 0 194 47t134 132t49 197q0 83 -28 151.5t-79 118t-119.5 76.5t-150.5 27q-81 0 -150 -27t-119.5 -76.5t-78.5 -118t-28 -151.5q0 -112 49 -197t134 -132t193 -47zM404 38q-95 0 -168 41t-114.5 115t-41.5 172t41.5 171t114.5 113.5t168 40.5q96 0 169 -40.5
t114.5 -113.5t41.5 -171t-41.5 -172t-114.5 -115t-169 -41zM316 392q23 0 38 16t15 50q0 29 -13 48t-40 19q-24 0 -39 -16.5t-15 -50.5q0 -28 13.5 -47t40.5 -19zM494 392q24 0 39.5 16t15.5 50q0 29 -13.5 48t-41.5 19q-23 0 -38.5 -16.5t-15.5 -50.5q0 -28 14 -47t40 -19z
M172 171h46q23 48 72 76.5t113 28.5t114 -28t72 -77h46q-23 69 -85 108.5t-147 39.5q-83 0 -145.5 -39.5t-85.5 -108.5z" />
    <glyph glyph-name="smileface" unicode="&#x263a;" horiz-adv-x="808" 
d="M404 -10q109 0 194 47t134 132t49 197q0 83 -28 151.5t-79 118t-119.5 76.5t-150.5 27q-81 0 -150 -27t-119.5 -76.5t-78.5 -118t-28 -151.5q0 -112 49 -197t134 -132t193 -47zM404 38q-95 0 -168 41t-114.5 115t-41.5 172t41.5 171t114.5 113.5t168 40.5q96 0 169 -40.5
t114.5 -113.5t41.5 -171t-41.5 -172t-114.5 -115t-169 -41zM316 392q23 0 38 16t15 50q0 29 -13 48t-40 19q-24 0 -39 -16.5t-15 -50.5q0 -28 13.5 -47t40.5 -19zM494 392q24 0 39.5 16t15.5 50q0 29 -13.5 48t-41.5 19q-23 0 -38.5 -16.5t-15.5 -50.5q0 -28 14 -47t40 -19z
M403 113q65 0 116.5 24t84 67.5t41.5 100.5h32v24h-117v-24h36q-10 -66 -63 -105.5t-130 -39.5q-75 0 -128 39.5t-64 105.5h37v24h-116v-24h30q9 -57 42 -100.5t84 -67.5t115 -24z" />
    <glyph glyph-name="uni2713" unicode="&#x2713;" horiz-adv-x="932" 
d="M321 107l502 441l-59 69l-435 -382l-154 199l-65 -59z" />
    <glyph glyph-name="uni2776" unicode="&#x2776;" horiz-adv-x="872" 
d="M435 -10q114 0 201 47t135.5 131.5t48.5 195.5q0 112 -48.5 196t-135.5 130.5t-201 46.5q-113 0 -199.5 -46.5t-135.5 -130.5t-49 -196t48.5 -196t135.5 -131t200 -47zM433 166v282h-94v48h15q39 0 58.5 19t22.5 48h60v-397h-62z" />
    <glyph glyph-name="uni2777" unicode="&#x2777;" horiz-adv-x="872" 
d="M435 -10q114 0 201 47t135.5 131.5t48.5 195.5q0 112 -48.5 196t-135.5 130.5t-201 46.5q-113 0 -199.5 -46.5t-135.5 -130.5t-49 -196t48.5 -196t135.5 -131t200 -47zM308 163v10q0 47 19 79.5t47.5 56t57 44t47.5 42t19 50.5q0 30 -17.5 47.5t-45.5 17.5q-31 0 -49 -21
t-16 -54h-61q-2 59 35 94.5t95 35.5q56 0 90 -32t34 -85q0 -35 -15.5 -61.5t-39 -47t-48.5 -39.5t-45.5 -39.5t-28.5 -45.5q30 3 76 3h104v-55h-258z" />
    <glyph glyph-name="uni2778" unicode="&#x2778;" horiz-adv-x="872" 
d="M435 -10q114 0 201 47t135.5 131.5t48.5 195.5q0 112 -48.5 196t-135.5 130.5t-201 46.5q-113 0 -199.5 -46.5t-135.5 -130.5t-49 -196t48.5 -196t135.5 -131t200 -47zM435 161q-61 0 -96.5 35.5t-35.5 91.5h61q0 -33 20 -53t51 -20q32 0 52 19t20 49q0 29 -18 45.5
t-46 16.5h-44v49h39q31 0 47 17.5t16 43.5q0 28 -18.5 43.5t-46.5 15.5q-31 0 -49.5 -20t-19.5 -52h-61q0 58 37 92t96 34q54 0 90 -28t36 -77q0 -34 -16.5 -57.5t-41.5 -32.5v-3q32 -8 48 -33.5t16 -58.5q0 -52 -38.5 -84.5t-97.5 -32.5z" />
    <glyph glyph-name="uni2779" unicode="&#x2779;" horiz-adv-x="872" 
d="M51 364q0 -112 48.5 -196t135.5 -131t200 -47q114 0 201 47t135.5 131.5t48.5 195.5q0 112 -48.5 196t-135.5 130.5t-201 46.5q-113 0 -199.5 -46.5t-135.5 -130.5t-49 -196zM284 262v47l166 254h79v-250h51v-51h-51v-96h-62l-1 96h-182zM346 313h121v180z" />
    <glyph glyph-name="uni277A" unicode="&#x277a;" horiz-adv-x="872" 
d="M435 -10q114 0 201 47t135.5 131.5t48.5 195.5q0 112 -48.5 196t-135.5 130.5t-201 46.5q-113 0 -199.5 -46.5t-135.5 -130.5t-49 -196t48.5 -196t135.5 -131t200 -47zM434 163q-58 0 -95 35t-37 91h62q1 -32 21 -52t50 -20q32 0 52.5 23t20.5 58q0 36 -20 59.5t-52 23.5
q-25 0 -42 -12t-25 -32h-59l9 228h230v-55h-175l-5 -109l3 -1q25 33 76 33q56 0 90 -37.5t34 -94.5q0 -61 -38 -99.5t-100 -38.5z" />
    <glyph glyph-name="uni277B" unicode="&#x277b;" horiz-adv-x="872" 
d="M435 -10q114 0 201 47t135.5 131.5t48.5 195.5q0 112 -48.5 196t-135.5 130.5t-201 46.5q-113 0 -199.5 -46.5t-135.5 -130.5t-49 -196t48.5 -196t135.5 -131t200 -47zM441 161q-68 0 -104.5 47.5t-36.5 141.5q0 110 37.5 163.5t107.5 53.5q53 0 87 -28t39 -77h-61
q-4 24 -22 37.5t-43 13.5q-48 0 -64.5 -40t-17.5 -105h3q10 27 34 42.5t57 15.5q56 0 86.5 -35.5t30.5 -93.5q0 -66 -37 -101t-96 -35zM441 215q32 0 51 22.5t19 59.5q0 38 -19 59.5t-50 21.5q-34 0 -53 -23.5t-19 -59.5q0 -37 20 -58.5t51 -21.5z" />
    <glyph glyph-name="uni277C" unicode="&#x277c;" horiz-adv-x="872" 
d="M435 -10q114 0 201 47t135.5 131.5t48.5 195.5q0 112 -48.5 196t-135.5 130.5t-201 46.5q-113 0 -199.5 -46.5t-135.5 -130.5t-49 -196t48.5 -196t135.5 -131t200 -47zM387 166q0 76 15 136.5t40.5 111t54.5 94.5h-143v-75h-51v130h268v-46q-33 -50 -59.5 -100.5
t-41.5 -110.5t-15 -140h-68z" />
    <glyph glyph-name="uni277D" unicode="&#x277d;" horiz-adv-x="872" 
d="M51 364q0 -112 48.5 -196t135.5 -131t200 -47q114 0 201 47t135.5 131.5t48.5 195.5q0 112 -48.5 196t-135.5 130.5t-201 46.5q-113 0 -199.5 -46.5t-135.5 -130.5t-49 -196zM298 272q0 34 20 60.5t54 32.5v2q-34 8 -50.5 34t-16.5 58q0 47 35.5 77t96.5 30
q62 0 97 -29.5t35 -78.5q0 -31 -16 -57t-51 -34v-2q37 -5 55 -32.5t18 -60.5q0 -51 -38 -80.5t-100 -29.5q-61 0 -100 29t-39 81zM369 451q0 -26 17 -43.5t51 -17.5q35 0 51.5 18t16.5 43q0 29 -18.5 46t-49.5 17t-49.5 -17t-18.5 -46zM366 278q0 -29 19 -46.5t52 -17.5
q32 0 52 17.5t20 46.5q0 27 -18.5 44t-53.5 17q-37 0 -54 -17.5t-17 -43.5z" />
    <glyph glyph-name="uni277E" unicode="&#x277e;" horiz-adv-x="872" 
d="M435 -10q114 0 201 47t135.5 131.5t48.5 195.5q0 112 -48.5 196t-135.5 130.5t-201 46.5q-113 0 -199.5 -46.5t-135.5 -130.5t-49 -196t48.5 -196t135.5 -131t200 -47zM432 161q-51 0 -85.5 27t-39.5 78h61q2 -21 19 -36t45 -15q47 0 63 40t16 104h-3q-8 -24 -31 -40.5
t-59 -16.5q-55 0 -86.5 36t-31.5 94q0 65 37.5 100t96.5 35q67 0 103.5 -47.5t36.5 -142.5q0 -120 -37.5 -168t-104.5 -48zM433 350q34 0 52.5 23.5t18.5 58.5q0 37 -19 58.5t-51 21.5t-51.5 -22t-19.5 -59t19.5 -59t50.5 -22z" />
    <glyph glyph-name="uni2780" unicode="&#x2780;" horiz-adv-x="870" 
d="M435 -10q113 0 199.5 47t135 131t48.5 196t-48.5 196t-135 130.5t-199.5 46.5t-200 -46.5t-135.5 -130.5t-48.5 -196t48.5 -196t135.5 -131t200 -47zM435 39q-98 0 -173 40.5t-116.5 114t-41.5 170.5t41.5 170.5t116.5 114.5t173 41q99 0 173 -41t115.5 -114.5
t41.5 -170.5t-41.5 -170.5t-115.5 -114t-173 -40.5zM432 166h62v397h-60q-3 -29 -22.5 -48t-58.5 -19h-15v-48h94v-282z" />
    <glyph glyph-name="uni2781" unicode="&#x2781;" horiz-adv-x="870" 
d="M435 -10q113 0 199.5 47t135 131t48.5 196t-48.5 196t-135 130.5t-199.5 46.5t-200 -46.5t-135.5 -130.5t-48.5 -196t48.5 -196t135.5 -131t200 -47zM435 39q-98 0 -173 40.5t-116.5 114t-41.5 170.5t41.5 170.5t116.5 114.5t173 41q99 0 173 -41t115.5 -114.5
t41.5 -170.5t-41.5 -170.5t-115.5 -114t-173 -40.5zM306 163h259v55h-105q-45 0 -75 -3q8 25 28.5 45.5t45.5 39.5t48.5 39.5t39 47t15.5 61.5q0 53 -34 85t-90 32q-58 0 -95 -35.5t-35 -94.5h60q-1 33 17 54t49 21q28 0 45.5 -17.5t17.5 -47.5q0 -29 -19.5 -50.5t-47.5 -42
t-56.5 -44t-48 -56t-19.5 -79.5v-10z" />
    <glyph glyph-name="uni2782" unicode="&#x2782;" horiz-adv-x="870" 
d="M435 -10q113 0 199.5 47t135 131t48.5 196t-48.5 196t-135 130.5t-199.5 46.5t-200 -46.5t-135.5 -130.5t-48.5 -196t48.5 -196t135.5 -131t200 -47zM435 39q-98 0 -173 40.5t-116.5 114t-41.5 170.5t41.5 170.5t116.5 114.5t173 41q99 0 173 -41t115.5 -114.5
t41.5 -170.5t-41.5 -170.5t-115.5 -114t-173 -40.5zM435 161q59 0 97 32.5t38 84.5q0 33 -16 58.5t-48 33.5v3q25 9 41.5 32.5t16.5 57.5q0 49 -36 77t-90 28q-59 0 -96 -34t-37 -92h61q1 32 19.5 52t49.5 20q28 0 46.5 -15.5t18.5 -43.5q0 -26 -16 -43.5t-47 -17.5h-39v-49
h44q28 0 46 -16.5t18 -45.5q0 -30 -20 -49t-52 -19q-31 0 -51 20t-20 53h-61q0 -56 36 -91.5t97 -35.5z" />
    <glyph glyph-name="uni2783" unicode="&#x2783;" horiz-adv-x="870" 
d="M51 364q0 -112 48.5 -196t135.5 -131t200 -47t199.5 47t135 131t48.5 196t-48.5 196t-135 130.5t-199.5 46.5t-200 -46.5t-135.5 -130.5t-48.5 -196zM104 364q0 97 41.5 170.5t116.5 114.5t173 41q99 0 173 -41t115.5 -114.5t41.5 -170.5t-41.5 -170.5t-115.5 -114
t-173 -40.5q-98 0 -173 40.5t-116.5 114t-41.5 170.5zM276 262h182l1 -96h62v96h50l1 51h-51v250h-79l-166 -254v-47zM337 313l122 180v-180h-122z" />
    <glyph glyph-name="uni2784" unicode="&#x2784;" horiz-adv-x="870" 
d="M435 -10q113 0 199.5 47t135 131t48.5 196t-48.5 196t-135 130.5t-199.5 46.5t-200 -46.5t-135.5 -130.5t-48.5 -196t48.5 -196t135.5 -131t200 -47zM435 39q-98 0 -173 40.5t-116.5 114t-41.5 170.5t41.5 170.5t116.5 114.5t173 41q99 0 173 -41t115.5 -114.5
t41.5 -170.5t-41.5 -170.5t-115.5 -114t-173 -40.5zM433 163q62 0 100 38.5t38 99.5q0 57 -34 94.5t-89 37.5q-52 0 -77 -33l-3 1l5 109h175v55h-230l-9 -228h59q8 20 25 32t42 12q32 0 52.5 -23.5t20.5 -59.5q0 -35 -21 -58t-53 -23q-30 0 -50 20t-21 52h-62
q1 -56 37.5 -91t94.5 -35z" />
    <glyph glyph-name="uni2785" unicode="&#x2785;" horiz-adv-x="870" 
d="M435 -10q113 0 199.5 47t135 131t48.5 196t-48.5 196t-135 130.5t-199.5 46.5t-200 -46.5t-135.5 -130.5t-48.5 -196t48.5 -196t135.5 -131t200 -47zM435 39q-98 0 -173 40.5t-116.5 114t-41.5 170.5t41.5 170.5t116.5 114.5t173 41q99 0 173 -41t115.5 -114.5
t41.5 -170.5t-41.5 -170.5t-115.5 -114t-173 -40.5zM439 161q59 0 96.5 35t37.5 101q0 58 -31 93.5t-87 35.5q-32 0 -56 -15.5t-34 -42.5h-3q0 65 17 105t64 40q26 0 44 -13.5t22 -37.5h60q-5 49 -38.5 77t-87.5 28q-70 0 -107 -53.5t-37 -163.5q0 -94 36.5 -141.5
t103.5 -47.5zM440 215q-31 0 -51 21.5t-20 58.5q0 36 19 59.5t53 23.5q31 0 50 -21.5t19 -59.5q0 -37 -19.5 -59.5t-50.5 -22.5z" />
    <glyph glyph-name="uni2786" unicode="&#x2786;" horiz-adv-x="870" 
d="M435 -10q113 0 199.5 47t135 131t48.5 196t-48.5 196t-135 130.5t-199.5 46.5t-200 -46.5t-135.5 -130.5t-48.5 -196t48.5 -196t135.5 -131t200 -47zM435 39q-98 0 -173 40.5t-116.5 114t-41.5 170.5t41.5 170.5t116.5 114.5t173 41q99 0 173 -41t115.5 -114.5
t41.5 -170.5t-41.5 -170.5t-115.5 -114t-173 -40.5zM386 166h68q0 80 15 140t41.5 110.5t59.5 100.5v46h-268v-130h51v75h143q-29 -44 -54 -94.5t-40.5 -111t-15.5 -136.5z" />
    <glyph glyph-name="uni2787" unicode="&#x2787;" horiz-adv-x="870" 
d="M435 -10q113 0 199.5 47t135 131t48.5 196t-48.5 196t-135 130.5t-199.5 46.5t-200 -46.5t-135.5 -130.5t-48.5 -196t48.5 -196t135.5 -131t200 -47zM435 39q-98 0 -173 40.5t-116.5 114t-41.5 170.5t41.5 170.5t116.5 114.5t173 41q99 0 173 -41t115.5 -114.5
t41.5 -170.5t-41.5 -170.5t-115.5 -114t-173 -40.5zM436 162q62 0 100 29.5t38 80.5q0 33 -18.5 60.5t-54.5 32.5v2q35 8 51 34t16 57q0 49 -35.5 78.5t-96.5 29.5t-96.5 -30t-35.5 -77q0 -32 16.5 -58t50.5 -34v-2q-34 -6 -54 -32.5t-20 -60.5q0 -52 39 -81t100 -29z
M436 390q-34 0 -51 17.5t-17 43.5q0 29 18.5 46t49.5 17t49.5 -17t18.5 -46q0 -25 -16.5 -43t-51.5 -18zM436 214q-32 0 -51.5 17.5t-19.5 46.5q0 26 17 43.5t54 17.5q35 0 53.5 -17t18.5 -44q0 -29 -20 -46.5t-52 -17.5z" />
    <glyph glyph-name="uni2788" unicode="&#x2788;" horiz-adv-x="870" 
d="M435 -10q113 0 199.5 47t135 131t48.5 196t-48.5 196t-135 130.5t-199.5 46.5t-200 -46.5t-135.5 -130.5t-48.5 -196t48.5 -196t135.5 -131t200 -47zM435 39q-98 0 -173 40.5t-116.5 114t-41.5 170.5t41.5 170.5t116.5 114.5t173 41q99 0 173 -41t115.5 -114.5
t41.5 -170.5t-41.5 -170.5t-115.5 -114t-173 -40.5zM430 161q67 0 105 48t38 168q0 95 -36.5 142.5t-104.5 47.5q-58 0 -95.5 -35t-37.5 -100q0 -58 31.5 -94t86.5 -36q35 0 58 16.5t32 40.5h2q1 -64 -15 -104t-63 -40q-28 0 -45 15t-20 36h-60q5 -51 39.5 -78t84.5 -27z
M432 350q-31 0 -50.5 22t-19.5 59t19.5 59t50.5 22q32 0 51.5 -21.5t19.5 -58.5q0 -35 -18.5 -58.5t-52.5 -23.5z" />
    <glyph glyph-name="G.ss01" horiz-adv-x="821" 
d="M380 -9q65 0 119.5 18.5t92.5 52t54 77.5h6l6 -139h88v390h-369v-83h253v-17q0 -95 -63.5 -151t-170.5 -56q-112 0 -178 73t-66 207q0 84 29 147t85.5 98t138.5 35q89 0 146.5 -39t74.5 -105h111q-10 75 -55 128t-116 81.5t-161 28.5q-110 0 -192 -45t-127.5 -129.5
t-45.5 -201.5q0 -113 43 -196t119.5 -128.5t177.5 -45.5z" />
    <glyph glyph-name="a.ss01" horiz-adv-x="549" 
d="M205 -9q64 0 112 28t64 74h5q0 -32 2.5 -57t5.5 -36h98q-4 9 -6.5 42.5t-2.5 65.5v238q0 99 -57 145.5t-155 46.5q-102 0 -162.5 -46.5t-62.5 -126.5h96q1 41 32.5 66t90.5 25q61 0 88 -29.5t27 -76.5v-40h-138q-93 0 -152 -41.5t-59 -125.5q0 -68 47.5 -110t126.5 -42z
M243 71q-53 0 -81 23t-28 63q0 43 32.5 64.5t92.5 21.5h122v-54q0 -53 -37.5 -85.5t-100.5 -32.5z" />
    <glyph glyph-name="g.ss01" horiz-adv-x="561" 
d="M199 -167h138q89 0 144 39.5t53 122.5q-3 133 -170 133h-143q-29 0 -52.5 8t-23.5 33q0 17 11.5 30t32.5 15q38 -12 87 -12q98 0 153.5 44.5t55.5 117.5q0 42 -19 78t-54 57q17 29 51 42t77 11v82q-70 2 -116.5 -28t-62.5 -84q-17 8 -40.5 12.5t-43.5 4.5
q-63 0 -110 -21.5t-73.5 -59t-26.5 -87.5q0 -44 19 -77t53 -52v-9q-35 -9 -57.5 -32.5t-22.5 -56.5q0 -28 17 -50t46 -31v-6q-40 -6 -70.5 -34.5t-30.5 -72.5q0 -52 42 -84.5t136 -32.5zM278 270q-52 0 -83 26t-31 73q0 44 30 72.5t83 28.5q50 0 81 -27t31 -75
q0 -43 -29 -70.5t-82 -27.5zM210 -105q-48 0 -74 17t-26 51q0 27 17 44t44 23h174q35 0 61 -11.5t26 -52.5q0 -33 -22.5 -52t-69.5 -19h-130z" />
    <glyph glyph-name="zero.tf" horiz-adv-x="600" 
d="M301 -8q78 0 136.5 42.5t91 124.5t32.5 202q0 176 -70 272t-189 96q-79 0 -138 -42t-92 -123.5t-33 -201.5q0 -176 70.5 -273t191.5 -97zM142 361q0 149 42.5 215t116.5 66q53 0 90 -34t54 -108l-300 -210q-3 33 -3 71zM301 80q-53 0 -90.5 33.5t-54.5 107.5l299 209
q3 -32 3 -69q0 -148 -42 -214.5t-115 -66.5z" />
    <glyph glyph-name="one.tf" horiz-adv-x="600" 
d="M43 0h515v91h-192v630h-99q-3 -36 -20.5 -67t-51 -50.5t-84.5 -19.5h-34v-79h186v-414h-220v-91z" />
    <glyph glyph-name="two.tf" horiz-adv-x="600" 
d="M58 0h484v91l-357 -1q9 39 37.5 71t68 61t82 59t79 64.5t59.5 77.5t23 98q0 63 -29 110t-81 73t-122 26q-73 0 -128.5 -29t-85.5 -81t-28 -123h100q-4 68 34.5 106t101.5 38q59 0 95 -34t36 -91q0 -46 -26.5 -81.5t-68.5 -67t-89.5 -64t-89.5 -72t-68.5 -91.5t-26.5 -122
v-18z" />
    <glyph glyph-name="three.tf" horiz-adv-x="600" 
d="M297 -9q74 0 130.5 26.5t89 74t32.5 109.5q0 64 -32 109.5t-92 60.5v6q51 17 82 60t31 103q0 59 -30.5 101.5t-83.5 65.5t-121 23q-72 0 -127.5 -28t-86.5 -79t-31 -121h101q0 65 39.5 102t100.5 37q58 0 95 -30t37 -83q0 -50 -32 -84t-94 -34h-73v-79h79q59 0 95 -32
t36 -89q0 -58 -40 -94t-105 -36q-64 0 -104.5 39.5t-39.5 102.5h-101q0 -66 29 -118.5t84 -82.5t132 -30z" />
    <glyph glyph-name="four.tf" horiz-adv-x="600" 
d="M374 0h103v177h91v85h-91v459h-134l-310 -464v-80h340zM132 262l242 357v-357h-242z" />
    <glyph glyph-name="five.tf" horiz-adv-x="600" 
d="M296 -9q77 0 134 31.5t89 88t32 129.5q0 70 -29.5 124.5t-81.5 85.5t-121 31q-48 0 -88.5 -18t-62.5 -48l-5 2l9 214h337v90h-428l-17 -409h98q15 36 50 59t86 23q66 0 106.5 -44.5t40.5 -113.5q0 -68 -41 -111t-107 -43q-63 0 -103.5 38t-40.5 100h-103q1 -68 32 -120
t86.5 -80.5t127.5 -28.5z" />
    <glyph glyph-name="six.tf" horiz-adv-x="600" 
d="M304 -8q74 0 130.5 29t88 83.5t31.5 130.5q0 72 -27.5 125t-77.5 82.5t-116 29.5q-67 0 -114 -30.5t-64 -80.5h-6q1 84 15 146.5t50 97.5t100 35q53 0 89.5 -25.5t43.5 -73.5h99q-8 86 -69 137.5t-163 51.5q-132 0 -200 -97t-68 -300q0 -168 66 -254.5t192 -86.5zM307 82
q-65 0 -105 40.5t-40 111.5q0 68 39 113.5t107 45.5q64 0 103 -41.5t39 -112.5q0 -72 -39 -114.5t-104 -42.5z" />
    <glyph glyph-name="seven.tf" horiz-adv-x="600" 
d="M211 0h111q0 113 18 203t49.5 165.5t73 143.5t88.5 135v74h-501v-231h83v141h295q-42 -60 -80.5 -126t-69.5 -142t-49 -165.5t-18 -197.5z" />
    <glyph glyph-name="eight.tf" horiz-adv-x="600" 
d="M301 -7q77 0 135 24.5t90.5 69t32.5 105.5q0 65 -37 113.5t-107 56.5v5q68 12 100.5 59.5t32.5 106.5t-30 103t-85.5 68.5t-131.5 24.5q-115 0 -180.5 -53.5t-65.5 -141.5q0 -60 32.5 -107t99.5 -60v-5q-46 -6 -78.5 -31t-49.5 -61.5t-17 -78.5q0 -61 32.5 -105.5
t91 -68.5t135.5 -24zM301 405q-71 0 -106 33.5t-35 85.5q0 55 37.5 87t103.5 32q64 0 103 -31.5t39 -87.5q0 -50 -34 -84.5t-108 -34.5zM301 82q-67 0 -107.5 32.5t-40.5 90.5q0 49 35.5 83t112.5 34q76 0 112 -33t36 -84q0 -57 -40 -90t-108 -33z" />
    <glyph glyph-name="nine.tf" horiz-adv-x="600" 
d="M292 -8q85 0 143 39t88.5 125.5t30.5 230.5q0 170 -66 256.5t-192 86.5q-74 0 -130.5 -29t-88 -83.5t-31.5 -131.5q0 -71 28 -124t77.5 -82.5t115.5 -29.5q68 0 114.5 31t63.5 80h6q0 -85 -13 -148t-47 -97.5t-98 -34.5q-55 0 -90.5 27t-41.5 73h-100q8 -86 69.5 -137.5
t161.5 -51.5zM292 329q-64 0 -103 41.5t-39 112.5t39.5 114t103.5 43q65 0 105 -40.5t40 -111.5q0 -68 -39 -113.5t-107 -45.5z" />
    <glyph glyph-name="zero.tf.ss03" horiz-adv-x="600" 
d="M301 -8q78 0 136.5 42.5t91 124.5t32.5 202q0 176 -70 272t-189 96q-79 0 -138 -42t-92 -123.5t-33 -201.5q0 -176 70.5 -273t191.5 -97zM301 642q68 0 109.5 -58.5t46.5 -188.5h-314q5 131 46.5 189t111.5 58zM301 80q-70 0 -111.5 58t-46.5 188h314q-5 -130 -46.5 -188
t-109.5 -58z" />
    <glyph glyph-name="zero.dnom" horiz-adv-x="347" 
d="M174 -4q65 0 105 51t40 147q0 94 -38.5 146t-105.5 52q-66 0 -106 -51t-40 -146q0 -94 39 -146.5t106 -52.5zM175 51q-37 0 -59 32t-22 111t22 111t59 32q35 0 57 -32t22 -111t-22 -111t-57 -32z" />
    <glyph glyph-name="one.dnom" horiz-adv-x="227" 
d="M106 0h64v388h-61q-3 -29 -23.5 -48t-60.5 -19h-16v-49h97v-272z" />
    <glyph glyph-name="two.dnom" horiz-adv-x="328" 
d="M31 0h269v57h-109q-16 0 -37.5 -0.5t-41.5 -2.5q9 24 30 43.5t47 37.5t50.5 38t40.5 46t16 60q0 52 -35.5 83t-93.5 31q-61 0 -98.5 -34.5t-36.5 -93.5h64q-2 32 16 51.5t51 19.5q30 0 48 -16.5t18 -44.5t-20 -49t-49.5 -40t-59 -42.5t-49.5 -55.5t-20 -78v-10z" />
    <glyph glyph-name="three.dnom" horiz-adv-x="332" 
d="M161 -5q62 0 101.5 32t39.5 82q0 32 -16.5 57t-49.5 33v3q29 10 44.5 33t15.5 54q0 48 -37 76t-94 28q-59 0 -98 -32.5t-40 -91.5h64q1 32 21 50t51 18q29 0 47.5 -15t18.5 -41q0 -25 -16 -41.5t-48 -16.5h-41v-49h45q30 0 48.5 -15.5t18.5 -43.5t-20.5 -46t-54.5 -18
q-32 0 -53 18.5t-21 49.5h-63q0 -54 36.5 -89t100.5 -35z" />
    <glyph glyph-name="four.dnom" horiz-adv-x="327" 
d="M199 0h65v92h52v54h-52v242h-83l-172 -246v-50h190v-92zM74 146l125 179v-179h-125z" />
    <glyph glyph-name="five.dnom" horiz-adv-x="342" 
d="M169 -5q65 0 104 37.5t39 97.5q0 56 -35.5 92.5t-92.5 36.5q-25 0 -46.5 -8.5t-32.5 -22.5l-4 2l5 101h181v57h-238l-10 -225h62q8 19 26 30.5t43 11.5q34 0 54.5 -22t20.5 -55q0 -34 -20.5 -55t-54.5 -21q-32 0 -52.5 18.5t-20.5 47.5h-66q1 -53 38.5 -88t99.5 -35z" />
    <glyph glyph-name="six.dnom" horiz-adv-x="339" 
d="M174 -4q62 0 101 35t39 96q0 58 -33.5 93t-88.5 35q-35 0 -60 -15t-34 -39h-3q-1 61 17 98t67 37q27 0 45.5 -12.5t22.5 -34.5h62q-4 48 -39 76t-91 28q-150 0 -150 -212q0 -93 37.5 -139t107.5 -46zM176 52q-34 0 -54 20.5t-20 55.5q0 33 20 55.5t54 22.5q32 0 52 -21
t20 -56q0 -34 -20 -55.5t-52 -21.5z" />
    <glyph glyph-name="seven.dnom" horiz-adv-x="297" 
d="M96 0h70q0 80 16.5 139t44 107t60.5 95v47h-278v-130h52v73h149q-28 -41 -54.5 -88.5t-43 -106.5t-16.5 -136z" />
    <glyph glyph-name="eight.dnom" horiz-adv-x="341" 
d="M171 -4q65 0 104.5 29.5t39.5 78.5q0 35 -20.5 60.5t-56.5 30.5v2q36 8 53 32.5t17 55.5q0 48 -36.5 77.5t-100.5 29.5t-100 -29.5t-36 -76.5q0 -34 18 -58t51 -31v-2q-37 -6 -57 -32t-20 -60q0 -49 40 -78t104 -29zM171 222q-35 0 -52.5 16t-17.5 41q0 27 18.5 43
t51.5 16q32 0 51.5 -15.5t19.5 -43.5q0 -25 -17 -41t-54 -16zM171 53q-34 0 -54 15.5t-20 43.5q0 24 18 41t56 17t56.5 -16t18.5 -42q0 -28 -20.5 -43.5t-54.5 -15.5z" />
    <glyph glyph-name="nine.dnom" horiz-adv-x="340" 
d="M164 -4q71 0 109 48.5t38 160.5q0 94 -37 141t-107 47q-62 0 -101 -35.5t-39 -97.5q0 -57 33.5 -92t87.5 -35q35 0 59.5 14.5t34.5 39.5h4q0 -63 -17 -99.5t-65 -36.5q-28 0 -46 14t-21 33h-63q5 -47 40 -74.5t90 -27.5zM164 182q-32 0 -52 21t-20 55q0 35 20 56.5
t53 21.5q34 0 54 -20.5t20 -54.5t-20 -56.5t-55 -22.5z" />
    <glyph glyph-name="zero.numr" horiz-adv-x="347" 
d="M174 329q65 0 105 51t40 147q0 94 -38.5 146t-105.5 52q-66 0 -106 -51t-40 -146q0 -94 39 -146.5t106 -52.5zM175 384q-37 0 -59 32.5t-22 111.5q0 78 22 110t59 32q35 0 57 -32t22 -110q0 -79 -22 -111.5t-57 -32.5z" />
    <glyph glyph-name="one.numr" horiz-adv-x="227" 
d="M106 333h64v388h-61q-3 -29 -23.5 -47.5t-60.5 -18.5h-16v-50h97v-272z" />
    <glyph glyph-name="two.numr" horiz-adv-x="328" 
d="M31 333h269v58h-109q-16 0 -37.5 -0.5t-41.5 -2.5q9 24 30 43t47 37t50.5 38.5t40.5 46t16 59.5q0 52 -35.5 83t-93.5 31q-61 0 -98.5 -34.5t-36.5 -93.5h64q-2 32 16 52t51 20q30 0 48 -17t18 -44q0 -28 -20 -49t-49.5 -40.5t-59 -42.5t-49.5 -55t-20 -78v-11z" />
    <glyph glyph-name="three.numr" horiz-adv-x="332" 
d="M161 328q62 0 101.5 32t39.5 82q0 33 -16.5 57.5t-49.5 33.5v2q29 10 44.5 33.5t15.5 54.5q0 47 -37 75t-94 28q-59 0 -98 -32.5t-40 -90.5h64q1 31 21 49t51 18q29 0 47.5 -15t18.5 -41q0 -25 -16 -41t-48 -16h-41v-50h45q30 0 48.5 -15.5t18.5 -43.5t-20.5 -46
t-54.5 -18q-32 0 -53 19t-21 50h-63q0 -55 36.5 -90t100.5 -35z" />
    <glyph glyph-name="four.numr" horiz-adv-x="327" 
d="M199 333h65v92h52v54h-52v242h-83l-172 -246v-50h190v-92zM74 479l125 179v-179h-125z" />
    <glyph glyph-name="five.numr" horiz-adv-x="342" 
d="M169 328q65 0 104 37.5t39 97.5q0 56 -35.5 93t-92.5 37q-25 0 -46.5 -8.5t-32.5 -22.5l-4 1l5 101h181v57h-238l-10 -224h62q8 19 26 30t43 11q34 0 54.5 -22t20.5 -55t-20.5 -54t-54.5 -21q-32 0 -52.5 18t-20.5 47h-66q1 -53 38.5 -88t99.5 -35z" />
    <glyph glyph-name="six.numr" horiz-adv-x="339" 
d="M174 329q62 0 101 35t39 97q0 57 -33.5 92t-88.5 35q-35 0 -60 -14.5t-34 -39.5h-3q-1 61 17 98.5t67 37.5q27 0 45.5 -12.5t22.5 -34.5h62q-4 47 -39 75t-91 28q-150 0 -150 -211q0 -93 37.5 -139.5t107.5 -46.5zM176 386q-34 0 -54 20t-20 55q0 34 20 56t54 22
q32 0 52 -20.5t20 -55.5t-20 -56t-52 -21z" />
    <glyph glyph-name="seven.numr" horiz-adv-x="297" 
d="M96 333h70q0 80 16.5 139t44 107t60.5 95v47h-278v-129h52v72h149q-28 -41 -54.5 -88.5t-43 -106.5t-16.5 -136z" />
    <glyph glyph-name="eight.numr" horiz-adv-x="341" 
d="M171 330q65 0 104.5 29t39.5 78q0 35 -20.5 61t-56.5 30v3q36 8 53 32.5t17 55.5q0 47 -36.5 76.5t-100.5 29.5t-100 -29t-36 -77q0 -34 18 -57.5t51 -30.5v-3q-37 -5 -57 -31.5t-20 -59.5q0 -49 40 -78t104 -29zM171 555q-35 0 -52.5 16t-17.5 42t18.5 42t51.5 16
q32 0 51.5 -15.5t19.5 -42.5q0 -25 -17 -41.5t-54 -16.5zM171 386q-34 0 -54 16t-20 44q0 24 18 40.5t56 16.5t56.5 -16t18.5 -41q0 -28 -20.5 -44t-54.5 -16z" />
    <glyph glyph-name="nine.numr" horiz-adv-x="340" 
d="M164 329q71 0 109 49t38 161q0 93 -37 140t-107 47q-62 0 -101 -35t-39 -97q0 -58 33.5 -92.5t87.5 -34.5q35 0 59.5 14.5t34.5 38.5h4q0 -62 -17 -98.5t-65 -36.5q-28 0 -46 13.5t-21 33.5h-63q5 -48 40 -75.5t90 -27.5zM164 515q-32 0 -52 21t-20 56t20 56t53 21
q34 0 54 -20t20 -55q0 -34 -20 -56.5t-55 -22.5z" />
    <glyph glyph-name="parenleft.case" horiz-adv-x="335" 
d="M214 -63h91q-46 46 -81 113.5t-54.5 148.5t-19.5 166q0 83 18.5 163t53.5 148.5t83 116.5h-91q-51 -47 -88 -115.5t-57 -149t-20 -163.5t20 -163.5t57 -148.5t88 -116z" />
    <glyph glyph-name="parenright.case" horiz-adv-x="335" 
d="M30 -63h91q52 48 88.5 116t56.5 148.5t20 163.5t-20 163.5t-56.5 149t-88.5 115.5h-91q48 -48 83 -116.5t53.5 -148.5t18.5 -163q0 -85 -19.5 -166t-54.5 -148.5t-81 -113.5z" />
    <glyph glyph-name="braceleft.case" horiz-adv-x="383" 
d="M209 -63h165v75h-147v237q0 45 -20 76.5t-58 40.5v4q32 4 55 32.5t23 82.5v232h147v76h-165q-40 0 -59 -22.5t-19 -56.5v-226q0 -39 -18.5 -61t-44.5 -22h-28v-80h28q26 0 44.5 -21t18.5 -60v-228q0 -34 19 -56.5t59 -22.5z" />
    <glyph glyph-name="braceright.case" horiz-adv-x="383" 
d="M9 -63h166q40 0 59 22.5t19 56.5v228q0 39 19 60t44 21h27v80h-27q-26 0 -44.5 22t-18.5 61v226q0 34 -19 56.5t-59 22.5h-166v-76h147v-232q0 -54 23 -82.5t55 -32.5v-4q-37 -9 -57.5 -40.5t-20.5 -76.5v-237h-147v-75z" />
    <glyph glyph-name="bracketleft.case" horiz-adv-x="341" 
d="M88 -63h244v75h-147v705h147v76h-244v-856z" />
    <glyph glyph-name="bracketright.case" horiz-adv-x="341" 
d="M9 -63h244v856h-244v-76h147v-705h-147v-75z" />
    <glyph glyph-name="M.BRACKET.300" horiz-adv-x="920" 
d="M88 0h107v340l-2 274h7l215 -614h91l215 614h7l-3 -273v-341h106v729h-166l-203 -558h-4l-203 558h-167v-729z" />
    <glyph glyph-name="a.ss01.BRACKET.300" horiz-adv-x="562" 
d="M210 -9q64 0 112.5 27.5t64.5 72.5h4v-18q0 -41 23.5 -61.5t65.5 -20.5q16 0 34 4t30 14v66q-12 -10 -28 -10q-13 0 -20 8.5t-7 29.5v244q0 99 -57 145t-155 46q-102 0 -163 -45.5t-63 -125.5h97q1 40 32.5 64.5t90.5 24.5q61 0 88 -29t27 -76v-45h-138
q-93 0 -152.5 -40.5t-59.5 -124.5q0 -67 48 -108.5t126 -41.5zM248 71q-52 0 -80 22t-28 62q0 45 32.5 67.5t92.5 22.5h121v-58q0 -52 -37 -84t-101 -32z" />
    <glyph glyph-name="cent.BRACKET.500" horiz-adv-x="572" 
d="M252 -85h69v77q89 7 147 60t64 137h-100q-5 -45 -34.5 -74.5t-76.5 -35.5v370q42 -5 71.5 -31.5t37.5 -71.5h100q-4 54 -31.5 95.5t-73 66t-104.5 28.5v76h-69v-79q-98 -15 -155 -87t-57 -182q0 -111 57.5 -183.5t154.5 -86.5v-79zM144 263q0 71 28 119t80 63v-362
q-50 14 -79 60t-29 120z" />
    <glyph glyph-name="dollar.BRACKET.500" horiz-adv-x="640" 
d="M282 -85h75v77q117 8 178 65t61 144q0 63 -19.5 102.5t-53.5 62.5t-77 35t-89 21v228q48 -9 76.5 -40.5t30.5 -85.5h110q-1 88 -58 144.5t-159 66.5v79h-75v-78q-105 -8 -164.5 -63t-59.5 -143q0 -63 26.5 -102t77 -61.5t120.5 -35.5v-252q-66 9 -97 48.5t-32 100.5h-111
q1 -97 60.5 -161.5t179.5 -73.5v-78zM170 544q0 44 29.5 72.5t82.5 35.5v-215q-60 15 -86 37t-26 70zM484 191q0 -51 -34.5 -79t-92.5 -34v237q70 -16 98.5 -42.5t28.5 -81.5z" />
    <glyph glyph-name="e.BRACKET.300" horiz-adv-x="569" 
d="M292 -9q63 0 113.5 21.5t82.5 60t39 90.5h-98q-10 -41 -46.5 -66.5t-90.5 -25.5q-69 0 -110.5 45.5t-43.5 127.5h392q8 84 -17 150t-81.5 104.5t-143.5 38.5q-77 0 -134 -34t-87.5 -95.5t-30.5 -145.5q0 -81 31 -142t88.5 -95t136.5 -34zM287 458q63 0 102 -37t40 -110
h-290q5 68 44.5 107.5t103.5 39.5z" />
    <glyph glyph-name="f.BRACKET.200" horiz-adv-x="338" 
d="M108 0h103v445h116v84h-116v70q0 26 12.5 42t47.5 16h67v72h-94q-63 0 -99.5 -31t-36.5 -91v-78h-96v-84h96v-445z" />
    <glyph glyph-name="s.BRACKET.300" horiz-adv-x="512" 
d="M257 -10q98 0 158 42t60 120t-49 110.5t-141 45.5q-70 10 -101.5 26t-31.5 55q0 34 27.5 54t76.5 20t78 -21t30 -69h101q-1 76 -56.5 121t-150.5 45q-94 0 -151.5 -44t-57.5 -116q0 -74 49.5 -106.5t149.5 -46.5q66 -10 94.5 -26t28.5 -57q0 -37 -28.5 -57.5t-83.5 -20.5
q-54 0 -88 24.5t-34 76.5h-102q0 -79 59 -127.5t163 -48.5z" />
    <glyph glyph-name="w.BRACKET.300" horiz-adv-x="748" 
d="M141 0h134l95 398h4l98 -398h135l135 529h-101l-104 -427h-3l-101 427h-114l-98 -426h-5l-104 426h-106z" />
    </font>
</defs>
</svg>
