<?xml version="1.0" standalone="no"?>
<!DOCTYPE svg PUBLIC "-//W3C//DTD SVG 1.1//EN" "http://www.w3.org/Graphics/SVG/1.1/DTD/svg11.dtd" >
<svg xmlns="http://www.w3.org/2000/svg" xmlns:xlink="http://www.w3.org/1999/xlink" version="1.1">
<metadata>
Created by FontForge 20201107 at Thu Aug 11 23:52:00 2022
 By 
Copyright (c) 2017 by Deni Anggara. All rights reserved.
</metadata>
<defs>
<font id="Mona-Sans-Light" horiz-adv-x="871" >
  <font-face 
    font-family="Mona-Sans Light"
    font-weight="300"
    font-stretch="normal"
    units-per-em="1000"
    panose-1="0 0 0 0 0 0 0 0 0 0"
    ascent="800"
    descent="-200"
    x-height="521"
    cap-height="729"
    bbox="-217 -217 1141 993"
    underline-thickness="50"
    underline-position="-125"
    unicode-range="U+000D-FB02"
  />
<missing-glyph horiz-adv-x="865" 
d="M432 738q-79 0 -148.5 -29.5t-122 -82t-82 -122t-29.5 -148.5q0 -85 33.5 -158.5t92.5 -127t136 -78.5q11 -3 18 2t7 16v70q-40 -8 -65.5 -2.5t-39.5 17t-19.5 21.5l-5.5 10q-12 34 -26 45l-14 11q-17 12 -15.5 17t9 6l7.5 1q19 -1 32.5 -11.5t20.5 -20l7 -9.5
q16 -29 37.5 -36t41.5 -3t30 8q3 18 10.5 31.5t15.5 20.5q-32 4 -63.5 13.5t-56.5 30t-40 56t-15 90.5q0 30 10.5 56t29.5 45q-3 8 -7.5 35t11.5 67l11 0.5t34 -7t59 -33.5q24 8 48 11t48 3q25 0 49 -3t48 -11q37 26 59.5 33.5t33.5 7l11 -0.5q17 -40 12 -67t-8 -35
q19 -19 29.5 -45t10.5 -56q0 -56 -15 -91.5t-40 -56t-56.5 -29.5t-63.5 -13q10 -8 18 -26.5t8 -44.5v-105q0 -11 7.5 -16t19.5 -2q76 25 134.5 78.5t92 127t33.5 158.5q0 79 -29.5 148.5t-82 122t-122 82t-149.5 29.5zM196 189q0 3 -5 3q-2 3 -4 2.5t-2 -2.5q-1 -2 3 -5
q7 -2 8 2zM209 171q2 1 0 8q-4 4 -9 1q-3 -3 2 -8l4 -2t3 1zM227 148q2 3 0 10q-6 6 -11 3q-1 -1 -1 -4.5t1 -5.5q2 -2 5.5 -3t5.5 0zM246 127q3 3 -2 10q-5 5 -10 2q-3 -4 3 -10q4 -7 9 -2zM274 115q0 6 -5 8q-8 3 -10 -3q0 -5 5 -8q8 -2 10 3zM334 118q0 2 -2.5 3.5
t-5.5 0.5q-4 0 -6 -2.5t-1 -4.5q0 -4 8 -4q3 1 6 3t1 4zM305 114q0 4 -7 4t-7 -4q0 -2 2 -5.5t5 -3.5q7 4 7 9z" />
    <glyph glyph-name="fl" unicode="fl" horiz-adv-x="559" 
d="M119 0h59v472h241v-472h59v729h-59v-208h-241v92q0 32 13 50.5t53 18.5h69v47h-80q-52 0 -83 -27t-31 -82v-99h-104v-49h104v-472z" />
    <glyph glyph-name="f_f.liga" unicode="ff" horiz-adv-x="598" 
d="M119 0h59v472h227v-472h59v472h123v49h-123v92q0 32 13 50.5t53 18.5h69v47h-80q-52 0 -83 -27t-31 -82v-99h-227v92q0 32 13 50.5t53 18.5h69v47h-80q-52 0 -83 -27t-31 -82v-99h-104v-49h104v-472z" />
    <glyph glyph-name="t_t.liga" unicode="tt" horiz-adv-x="619" 
d="M206 0h94v51h-77q-28 0 -38.5 10t-10.5 39v372h228v-383q0 -46 20.5 -67.5t69.5 -21.5h94v51h-77q-28 0 -38.5 10t-10.5 39v372h126v49h-126v170l-58 -10v-160h-228v170l-58 -10v-160h-105v-49h105v-383q0 -46 20.5 -67.5t69.5 -21.5z" />
    <glyph glyph-name=".notdef" horiz-adv-x="865" 
d="M432 738q-79 0 -148.5 -29.5t-122 -82t-82 -122t-29.5 -148.5q0 -85 33.5 -158.5t92.5 -127t136 -78.5q11 -3 18 2t7 16v70q-40 -8 -65.5 -2.5t-39.5 17t-19.5 21.5l-5.5 10q-12 34 -26 45l-14 11q-17 12 -15.5 17t9 6l7.5 1q19 -1 32.5 -11.5t20.5 -20l7 -9.5
q16 -29 37.5 -36t41.5 -3t30 8q3 18 10.5 31.5t15.5 20.5q-32 4 -63.5 13.5t-56.5 30t-40 56t-15 90.5q0 30 10.5 56t29.5 45q-3 8 -7.5 35t11.5 67l11 0.5t34 -7t59 -33.5q24 8 48 11t48 3q25 0 49 -3t48 -11q37 26 59.5 33.5t33.5 7l11 -0.5q17 -40 12 -67t-8 -35
q19 -19 29.5 -45t10.5 -56q0 -56 -15 -91.5t-40 -56t-56.5 -29.5t-63.5 -13q10 -8 18 -26.5t8 -44.5v-105q0 -11 7.5 -16t19.5 -2q76 25 134.5 78.5t92 127t33.5 158.5q0 79 -29.5 148.5t-82 122t-122 82t-149.5 29.5zM196 189q0 3 -5 3q-2 3 -4 2.5t-2 -2.5q-1 -2 3 -5
q7 -2 8 2zM209 171q2 1 0 8q-4 4 -9 1q-3 -3 2 -8l4 -2t3 1zM227 148q2 3 0 10q-6 6 -11 3q-1 -1 -1 -4.5t1 -5.5q2 -2 5.5 -3t5.5 0zM246 127q3 3 -2 10q-5 5 -10 2q-3 -4 3 -10q4 -7 9 -2zM274 115q0 6 -5 8q-8 3 -10 -3q0 -5 5 -8q8 -2 10 3zM334 118q0 2 -2.5 3.5
t-5.5 0.5q-4 0 -6 -2.5t-1 -4.5q0 -4 8 -4q3 1 6 3t1 4zM305 114q0 4 -7 4t-7 -4q0 -2 2 -5.5t5 -3.5q7 4 7 9z" />
    <glyph glyph-name=".null" horiz-adv-x="0" 
 />
    <glyph glyph-name="nonmarkingreturn" horiz-adv-x="333" 
 />
    <glyph glyph-name="CR" unicode="&#xd;" horiz-adv-x="241" 
 />
    <glyph glyph-name="space" unicode=" " horiz-adv-x="234" 
 />
    <glyph glyph-name="exclam" unicode="!" horiz-adv-x="236" 
d="M102 192h31l16 300v237h-61v-237zM87 0h62v76h-62v-76z" />
    <glyph glyph-name="quotedbl" unicode="&#x22;" horiz-adv-x="356" 
d="M106 438l12 160v131h-53v-131l12 -160h29zM280 438l11 160v131h-53v-131l13 -160h29z" />
    <glyph glyph-name="numbersign" unicode="#" horiz-adv-x="648" 
d="M161 0h52v215h227v-215h52v215h121v46h-121v228h121v45h-121v195h-52v-195h-227v195h-52v-195h-126v-45h126v-228h-126v-46h126v-215zM213 261v228h227v-228h-227z" />
    <glyph glyph-name="dollar" unicode="$" horiz-adv-x="629" 
d="M291 -85h47v77q116 5 178 58.5t62 139.5q0 60 -19 98t-52.5 60.5t-77 35t-91.5 21.5v280q70 -7 110.5 -47.5t42.5 -110.5h64q-2 89 -57.5 145.5t-159.5 63.5v78h-47v-77q-105 -5 -164.5 -57.5t-59.5 -136.5q0 -60 26 -96.5t76 -57.5t122 -36v-309q-89 6 -131.5 54.5
t-44.5 127.5h-64q1 -98 59.5 -162t180.5 -71v-78zM132 551q0 59 41.5 95.5t117.5 40.5v-272q-57 12 -92 27.5t-51 41t-16 67.5zM514 186q0 -69 -48.5 -104t-127.5 -38v299q64 -13 103 -32t56 -48.5t17 -76.5z" />
    <glyph glyph-name="percent" unicode="%" horiz-adv-x="845" 
d="M165 0h53l462 729h-54zM187 324q62 0 101 52t39 149q0 96 -38 148t-102 52t-103 -51t-39 -149q0 -96 38.5 -148.5t103.5 -52.5zM187 366q-43 0 -68 38.5t-25 120.5q0 81 25 119.5t68 38.5q42 0 66.5 -38t24.5 -120t-24.5 -120.5t-66.5 -38.5zM659 -5q63 0 102 51.5
t39 148.5t-38 149.5t-102 52.5t-103 -51.5t-39 -148.5t38.5 -149.5t102.5 -52.5zM660 37q-44 0 -68.5 38.5t-24.5 120.5t24.5 120t68.5 38q41 0 65.5 -38t24.5 -120t-24.5 -120.5t-65.5 -38.5z" />
    <glyph glyph-name="ampersand" unicode="&#x26;" horiz-adv-x="706" 
d="M272 -10q71 0 132.5 27.5t101.5 84.5l91 -102h71l-129 143q21 37 34 91t17 101h107v45h-154q-1 -48 -10.5 -104t-28.5 -94l-190 213v4q71 25 117.5 73t46.5 115q0 45 -21 79t-57 53.5t-82 19.5q-79 0 -126 -45t-47 -114q0 -50 23.5 -89.5t64.5 -84.5q-87 -37 -131 -95.5
t-44 -127.5q0 -64 29.5 -107t78.5 -64.5t106 -21.5zM281 429q-34 39 -56.5 72.5t-22.5 76.5q0 47 29.5 79.5t84.5 32.5q50 0 79.5 -30.5t29.5 -77.5q0 -53 -38.5 -91.5t-101.5 -61.5h-4zM117 188q0 59 38 107.5t108 77.5l209 -233q-29 -45 -77.5 -72t-114.5 -27
q-69 0 -116 37t-47 110z" />
    <glyph glyph-name="quotesingle" unicode="'" horiz-adv-x="183" 
d="M106 438l12 160v131h-53v-131l12 -160h29z" />
    <glyph glyph-name="parenleft" unicode="(" horiz-adv-x="322" 
d="M237 -167h55q-54 50 -94.5 125t-63 166t-22.5 189q0 93 21.5 183t61.5 167t97 130h-55q-58 -53 -99 -130t-62.5 -166.5t-21.5 -183.5q0 -93 21.5 -183t62.5 -167t99 -130z" />
    <glyph glyph-name="parenright" unicode=")" horiz-adv-x="322" 
d="M85 793h-55q54 -50 94.5 -125t63 -166t22.5 -189q0 -93 -21.5 -183t-61.5 -167t-97 -130h55q58 53 99 130t62.5 166.5t21.5 183.5q0 93 -21.5 183t-62.5 167t-99 130z" />
    <glyph glyph-name="asterisk" unicode="*" horiz-adv-x="324" 
d="M144 452h35v56l-9 67l55 -40l49 -29l17 31l-49 28l-59 26l59 26l48 27l-16 30l-49 -27l-55 -39l9 66v55h-35v-55l10 -66l-54 39l-49 27l-17 -30l48 -27l60 -26l-60 -26l-49 -28l18 -31l49 29l54 40l-10 -67v-56z" />
    <glyph glyph-name="plus" unicode="+" horiz-adv-x="547" 
d="M248 122h51v215h213v48h-213v215h-51v-215h-213v-48h213v-215z" />
    <glyph glyph-name="comma" unicode="," horiz-adv-x="182" 
d="M42 -150h14q33 3 49.5 23.5t16.5 63.5v139h-64v-76h29v-57q0 -24 -7.5 -39t-28.5 -17l-9 -1v-36z" />
    <glyph glyph-name="hyphen" unicode="-" horiz-adv-x="333" 
d="M30 235h273v51h-273v-51z" />
    <glyph glyph-name="period" unicode="." horiz-adv-x="185" 
d="M60 0h65v76h-65v-76z" />
    <glyph glyph-name="slash" unicode="/" horiz-adv-x="459" 
d="M30 -81h59l319 810h-57z" />
    <glyph glyph-name="zero" unicode="0" horiz-adv-x="577" 
d="M290 -9q74 0 129.5 42t86.5 124t31 203q0 181 -68 275t-179 94q-113 0 -182 -93.5t-69 -274.5t69.5 -275.5t181.5 -94.5zM289 43q-91 0 -140 81.5t-49 235.5q0 156 49 236.5t140 80.5q90 0 139.5 -81t49.5 -236q0 -154 -49.5 -235.5t-139.5 -81.5z" />
    <glyph glyph-name="one" unicode="1" horiz-adv-x="375" 
d="M204 0h59v721h-59q-4 -52 -35.5 -83.5t-105.5 -31.5h-26v-46h167v-560z" />
    <glyph glyph-name="two" unicode="2" horiz-adv-x="556" 
d="M47 0h457v53h-388q5 48 34 86t72 71.5t90 66t88.5 69t67.5 81t26 101.5q0 59 -27 104.5t-76 71.5t-115 26q-69 0 -121 -27.5t-80.5 -77.5t-26.5 -116h57q-4 77 43.5 123t123.5 46q73 0 117 -42t44 -111q0 -45 -21 -80.5t-55.5 -65.5t-75.5 -59t-82 -59t-75.5 -65.5
t-55.5 -79.5t-21 -101v-15z" />
    <glyph glyph-name="three" unicode="3" horiz-adv-x="566" 
d="M274 -8q71 0 124.5 25.5t83 72t29.5 107.5q0 68 -35 115t-98 60v5q55 17 88 60.5t33 107.5q0 83 -59.5 134t-161.5 51q-70 0 -121.5 -28t-79 -79t-26.5 -120h56q-1 79 43 127t126 48q73 0 117 -36t44 -102q0 -60 -38.5 -101.5t-112.5 -41.5h-69v-48h70q73 0 117.5 -36.5
t44.5 -111.5q0 -72 -48 -114.5t-128 -42.5q-79 0 -126.5 49t-45.5 128h-57q-1 -69 27 -120.5t80 -80t123 -28.5z" />
    <glyph glyph-name="four" unicode="4" horiz-adv-x="617" 
d="M419 0h59v190h103v50h-103v481h-86l-342 -482v-49h369v-190zM114 240l305 429v-429h-305z" />
    <glyph glyph-name="five" unicode="5" horiz-adv-x="587" 
d="M288 -8q74 0 129 30.5t85.5 86t30.5 128.5q0 71 -28.5 125t-80 84t-121.5 30q-58 0 -103.5 -23.5t-69.5 -61.5l-4 1l13 277h360v52h-413l-15 -392h56q20 43 62.5 69.5t102.5 26.5q80 0 129 -50t49 -141q0 -85 -47.5 -137t-133.5 -52q-81 0 -129 48t-46 127h-58
q0 -68 28.5 -119.5t81 -80t122.5 -28.5z" />
    <glyph glyph-name="six" unicode="6" horiz-adv-x="578" 
d="M294 -8q70 0 123.5 29t84 82.5t30.5 127.5q0 71 -28 124t-78 82.5t-116 29.5q-76 0 -129 -38.5t-70 -100.5h-3q1 76 9 140t29 110.5t59.5 72.5t100.5 26q65 0 109.5 -33.5t51.5 -95.5h56q-7 84 -64.5 133t-152.5 49q-130 0 -193 -98t-63 -311q0 -156 59.5 -242.5
t184.5 -86.5zM297 45q-79 0 -127.5 48.5t-48.5 133.5q0 54 21 97t61 68.5t95 25.5q77 0 124.5 -49t47.5 -135t-47.5 -137.5t-125.5 -51.5z" />
    <glyph glyph-name="seven" unicode="7" horiz-adv-x="570" 
d="M207 0h63q0 116 20 210t54.5 174t79 152.5t93.5 143.5v41h-474v-208h50v156h353q-46 -69 -89 -140.5t-77 -151t-53.5 -172.5t-19.5 -205z" />
    <glyph glyph-name="eight" unicode="8" horiz-adv-x="590" 
d="M295 -8q75 0 131 24.5t87 69t31 103.5q0 67 -39.5 116t-119.5 56v3q52 7 84.5 32.5t48.5 62.5t16 78q0 58 -29.5 101t-83 67t-126.5 24q-72 0 -125 -23.5t-82.5 -66t-29.5 -100.5q0 -63 36.5 -113.5t112.5 -61.5v-3q-53 -6 -89 -31.5t-54 -63t-18 -79.5q0 -59 31 -103
t87.5 -68t130.5 -24zM295 388q-91 0 -133 42t-42 103q0 67 47 106t128 39q80 0 128.5 -38.5t48.5 -106.5q0 -39 -17.5 -72t-56.5 -53t-103 -20zM295 45q-82 0 -132.5 40t-50.5 111q0 38 19 69.5t59.5 51t104.5 19.5q96 0 140.5 -40t44.5 -100q0 -69 -49.5 -110t-135.5 -41z
" />
    <glyph glyph-name="nine" unicode="9" horiz-adv-x="576" 
d="M279 -8q81 0 136.5 37.5t83.5 126.5t28 242q0 158 -60 245t-185 87q-70 0 -123.5 -29t-84 -82.5t-30.5 -127.5q0 -71 28 -124t78 -82t115 -29q79 0 131 38.5t69 99.5h4q-1 -78 -8 -142t-26.5 -110.5t-56.5 -72t-98 -25.5q-68 0 -110.5 35t-49.5 95h-55q7 -83 64.5 -132.5
t149.5 -49.5zM277 304q-76 0 -124 49.5t-48 134.5q0 86 48 137.5t126 51.5q80 0 128.5 -48.5t48.5 -132.5q0 -54 -21.5 -97.5t-61.5 -69t-96 -25.5z" />
    <glyph glyph-name="colon" unicode=":" horiz-adv-x="185" 
d="M60 445h65v76h-65v-76zM60 0h65v76h-65v-76z" />
    <glyph glyph-name="semicolon" unicode=";" horiz-adv-x="182" 
d="M58 445h64v76h-64v-76zM42 -150h14q33 3 49.5 23.5t16.5 63.5v139h-64v-76h29v-57q0 -24 -7.5 -39t-28.5 -17l-9 -1v-36z" />
    <glyph glyph-name="less" unicode="&#x3c;" horiz-adv-x="686" 
d="M586 125v58l-429 175v5l429 176v58l-485 -202v-68z" />
    <glyph glyph-name="equal" unicode="=" horiz-adv-x="667" 
d="M95 448h477v49h-477v-49zM95 225h477v49h-477v-49z" />
    <glyph glyph-name="greater" unicode="&#x3e;" horiz-adv-x="686" 
d="M101 125l485 202v68l-485 202v-58l429 -176v-5l-429 -175v-58z" />
    <glyph glyph-name="question" unicode="?" horiz-adv-x="531" 
d="M248 177h56v19q0 40 18 72t44 62t52 61.5t44 70t18 88.5q0 85 -53.5 136.5t-154.5 51.5q-67 0 -117 -26.5t-77 -74t-27 -111.5h58q-1 70 41.5 115.5t118.5 45.5q68 0 109 -34.5t41 -105.5q0 -45 -17.5 -80t-42.5 -65t-50.5 -60t-43 -65.5t-17.5 -81.5v-18zM244 0h65v76
h-65v-76z" />
    <glyph glyph-name="at" unicode="@" horiz-adv-x="891" 
d="M456 -101q41 0 86 8t85.5 24t69.5 40l-17 37q-40 -31 -98 -49t-127 -18q-115 0 -196 49t-123.5 133.5t-42.5 192.5q0 112 44.5 197.5t126.5 134t194 48.5q102 0 179 -41t120 -115.5t43 -175.5q0 -64 -17 -113.5t-47 -77.5t-69 -28q-77 0 -70 113l17 246h-38l-9 -86h-3
q-12 47 -44.5 72.5t-75.5 25.5q-47 0 -83.5 -28t-57 -77.5t-20.5 -115.5q0 -64 20.5 -106t53.5 -62.5t72 -20.5q40 0 77 26.5t54 82.5h4q2 -52 28.5 -81t75.5 -29q54 0 94.5 34t62.5 93t22 135q0 111 -49.5 194.5t-137 130t-201.5 46.5q-123 0 -216.5 -53.5t-146 -149
t-52.5 -222.5q0 -124 52 -217.5t144.5 -145t215.5 -51.5zM434 148q-48 0 -76.5 37.5t-28.5 111.5q0 79 31.5 129.5t90.5 50.5q49 0 78 -39.5t32 -115.5q-4 -77 -37.5 -125.5t-89.5 -48.5z" />
    <glyph glyph-name="A" unicode="A" horiz-adv-x="645" 
d="M6 0h65l71 190h362l71 -190h65l-275 729h-84zM159 240l101 264l61 166h5l61 -166l99 -264h-327z" />
    <glyph glyph-name="B" unicode="B" horiz-adv-x="695" 
d="M98 0h311q111 0 175.5 54t64.5 148q0 63 -36 111t-107 61v4q64 15 94 61t30 104q0 83 -56.5 134.5t-159.5 51.5h-316v-729zM159 399v278h246q74 0 118.5 -37.5t44.5 -105.5q0 -61 -38 -98t-112 -37h-259zM159 53v295h262q78 0 121 -37.5t43 -105.5q0 -67 -45 -109.5
t-134 -42.5h-247z" />
    <glyph glyph-name="C" unicode="C" horiz-adv-x="760" 
d="M393 -8q88 0 157 30.5t112.5 86.5t53.5 131l-63 1q-15 -88 -84 -141t-176 -53q-88 0 -151.5 39t-98 110t-34.5 168t34.5 168t98 110t151.5 39q107 0 175.5 -53t84.5 -137h63q-12 75 -56 130t-112 85t-155 30q-104 0 -183 -46t-122.5 -129.5t-43.5 -196.5
q0 -112 43.5 -195.5t122 -130t183.5 -46.5z" />
    <glyph glyph-name="D" unicode="D" horiz-adv-x="744" 
d="M98 0h278q102 0 174.5 45t111 127t38.5 192t-38.5 192t-111 127.5t-174.5 45.5h-278v-729zM160 56v618h210q122 0 194 -80t72 -229q0 -145 -71 -227t-195 -82h-210z" />
    <glyph glyph-name="E" unicode="E" horiz-adv-x="642" 
d="M98 0h491v56h-429v292h381v52h-381v274h429v55h-491v-729z" />
    <glyph glyph-name="F" unicode="F" horiz-adv-x="619" 
d="M98 0h62v336h387v54h-387v284h427v55h-489v-729z" />
    <glyph glyph-name="G" unicode="G" horiz-adv-x="786" 
d="M396 -8q104 0 181.5 41.5t120.5 119t43 183.5v35h-328v-51h264q-2 -87 -37.5 -148t-98 -93t-144.5 -32q-88 0 -153.5 39t-101 110.5t-35.5 168.5t36 167.5t101.5 109t153.5 38.5q66 0 121 -22t92.5 -64t48.5 -103h63q-10 74 -54.5 129t-114 85.5t-156.5 30.5
q-105 0 -185 -46t-124.5 -129.5t-44.5 -196.5q0 -111 43 -194.5t122.5 -130.5t186.5 -47z" />
    <glyph glyph-name="H" unicode="H" horiz-adv-x="793" 
d="M98 0h62v342h473v-342h62v729h-62v-331h-473v331h-62v-729z" />
    <glyph glyph-name="I" unicode="I" horiz-adv-x="258" 
d="M98 0h62v729h-62v-729z" />
    <glyph glyph-name="J" unicode="J" horiz-adv-x="389" 
d="M107 -8q86 0 135 42.5t49 136.5v558h-61v-551q0 -71 -34.5 -101.5t-96.5 -30.5q-52 0 -84 21v-54q16 -9 40 -15t52 -6z" />
    <glyph glyph-name="K" unicode="K" horiz-adv-x="670" 
d="M98 0h62v232l143 149l267 -381h74l-299 425l292 304h-78l-399 -419v419h-62v-729z" />
    <glyph glyph-name="L" unicode="L" horiz-adv-x="540" 
d="M98 0h432v57h-370v672h-62v-729z" />
    <glyph glyph-name="M" unicode="M" horiz-adv-x="905" 
d="M98 0h61v393l-2 269h6l263 -662h53l263 662h7l-3 -268v-394h61v729h-97l-257 -639h-2l-256 639h-97v-729z" />
    <glyph glyph-name="N" unicode="N" horiz-adv-x="786" 
d="M98 0h62v407l-3 243h5l447 -650h79v729h-61v-397l5 -255h-6l-447 652h-81v-729z" />
    <glyph glyph-name="O" unicode="O" horiz-adv-x="794" 
d="M397 -8q106 0 185.5 45.5t123.5 129t44 197.5q0 113 -43.5 196.5t-123 129.5t-186.5 46q-106 0 -185.5 -45.5t-123.5 -129t-44 -197.5q0 -112 43.5 -196t123 -130t186.5 -46zM397 47q-89 0 -153.5 39t-99.5 110.5t-35 167.5q0 97 34.5 168t99.5 110t154 39t154 -39
t100 -110t35 -168q0 -96 -35 -167t-99.5 -110.5t-154.5 -39.5z" />
    <glyph glyph-name="P" unicode="P" horiz-adv-x="652" 
d="M98 0h62v282l213 -1q77 0 132.5 27.5t86 78t30.5 118.5q0 107 -67 165.5t-181 58.5h-276v-729zM367 673q90 0 141 -44t51 -125q0 -79 -50.5 -125t-141.5 -45l-207 1v338h207z" />
    <glyph glyph-name="Q" unicode="Q" horiz-adv-x="794" 
d="M648 -168h10v59l-191 108q87 15 150.5 63.5t98 125.5t34.5 176q0 113 -43.5 196.5t-123 129.5t-186.5 46q-106 0 -185.5 -45.5t-123.5 -129t-44 -197.5q0 -112 43.5 -195.5t122.5 -129.5t185 -47zM397 47q-89 0 -153.5 39t-99.5 110.5t-35 167.5q0 97 34.5 168t99.5 110
t154 39t154 -39t100 -110t35 -168q0 -96 -35 -167t-99.5 -110.5t-154.5 -39.5z" />
    <glyph glyph-name="R" unicode="R" horiz-adv-x="706" 
d="M98 0h62v322h260q59 0 91 -14.5t44.5 -42.5t12.5 -71v-116q0 -24 2 -43t9 -35h63q-9 20 -10.5 38.5t-1.5 36.5v130q0 63 -26 99.5t-88 46.5v7q65 18 97.5 64.5t32.5 113.5q0 92 -58.5 142.5t-169.5 50.5h-320v-729zM160 375v299h250q78 0 125.5 -34.5t47.5 -110.5
q0 -67 -40 -110.5t-133 -43.5h-250z" />
    <glyph glyph-name="S" unicode="S" horiz-adv-x="650" 
d="M328 -8q131 0 200.5 54.5t69.5 143.5q0 60 -20 98t-54.5 60.5t-79.5 35t-96 21.5q-77 15 -124.5 30.5t-69 42t-21.5 73.5q0 62 47.5 98.5t135.5 36.5q89 0 140.5 -40.5t53.5 -118.5h64q-2 95 -67 152.5t-187 57.5q-118 0 -185 -53t-67 -141q0 -62 28.5 -99t84.5 -58.5
t139 -36.5q77 -14 124 -32t68.5 -48.5t21.5 -82.5q0 -73 -57 -108t-150 -35q-108 0 -158.5 49t-53.5 134h-64q1 -68 31 -121t91 -83t155 -30z" />
    <glyph glyph-name="T" unicode="T" horiz-adv-x="568" 
d="M253 0h61v673h244v56h-548v-56h243v-673z" />
    <glyph glyph-name="U" unicode="U" horiz-adv-x="756" 
d="M378 -8q92 0 155.5 33.5t97 94.5t33.5 143v466h-61v-462q0 -100 -55 -159t-170 -59q-103 0 -163.5 54t-60.5 164v462h-62v-466q0 -127 76.5 -199t209.5 -72z" />
    <glyph glyph-name="V" unicode="V" horiz-adv-x="653" 
d="M284 0h85l277 729h-67l-211 -565l-39 -106h-6l-38 106l-210 565h-69z" />
    <glyph glyph-name="W" unicode="W" horiz-adv-x="923" 
d="M179 0h87l193 657h5l192 -657h88l169 729h-67l-99 -440l-47 -222h-6l-191 662h-83l-190 -661h-6l-48 221l-99 440h-67z" />
    <glyph glyph-name="X" unicode="X" horiz-adv-x="629" 
d="M-3 0h73l243 350h2l243 -350h74l-276 396l234 333h-71l-203 -293h-3l-203 293h-71l234 -334z" />
    <glyph glyph-name="Y" unicode="Y" horiz-adv-x="613" 
d="M274 0h62v296l272 433h-70l-230 -373h-4l-229 373h-71l270 -433v-296z" />
    <glyph glyph-name="Z" unicode="Z" horiz-adv-x="641" 
d="M44 0h554v56h-475l463 624v49h-527v-56h447l-462 -623v-50z" />
    <glyph glyph-name="bracketleft" unicode="[" horiz-adv-x="324" 
d="M98 -167h217v48h-161v864h161v48h-217v-960z" />
    <glyph glyph-name="backslash" unicode="\" horiz-adv-x="459" 
d="M370 -81h59l-321 810h-57z" />
    <glyph glyph-name="bracketright" unicode="]" horiz-adv-x="324" 
d="M226 793h-217v-48h161v-864h-161v-48h217v960z" />
    <glyph glyph-name="asciicircum" unicode="^" horiz-adv-x="395" 
d="M33 474h58l106 202l104 -202h60l-134 255h-61z" />
    <glyph glyph-name="underscore" unicode="_" horiz-adv-x="341" 
d="M0 -51h341v51h-341v-51z" />
    <glyph glyph-name="grave" unicode="`" horiz-adv-x="206" 
d="M122 744h44l-63 138h-63z" />
    <glyph glyph-name="a" unicode="a" horiz-adv-x="593" 
d="M259 -8q71 0 121 34.5t69 89.5h4v-116h59v521h-56l-3 -114h-4q-19 56 -69 89.5t-121 33.5q-64 0 -113 -32t-76.5 -92t-27.5 -145q0 -84 27.5 -144.5t76.5 -92.5t113 -32zM276 43q-78 0 -125.5 57t-47.5 161q0 106 47.5 162.5t125.5 56.5q57 0 96 -26.5t59.5 -68.5
t20.5 -90v-67q0 -48 -20.5 -90.5t-59.5 -68.5t-96 -26z" />
    <glyph glyph-name="b" unicode="b" horiz-adv-x="593" 
d="M334 -9q65 0 113.5 32t76 92.5t27.5 144.5q0 85 -27.5 145.5t-76 92.5t-113.5 32q-71 0 -120.5 -34t-69.5 -89h-4v322h-59v-729h56l3 114h4q20 -55 69.5 -89t120.5 -34zM317 42q-56 0 -96 26.5t-60.5 69t-20.5 89.5v67q0 48 20.5 90t60.5 68.5t96 26.5q78 0 125.5 -56.5
t47.5 -162.5q0 -105 -47.5 -161.5t-125.5 -56.5z" />
    <glyph glyph-name="c" unicode="c" horiz-adv-x="551" 
d="M288 -8q62 0 111 23t78.5 65t34.5 99h-58q-7 -61 -52 -98t-114 -37q-84 0 -135 57.5t-51 157.5q0 98 49.5 158t137.5 60q62 0 107.5 -32.5t55.5 -93.5h58q-6 53 -35.5 93t-76.5 62.5t-106 22.5q-76 0 -132 -34t-87 -94.5t-31 -141.5q0 -80 30.5 -140t86 -93.5
t129.5 -33.5z" />
    <glyph glyph-name="d" unicode="d" horiz-adv-x="593" 
d="M259 -8q71 0 121 34.5t69 89.5h4l2 -116h57v729h-59v-322h-4q-19 56 -69 89.5t-121 33.5q-64 0 -113 -32t-76.5 -92t-27.5 -145q0 -84 27.5 -144.5t76.5 -92.5t113 -32zM276 43q-78 0 -125.5 57t-47.5 161q0 106 47.5 162.5t125.5 56.5q57 0 96 -26.5t59.5 -68.5
t20.5 -90v-67q0 -48 -20.5 -90.5t-59.5 -68.5t-96 -26z" />
    <glyph glyph-name="e" unicode="e" horiz-adv-x="555" 
d="M285 -8q59 0 106.5 20t78.5 57t39 87h-58q-12 -52 -56.5 -82.5t-109.5 -30.5q-82 0 -132 54.5t-52 154.5h410q7 78 -16.5 141t-76.5 99.5t-135 36.5q-75 0 -129 -33.5t-83 -94.5t-29 -142q0 -80 29.5 -140.5t84.5 -93.5t129 -33zM282 478q47 0 85 -17.5t61.5 -55.5
t25.5 -100h-351q8 81 55.5 127t123.5 46z" />
    <glyph glyph-name="f" unicode="f" horiz-adv-x="333" 
d="M128 0h59v472h124v49h-124v88q0 31 13.5 50t53.5 19h69v51h-80q-52 0 -83.5 -27t-31.5 -82v-99h-104v-49h104v-472z" />
    <glyph glyph-name="g" unicode="g" horiz-adv-x="579" 
d="M274 -177q68 0 119.5 21t81 67t29.5 122v488h-58v-109h-5q-19 53 -67 85.5t-116 32.5q-64 0 -113 -30.5t-76 -87t-27 -133.5q0 -115 58 -182.5t156 -67.5q68 0 117 33t68 86h5v-116q0 -91 -46.5 -126.5t-125.5 -35.5q-59 0 -98 25t-47 68h-57q10 -66 63.5 -103t138.5 -37
zM272 78q-76 0 -122.5 53.5t-46.5 147.5q0 93 46 147t125 54q55 0 93 -25t58 -63.5t20 -79.5l1 -64q0 -41 -21 -80.5t-59.5 -64.5t-93.5 -25z" />
    <glyph glyph-name="h" unicode="h" horiz-adv-x="596" 
d="M81 0h58v279q0 58 22 102.5t62 70.5t93 26q74 0 109.5 -44.5t35.5 -139.5v-294h59v305q0 81 -24.5 130.5t-67 71.5t-96.5 22q-61 0 -112 -30.5t-77 -90.5h-4v321h-58v-729z" />
    <glyph glyph-name="i" unicode="i" horiz-adv-x="220" 
d="M81 614h59v115h-59v-115zM81 0h59v521h-59v-521z" />
    <glyph glyph-name="j" unicode="j" horiz-adv-x="213" 
d="M73 614h59v115h-59v-115zM-34 -176h57q57 0 83 29t26 81v587h-59v-581q0 -32 -13.5 -49t-48.5 -17h-45v-50z" />
    <glyph glyph-name="k" unicode="k" horiz-adv-x="543" 
d="M81 0h59v171l113 109l32 -51l155 -229h69l-214 321l203 200h-75l-235 -233l-48 -49v490h-59v-729z" />
    <glyph glyph-name="l" unicode="l" horiz-adv-x="220" 
d="M81 0h59v729h-59v-729z" />
    <glyph glyph-name="m" unicode="m" horiz-adv-x="964" 
d="M81 0h58v279q0 58 21.5 102.5t61 70.5t91.5 26q72 0 107 -44.5t35 -139.5v-294h59v279q0 58 21.5 102.5t60.5 70.5t91 26q74 0 108.5 -44.5t34.5 -139.5v-294h58v305q0 81 -23.5 130.5t-65 71.5t-95.5 22q-65 0 -117.5 -32.5t-76.5 -96.5h-8q-19 69 -65 99t-108 30
q-61 0 -111 -30.5t-75 -90.5h-4l-3 113h-55v-521z" />
    <glyph glyph-name="n" unicode="n" horiz-adv-x="596" 
d="M81 0h58v279q0 58 22 102.5t62 70.5t93 26q74 0 109.5 -44.5t35.5 -139.5v-294h59v305q0 81 -24.5 130.5t-67 71.5t-96.5 22q-61 0 -112 -30.5t-77 -90.5h-4l-3 113h-55v-521z" />
    <glyph glyph-name="o" unicode="o" horiz-adv-x="580" 
d="M291 -8q75 0 130.5 34t86 94.5t30.5 139.5q0 81 -31 141.5t-86.5 94t-129.5 33.5q-75 0 -131 -34t-87 -95t-31 -141t31 -140t87.5 -93.5t130.5 -33.5zM290 44q-86 0 -137 58.5t-51 156.5q0 102 52 160t137 58q87 0 136.5 -59t49.5 -158q0 -100 -51.5 -158t-135.5 -58z
" />
    <glyph glyph-name="p" unicode="p" horiz-adv-x="594" 
d="M81 -167h59v281h4q20 -55 70 -89t120 -34q65 0 114 32t76.5 92.5t27.5 144.5q0 85 -27.5 145.5t-76.5 92.5t-114 32q-70 0 -120 -34t-70 -89h-4l-2 114h-57v-688zM318 42q-57 0 -96.5 26.5t-60 69t-20.5 89.5v67q0 48 20.5 90t60 68.5t96.5 26.5q78 0 125.5 -56.5
t47.5 -162.5q0 -105 -47.5 -161.5t-125.5 -56.5z" />
    <glyph glyph-name="q" unicode="q" horiz-adv-x="593" 
d="M453 -167h59v688h-56l-3 -114h-4q-19 56 -69 89.5t-121 33.5q-64 0 -113 -32t-76.5 -92t-27.5 -145q0 -84 27.5 -144.5t76.5 -92.5t113 -32q71 0 121 34.5t69 89.5h4v-283zM276 43q-78 0 -125.5 57t-47.5 161q0 106 47.5 162.5t125.5 56.5q57 0 96 -26.5t59.5 -68.5
t20.5 -90v-67q0 -48 -20.5 -90.5t-59.5 -68.5t-96 -26z" />
    <glyph glyph-name="r" unicode="r" horiz-adv-x="353" 
d="M81 0h58v325q5 70 49.5 108t111.5 38h16.5t14.5 -1v56q-7 1 -14.5 1.5t-16.5 0.5q-55 0 -99 -28.5t-61 -79.5h-3l-4 101h-52v-521z" />
    <glyph glyph-name="s" unicode="s" horiz-adv-x="518" 
d="M261 -10q92 0 147.5 38.5t55.5 111.5q0 55 -25 85t-68 44t-97 22q-76 11 -112 31t-36 67q0 43 35 69.5t99 26.5q61 0 98 -27t38 -89h58q-1 75 -51.5 118.5t-142.5 43.5q-87 0 -140 -40t-53 -108q0 -48 23 -76.5t66 -43t104 -23.5q76 -11 110 -31.5t34 -73.5
q0 -47 -36.5 -73t-104.5 -26t-110.5 31t-42.5 95h-58q0 -77 54.5 -124.5t154.5 -47.5z" />
    <glyph glyph-name="t" unicode="t" horiz-adv-x="333" 
d="M206 0h94v51h-77q-28 0 -38.5 10t-10.5 39v372h126v49h-126v170l-58 -10v-160h-105v-49h105v-383q0 -46 20.5 -67.5t69.5 -21.5z" />
    <glyph glyph-name="u" unicode="u" horiz-adv-x="591" 
d="M265 -8q65 0 115.5 33t70.5 91h5l4 -116h55v521h-59v-274q0 -62 -22 -108t-61 -71t-90 -25q-79 0 -113.5 45.5t-34.5 128.5v304h-59v-317q0 -106 51.5 -159t137.5 -53z" />
    <glyph glyph-name="v" unicode="v" horiz-adv-x="451" 
d="M192 0h70l193 522h-64l-130 -365l-33 -101h-3l-34 101l-131 365h-64z" />
    <glyph glyph-name="w" unicode="w" horiz-adv-x="700" 
d="M150 0h78l119 447h3l124 -447h77l142 521h-58l-122 -462h-2l-127 462h-68l-121 -462h-3l-125 462h-60z" />
    <glyph glyph-name="x" unicode="x" horiz-adv-x="491" 
d="M-1 0h66l179 232h4l174 -232h69l-205 273l183 248h-67l-152 -208h-4l-155 208h-70l187 -250z" />
    <glyph glyph-name="y" unicode="y" horiz-adv-x="453" 
d="M28 -167h57q56 0 88 23.5t53 76.5l232 588h-61l-136 -355l-26 -69h-4l-27 69l-144 355h-64l210 -487l-34 -84q-13 -34 -34.5 -50.5t-59.5 -16.5h-50v-50z" />
    <glyph glyph-name="z" unicode="z" horiz-adv-x="483" 
d="M26 0h432v49h-359l348 427v45h-409v-49h336l-348 -428v-44z" />
    <glyph glyph-name="braceleft" unicode="{" horiz-adv-x="359" 
d="M186 -167h163v48h-160v322q0 44 -20.5 74t-52.5 34v4q29 2 51 29.5t22 76.5v324h160v48h-163q-27 0 -40 -15.5t-13 -39.5v-316q0 -41 -19.5 -63t-43.5 -22h-30v-51h30q24 0 43.5 -21.5t19.5 -62.5v-314q0 -24 13 -39.5t40 -15.5z" />
    <glyph glyph-name="bar" unicode="|" horiz-adv-x="254" 
d="M99 -67h56v796h-56v-796z" />
    <glyph glyph-name="braceright" unicode="}" horiz-adv-x="359" 
d="M173 793h-163v-48h160v-322q0 -44 20.5 -74t52.5 -34v-4q-29 -2 -51 -29.5t-22 -76.5v-324h-160v-48h163q27 0 40 15.5t13 39.5v316q0 41 19.5 63t43.5 22h30v51h-30q-24 0 -43.5 21.5t-19.5 62.5v314q0 24 -13 39.5t-40 15.5z" />
    <glyph glyph-name="asciitilde" unicode="~" horiz-adv-x="533" 
d="M96 296h39q-3 28 9 45t34 17t49 -12.5t57.5 -25.5t61.5 -13q26 0 48 11.5t34.5 38t9.5 70.5h-39q2 -63 -54 -63q-27 0 -54.5 12.5t-55.5 25t-57 12.5q-19 0 -39.5 -9.5t-33 -35t-9.5 -73.5z" />
    <glyph glyph-name="uni00A0" unicode="&#xa0;" horiz-adv-x="234" 
 />
    <glyph glyph-name="exclamdown" unicode="&#xa1;" horiz-adv-x="236" 
d="M134 328h-31l-16 -300v-237h61v237zM149 520h-62v-76h62v76z" />
    <glyph glyph-name="cent" unicode="&#xa2;" horiz-adv-x="558" 
d="M258 -85h43v77q88 3 146.5 53.5t66.5 133.5h-58q-6 -59 -48 -95.5t-107 -39.5v433q59 -3 100.5 -35.5t52.5 -90.5h57q-5 52 -33.5 91.5t-74 62t-102.5 24.5v76h-43v-78q-65 -8 -113.5 -43.5t-74.5 -93t-26 -131.5t26.5 -131t74.5 -92t113 -42v-79zM103 259q0 88 41 146
t114 70v-429q-71 11 -113 66.5t-42 146.5z" />
    <glyph glyph-name="sterling" unicode="&#xa3;" horiz-adv-x="592" 
d="M22 0h527v184h-54v-130h-329v282h226v50h-226v143q0 71 40 112.5t116 41.5q71 0 112.5 -39.5t41.5 -114.5v-24h57v29q0 95 -56.5 148.5t-154.5 53.5q-97 0 -156 -53.5t-59 -151.5v-145h-85v-50h85v-282h-85v-54z" />
    <glyph glyph-name="currency" unicode="&#xa4;" horiz-adv-x="573" 
d="M66 92l107 108q23 -16 52.5 -26t61.5 -10q31 0 60.5 9.5t51.5 27.5l108 -109l36 35l-107 108q20 23 30 52.5t10 60.5q0 34 -10.5 63.5t-28.5 52.5l106 107l-36 36l-108 -109q-23 17 -52 25.5t-60 8.5q-34 0 -62.5 -9t-50.5 -25l-108 109l-36 -36l106 -107
q-19 -22 -29.5 -52t-10.5 -64q0 -32 10.5 -61.5t28.5 -51.5l-105 -108zM287 215q-60 0 -98.5 38t-38.5 96q0 59 39 96.5t98 37.5q58 0 96.5 -37.5t38.5 -96.5q0 -58 -38 -96t-97 -38z" />
    <glyph glyph-name="yen" unicode="&#xa5;" horiz-adv-x="569" 
d="M256 0h58v148h186v47h-186v111h186v47h-157l221 376h-65l-213 -370h-4l-213 370h-65l223 -376h-160v-47h189v-111h-189v-47h189v-148z" />
    <glyph glyph-name="brokenbar" unicode="&#xa6;" horiz-adv-x="254" 
d="M99 412h56v317h-56v-317zM99 -67h56v317h-56v-317z" />
    <glyph glyph-name="dieresis" unicode="&#xa8;" horiz-adv-x="308" 
d="M40 766h56v116h-56v-116zM211 766h57v116h-57v-116z" />
    <glyph glyph-name="copyright" unicode="&#xa9;" horiz-adv-x="821" 
d="M33 363q0 -111 47.5 -195t132.5 -131t197 -47q113 0 198.5 47t133 131t47.5 195q0 112 -47.5 196t-133 130.5t-198.5 46.5q-112 0 -197 -46.5t-132.5 -130.5t-47.5 -196zM73 363q0 101 42.5 177t118.5 118.5t176 42.5q101 0 177.5 -42.5t119 -118.5t42.5 -177
q0 -100 -42.5 -176t-119 -118t-177.5 -42q-100 0 -176 42t-118.5 118t-42.5 176zM220 362q0 -60 24 -105.5t66.5 -71t99.5 -25.5q74 0 121.5 39.5t52.5 103.5h-49q-5 -47 -40 -73t-85 -26q-62 0 -101 42t-39 116q0 72 37.5 117t103.5 45q44 0 79 -23t44 -70h48
q-6 60 -52.5 98t-115.5 38q-58 0 -102 -25.5t-68 -71.5t-24 -108z" />
    <glyph glyph-name="ordfeminine" unicode="&#xaa;" horiz-adv-x="390" 
d="M167 384q43 0 75.5 20.5t46.5 57.5h2v-73h49v340h-46l-3 -72h-2q-13 36 -45 57t-77 21q-63 0 -102 -46t-39 -130q0 -83 39 -129t102 -46zM183 424q-49 0 -78 35.5t-29 99.5q0 66 29 101t78 35q35 0 58.5 -16.5t36 -42.5t12.5 -55v-43q0 -29 -12.5 -55t-36 -42.5
t-58.5 -16.5z" />
    <glyph glyph-name="guillemotleft" unicode="&#xab;" horiz-adv-x="401" 
d="M159 0h51l-117 261l117 260h-51l-122 -260zM320 0h52l-118 261l118 260h-52l-121 -260z" />
    <glyph glyph-name="logicalnot" unicode="&#xac;" horiz-adv-x="666" 
d="M523 151h48v250h-475v-48h427v-202z" />
    <glyph glyph-name="registered" unicode="&#xae;" horiz-adv-x="599" 
d="M298 228q74 0 132.5 32.5t92.5 90.5t34 132q0 75 -34 132.5t-92.5 90t-132.5 32.5q-72 0 -129.5 -32.5t-91.5 -90t-34 -132.5t33.5 -132.5t91.5 -90t130 -32.5zM299 259q-63 0 -113.5 28.5t-80 79t-29.5 115.5q0 66 29.5 117t80 80t113.5 29t113.5 -29t80 -79.5
t29.5 -116.5q0 -65 -29.5 -116t-80 -79.5t-113.5 -28.5zM205 361h42v92h74q23 0 31 -10t8 -27v-25q0 -15 0.5 -20t3.5 -10h43q-2 7 -2.5 14.5t-0.5 11.5v29q0 46 -40 55v1q20 6 32.5 22.5t12.5 41.5q0 38 -25.5 56t-63.5 18h-115v-249zM312 576q54 0 54 -44
q0 -22 -13.5 -34.5t-40.5 -12.5h-65v91h65z" />
    <glyph glyph-name="macron" unicode="&#xaf;" horiz-adv-x="409" 
d="M40 775h329v48h-329v-48z" />
    <glyph glyph-name="degree" unicode="&#xb0;" horiz-adv-x="399" 
d="M199 435q45 0 81 19t57 53t21 79q0 46 -21 79.5t-57 52.5t-81 19q-44 0 -80 -19t-57 -52.5t-21 -79.5q0 -45 21 -79t57 -53t80 -19zM199 482q-45 0 -76 29t-31 75q0 47 31 75.5t76 28.5q46 0 77 -28.5t31 -75.5q0 -46 -31 -75t-77 -29z" />
    <glyph glyph-name="plusminus" unicode="&#xb1;" horiz-adv-x="616" 
d="M283 167h51v192h216v49h-216v193h-51v-193h-216v-49h216v-192zM67 0h483v46h-483v-46z" />
    <glyph glyph-name="uni00B2" unicode="&#xb2;" horiz-adv-x="338" 
d="M27 326h281v42h-224q5 32 28.5 56.5t55 46.5t62.5 46t51.5 53.5t20.5 70.5q0 55 -36.5 89t-97.5 34q-63 0 -102.5 -37t-37.5 -98h45q-1 44 25 68.5t67 24.5q40 0 64.5 -22.5t24.5 -61.5q0 -29 -16.5 -52t-42 -42.5t-55 -39.5t-55 -43.5t-42 -53.5t-16.5 -71v-10z" />
    <glyph glyph-name="uni00B3" unicode="&#xb3;" horiz-adv-x="346" 
d="M167 321q66 0 106.5 34t40.5 90q0 43 -21.5 69.5t-56.5 34.5v3q30 9 50.5 34.5t20.5 65.5q0 51 -37 81.5t-99 30.5q-65 0 -104 -37t-38 -99h45q1 43 25.5 69t69.5 26q39 0 64 -19.5t25 -57.5q0 -33 -21.5 -55.5t-62.5 -22.5h-42v-37h44q39 0 64 -20.5t25 -61.5
q0 -40 -27 -63.5t-71 -23.5q-46 0 -71.5 28t-24.5 68h-46q-1 -61 37.5 -99t104.5 -38z" />
    <glyph glyph-name="acute" unicode="&#xb4;" horiz-adv-x="206" 
d="M40 744h45l81 138h-63z" />
    <glyph glyph-name="paragraph" unicode="&#xb6;" horiz-adv-x="694" 
d="M197 -151h58v826h195v-826h58v826h88v54h-399q-87 0 -137 -42.5t-50 -121.5q0 -77 48.5 -123.5t138.5 -45.5v-547z" />
    <glyph glyph-name="periodcentered" unicode="&#xb7;" horiz-adv-x="273" 
d="M60 277q0 -32 21.5 -53.5t55.5 -21.5q35 0 55 21.5t20 53.5t-20 53.5t-55 21.5q-34 0 -55.5 -21.5t-21.5 -53.5z" />
    <glyph glyph-name="cedilla" unicode="&#xb8;" horiz-adv-x="254" 
d="M125 -217q40 0 65 21t25 60q0 33 -20.5 54t-61.5 22v67h-40v-96h29q23 0 35.5 -12t12.5 -33t-13 -34t-34 -13q-19 0 -31 10.5t-14 25.5h-42q0 -33 24.5 -52.5t64.5 -19.5z" />
    <glyph glyph-name="uni00B9" unicode="&#xb9;" horiz-adv-x="234" 
d="M123 326h47v433h-46q-3 -32 -23 -51.5t-64 -19.5h-16v-36h102v-326z" />
    <glyph glyph-name="ordmasculine" unicode="&#xba;" horiz-adv-x="379" 
d="M190 384q74 0 118.5 48.5t44.5 126.5q0 80 -45 128t-118 48q-75 0 -119.5 -49.5t-44.5 -127.5q0 -79 45.5 -126.5t118.5 -47.5zM190 425q-52 0 -83 36t-31 97q0 64 31 99.5t83 35.5q53 0 83.5 -36t30.5 -98q0 -63 -31.5 -98.5t-82.5 -35.5z" />
    <glyph glyph-name="guillemotright" unicode="&#xbb;" horiz-adv-x="401" 
d="M242 521h-51l117 -261l-117 -260h51l122 260zM81 521h-52l118 -261l-118 -260h52l121 260z" />
    <glyph glyph-name="onequarter" unicode="&#xbc;" horiz-adv-x="580" 
d="M103 327h42v394h-41q-3 -29 -21.5 -47t-58.5 -18h-15v-33h94v-296zM-9 0h52l497 721h-53zM472 0h43v100h55v37h-55v257h-59l-183 -259v-35h199v-100zM317 137l155 218v-218h-155z" />
    <glyph glyph-name="onehalf" unicode="&#xbd;" horiz-adv-x="644" 
d="M103 327h42v394h-41q-3 -29 -21.5 -47t-58.5 -18h-15v-33h94v-296zM-9 0h52l497 721h-53zM358 0h257v38h-122q-18 0 -42 -0.5t-41 -1.5q5 29 27 52t51 43.5t57 42.5t46.5 49t18.5 64q0 50 -33.5 81t-89.5 31q-58 0 -94 -34t-34 -90h41q-1 38 21 62t63 24q37 0 59 -21
t22 -56q0 -32 -21 -56t-51.5 -45t-61.5 -44t-52 -54.5t-21 -75.5v-9z" />
    <glyph glyph-name="threequarters" unicode="&#xbe;" horiz-adv-x="696" 
d="M157 322q59 0 96.5 32t37.5 81q0 35 -17.5 60.5t-53.5 34.5v2q31 10 48 34t17 58q0 47 -35.5 74.5t-89.5 27.5t-92 -32.5t-37 -91.5h41q1 40 25 63t62 23q35 0 58 -18.5t23 -50.5q0 -31 -19.5 -51t-57.5 -20h-39v-35h40q38 0 60.5 -19.5t22.5 -54.5q0 -34 -25 -56.5
t-65 -22.5q-39 0 -64 24t-24 64h-42q-1 -54 34.5 -90t95.5 -36zM107 0h52l497 721h-53zM587 0h43v100h55v37h-55v257h-59l-183 -259v-35h199v-100zM432 137l155 218v-218h-155z" />
    <glyph glyph-name="questiondown" unicode="&#xbf;" horiz-adv-x="531" 
d="M283 344h-56v-19q0 -40 -18 -72t-44 -62t-52 -61.5t-44 -70t-18 -88.5q0 -85 53.5 -136.5t154.5 -51.5q67 0 117 26.5t77 74t27 111.5h-58q1 -70 -41.5 -115.5t-118.5 -45.5q-68 0 -109 34.5t-41 105.5q0 45 17.5 80t42.5 65t50.5 60t43 65.5t17.5 81.5v18zM287 521h-65
v-76h65v76z" />
    <glyph glyph-name="Agrave" unicode="&#xc0;" horiz-adv-x="645" 
d="M6 0h65l71 190h362l71 -190h65l-275 729h-84zM159 240l101 264l61 166h5l61 -166l99 -264h-327zM303 800h44l-63 138h-63z" />
    <glyph glyph-name="Aacute" unicode="&#xc1;" horiz-adv-x="645" 
d="M6 0h65l71 190h362l71 -190h65l-275 729h-84zM159 240l101 264l61 166h5l61 -166l99 -264h-327zM299 800h45l81 138h-63z" />
    <glyph glyph-name="Acircumflex" unicode="&#xc2;" horiz-adv-x="645" 
d="M6 0h65l71 190h362l71 -190h65l-275 729h-84zM159 240l101 264l61 166h5l61 -166l99 -264h-327zM187 800h58l78 100l78 -100h59l-112 138h-50z" />
    <glyph glyph-name="Atilde" unicode="&#xc3;" horiz-adv-x="645" 
d="M6 0h65l71 190h362l71 -190h65l-275 729h-84zM159 240l101 264l61 166h5l61 -166l99 -264h-327zM380 825q28 0 50 14t39 46l-27 18q-22 -32 -56 -32q-21 0 -41.5 7.5l-41 15t-40.5 7.5q-28 0 -48 -13.5t-39 -46.5l26 -17q23 30 56 30q20 0 37.5 -7t37.5 -14t47 -8z" />
    <glyph glyph-name="Adieresis" unicode="&#xc4;" horiz-adv-x="645" 
d="M6 0h65l71 190h362l71 -190h65l-275 729h-84zM159 240l101 264l61 166h5l61 -166l99 -264h-327zM209 822h56v116h-56v-116zM380 822h57v116h-57v-116z" />
    <glyph glyph-name="Aring" unicode="&#xc5;" horiz-adv-x="645" 
d="M6 0h65l71 190h362l71 -190h65l-275 729h-84zM159 240l101 264l61 166h5l61 -166l99 -264h-327zM325 806q44 0 71 25.5t27 67.5q0 43 -27 68.5t-71 25.5q-43 0 -70.5 -25.5t-27.5 -68.5q0 -42 27.5 -67.5t70.5 -25.5zM325 842q-26 0 -41.5 16t-15.5 41q0 26 15.5 41.5
t41.5 15.5t42 -15.5t16 -41.5q0 -25 -16 -41t-42 -16z" />
    <glyph glyph-name="AE" unicode="&#xc6;" horiz-adv-x="875" 
d="M6 0h65l71 190h191v-190h490v56h-430v292h381v52h-381v274h429v55h-541zM159 240l101 264l61 166h12v-430h-174z" />
    <glyph glyph-name="Ccedilla" unicode="&#xc7;" horiz-adv-x="760" 
d="M393 -8q88 0 157 30.5t112.5 86.5t53.5 131l-63 1q-15 -88 -84 -141t-176 -53q-88 0 -151.5 39t-98 110t-34.5 168t34.5 168t98 110t151.5 39q107 0 175.5 -53t84.5 -137h63q-12 75 -56 130t-112 85t-155 30q-104 0 -183 -46t-122.5 -129.5t-43.5 -196.5
q0 -112 43.5 -195.5t122 -130t183.5 -46.5zM381 -217q40 0 65 21t25 60q0 33 -20.5 54t-61.5 22v67h-40v-96h29q23 0 35.5 -12t12.5 -33t-13 -34t-34 -13q-19 0 -31 10.5t-14 25.5h-42q0 -33 24.5 -52.5t64.5 -19.5z" />
    <glyph glyph-name="Egrave" unicode="&#xc8;" horiz-adv-x="642" 
d="M98 0h491v56h-429v292h381v52h-381v274h429v55h-491v-729zM310 800h44l-63 138h-63z" />
    <glyph glyph-name="Eacute" unicode="&#xc9;" horiz-adv-x="642" 
d="M98 0h491v56h-429v292h381v52h-381v274h429v55h-491v-729zM306 800h45l81 138h-63z" />
    <glyph glyph-name="Ecircumflex" unicode="&#xca;" horiz-adv-x="642" 
d="M98 0h491v56h-429v292h381v52h-381v274h429v55h-491v-729zM194 800h58l78 100l78 -100h59l-112 138h-50z" />
    <glyph glyph-name="Edieresis" unicode="&#xcb;" horiz-adv-x="642" 
d="M98 0h491v56h-429v292h381v52h-381v274h429v55h-491v-729zM216 822h56v116h-56v-116zM387 822h57v116h-57v-116z" />
    <glyph glyph-name="Igrave" unicode="&#xcc;" horiz-adv-x="258" 
d="M98 0h62v729h-62v-729zM109 800h44l-63 138h-63z" />
    <glyph glyph-name="Iacute" unicode="&#xcd;" horiz-adv-x="258" 
d="M98 0h62v729h-62v-729zM105 800h45l81 138h-63z" />
    <glyph glyph-name="Icircumflex" unicode="&#xce;" horiz-adv-x="258" 
d="M98 0h62v729h-62v-729zM-7 800h58l78 100l78 -100h59l-112 138h-50z" />
    <glyph glyph-name="Idieresis" unicode="&#xcf;" horiz-adv-x="258" 
d="M98 0h62v729h-62v-729zM15 822h56v116h-56v-116zM186 822h57v116h-57v-116z" />
    <glyph glyph-name="Eth" unicode="&#xd0;" horiz-adv-x="745" 
d="M98 0h278q102 0 174.5 45t111 127t38.5 192t-38.5 192t-111 127.5t-174.5 45.5h-278v-340h-95v-49h95v-340zM160 56v284h172v49h-172v285h210q122 0 194 -80t72 -229q0 -145 -71 -227t-195 -82h-210z" />
    <glyph glyph-name="Ntilde" unicode="&#xd1;" horiz-adv-x="786" 
d="M98 0h62v407l-3 243h5l447 -650h79v729h-61v-397l5 -255h-6l-447 652h-81v-729zM450 825q28 0 50 14t39 46l-27 18q-22 -32 -56 -32q-21 0 -41.5 7.5l-41 15t-40.5 7.5q-28 0 -48 -13.5t-39 -46.5l26 -17q23 30 56 30q20 0 37.5 -7t37.5 -14t47 -8z" />
    <glyph glyph-name="Ograve" unicode="&#xd2;" horiz-adv-x="794" 
d="M397 -8q106 0 185.5 45.5t123.5 129t44 197.5q0 113 -43.5 196.5t-123 129.5t-186.5 46q-106 0 -185.5 -45.5t-123.5 -129t-44 -197.5q0 -112 43.5 -196t123 -130t186.5 -46zM397 47q-89 0 -153.5 39t-99.5 110.5t-35 167.5q0 97 34.5 168t99.5 110t154 39t154 -39
t100 -110t35 -168q0 -96 -35 -167t-99.5 -110.5t-154.5 -39.5zM377 800h44l-63 138h-63z" />
    <glyph glyph-name="Oacute" unicode="&#xd3;" horiz-adv-x="794" 
d="M397 -8q106 0 185.5 45.5t123.5 129t44 197.5q0 113 -43.5 196.5t-123 129.5t-186.5 46q-106 0 -185.5 -45.5t-123.5 -129t-44 -197.5q0 -112 43.5 -196t123 -130t186.5 -46zM397 47q-89 0 -153.5 39t-99.5 110.5t-35 167.5q0 97 34.5 168t99.5 110t154 39t154 -39
t100 -110t35 -168q0 -96 -35 -167t-99.5 -110.5t-154.5 -39.5zM373 800h45l81 138h-63z" />
    <glyph glyph-name="Ocircumflex" unicode="&#xd4;" horiz-adv-x="794" 
d="M397 -8q106 0 185.5 45.5t123.5 129t44 197.5q0 113 -43.5 196.5t-123 129.5t-186.5 46q-106 0 -185.5 -45.5t-123.5 -129t-44 -197.5q0 -112 43.5 -196t123 -130t186.5 -46zM397 47q-89 0 -153.5 39t-99.5 110.5t-35 167.5q0 97 34.5 168t99.5 110t154 39t154 -39
t100 -110t35 -168q0 -96 -35 -167t-99.5 -110.5t-154.5 -39.5zM261 800h58l78 100l78 -100h59l-112 138h-50z" />
    <glyph glyph-name="Otilde" unicode="&#xd5;" horiz-adv-x="794" 
d="M397 -8q106 0 185.5 45.5t123.5 129t44 197.5q0 113 -43.5 196.5t-123 129.5t-186.5 46q-106 0 -185.5 -45.5t-123.5 -129t-44 -197.5q0 -112 43.5 -196t123 -130t186.5 -46zM397 47q-89 0 -153.5 39t-99.5 110.5t-35 167.5q0 97 34.5 168t99.5 110t154 39t154 -39
t100 -110t35 -168q0 -96 -35 -167t-99.5 -110.5t-154.5 -39.5zM454 825q28 0 50 14t39 46l-27 18q-22 -32 -56 -32q-21 0 -41.5 7.5l-41 15t-40.5 7.5q-28 0 -48 -13.5t-39 -46.5l26 -17q23 30 56 30q20 0 37.5 -7t37.5 -14t47 -8z" />
    <glyph glyph-name="Odieresis" unicode="&#xd6;" horiz-adv-x="794" 
d="M397 -8q106 0 185.5 45.5t123.5 129t44 197.5q0 113 -43.5 196.5t-123 129.5t-186.5 46q-106 0 -185.5 -45.5t-123.5 -129t-44 -197.5q0 -112 43.5 -196t123 -130t186.5 -46zM397 47q-89 0 -153.5 39t-99.5 110.5t-35 167.5q0 97 34.5 168t99.5 110t154 39t154 -39
t100 -110t35 -168q0 -96 -35 -167t-99.5 -110.5t-154.5 -39.5zM283 822h56v116h-56v-116zM454 822h57v116h-57v-116z" />
    <glyph glyph-name="multiply" unicode="&#xd7;" horiz-adv-x="582" 
d="M126 161l165 165l165 -165l35 35l-165 165l165 165l-35 35l-165 -165l-165 165l-35 -35l165 -165l-165 -165z" />
    <glyph glyph-name="Oslash" unicode="&#xd8;" horiz-adv-x="794" 
d="M397 -8q106 0 185.5 45.5t123.5 129t44 197.5q0 113 -43.5 196.5t-123 129.5t-186.5 46q-106 0 -185.5 -45.5t-123.5 -129t-44 -197.5q0 -112 43.5 -196t123 -130t186.5 -46zM397 47q-89 0 -153.5 39t-99.5 110.5t-35 167.5q0 97 34.5 168t99.5 110t154 39t154 -39
t100 -110t35 -168q0 -96 -35 -167t-99.5 -110.5t-154.5 -39.5zM72 -40h56l594 810h-53z" />
    <glyph glyph-name="Ugrave" unicode="&#xd9;" horiz-adv-x="756" 
d="M378 -8q92 0 155.5 33.5t97 94.5t33.5 143v466h-61v-462q0 -100 -55 -159t-170 -59q-103 0 -163.5 54t-60.5 164v462h-62v-466q0 -127 76.5 -199t209.5 -72zM358 800h44l-63 138h-63z" />
    <glyph glyph-name="Uacute" unicode="&#xda;" horiz-adv-x="756" 
d="M378 -8q92 0 155.5 33.5t97 94.5t33.5 143v466h-61v-462q0 -100 -55 -159t-170 -59q-103 0 -163.5 54t-60.5 164v462h-62v-466q0 -127 76.5 -199t209.5 -72zM354 800h45l81 138h-63z" />
    <glyph glyph-name="Ucircumflex" unicode="&#xdb;" horiz-adv-x="756" 
d="M378 -8q92 0 155.5 33.5t97 94.5t33.5 143v466h-61v-462q0 -100 -55 -159t-170 -59q-103 0 -163.5 54t-60.5 164v462h-62v-466q0 -127 76.5 -199t209.5 -72zM243 800h58l78 100l78 -100h59l-112 138h-50z" />
    <glyph glyph-name="Udieresis" unicode="&#xdc;" horiz-adv-x="756" 
d="M378 -8q92 0 155.5 33.5t97 94.5t33.5 143v466h-61v-462q0 -100 -55 -159t-170 -59q-103 0 -163.5 54t-60.5 164v462h-62v-466q0 -127 76.5 -199t209.5 -72zM265 822h56v116h-56v-116zM436 822h57v116h-57v-116z" />
    <glyph glyph-name="Yacute" unicode="&#xdd;" horiz-adv-x="613" 
d="M274 0h62v296l272 433h-70l-230 -373h-4l-229 373h-71l270 -433v-296zM282 800h45l81 138h-63z" />
    <glyph glyph-name="Thorn" unicode="&#xde;" horiz-adv-x="632" 
d="M98 0h62v142l193 -1q77 0 132.5 27.5t86 78t30.5 118.5q0 107 -67 165.5t-181 58.5h-194v140h-62v-729zM346 533q91 0 142 -44t51 -125q0 -79 -51 -125t-142 -45l-186 1v338h186z" />
    <glyph glyph-name="germandbls" unicode="&#xdf;" horiz-adv-x="633" 
d="M117 -167h59v167h175q117 0 179 58t62 155q0 51 -20.5 90.5t-55.5 64.5t-79 30v5q53 18 79.5 60t26.5 94q0 82 -55 132t-153 50q-60 0 -109 -23.5t-78 -72t-31 -122.5h-106v-51h106v-637zM335 685q71 0 112 -36.5t41 -100.5q0 -61 -38 -97.5t-109 -36.5h-42v-45h71
q78 0 120 -41.5t42 -110.5q0 -83 -48.5 -124.5t-138.5 -41.5h-169v462q0 81 41.5 126.5t117.5 45.5z" />
    <glyph glyph-name="agrave" unicode="&#xe0;" horiz-adv-x="593" 
d="M259 -8q71 0 121 34.5t69 89.5h4v-116h59v521h-56l-3 -114h-4q-19 56 -69 89.5t-121 33.5q-64 0 -113 -32t-76.5 -92t-27.5 -145q0 -84 27.5 -144.5t76.5 -92.5t113 -32zM276 43q-78 0 -125.5 57t-47.5 161q0 106 47.5 162.5t125.5 56.5q57 0 96 -26.5t59.5 -68.5
t20.5 -90v-67q0 -48 -20.5 -90.5t-59.5 -68.5t-96 -26zM273 592h44l-63 138h-63z" />
    <glyph glyph-name="aacute" unicode="&#xe1;" horiz-adv-x="593" 
d="M259 -8q71 0 121 34.5t69 89.5h4v-116h59v521h-56l-3 -114h-4q-19 56 -69 89.5t-121 33.5q-64 0 -113 -32t-76.5 -92t-27.5 -145q0 -84 27.5 -144.5t76.5 -92.5t113 -32zM276 43q-78 0 -125.5 57t-47.5 161q0 106 47.5 162.5t125.5 56.5q57 0 96 -26.5t59.5 -68.5
t20.5 -90v-67q0 -48 -20.5 -90.5t-59.5 -68.5t-96 -26zM269 592h45l81 138h-63z" />
    <glyph glyph-name="acircumflex" unicode="&#xe2;" horiz-adv-x="593" 
d="M259 -8q71 0 121 34.5t69 89.5h4v-116h59v521h-56l-3 -114h-4q-19 56 -69 89.5t-121 33.5q-64 0 -113 -32t-76.5 -92t-27.5 -145q0 -84 27.5 -144.5t76.5 -92.5t113 -32zM276 43q-78 0 -125.5 57t-47.5 161q0 106 47.5 162.5t125.5 56.5q57 0 96 -26.5t59.5 -68.5
t20.5 -90v-67q0 -48 -20.5 -90.5t-59.5 -68.5t-96 -26zM157 592h58l78 100l78 -100h59l-112 138h-50z" />
    <glyph glyph-name="atilde" unicode="&#xe3;" horiz-adv-x="593" 
d="M259 -8q71 0 121 34.5t69 89.5h4v-116h59v521h-56l-3 -114h-4q-19 56 -69 89.5t-121 33.5q-64 0 -113 -32t-76.5 -92t-27.5 -145q0 -84 27.5 -144.5t76.5 -92.5t113 -32zM276 43q-78 0 -125.5 57t-47.5 161q0 106 47.5 162.5t125.5 56.5q57 0 96 -26.5t59.5 -68.5
t20.5 -90v-67q0 -48 -20.5 -90.5t-59.5 -68.5t-96 -26zM351 617q28 0 50 14t39 46l-27 18q-22 -32 -56 -32q-21 0 -41.5 7.5l-41 15t-40.5 7.5q-28 0 -48 -13.5t-39 -46.5l26 -17q23 30 56 30q20 0 37.5 -7t37.5 -14t47 -8z" />
    <glyph glyph-name="adieresis" unicode="&#xe4;" horiz-adv-x="593" 
d="M259 -8q71 0 121 34.5t69 89.5h4v-116h59v521h-56l-3 -114h-4q-19 56 -69 89.5t-121 33.5q-64 0 -113 -32t-76.5 -92t-27.5 -145q0 -84 27.5 -144.5t76.5 -92.5t113 -32zM276 43q-78 0 -125.5 57t-47.5 161q0 106 47.5 162.5t125.5 56.5q57 0 96 -26.5t59.5 -68.5
t20.5 -90v-67q0 -48 -20.5 -90.5t-59.5 -68.5t-96 -26zM179 614h56v116h-56v-116zM350 614h57v116h-57v-116z" />
    <glyph glyph-name="aring" unicode="&#xe5;" horiz-adv-x="593" 
d="M259 -8q71 0 121 34.5t69 89.5h4v-116h59v521h-56l-3 -114h-4q-19 56 -69 89.5t-121 33.5q-64 0 -113 -32t-76.5 -92t-27.5 -145q0 -84 27.5 -144.5t76.5 -92.5t113 -32zM276 43q-78 0 -125.5 57t-47.5 161q0 106 47.5 162.5t125.5 56.5q57 0 96 -26.5t59.5 -68.5
t20.5 -90v-67q0 -48 -20.5 -90.5t-59.5 -68.5t-96 -26zM296 598q44 0 71 25.5t27 67.5q0 43 -27 68.5t-71 25.5q-43 0 -70.5 -25.5t-27.5 -68.5q0 -42 27.5 -67.5t70.5 -25.5zM296 634q-26 0 -41.5 16t-15.5 41q0 26 15.5 41.5t41.5 15.5t42 -15.5t16 -41.5q0 -25 -16 -41
t-42 -16z" />
    <glyph glyph-name="ae" unicode="&#xe6;" horiz-adv-x="973" 
d="M258 -8q72 0 122 34.5t69 89.5h4l1 -116h52v114h4q25 -61 77 -91.5t118 -30.5q58 0 105.5 20t78.5 57t39 87h-59q-11 -52 -55.5 -82.5t-109.5 -30.5q-82 0 -132.5 54.5t-52.5 154.5h410q8 79 -15.5 141.5t-76.5 99t-134 36.5q-65 0 -117 -32t-75 -89h-4v113h-51l-3 -114
h-4q-19 56 -69 89.5t-122 33.5q-64 0 -112.5 -32t-76 -92t-27.5 -145q0 -84 27.5 -144.5t76 -92.5t112.5 -32zM276 43q-78 0 -125.5 57t-47.5 161q0 106 47.5 162.5t125.5 56.5q57 0 96 -26.5t59.5 -68.5t20.5 -90v-67q0 -48 -20.5 -90.5t-59.5 -68.5t-96 -26zM520 296
q6 86 54 134t126 48q49 0 87.5 -18.5t61.5 -58.5t23 -105h-352z" />
    <glyph glyph-name="ccedilla" unicode="&#xe7;" horiz-adv-x="551" 
d="M288 -8q62 0 111 23t78.5 65t34.5 99h-58q-7 -61 -52 -98t-114 -37q-84 0 -135 57.5t-51 157.5q0 98 49.5 158t137.5 60q62 0 107.5 -32.5t55.5 -93.5h58q-6 53 -35.5 93t-76.5 62.5t-106 22.5q-76 0 -132 -34t-87 -94.5t-31 -141.5q0 -80 30.5 -140t86 -93.5
t129.5 -33.5zM286 -217q40 0 65 21t25 60q0 33 -20.5 54t-61.5 22v67h-40v-96h29q23 0 35.5 -12t12.5 -33t-13 -34t-34 -13q-19 0 -31 10.5t-14 25.5h-42q0 -33 24.5 -52.5t64.5 -19.5z" />
    <glyph glyph-name="egrave" unicode="&#xe8;" horiz-adv-x="555" 
d="M285 -8q59 0 106.5 20t78.5 57t39 87h-58q-12 -52 -55.5 -83.5t-110.5 -31.5q-82 0 -132 55.5t-52 155.5h410q7 80 -16.5 142.5t-76.5 98.5t-135 36q-75 0 -129 -33.5t-83 -94.5t-29 -142q0 -80 29.5 -140.5t84.5 -93.5t129 -33zM282 480q76 0 123.5 -45.5t48.5 -138.5
h-352q4 84 52.5 134t127.5 50zM257 592h44l-63 138h-63z" />
    <glyph glyph-name="eacute" unicode="&#xe9;" horiz-adv-x="555" 
d="M285 -8q59 0 106.5 20t78.5 57t39 87h-58q-12 -52 -55.5 -83.5t-110.5 -31.5q-82 0 -132 55.5t-52 155.5h410q7 80 -16.5 142.5t-76.5 98.5t-135 36q-75 0 -129 -33.5t-83 -94.5t-29 -142q0 -80 29.5 -140.5t84.5 -93.5t129 -33zM282 480q76 0 123.5 -45.5t48.5 -138.5
h-352q4 84 52.5 134t127.5 50zM253 592h45l81 138h-63z" />
    <glyph glyph-name="ecircumflex" unicode="&#xea;" horiz-adv-x="555" 
d="M285 -8q59 0 106.5 20t78.5 57t39 87h-58q-12 -52 -55.5 -83.5t-110.5 -31.5q-82 0 -132 55.5t-52 155.5h410q7 80 -16.5 142.5t-76.5 98.5t-135 36q-75 0 -129 -33.5t-83 -94.5t-29 -142q0 -80 29.5 -140.5t84.5 -93.5t129 -33zM282 480q76 0 123.5 -45.5t48.5 -138.5
h-352q4 84 52.5 134t127.5 50zM142 592h58l78 100l78 -100h59l-112 138h-50z" />
    <glyph glyph-name="edieresis" unicode="&#xeb;" horiz-adv-x="555" 
d="M285 -8q59 0 106.5 20t78.5 57t39 87h-58q-12 -52 -55.5 -83.5t-110.5 -31.5q-82 0 -132 55.5t-52 155.5h410q7 80 -16.5 142.5t-76.5 98.5t-135 36q-75 0 -129 -33.5t-83 -94.5t-29 -142q0 -80 29.5 -140.5t84.5 -93.5t129 -33zM282 480q76 0 123.5 -45.5t48.5 -138.5
h-352q4 84 52.5 134t127.5 50zM164 614h56v116h-56v-116zM335 614h57v116h-57v-116z" />
    <glyph glyph-name="igrave" unicode="&#xec;" horiz-adv-x="220" 
d="M81 0h59v521h-59v-521zM90 592h44l-63 138h-63z" />
    <glyph glyph-name="iacute" unicode="&#xed;" horiz-adv-x="220" 
d="M81 0h59v521h-59v-521zM87 592h45l81 138h-63z" />
    <glyph glyph-name="icircumflex" unicode="&#xee;" horiz-adv-x="220" 
d="M81 0h59v521h-59v-521zM-25 592h58l78 100l78 -100h59l-112 138h-50z" />
    <glyph glyph-name="idieresis" unicode="&#xef;" horiz-adv-x="220" 
d="M81 0h59v521h-59v-521zM-3 614h56v116h-56v-116zM168 614h57v116h-57v-116z" />
    <glyph glyph-name="ntilde" unicode="&#xf1;" horiz-adv-x="596" 
d="M81 0h58v279q0 58 22 102.5t62 70.5t93 26q74 0 109.5 -44.5t35.5 -139.5v-294h59v305q0 81 -24.5 130.5t-67 71.5t-96.5 22q-61 0 -112 -30.5t-77 -90.5h-4l-3 113h-55v-521zM358 617q28 0 50 14t39 46l-27 18q-22 -32 -56 -32q-21 0 -41.5 7.5l-41 15t-40.5 7.5
q-28 0 -48 -13.5t-39 -46.5l26 -17q23 30 56 30q20 0 37.5 -7t37.5 -14t47 -8z" />
    <glyph glyph-name="ograve" unicode="&#xf2;" horiz-adv-x="580" 
d="M291 -8q75 0 130.5 34t86 94.5t30.5 139.5q0 81 -31 141.5t-86.5 94t-129.5 33.5q-75 0 -131 -34t-87 -95t-31 -141t31 -140t87.5 -93.5t130.5 -33.5zM290 44q-86 0 -137 58.5t-51 156.5q0 102 52 160t137 58q87 0 136.5 -59t49.5 -158q0 -100 -51.5 -158t-135.5 -58z
M269 592h44l-63 138h-63z" />
    <glyph glyph-name="oacute" unicode="&#xf3;" horiz-adv-x="580" 
d="M291 -8q75 0 130.5 34t86 94.5t30.5 139.5q0 81 -31 141.5t-86.5 94t-129.5 33.5q-75 0 -131 -34t-87 -95t-31 -141t31 -140t87.5 -93.5t130.5 -33.5zM290 44q-86 0 -137 58.5t-51 156.5q0 102 52 160t137 58q87 0 136.5 -59t49.5 -158q0 -100 -51.5 -158t-135.5 -58z
M265 592h45l81 138h-63z" />
    <glyph glyph-name="ocircumflex" unicode="&#xf4;" horiz-adv-x="580" 
d="M291 -8q75 0 130.5 34t86 94.5t30.5 139.5q0 81 -31 141.5t-86.5 94t-129.5 33.5q-75 0 -131 -34t-87 -95t-31 -141t31 -140t87.5 -93.5t130.5 -33.5zM290 44q-86 0 -137 58.5t-51 156.5q0 102 52 160t137 58q87 0 136.5 -59t49.5 -158q0 -100 -51.5 -158t-135.5 -58z
M154 592h58l78 100l78 -100h59l-112 138h-50z" />
    <glyph glyph-name="otilde" unicode="&#xf5;" horiz-adv-x="580" 
d="M291 -8q75 0 130.5 34t86 94.5t30.5 139.5q0 81 -31 141.5t-86.5 94t-129.5 33.5q-75 0 -131 -34t-87 -95t-31 -141t31 -140t87.5 -93.5t130.5 -33.5zM290 44q-86 0 -137 58.5t-51 156.5q0 102 52 160t137 58q87 0 136.5 -59t49.5 -158q0 -100 -51.5 -158t-135.5 -58z
M347 617q28 0 50 14t39 46l-27 18q-22 -32 -56 -32q-21 0 -41.5 7.5l-41 15t-40.5 7.5q-28 0 -48 -13.5t-39 -46.5l26 -17q23 30 56 30q20 0 37.5 -7t37.5 -14t47 -8z" />
    <glyph glyph-name="odieresis" unicode="&#xf6;" horiz-adv-x="580" 
d="M291 -8q75 0 130.5 34t86 94.5t30.5 139.5q0 81 -31 141.5t-86.5 94t-129.5 33.5q-75 0 -131 -34t-87 -95t-31 -141t31 -140t87.5 -93.5t130.5 -33.5zM290 44q-86 0 -137 58.5t-51 156.5q0 102 52 160t137 58q87 0 136.5 -59t49.5 -158q0 -100 -51.5 -158t-135.5 -58z
M176 614h56v116h-56v-116zM347 614h57v116h-57v-116z" />
    <glyph glyph-name="divide" unicode="&#xf7;" horiz-adv-x="654" 
d="M296 479h62v71h-62v-71zM85 337h483v48h-483v-48zM296 172h62v71h-62v-71z" />
    <glyph glyph-name="oslash" unicode="&#xf8;" horiz-adv-x="580" 
d="M291 -8q75 0 130.5 34t86 94.5t30.5 139.5q0 81 -31 141.5t-86.5 94t-129.5 33.5q-75 0 -131 -34t-87 -95t-31 -141t31 -140t87.5 -93.5t130.5 -33.5zM290 44q-86 0 -137 58.5t-51 156.5q0 102 52 160t137 58q87 0 136.5 -59t49.5 -158q0 -100 -51.5 -158t-135.5 -58z
M28 -60h51l471 641h-50z" />
    <glyph glyph-name="ugrave" unicode="&#xf9;" horiz-adv-x="591" 
d="M265 -8q65 0 115.5 33t70.5 91h5l4 -116h55v521h-59v-274q0 -62 -22 -108t-61 -71t-90 -25q-79 0 -113.5 45.5t-34.5 128.5v304h-59v-317q0 -106 51.5 -159t137.5 -53zM276 592h44l-63 138h-63z" />
    <glyph glyph-name="uacute" unicode="&#xfa;" horiz-adv-x="591" 
d="M265 -8q65 0 115.5 33t70.5 91h5l4 -116h55v521h-59v-274q0 -62 -22 -108t-61 -71t-90 -25q-79 0 -113.5 45.5t-34.5 128.5v304h-59v-317q0 -106 51.5 -159t137.5 -53zM272 592h45l81 138h-63z" />
    <glyph glyph-name="ucircumflex" unicode="&#xfb;" horiz-adv-x="591" 
d="M265 -8q65 0 115.5 33t70.5 91h5l4 -116h55v521h-59v-274q0 -62 -22 -108t-61 -71t-90 -25q-79 0 -113.5 45.5t-34.5 128.5v304h-59v-317q0 -106 51.5 -159t137.5 -53zM160 592h58l78 100l78 -100h59l-112 138h-50z" />
    <glyph glyph-name="udieresis" unicode="&#xfc;" horiz-adv-x="591" 
d="M265 -8q65 0 115.5 33t70.5 91h5l4 -116h55v521h-59v-274q0 -62 -22 -108t-61 -71t-90 -25q-79 0 -113.5 45.5t-34.5 128.5v304h-59v-317q0 -106 51.5 -159t137.5 -53zM182 614h56v116h-56v-116zM353 614h57v116h-57v-116z" />
    <glyph glyph-name="yacute" unicode="&#xfd;" horiz-adv-x="453" 
d="M28 -167h57q56 0 88 23.5t53 76.5l232 588h-61l-136 -355l-26 -69h-4l-27 69l-144 355h-64l210 -487l-34 -84q-13 -34 -34.5 -50.5t-59.5 -16.5h-50v-50zM203 592h45l81 138h-63z" />
    <glyph glyph-name="thorn" unicode="&#xfe;" horiz-adv-x="593" 
d="M81 -167h58v281h5q20 -55 69.5 -89t120.5 -34q64 0 113 32t76.5 92.5t27.5 144.5q0 85 -27.5 145.5t-76.5 92.5t-113 32q-71 0 -120.5 -34t-69.5 -89h-4v322h-59v-896zM317 42q-56 0 -96 26.5t-60.5 69t-20.5 89.5v67q0 48 20.5 90t60.5 68.5t96 26.5q78 0 125.5 -56.5
t47.5 -162.5q0 -105 -47.5 -161.5t-125.5 -56.5z" />
    <glyph glyph-name="ydieresis" unicode="&#xff;" horiz-adv-x="453" 
d="M28 -167h57q56 0 88 23.5t53 76.5l232 588h-61l-136 -355l-26 -69h-4l-27 69l-144 355h-64l210 -487l-34 -84q-13 -34 -34.5 -50.5t-59.5 -16.5h-50v-50zM113 614h56v116h-56v-116zM284 614h57v116h-57v-116z" />
    <glyph glyph-name="dotlessi" unicode="&#x131;" horiz-adv-x="220" 
d="M81 0h59v521h-59v-521z" />
    <glyph glyph-name="OE" unicode="&#x152;" horiz-adv-x="1134" 
d="M368 0h714v56h-430v292h381v52h-381v274h429v55h-713q-101 0 -174 -45t-111.5 -127t-38.5 -192t38.5 -192t111 -127.5t174.5 -45.5zM374 55q-121 0 -193.5 80t-72.5 229q0 145 71 227t195 82h216v-618h-216z" />
    <glyph glyph-name="oe" unicode="&#x153;" horiz-adv-x="992" 
d="M291 -8q75 0 130.5 34t86 94.5t30.5 139.5q0 81 -31 141.5t-86.5 94t-129.5 33.5q-75 0 -131 -34t-87 -95t-31 -141t31 -140t87.5 -93.5t130.5 -33.5zM290 44q-86 0 -137 58.5t-51 156.5q0 102 52 160t137 58q87 0 136.5 -59t49.5 -158q0 -100 -51.5 -158t-135.5 -58z
M722 -8q59 0 106.5 20t78.5 57t39 87h-58q-12 -52 -55.5 -83.5t-110.5 -31.5q-82 0 -132 55.5t-52 155.5h410q7 80 -16.5 142.5t-76.5 98.5t-135 36q-75 0 -129 -33.5t-83 -94.5t-29 -142q0 -80 29.5 -140.5t84.5 -93.5t129 -33zM719 480q76 0 123.5 -45.5t48.5 -138.5h-352
q4 84 52.5 134t127.5 50z" />
    <glyph glyph-name="Wcircumflex" unicode="&#x174;" horiz-adv-x="923" 
d="M179 0h87l193 657h5l192 -657h88l169 729h-67l-99 -440l-47 -222h-6l-191 662h-83l-190 -661h-6l-48 221l-99 440h-67zM326 800h58l78 100l78 -100h59l-112 138h-50z" />
    <glyph glyph-name="wcircumflex" unicode="&#x175;" horiz-adv-x="700" 
d="M150 0h78l119 447h3l124 -447h77l142 521h-58l-122 -462h-2l-127 462h-68l-121 -462h-3l-125 462h-60zM214 592h58l78 100l78 -100h59l-112 138h-50z" />
    <glyph glyph-name="Ycircumflex" unicode="&#x176;" horiz-adv-x="613" 
d="M274 0h62v296l272 433h-70l-230 -373h-4l-229 373h-71l270 -433v-296zM170 800h58l78 100l78 -100h59l-112 138h-50z" />
    <glyph glyph-name="ycircumflex" unicode="&#x177;" horiz-adv-x="453" 
d="M28 -167h57q56 0 88 23.5t53 76.5l232 588h-61l-136 -355l-26 -69h-4l-27 69l-144 355h-64l210 -487l-34 -84q-13 -34 -34.5 -50.5t-59.5 -16.5h-50v-50zM91 592h58l78 100l78 -100h59l-112 138h-50z" />
    <glyph glyph-name="Ydieresis" unicode="&#x178;" horiz-adv-x="613" 
d="M274 0h62v296l272 433h-70l-230 -373h-4l-229 373h-71l270 -433v-296zM192 822h56v116h-56v-116zM363 822h57v116h-57v-116z" />
    <glyph glyph-name="circumflex" unicode="&#x2c6;" horiz-adv-x="353" 
d="M40 744h58l78 100l78 -100h59l-112 138h-50z" />
    <glyph glyph-name="caron" unicode="&#x2c7;" horiz-adv-x="353" 
d="M151 744h50l112 138h-59l-78 -100l-78 100h-58z" />
    <glyph glyph-name="breve" unicode="&#x2d8;" horiz-adv-x="360" 
d="M180 739q68 0 104 36t36 103h-49q1 -46 -23 -72t-68 -26q-43 0 -66.5 25.5t-23.5 72.5h-50q1 -67 37 -103t103 -36z" />
    <glyph glyph-name="dotaccent" unicode="&#x2d9;" horiz-adv-x="139" 
d="M40 766h59v117h-59v-117z" />
    <glyph glyph-name="ring" unicode="&#x2da;" horiz-adv-x="276" 
d="M138 750q44 0 71 25.5t27 67.5q0 43 -27 68.5t-71 25.5q-43 0 -70.5 -25.5t-27.5 -68.5q0 -42 27.5 -67.5t70.5 -25.5zM138 786q-26 0 -41.5 16t-15.5 41q0 26 15.5 41.5t41.5 15.5t42 -15.5t16 -41.5q0 -25 -16 -41t-42 -16z" />
    <glyph glyph-name="ogonek" unicode="&#x2db;" horiz-adv-x="229" 
d="M127 -164q42 0 62 11v40q-19 -11 -51 -11q-25 0 -40 14t-15 39t15.5 43.5t40.5 27.5l-37 11q-25 -7 -46 -32.5t-21 -60.5q0 -38 25 -60t67 -22z" />
    <glyph glyph-name="tilde" unicode="&#x2dc;" horiz-adv-x="373" 
d="M244 769q28 0 50 14t39 46l-27 18q-22 -32 -56 -32q-21 0 -41.5 7.5l-41 15t-40.5 7.5q-28 0 -48 -13.5t-39 -46.5l26 -17q23 30 56 30q20 0 37.5 -7t37.5 -14t47 -8z" />
    <glyph glyph-name="hungarumlaut" unicode="&#x2dd;" horiz-adv-x="354" 
d="M40 744h44l81 138h-61zM181 744h46l87 138h-64z" />
    <glyph glyph-name="gravecomb" unicode="&#x300;" horiz-adv-x="0" 
d="M122 744h44l-63 138h-63z" />
    <glyph glyph-name="acutecomb" unicode="&#x301;" horiz-adv-x="0" 
d="M40 744h45l81 138h-63z" />
    <glyph glyph-name="uni0302" unicode="&#x302;" horiz-adv-x="0" 
d="M40 744h58l78 100l78 -100h59l-112 138h-50z" />
    <glyph glyph-name="tildecomb" unicode="&#x303;" horiz-adv-x="0" 
d="M244 769q28 0 50 14t39 46l-27 18q-22 -32 -56 -32q-21 0 -41.5 7.5l-41 15t-40.5 7.5q-28 0 -48 -13.5t-39 -46.5l26 -17q23 30 56 30q20 0 37.5 -7t37.5 -14t47 -8z" />
    <glyph glyph-name="uni0307" unicode="&#x307;" horiz-adv-x="0" 
d="M40 766h59v117h-59v-117z" />
    <glyph glyph-name="uni0308" unicode="&#x308;" horiz-adv-x="0" 
d="M40 766h56v116h-56v-116zM211 766h57v116h-57v-116z" />
    <glyph glyph-name="uni030A" unicode="&#x30a;" horiz-adv-x="0" 
d="M138 750q44 0 71 25.5t27 67.5q0 43 -27 68.5t-71 25.5q-43 0 -70.5 -25.5t-27.5 -68.5q0 -42 27.5 -67.5t70.5 -25.5zM138 786q-26 0 -41.5 16t-15.5 41q0 26 15.5 41.5t41.5 15.5t42 -15.5t16 -41.5q0 -25 -16 -41t-42 -16z" />
    <glyph glyph-name="uni0327" unicode="&#x327;" horiz-adv-x="0" 
d="M125 -217q40 0 65 21t25 60q0 33 -20.5 54t-61.5 22v67h-40v-96h29q23 0 35.5 -12t12.5 -33t-13 -34t-34 -13q-19 0 -31 10.5t-14 25.5h-42q0 -33 24.5 -52.5t64.5 -19.5z" />
    <glyph glyph-name="uni0337" unicode="&#x337;" horiz-adv-x="0" 
d="M70 -60h51l471 641h-50z" />
    <glyph glyph-name="uni0338" unicode="&#x338;" horiz-adv-x="0" 
d="M50 -81h56l594 810h-53z" />
    <glyph glyph-name="uni03BC" unicode="&#x3bc;" horiz-adv-x="590" 
d="M76 -132h59v176q21 -25 55.5 -38.5t76.5 -13.5q64 0 112.5 30.5t71.5 93.5h4l4 -116h55v521h-59v-274q0 -92 -39.5 -148t-128.5 -56q-72 0 -112 38t-40 108v332h-59v-653z" />
    <glyph glyph-name="pi" unicode="&#x3c0;" horiz-adv-x="561" 
d="M493 -7q33 0 49 9v49q-7 -3 -15.5 -5.5t-19.5 -2.5q-32 0 -42 22t-10 61v345h88v50h-531v-50h90v-471h58v471h236v-364q0 -50 21.5 -82t75.5 -32z" />
    <glyph glyph-name="Wgrave" unicode="&#x1e80;" horiz-adv-x="923" 
d="M179 0h87l193 657h5l192 -657h88l169 729h-67l-99 -440l-47 -222h-6l-191 662h-83l-190 -661h-6l-48 221l-99 440h-67zM441 800h44l-63 138h-63z" />
    <glyph glyph-name="wgrave" unicode="&#x1e81;" horiz-adv-x="700" 
d="M150 0h78l119 447h3l124 -447h77l142 521h-58l-122 -462h-2l-127 462h-68l-121 -462h-3l-125 462h-60zM330 592h44l-63 138h-63z" />
    <glyph glyph-name="Wacute" unicode="&#x1e82;" horiz-adv-x="923" 
d="M179 0h87l193 657h5l192 -657h88l169 729h-67l-99 -440l-47 -222h-6l-191 662h-83l-190 -661h-6l-48 221l-99 440h-67zM438 800h45l81 138h-63z" />
    <glyph glyph-name="wacute" unicode="&#x1e83;" horiz-adv-x="700" 
d="M150 0h78l119 447h3l124 -447h77l142 521h-58l-122 -462h-2l-127 462h-68l-121 -462h-3l-125 462h-60zM326 592h45l81 138h-63z" />
    <glyph glyph-name="Wdieresis" unicode="&#x1e84;" horiz-adv-x="923" 
d="M179 0h87l193 657h5l192 -657h88l169 729h-67l-99 -440l-47 -222h-6l-191 662h-83l-190 -661h-6l-48 221l-99 440h-67zM348 822h56v116h-56v-116zM519 822h57v116h-57v-116z" />
    <glyph glyph-name="wdieresis" unicode="&#x1e85;" horiz-adv-x="700" 
d="M150 0h78l119 447h3l124 -447h77l142 521h-58l-122 -462h-2l-127 462h-68l-121 -462h-3l-125 462h-60zM236 614h56v116h-56v-116zM407 614h57v116h-57v-116z" />
    <glyph glyph-name="uni1E9E" unicode="&#x1e9e;" horiz-adv-x="653" 
d="M98 0h63v674h343l-203 -258v-38h55q99 0 142.5 -43.5t43.5 -119.5q0 -70 -42.5 -116.5t-136.5 -46.5h-134v-52h140q113 0 175.5 57t62.5 155q0 94 -56.5 150t-172.5 56h-4v7l186 234v70h-462v-729z" />
    <glyph glyph-name="Ygrave" unicode="&#x1ef2;" horiz-adv-x="613" 
d="M274 0h62v296l272 433h-70l-230 -373h-4l-229 373h-71l270 -433v-296zM286 800h44l-63 138h-63z" />
    <glyph glyph-name="ygrave" unicode="&#x1ef3;" horiz-adv-x="453" 
d="M28 -167h57q56 0 88 23.5t53 76.5l232 588h-61l-136 -355l-26 -69h-4l-27 69l-144 355h-64l210 -487l-34 -84q-13 -34 -34.5 -50.5t-59.5 -16.5h-50v-50zM207 592h44l-63 138h-63z" />
    <glyph glyph-name="endash" unicode="&#x2013;" horiz-adv-x="436" 
d="M30 235h376v51h-376v-51z" />
    <glyph glyph-name="emdash" unicode="&#x2014;" horiz-adv-x="598" 
d="M30 235h538v51h-538v-51z" />
    <glyph glyph-name="quoteleft" unicode="&#x2018;" horiz-adv-x="182" 
d="M140 729h-14q-33 -3 -49.5 -23.5t-16.5 -63.5v-139h64v76h-29v57q0 24 7.5 39t28.5 17l9 1v36z" />
    <glyph glyph-name="quoteright" unicode="&#x2019;" horiz-adv-x="182" 
d="M42 503h14q33 3 49.5 23.5t16.5 63.5v139h-64v-76h29v-57q0 -24 -7.5 -39t-28.5 -17l-9 -1v-36z" />
    <glyph glyph-name="quotesinglbase" unicode="&#x201a;" horiz-adv-x="182" 
d="M42 -150h14q33 3 49.5 23.5t16.5 63.5v139h-64v-76h29v-57q0 -24 -7.5 -39t-28.5 -17l-9 -1v-36z" />
    <glyph glyph-name="quotedblleft" unicode="&#x201c;" horiz-adv-x="329" 
d="M287 729h-14q-33 -3 -49.5 -23.5t-16.5 -63.5v-139h64v76h-29v57q0 24 7.5 39t28.5 17l9 1v36zM140 729h-14q-33 -3 -49.5 -23.5t-16.5 -63.5v-139h64v76h-29v57q0 24 7.5 39t28.5 17l9 1v36z" />
    <glyph glyph-name="quotedblright" unicode="&#x201d;" horiz-adv-x="329" 
d="M42 503h14q33 3 49.5 23.5t16.5 63.5v139h-64v-76h29v-57q0 -24 -7.5 -39t-28.5 -17l-9 -1v-36zM189 503h14q33 3 49.5 23.5t16.5 63.5v139h-64v-76h29v-57q0 -24 -7.5 -39t-28.5 -17l-9 -1v-36z" />
    <glyph glyph-name="quotedblbase" unicode="&#x201e;" horiz-adv-x="329" 
d="M42 -150h14q33 3 49.5 23.5t16.5 63.5v139h-64v-76h29v-57q0 -24 -7.5 -39t-28.5 -17l-9 -1v-36zM189 -150h14q33 3 49.5 23.5t16.5 63.5v139h-64v-76h29v-57q0 -24 -7.5 -39t-28.5 -17l-9 -1v-36z" />
    <glyph glyph-name="bullet" unicode="&#x2022;" horiz-adv-x="338" 
d="M57 277q0 -47 32 -78.5t81 -31.5q50 0 81 31.5t31 78.5q0 48 -31 79.5t-81 31.5q-49 0 -81 -31.5t-32 -79.5z" />
    <glyph glyph-name="ellipsis" unicode="&#x2026;" horiz-adv-x="555" 
d="M60 0h65v76h-65v-76zM245 0h65v76h-65v-76zM430 0h65v76h-65v-76z" />
    <glyph glyph-name="perthousand" unicode="&#x2030;" horiz-adv-x="1186" 
d="M165 0h53l462 729h-54zM187 324q62 0 101 52t39 149q0 96 -38 148t-102 52t-103 -51t-39 -149q0 -96 38.5 -148.5t103.5 -52.5zM187 366q-43 0 -68 38.5t-25 120.5q0 81 25 119.5t68 38.5q42 0 66.5 -38t24.5 -120t-24.5 -120.5t-66.5 -38.5zM659 -5q63 0 102 51.5
t39 148.5t-38 149.5t-102 52.5t-103 -51.5t-39 -148.5t38.5 -149.5t102.5 -52.5zM1001 -5q62 0 101 51.5t39 148.5t-38 149.5t-102 52.5t-103 -51.5t-39 -148.5t38.5 -149.5t103.5 -52.5zM660 37q-44 0 -68.5 38.5t-24.5 120.5t24.5 120t68.5 38q41 0 65.5 -38t24.5 -120
t-24.5 -120.5t-65.5 -38.5zM1001 37q-43 0 -68 38.5t-25 120.5t25 120t68 38q42 0 66 -38t24 -120t-24 -120.5t-66 -38.5z" />
    <glyph glyph-name="guilsinglleft" unicode="&#x2039;" horiz-adv-x="239" 
d="M159 0h51l-117 261l117 260h-51l-122 -260z" />
    <glyph glyph-name="guilsinglright" unicode="&#x203a;" horiz-adv-x="239" 
d="M80 521h-51l117 -261l-117 -260h51l122 260z" />
    <glyph glyph-name="fraction" unicode="&#x2044;" horiz-adv-x="115" 
d="M-217 0h52l497 721h-53z" />
    <glyph glyph-name="uni2070" unicode="&#x2070;" horiz-adv-x="351" 
d="M176 320q68 0 110 57t42 165q0 107 -41.5 164t-109.5 57q-70 0 -112 -56t-42 -165q0 -106 41.5 -164t111.5 -58zM176 362q-50 0 -78 44.5t-28 135.5q0 92 28 136.5t78 44.5t77.5 -44.5t27.5 -136.5q0 -91 -27.5 -135.5t-77.5 -44.5z" />
    <glyph glyph-name="uni2074" unicode="&#x2074;" horiz-adv-x="376" 
d="M246 326h46v110h61v40h-61v283h-64l-200 -285v-38h218v-110zM78 476l168 238v-238h-168z" />
    <glyph glyph-name="uni2075" unicode="&#x2075;" horiz-adv-x="357" 
d="M176 321q68 0 109 40.5t41 107.5q0 64 -37.5 104t-100.5 40q-32 0 -58.5 -12.5t-41.5 -33.5l-2 1l7 149h211v42h-253l-9 -240h44q11 24 34.5 39t57.5 15q45 0 72 -28t27 -78q0 -46 -26.5 -75t-74.5 -29q-43 0 -70 25.5t-27 69.5h-46q-1 -61 39 -99t104 -38z" />
    <glyph glyph-name="uni2076" unicode="&#x2076;" horiz-adv-x="353" 
d="M180 321q65 0 106 39t41 106q0 64 -37.5 103t-96.5 39q-43 0 -73.5 -21t-40.5 -55h-3q1 87 23.5 138.5t86.5 51.5q38 0 62 -18.5t28 -50.5h45q-4 51 -39.5 81t-95.5 30q-78 0 -117.5 -58.5t-39.5 -184.5q0 -96 37.5 -148t113.5 -52zM182 363q-44 0 -71 27.5t-27 73.5
q0 45 26.5 76t72.5 31q43 0 69 -28t26 -76q0 -47 -26 -75.5t-70 -28.5z" />
    <glyph glyph-name="uni2077" unicode="&#x2077;" horiz-adv-x="349" 
d="M123 326h51q0 92 19.5 161t52.5 126t71 113v33h-291v-132h39v90h196q-35 -52 -67 -109t-51.5 -125.5t-19.5 -156.5z" />
    <glyph glyph-name="uni2078" unicode="&#x2078;" horiz-adv-x="359" 
d="M180 321q68 0 110 32.5t42 86.5q0 40 -23.5 69.5t-68.5 33.5v3q47 7 66 37t19 64q0 52 -39 84t-106 32q-66 0 -105.5 -31t-39.5 -84q0 -34 19.5 -64.5t65.5 -37.5v-3q-43 -5 -68 -34.5t-25 -69.5q0 -53 42.5 -85.5t110.5 -32.5zM180 564q-50 0 -73.5 22.5t-23.5 56.5
q0 38 26 59.5t71 21.5q43 0 70 -21.5t27 -59.5q0 -32 -22.5 -55.5t-74.5 -23.5zM180 363q-46 0 -73.5 22t-27.5 61q0 32 24 55t77 23q52 0 76.5 -22t24.5 -56q0 -38 -27.5 -60.5t-73.5 -22.5z" />
    <glyph glyph-name="uni2079" unicode="&#x2079;" horiz-adv-x="353" 
d="M171 321q74 0 113.5 54t39.5 187q0 97 -37.5 149.5t-114.5 52.5q-64 0 -105 -38.5t-41 -105.5q0 -64 37 -103t96 -39q45 0 75 21t40 54h3q0 -57 -8.5 -99.5t-31 -66.5t-66.5 -24q-39 0 -62 19.5t-26 49.5h-46q5 -50 40.5 -80.5t93.5 -30.5zM170 515q-43 0 -69 27.5
t-26 74.5q0 48 26 76.5t69 28.5q45 0 72 -27t27 -73t-26 -76.5t-73 -30.5z" />
    <glyph glyph-name="uni2080" unicode="&#x2080;" horiz-adv-x="351" 
d="M176 -36q68 0 110 57t42 165q0 107 -41.5 164t-109.5 57q-70 0 -112 -56t-42 -165q0 -106 41.5 -164t111.5 -58zM176 6q-50 0 -78 44.5t-28 135.5q0 92 28 136.5t78 44.5t77.5 -44.5t27.5 -136.5q0 -91 -27.5 -135.5t-77.5 -44.5z" />
    <glyph glyph-name="uni2081" unicode="&#x2081;" horiz-adv-x="234" 
d="M123 -30h47v433h-46q-3 -32 -23 -51.5t-64 -19.5h-16v-36h102v-326z" />
    <glyph glyph-name="uni2082" unicode="&#x2082;" horiz-adv-x="338" 
d="M27 -30h281v42h-224q5 32 28.5 56.5t55 46.5t62.5 46t51.5 54t20.5 70q0 55 -36.5 89t-97.5 34q-63 0 -102.5 -37t-37.5 -98h45q-1 44 25 68.5t67 24.5q40 0 64.5 -22.5t24.5 -61.5q0 -30 -16.5 -52.5t-42 -42t-55 -39.5t-55 -43.5t-42 -53.5t-16.5 -71v-10z" />
    <glyph glyph-name="uni2083" unicode="&#x2083;" horiz-adv-x="346" 
d="M167 -35q66 0 106.5 34t40.5 90q0 43 -21.5 69.5t-56.5 34.5v3q30 9 50.5 34.5t20.5 65.5q0 51 -37 81.5t-99 30.5q-65 0 -104 -37t-38 -99h45q1 43 25.5 69t69.5 26q39 0 64 -19.5t25 -57.5q0 -33 -21.5 -55.5t-62.5 -22.5h-42v-37h44q39 0 64 -20.5t25 -61.5
q0 -40 -27 -63.5t-71 -23.5q-46 0 -71.5 28t-24.5 68h-46q-1 -61 37.5 -99t104.5 -38z" />
    <glyph glyph-name="uni2084" unicode="&#x2084;" horiz-adv-x="376" 
d="M246 -30h46v110h61v40h-61v283h-64l-200 -285v-38h218v-110zM78 120l168 238v-238h-168z" />
    <glyph glyph-name="uni2085" unicode="&#x2085;" horiz-adv-x="357" 
d="M176 -35q68 0 109 40.5t41 107.5q0 64 -37.5 104t-100.5 40q-32 0 -58.5 -12.5t-41.5 -33.5l-2 1l7 149h211v42h-253l-9 -240h44q11 24 34.5 39t57.5 15q45 0 72 -28t27 -78q0 -46 -26.5 -75t-74.5 -29q-43 0 -70 25.5t-27 69.5h-46q-1 -61 39 -99t104 -38z" />
    <glyph glyph-name="uni2086" unicode="&#x2086;" horiz-adv-x="353" 
d="M180 -35q65 0 106 39t41 106q0 64 -37.5 103t-96.5 39q-43 0 -73.5 -21t-40.5 -55h-3q1 87 23.5 138.5t86.5 51.5q38 0 62 -18.5t28 -50.5h45q-4 51 -39.5 81t-95.5 30q-78 0 -117.5 -58.5t-39.5 -184.5q0 -96 37.5 -148t113.5 -52zM182 7q-44 0 -71 27.5t-27 73.5
q0 45 26.5 76t72.5 31q43 0 69 -28t26 -76q0 -47 -26 -75.5t-70 -28.5z" />
    <glyph glyph-name="uni2087" unicode="&#x2087;" horiz-adv-x="349" 
d="M123 -30h51q0 92 19.5 161t52.5 126t71 113v33h-291v-132h39v90h196q-35 -52 -67 -109t-51.5 -125.5t-19.5 -156.5z" />
    <glyph glyph-name="uni2088" unicode="&#x2088;" horiz-adv-x="359" 
d="M180 -35q68 0 110 32.5t42 86.5q0 40 -23.5 69.5t-68.5 33.5v3q47 7 66 37t19 64q0 52 -39 84t-106 32q-66 0 -105.5 -31t-39.5 -84q0 -34 19.5 -64.5t65.5 -37.5v-3q-43 -5 -68 -34.5t-25 -69.5q0 -53 42.5 -85.5t110.5 -32.5zM180 208q-50 0 -73.5 22.5t-23.5 56.5
q0 38 26 59.5t71 21.5q43 0 70 -21.5t27 -59.5q0 -32 -22.5 -55.5t-74.5 -23.5zM180 7q-46 0 -73.5 22t-27.5 61q0 32 24 55t77 23q52 0 76.5 -22t24.5 -56q0 -38 -27.5 -60.5t-73.5 -22.5z" />
    <glyph glyph-name="uni2089" unicode="&#x2089;" horiz-adv-x="353" 
d="M171 -35q74 0 113.5 54t39.5 187q0 97 -37.5 149.5t-114.5 52.5q-64 0 -105 -38.5t-41 -105.5q0 -64 37 -103t96 -39q45 0 75 21t40 54h3q0 -57 -8.5 -99.5t-31 -66.5t-66.5 -24q-39 0 -62 19.5t-26 49.5h-46q5 -50 40.5 -80.5t93.5 -30.5zM170 159q-43 0 -69 27.5
t-26 74.5q0 48 26 76.5t69 28.5q45 0 72 -27t27 -73t-26 -76.5t-73 -30.5z" />
    <glyph glyph-name="uni20AA" unicode="&#x20aa;" horiz-adv-x="790" 
d="M357 0h335v729h-57v-676h-303v514h-53v-488q0 -44 20.5 -61.5t57.5 -17.5zM98 0h57v676h303v-513h53v488q0 44 -19.5 61t-57.5 17h-336v-729z" />
    <glyph glyph-name="Euro" unicode="&#x20ac;" horiz-adv-x="829" 
d="M44 249h82q29 -119 118 -188t218 -69q88 0 157 30.5t112.5 86.5t53.5 131l-64 1q-14 -88 -83.5 -140.5t-175.5 -52.5q-103 0 -173 53.5t-96 147.5h261l6 41h-276q-6 35 -6 74t6 75h298l6 40h-295q26 94 95.5 147.5t173.5 53.5q71 0 125.5 -24t89 -66.5t44.5 -98.5h64
q-12 75 -56 130t-112.5 85t-154.5 30q-129 0 -218 -69t-118 -188h-82v-40h74q-6 -36 -6 -75q0 -38 5 -74h-73v-41z" />
    <glyph glyph-name="uni20B9" unicode="&#x20b9;" horiz-adv-x="643" 
d="M503 0h65v12q-7 3 -13.5 15t-10.5 37l-20 138q-15 109 -106 128v6q65 13 105.5 55t46.5 104h74v46h-75q-2 47 -28.5 85.5t-63.5 52.5v3h167v47h-546v-52h232q74 0 120 -33t55 -104h-407v-44h407q-5 -63 -49 -98t-132 -35h-226v-51h219q35 0 65 -9t51 -35t29 -77l22 -146
q3 -16 9 -29t10 -16z" />
    <glyph glyph-name="uni20BA" unicode="&#x20ba;" horiz-adv-x="592" 
d="M120 0h55q164 0 265 81t120 242h-60q-17 -121 -95 -193.5t-225 -72.5v279l216 88v51l-216 -88v115l216 88v51l-216 -88v176h-60v-199l-98 -40v-50l98 40v-116l-98 -39v-51l98 39v-313z" />
    <glyph glyph-name="uni20BF" unicode="&#x20bf;" horiz-adv-x="676" 
d="M98 0h124v-85h43v85h111v-85h44v86q99 8 154.5 61.5t55.5 139.5q0 63 -36 111t-107 61v4q63 15 93 60.5t30 104.5q0 78 -49.5 128t-140.5 57v86h-43v-85h-112v85h-43v-85h-124v-729zM159 399v278h226q74 0 118 -37.5t44 -105.5q0 -61 -37.5 -98t-111.5 -37h-239zM159 53
v295h242q79 0 121 -38t42 -105t-44.5 -109.5t-133.5 -42.5h-227z" />
    <glyph glyph-name="uni2117" unicode="&#x2117;" horiz-adv-x="821" 
d="M410 -10q113 0 198.5 47t133 131t47.5 195q0 112 -47.5 196t-133 130.5t-198.5 46.5q-112 0 -197 -46.5t-132.5 -130.5t-47.5 -196q0 -111 47.5 -195t132.5 -131t197 -47zM410 27q-100 0 -176 42t-118.5 118t-42.5 176q0 101 42.5 177t118.5 118.5t176 42.5
q101 0 177.5 -42.5t119 -118.5t42.5 -177q0 -100 -42.5 -176t-119 -118t-177.5 -42zM292 165h47v150h110q66 0 103 34t37 90q0 59 -37 91t-102 32h-158v-397zM441 523q45 0 72 -21.5t27 -63.5t-26.5 -64.5t-72.5 -22.5h-102v172h102z" />
    <glyph glyph-name="trademark" unicode="&#x2122;" horiz-adv-x="719" 
d="M315 418h44v142l-1 112h2l113 -254h37l113 254h3l-3 -112l1 -142h45v311h-63l-113 -255h-3l-114 255h-61v-311zM111 418h45v271h110v40h-261v-40h106v-271z" />
    <glyph glyph-name="oneeighth" unicode="&#x215b;" horiz-adv-x="661" 
d="M103 327h42v394h-41q-3 -29 -21.5 -47t-58.5 -18h-15v-33h94v-296zM-9 0h52l497 721h-53zM493 -4q62 0 100.5 29.5t38.5 78.5q0 36 -21.5 63t-62.5 31v1q41 7 59.5 33.5t18.5 59.5q0 48 -36 77t-97 29t-96.5 -29t-35.5 -76q0 -35 20 -61.5t57 -32.5v-1
q-41 -6 -62.5 -33.5t-21.5 -61.5q0 -49 38.5 -78t100.5 -29zM493 217q-45 0 -66 20t-21 51q0 34 23.5 53.5t63.5 19.5t64 -19t24 -54q0 -29 -20.5 -50t-67.5 -21zM493 34q-42 0 -67 20t-25 55q0 29 22 50t70 21q47 0 70 -20t23 -51q0 -34 -25.5 -54.5t-67.5 -20.5z" />
    <glyph glyph-name="threeeighths" unicode="&#x215c;" horiz-adv-x="776" 
d="M157 322q59 0 96.5 32t37.5 81q0 35 -17.5 60.5t-53.5 34.5v2q31 10 48 34t17 58q0 47 -35.5 74.5t-89.5 27.5t-92 -32.5t-37 -91.5h41q1 40 25 63t62 23q35 0 58 -18.5t23 -50.5q0 -31 -19.5 -51t-57.5 -20h-39v-35h40q38 0 60.5 -19.5t22.5 -54.5q0 -34 -25 -56.5
t-65 -22.5q-39 0 -64 24t-24 64h-42q-1 -54 34.5 -90t95.5 -36zM107 0h52l497 721h-53zM608 -4q62 0 100.5 29.5t38.5 78.5q0 36 -21.5 63t-62.5 31v1q41 7 59.5 33.5t18.5 59.5q0 48 -36 77t-97 29t-96.5 -29t-35.5 -76q0 -35 20 -61.5t57 -32.5v-1q-41 -6 -62.5 -33.5
t-21.5 -61.5q0 -49 38.5 -78t100.5 -29zM608 217q-45 0 -66 20t-21 51q0 34 23.5 53.5t63.5 19.5t64 -19t24 -54q0 -29 -20.5 -50t-67.5 -21zM608 34q-42 0 -67 20t-25 55q0 29 22 50t70 21q47 0 70 -20t23 -51q0 -34 -25.5 -54.5t-67.5 -20.5z" />
    <glyph glyph-name="fiveeighths" unicode="&#x215d;" horiz-adv-x="786" 
d="M164 322q62 0 100 38t38 97q0 57 -35.5 94t-91.5 37q-28 0 -52 -11t-37 -30l-3 1l6 135h192v38h-230l-9 -219h41q10 22 31.5 35.5t52.5 13.5q40 0 65 -27t25 -68q0 -42 -25.5 -68.5t-66.5 -26.5q-39 0 -64 24t-24 62h-43q-1 -53 35 -89t95 -36zM117 0h52l497 721h-53z
M618 -4q62 0 100.5 29.5t38.5 78.5q0 36 -21.5 63t-62.5 31v1q41 7 59.5 33.5t18.5 59.5q0 48 -36 77t-97 29t-96.5 -29t-35.5 -76q0 -35 20 -61.5t57 -32.5v-1q-41 -6 -62.5 -33.5t-21.5 -61.5q0 -49 38.5 -78t100.5 -29zM618 217q-45 0 -66 20t-21 51q0 34 23.5 53.5
t63.5 19.5t64 -19t24 -54q0 -29 -20.5 -50t-67.5 -21zM618 34q-42 0 -67 20t-25 55q0 29 22 50t70 21q47 0 70 -20t23 -51q0 -34 -25.5 -54.5t-67.5 -20.5z" />
    <glyph glyph-name="seveneighths" unicode="&#x215e;" horiz-adv-x="687" 
d="M98 327h47q0 84 18 146.5t48 114t64 102.5v31h-266v-120h35v82h179q-32 -47 -60.5 -98.5t-46.5 -114t-18 -143.5zM18 0h52l497 721h-53zM519 -4q62 0 100.5 29.5t38.5 78.5q0 36 -21.5 63t-62.5 31v1q41 7 59.5 33.5t18.5 59.5q0 48 -36 77t-97 29t-96.5 -29t-35.5 -76
q0 -35 20 -61.5t57 -32.5v-1q-41 -6 -62.5 -33.5t-21.5 -61.5q0 -49 38.5 -78t100.5 -29zM519 217q-45 0 -66 20t-21 51q0 34 23.5 53.5t63.5 19.5t64 -19t24 -54q0 -29 -20.5 -50t-67.5 -21zM519 34q-42 0 -67 20t-25 55q0 29 22 50t70 21q47 0 70 -20t23 -51
q0 -34 -25.5 -54.5t-67.5 -20.5z" />
    <glyph glyph-name="arrowleft" unicode="&#x2190;" horiz-adv-x="746" 
d="M643 392h-466l118 163h-59l-138 -190l138 -190h59l-118 163h466v54z" />
    <glyph glyph-name="arrowup" unicode="&#x2191;" horiz-adv-x="519" 
d="M233 92h54v466l163 -119v60l-190 138l-190 -138v-60l163 119v-466z" />
    <glyph glyph-name="arrowright" unicode="&#x2192;" horiz-adv-x="746" 
d="M103 392v-54h466l-118 -163h59l138 190l-138 190h-59l118 -163h-466z" />
    <glyph glyph-name="arrowdown" unicode="&#x2193;" horiz-adv-x="502" 
d="M233 637v-466l-163 119v-60l190 -138l190 138v60l-163 -119v466h-54z" />
    <glyph glyph-name="arrowboth" unicode="&#x2194;" horiz-adv-x="829" 
d="M209 175h60l-118 163h528l-119 -163h60l138 190l-138 190h-60l119 -163h-528l118 163h-60l-138 -190z" />
    <glyph glyph-name="emptyset" unicode="&#x2205;" horiz-adv-x="799" 
d="M400 -9q75 0 141.5 27.5t117.5 77.5t79.5 119t28.5 151q0 81 -28.5 149t-79.5 118t-117.5 77.5t-141.5 27.5q-76 0 -142.5 -27.5t-117 -77.5t-79 -118t-28.5 -149q0 -82 28.5 -151t79 -119t117 -77.5t142.5 -27.5zM107 209q-16 35 -25.5 74.5t-9.5 82.5q0 73 26 134.5
t71 107t104.5 70.5t126.5 25q85 0 157 -40t116 -108zM400 26q-85 0 -158 41t-117 111l567 345q17 -34 26.5 -73.5t9.5 -83.5q0 -73 -26 -135.5t-71.5 -108t-104.5 -71t-126 -25.5z" />
    <glyph glyph-name="product" unicode="&#x220f;" horiz-adv-x="773" 
d="M98 -151h62v823h453v-823h62v880h-577v-880z" />
    <glyph glyph-name="summation" unicode="&#x2211;" horiz-adv-x="679" 
d="M98 -151h483v58h-235l-173 -1v4l279 379l-279 379v4l173 -1h235v58h-483v-64l272 -372v-7l-272 -373v-64z" />
    <glyph glyph-name="minus" unicode="&#x2212;" horiz-adv-x="667" 
d="M95 337h477v48h-477v-48z" />
    <glyph glyph-name="radical" unicode="&#x221a;" horiz-adv-x="610" 
d="M243 -151h73l285 880h-67l-253 -799h-3l-142 457h-126v-55h78z" />
    <glyph glyph-name="infinity" unicode="&#x221e;" horiz-adv-x="885" 
d="M231 160q50 0 88.5 22.5t68.5 59.5t55 80q27 -45 57 -82t68.5 -58.5t88.5 -21.5q57 0 98 28.5t63.5 75t22.5 100.5q0 55 -22 101.5t-63 75t-99 28.5q-52 0 -90.5 -22.5t-68 -59.5t-55.5 -79q-25 42 -54.5 79t-68 59.5t-89.5 22.5q-57 0 -99 -28t-65 -74.5t-23 -102.5
q0 -58 23 -104t65 -73t99 -27zM232 216q-59 0 -95.5 40.5t-36.5 107.5q0 65 36.5 107.5t95.5 42.5q55 0 94.5 -38t85.5 -111q-46 -75 -87 -112t-93 -37zM654 216q-55 0 -94 38t-86 111q46 72 85.5 110.5t94.5 38.5q59 0 95.5 -43t36.5 -107q0 -41 -16.5 -75t-46 -53.5
t-69.5 -19.5z" />
    <glyph glyph-name="integral" unicode="&#x222b;" horiz-adv-x="372" 
d="M10 -151h142q36 0 50 19.5t14 47.5v760h146v53h-143q-30 0 -46.5 -19t-16.5 -51v-758h-146v-52z" />
    <glyph glyph-name="approxequal" unicode="&#x2248;" horiz-adv-x="644" 
d="M402 379q47 0 71.5 29t20.5 87h-39q2 -63 -54 -63q-27 0 -54.5 12.5t-55.5 25t-57 12.5q-34 0 -60 -25.5t-22 -90.5h39q-3 28 8.5 44t35.5 16q22 0 48.5 -11.5t56.5 -23.5t62 -12zM402 239q41 0 68.5 27.5t23.5 92.5h-39q2 -64 -54 -64q-27 0 -54.5 12.5l-55 25
t-56.5 12.5q-19 0 -39.5 -9t-33.5 -34.5t-10 -73.5h39q-3 27 9.5 44t34.5 17t48.5 -12.5t57 -25t61.5 -12.5z" />
    <glyph glyph-name="notequal" unicode="&#x2260;" horiz-adv-x="662" 
d="M171 93h52l67 132h280v49h-257l89 174h168v49h-145l67 132h-51l-67 -132h-282v-49h258l-88 -174h-170v-49h146z" />
    <glyph glyph-name="lessequal" unicode="&#x2264;" horiz-adv-x="686" 
d="M586 137v55l-430 174v5l430 173v55l-485 -197v-68zM101 0h485v46h-485v-46z" />
    <glyph glyph-name="greaterequal" unicode="&#x2265;" horiz-adv-x="686" 
d="M101 137l485 197v68l-485 197v-55l429 -173v-5l-429 -174v-55zM101 0h485v46h-485v-46z" />
    <glyph glyph-name="uni2639" unicode="&#x2639;" horiz-adv-x="815" 
d="M408 -10q109 0 193.5 47t133 131.5t48.5 197.5q0 112 -48.5 195.5t-133 130.5t-193.5 47q-108 0 -193 -47t-133.5 -130.5t-48.5 -195.5q0 -113 48.5 -197.5t133.5 -131.5t193 -47zM408 25q-97 0 -173 42.5t-119.5 119.5t-43.5 179q0 101 43.5 177t119.5 118.5t173 42.5
q98 0 173.5 -42.5t119 -118.5t43.5 -177q0 -102 -43.5 -179t-119 -119.5t-173.5 -42.5zM319 392q23 0 38 16t15 50q0 29 -13 48t-40 19q-24 0 -39 -16.5t-15 -50.5q0 -28 13.5 -47t40.5 -19zM497 392q25 0 40 16t15 50q0 28 -13.5 47.5t-41.5 19.5q-22 0 -38 -16.5
t-16 -50.5q0 -28 14 -47t40 -19zM170 161h37q23 56 76.5 88.5t122.5 32.5q71 0 124.5 -32.5t75.5 -88.5h38q-24 72 -86.5 114t-151.5 42q-87 0 -149.5 -42t-86.5 -114z" />
    <glyph glyph-name="smileface" unicode="&#x263a;" horiz-adv-x="815" 
d="M408 -10q109 0 193.5 47t133 131.5t48.5 197.5q0 112 -48.5 195.5t-133 130.5t-193.5 47q-108 0 -193 -47t-133.5 -130.5t-48.5 -195.5q0 -113 48.5 -197.5t133.5 -131.5t193 -47zM408 25q-97 0 -173 42.5t-119.5 119.5t-43.5 179q0 101 43.5 177t119.5 118.5t173 42.5
q98 0 173.5 -42.5t119 -118.5t43.5 -177q0 -102 -43.5 -179t-119 -119.5t-173.5 -42.5zM319 392q23 0 38 16t15 50q0 29 -13 48t-40 19q-24 0 -39 -16.5t-15 -50.5q0 -28 13.5 -47t40.5 -19zM497 392q25 0 40 16t15 50q0 28 -13.5 47.5t-41.5 19.5q-22 0 -38 -16.5
t-16 -50.5q0 -28 14 -47t40 -19zM406 108q102 0 169 55t80 146h35v18h-112v-18h38q-6 -49 -35 -86.5t-74 -58t-101 -20.5q-54 0 -99 20.5t-73.5 58t-35.5 86.5h39v18h-111v-18h33q9 -60 42 -105.5t85.5 -70.5t119.5 -25z" />
    <glyph glyph-name="uni2713" unicode="&#x2713;" horiz-adv-x="927" 
d="M308 127l505 429l-35 41l-464 -394l-161 216l-39 -35z" />
    <glyph glyph-name="uni2776" unicode="&#x2776;" 
d="M435 -10q113 0 198.5 47t133 131t47.5 195q0 112 -47.5 196t-133 130.5t-198.5 46.5q-112 0 -197.5 -46.5t-133 -130.5t-47.5 -196q0 -111 47.5 -195t133 -131t197.5 -47zM442 165v299h-93v33h14q41 0 58.5 18t20.5 47h43v-397h-43z" />
    <glyph glyph-name="uni2777" unicode="&#x2777;" 
d="M435 -10q113 0 198.5 47t133 131t47.5 195q0 112 -47.5 196t-133 130.5t-198.5 46.5q-112 0 -197.5 -46.5t-133 -130.5t-47.5 -196q0 -111 47.5 -195t133 -131t197.5 -47zM311 162v9q0 45 20.5 76.5t51 55t60.5 44.5t50.5 45t20.5 56q0 35 -22 56t-57 21
q-37 0 -60.5 -23.5t-21.5 -61.5h-41q-2 56 33.5 90t92.5 34q55 0 88 -31.5t33 -81.5q0 -37 -18 -64t-45.5 -49t-56 -43t-50 -44t-26.5 -53q14 2 35.5 2.5t46.5 0.5h118v-39h-252z" />
    <glyph glyph-name="uni2778" unicode="&#x2778;" 
d="M435 -10q113 0 198.5 47t133 131t47.5 195q0 112 -47.5 196t-133 130.5t-198.5 46.5q-112 0 -197.5 -46.5t-133 -130.5t-47.5 -196q0 -111 47.5 -195t133 -131t197.5 -47zM435 160q-60 0 -94.5 36.5t-33.5 90.5h42q-1 -39 23.5 -63.5t61.5 -24.5q39 0 63.5 22.5
t24.5 56.5q0 35 -22.5 54.5t-57.5 19.5h-40v36h38q38 0 57 20.5t19 51.5q0 32 -22.5 50.5t-57.5 18.5q-37 0 -60 -23.5t-24 -63.5h-41q-1 58 35 91.5t92 33.5q52 0 87.5 -27t35.5 -76q0 -37 -19 -60t-45 -32v-2q34 -8 52 -34t18 -61q0 -51 -37.5 -83t-94.5 -32z" />
    <glyph glyph-name="uni2779" unicode="&#x2779;" 
d="M57 363q0 -111 47.5 -195t133 -131t197.5 -47q113 0 198.5 47t133 131t47.5 195q0 112 -47.5 196t-133 130.5t-198.5 46.5q-112 0 -197.5 -46.5t-133 -130.5t-47.5 -196zM281 267v34l180 261h59v-259h54v-36h-54v-102h-44v102h-195zM326 303h150v216z" />
    <glyph glyph-name="uni277A" unicode="&#x277a;" 
d="M435 -10q113 0 198.5 47t133 131t47.5 195q0 112 -47.5 196t-133 130.5t-198.5 46.5q-112 0 -197.5 -46.5t-133 -130.5t-47.5 -196q0 -111 47.5 -195t133 -131t197.5 -47zM433 162q-57 0 -93 35.5t-35 90.5h42q1 -40 26 -63.5t61 -23.5q40 0 65 26.5t25 69.5
q0 42 -25 69.5t-63 27.5q-30 0 -51 -13.5t-31 -36.5h-41l9 220h227v-38h-189l-6 -136l2 -1q13 19 36.5 30.5t51.5 11.5q55 0 90 -37.5t35 -94.5q0 -61 -38 -99t-98 -38z" />
    <glyph glyph-name="uni277B" unicode="&#x277b;" 
d="M435 -10q113 0 198.5 47t133 131t47.5 195q0 112 -47.5 196t-133 130.5t-198.5 46.5q-112 0 -197.5 -46.5t-133 -130.5t-47.5 -196q0 -111 47.5 -195t133 -131t197.5 -47zM440 160q-68 0 -102.5 48t-34.5 137q0 113 36 167t107 54q50 0 83.5 -26.5t37.5 -75.5h-42
q-4 31 -26 47.5t-53 16.5q-40 0 -61.5 -22.5t-29.5 -61.5t-9 -91h3q10 33 37.5 51.5t64.5 18.5q55 0 87.5 -35.5t32.5 -93.5q0 -63 -37 -98.5t-94 -35.5zM441 198q38 0 61.5 26.5t23.5 69.5q0 44 -23 69t-61 25q-41 0 -64.5 -28t-23.5 -69q0 -43 24.5 -68t62.5 -25z" />
    <glyph glyph-name="uni277C" unicode="&#x277c;" 
d="M435 -10q113 0 198.5 47t133 131t47.5 195q0 112 -47.5 196t-133 130.5t-198.5 46.5q-112 0 -197.5 -46.5t-133 -130.5t-47.5 -196q0 -111 47.5 -195t133 -131t197.5 -47zM393 165q0 80 17.5 143t45.5 115.5t60 100.5h-174v-82h-36v120h262v-32q-35 -51 -64 -103.5
t-46 -115.5t-17 -146h-48z" />
    <glyph glyph-name="uni277D" unicode="&#x277d;" 
d="M57 363q0 -111 47.5 -195t133 -131t197.5 -47q113 0 198.5 47t133 131t47.5 195q0 112 -47.5 196t-133 130.5t-198.5 46.5q-112 0 -197.5 -46.5t-133 -130.5t-47.5 -196zM299 270q0 33 21.5 61t61.5 33v2q-39 7 -57.5 34t-18.5 61q0 47 35.5 76t95.5 29t95.5 -29
t35.5 -77q0 -31 -17.5 -59.5t-58.5 -34.5v-2q41 -4 61.5 -31.5t20.5 -62.5q0 -49 -38 -79t-99 -30t-99.5 29.5t-38.5 79.5zM352 455q0 -31 20.5 -52t64.5 -21q46 0 66 21.5t20 51.5q0 35 -24 54.5t-62 19.5q-39 0 -62 -20t-23 -54zM348 274q0 -35 24.5 -55.5t64.5 -20.5
q41 0 65.5 21t24.5 55q0 31 -22.5 51t-67.5 20q-46 0 -67.5 -21t-21.5 -50z" />
    <glyph glyph-name="uni277E" unicode="&#x277e;" 
d="M435 -10q113 0 198.5 47t133 131t47.5 195q0 112 -47.5 196t-133 130.5t-198.5 46.5q-112 0 -197.5 -46.5t-133 -130.5t-47.5 -196q0 -111 47.5 -195t133 -131t197.5 -47zM433 160q-49 0 -82 26.5t-38 75.5h42q2 -26 22 -45t56 -19q41 0 61 22.5t27 62t7 89.5h-3
q-9 -30 -35 -49t-67 -19q-55 0 -87.5 35.5t-32.5 93.5q0 62 37 97.5t95 35.5q68 0 102 -47.5t34 -137.5q0 -124 -35.5 -172.5t-102.5 -48.5zM433 339q41 0 64.5 28t23.5 68q0 43 -24 67.5t-63 24.5t-62.5 -26t-23.5 -69t23.5 -68t61.5 -25z" />
    <glyph glyph-name="uni2780" unicode="&#x2780;" 
d="M435 -10q113 0 198 47t132.5 131t47.5 195q0 112 -47.5 196t-132.5 130.5t-198 46.5q-112 0 -197.5 -46.5t-133 -130.5t-47.5 -196q0 -111 47.5 -195t133 -131t197.5 -47zM435 27q-100 0 -176.5 42t-119 118t-42.5 176q0 101 42.5 177t119 118.5t176.5 42.5
q101 0 177 -42.5t118.5 -118.5t42.5 -177q0 -100 -42.5 -176t-118.5 -118t-177 -42zM441 165h44v397h-43q-3 -29 -21 -47t-58 -18h-14v-33h92v-299z" />
    <glyph glyph-name="uni2781" unicode="&#x2781;" 
d="M435 -10q113 0 198 47t132.5 131t47.5 195q0 112 -47.5 196t-132.5 130.5t-198 46.5q-112 0 -197.5 -46.5t-133 -130.5t-47.5 -196q0 -111 47.5 -195t133 -131t197.5 -47zM435 27q-100 0 -176.5 42t-119 118t-42.5 176q0 101 42.5 177t119 118.5t176.5 42.5
q101 0 177 -42.5t118.5 -118.5t42.5 -177q0 -100 -42.5 -176t-118.5 -118t-177 -42zM310 162h253v39h-119q-24 0 -45.5 -0.5t-35.5 -2.5q5 30 26.5 53t50 44t56 43t45.5 49t18 64q0 50 -33 81.5t-88 31.5q-57 0 -93 -34t-34 -90h41q-1 38 22.5 61.5t60.5 23.5q35 0 57 -21
t22 -56q0 -32 -20.5 -56t-51 -45t-61 -44.5t-51 -55t-20.5 -76.5v-9z" />
    <glyph glyph-name="uni2782" unicode="&#x2782;" 
d="M435 -10q113 0 198 47t132.5 131t47.5 195q0 112 -47.5 196t-132.5 130.5t-198 46.5q-112 0 -197.5 -46.5t-133 -130.5t-47.5 -196q0 -111 47.5 -195t133 -131t197.5 -47zM435 27q-100 0 -176.5 42t-119 118t-42.5 176q0 101 42.5 177t119 118.5t176.5 42.5
q101 0 177 -42.5t118.5 -118.5t42.5 -177q0 -100 -42.5 -176t-118.5 -118t-177 -42zM435 160q57 0 94.5 32t37.5 83q0 35 -18 61t-52 34v2q26 9 45 32t19 60q0 49 -35.5 76t-88.5 27q-56 0 -92 -33.5t-35 -91.5h42q0 40 23.5 63.5t60.5 23.5q34 0 56.5 -18.5t22.5 -50.5
q0 -31 -19 -51.5t-56 -20.5h-39v-36h41q35 0 57.5 -19.5t22.5 -54.5q0 -34 -25 -56.5t-63 -22.5q-37 0 -61.5 24.5t-23.5 63.5h-42q-1 -54 33 -90.5t95 -36.5z" />
    <glyph glyph-name="uni2783" unicode="&#x2783;" 
d="M57 363q0 -111 47.5 -195t133 -131t197.5 -47q113 0 198 47t132.5 131t47.5 195q0 112 -47.5 196t-132.5 130.5t-198 46.5q-112 0 -197.5 -46.5t-133 -130.5t-47.5 -196zM97 363q0 101 42.5 177t119 118.5t176.5 42.5q101 0 177 -42.5t118.5 -118.5t42.5 -177
q0 -100 -42.5 -176t-118.5 -118t-177 -42q-100 0 -176.5 42t-119 118t-42.5 176zM279 267h194l1 -102h43v102h54v36h-54v259h-58l-180 -261v-34zM323 303l151 216v-216h-151z" />
    <glyph glyph-name="uni2784" unicode="&#x2784;" 
d="M435 -10q113 0 198 47t132.5 131t47.5 195q0 112 -47.5 196t-132.5 130.5t-198 46.5q-112 0 -197.5 -46.5t-133 -130.5t-47.5 -196q0 -111 47.5 -195t133 -131t197.5 -47zM435 27q-100 0 -176.5 42t-119 118t-42.5 176q0 101 42.5 177t119 118.5t176.5 42.5
q101 0 177 -42.5t118.5 -118.5t42.5 -177q0 -100 -42.5 -176t-118.5 -118t-177 -42zM433 162q60 0 98 38t38 99q0 57 -35.5 94.5t-89.5 37.5q-28 0 -51.5 -11.5t-36.5 -30.5l-3 1l7 136h189v38h-228l-8 -220h41q10 23 31 36.5t51 13.5q38 0 63 -27.5t25 -69.5
q0 -43 -25.5 -69.5t-64.5 -26.5q-37 0 -62 23.5t-25 63.5h-43q0 -55 35.5 -90.5t93.5 -35.5z" />
    <glyph glyph-name="uni2785" unicode="&#x2785;" 
d="M435 -10q113 0 198 47t132.5 131t47.5 195q0 112 -47.5 196t-132.5 130.5t-198 46.5q-112 0 -197.5 -46.5t-133 -130.5t-47.5 -196q0 -111 47.5 -195t133 -131t197.5 -47zM435 27q-100 0 -176.5 42t-119 118t-42.5 176q0 101 42.5 177t119 118.5t176.5 42.5
q101 0 177 -42.5t118.5 -118.5t42.5 -177q0 -100 -42.5 -176t-118.5 -118t-177 -42zM439 160q58 0 95 35.5t37 98.5q0 58 -33 93.5t-88 35.5q-37 0 -64 -18.5t-38 -51.5h-2q1 52 9 91t29 61.5t61 22.5q32 0 54 -16.5t26 -47.5h41q-4 49 -37 75.5t-84 26.5q-71 0 -106.5 -54
t-35.5 -167q0 -89 34 -137t102 -48zM441 198q-39 0 -63 25t-24 68q0 41 23.5 69t64.5 28q37 0 60.5 -25t23.5 -69q0 -43 -23.5 -69.5t-61.5 -26.5z" />
    <glyph glyph-name="uni2786" unicode="&#x2786;" 
d="M435 -10q113 0 198 47t132.5 131t47.5 195q0 112 -47.5 196t-132.5 130.5t-198 46.5q-112 0 -197.5 -46.5t-133 -130.5t-47.5 -196q0 -111 47.5 -195t133 -131t197.5 -47zM435 27q-100 0 -176.5 42t-119 118t-42.5 176q0 101 42.5 177t119 118.5t176.5 42.5
q101 0 177 -42.5t118.5 -118.5t42.5 -177q0 -100 -42.5 -176t-118.5 -118t-177 -42zM393 165h48q0 83 17 146t46 115.5t64 103.5v32h-263v-120h37v82h174q-32 -48 -60 -100.5t-45.5 -115.5t-17.5 -143z" />
    <glyph glyph-name="uni2787" unicode="&#x2787;" 
d="M435 -10q113 0 198 47t132.5 131t47.5 195q0 112 -47.5 196t-132.5 130.5t-198 46.5q-112 0 -197.5 -46.5t-133 -130.5t-47.5 -196q0 -111 47.5 -195t133 -131t197.5 -47zM435 27q-100 0 -176.5 42t-119 118t-42.5 176q0 101 42.5 177t119 118.5t176.5 42.5
q101 0 177 -42.5t118.5 -118.5t42.5 -177q0 -100 -42.5 -176t-118.5 -118t-177 -42zM437 161q61 0 98.5 30t37.5 79q0 35 -20 62.5t-61 31.5v2q41 6 58.5 34.5t17.5 59.5q0 48 -36 77t-95 29q-60 0 -95.5 -29t-35.5 -76q0 -34 18.5 -61t57.5 -34v-2q-40 -5 -61.5 -33
t-21.5 -61q0 -50 38.5 -79.5t99.5 -29.5zM437 382q-45 0 -65.5 21t-20.5 52q0 34 23.5 54t62.5 20q38 0 62 -19.5t24 -54.5q0 -30 -20 -51.5t-66 -21.5zM437 198q-40 0 -64.5 20.5t-24.5 55.5q0 29 21.5 50t67.5 21q45 0 67.5 -20t22.5 -51q0 -34 -24.5 -55t-65.5 -21z" />
    <glyph glyph-name="uni2788" unicode="&#x2788;" 
d="M435 -10q113 0 198 47t132.5 131t47.5 195q0 112 -47.5 196t-132.5 130.5t-198 46.5q-112 0 -197.5 -46.5t-133 -130.5t-47.5 -196q0 -111 47.5 -195t133 -131t197.5 -47zM435 27q-100 0 -176.5 42t-119 118t-42.5 176q0 101 42.5 177t119 118.5t176.5 42.5
q101 0 177 -42.5t118.5 -118.5t42.5 -177q0 -100 -42.5 -176t-118.5 -118t-177 -42zM432 160q45 0 76 21t47 69.5t16 130.5q0 90 -34.5 137.5t-102.5 47.5q-58 0 -94.5 -35.5t-36.5 -97.5q0 -58 32.5 -93.5t86.5 -35.5q41 0 67 19t36 49h2q0 -50 -7 -89.5t-27 -62t-60 -22.5
q-36 0 -56 19t-23 45h-41q5 -49 38 -75.5t81 -26.5zM433 339q-38 0 -61.5 25t-23.5 68t23.5 69t61.5 26q40 0 63.5 -24.5t23.5 -67.5q0 -40 -23 -68t-64 -28z" />
    <glyph glyph-name="G.ss01" horiz-adv-x="811" 
d="M382 -8q69 0 127 21t99 59.5t58 89.5h6l5 -162h51v381h-364v-52h298v-34q0 -76 -34.5 -132t-96.5 -86.5t-144 -30.5q-85 0 -148 39t-97 110.5t-34 168.5q0 95 34.5 166.5t99.5 111t157 39.5q104 0 170.5 -46t85.5 -125h64q-13 73 -57 123t-111.5 76.5t-151.5 26.5
q-107 0 -187 -46t-124 -129.5t-44 -197.5q0 -112 42.5 -195.5t118.5 -129.5t177 -46z" />
    <glyph glyph-name="a.ss01" horiz-adv-x="529" 
d="M209 -8q66 0 117 30t68 79h4q0 -36 2 -63t6 -38h57q-4 7 -6.5 38.5t-2.5 67.5v241q0 95 -53.5 139t-142.5 44q-90 0 -148 -42t-62 -118h57q1 50 40 80t110 30q74 0 107 -36.5t33 -95.5v-43h-151q-95 0 -151 -42t-56 -121q0 -67 47.5 -108.5t124.5 -41.5zM227 41
q-64 0 -97.5 29t-33.5 79q0 54 41 80t112 26h146v-69q0 -63 -45 -104t-123 -41z" />
    <glyph glyph-name="g.ss01" horiz-adv-x="561" 
d="M213 -167h123q83 0 134 36t50 112q-1 64 -42 93.5t-114 29.5h-156q-31 0 -56.5 11t-25.5 40q0 20 14 37t40 19q18 -7 41 -11.5t54 -4.5q87 0 140 45.5t53 118.5q0 37 -15.5 72.5t-47.5 60.5q18 36 56 54t86 14v50q-64 5 -109.5 -22.5t-63.5 -78.5q-19 11 -47 16.5
t-53 5.5q-58 0 -102 -21.5t-68.5 -59.5t-24.5 -88q0 -87 67 -129v-7q-30 -8 -49.5 -30.5t-19.5 -51.5q0 -26 14.5 -46.5t41.5 -29.5v-4q-38 -7 -68 -37t-30 -74q0 -52 42 -86t136 -34zM276 239q-64 0 -102.5 32t-38.5 90q0 54 36.5 90t102.5 36q62 0 100 -34t38 -93
q0 -53 -35.5 -87t-100.5 -34zM212 -126q-59 0 -92 22t-33 66q0 36 22.5 57t56.5 29h185q29 0 54 -6t40.5 -23.5t15.5 -51.5q0 -42 -28 -67.5t-89 -25.5h-132z" />
    <glyph glyph-name="zero.tf" horiz-adv-x="600" 
d="M302 -9q74 0 129.5 42t86.5 124t31 203q0 181 -68 275t-180 94t-181 -93.5t-69 -274.5t69 -275.5t182 -94.5zM111 360q0 156 49.5 236.5t140.5 80.5q134 0 173 -171l-356 -249q-7 47 -7 103zM301 43q-135 0 -175 170l357 249q6 -47 6 -102q0 -154 -49 -235.5t-139 -81.5z
" />
    <glyph glyph-name="one.tf" horiz-adv-x="600" 
d="M56 0h489v53h-202v668h-59q-3 -34 -18 -66.5t-46.5 -53.5t-85.5 -21h-34v-46h184v-481h-228v-53z" />
    <glyph glyph-name="two.tf" horiz-adv-x="600" 
d="M72 0h457v53l-389 -1q4 48 33 86t72.5 71.5t90.5 66.5t89 69.5t68 81t26 101.5q0 59 -27 104.5t-76 71.5t-115 26q-69 0 -121 -27.5t-80.5 -77.5t-26.5 -116h55q-3 77 44.5 123t124.5 46q73 0 117 -42t44 -111q0 -45 -21 -80.5t-55.5 -65.5t-75.5 -59t-82 -59
t-75.5 -65.5t-55.5 -79.5t-21 -101v-15z" />
    <glyph glyph-name="three.tf" horiz-adv-x="600" 
d="M296 -8q69 0 122.5 26t84.5 72.5t31 106.5q0 68 -35 114t-99 61v5q56 17 89 60.5t33 107.5q0 58 -29 99.5t-79.5 63.5t-113.5 22q-66 0 -118 -28t-81 -79t-27 -120h56q-1 81 47 128t122 47q70 0 115.5 -36.5t45.5 -101.5q0 -60 -38.5 -101.5t-112.5 -41.5h-69v-48h70
q74 0 117.5 -39.5t43.5 -108.5q0 -70 -49 -113.5t-126 -43.5q-51 0 -90.5 22.5t-61 62.5t-20.5 92h-57q-1 -64 26.5 -116t79 -82.5t123.5 -30.5z" />
    <glyph glyph-name="four.tf" horiz-adv-x="600" 
d="M403 0h59v190h101v50h-101v481h-86l-338 -482v-49h365v-190zM98 240l305 433v-433h-305z" />
    <glyph glyph-name="five.tf" horiz-adv-x="600" 
d="M294 -8q72 0 127 31.5t86 86.5t31 127q0 70 -29.5 124t-81.5 84.5t-118 30.5q-57 0 -102.5 -23.5t-69.5 -61.5l-4 1l12 277h359v52h-411l-15 -392h55q20 43 63 69.5t102 26.5q53 0 93 -24.5t62.5 -67.5t22.5 -99t-23 -99t-63.5 -66.5t-94.5 -23.5q-52 0 -92 22t-62 61.5
t-21 91.5h-57q0 -68 29.5 -119.5t82 -80t119.5 -28.5z" />
    <glyph glyph-name="six.tf" horiz-adv-x="600" 
d="M303 -8q70 0 123.5 29t84 82.5t30.5 127.5q0 71 -28 124t-77.5 82.5t-115.5 29.5q-77 0 -129.5 -38.5t-69.5 -100.5h-4q1 76 9.5 140t29.5 110.5t59.5 72.5t99.5 26q65 0 109.5 -33t51.5 -96h55q-7 84 -64 133t-152 49q-129 0 -192.5 -98t-63.5 -311q0 -156 60 -242.5
t184 -86.5zM306 45q-79 0 -127.5 48.5t-48.5 133.5q0 54 21 97t61 68.5t95 25.5q77 0 124.5 -49t47.5 -135t-47.5 -137.5t-125.5 -51.5z" />
    <glyph glyph-name="seven.tf" horiz-adv-x="600" 
d="M227 0h64q0 116 20 210t54.5 174t78.5 152.5t93 143.5v41h-474v-208h50v156h353q-46 -69 -89 -140.5t-77 -151t-53.5 -172.5t-19.5 -205z" />
    <glyph glyph-name="eight.tf" horiz-adv-x="600" 
d="M301 -8q74 0 130 24.5t87 69t31 103.5q0 67 -39.5 116t-119.5 56v3q52 7 84.5 32.5t48.5 62.5t16 78q0 58 -29.5 101t-83 67t-125.5 24t-125 -23.5t-82.5 -66t-29.5 -100.5q0 -63 36 -113.5t112 -61.5v-3q-52 -6 -88 -31.5t-54 -63t-18 -79.5q0 -59 31 -103t87.5 -68
t130.5 -24zM301 388q-91 0 -133 42t-42 103q0 67 46.5 106t128.5 39q79 0 128 -38.5t49 -106.5q0 -39 -18 -72t-56.5 -53t-102.5 -20zM301 45q-82 0 -132.5 40t-50.5 111q0 38 19 69.5t59.5 51t104.5 19.5q95 0 139.5 -40t44.5 -100q0 -69 -49.5 -110t-134.5 -41z" />
    <glyph glyph-name="nine.tf" horiz-adv-x="600" 
d="M294 -8q81 0 136 37.5t83 126.5t28 242q0 158 -59.5 245t-184.5 87q-70 0 -123.5 -29t-84 -82.5t-30.5 -127.5q0 -71 28 -124t78 -82t115 -29q78 0 130 38.5t69 99.5h4q0 -78 -7.5 -142t-26.5 -110.5t-56.5 -72t-97.5 -25.5q-68 0 -110.5 35t-48.5 95h-56
q7 -83 64.5 -132.5t149.5 -49.5zM292 304q-76 0 -123.5 49.5t-47.5 134.5q0 86 47.5 137.5t125.5 51.5q80 0 128 -48.5t48 -132.5q0 -54 -21 -97.5t-61 -69t-96 -25.5z" />
    <glyph glyph-name="zero.tf.ss03" horiz-adv-x="600" 
d="M302 -9q74 0 129.5 42t86.5 124t31 203q0 181 -68 275t-180 94t-181 -93.5t-69 -274.5t69 -275.5t182 -94.5zM301 677q87 0 135.5 -75t52.5 -220h-378q4 145 53 220t137 75zM301 43q-88 0 -137 75.5t-53 218.5h378q-4 -143 -52.5 -218.5t-135.5 -75.5z" />
    <glyph glyph-name="zero.dnom" horiz-adv-x="343" 
d="M173 -5q62 0 100.5 52t38.5 150t-38 149.5t-101 51.5q-64 0 -102.5 -51.5t-38.5 -149.5q0 -97 38.5 -149.5t102.5 -52.5zM173 32q-46 0 -71.5 41t-25.5 124t25.5 123.5t71.5 40.5q44 0 69.5 -40.5t25.5 -123.5t-25.5 -124t-69.5 -41z" />
    <glyph glyph-name="one.dnom" horiz-adv-x="208" 
d="M103 0h42v394h-41q-3 -29 -21.5 -47t-58.5 -18h-15v-33h94v-296z" />
    <glyph glyph-name="two.dnom" horiz-adv-x="321" 
d="M34 0h257v38h-122q-18 0 -42 -0.5t-41 -1.5q5 29 27 52t51 43.5t57 42.5t46.5 49t18.5 64q0 50 -33.5 81t-89.5 31q-58 0 -94 -34t-34 -90h41q-1 38 21 62t63 24q37 0 59 -21t22 -56q0 -32 -21 -56t-51.5 -45t-61.5 -44t-52 -54.5t-21 -75.5v-9z" />
    <glyph glyph-name="three.dnom" horiz-adv-x="324" 
d="M157 -5q59 0 96.5 32t37.5 81q0 35 -17.5 60.5t-53.5 34.5v2q31 10 48 34t17 57q0 48 -35.5 75.5t-89.5 27.5t-92 -32.5t-37 -92.5h41q1 41 25 64t62 23q35 0 58 -18.5t23 -50.5q0 -31 -19.5 -51.5t-57.5 -20.5h-39v-34h40q38 0 60.5 -19.5t22.5 -54.5q0 -34 -25 -56.5
t-65 -22.5q-39 0 -64 24t-24 63h-42q-1 -53 34.5 -89t95.5 -36z" />
    <glyph glyph-name="four.dnom" horiz-adv-x="317" 
d="M208 0h43v100h55v37h-55v257h-59l-183 -259v-35h199v-100zM53 137l155 218v-218h-155z" />
    <glyph glyph-name="five.dnom" horiz-adv-x="334" 
d="M164 -5q62 0 100 38t38 97q0 57 -35.5 94t-91.5 37q-28 0 -52 -11t-37 -31l-3 2l6 135h192v38h-230l-9 -219h41q10 22 31.5 35.5t52.5 13.5q40 0 65 -27t25 -68q0 -43 -25.5 -69t-66.5 -26q-39 0 -64 24t-24 62h-43q-1 -53 35 -89t95 -36z" />
    <glyph glyph-name="six.dnom" horiz-adv-x="332" 
d="M171 -4q59 0 96 35t37 96q0 59 -33.5 94t-88.5 35q-40 0 -67.5 -19t-36.5 -50h-2q0 52 8 91t30 61t62 22q33 0 55.5 -17t26.5 -46h41q-4 47 -37 74t-86 27q-72 0 -108 -54t-36 -167q0 -88 34.5 -135t104.5 -47zM172 34q-40 0 -64.5 24.5t-24.5 67.5q0 41 24 68.5t66 27.5
q38 0 62 -25t24 -69q0 -42 -24 -68t-63 -26z" />
    <glyph glyph-name="seven.dnom" horiz-adv-x="285" 
d="M98 0h47q0 84 18 146.5t48 114t64 102.5v31h-266v-120h35v82h179q-32 -47 -60.5 -98.5t-46.5 -114t-18 -143.5z" />
    <glyph glyph-name="eight.dnom" horiz-adv-x="337" 
d="M169 -4q62 0 100.5 29.5t38.5 78.5q0 36 -21.5 63t-62.5 31v1q41 7 59.5 33.5t18.5 59.5q0 48 -36 77t-97 29t-96.5 -29t-35.5 -76q0 -35 20 -61.5t57 -32.5v-1q-41 -6 -62.5 -33.5t-21.5 -61.5q0 -49 38.5 -78t100.5 -29zM169 217q-45 0 -66 20t-21 51q0 34 23.5 53.5
t63.5 19.5t64 -19t24 -54q0 -29 -20.5 -50t-67.5 -21zM169 34q-42 0 -67 20t-25 55q0 29 22 50t70 21q47 0 70 -20t23 -51q0 -34 -25.5 -54.5t-67.5 -20.5z" />
    <glyph glyph-name="nine.dnom" horiz-adv-x="333" 
d="M161 -4q68 0 104 48.5t36 169.5q0 89 -34 137t-103 48q-59 0 -96.5 -35.5t-37.5 -96.5q0 -58 33.5 -93.5t87.5 -35.5q41 0 68 19t36 50h4q0 -52 -8 -91t-28.5 -61t-60.5 -22q-37 0 -57.5 18.5t-23.5 44.5h-42q5 -47 38 -73.5t84 -26.5zM161 172q-39 0 -63 25t-24 68
t24 69.5t64 26.5q41 0 65 -25t24 -67q0 -41 -24 -69t-66 -28z" />
    <glyph glyph-name="zero.numr" horiz-adv-x="343" 
d="M173 322q62 0 100.5 52t38.5 150t-38 149.5t-101 51.5q-64 0 -102.5 -51.5t-38.5 -149.5q0 -97 38.5 -149.5t102.5 -52.5zM173 359q-46 0 -71.5 41t-25.5 124t25.5 123.5t71.5 40.5q44 0 69.5 -40.5t25.5 -123.5t-25.5 -124t-69.5 -41z" />
    <glyph glyph-name="one.numr" horiz-adv-x="208" 
d="M103 327h42v394h-41q-3 -29 -21.5 -47t-58.5 -18h-15v-33h94v-296z" />
    <glyph glyph-name="two.numr" horiz-adv-x="321" 
d="M34 327h257v39h-122q-18 0 -42 -0.5t-41 -2.5q5 29 27 52t51 44t57 43t46.5 49t18.5 63q0 50 -33.5 81t-89.5 31q-58 0 -94 -34t-34 -90h41q-1 38 21 62t63 24q37 0 59 -21t22 -55q0 -32 -21 -56t-51.5 -45t-61.5 -44.5t-52 -55t-21 -75.5v-9z" />
    <glyph glyph-name="three.numr" horiz-adv-x="324" 
d="M157 322q59 0 96.5 32t37.5 81q0 35 -17.5 60.5t-53.5 34.5v2q31 10 48 34t17 58q0 47 -35.5 74.5t-89.5 27.5t-92 -32.5t-37 -91.5h41q1 40 25 63t62 23q35 0 58 -18.5t23 -50.5q0 -31 -19.5 -51t-57.5 -20h-39v-35h40q38 0 60.5 -19.5t22.5 -54.5q0 -34 -25 -56.5
t-65 -22.5q-39 0 -64 24t-24 64h-42q-1 -54 34.5 -90t95.5 -36z" />
    <glyph glyph-name="four.numr" horiz-adv-x="317" 
d="M208 327h43v100h55v37h-55v257h-59l-183 -259v-35h199v-100zM53 464l155 218v-218h-155z" />
    <glyph glyph-name="five.numr" horiz-adv-x="334" 
d="M164 322q62 0 100 38t38 97q0 57 -35.5 94t-91.5 37q-28 0 -52 -11t-37 -30l-3 1l6 135h192v38h-230l-9 -219h41q10 22 31.5 35.5t52.5 13.5q40 0 65 -27t25 -68q0 -42 -25.5 -68.5t-66.5 -26.5q-39 0 -64 24t-24 62h-43q-1 -53 35 -89t95 -36z" />
    <glyph glyph-name="six.numr" horiz-adv-x="332" 
d="M171 323q59 0 96 35t37 96q0 59 -33.5 94t-88.5 35q-40 0 -67.5 -18.5t-36.5 -50.5h-2q0 52 8 91t30 61t62 22q33 0 55.5 -16.5t26.5 -46.5h41q-4 47 -37 74t-86 27q-72 0 -108 -54t-36 -167q0 -88 34.5 -135t104.5 -47zM172 361q-40 0 -64.5 24.5t-24.5 67.5
q0 41 24 68.5t66 27.5q38 0 62 -25t24 -68t-24 -69t-63 -26z" />
    <glyph glyph-name="seven.numr" horiz-adv-x="285" 
d="M98 327h47q0 84 18 146.5t48 114t64 102.5v31h-266v-120h35v82h179q-32 -47 -60.5 -98.5t-46.5 -114t-18 -143.5z" />
    <glyph glyph-name="eight.numr" horiz-adv-x="337" 
d="M169 323q62 0 100.5 29.5t38.5 78.5q0 36 -21.5 63t-62.5 31v1q41 7 59.5 33.5t18.5 59.5q0 48 -36 77t-97 29t-96.5 -28.5t-35.5 -76.5q0 -35 20 -61t57 -33v-1q-41 -5 -62.5 -33t-21.5 -62q0 -49 38.5 -78t100.5 -29zM169 544q-45 0 -66 20.5t-21 51.5q0 33 23.5 52.5
t63.5 19.5t64 -19t24 -53q0 -30 -20.5 -51t-67.5 -21zM169 361q-42 0 -67 20t-25 56q0 28 22 49t70 21q47 0 70 -20t23 -50q0 -35 -25.5 -55.5t-67.5 -20.5z" />
    <glyph glyph-name="nine.numr" horiz-adv-x="333" 
d="M161 323q68 0 104 49t36 170q0 89 -34 136.5t-103 47.5q-59 0 -96.5 -35.5t-37.5 -96.5q0 -58 33.5 -93t87.5 -35q41 0 68 18.5t36 49.5h4q0 -52 -8 -91t-28.5 -61t-60.5 -22q-37 0 -57.5 18.5t-23.5 44.5h-42q5 -47 38 -73.5t84 -26.5zM161 499q-39 0 -63 25.5t-24 68.5
q0 42 24 68.5t64 26.5q41 0 65 -25t24 -67q0 -41 -24 -69t-66 -28z" />
    <glyph glyph-name="parenleft.case" horiz-adv-x="304" 
d="M219 -63h55q-48 45 -84.5 112t-57 148t-20.5 168q0 83 19 163.5t55.5 149t87.5 115.5h-55q-52 -48 -89 -116t-56.5 -148t-19.5 -164q0 -83 19.5 -163.5t56.5 -148.5t89 -116z" />
    <glyph glyph-name="parenright.case" horiz-adv-x="304" 
d="M30 -63h55q52 48 89 116t56.5 148.5t19.5 163.5q0 84 -19.5 164t-56.5 148t-89 116h-55q51 -47 87.5 -115.5t55.5 -149t19 -163.5q0 -87 -20.5 -168t-57 -148t-84.5 -112z" />
    <glyph glyph-name="braceleft.case" horiz-adv-x="359" 
d="M186 -63h163v46h-160v275q0 44 -20.5 73.5t-52.5 33.5v4q29 2 51 29.5t22 76.5v271h160v47h-163q-27 0 -40 -15.5t-13 -39.5v-262q0 -41 -19.5 -63t-43.5 -22h-30v-51h30q24 0 43.5 -21.5t19.5 -62.5v-264q0 -24 13 -39.5t40 -15.5z" />
    <glyph glyph-name="braceright.case" horiz-adv-x="359" 
d="M10 -63h163q27 0 40 15.5t13 39.5v264q0 41 19.5 62.5t43.5 21.5h30v51h-30q-24 0 -43.5 22t-19.5 63v262q0 24 -13 39.5t-40 15.5h-163v-47h160v-271q0 -49 22.5 -76.5t50.5 -29.5v-4q-31 -4 -52 -33.5t-21 -73.5v-275h-160v-46z" />
    <glyph glyph-name="bracketleft.case" horiz-adv-x="324" 
d="M98 -63h217v46h-161v763h161v47h-217v-856z" />
    <glyph glyph-name="bracketright.case" horiz-adv-x="324" 
d="M10 -63h216v856h-216v-47h160v-763h-160v-46z" />
    <glyph glyph-name="M.BRACKET.300" horiz-adv-x="905" 
d="M98 0h61v393l-2 269h6l263 -662h54l262 662h7l-3 -268v-394h61v729h-97l-257 -639h-2l-256 639h-97v-729z" />
    <glyph glyph-name="a.ss01.BRACKET.300" horiz-adv-x="543" 
d="M214 -8q66 0 117.5 29t68.5 78h3v-33q0 -40 20 -57t51 -17q13 0 25.5 3t21.5 10v43q-13 -11 -30 -11q-16 0 -24 9.5t-8 34.5v268q0 95 -53.5 138t-142.5 43q-90 0 -148 -41.5t-62 -115.5h57q2 48 40.5 77.5t109.5 29.5q74 0 107 -35.5t33 -94.5v-50h-151
q-94 0 -150.5 -41.5t-56.5 -118.5q0 -67 47.5 -107.5t124.5 -40.5zM232 41q-64 0 -97.5 28t-33.5 77q0 57 41.5 84.5t111.5 27.5h146v-75q0 -61 -45 -101.5t-123 -40.5z" />
    <glyph glyph-name="cent.BRACKET.500" horiz-adv-x="558" 
d="M258 -85h43v77q88 3 146.5 53.5t66.5 133.5h-58q-7 -61 -52 -98t-114 -37q-85 0 -136 57.5t-51 157.5q0 98 50 158t138 60q62 0 107 -32.5t56 -93.5h57q-5 52 -33.5 91.5t-74 62t-102.5 24.5v76h-43v-78q-65 -8 -113.5 -43.5t-74.5 -93t-26 -131.5t26.5 -131t74.5 -92
t113 -42v-79z" />
    <glyph glyph-name="dollar.BRACKET.500" horiz-adv-x="629" 
d="M293 -85h43v77q117 4 179.5 58t62.5 140q0 60 -19 98t-52.5 60.5t-77 35t-91.5 21.5q-74 15 -119.5 30.5t-66 42t-20.5 73.5q0 62 46 99t128 37q85 0 134 -41t51 -119h64q-2 89 -58 146t-161 63v78h-43v-77q-106 -5 -166 -57.5t-60 -136.5q0 -62 28 -99.5t82.5 -58.5
t132.5 -36q75 -14 120 -33t64.5 -49.5t19.5 -80.5q0 -73 -54.5 -108t-142.5 -35q-103 0 -151.5 49t-50.5 134h-64q1 -98 60 -162.5t182 -70.5v-78z" />
    <glyph glyph-name="e.BRACKET.300" horiz-adv-x="555" 
d="M285 -8q59 0 106.5 20t78.5 57t39 87h-58q-12 -52 -55.5 -83.5t-110.5 -31.5q-82 0 -132 55.5t-52 155.5h410q7 80 -16.5 142.5t-76.5 98.5t-135 36q-75 0 -129 -33.5t-83 -94.5t-29 -142q0 -80 29.5 -140.5t84.5 -93.5t129 -33zM282 480q76 0 123.5 -45.5t48.5 -138.5
h-352q4 84 52.5 134t127.5 50z" />
    <glyph glyph-name="f.BRACKET.200" horiz-adv-x="312" 
d="M119 0h59v472h123v49h-123v92q0 32 13 50.5t53 18.5h69v47h-80q-52 0 -83 -27t-31 -82v-99h-104v-49h104v-472z" />
    <glyph glyph-name="s.BRACKET.300" horiz-adv-x="491" 
d="M248 -10q91 0 146 39t55 112q0 52 -23 81.5t-65 44.5t-99 23q-76 11 -112.5 31.5t-36.5 67.5q0 43 35 69t98 26q60 0 97 -26.5t38 -88.5h58q-1 75 -51 118.5t-142 43.5q-86 0 -139 -40.5t-53 -107.5q0 -70 49 -100t143 -44q76 -11 109.5 -31.5t33.5 -71.5q0 -47 -36 -73
t-104 -26q-67 0 -109 30.5t-42 94.5h-58q0 -77 54 -124.5t154 -47.5z" />
    <glyph glyph-name="w.BRACKET.300" horiz-adv-x="700" 
d="M150 0h78l119 447h3l124 -447h77l142 521h-58l-122 -462h-2l-127 462h-68l-121 -462h-3l-125 462h-60z" />
    </font>
</defs>
</svg>
