<?xml version="1.0" standalone="no"?>
<!DOCTYPE svg PUBLIC "-//W3C//DTD SVG 1.1//EN" "http://www.w3.org/Graphics/SVG/1.1/DTD/svg11.dtd" >
<svg xmlns="http://www.w3.org/2000/svg" xmlns:xlink="http://www.w3.org/1999/xlink" version="1.1">
<metadata>
Created by FontForge 20201107 at Thu Aug 11 23:52:02 2022
 By 
Copyright (c) 2017 by Deni Anggara. All rights reserved.
</metadata>
<defs>
<font id="Mona-Sans-Regular" horiz-adv-x="600" >
  <font-face 
    font-family="Mona-Sans Regular"
    font-weight="400"
    font-stretch="normal"
    units-per-em="1000"
    panose-1="0 0 0 0 0 0 0 0 0 0"
    ascent="800"
    descent="-200"
    x-height="525"
    cap-height="729"
    bbox="-218 -224 1150 996"
    underline-thickness="50"
    underline-position="-125"
    unicode-range="U+000D-FB02"
  />
<missing-glyph horiz-adv-x="865" 
d="M432 738q-79 0 -148.5 -29.5t-122 -82t-82 -122t-29.5 -148.5q0 -85 33.5 -158.5t92.5 -127t136 -78.5q11 -3 18 2t7 16v70q-40 -8 -65.5 -2.5t-39.5 17t-19.5 21.5l-5.5 10q-12 34 -26 45l-14 11q-17 12 -15.5 17t9 6l7.5 1q19 -1 32.5 -11.5t20.5 -20l7 -9.5
q16 -29 37.5 -36t41.5 -3t30 8q3 18 10.5 31.5t15.5 20.5q-32 4 -63.5 13.5t-56.5 30t-40 56t-15 90.5q0 30 10.5 56t29.5 45q-3 8 -7.5 35t11.5 67l11 0.5t34 -7t59 -33.5q24 8 48 11t48 3q25 0 49 -3t48 -11q37 26 59.5 33.5t33.5 7l11 -0.5q17 -40 12 -67t-8 -35
q19 -19 29.5 -45t10.5 -56q0 -56 -15 -91.5t-40 -56t-56.5 -29.5t-63.5 -13q10 -8 18 -26.5t8 -44.5v-105q0 -11 7.5 -16t19.5 -2q76 25 134.5 78.5t92 127t33.5 158.5q0 79 -29.5 148.5t-82 122t-122 82t-149.5 29.5zM196 189q0 3 -5 3q-2 3 -4 2.5t-2 -2.5q-1 -2 3 -5
q7 -2 8 2zM209 171q2 1 0 8q-4 4 -9 1q-3 -3 2 -8l4 -2t3 1zM227 148q2 3 0 10q-6 6 -11 3q-1 -1 -1 -4.5t1 -5.5q2 -2 5.5 -3t5.5 0zM246 127q3 3 -2 10q-5 5 -10 2q-3 -4 3 -10q4 -7 9 -2zM274 115q0 6 -5 8q-8 3 -10 -3q0 -5 5 -8q8 -2 10 3zM334 118q0 2 -2.5 3.5
t-5.5 0.5q-4 0 -6 -2.5t-1 -4.5q0 -4 8 -4q3 1 6 3t1 4zM305 114q0 4 -7 4t-7 -4q0 -2 2 -5.5t5 -3.5q7 4 7 9z" />
    <glyph glyph-name="fl" unicode="fl" horiz-adv-x="580" 
d="M113 0h81v458h229v-458h81v729h-81v-204h-229v81q0 29 13.5 46.5t50.5 17.5h68v59h-87q-58 0 -92 -29t-34 -86v-89h-100v-67h100v-458z" />
    <glyph glyph-name="f_f.liga" unicode="ff" horiz-adv-x="620" 
d="M113 0h81v458h214v-458h81v458h120v67h-120v81q0 29 13 46.5t50 17.5h69v59h-88q-58 0 -91.5 -29t-33.5 -86v-89h-214v81q0 29 13.5 46.5t50.5 17.5h68v59h-87q-58 0 -92 -29t-34 -86v-89h-100v-67h100v-458z" />
    <glyph glyph-name="t_t.liga" unicode="tt" horiz-adv-x="644" 
d="M215 0h100v68h-75q-27 0 -37 9t-10 37v344h217v-358q0 -49 22.5 -74.5t80.5 -25.5h100v68h-75q-27 0 -37 9t-10 37v344h122v67h-122v168l-81 -11v-157h-217v168l-81 -11v-157h-102v-67h102v-358q0 -49 22.5 -74.5t80.5 -25.5z" />
    <glyph glyph-name=".notdef" horiz-adv-x="865" 
d="M432 738q-79 0 -148.5 -29.5t-122 -82t-82 -122t-29.5 -148.5q0 -85 33.5 -158.5t92.5 -127t136 -78.5q11 -3 18 2t7 16v70q-40 -8 -65.5 -2.5t-39.5 17t-19.5 21.5l-5.5 10q-12 34 -26 45l-14 11q-17 12 -15.5 17t9 6l7.5 1q19 -1 32.5 -11.5t20.5 -20l7 -9.5
q16 -29 37.5 -36t41.5 -3t30 8q3 18 10.5 31.5t15.5 20.5q-32 4 -63.5 13.5t-56.5 30t-40 56t-15 90.5q0 30 10.5 56t29.5 45q-3 8 -7.5 35t11.5 67l11 0.5t34 -7t59 -33.5q24 8 48 11t48 3q25 0 49 -3t48 -11q37 26 59.5 33.5t33.5 7l11 -0.5q17 -40 12 -67t-8 -35
q19 -19 29.5 -45t10.5 -56q0 -56 -15 -91.5t-40 -56t-56.5 -29.5t-63.5 -13q10 -8 18 -26.5t8 -44.5v-105q0 -11 7.5 -16t19.5 -2q76 25 134.5 78.5t92 127t33.5 158.5q0 79 -29.5 148.5t-82 122t-122 82t-149.5 29.5zM196 189q0 3 -5 3q-2 3 -4 2.5t-2 -2.5q-1 -2 3 -5
q7 -2 8 2zM209 171q2 1 0 8q-4 4 -9 1q-3 -3 2 -8l4 -2t3 1zM227 148q2 3 0 10q-6 6 -11 3q-1 -1 -1 -4.5t1 -5.5q2 -2 5.5 -3t5.5 0zM246 127q3 3 -2 10q-5 5 -10 2q-3 -4 3 -10q4 -7 9 -2zM274 115q0 6 -5 8q-8 3 -10 -3q0 -5 5 -8q8 -2 10 3zM334 118q0 2 -2.5 3.5
t-5.5 0.5q-4 0 -6 -2.5t-1 -4.5q0 -4 8 -4q3 1 6 3t1 4zM305 114q0 4 -7 4t-7 -4q0 -2 2 -5.5t5 -3.5q7 4 7 9z" />
    <glyph glyph-name=".null" horiz-adv-x="0" 
 />
    <glyph glyph-name="nonmarkingreturn" horiz-adv-x="333" 
 />
    <glyph glyph-name="CR" unicode="&#xd;" horiz-adv-x="228" 
 />
    <glyph glyph-name="space" unicode=" " horiz-adv-x="229" 
 />
    <glyph glyph-name="exclam" unicode="!" horiz-adv-x="248" 
d="M102 199h43l20 292v238h-83v-238zM83 0h81v91h-81v-91z" />
    <glyph glyph-name="quotedbl" unicode="&#x22;" horiz-adv-x="388" 
d="M120 424l17 166v139h-72v-139l17 -166h38zM306 424l17 166v139h-72v-139l17 -166h38z" />
    <glyph glyph-name="numbersign" unicode="#" horiz-adv-x="658" 
d="M155 0h72v204h209v-204h71v204h116v64h-116v210h116v63h-116v188h-71v-188h-209v188h-72v-188h-120v-63h120v-210h-120v-64h120v-204zM227 268v210h209v-210h-209z" />
    <glyph glyph-name="dollar" unicode="$" horiz-adv-x="635" 
d="M287 -85h61v77q117 6 178 62t61 142q0 61 -19.5 99.5t-53 61.5t-76.5 35.5t-90 21.5v253q58 -8 92.5 -43.5t37.5 -97.5h86q-1 88 -57 144.5t-159 65.5v78h-61v-78q-106 -6 -165 -59.5t-59 -139.5q0 -62 26 -100t76.5 -60t121.5 -36v-280q-78 8 -114.5 52t-38.5 114h-88
q2 -97 60.5 -162t180.5 -73v-77zM151 548q0 51 35.5 83.5t100.5 37.5v-243q-73 16 -104.5 41t-31.5 81zM499 188q0 -60 -41.5 -91.5t-109.5 -36.5v269q83 -19 117 -48.5t34 -92.5z" />
    <glyph glyph-name="percent" unicode="%" horiz-adv-x="852" 
d="M162 0h65l463 729h-65zM189 328q65 0 104.5 51t39.5 148q0 94 -38.5 146t-103.5 52q-66 0 -106 -51t-40 -146q0 -94 38.5 -147t105.5 -53zM190 380q-39 0 -61.5 34t-22.5 113t23 112.5t61 33.5t60 -33.5t22 -112.5t-22 -113t-60 -34zM664 -4q64 0 103.5 51t39.5 147
q0 95 -38.5 147t-103.5 52q-66 0 -106 -51.5t-40 -146.5q0 -94 39 -146.5t106 -52.5zM664 48q-38 0 -61 33.5t-23 112.5q0 80 23 113.5t61 33.5q37 0 59 -33.5t22 -113.5q0 -79 -22 -112.5t-59 -33.5z" />
    <glyph glyph-name="ampersand" unicode="&#x26;" horiz-adv-x="713" 
d="M271 -10q69 0 130 26t100 79l85 -95h98l-133 148q20 34 33 82t18 92h101v60h-161q-1 -45 -10.5 -96.5t-27.5 -87.5l-173 193v5q70 24 114.5 71.5t44.5 114.5q0 46 -22 81.5t-60 55.5t-88 20q-82 0 -132 -46t-50 -118q0 -49 23 -89t62 -83q-82 -36 -125 -93.5t-43 -124.5
q0 -64 29.5 -107.5t78.5 -65.5t108 -22zM288 435q-31 35 -51.5 65.5t-20.5 70.5q0 43 27 72t76 29q45 0 72 -27.5t27 -69.5q0 -49 -34.5 -84t-90.5 -56h-5zM135 193q0 53 34 96t96 69l190 -212q-25 -40 -68.5 -64t-102.5 -24q-63 0 -106 34t-43 101z" />
    <glyph glyph-name="quotesingle" unicode="'" horiz-adv-x="202" 
d="M120 424l17 166v139h-72v-139l17 -166h38z" />
    <glyph glyph-name="parenleft" unicode="(" horiz-adv-x="336" 
d="M234 -167h72q-52 52 -91.5 127t-61.5 165.5t-22 187.5q0 93 21 182.5t60 166.5t94 131h-72q-57 -53 -98 -130t-63 -167t-22 -183t22 -183t63 -167t98 -130z" />
    <glyph glyph-name="parenright" unicode=")" horiz-adv-x="336" 
d="M102 793h-72q52 -52 91.5 -127t61.5 -165.5t22 -187.5q0 -93 -21 -182.5t-60 -166.5t-94 -131h72q57 53 98 130t63 167t22 183t-22 183t-63 167t-98 130z" />
    <glyph glyph-name="asterisk" unicode="*" horiz-adv-x="325" 
d="M141 450h42v55l-10 66l53 -41l47 -28l21 36l-47 28l-60 24l60 25l46 26l-20 36l-47 -26l-53 -41l10 66v53h-42v-53l11 -66l-53 41l-47 26l-20 -36l46 -26l61 -25l-61 -24l-47 -28l21 -36l47 28l53 41l-11 -66v-55z" />
    <glyph glyph-name="plus" unicode="+" horiz-adv-x="547" 
d="M239 123h68v205h205v66h-205v205h-68v-205h-204v-66h204v-205z" />
    <glyph glyph-name="comma" unicode="," horiz-adv-x="194" 
d="M37 -155l21 1q38 2 58 24t20 73v147h-83v-90h38v-52q0 -24 -9 -39.5t-32 -17.5h-13v-46z" />
    <glyph glyph-name="hyphen" unicode="-" horiz-adv-x="347" 
d="M30 228h287v69h-287v-69z" />
    <glyph glyph-name="period" unicode="." horiz-adv-x="199" 
d="M58 0h83v90h-83v-90z" />
    <glyph glyph-name="slash" unicode="/" horiz-adv-x="475" 
d="M30 -81h80l314 810h-78z" />
    <glyph glyph-name="zero" unicode="0" horiz-adv-x="586" 
d="M294 -9q76 0 133 42.5t89 125t32 202.5q0 178 -69 273t-185 95q-115 0 -186 -93.5t-71 -274.5q0 -178 70 -274t187 -96zM293 61q-82 0 -128 74t-46 226t46 225.5t128 73.5t127.5 -73.5t45.5 -225.5t-45.5 -226t-127.5 -74z" />
    <glyph glyph-name="one" unicode="1" horiz-adv-x="391" 
d="M204 0h81v721h-79q-5 -53 -38.5 -85.5t-106.5 -32.5h-27v-62h170v-541z" />
    <glyph glyph-name="two" unicode="2" horiz-adv-x="565" 
d="M45 0h470v72h-371q7 43 35.5 78t70 66.5t86 63t83 67t63 79t24.5 99.5q0 61 -28 107t-78.5 72t-118.5 26q-71 0 -124.5 -28t-82.5 -79t-27 -120h78q-3 72 39.5 114t111.5 42q66 0 106 -37.5t40 -101.5q0 -42 -20.5 -75.5t-54 -62.5t-73.5 -57t-80.5 -58t-74 -66t-54 -81
t-20.5 -104v-16z" />
    <glyph glyph-name="three" unicode="3" horiz-adv-x="578" 
d="M279 -9q74 0 129 26t85.5 73t30.5 109q0 67 -33.5 113t-94.5 60v5q53 17 85 60.5t32 104.5q0 86 -62 137t-167 51q-72 0 -125.5 -28t-82.5 -79t-28 -120h78q1 71 41.5 113.5t114.5 42.5q66 0 106.5 -32.5t40.5 -92.5q0 -55 -35.5 -92.5t-103.5 -37.5h-71v-64h74
q66 0 106.5 -33.5t40.5 -101.5q0 -65 -44 -104t-117 -39t-116.5 44t-41.5 115h-79q-1 -69 27.5 -120.5t82.5 -80.5t127 -29z" />
    <glyph glyph-name="four" unicode="4" horiz-adv-x="627" 
d="M408 0h81v183h100v68h-100v470h-110l-333 -473v-65h362v-183zM131 251l277 392v-392h-277z" />
    <glyph glyph-name="five" unicode="5" horiz-adv-x="597" 
d="M293 -9q77 0 133 31t87 86.5t31 129.5q0 72 -28.5 126t-80.5 84.5t-123 30.5q-52 0 -95.5 -20.5t-66.5 -55.5l-5 2l11 245h353v71h-424l-16 -400h76q17 39 56.5 64t94.5 25q74 0 119 -46t45 -129q0 -76 -43 -124t-123 -48q-73 0 -117 43.5t-43 113.5h-80q0 -68 29.5 -120
t83.5 -80.5t126 -28.5z" />
    <glyph glyph-name="six" unicode="6" horiz-adv-x="590" 
d="M301 -8q72 0 127 29t86 83t31 129q0 72 -28 125t-78 82t-116 29q-72 0 -122 -34t-67 -91h-5q1 93 16 164t54 111t112 40q60 0 100.5 -29.5t47.5 -84.5h78q-8 85 -67 135t-159 50q-131 0 -197 -97.5t-66 -305.5q0 -162 63 -248.5t190 -86.5zM303 63q-72 0 -116.5 44.5
t-44.5 122.5q0 50 19.5 90t56 63t87.5 23q71 0 114 -45.5t43 -124.5t-43.5 -126t-115.5 -47z" />
    <glyph glyph-name="seven" unicode="7" horiz-adv-x="584" 
d="M206 0h87q0 114 19 206t52 170t75.5 148t90.5 139v58h-487v-220h67v149h324q-44 -64 -85 -133t-73 -146.5t-51 -169t-19 -201.5z" />
    <glyph glyph-name="eight" unicode="8" horiz-adv-x="599" 
d="M300 -7q76 0 133 24t89 68.5t32 104.5q0 67 -39 116t-113 56v4q73 11 107 59.5t34 109.5q0 58 -29.5 101.5t-84 68t-129.5 24.5q-112 0 -177 -52.5t-65 -140.5q0 -61 34.5 -109.5t106.5 -60.5v-4q-50 -6 -84.5 -31.5t-52 -62.5t-17.5 -79q0 -60 32 -104t89.5 -68
t133.5 -24zM300 397q-82 0 -120 37t-38 94q0 61 42 97t116 36q72 0 116 -35.5t44 -97.5q0 -54 -37.5 -92.5t-122.5 -38.5zM300 63q-75 0 -121 36.5t-46 100.5q0 53 40 91t127 38q86 0 126.5 -36.5t40.5 -92.5q0 -62 -45 -99.5t-122 -37.5z" />
    <glyph glyph-name="nine" unicode="9" horiz-adv-x="589" 
d="M284 -8q83 0 140 38.5t86.5 126.5t29.5 236q0 164 -63 250.5t-189 86.5q-72 0 -127.5 -29t-86.5 -83t-31 -130q0 -70 28 -123t78 -82.5t116 -29.5q74 0 123 35t67 90h4q0 -94 -13 -165t-50.5 -110.5t-110.5 -39.5q-61 0 -100.5 31t-45.5 83h-78q8 -85 67.5 -135
t155.5 -50zM283 317q-70 0 -113.5 45t-43.5 124q0 78 44 125.5t115 47.5q74 0 117.5 -45t43.5 -122q0 -75 -43 -125t-120 -50z" />
    <glyph glyph-name="colon" unicode=":" horiz-adv-x="199" 
d="M58 434h83v91h-83v-91zM58 0h83v90h-83v-90z" />
    <glyph glyph-name="semicolon" unicode=";" horiz-adv-x="194" 
d="M53 434h83v91h-83v-91zM37 -155l21 1q38 2 58 24t20 73v147h-83v-90h38v-52q0 -24 -9 -39.5t-32 -17.5h-13v-46z" />
    <glyph glyph-name="less" unicode="&#x3c;" horiz-adv-x="687" 
d="M588 117v80l-410 160v7l410 160v81l-488 -198v-93z" />
    <glyph glyph-name="equal" unicode="=" horiz-adv-x="666" 
d="M95 441h476v65h-476v-65zM95 215h476v66h-476v-66z" />
    <glyph glyph-name="greater" unicode="&#x3e;" horiz-adv-x="687" 
d="M100 117l488 197v93l-488 198v-81l409 -160v-7l-409 -160v-80z" />
    <glyph glyph-name="question" unicode="?" horiz-adv-x="541" 
d="M242 186h75v17q0 37 18 68t44 59.5t52 60t44 69.5t18 87q0 86 -55.5 138.5t-161.5 52.5q-69 0 -121 -27t-80.5 -75t-28.5 -113h80q-1 64 37.5 105t108.5 41q62 0 99.5 -31.5t37.5 -96.5q0 -42 -17 -74.5t-41.5 -61.5t-49.5 -58.5t-42 -64t-17 -79.5v-17zM239 0h83v90h-83
v-90z" />
    <glyph glyph-name="at" unicode="@" horiz-adv-x="889" 
d="M455 -101q44 0 89.5 8.5t86 25.5t68.5 40l-22 46q-39 -31 -95.5 -48.5t-125.5 -17.5q-110 0 -189 46t-120.5 128.5t-41.5 189.5t42.5 190t121.5 130t188 47q98 0 172.5 -39t116.5 -111t42 -171q0 -91 -34 -148.5t-90 -57.5q-34 0 -51.5 26.5t-13.5 84.5l16 236h-44
l-10 -79h-5q-11 43 -42.5 66.5t-72.5 23.5q-73 0 -118 -60t-45 -160q0 -94 43 -141t104 -47q41 0 76.5 25t51.5 76h4q5 -48 32 -76t76 -28q54 0 95.5 33.5t64.5 93t23 136.5q0 111 -50 194.5t-138 130t-202 46.5q-124 0 -217.5 -53.5t-146 -149t-52.5 -221.5
q0 -124 51 -217.5t144 -145.5t218 -52zM434 159q-44 0 -70.5 35t-26.5 104q0 73 28.5 119.5t83.5 46.5q45 0 72 -36t29 -108q-4 -71 -34 -116t-82 -45z" />
    <glyph glyph-name="A" unicode="A" horiz-adv-x="660" 
d="M4 0h90l65 180h343l66 -180h89l-267 729h-119zM181 248l91 244l57 157h5l56 -157l90 -244h-299z" />
    <glyph glyph-name="B" unicode="B" horiz-adv-x="700" 
d="M93 0h318q114 0 179.5 53.5t65.5 149.5q0 63 -35 111t-104 61v4q61 15 90.5 60t29.5 103q0 84 -56 135.5t-161 51.5h-327v-729zM177 407v253h225q68 0 109 -33.5t41 -95.5q0 -55 -35 -89.5t-103 -34.5h-237zM177 69v271h241q71 0 111 -34.5t40 -97.5q0 -61 -41 -100
t-124 -39h-227z" />
    <glyph glyph-name="C" unicode="C" horiz-adv-x="764" 
d="M395 -9q89 0 159 31t114 88t54 133l-87 1q-13 -81 -77.5 -129.5t-162.5 -48.5q-82 0 -141.5 36t-91.5 103t-32 159q0 140 71 219t194 79q98 0 161.5 -48.5t78.5 -125.5h87q-11 76 -55.5 132t-114 86.5t-157.5 30.5q-106 0 -185.5 -46t-123.5 -129.5t-44 -197.5t44 -197.5
t123.5 -129.5t185.5 -46z" />
    <glyph glyph-name="D" unicode="D" horiz-adv-x="748" 
d="M93 0h287q103 0 176 45.5t112 127.5t39 191q0 110 -39 192t-112 127.5t-176 45.5h-287v-729zM178 75v579h191q113 0 181.5 -72.5t68.5 -215.5q0 -142 -67.5 -216.5t-182.5 -74.5h-191z" />
    <glyph glyph-name="E" unicode="E" horiz-adv-x="646" 
d="M93 0h502v76h-417v262h367v70h-367v246h416v75h-501v-729z" />
    <glyph glyph-name="F" unicode="F" horiz-adv-x="623" 
d="M93 0h85v324h374v71h-374v259h414v75h-499v-729z" />
    <glyph glyph-name="G" unicode="G" horiz-adv-x="787" 
d="M396 -9q105 0 183.5 41.5t122 117.5t43.5 181v44h-336v-66h248q-3 -77 -36 -131.5t-90.5 -83.5t-133.5 -29q-81 0 -141.5 36.5t-93.5 103.5t-33 160t33.5 159t94.5 101.5t142 35.5q61 0 112 -20t85 -58t44 -94h88q-10 75 -54 131t-114.5 86.5t-160.5 30.5
q-106 0 -186.5 -45.5t-125.5 -129t-45 -198.5q0 -111 43 -195t122.5 -131t188.5 -47z" />
    <glyph glyph-name="H" unicode="H" horiz-adv-x="798" 
d="M93 0h85v332h441v-332h85v729h-85v-322h-441v322h-85v-729z" />
    <glyph glyph-name="I" unicode="I" horiz-adv-x="272" 
d="M93 0h85v729h-85v-729z" />
    <glyph glyph-name="J" unicode="J" horiz-adv-x="398" 
d="M111 -8q89 0 141.5 44.5t52.5 144.5v548h-85v-541q0 -65 -32 -94.5t-91 -29.5q-26 0 -47 6t-35 15v-72q16 -9 41 -15t55 -6z" />
    <glyph glyph-name="K" unicode="K" horiz-adv-x="685" 
d="M93 0h85v225l134 139l248 -364h102l-292 426l286 303h-105l-373 -401v401h-85v-729z" />
    <glyph glyph-name="L" unicode="L" horiz-adv-x="547" 
d="M93 0h445v78h-360v651h-85v-729z" />
    <glyph glyph-name="M" unicode="M" horiz-adv-x="913" 
d="M93 0h84v367l-2 271h7l240 -638h70l239 638h7l-3 -271v-367h84v729h-131l-230 -598h-4l-229 598h-132v-729z" />
    <glyph glyph-name="N" unicode="N" horiz-adv-x="790" 
d="M93 0h87v379l-4 234h6l411 -613h104v729h-83v-369l5 -249h-6l-412 618h-108v-729z" />
    <glyph glyph-name="O" unicode="O" horiz-adv-x="796" 
d="M398 -9q107 0 187.5 45.5t125 129.5t44.5 198q0 115 -44.5 198.5t-124.5 129t-188 45.5q-107 0 -187 -45.5t-124.5 -129t-44.5 -198.5q0 -114 44 -197.5t124.5 -129.5t187.5 -46zM398 66q-82 0 -142 36t-93 103t-33 159q0 93 32.5 159.5t93 102.5t142.5 36q83 0 143 -36
t93 -102.5t33 -159.5q0 -92 -33 -159t-93 -103t-143 -36z" />
    <glyph glyph-name="P" unicode="P" horiz-adv-x="658" 
d="M93 0h85v273h200q78 0 134.5 28t87 79.5t30.5 120.5q0 109 -68 168.5t-183 59.5h-286v-729zM366 343h-188v311h188q80 0 128 -39t48 -116q0 -76 -47.5 -116.5t-128.5 -39.5z" />
    <glyph glyph-name="Q" unicode="Q" horiz-adv-x="796" 
d="M656 -170h14v78l-187 96q84 16 145 64.5t94 123.5t33 172q0 115 -44.5 198.5t-124.5 129t-188 45.5q-107 0 -187 -45.5t-124.5 -129t-44.5 -198.5q0 -113 44 -196.5t123 -129.5t184 -47zM398 66q-82 0 -142 36t-93 103t-33 159q0 93 32.5 159.5t93 102.5t142.5 36
q83 0 143 -36t93 -102.5t33 -159.5q0 -92 -33 -159t-93 -103t-143 -36z" />
    <glyph glyph-name="R" unicode="R" horiz-adv-x="713" 
d="M93 0h85v309h239q56 0 86 -13.5t41.5 -40.5t11.5 -67v-108q0 -25 2 -45t9 -35h86q-8 20 -9.5 39.5t-1.5 37.5v126q0 62 -26 98.5t-88 46.5v7q64 17 97 63.5t33 113.5q0 95 -59.5 146t-175.5 51h-330v-729zM178 379v277h234q71 0 114.5 -32t43.5 -103q0 -62 -36.5 -102
t-121.5 -40h-234z" />
    <glyph glyph-name="S" unicode="S" horiz-adv-x="655" 
d="M330 -9q135 0 206.5 57t71.5 148q0 61 -20 100t-55.5 61.5t-80.5 35t-95 21.5q-73 13 -118.5 27t-66 38.5t-20.5 68.5q0 55 44 88.5t124 33.5t127 -36.5t50 -107.5h87q-1 95 -68.5 153t-191.5 58q-122 0 -191 -54.5t-69 -146.5q0 -62 28.5 -100.5t84.5 -61t139 -37.5
q75 -12 119.5 -28.5t64 -44.5t19.5 -76q0 -65 -51.5 -96.5t-136.5 -31.5q-100 0 -147 45t-49 122h-89q2 -69 32.5 -122t93 -83.5t158.5 -30.5z" />
    <glyph glyph-name="T" unicode="T" horiz-adv-x="578" 
d="M245 0h86v654h237v75h-559v-75h236v-654z" />
    <glyph glyph-name="U" unicode="U" horiz-adv-x="759" 
d="M379 -9q139 0 215.5 74.5t76.5 201.5v462h-84v-460q0 -91 -51 -145.5t-156 -54.5q-96 0 -152 50t-56 150v460h-85v-462q0 -129 78 -202.5t214 -73.5z" />
    <glyph glyph-name="V" unicode="V" horiz-adv-x="671" 
d="M277 0h117l271 729h-93l-195 -537l-38 -112h-7l-38 113l-193 536h-95z" />
    <glyph glyph-name="W" unicode="W" horiz-adv-x="940" 
d="M175 0h119l173 623h6l173 -623h119l165 729h-93l-90 -422l-42 -214h-7l-172 636h-111l-171 -635h-6l-44 213l-91 422h-93z" />
    <glyph glyph-name="X" unicode="X" horiz-adv-x="655" 
d="M-2 0h99l228 332h3l229 -332h101l-273 395l233 334h-99l-190 -280h-4l-190 280h-99l235 -335z" />
    <glyph glyph-name="Y" unicode="Y" horiz-adv-x="635" 
d="M274 0h85v291l271 438h-96l-215 -355h-5l-213 355h-97l270 -438v-291z" />
    <glyph glyph-name="Z" unicode="Z" horiz-adv-x="643" 
d="M42 0h559v76h-451l440 583v70h-532v-75h423l-439 -584v-70z" />
    <glyph glyph-name="bracketleft" unicode="[" horiz-adv-x="333" 
d="M93 -167h230v64h-153v832h153v64h-230v-960z" />
    <glyph glyph-name="backslash" unicode="\" horiz-adv-x="475" 
d="M365 -81h80l-316 810h-78z" />
    <glyph glyph-name="bracketright" unicode="]" horiz-adv-x="333" 
d="M240 793h-230v-64h153v-832h-153v-64h230v960z" />
    <glyph glyph-name="asciicircum" unicode="^" horiz-adv-x="416" 
d="M30 473h78l100 188l99 -188h79l-136 256h-84z" />
    <glyph glyph-name="underscore" unicode="_" horiz-adv-x="351" 
d="M0 -69h351v69h-351v-69z" />
    <glyph glyph-name="grave" unicode="`" horiz-adv-x="225" 
d="M124 743h61l-61 140h-84z" />
    <glyph glyph-name="a" unicode="a" horiz-adv-x="603" 
d="M255 -9q69 0 118 33t68 86h5v-110h81v525h-78l-3 -109h-5q-19 53 -68 85.5t-118 32.5q-97 0 -156.5 -70.5t-59.5 -200.5t59.5 -201t156.5 -71zM282 59q-72 0 -116 52.5t-44 151.5q0 100 44 152t116 52q53 0 89 -24.5t55 -64t19 -83.5v-64q0 -44 -19 -83.5t-55 -64
t-89 -24.5z" />
    <glyph glyph-name="b" unicode="b" horiz-adv-x="603" 
d="M347 -9q98 0 157.5 70.5t59.5 200.5t-59.5 201t-157.5 71q-68 0 -116.5 -32.5t-68.5 -85.5h-5v313h-81v-729h78l3 109h5q20 -53 68.5 -85.5t116.5 -32.5zM321 59q-53 0 -89.5 24.5t-55 64t-18.5 83.5v63q0 45 18.5 84t55 63.5t89.5 24.5q72 0 116 -52t44 -152
q0 -99 -44 -151t-116 -52z" />
    <glyph glyph-name="c" unicode="c" horiz-adv-x="557" 
d="M291 -9q64 0 114 24t80.5 67.5t35.5 101.5h-79q-7 -55 -47.5 -89.5t-103.5 -34.5q-77 0 -123.5 53t-46.5 148q0 91 45 147t126 56q56 0 97 -29.5t51 -85.5h78q-4 55 -34 96.5t-79 64.5t-111 23q-77 0 -134.5 -34t-89 -95t-31.5 -142t31.5 -142t88 -95t132.5 -34z" />
    <glyph glyph-name="d" unicode="d" horiz-adv-x="603" 
d="M255 -9q69 0 118 33t68 86h5l3 -110h77l1 729h-81v-313h-5q-19 53 -68 85.5t-118 32.5q-97 0 -156.5 -70.5t-59.5 -200.5t59.5 -201t156.5 -71zM282 59q-72 0 -116 52.5t-44 151.5q0 100 44 152t116 52q53 0 89 -24.5t55 -64t19 -83.5v-64q0 -44 -19 -83.5t-55 -64
t-89 -24.5z" />
    <glyph glyph-name="e" unicode="e" horiz-adv-x="562" 
d="M289 -9q60 0 109 21t81 59t39 88h-78q-10 -46 -51 -73.5t-100 -27.5q-76 0 -122 49.5t-48 140.5h401q8 81 -16 145.5t-79 102t-140 37.5q-76 0 -131 -34t-85 -95t-30 -143q0 -81 30.5 -142t86.5 -94.5t133 -33.5zM284 467q65 0 110 -36.5t47 -119.5h-320q8 73 51.5 114.5
t111.5 41.5z" />
    <glyph glyph-name="f" unicode="f" horiz-adv-x="343" 
d="M121 0h81v458h120v67h-120v78q0 29 13 46t50 17h69v63h-88q-57 0 -91 -29t-34 -86v-89h-100v-67h100v-458z" />
    <glyph glyph-name="g" unicode="g" horiz-adv-x="589" 
d="M277 -177q72 0 126 21.5t84 69.5t30 127v484h-78l-2 -103h-6q-18 50 -65 81t-112 31q-97 0 -156 -66.5t-59 -185.5q0 -118 58 -185t155 -67q66 0 113.5 31t65.5 82h6v-109q0 -82 -42 -115.5t-116 -33.5q-55 0 -90.5 22.5t-42.5 61.5h-79q9 -68 65 -107t145 -39zM278 94
q-70 0 -113 49t-43 139q0 87 42.5 137t114.5 50q51 0 86 -23t53.5 -58.5t18.5 -73.5v-64q0 -38 -19 -74t-54 -59t-86 -23z" />
    <glyph glyph-name="h" unicode="h" horiz-adv-x="605" 
d="M76 0h80v284q0 52 20 92.5t57 64.5t86 24q68 0 101 -41.5t33 -130.5v-293h81v309q0 81 -24.5 130.5t-67 71.5t-97.5 22q-59 0 -109 -29.5t-74 -87.5h-6v313h-80v-729z" />
    <glyph glyph-name="i" unicode="i" horiz-adv-x="233" 
d="M76 612h81v117h-81v-117zM76 0h81v525h-81v-525z" />
    <glyph glyph-name="j" unicode="j" horiz-adv-x="224" 
d="M67 612h81v117h-81v-117zM-37 -174h64q64 0 92.5 32t28.5 89v578h-81v-570q0 -32 -13 -48t-47 -16h-44v-65z" />
    <glyph glyph-name="k" unicode="k" horiz-adv-x="564" 
d="M76 0h82v166l104 101l32 -52l143 -215h95l-214 322l205 203h-102l-216 -218l-47 -50v472h-82v-729z" />
    <glyph glyph-name="l" unicode="l" horiz-adv-x="233" 
d="M76 0h81v729h-81v-729z" />
    <glyph glyph-name="m" unicode="m" horiz-adv-x="967" 
d="M76 0h80v284q0 52 19.5 92.5t55.5 64.5t84 24q67 0 98.5 -41.5t31.5 -130.5v-293h82v284q0 52 19.5 92.5t54.5 64.5t83 24q68 0 100 -41.5t32 -130.5v-293h80v309q0 81 -24 130.5t-65.5 71.5t-94.5 22q-64 0 -115.5 -32t-74.5 -94h-8q-19 68 -65.5 97t-106.5 29
q-59 0 -108 -29.5t-72 -87.5h-6l-3 109h-77v-525z" />
    <glyph glyph-name="n" unicode="n" horiz-adv-x="605" 
d="M76 0h80v284q0 52 20 92.5t57 64.5t86 24q68 0 101 -41.5t33 -130.5v-293h81v309q0 81 -24.5 130.5t-67 71.5t-97.5 22q-59 0 -109 -29.5t-74 -87.5h-6l-3 109h-77v-525z" />
    <glyph glyph-name="o" unicode="o" horiz-adv-x="584" 
d="M293 -9q77 0 133.5 34.5t87.5 95.5t31 141q0 83 -31.5 143.5t-88 94t-132.5 33.5q-77 0 -134.5 -34.5t-88.5 -95.5t-31 -142t32 -142t89 -94.5t133 -33.5zM293 61q-79 0 -125 53.5t-46 146.5q0 97 47.5 150.5t123.5 53.5q79 0 124.5 -54t45.5 -149t-46.5 -148t-123.5 -53
z" />
    <glyph glyph-name="p" unicode="p" horiz-adv-x="604" 
d="M76 -167h81v276h6q20 -53 68.5 -85.5t116.5 -32.5q97 0 156.5 70.5t59.5 200.5t-59.5 201t-156.5 71q-68 0 -116.5 -32.5t-68.5 -85.5h-6l-3 109h-77zM321 59q-52 0 -88.5 24.5t-55.5 64t-19 83.5v63q0 45 19 84t55.5 63.5t88.5 24.5q72 0 116.5 -52t44.5 -152
q0 -99 -44.5 -151t-116.5 -52z" />
    <glyph glyph-name="q" unicode="q" horiz-adv-x="603" 
d="M446 -167h81v692h-78l-3 -109h-5q-19 53 -68 85.5t-118 32.5q-97 0 -156.5 -70.5t-59.5 -200.5t59.5 -201t156.5 -71q69 0 118 33t68 86h5v-277zM282 59q-72 0 -116 52.5t-44 151.5q0 100 44 152t116 52q53 0 89 -24.5t55 -64t19 -83.5v-64q0 -44 -19 -83.5t-55 -64
t-89 -24.5z" />
    <glyph glyph-name="r" unicode="r" horiz-adv-x="364" 
d="M76 0h80v313q5 68 46.5 105t110.5 37q9 0 17 -0.5t15 -1.5v77q-7 1 -15 1.5t-17 0.5q-53 0 -96 -27t-60 -77h-4l-5 97h-72v-525z" />
    <glyph glyph-name="s" unicode="s" horiz-adv-x="528" 
d="M265 -10q98 0 156 39t58 116q0 58 -26.5 88.5t-71 45t-99.5 21.5q-71 10 -105 28.5t-34 61.5q0 38 31.5 61.5t89.5 23.5q56 0 90 -24.5t35 -79.5h79q-1 77 -54.5 120.5t-148.5 43.5q-91 0 -147 -41t-56 -112q0 -51 24.5 -80.5t69 -44.5t104.5 -24q72 -10 104 -28.5
t32 -66.5q0 -42 -33 -65t-96 -23q-61 0 -100 27.5t-39 86.5h-81q0 -78 56.5 -126t161.5 -48z" />
    <glyph glyph-name="t" unicode="t" horiz-adv-x="346" 
d="M215 0h100v68h-75q-27 0 -37 9t-10 37v344h122v67h-122v168l-81 -11v-157h-102v-67h102v-358q0 -49 22.5 -74.5t80.5 -25.5z" />
    <glyph glyph-name="u" unicode="u" 
d="M261 -9q63 0 112.5 32.5t69.5 88.5h5l4 -112h77v525h-81v-280q0 -82 -44 -133.5t-115 -51.5q-73 0 -105 42.5t-32 120.5v302h-81v-322q0 -106 51 -159t139 -53z" />
    <glyph glyph-name="v" unicode="v" horiz-adv-x="474" 
d="M189 0h98l191 525h-87l-118 -345l-33 -108h-3l-35 108l-118 345h-88z" />
    <glyph glyph-name="w" unicode="w" horiz-adv-x="724" 
d="M145 0h106l107 422h4l111 -422h106l138 525h-79l-113 -444h-3l-113 444h-91l-110 -444h-4l-115 444h-82z" />
    <glyph glyph-name="x" unicode="x" horiz-adv-x="515" 
d="M-2 0h91l166 219h6l160 -219h95l-202 274l182 251h-92l-141 -196h-5l-143 196h-95l186 -253z" />
    <glyph glyph-name="y" unicode="y" horiz-adv-x="476" 
d="M32 -167h66q59 0 96 25t59 86l226 581h-85l-125 -339l-23 -66h-4l-25 66l-132 339h-89l209 -490l-28 -71q-13 -33 -33.5 -48.5t-57.5 -15.5h-54v-67z" />
    <glyph glyph-name="z" unicode="z" horiz-adv-x="495" 
d="M26 0h442v67h-339l328 398v60h-418v-67h317l-330 -398v-60z" />
    <glyph glyph-name="braceleft" unicode="{" horiz-adv-x="371" 
d="M198 -167h164v64h-154v300q0 46 -20 76.5t-55 36.5v4q30 3 52.5 31.5t22.5 79.5v304h154v64h-164q-34 0 -50 -19t-16 -48v-299q0 -40 -19 -62t-44 -22h-29v-66h29q25 0 44 -21t19 -61v-295q0 -28 16 -47.5t50 -19.5z" />
    <glyph glyph-name="bar" unicode="|" horiz-adv-x="263" 
d="M95 -67h74v796h-74v-796z" />
    <glyph glyph-name="braceright" unicode="}" horiz-adv-x="371" 
d="M173 793h-164v-64h154v-300q0 -46 20 -76.5t55 -36.5v-4q-30 -3 -52.5 -31.5t-22.5 -79.5v-304h-154v-64h164q34 0 50 19t16 48v299q0 40 19 62t44 22h29v66h-29q-25 0 -44 21t-19 61v295q0 28 -16 47.5t-50 19.5z" />
    <glyph glyph-name="asciitilde" unicode="~" horiz-adv-x="554" 
d="M96 292h47q-3 26 9.5 43.5t35.5 17.5t49.5 -13t57.5 -26.5t65 -13.5q27 0 51 12.5t38 42t11 79.5h-48q2 -63 -55 -63q-28 0 -55 13t-55.5 26t-59.5 13q-23 0 -45.5 -11.5t-35.5 -40t-10 -79.5z" />
    <glyph glyph-name="uni00A0" unicode="&#xa0;" horiz-adv-x="229" 
 />
    <glyph glyph-name="exclamdown" unicode="&#xa1;" horiz-adv-x="248" 
d="M146 325h-43l-20 -292v-238h83v238zM165 524h-81v-91h81v91z" />
    <glyph glyph-name="cent" unicode="&#xa2;" horiz-adv-x="565" 
d="M255 -85h56v77q89 5 147.5 56.5t64.5 135.5h-79q-6 -51 -41.5 -84.5t-91.5 -38.5v402q50 -4 86 -33t45 -81h79q-5 53 -33 93.5t-73.5 64t-103.5 26.5v76h-56v-79q-98 -13 -155.5 -85.5t-57.5 -182.5q0 -112 57.5 -184t155.5 -85v-78zM124 261q0 79 34 132.5t97 66.5v-396
q-60 12 -95.5 63t-35.5 134z" />
    <glyph glyph-name="sterling" unicode="&#xa3;" horiz-adv-x="604" 
d="M22 0h540v190h-72v-118h-302v256h212v65h-212v130q0 65 35.5 103t105.5 38q64 0 101.5 -35.5t37.5 -104.5v-22h78v28q0 96 -58 151.5t-159 55.5t-162 -55.5t-61 -156.5v-132h-84v-65h84v-256h-84v-72z" />
    <glyph glyph-name="currency" unicode="&#xa4;" horiz-adv-x="594" 
d="M82 86l106 107q23 -15 50.5 -23.5t58.5 -8.5q62 0 109 33l106 -108l48 47l-105 105q18 23 27 52t9 58q0 64 -36 113l105 103l-48 49l-107 -109q-22 16 -50.5 24t-57.5 8q-31 0 -59 -9t-49 -23l-106 109l-48 -49l103 -103q-16 -22 -26 -51t-10 -62q0 -62 35 -110
l-103 -105zM297 228q-54 0 -89 34t-35 87t35.5 87.5t88.5 34.5t88.5 -34.5t35.5 -87.5q0 -52 -35.5 -86.5t-88.5 -34.5z" />
    <glyph glyph-name="yen" unicode="&#xa5;" horiz-adv-x="590" 
d="M254 0h82v137h184v61h-184v103h184v61h-147l212 367h-88l-200 -358h-5l-199 358h-89l214 -367h-149v-61h185v-103h-185v-61h185v-137z" />
    <glyph glyph-name="brokenbar" unicode="&#xa6;" horiz-adv-x="263" 
d="M95 406h74v323h-74v-323zM95 -67h74v323h-74v-323z" />
    <glyph glyph-name="dieresis" unicode="&#xa8;" horiz-adv-x="333" 
d="M40 763h73v120h-73v-120zM220 763h73v120h-73v-120z" />
    <glyph glyph-name="copyright" unicode="&#xa9;" horiz-adv-x="822" 
d="M30 364q0 -112 48 -196t134 -131t199 -47t199 47t134 131t48 196t-48 196t-134 130.5t-199 46.5t-199 -46.5t-134 -130.5t-48 -196zM77 364q0 99 42 173.5t117.5 116t174.5 41.5q100 0 175 -41.5t117 -116t42 -173.5t-42 -173.5t-117 -116t-175 -41.5q-99 0 -174.5 41.5
t-117.5 116t-42 173.5zM219 363q0 -60 24 -105.5t67.5 -71t101.5 -25.5q75 0 123.5 40t53.5 104h-63q-5 -42 -36.5 -66t-77.5 -24q-58 0 -93 39t-35 109q0 66 34 107.5t95 41.5q40 0 72 -20.5t40 -63.5h63q-5 61 -53 100t-120 39q-59 0 -103.5 -25.5t-68.5 -71.5t-24 -107z
" />
    <glyph glyph-name="ordfeminine" unicode="&#xaa;" horiz-adv-x="396" 
d="M165 381q42 0 74 20.5t45 54.5h3v-69h61v343h-58l-3 -69h-3q-13 34 -44 54.5t-75 20.5q-63 0 -101.5 -46t-38.5 -132q0 -85 38.5 -131t101.5 -46zM186 432q-44 0 -71.5 32.5t-27.5 93.5q0 63 27.5 95t71.5 32q49 0 74.5 -32.5t25.5 -73.5v-40q0 -40 -25.5 -73.5
t-74.5 -33.5z" />
    <glyph glyph-name="guillemotleft" unicode="&#xab;" horiz-adv-x="433" 
d="M157 0h71l-117 263l117 262h-71l-122 -262zM334 0h71l-117 263l117 262h-71l-122 -262z" />
    <glyph glyph-name="logicalnot" unicode="&#xac;" horiz-adv-x="667" 
d="M507 149h64v257h-475v-65h411v-192z" />
    <glyph glyph-name="registered" unicode="&#xae;" horiz-adv-x="602" 
d="M300 224q74 0 132.5 33t93 91.5t34.5 133.5q0 76 -34.5 133.5t-93 90t-132.5 32.5q-72 0 -130.5 -32.5t-92.5 -90t-34 -133.5t34 -134t92 -91t131 -33zM300 259q-61 0 -111.5 28.5t-80 78.5t-29.5 115t29.5 115.5t79.5 79.5t113 29q62 0 112.5 -28.5t80 -79t29.5 -116.5
q0 -65 -29.5 -115t-80 -78.5t-113.5 -28.5zM204 361h50v89h66q22 0 29 -9.5t7 -25.5v-24q0 -14 1 -19.5t3 -10.5h51q-3 7 -3.5 15.5t-0.5 12.5v27q0 45 -39 54v1q20 6 32 22.5t12 40.5q0 41 -26.5 57.5t-64.5 16.5h-117v-247zM312 569q50 0 50 -40q0 -19 -12 -31.5
t-38 -12.5h-58v84h58z" />
    <glyph glyph-name="macron" unicode="&#xaf;" horiz-adv-x="416" 
d="M40 770h336v63h-336v-63z" />
    <glyph glyph-name="degree" unicode="&#xb0;" horiz-adv-x="406" 
d="M203 427q47 0 84 19.5t58.5 54.5t21.5 81q0 47 -21.5 82t-58.5 54.5t-84 19.5q-46 0 -83 -19.5t-58.5 -54.5t-21.5 -82q0 -46 21.5 -81t58.5 -54.5t83 -19.5zM203 486q-42 0 -70.5 26.5t-28.5 69.5q0 44 28.5 70t70.5 26t70.5 -26t28.5 -70q0 -43 -28.5 -69.5
t-70.5 -26.5z" />
    <glyph glyph-name="plusminus" unicode="&#xb1;" horiz-adv-x="620" 
d="M276 171h68v183h210v65h-210v183h-68v-183h-210v-65h210v-183zM66 0h488v61h-488v-61z" />
    <glyph glyph-name="uni00B2" unicode="&#xb2;" horiz-adv-x="343" 
d="M26 326h289v53h-215q6 29 29 51.5t53.5 43.5t59.5 44t48.5 52t19.5 69q0 56 -38 90.5t-100 34.5q-66 0 -106 -38t-39 -101h58q-1 42 22 64.5t60 22.5t59 -20.5t22 -55.5q0 -33 -22.5 -58t-55.5 -47.5t-66 -48t-55.5 -60.5t-22.5 -85v-11z" />
    <glyph glyph-name="uni00B3" unicode="&#xb3;" horiz-adv-x="353" 
d="M171 321q67 0 108.5 34.5t41.5 91.5q0 41 -20 67.5t-54 33.5v4q29 9 48.5 35t19.5 63q0 52 -38 83t-102 31q-67 0 -107.5 -37.5t-39.5 -99.5h58q0 38 23 62t63 24q36 0 58.5 -18t22.5 -52q0 -30 -19.5 -51t-57.5 -21h-44v-46h47q36 0 58.5 -18t22.5 -56q0 -35 -24 -56.5
t-65 -21.5q-42 0 -65.5 24.5t-22.5 61.5h-59q0 -61 39 -99.5t108 -38.5z" />
    <glyph glyph-name="acute" unicode="&#xb4;" horiz-adv-x="225" 
d="M40 743h61l84 140h-83z" />
    <glyph glyph-name="paragraph" unicode="&#xb6;" horiz-adv-x="714" 
d="M203 -151h78v809h176v-809h79v809h85v71h-418q-90 0 -142 -44t-52 -126q0 -79 51 -126.5t143 -46.5v-537z" />
    <glyph glyph-name="periodcentered" unicode="&#xb7;" horiz-adv-x="275" 
d="M58 277q0 -34 22.5 -56t57.5 -22q36 0 57.5 22t21.5 56t-21.5 56t-57.5 22q-35 0 -57.5 -22t-22.5 -56z" />
    <glyph glyph-name="cedilla" unicode="&#xb8;" horiz-adv-x="277" 
d="M138 -224q44 0 72 23t28 65q0 35 -21 56.5t-62 23.5v67h-50v-101h27q22 0 34.5 -11t12.5 -33q0 -20 -12 -32.5t-33 -12.5q-19 0 -30.5 10.5t-12.5 26.5h-55q1 -38 29 -60t73 -22z" />
    <glyph glyph-name="uni00B9" unicode="&#xb9;" horiz-adv-x="244" 
d="M123 326h59v433h-57q-3 -33 -24.5 -53t-64.5 -20h-17v-45h104v-315z" />
    <glyph glyph-name="ordmasculine" unicode="&#xba;" horiz-adv-x="382" 
d="M192 381q77 0 121 49t44 128q0 82 -45.5 129.5t-119.5 47.5q-77 0 -122 -49t-45 -128q0 -81 46 -129t121 -48zM192 433q-49 0 -77 33t-28 92q0 60 29 93t76 33t75 -33t28 -93t-28 -92.5t-75 -32.5z" />
    <glyph glyph-name="guillemotright" unicode="&#xbb;" horiz-adv-x="433" 
d="M276 525h-71l117 -263l-117 -262h71l122 262zM99 525h-71l117 -263l-117 -262h71l122 262z" />
    <glyph glyph-name="onequarter" unicode="&#xbc;" horiz-adv-x="606" 
d="M104 330h54v391h-52q-3 -29 -22 -47t-60 -18h-15v-42h95v-284zM0 0h65l497 721h-66zM487 0h55v96h53v45h-53v250h-72l-177 -253v-42h194v-96zM348 141l139 199v-199h-139z" />
    <glyph glyph-name="onehalf" unicode="&#xbd;" horiz-adv-x="669" 
d="M104 330h54v391h-52q-3 -29 -22 -47t-60 -18h-15v-42h95v-284zM0 0h65l497 721h-66zM376 0h263v48h-115q-16 0 -39.5 -0.5t-41.5 -2.5q7 27 28.5 48t49 40.5t53.5 40.5t43.5 47.5t17.5 61.5q0 50 -35 81.5t-91 31.5q-59 0 -96 -34.5t-36 -91.5h53q-2 35 18 56.5t57 21.5
q34 0 54 -18.5t20 -49.5q0 -30 -20.5 -52.5t-50.5 -43t-60.5 -43.5t-51 -54.5t-20.5 -77.5v-9z" />
    <glyph glyph-name="threequarters" unicode="&#xbe;" horiz-adv-x="716" 
d="M159 325q61 0 99.5 32t38.5 82q0 34 -17 59t-52 34v2q29 10 45.5 33.5t16.5 55.5q0 47 -36 75t-92 28t-94.5 -32.5t-38.5 -91.5h53q0 35 22.5 56t56.5 21q32 0 52.5 -17t20.5 -46q0 -27 -17.5 -45.5t-52.5 -18.5h-40v-42h43q34 0 54 -17.5t20 -49.5q0 -31 -22.5 -51
t-59.5 -20q-35 0 -58 22t-23 56h-52q-1 -54 35 -89.5t98 -35.5zM110 0h65l497 721h-66zM598 0h55v96h53v45h-53v250h-72l-177 -253v-42h194v-96zM459 141l139 199v-199h-139z" />
    <glyph glyph-name="questiondown" unicode="&#xbf;" horiz-adv-x="541" 
d="M297 339h-75v-17q0 -37 -18 -68t-44 -59.5t-52 -60t-44 -69.5t-18 -87q0 -86 55.5 -138.5t161.5 -52.5q69 0 121 27t80.5 75t28.5 113h-80q1 -64 -37.5 -105t-108.5 -41q-62 0 -99.5 31.5t-37.5 96.5q0 42 17 74.5t41.5 61.5t49.5 58.5t42 64t17 79.5v17zM300 525h-83
v-90h83v90z" />
    <glyph glyph-name="Agrave" unicode="&#xc0;" horiz-adv-x="660" 
d="M4 0h90l65 180h343l66 -180h89l-267 729h-119zM181 248l91 244l57 157h5l56 -157l90 -244h-299zM301 798h61l-61 140h-84z" />
    <glyph glyph-name="Aacute" unicode="&#xc1;" horiz-adv-x="660" 
d="M4 0h90l65 180h343l66 -180h89l-267 729h-119zM181 248l91 244l57 157h5l56 -157l90 -244h-299zM299 798h61l84 140h-83z" />
    <glyph glyph-name="Acircumflex" unicode="&#xc2;" horiz-adv-x="660" 
d="M4 0h90l65 180h343l66 -180h89l-267 729h-119zM181 248l91 244l57 157h5l56 -157l90 -244h-299zM183 798h74l74 94l73 -94h75l-112 140h-73z" />
    <glyph glyph-name="Atilde" unicode="&#xc3;" horiz-adv-x="660" 
d="M4 0h90l65 180h343l66 -180h89l-267 729h-119zM181 248l91 244l57 157h5l56 -157l90 -244h-299zM388 818q30 0 54.5 16.5t43.5 53.5l-36 23q-9 -13 -22.5 -23t-33.5 -10q-22 0 -42 7.5t-40 15.5t-42 8q-28 0 -51.5 -15t-43.5 -54l34 -23q12 16 25 24t32 8q21 0 38.5 -8
t37 -15.5t46.5 -7.5z" />
    <glyph glyph-name="Adieresis" unicode="&#xc4;" horiz-adv-x="660" 
d="M4 0h90l65 180h343l66 -180h89l-267 729h-119zM181 248l91 244l57 157h5l56 -157l90 -244h-299zM204 818h73v120h-73v-120zM384 818h73v120h-73v-120z" />
    <glyph glyph-name="Aring" unicode="&#xc5;" horiz-adv-x="660" 
d="M4 0h90l65 180h343l66 -180h89l-267 729h-119zM181 248l91 244l57 157h5l56 -157l90 -244h-299zM333 801q47 0 75.5 27t28.5 71t-28.5 70.5t-75.5 26.5q-46 0 -74.5 -26.5t-28.5 -70.5t28.5 -71t74.5 -27zM333 844q-24 0 -39 15t-15 40q0 24 15 38.5t39 14.5
q25 0 39.5 -14.5t14.5 -38.5q0 -25 -14.5 -40t-39.5 -15z" />
    <glyph glyph-name="AE" unicode="&#xc6;" horiz-adv-x="898" 
d="M4 0h90l65 180h188v-180h499v76h-416v262h367v70h-367v246h415v75h-574zM181 248l91 244l57 157h18v-401h-166z" />
    <glyph glyph-name="Ccedilla" unicode="&#xc7;" horiz-adv-x="764" 
d="M395 -9q89 0 159 31t114 88t54 133l-87 1q-13 -81 -77.5 -129.5t-162.5 -48.5q-82 0 -141.5 36t-91.5 103t-32 159q0 140 71 219t194 79q98 0 161.5 -48.5t78.5 -125.5h87q-11 76 -55.5 132t-114 86.5t-157.5 30.5q-106 0 -185.5 -46t-123.5 -129.5t-44 -197.5t44 -197.5
t123.5 -129.5t185.5 -46zM381 -224q44 0 72 23t28 65q0 35 -21 56.5t-62 23.5v67h-50v-101h27q22 0 34.5 -11t12.5 -33q0 -20 -12 -32.5t-33 -12.5q-19 0 -30.5 10.5t-12.5 26.5h-55q1 -38 29 -60t73 -22z" />
    <glyph glyph-name="Egrave" unicode="&#xc8;" horiz-adv-x="646" 
d="M93 0h502v76h-417v262h367v70h-367v246h416v75h-501v-729zM302 798h61l-61 140h-84z" />
    <glyph glyph-name="Eacute" unicode="&#xc9;" horiz-adv-x="646" 
d="M93 0h502v76h-417v262h367v70h-367v246h416v75h-501v-729zM299 798h61l84 140h-83z" />
    <glyph glyph-name="Ecircumflex" unicode="&#xca;" horiz-adv-x="646" 
d="M93 0h502v76h-417v262h367v70h-367v246h416v75h-501v-729zM183 798h74l74 94l73 -94h75l-112 140h-73z" />
    <glyph glyph-name="Edieresis" unicode="&#xcb;" horiz-adv-x="646" 
d="M93 0h502v76h-417v262h367v70h-367v246h416v75h-501v-729zM204 818h73v120h-73v-120zM384 818h73v120h-73v-120z" />
    <glyph glyph-name="Igrave" unicode="&#xcc;" horiz-adv-x="272" 
d="M93 0h85v729h-85v-729zM107 798h61l-61 140h-84z" />
    <glyph glyph-name="Iacute" unicode="&#xcd;" horiz-adv-x="272" 
d="M93 0h85v729h-85v-729zM104 798h61l84 140h-83z" />
    <glyph glyph-name="Icircumflex" unicode="&#xce;" horiz-adv-x="272" 
d="M93 0h85v729h-85v-729zM-12 798h74l74 94l73 -94h75l-112 140h-73z" />
    <glyph glyph-name="Idieresis" unicode="&#xcf;" horiz-adv-x="272" 
d="M93 0h85v729h-85v-729zM9 818h73v120h-73v-120zM189 818h73v120h-73v-120z" />
    <glyph glyph-name="Eth" unicode="&#xd0;" horiz-adv-x="749" 
d="M93 0h287q103 0 176 45.5t112 127.5t39 191q0 110 -39 192t-112 127.5t-176 45.5h-287v-333h-89v-63h89v-333zM178 75v258h162v63h-162v258h191q113 0 181.5 -72.5t68.5 -215.5q0 -142 -67.5 -216.5t-182.5 -74.5h-191z" />
    <glyph glyph-name="Ntilde" unicode="&#xd1;" horiz-adv-x="790" 
d="M93 0h87v379l-4 234h6l411 -613h104v729h-83v-369l5 -249h-6l-412 618h-108v-729zM453 818q30 0 54.5 16.5t43.5 53.5l-36 23q-9 -13 -22.5 -23t-33.5 -10q-22 0 -42 7.5t-40 15.5t-42 8q-28 0 -51.5 -15t-43.5 -54l34 -23q12 16 25 24t32 8q21 0 38.5 -8t37 -15.5
t46.5 -7.5z" />
    <glyph glyph-name="Ograve" unicode="&#xd2;" horiz-adv-x="796" 
d="M398 -9q107 0 187.5 45.5t125 129.5t44.5 198q0 115 -44.5 198.5t-124.5 129t-188 45.5q-107 0 -187 -45.5t-124.5 -129t-44.5 -198.5q0 -114 44 -197.5t124.5 -129.5t187.5 -46zM398 66q-82 0 -142 36t-93 103t-33 159q0 93 32.5 159.5t93 102.5t142.5 36q83 0 143 -36
t93 -102.5t33 -159.5q0 -92 -33 -159t-93 -103t-143 -36zM369 798h61l-61 140h-84z" />
    <glyph glyph-name="Oacute" unicode="&#xd3;" horiz-adv-x="796" 
d="M398 -9q107 0 187.5 45.5t125 129.5t44.5 198q0 115 -44.5 198.5t-124.5 129t-188 45.5q-107 0 -187 -45.5t-124.5 -129t-44.5 -198.5q0 -114 44 -197.5t124.5 -129.5t187.5 -46zM398 66q-82 0 -142 36t-93 103t-33 159q0 93 32.5 159.5t93 102.5t142.5 36q83 0 143 -36
t93 -102.5t33 -159.5q0 -92 -33 -159t-93 -103t-143 -36zM366 798h61l84 140h-83z" />
    <glyph glyph-name="Ocircumflex" unicode="&#xd4;" horiz-adv-x="796" 
d="M398 -9q107 0 187.5 45.5t125 129.5t44.5 198q0 115 -44.5 198.5t-124.5 129t-188 45.5q-107 0 -187 -45.5t-124.5 -129t-44.5 -198.5q0 -114 44 -197.5t124.5 -129.5t187.5 -46zM398 66q-82 0 -142 36t-93 103t-33 159q0 93 32.5 159.5t93 102.5t142.5 36q83 0 143 -36
t93 -102.5t33 -159.5q0 -92 -33 -159t-93 -103t-143 -36zM251 798h74l74 94l73 -94h75l-112 140h-73z" />
    <glyph glyph-name="Otilde" unicode="&#xd5;" horiz-adv-x="796" 
d="M398 -9q107 0 187.5 45.5t125 129.5t44.5 198q0 115 -44.5 198.5t-124.5 129t-188 45.5q-107 0 -187 -45.5t-124.5 -129t-44.5 -198.5q0 -114 44 -197.5t124.5 -129.5t187.5 -46zM398 66q-82 0 -142 36t-93 103t-33 159q0 93 32.5 159.5t93 102.5t142.5 36q83 0 143 -36
t93 -102.5t33 -159.5q0 -92 -33 -159t-93 -103t-143 -36zM456 818q30 0 54.5 16.5t43.5 53.5l-36 23q-9 -13 -22.5 -23t-33.5 -10q-22 0 -42 7.5t-40 15.5t-42 8q-28 0 -51.5 -15t-43.5 -54l34 -23q12 16 25 24t32 8q21 0 38.5 -8t37 -15.5t46.5 -7.5z" />
    <glyph glyph-name="Odieresis" unicode="&#xd6;" horiz-adv-x="796" 
d="M398 -9q107 0 187.5 45.5t125 129.5t44.5 198q0 115 -44.5 198.5t-124.5 129t-188 45.5q-107 0 -187 -45.5t-124.5 -129t-44.5 -198.5q0 -114 44 -197.5t124.5 -129.5t187.5 -46zM398 66q-82 0 -142 36t-93 103t-33 159q0 93 32.5 159.5t93 102.5t142.5 36q83 0 143 -36
t93 -102.5t33 -159.5q0 -92 -33 -159t-93 -103t-143 -36zM272 818h73v120h-73v-120zM452 818h73v120h-73v-120z" />
    <glyph glyph-name="multiply" unicode="&#xd7;" horiz-adv-x="582" 
d="M132 155l159 160l160 -160l46 46l-160 160l160 159l-46 46l-160 -159l-159 159l-46 -46l159 -159l-159 -160z" />
    <glyph glyph-name="Oslash" unicode="&#xd8;" horiz-adv-x="796" 
d="M398 -9q107 0 187.5 45.5t125 129.5t44.5 198q0 115 -44.5 198.5t-124.5 129t-188 45.5q-107 0 -187 -45.5t-124.5 -129t-44.5 -198.5q0 -114 44 -197.5t124.5 -129.5t187.5 -46zM398 66q-82 0 -142 36t-93 103t-33 159q0 93 32.5 159.5t93 102.5t142.5 36q83 0 143 -36
t93 -102.5t33 -159.5q0 -92 -33 -159t-93 -103t-143 -36zM66 -40h71l594 810h-68z" />
    <glyph glyph-name="Ugrave" unicode="&#xd9;" horiz-adv-x="759" 
d="M379 -9q139 0 215.5 74.5t76.5 201.5v462h-84v-460q0 -91 -51 -145.5t-156 -54.5q-96 0 -152 50t-56 150v460h-85v-462q0 -129 78 -202.5t214 -73.5zM351 798h61l-61 140h-84z" />
    <glyph glyph-name="Uacute" unicode="&#xda;" horiz-adv-x="759" 
d="M379 -9q139 0 215.5 74.5t76.5 201.5v462h-84v-460q0 -91 -51 -145.5t-156 -54.5q-96 0 -152 50t-56 150v460h-85v-462q0 -129 78 -202.5t214 -73.5zM348 798h61l84 140h-83z" />
    <glyph glyph-name="Ucircumflex" unicode="&#xdb;" horiz-adv-x="759" 
d="M379 -9q139 0 215.5 74.5t76.5 201.5v462h-84v-460q0 -91 -51 -145.5t-156 -54.5q-96 0 -152 50t-56 150v460h-85v-462q0 -129 78 -202.5t214 -73.5zM232 798h74l74 94l73 -94h75l-112 140h-73z" />
    <glyph glyph-name="Udieresis" unicode="&#xdc;" horiz-adv-x="759" 
d="M379 -9q139 0 215.5 74.5t76.5 201.5v462h-84v-460q0 -91 -51 -145.5t-156 -54.5q-96 0 -152 50t-56 150v460h-85v-462q0 -129 78 -202.5t214 -73.5zM253 818h73v120h-73v-120zM433 818h73v120h-73v-120z" />
    <glyph glyph-name="Yacute" unicode="&#xdd;" horiz-adv-x="635" 
d="M274 0h85v291l271 438h-96l-215 -355h-5l-213 355h-97l270 -438v-291zM285 798h61l84 140h-83z" />
    <glyph glyph-name="Thorn" unicode="&#xde;" horiz-adv-x="639" 
d="M93 0h85v137h182q78 0 134.5 28t87 79.5t30.5 120.5q0 109 -68.5 168.5t-183.5 59.5h-182v136h-85v-729zM348 207h-170v311h170q80 0 128 -39t48 -116q0 -76 -47.5 -116.5t-128.5 -39.5z" />
    <glyph glyph-name="germandbls" unicode="&#xdf;" horiz-adv-x="643" 
d="M115 -167h81v167h163q121 0 183 58.5t62 155.5q0 50 -20 89.5t-54 64t-77 29.5v6q51 17 76.5 58.5t25.5 93.5q0 83 -56.5 133.5t-156.5 50.5q-61 0 -111 -23t-81 -70.5t-35 -120.5h-105v-67h105v-625zM341 666q65 0 102 -33.5t37 -91.5q0 -56 -35.5 -89.5t-100.5 -33.5
h-37v-58h66q71 0 110 -37t39 -102q0 -76 -44 -114.5t-127 -38.5h-155v441q0 75 37.5 116t107.5 41z" />
    <glyph glyph-name="agrave" unicode="&#xe0;" horiz-adv-x="603" 
d="M255 -9q69 0 118 33t68 86h5v-110h81v525h-78l-3 -109h-5q-19 53 -68 85.5t-118 32.5q-97 0 -156.5 -70.5t-59.5 -200.5t59.5 -201t156.5 -71zM282 59q-72 0 -116 52.5t-44 151.5q0 100 44 152t116 52q53 0 89 -24.5t55 -64t19 -83.5v-64q0 -44 -19 -83.5t-55 -64
t-89 -24.5zM269 594h61l-61 140h-84z" />
    <glyph glyph-name="aacute" unicode="&#xe1;" horiz-adv-x="603" 
d="M255 -9q69 0 118 33t68 86h5v-110h81v525h-78l-3 -109h-5q-19 53 -68 85.5t-118 32.5q-97 0 -156.5 -70.5t-59.5 -200.5t59.5 -201t156.5 -71zM282 59q-72 0 -116 52.5t-44 151.5q0 100 44 152t116 52q53 0 89 -24.5t55 -64t19 -83.5v-64q0 -44 -19 -83.5t-55 -64
t-89 -24.5zM267 594h61l84 140h-83z" />
    <glyph glyph-name="acircumflex" unicode="&#xe2;" horiz-adv-x="603" 
d="M255 -9q69 0 118 33t68 86h5v-110h81v525h-78l-3 -109h-5q-19 53 -68 85.5t-118 32.5q-97 0 -156.5 -70.5t-59.5 -200.5t59.5 -201t156.5 -71zM282 59q-72 0 -116 52.5t-44 151.5q0 100 44 152t116 52q53 0 89 -24.5t55 -64t19 -83.5v-64q0 -44 -19 -83.5t-55 -64
t-89 -24.5zM151 594h74l74 94l73 -94h75l-112 140h-73z" />
    <glyph glyph-name="atilde" unicode="&#xe3;" horiz-adv-x="603" 
d="M255 -9q69 0 118 33t68 86h5v-110h81v525h-78l-3 -109h-5q-19 53 -68 85.5t-118 32.5q-97 0 -156.5 -70.5t-59.5 -200.5t59.5 -201t156.5 -71zM282 59q-72 0 -116 52.5t-44 151.5q0 100 44 152t116 52q53 0 89 -24.5t55 -64t19 -83.5v-64q0 -44 -19 -83.5t-55 -64
t-89 -24.5zM356 614q30 0 54.5 16.5t43.5 53.5l-36 23q-9 -13 -22.5 -23t-33.5 -10q-22 0 -42 7.5t-40 15.5t-42 8q-28 0 -51.5 -15t-43.5 -54l34 -23q12 16 25 24t32 8q21 0 38.5 -8t37 -15.5t46.5 -7.5z" />
    <glyph glyph-name="adieresis" unicode="&#xe4;" horiz-adv-x="603" 
d="M255 -9q69 0 118 33t68 86h5v-110h81v525h-78l-3 -109h-5q-19 53 -68 85.5t-118 32.5q-97 0 -156.5 -70.5t-59.5 -200.5t59.5 -201t156.5 -71zM282 59q-72 0 -116 52.5t-44 151.5q0 100 44 152t116 52q53 0 89 -24.5t55 -64t19 -83.5v-64q0 -44 -19 -83.5t-55 -64
t-89 -24.5zM172 614h73v120h-73v-120zM352 614h73v120h-73v-120z" />
    <glyph glyph-name="aring" unicode="&#xe5;" horiz-adv-x="603" 
d="M255 -9q69 0 118 33t68 86h5v-110h81v525h-78l-3 -109h-5q-19 53 -68 85.5t-118 32.5q-97 0 -156.5 -70.5t-59.5 -200.5t59.5 -201t156.5 -71zM282 59q-72 0 -116 52.5t-44 151.5q0 100 44 152t116 52q53 0 89 -24.5t55 -64t19 -83.5v-64q0 -44 -19 -83.5t-55 -64
t-89 -24.5zM300 597q47 0 75.5 27t28.5 71t-28.5 70.5t-75.5 26.5q-46 0 -74.5 -26.5t-28.5 -70.5t28.5 -71t74.5 -27zM300 640q-24 0 -39 15t-15 40q0 24 15 38.5t39 14.5q25 0 39.5 -14.5t14.5 -38.5q0 -25 -14.5 -40t-39.5 -15z" />
    <glyph glyph-name="ae" unicode="&#xe6;" horiz-adv-x="983" 
d="M255 -9q69 0 118 33t68 86h5l2 -110h67v107h4q23 -56 75 -86t119 -30q60 0 108 21t79.5 59t38.5 88h-78q-11 -46 -51.5 -73.5t-100.5 -27.5q-76 0 -121.5 49.5t-47.5 140.5h401q8 82 -16 146.5t-77.5 101.5t-136.5 37q-64 0 -115.5 -30.5t-75.5 -83.5h-5v106h-66l-3 -109
h-5q-19 53 -68 85.5t-118 32.5q-96 0 -156 -70.5t-60 -200.5q0 -86 27.5 -147t76 -93t112.5 -32zM282 59q-72 0 -116 52.5t-44 151.5q0 100 44 152t116 52q53 0 89 -24.5t55 -64t19 -83.5v-64q0 -44 -19 -83.5t-55 -64t-89 -24.5zM541 304q6 76 50 119.5t114 43.5
q67 0 111.5 -38.5t45.5 -124.5h-321z" />
    <glyph glyph-name="ccedilla" unicode="&#xe7;" horiz-adv-x="557" 
d="M291 -9q64 0 114 24t80.5 67.5t35.5 101.5h-79q-7 -55 -47.5 -89.5t-103.5 -34.5q-77 0 -123.5 53t-46.5 148q0 91 45 147t126 56q56 0 97 -29.5t51 -85.5h78q-4 55 -34 96.5t-79 64.5t-111 23q-77 0 -134.5 -34t-89 -95t-31.5 -142t31.5 -142t88 -95t132.5 -34z
M285 -224q44 0 72 23t28 65q0 35 -21 56.5t-62 23.5v67h-50v-101h27q22 0 34.5 -11t12.5 -33q0 -20 -12 -32.5t-33 -12.5q-19 0 -30.5 10.5t-12.5 26.5h-55q1 -38 29 -60t73 -22z" />
    <glyph glyph-name="egrave" unicode="&#xe8;" horiz-adv-x="562" 
d="M289 -9q60 0 109 21t81 59t39 88h-78q-10 -46 -50.5 -74.5t-100.5 -28.5q-76 0 -122 50.5t-48 141.5h401q8 82 -16 146t-79 101.5t-140 37.5q-76 0 -131 -34t-85 -95t-30 -143q0 -81 30.5 -142t86.5 -94.5t133 -33.5zM284 469q70 0 113 -41t44 -124h-320q5 77 49 121
t114 44zM252 594h61l-61 140h-84z" />
    <glyph glyph-name="eacute" unicode="&#xe9;" horiz-adv-x="562" 
d="M289 -9q60 0 109 21t81 59t39 88h-78q-10 -46 -50.5 -74.5t-100.5 -28.5q-76 0 -122 50.5t-48 141.5h401q8 82 -16 146t-79 101.5t-140 37.5q-76 0 -131 -34t-85 -95t-30 -143q0 -81 30.5 -142t86.5 -94.5t133 -33.5zM284 469q70 0 113 -41t44 -124h-320q5 77 49 121
t114 44zM249 594h61l84 140h-83z" />
    <glyph glyph-name="ecircumflex" unicode="&#xea;" horiz-adv-x="562" 
d="M289 -9q60 0 109 21t81 59t39 88h-78q-10 -46 -50.5 -74.5t-100.5 -28.5q-76 0 -122 50.5t-48 141.5h401q8 82 -16 146t-79 101.5t-140 37.5q-76 0 -131 -34t-85 -95t-30 -143q0 -81 30.5 -142t86.5 -94.5t133 -33.5zM284 469q70 0 113 -41t44 -124h-320q5 77 49 121
t114 44zM133 594h74l74 94l73 -94h75l-112 140h-73z" />
    <glyph glyph-name="edieresis" unicode="&#xeb;" horiz-adv-x="562" 
d="M289 -9q60 0 109 21t81 59t39 88h-78q-10 -46 -50.5 -74.5t-100.5 -28.5q-76 0 -122 50.5t-48 141.5h401q8 82 -16 146t-79 101.5t-140 37.5q-76 0 -131 -34t-85 -95t-30 -143q0 -81 30.5 -142t86.5 -94.5t133 -33.5zM284 469q70 0 113 -41t44 -124h-320q5 77 49 121
t114 44zM154 614h73v120h-73v-120zM334 614h73v120h-73v-120z" />
    <glyph glyph-name="igrave" unicode="&#xec;" horiz-adv-x="233" 
d="M76 0h81v525h-81v-525zM88 594h61l-61 140h-84z" />
    <glyph glyph-name="iacute" unicode="&#xed;" horiz-adv-x="233" 
d="M76 0h81v525h-81v-525zM85 594h61l84 140h-83z" />
    <glyph glyph-name="icircumflex" unicode="&#xee;" horiz-adv-x="233" 
d="M76 0h81v525h-81v-525zM-31 594h74l74 94l73 -94h75l-112 140h-73z" />
    <glyph glyph-name="idieresis" unicode="&#xef;" horiz-adv-x="233" 
d="M76 0h81v525h-81v-525zM-10 614h73v120h-73v-120zM170 614h73v120h-73v-120z" />
    <glyph glyph-name="ntilde" unicode="&#xf1;" horiz-adv-x="605" 
d="M76 0h80v284q0 52 20 92.5t57 64.5t86 24q68 0 101 -41.5t33 -130.5v-293h81v309q0 81 -24.5 130.5t-67 71.5t-97.5 22q-59 0 -109 -29.5t-74 -87.5h-6l-3 109h-77v-525zM363 614q30 0 54.5 16.5t43.5 53.5l-36 23q-9 -13 -22.5 -23t-33.5 -10q-22 0 -42 7.5t-40 15.5
t-42 8q-28 0 -51.5 -15t-43.5 -54l34 -23q12 16 25 24t32 8q21 0 38.5 -8t37 -15.5t46.5 -7.5z" />
    <glyph glyph-name="ograve" unicode="&#xf2;" horiz-adv-x="584" 
d="M293 -9q77 0 133.5 34.5t87.5 95.5t31 141q0 83 -31.5 143.5t-88 94t-132.5 33.5q-77 0 -134.5 -34.5t-88.5 -95.5t-31 -142t32 -142t89 -94.5t133 -33.5zM293 61q-79 0 -125 53.5t-46 146.5q0 97 47.5 150.5t123.5 53.5q79 0 124.5 -54t45.5 -149t-46.5 -148t-123.5 -53
zM263 594h61l-61 140h-84z" />
    <glyph glyph-name="oacute" unicode="&#xf3;" horiz-adv-x="584" 
d="M293 -9q77 0 133.5 34.5t87.5 95.5t31 141q0 83 -31.5 143.5t-88 94t-132.5 33.5q-77 0 -134.5 -34.5t-88.5 -95.5t-31 -142t32 -142t89 -94.5t133 -33.5zM293 61q-79 0 -125 53.5t-46 146.5q0 97 47.5 150.5t123.5 53.5q79 0 124.5 -54t45.5 -149t-46.5 -148t-123.5 -53
zM260 594h61l84 140h-83z" />
    <glyph glyph-name="ocircumflex" unicode="&#xf4;" horiz-adv-x="584" 
d="M293 -9q77 0 133.5 34.5t87.5 95.5t31 141q0 83 -31.5 143.5t-88 94t-132.5 33.5q-77 0 -134.5 -34.5t-88.5 -95.5t-31 -142t32 -142t89 -94.5t133 -33.5zM293 61q-79 0 -125 53.5t-46 146.5q0 97 47.5 150.5t123.5 53.5q79 0 124.5 -54t45.5 -149t-46.5 -148t-123.5 -53
zM144 594h74l74 94l73 -94h75l-112 140h-73z" />
    <glyph glyph-name="otilde" unicode="&#xf5;" horiz-adv-x="584" 
d="M293 -9q77 0 133.5 34.5t87.5 95.5t31 141q0 83 -31.5 143.5t-88 94t-132.5 33.5q-77 0 -134.5 -34.5t-88.5 -95.5t-31 -142t32 -142t89 -94.5t133 -33.5zM293 61q-79 0 -125 53.5t-46 146.5q0 97 47.5 150.5t123.5 53.5q79 0 124.5 -54t45.5 -149t-46.5 -148t-123.5 -53
zM349 614q30 0 54.5 16.5t43.5 53.5l-36 23q-9 -13 -22.5 -23t-33.5 -10q-22 0 -42 7.5t-40 15.5t-42 8q-28 0 -51.5 -15t-43.5 -54l34 -23q12 16 25 24t32 8q21 0 38.5 -8t37 -15.5t46.5 -7.5z" />
    <glyph glyph-name="odieresis" unicode="&#xf6;" horiz-adv-x="584" 
d="M293 -9q77 0 133.5 34.5t87.5 95.5t31 141q0 83 -31.5 143.5t-88 94t-132.5 33.5q-77 0 -134.5 -34.5t-88.5 -95.5t-31 -142t32 -142t89 -94.5t133 -33.5zM293 61q-79 0 -125 53.5t-46 146.5q0 97 47.5 150.5t123.5 53.5q79 0 124.5 -54t45.5 -149t-46.5 -148t-123.5 -53
zM165 614h73v120h-73v-120zM345 614h73v120h-73v-120z" />
    <glyph glyph-name="divide" unicode="&#xf7;" horiz-adv-x="655" 
d="M289 481h79v81h-79v-81zM84 328h488v66h-488v-66zM289 160h79v81h-79v-81z" />
    <glyph glyph-name="oslash" unicode="&#xf8;" horiz-adv-x="584" 
d="M293 -9q77 0 133.5 34.5t87.5 95.5t31 141q0 83 -31.5 143.5t-88 94t-132.5 33.5q-77 0 -134.5 -34.5t-88.5 -95.5t-31 -142t32 -142t89 -94.5t133 -33.5zM293 61q-79 0 -125 53.5t-46 146.5q0 97 47.5 150.5t123.5 53.5q79 0 124.5 -54t45.5 -149t-46.5 -148t-123.5 -53
zM24 -60h62l473 645h-60z" />
    <glyph glyph-name="ugrave" unicode="&#xf9;" 
d="M261 -9q63 0 112.5 32.5t69.5 88.5h5l4 -112h77v525h-81v-280q0 -82 -44 -133.5t-115 -51.5q-73 0 -105 42.5t-32 120.5v302h-81v-322q0 -106 51 -159t139 -53zM271 594h61l-61 140h-84z" />
    <glyph glyph-name="uacute" unicode="&#xfa;" 
d="M261 -9q63 0 112.5 32.5t69.5 88.5h5l4 -112h77v525h-81v-280q0 -82 -44 -133.5t-115 -51.5q-73 0 -105 42.5t-32 120.5v302h-81v-322q0 -106 51 -159t139 -53zM268 594h61l84 140h-83z" />
    <glyph glyph-name="ucircumflex" unicode="&#xfb;" 
d="M261 -9q63 0 112.5 32.5t69.5 88.5h5l4 -112h77v525h-81v-280q0 -82 -44 -133.5t-115 -51.5q-73 0 -105 42.5t-32 120.5v302h-81v-322q0 -106 51 -159t139 -53zM153 594h74l74 94l73 -94h75l-112 140h-73z" />
    <glyph glyph-name="udieresis" unicode="&#xfc;" 
d="M261 -9q63 0 112.5 32.5t69.5 88.5h5l4 -112h77v525h-81v-280q0 -82 -44 -133.5t-115 -51.5q-73 0 -105 42.5t-32 120.5v302h-81v-322q0 -106 51 -159t139 -53zM174 614h73v120h-73v-120zM354 614h73v120h-73v-120z" />
    <glyph glyph-name="yacute" unicode="&#xfd;" horiz-adv-x="476" 
d="M32 -167h66q59 0 96 25t59 86l226 581h-85l-125 -339l-23 -66h-4l-25 66l-132 339h-89l209 -490l-28 -71q-13 -33 -33.5 -48.5t-57.5 -15.5h-54v-67zM206 594h61l84 140h-83z" />
    <glyph glyph-name="thorn" unicode="&#xfe;" horiz-adv-x="603" 
d="M76 -167h80v276h6q20 -53 68.5 -85.5t116.5 -32.5q97 0 157 70.5t60 200.5t-60 201t-157 71q-68 0 -116.5 -32.5t-68.5 -85.5h-5v313h-80zM321 59q-53 0 -89.5 24.5t-55 64t-18.5 83.5v63q0 45 18.5 84t55 63.5t89.5 24.5q72 0 116 -52t44 -152q0 -99 -44 -151t-116 -52z
" />
    <glyph glyph-name="ydieresis" unicode="&#xff;" horiz-adv-x="476" 
d="M32 -167h66q59 0 96 25t59 86l226 581h-85l-125 -339l-23 -66h-4l-25 66l-132 339h-89l209 -490l-28 -71q-13 -33 -33.5 -48.5t-57.5 -15.5h-54v-67zM112 614h73v120h-73v-120zM292 614h73v120h-73v-120z" />
    <glyph glyph-name="dotlessi" unicode="&#x131;" horiz-adv-x="233" 
d="M76 0h81v525h-81v-525z" />
    <glyph glyph-name="OE" unicode="&#x152;" horiz-adv-x="1131" 
d="M369 0h710v76h-416v262h367v70h-367v246h416v75h-710q-103 0 -176.5 -45.5t-112 -127t-38.5 -191.5t38.5 -192t112 -127.5t176.5 -45.5zM379 75q-112 0 -181 72.5t-69 215.5t67.5 217t182.5 74h199v-579h-199z" />
    <glyph glyph-name="oe" unicode="&#x153;" horiz-adv-x="987" 
d="M293 -9q77 0 133.5 34.5t87.5 95.5t31 141q0 83 -31.5 143.5t-88 94t-132.5 33.5q-77 0 -134.5 -34.5t-88.5 -95.5t-31 -142t32 -142t89 -94.5t133 -33.5zM293 61q-79 0 -125 53.5t-46 146.5q0 97 47.5 150.5t123.5 53.5q79 0 124.5 -54t45.5 -149t-46.5 -148t-123.5 -53
zM715 -9q60 0 109 21t81 59t39 88h-78q-10 -46 -50.5 -74.5t-100.5 -28.5q-76 0 -122 50.5t-48 141.5h401q8 82 -16 146t-79 101.5t-140 37.5q-76 0 -131 -34t-85 -95t-30 -143q0 -81 30.5 -142t86.5 -94.5t133 -33.5zM710 469q70 0 113 -41t44 -124h-320q5 77 49 121
t114 44z" />
    <glyph glyph-name="Wcircumflex" unicode="&#x174;" horiz-adv-x="940" 
d="M175 0h119l173 623h6l173 -623h119l165 729h-93l-90 -422l-42 -214h-7l-172 636h-111l-171 -635h-6l-44 213l-91 422h-93zM322 798h74l74 94l73 -94h75l-112 140h-73z" />
    <glyph glyph-name="wcircumflex" unicode="&#x175;" horiz-adv-x="724" 
d="M145 0h106l107 422h4l111 -422h106l138 525h-79l-113 -444h-3l-113 444h-91l-110 -444h-4l-115 444h-82zM215 594h74l74 94l73 -94h75l-112 140h-73z" />
    <glyph glyph-name="Ycircumflex" unicode="&#x176;" horiz-adv-x="635" 
d="M274 0h85v291l271 438h-96l-215 -355h-5l-213 355h-97l270 -438v-291zM169 798h74l74 94l73 -94h75l-112 140h-73z" />
    <glyph glyph-name="ycircumflex" unicode="&#x177;" horiz-adv-x="476" 
d="M32 -167h66q59 0 96 25t59 86l226 581h-85l-125 -339l-23 -66h-4l-25 66l-132 339h-89l209 -490l-28 -71q-13 -33 -33.5 -48.5t-57.5 -15.5h-54v-67zM91 594h74l74 94l73 -94h75l-112 140h-73z" />
    <glyph glyph-name="Ydieresis" unicode="&#x178;" horiz-adv-x="635" 
d="M274 0h85v291l271 438h-96l-215 -355h-5l-213 355h-97l270 -438v-291zM190 818h73v120h-73v-120zM370 818h73v120h-73v-120z" />
    <glyph glyph-name="circumflex" unicode="&#x2c6;" horiz-adv-x="376" 
d="M40 743h74l74 94l73 -94h75l-112 140h-73z" />
    <glyph glyph-name="caron" unicode="&#x2c7;" horiz-adv-x="376" 
d="M151 743h73l112 140h-75l-73 -95l-74 95h-74z" />
    <glyph glyph-name="breve" unicode="&#x2d8;" horiz-adv-x="373" 
d="M187 736q70 0 108 38t38 105h-61q1 -44 -21.5 -67.5t-63.5 -23.5t-63.5 23.5t-22.5 67.5h-61q1 -67 39 -105t108 -38z" />
    <glyph glyph-name="dotaccent" unicode="&#x2d9;" horiz-adv-x="161" 
d="M40 763h81v122h-81v-122z" />
    <glyph glyph-name="ring" unicode="&#x2da;" horiz-adv-x="287" 
d="M143 746q47 0 75.5 27t28.5 71t-28.5 70.5t-75.5 26.5q-46 0 -74.5 -26.5t-28.5 -70.5t28.5 -71t74.5 -27zM143 789q-24 0 -39 15t-15 40q0 24 15 38.5t39 14.5q25 0 39.5 -14.5t14.5 -38.5q0 -25 -14.5 -40t-39.5 -15z" />
    <glyph glyph-name="ogonek" unicode="&#x2db;" horiz-adv-x="244" 
d="M137 -172q45 0 67 12v50q-9 -4 -23.5 -7t-28.5 -3q-25 0 -40 13t-15 37t16 43t41 27l-47 12q-29 -8 -50 -34t-21 -63q0 -40 27 -63.5t74 -23.5z" />
    <glyph glyph-name="tilde" unicode="&#x2dc;" horiz-adv-x="391" 
d="M253 763q30 0 54.5 16.5t43.5 53.5l-36 23q-9 -13 -22.5 -23t-33.5 -10q-22 0 -42 7.5t-40 15.5t-42 8q-28 0 -51.5 -15t-43.5 -54l34 -23q12 16 25 24t32 8q21 0 38.5 -8t37 -15.5t46.5 -7.5z" />
    <glyph glyph-name="hungarumlaut" unicode="&#x2dd;" horiz-adv-x="390" 
d="M40 743h59l84 140h-81zM193 743h63l94 140h-84z" />
    <glyph glyph-name="gravecomb" unicode="&#x300;" horiz-adv-x="0" 
d="M124 743h61l-61 140h-84z" />
    <glyph glyph-name="acutecomb" unicode="&#x301;" horiz-adv-x="0" 
d="M40 743h61l84 140h-83z" />
    <glyph glyph-name="uni0302" unicode="&#x302;" horiz-adv-x="0" 
d="M40 743h74l74 94l73 -94h75l-112 140h-73z" />
    <glyph glyph-name="tildecomb" unicode="&#x303;" horiz-adv-x="0" 
d="M253 763q30 0 54.5 16.5t43.5 53.5l-36 23q-9 -13 -22.5 -23t-33.5 -10q-22 0 -42 7.5t-40 15.5t-42 8q-28 0 -51.5 -15t-43.5 -54l34 -23q12 16 25 24t32 8q21 0 38.5 -8t37 -15.5t46.5 -7.5z" />
    <glyph glyph-name="uni0307" unicode="&#x307;" horiz-adv-x="0" 
d="M40 763h81v122h-81v-122z" />
    <glyph glyph-name="uni0308" unicode="&#x308;" horiz-adv-x="0" 
d="M40 763h73v120h-73v-120zM220 763h73v120h-73v-120z" />
    <glyph glyph-name="uni030A" unicode="&#x30a;" horiz-adv-x="0" 
d="M143 746q47 0 75.5 27t28.5 71t-28.5 70.5t-75.5 26.5q-46 0 -74.5 -26.5t-28.5 -70.5t28.5 -71t74.5 -27zM143 789q-24 0 -39 15t-15 40q0 24 15 38.5t39 14.5q25 0 39.5 -14.5t14.5 -38.5q0 -25 -14.5 -40t-39.5 -15z" />
    <glyph glyph-name="uni0327" unicode="&#x327;" horiz-adv-x="0" 
d="M138 -224q44 0 72 23t28 65q0 35 -21 56.5t-62 23.5v67h-50v-101h27q22 0 34.5 -11t12.5 -33q0 -20 -12 -32.5t-33 -12.5q-19 0 -30.5 10.5t-12.5 26.5h-55q1 -38 29 -60t73 -22z" />
    <glyph glyph-name="uni0337" unicode="&#x337;" horiz-adv-x="0" 
d="M74 -60h62l473 645h-60z" />
    <glyph glyph-name="uni0338" unicode="&#x338;" horiz-adv-x="0" 
d="M50 -81h71l594 810h-68z" />
    <glyph glyph-name="uni03BC" unicode="&#x3bc;" horiz-adv-x="599" 
d="M71 -132h81v157q42 -34 110 -34q63 0 110.5 30t69.5 91h5l4 -112h77v525h-81v-280q0 -83 -36.5 -134t-117.5 -51q-67 0 -104 35.5t-37 100.5v329h-81v-657z" />
    <glyph glyph-name="pi" unicode="&#x3c0;" horiz-adv-x="574" 
d="M500 -7q35 0 55 10v62q-11 -7 -34 -7q-29 0 -40 19.5t-11 56.5v324h86v67h-545v-67h88v-458h80v458h212v-341q0 -54 22.5 -89t86.5 -35z" />
    <glyph glyph-name="Wgrave" unicode="&#x1e80;" horiz-adv-x="940" 
d="M175 0h119l173 623h6l173 -623h119l165 729h-93l-90 -422l-42 -214h-7l-172 636h-111l-171 -635h-6l-44 213l-91 422h-93zM441 798h61l-61 140h-84z" />
    <glyph glyph-name="wgrave" unicode="&#x1e81;" horiz-adv-x="724" 
d="M145 0h106l107 422h4l111 -422h106l138 525h-79l-113 -444h-3l-113 444h-91l-110 -444h-4l-115 444h-82zM333 594h61l-61 140h-84z" />
    <glyph glyph-name="Wacute" unicode="&#x1e82;" horiz-adv-x="940" 
d="M175 0h119l173 623h6l173 -623h119l165 729h-93l-90 -422l-42 -214h-7l-172 636h-111l-171 -635h-6l-44 213l-91 422h-93zM438 798h61l84 140h-83z" />
    <glyph glyph-name="wacute" unicode="&#x1e83;" horiz-adv-x="724" 
d="M145 0h106l107 422h4l111 -422h106l138 525h-79l-113 -444h-3l-113 444h-91l-110 -444h-4l-115 444h-82zM330 594h61l84 140h-83z" />
    <glyph glyph-name="Wdieresis" unicode="&#x1e84;" horiz-adv-x="940" 
d="M175 0h119l173 623h6l173 -623h119l165 729h-93l-90 -422l-42 -214h-7l-172 636h-111l-171 -635h-6l-44 213l-91 422h-93zM343 818h73v120h-73v-120zM523 818h73v120h-73v-120z" />
    <glyph glyph-name="wdieresis" unicode="&#x1e85;" horiz-adv-x="724" 
d="M145 0h106l107 422h4l111 -422h106l138 525h-79l-113 -444h-3l-113 444h-91l-110 -444h-4l-115 444h-82zM236 614h73v120h-73v-120zM416 614h73v120h-73v-120z" />
    <glyph glyph-name="uni1E9E" unicode="&#x1e9e;" horiz-adv-x="670" 
d="M93 0h86v655h324l-187 -240v-47h51q89 0 129.5 -39t40.5 -109q0 -64 -39.5 -106.5t-125.5 -42.5h-126v-71h137q114 0 178.5 56.5t64.5 156.5q0 91 -55 146t-162 56v7l171 218v89h-487v-729z" />
    <glyph glyph-name="Ygrave" unicode="&#x1ef2;" horiz-adv-x="635" 
d="M274 0h85v291l271 438h-96l-215 -355h-5l-213 355h-97l270 -438v-291zM288 798h61l-61 140h-84z" />
    <glyph glyph-name="ygrave" unicode="&#x1ef3;" horiz-adv-x="476" 
d="M32 -167h66q59 0 96 25t59 86l226 581h-85l-125 -339l-23 -66h-4l-25 66l-132 339h-89l209 -490l-28 -71q-13 -33 -33.5 -48.5t-57.5 -15.5h-54v-67zM209 594h61l-61 140h-84z" />
    <glyph glyph-name="endash" unicode="&#x2013;" horiz-adv-x="456" 
d="M30 228h396v69h-396v-69z" />
    <glyph glyph-name="emdash" unicode="&#x2014;" horiz-adv-x="621" 
d="M30 228h561v69h-561v-69z" />
    <glyph glyph-name="quoteleft" unicode="&#x2018;" horiz-adv-x="194" 
d="M157 729l-21 -1q-38 -2 -58 -24t-20 -73v-147h83v90h-38v52q0 24 9 39.5t32 17.5h13v46z" />
    <glyph glyph-name="quoteright" unicode="&#x2019;" horiz-adv-x="194" 
d="M37 484l21 1q38 2 58 24t20 73v147h-83v-90h38v-52q0 -24 -9 -39.5t-32 -17.5h-13v-46z" />
    <glyph glyph-name="quotesinglbase" unicode="&#x201a;" horiz-adv-x="194" 
d="M37 -155l21 1q38 2 58 24t20 73v147h-83v-90h38v-52q0 -24 -9 -39.5t-32 -17.5h-13v-46z" />
    <glyph glyph-name="quotedblleft" unicode="&#x201c;" horiz-adv-x="359" 
d="M322 729l-21 -1q-38 -2 -58 -24t-20 -73v-147h83v90h-38v52q0 24 9 39.5t32 17.5h13v46zM157 729l-21 -1q-38 -2 -58 -24t-20 -73v-147h83v90h-38v52q0 24 9 39.5t32 17.5h13v46z" />
    <glyph glyph-name="quotedblright" unicode="&#x201d;" horiz-adv-x="359" 
d="M37 484l21 1q38 2 58 24t20 73v147h-83v-90h38v-52q0 -24 -9 -39.5t-32 -17.5h-13v-46zM202 484l21 1q38 2 58 24t20 73v147h-83v-90h38v-52q0 -24 -9 -39.5t-32 -17.5h-13v-46z" />
    <glyph glyph-name="quotedblbase" unicode="&#x201e;" horiz-adv-x="359" 
d="M37 -155l21 1q38 2 58 24t20 73v147h-83v-90h38v-52q0 -24 -9 -39.5t-32 -17.5h-13v-46zM202 -155l21 1q38 2 58 24t20 73v147h-83v-90h38v-52q0 -24 -9 -39.5t-32 -17.5h-13v-46z" />
    <glyph glyph-name="bullet" unicode="&#x2022;" horiz-adv-x="341" 
d="M54 277q0 -49 33.5 -81.5t83.5 -32.5q53 0 84.5 32.5t31.5 81.5q0 50 -31.5 82.5t-84.5 32.5q-50 0 -83.5 -32.5t-33.5 -82.5z" />
    <glyph glyph-name="ellipsis" unicode="&#x2026;" horiz-adv-x="597" 
d="M58 0h83v90h-83v-90zM257 0h83v90h-83v-90zM456 0h83v90h-83v-90z" />
    <glyph glyph-name="perthousand" unicode="&#x2030;" horiz-adv-x="1195" 
d="M162 0h65l463 729h-65zM189 328q65 0 104.5 51t39.5 148q0 94 -38.5 146t-103.5 52q-66 0 -106 -51t-40 -146q0 -94 38.5 -147t105.5 -53zM190 380q-39 0 -61.5 34t-22.5 113t23 112.5t61 33.5t60 -33.5t22 -112.5t-22 -113t-60 -34zM664 -4q64 0 103.5 51t39.5 147
q0 95 -38.5 147t-103.5 52q-66 0 -106 -51.5t-40 -146.5q0 -94 39 -146.5t106 -52.5zM1006 -4q65 0 104.5 51t39.5 147q0 95 -38.5 147t-103.5 52q-66 0 -106 -51.5t-40 -146.5q0 -94 38.5 -146.5t105.5 -52.5zM664 48q-38 0 -61 33.5t-23 112.5q0 80 23 113.5t61 33.5
q37 0 59 -33.5t22 -113.5q0 -79 -22 -112.5t-59 -33.5zM1007 48q-38 0 -61 33.5t-23 112.5q0 80 23 113.5t61 33.5q37 0 59 -33.5t22 -113.5q0 -79 -22 -112.5t-59 -33.5z" />
    <glyph glyph-name="guilsinglleft" unicode="&#x2039;" horiz-adv-x="256" 
d="M157 0h71l-117 263l117 262h-71l-122 -262z" />
    <glyph glyph-name="guilsinglright" unicode="&#x203a;" horiz-adv-x="256" 
d="M99 525h-71l117 -263l-117 -262h71l122 262z" />
    <glyph glyph-name="fraction" unicode="&#x2044;" horiz-adv-x="126" 
d="M-218 0h65l497 721h-66z" />
    <glyph glyph-name="uni2070" unicode="&#x2070;" horiz-adv-x="355" 
d="M178 321q70 0 113 56.5t43 164.5q0 106 -42 163.5t-113 57.5q-70 0 -113.5 -56.5t-43.5 -163.5q0 -106 42 -164t114 -58zM179 372q-46 0 -71.5 41t-25.5 130t25.5 129.5t71.5 40.5q44 0 70 -40.5t26 -129.5q0 -90 -26 -130.5t-70 -40.5z" />
    <glyph glyph-name="uni2074" unicode="&#x2074;" horiz-adv-x="381" 
d="M239 326h60v107h59v50h-59v276h-78l-195 -280v-46h213v-107zM88 483l151 216v-216h-151z" />
    <glyph glyph-name="uni2075" unicode="&#x2075;" horiz-adv-x="363" 
d="M179 321q71 0 112 41t41 108q0 63 -37.5 104t-101.5 41q-29 0 -54 -11.5t-39 -29.5l-3 1l6 131h207v53h-260l-10 -245h56q10 22 31.5 36t52.5 14q41 0 66 -26t25 -71q0 -41 -24 -67.5t-68 -26.5q-39 0 -63.5 22.5t-24.5 62.5h-60q1 -61 41 -99t107 -38z" />
    <glyph glyph-name="uni2076" unicode="&#x2076;" horiz-adv-x="360" 
d="M184 321q67 0 108.5 39t41.5 107q0 65 -37.5 103.5t-96.5 38.5q-40 0 -69 -18.5t-39 -49.5h-3q0 80 21.5 125.5t79.5 45.5q33 0 55.5 -16t26.5 -45h57q-5 52 -41 82.5t-98 30.5q-79 0 -120 -58t-41 -181q0 -204 155 -204zM186 373q-40 0 -65 25t-25 68q0 42 24.5 69.5
t65.5 27.5q40 0 64 -25t24 -69q0 -43 -24 -69.5t-64 -26.5z" />
    <glyph glyph-name="uni2077" unicode="&#x2077;" horiz-adv-x="357" 
d="M123 326h64q0 90 19 157.5t50.5 123t68.5 109.5v43h-299v-138h48v85h180q-33 -48 -63 -103.5t-49 -123t-19 -153.5z" />
    <glyph glyph-name="uni2078" unicode="&#x2078;" horiz-adv-x="364" 
d="M182 322q70 0 112.5 32t42.5 87q0 40 -22.5 68.5t-65.5 34.5v2q44 8 63 37.5t19 62.5q0 53 -40 85t-109 32q-68 0 -108 -32t-40 -85q0 -34 19.5 -63t61.5 -37v-2q-40 -6 -64 -35.5t-24 -68.5q0 -54 43 -86t112 -32zM182 569q-44 0 -65 20.5t-21 51.5q0 34 23 53.5
t63 19.5q39 0 63 -19.5t24 -53.5q0 -31 -20 -51.5t-67 -20.5zM182 374q-40 0 -65.5 19.5t-25.5 54.5q0 30 22 51t69 21t69.5 -20t22.5 -52q0 -34 -25 -54t-67 -20z" />
    <glyph glyph-name="uni2079" unicode="&#x2079;" horiz-adv-x="360" 
d="M174 321q76 0 116.5 54t40.5 184q0 101 -39 153t-116 52q-67 0 -108.5 -39t-41.5 -107q0 -64 37 -102.5t96 -38.5q42 0 70.5 18.5t38.5 48.5h3q0 -78 -19 -124.5t-78 -46.5q-35 0 -56 17.5t-25 43.5h-58q5 -51 41.5 -82t97.5 -31zM173 522q-39 0 -63 25.5t-24 68.5
q0 44 24 70t64 26q41 0 65 -25t24 -68q0 -41 -23.5 -69t-66.5 -28z" />
    <glyph glyph-name="uni2080" unicode="&#x2080;" horiz-adv-x="355" 
d="M178 -35q70 0 113 56.5t43 164.5q0 106 -42 163.5t-113 57.5q-70 0 -113.5 -56.5t-43.5 -163.5q0 -106 42 -164t114 -58zM179 16q-46 0 -71.5 41t-25.5 130t25.5 129.5t71.5 40.5q44 0 70 -40.5t26 -129.5q0 -90 -26 -130.5t-70 -40.5z" />
    <glyph glyph-name="uni2081" unicode="&#x2081;" horiz-adv-x="244" 
d="M123 -30h59v433h-57q-3 -33 -24.5 -53t-64.5 -20h-17v-45h104v-315z" />
    <glyph glyph-name="uni2082" unicode="&#x2082;" horiz-adv-x="343" 
d="M26 -30h289v53h-215q6 29 29 51.5t53.5 43.5t59.5 44t48.5 52t19.5 69q0 56 -38 90.5t-100 34.5q-66 0 -106 -38t-39 -101h58q-1 42 22 64.5t60 22.5t59 -20.5t22 -55.5q0 -33 -22.5 -58t-55.5 -47.5t-66 -48t-55.5 -60.5t-22.5 -85v-11z" />
    <glyph glyph-name="uni2083" unicode="&#x2083;" horiz-adv-x="353" 
d="M171 -35q67 0 108.5 34.5t41.5 91.5q0 41 -20 67.5t-54 33.5v4q29 9 48.5 35t19.5 63q0 52 -38 83t-102 31q-67 0 -107.5 -37.5t-39.5 -99.5h58q0 38 23 62t63 24q36 0 58.5 -18t22.5 -52q0 -30 -19.5 -51t-57.5 -21h-44v-46h47q36 0 58.5 -18t22.5 -56q0 -35 -24 -56.5
t-65 -21.5q-42 0 -65.5 24.5t-22.5 61.5h-59q0 -61 39 -99.5t108 -38.5z" />
    <glyph glyph-name="uni2084" unicode="&#x2084;" horiz-adv-x="381" 
d="M239 -30h60v107h59v50h-59v276h-78l-195 -280v-46h213v-107zM88 127l151 216v-216h-151z" />
    <glyph glyph-name="uni2085" unicode="&#x2085;" horiz-adv-x="363" 
d="M179 -35q71 0 112 41t41 108q0 63 -37.5 104t-101.5 41q-29 0 -54 -11.5t-39 -29.5l-3 1l6 131h207v53h-260l-10 -245h56q10 22 31.5 36t52.5 14q41 0 66 -26t25 -71q0 -41 -24 -67.5t-68 -26.5q-39 0 -63.5 22.5t-24.5 62.5h-60q1 -61 41 -99t107 -38z" />
    <glyph glyph-name="uni2086" unicode="&#x2086;" horiz-adv-x="360" 
d="M184 -35q67 0 108.5 39t41.5 107q0 65 -37.5 103.5t-96.5 38.5q-40 0 -69 -18.5t-39 -49.5h-3q0 80 21.5 125.5t79.5 45.5q33 0 55.5 -16t26.5 -45h57q-5 52 -41 82.5t-98 30.5q-79 0 -120 -58t-41 -181q0 -204 155 -204zM186 17q-40 0 -65 25t-25 68q0 42 24.5 69.5
t65.5 27.5q40 0 64 -25t24 -69q0 -43 -24 -69.5t-64 -26.5z" />
    <glyph glyph-name="uni2087" unicode="&#x2087;" horiz-adv-x="357" 
d="M123 -30h64q0 90 19 157.5t50.5 123t68.5 109.5v43h-299v-138h48v85h180q-33 -48 -63 -103.5t-49 -123t-19 -153.5z" />
    <glyph glyph-name="uni2088" unicode="&#x2088;" horiz-adv-x="364" 
d="M182 -34q70 0 112.5 32t42.5 87q0 40 -22.5 68.5t-65.5 34.5v2q44 8 63 37.5t19 62.5q0 53 -40 85t-109 32q-68 0 -108 -32t-40 -85q0 -34 19.5 -63t61.5 -37v-2q-40 -6 -64 -35.5t-24 -68.5q0 -54 43 -86t112 -32zM182 213q-44 0 -65 20.5t-21 51.5q0 34 23 53.5
t63 19.5q39 0 63 -19.5t24 -53.5q0 -31 -20 -51.5t-67 -20.5zM182 18q-40 0 -65.5 19.5t-25.5 54.5q0 30 22 51t69 21t69.5 -20t22.5 -52q0 -34 -25 -54t-67 -20z" />
    <glyph glyph-name="uni2089" unicode="&#x2089;" horiz-adv-x="360" 
d="M174 -35q76 0 116.5 54t40.5 184q0 101 -39 153t-116 52q-67 0 -108.5 -39t-41.5 -107q0 -64 37 -102.5t96 -38.5q42 0 70.5 18.5t38.5 48.5h3q0 -78 -19 -124.5t-78 -46.5q-35 0 -56 17.5t-25 43.5h-58q5 -51 41.5 -82t97.5 -31zM173 166q-39 0 -63 25.5t-24 68.5
q0 44 24 70t64 26q41 0 65 -25t24 -68q0 -41 -23.5 -69t-66.5 -28z" />
    <glyph glyph-name="uni20AA" unicode="&#x20aa;" horiz-adv-x="798" 
d="M368 0h337v729h-74v-659h-288v492h-66v-470q0 -53 24 -72.5t67 -19.5zM93 0h74v660h288v-492h66v470q0 53 -24 72t-66 19h-338v-729z" />
    <glyph glyph-name="Euro" unicode="&#x20ac;" horiz-adv-x="829" 
d="M42 249h78q30 -120 120 -189t220 -69q89 0 159.5 31t114.5 88t54 133l-89 1q-13 -80 -77 -128.5t-162 -48.5q-94 0 -158 47.5t-90 134.5h242l8 49h-260q-5 31 -5 66t5 67h279l8 49h-276q25 86 89 133.5t158 47.5q98 0 161 -48.5t78 -125.5h89q-11 77 -55.5 133t-114 86.5
t-158.5 30.5q-130 0 -219.5 -68.5t-119.5 -188.5h-79v-49h69q-4 -32 -4 -67q0 -34 4 -66h-69v-49z" />
    <glyph glyph-name="uni20B9" unicode="&#x20b9;" horiz-adv-x="638" 
d="M474 0h89v12q-7 3 -13.5 14.5t-9.5 33.5l-20 137q-18 110 -108 129v6q62 13 103 52t48 99h76v57h-76q-3 43 -27 78t-58 49v4h161v58h-546v-68h215q73 0 115 -30t52 -93h-382v-52h381q-6 -56 -46.5 -88t-122.5 -32h-212v-66h201q34 0 62 -8.5t48 -33t27 -73.5l23 -139
q3 -18 9.5 -30.5t10.5 -15.5z" />
    <glyph glyph-name="uni20BA" unicode="&#x20ba;" horiz-adv-x="609" 
d="M113 0h72q167 0 270 83t121 245h-83q-16 -113 -89 -181t-210 -69v254l199 81v65l-199 -81v108l199 81v65l-199 -80v158h-81v-189l-94 -40v-64l94 37v-107l-94 -38v-65l94 37v-300z" />
    <glyph glyph-name="uni20BF" unicode="&#x20bf;" horiz-adv-x="681" 
d="M93 0h124v-85h54v85h104v-85h54v87q100 8 154.5 62t54.5 139q0 63 -35 111t-104 61v4q60 15 90 60t30 103q0 78 -49 128.5t-141 57.5v86h-54v-85h-104v85h-54v-85h-124v-729zM177 407v253h205q68 0 108.5 -34t40.5 -96q0 -55 -34.5 -89t-102.5 -34h-217zM177 69v271h221
q73 0 111.5 -34.5t38.5 -96.5q0 -63 -41 -101.5t-122 -38.5h-208z" />
    <glyph glyph-name="uni2117" unicode="&#x2117;" horiz-adv-x="822" 
d="M411 -10q113 0 199 47t134 131t48 196t-48 196t-134 130.5t-199 46.5t-199 -46.5t-134 -130.5t-48 -196t48 -196t134 -131t199 -47zM411 33q-99 0 -174.5 41.5t-117.5 116t-42 173.5t42 173.5t117.5 116t174.5 41.5q100 0 175 -41.5t117 -116t42 -173.5t-42 -173.5
t-117 -116t-175 -41.5zM285 166h62v146h104q69 0 106 34.5t37 91.5q0 59 -37.5 92t-105.5 33h-166v-397zM438 515q42 0 67 -19t25 -60q0 -40 -25 -60t-67 -20h-90v159h90z" />
    <glyph glyph-name="trademark" unicode="&#x2122;" horiz-adv-x="732" 
d="M319 418h54v133l-1 108h3l103 -241h46l103 241h3l-2 -108v-133h57v311h-79l-103 -241h-4l-103 241h-77v-311zM107 418h58v260h105v51h-265v-51h102v-260z" />
    <glyph glyph-name="oneeighth" unicode="&#x215b;" horiz-adv-x="683" 
d="M104 330h54v391h-52q-3 -29 -22 -47t-60 -18h-15v-42h95v-284zM0 0h65l497 721h-66zM514 -4q64 0 103 29.5t39 78.5q0 36 -21.5 62t-59.5 30v2q38 7 56 33t18 57q0 48 -36.5 77.5t-98.5 29.5t-98 -29t-36 -77q0 -34 19 -59t54 -32v-2q-39 -5 -60 -32t-21 -61
q0 -49 39 -78t103 -29zM514 219q-40 0 -59.5 18.5t-19.5 46.5q0 30 21 48t58 18q36 0 58 -17.5t22 -48.5q0 -28 -19 -46.5t-61 -18.5zM514 44q-37 0 -60 17.5t-23 49.5q0 26 20 45t63 19t63.5 -18t20.5 -46q0 -31 -23 -49t-61 -18z" />
    <glyph glyph-name="threeeighths" unicode="&#x215c;" horiz-adv-x="794" 
d="M159 325q61 0 99.5 32t38.5 82q0 34 -17 59t-52 34v2q29 10 45.5 33.5t16.5 55.5q0 47 -36 75t-92 28t-94.5 -32.5t-38.5 -91.5h53q0 35 22.5 56t56.5 21q32 0 52.5 -17t20.5 -46q0 -27 -17.5 -45.5t-52.5 -18.5h-40v-42h43q34 0 54 -17.5t20 -49.5q0 -31 -22.5 -51
t-59.5 -20q-35 0 -58 22t-23 56h-52q-1 -54 35 -89.5t98 -35.5zM110 0h65l497 721h-66zM625 -4q64 0 103 29.5t39 78.5q0 36 -21.5 62t-59.5 30v2q38 7 56 33t18 57q0 48 -36.5 77.5t-98.5 29.5t-98 -29t-36 -77q0 -34 19 -59t54 -32v-2q-39 -5 -60 -32t-21 -61
q0 -49 39 -78t103 -29zM625 219q-40 0 -59.5 18.5t-19.5 46.5q0 30 21 48t58 18q36 0 58 -17.5t22 -48.5q0 -28 -19 -46.5t-61 -18.5zM625 44q-37 0 -60 17.5t-23 49.5q0 26 20 45t63 19t63.5 -18t20.5 -46q0 -31 -23 -49t-61 -18z" />
    <glyph glyph-name="fiveeighths" unicode="&#x215d;" horiz-adv-x="803" 
d="M167 325q62 0 101 37.5t39 97.5q0 57 -35.5 94t-91.5 37q-27 0 -50 -10t-35 -27l-3 1l6 118h186v48h-234l-9 -221h51q8 20 28 32.5t48 12.5q38 0 60.5 -24.5t22.5 -62.5q0 -37 -23 -60.5t-60 -23.5q-36 0 -59 20.5t-22 54.5h-55q1 -53 37.5 -88.5t97.5 -35.5zM120 0h65
l497 721h-66zM634 -4q64 0 103 29.5t39 78.5q0 36 -21.5 62t-59.5 30v2q38 7 56 33t18 57q0 48 -36.5 77.5t-98.5 29.5t-98 -29t-36 -77q0 -34 19 -59t54 -32v-2q-39 -5 -60 -32t-21 -61q0 -49 39 -78t103 -29zM634 219q-40 0 -59.5 18.5t-19.5 46.5q0 30 21 48t58 18
q36 0 58 -17.5t22 -48.5q0 -28 -19 -46.5t-61 -18.5zM634 44q-37 0 -60 17.5t-23 49.5q0 26 20 45t63 19t63.5 -18t20.5 -46q0 -31 -23 -49t-61 -18z" />
    <glyph glyph-name="seveneighths" unicode="&#x215e;" horiz-adv-x="707" 
d="M97 330h58q0 82 17.5 143t46 110.5t62.5 98.5v39h-272v-124h44v76h164q-30 -44 -57.5 -93.5t-45 -110t-17.5 -139.5zM23 0h65l497 721h-66zM537 -4q64 0 103 29.5t39 78.5q0 36 -21.5 62t-59.5 30v2q38 7 56 33t18 57q0 48 -36.5 77.5t-98.5 29.5t-98 -29t-36 -77
q0 -34 19 -59t54 -32v-2q-39 -5 -60 -32t-21 -61q0 -49 39 -78t103 -29zM537 219q-40 0 -59.5 18.5t-19.5 46.5q0 30 21 48t58 18q36 0 58 -17.5t22 -48.5q0 -28 -19 -46.5t-61 -18.5zM537 44q-37 0 -60 17.5t-23 49.5q0 26 20 45t63 19t63.5 -18t20.5 -46q0 -31 -23 -49
t-61 -18z" />
    <glyph glyph-name="arrowleft" unicode="&#x2190;" horiz-adv-x="746" 
d="M646 401h-449l115 160h-78l-139 -196l139 -196h78l-115 160h449v72z" />
    <glyph glyph-name="arrowup" unicode="&#x2191;" horiz-adv-x="526" 
d="M227 89h73v448l160 -114v77l-197 140l-196 -140v-77l160 114v-448z" />
    <glyph glyph-name="arrowright" unicode="&#x2192;" horiz-adv-x="746" 
d="M100 401v-72h449l-115 -160h78l139 196l-139 196h-78l115 -160h-449z" />
    <glyph glyph-name="arrowdown" unicode="&#x2193;" horiz-adv-x="513" 
d="M227 640v-448l-160 114v-77l197 -140l196 140v77l-160 -114v448h-73z" />
    <glyph glyph-name="arrowboth" unicode="&#x2194;" horiz-adv-x="830" 
d="M203 169h77l-115 160h499l-114 -160h77l140 196l-140 196h-77l114 -160h-499l115 160h-77l-140 -196z" />
    <glyph glyph-name="emptyset" unicode="&#x2205;" horiz-adv-x="791" 
d="M396 -7q76 0 142 27t116 77t78.5 118.5t28.5 150.5q0 81 -28.5 149t-78.5 117.5t-116 76.5t-142 27t-142.5 -27t-116.5 -76.5t-78.5 -117.5t-28.5 -149q0 -82 28.5 -150.5t78.5 -118.5t116.5 -77t142.5 -27zM108 215q-16 34 -24.5 72t-8.5 79q0 72 25 132t69.5 104
t102.5 68.5t124 24.5q83 0 152.5 -38t112.5 -103zM396 34q-83 0 -153.5 39.5t-114.5 106.5l554 337q34 -70 34 -151q0 -72 -25 -132.5t-69.5 -105.5t-102 -69.5t-123.5 -24.5z" />
    <glyph glyph-name="product" unicode="&#x220f;" horiz-adv-x="778" 
d="M93 -151h85v802h421v-802h85v880h-591v-880z" />
    <glyph glyph-name="summation" unicode="&#x2211;" horiz-adv-x="674" 
d="M93 -151h488v81h-383v5l269 354l-269 354v5h383v81h-488v-89l261 -346v-9l-261 -347v-89z" />
    <glyph glyph-name="minus" unicode="&#x2212;" horiz-adv-x="666" 
d="M95 328h476v66h-476v-66z" />
    <glyph glyph-name="radical" unicode="&#x221a;" horiz-adv-x="642" 
d="M243 -151h106l283 880h-91l-242 -780h-5l-137 455h-148v-76h82z" />
    <glyph glyph-name="infinity" unicode="&#x221e;" horiz-adv-x="892" 
d="M237 154q49 0 87 21t68.5 56.5t54.5 76.5q38 -66 87.5 -110t123.5 -44q59 0 102 28.5t67 76t24 104.5q0 58 -24 106.5t-67 77.5t-102 29q-50 0 -89 -22t-68.5 -57t-53.5 -76q-24 41 -54 76t-68 57t-89 22q-58 0 -102 -29t-68 -77t-24 -107q0 -60 24 -107.5t68 -74.5
t103 -27zM240 229q-55 0 -88 37.5t-33 98.5q0 58 32.5 96.5t87.5 38.5q52 0 89.5 -35t78.5 -100q-41 -67 -79.5 -101.5t-87.5 -34.5zM653 229q-51 0 -88 35.5t-79 100.5q41 65 78 100t89 35q55 0 88.5 -39t33.5 -96t-33.5 -96.5t-88.5 -39.5z" />
    <glyph glyph-name="integral" unicode="&#x222b;" horiz-adv-x="389" 
d="M9 -151h146q42 0 61 23t19 59v729h145v69h-147q-37 0 -58.5 -22.5t-21.5 -62.5v-727h-144v-68z" />
    <glyph glyph-name="approxequal" unicode="&#x2248;" horiz-adv-x="649" 
d="M407 262q44 0 74.5 31t25.5 103h-9q11 30 9 74h-47q0 -29 -14 -46t-42 -17t-55.5 13.5t-55.5 26.5t-60 13q-24 0 -46 -12.5t-34.5 -41t-9.5 -76.5h9q-6 -14 -8.5 -32.5t-0.5 -42.5h47q-2 26 10 43.5t35 17.5t49.5 -13.5t57.5 -27t65 -13.5zM407 339q17 0 32 4
q-14 -10 -35 -10q-28 0 -55 13.5t-55.5 26.5t-59.5 13q-12 0 -24 -3q11 7 25 7q23 0 49.5 -12.5t57.5 -25.5t65 -13z" />
    <glyph glyph-name="notequal" unicode="&#x2260;" horiz-adv-x="651" 
d="M160 87h67l63 128h274v66h-245l81 160h164v65h-134l63 129h-66l-64 -129h-275v-65h245l-80 -160h-165v-66h135z" />
    <glyph glyph-name="lessequal" unicode="&#x2264;" horiz-adv-x="685" 
d="M587 140v74l-410 159v5l410 157v74l-488 -188v-91zM99 0h488v61h-488v-61z" />
    <glyph glyph-name="greaterequal" unicode="&#x2265;" horiz-adv-x="685" 
d="M99 140l488 190v91l-488 188v-74l410 -157v-5l-410 -159v-74zM99 0h488v61h-488v-61z" />
    <glyph glyph-name="uni2639" unicode="&#x2639;" horiz-adv-x="812" 
d="M406 -10q109 0 194 47t133.5 132t48.5 197t-48.5 195.5t-133.5 130.5t-194 47q-108 0 -193 -47t-134 -130.5t-49 -195.5t49 -197t134 -132t193 -47zM406 32q-96 0 -170.5 42t-117 117t-42.5 175t42.5 174t117 115.5t170.5 41.5q97 0 171 -41.5t116.5 -115.5t42.5 -174
t-42.5 -175t-116.5 -117t-171 -42zM317 392q24 0 39 16t15 50q0 29 -13 48t-41 19q-23 0 -38.5 -16.5t-15.5 -50.5q0 -28 13.5 -47t40.5 -19zM496 392q24 0 39.5 16t15.5 50q0 29 -13.5 48t-41.5 19q-23 0 -38.5 -16.5t-15.5 -50.5q0 -28 14 -47t40 -19zM171 166h42
q23 52 74 82.5t118 30.5t119 -30t74 -83h42q-24 71 -86.5 111.5t-148.5 40.5q-85 0 -148 -40.5t-86 -111.5z" />
    <glyph glyph-name="smileface" unicode="&#x263a;" horiz-adv-x="812" 
d="M406 -10q109 0 194 47t133.5 132t48.5 197t-48.5 195.5t-133.5 130.5t-194 47q-108 0 -193 -47t-134 -130.5t-49 -195.5t49 -197t134 -132t193 -47zM406 32q-96 0 -170.5 42t-117 117t-42.5 175t42.5 174t117 115.5t170.5 41.5q97 0 171 -41.5t116.5 -115.5t42.5 -174
t-42.5 -175t-116.5 -117t-171 -42zM317 392q24 0 39 16t15 50q0 29 -13 48t-41 19q-23 0 -38.5 -16.5t-15.5 -50.5q0 -28 13.5 -47t40.5 -19zM496 392q24 0 39.5 16t15.5 50q0 29 -13.5 48t-41.5 19q-23 0 -38.5 -16.5t-15.5 -50.5q0 -28 14 -47t40 -19zM405 110
q67 0 118.5 24.5t84.5 69t42 103.5h33v21h-114v-21h37q-10 -70 -65.5 -112.5t-135.5 -42.5q-79 0 -134.5 42.5t-66.5 112.5h39v21h-114v-21h32q9 -59 41.5 -103.5t85 -69t117.5 -24.5z" />
    <glyph glyph-name="uni2713" unicode="&#x2713;" horiz-adv-x="929" 
d="M315 117l503 435l-47 55l-450 -388l-157 208l-52 -47z" />
    <glyph glyph-name="uni2776" unicode="&#x2776;" horiz-adv-x="872" 
d="M435 -10q114 0 200 47t134 131.5t48 195.5q0 112 -48 196t-134 130.5t-200 46.5q-112 0 -198 -46.5t-134.5 -130.5t-48.5 -196t48 -196t134 -131t199 -47zM437 166v290h-93v41h15q39 0 58 18.5t22 47.5h51v-397h-53z" />
    <glyph glyph-name="uni2777" unicode="&#x2777;" horiz-adv-x="872" 
d="M435 -10q114 0 200 47t134 131.5t48 195.5q0 112 -48 196t-134 130.5t-200 46.5q-112 0 -198 -46.5t-134.5 -130.5t-48.5 -196t48 -196t134 -131t199 -47zM309 163v9q0 46 20 78t49.5 55.5t58.5 44t49 43.5t20 54q0 32 -19.5 51.5t-51.5 19.5q-34 0 -54.5 -22.5
t-19.5 -58.5h-51q-2 58 34.5 93t94.5 35q55 0 88.5 -32t33.5 -84q0 -36 -17 -62.5t-42 -48t-52 -41t-47.5 -41.5t-27.5 -49q14 2 35 2.5t43 0.5h112v-47h-256z" />
    <glyph glyph-name="uni2778" unicode="&#x2778;" horiz-adv-x="872" 
d="M435 -10q114 0 200 47t134 131.5t48 195.5q0 112 -48 196t-134 130.5t-200 46.5q-112 0 -198 -46.5t-134.5 -130.5t-48.5 -196t48 -196t134 -131t199 -47zM435 161q-61 0 -96 35.5t-34 90.5h52q-1 -35 21.5 -57.5t56.5 -22.5q35 0 57.5 20.5t22.5 53.5q0 32 -20 50
t-52 18h-43v42h39q34 0 51.5 19t17.5 47q0 30 -20.5 47t-51.5 17q-34 0 -55 -21.5t-21 -57.5h-52q0 58 36 92t94 34q53 0 89 -28t36 -76q0 -36 -17.5 -59.5t-43.5 -31.5v-3q33 -8 50 -33.5t17 -59.5q0 -52 -37.5 -84t-96.5 -32z" />
    <glyph glyph-name="uni2779" unicode="&#x2779;" horiz-adv-x="872" 
d="M54 364q0 -112 48 -196t134 -131t199 -47q114 0 200 47t134 131.5t48 195.5q0 112 -48 196t-134 130.5t-200 46.5q-112 0 -198 -46.5t-134.5 -130.5t-48.5 -196zM283 264v41l173 258h68v-255h53v-44h-53v-98h-52l-1 98h-188zM336 308h136v198z" />
    <glyph glyph-name="uni277A" unicode="&#x277a;" horiz-adv-x="872" 
d="M435 -10q114 0 200 47t134 131.5t48 195.5q0 112 -48 196t-134 130.5t-200 46.5q-112 0 -198 -46.5t-134.5 -130.5t-48.5 -196t48 -196t134 -131t199 -47zM434 163q-58 0 -94.5 35.5t-36.5 90.5h53q0 -37 22.5 -58.5t56.5 -21.5q35 0 58 25t23 63q0 39 -22.5 64.5
t-57.5 25.5q-27 0 -46.5 -12.5t-27.5 -34.5h-50l8 225h229v-47h-182l-6 -123l3 -1q12 17 34 27.5t48 10.5q55 0 90 -37.5t35 -94.5q0 -61 -38 -99t-99 -38z" />
    <glyph glyph-name="uni277B" unicode="&#x277b;" horiz-adv-x="872" 
d="M435 -10q114 0 200 47t134 131.5t48 195.5q0 112 -48 196t-134 130.5t-200 46.5q-112 0 -198 -46.5t-134.5 -130.5t-48.5 -196t48 -196t134 -131t199 -47zM440 161q-138 0 -138 186q0 113 36.5 166.5t106.5 53.5q53 0 86 -27.5t38 -76.5h-51q-4 27 -24 42t-49 15
q-54 0 -71.5 -44t-18.5 -115h2q11 29 36.5 46t60.5 17q55 0 87 -35t32 -93q0 -65 -37 -100t-96 -35zM441 207q35 0 56.5 24.5t21.5 64.5q0 41 -21.5 64t-55.5 23q-37 0 -58.5 -26t-21.5 -64q0 -40 22 -63t57 -23z" />
    <glyph glyph-name="uni277C" unicode="&#x277c;" horiz-adv-x="872" 
d="M435 -10q114 0 200 47t134 131.5t48 195.5q0 112 -48 196t-134 130.5t-200 46.5q-112 0 -198 -46.5t-134.5 -130.5t-48.5 -196t48 -196t134 -131t199 -47zM390 166q0 78 16.5 139.5t43 113t57.5 97.5h-159v-78h-44v125h266v-39q-34 -51 -62 -102.5t-44 -113t-16 -142.5
h-58z" />
    <glyph glyph-name="uni277D" unicode="&#x277d;" horiz-adv-x="872" 
d="M54 364q0 -112 48 -196t134 -131t199 -47q114 0 200 47t134 131.5t48 195.5q0 112 -48 196t-134 130.5t-200 46.5q-112 0 -198 -46.5t-134.5 -130.5t-48.5 -196zM299 271q0 34 20.5 61t57.5 33v1q-36 8 -53.5 34.5t-17.5 59.5q0 47 35 76.5t96 29.5t96.5 -29.5
t35.5 -77.5q0 -31 -17 -58t-55 -35v-1q39 -5 58 -32.5t19 -61.5q0 -50 -37.5 -79.5t-99.5 -29.5q-61 0 -99.5 29t-38.5 80zM360 453q0 -28 18.5 -47.5t58.5 -19.5q41 0 59 19.5t18 47.5q0 32 -21 50t-56 18t-56 -18t-21 -50zM357 276q0 -32 21.5 -51t58.5 -19t59 19.5
t22 50.5q0 29 -20 47.5t-61 18.5t-60.5 -19t-19.5 -47z" />
    <glyph glyph-name="uni277E" unicode="&#x277e;" horiz-adv-x="872" 
d="M435 -10q114 0 200 47t134 131.5t48 195.5q0 112 -48 196t-134 130.5t-200 46.5q-112 0 -198 -46.5t-134.5 -130.5t-48.5 -196t48 -196t134 -131t199 -47zM432 161q-49 0 -83 26.5t-39 76.5h51q3 -24 21.5 -40.5t50.5 -16.5q36 0 54.5 20t25 56t6.5 83h-2q-9 -27 -34 -45
t-63 -18q-55 0 -86.5 36t-31.5 94q0 64 37 99t95 35q68 0 103.5 -48t35.5 -140q0 -81 -16.5 -129t-48 -68.5t-76.5 -20.5zM433 344q38 0 58.5 26t20.5 63q0 40 -21.5 63.5t-56.5 23.5t-56.5 -24t-21.5 -64t21.5 -64t55.5 -24z" />
    <glyph glyph-name="uni2780" unicode="&#x2780;" horiz-adv-x="870" 
d="M435 -10q113 0 199 47t134 131t48 196t-48 196t-134 130.5t-199 46.5t-199 -46.5t-134 -130.5t-48 -196t48 -196t134 -131t199 -47zM435 33q-99 0 -174.5 41.5t-117.5 116t-42 173.5t42 173.5t117.5 116t174.5 41.5q100 0 175 -41.5t117 -116t42 -173.5t-42 -173.5
t-117 -116t-175 -41.5zM437 166h52v397h-51q-3 -29 -21.5 -47.5t-58.5 -18.5h-15v-41h94v-290z" />
    <glyph glyph-name="uni2781" unicode="&#x2781;" horiz-adv-x="870" 
d="M435 -10q113 0 199 47t134 131t48 196t-48 196t-134 130.5t-199 46.5t-199 -46.5t-134 -130.5t-48 -196t48 -196t134 -131t199 -47zM435 33q-99 0 -174.5 41.5t-117.5 116t-42 173.5t42 173.5t117.5 116t174.5 41.5q100 0 175 -41.5t117 -116t42 -173.5t-42 -173.5
t-117 -116t-175 -41.5zM308 163h256v47h-112q-22 0 -43 -0.5t-35 -2.5q7 27 27.5 49t47.5 41.5t52 41t42 48t17 62.5q0 52 -33.5 84t-88.5 32q-58 0 -94 -35t-34 -93h50q-1 36 19.5 58.5t54.5 22.5q32 0 51.5 -19.5t19.5 -51.5q0 -31 -20 -54t-49 -43.5t-58.5 -44
t-49.5 -55.5t-20 -78v-9z" />
    <glyph glyph-name="uni2782" unicode="&#x2782;" horiz-adv-x="870" 
d="M435 -10q113 0 199 47t134 131t48 196t-48 196t-134 130.5t-199 46.5t-199 -46.5t-134 -130.5t-48 -196t48 -196t134 -131t199 -47zM435 33q-99 0 -174.5 41.5t-117.5 116t-42 173.5t42 173.5t117.5 116t174.5 41.5q100 0 175 -41.5t117 -116t42 -173.5t-42 -173.5
t-117 -116t-175 -41.5zM435 161q58 0 95.5 32t37.5 84q0 34 -17 59.5t-50 33.5v3q26 8 43.5 31.5t17.5 59.5q0 48 -35.5 76t-88.5 28q-58 0 -94.5 -34t-35.5 -92h51q1 36 21.5 57.5t54.5 21.5q32 0 52.5 -17t20.5 -47q0 -28 -17.5 -47t-52.5 -19h-38v-42h42q32 0 52 -18
t20 -50q0 -33 -22.5 -53.5t-57.5 -20.5q-34 0 -56.5 22.5t-21.5 57.5h-52q0 -55 35 -90.5t96 -35.5z" />
    <glyph glyph-name="uni2783" unicode="&#x2783;" horiz-adv-x="870" 
d="M54 364q0 -112 48 -196t134 -131t199 -47t199 47t134 131t48 196t-48 196t-134 130.5t-199 46.5t-199 -46.5t-134 -130.5t-48 -196zM101 364q0 99 42 173.5t117.5 116t174.5 41.5q100 0 175 -41.5t117 -116t42 -173.5t-42 -173.5t-117 -116t-175 -41.5q-99 0 -174.5 41.5
t-117.5 116t-42 173.5zM277 264h189v-98h53v98h52l1 44h-53v255h-69l-173 -258v-41zM330 308l136 198v-198h-136z" />
    <glyph glyph-name="uni2784" unicode="&#x2784;" horiz-adv-x="870" 
d="M435 -10q113 0 199 47t134 131t48 196t-48 196t-134 130.5t-199 46.5t-199 -46.5t-134 -130.5t-48 -196t48 -196t134 -131t199 -47zM435 33q-99 0 -174.5 41.5t-117.5 116t-42 173.5t42 173.5t117.5 116t174.5 41.5q100 0 175 -41.5t117 -116t42 -173.5t-42 -173.5
t-117 -116t-175 -41.5zM433 163q61 0 99 38t38 99q0 57 -34.5 94.5t-89.5 37.5q-27 0 -49 -10.5t-34 -27.5l-2 1l5 123h182v47h-228l-9 -225h50q8 22 27.5 34.5t46.5 12.5q35 0 58 -25.5t23 -64.5q0 -38 -23 -63t-59 -25q-33 0 -55.5 21.5t-23.5 58.5h-52q0 -55 36 -90.5
t94 -35.5z" />
    <glyph glyph-name="uni2785" unicode="&#x2785;" horiz-adv-x="870" 
d="M435 -10q113 0 199 47t134 131t48 196t-48 196t-134 130.5t-199 46.5t-199 -46.5t-134 -130.5t-48 -196t48 -196t134 -131t199 -47zM435 33q-99 0 -174.5 41.5t-117.5 116t-42 173.5t42 173.5t117.5 116t174.5 41.5q100 0 175 -41.5t117 -116t42 -173.5t-42 -173.5
t-117 -116t-175 -41.5zM439 161q59 0 96 35t37 100q0 58 -32 93t-87 35q-35 0 -60.5 -17t-35.5 -46h-3q1 71 18.5 115t71.5 44q29 0 49 -15t24 -42h51q-5 49 -38 76.5t-86 27.5q-70 0 -106.5 -53.5t-36.5 -166.5q0 -91 35.5 -138.5t102.5 -47.5zM440 207q-34 0 -56.5 23
t-22.5 63q0 38 21.5 64t58.5 26q35 0 56 -23t21 -64q0 -40 -21.5 -64.5t-56.5 -24.5z" />
    <glyph glyph-name="uni2786" unicode="&#x2786;" horiz-adv-x="870" 
d="M435 -10q113 0 199 47t134 131t48 196t-48 196t-134 130.5t-199 46.5t-199 -46.5t-134 -130.5t-48 -196t48 -196t134 -131t199 -47zM435 33q-99 0 -174.5 41.5t-117.5 116t-42 173.5t42 173.5t117.5 116t174.5 41.5q100 0 175 -41.5t117 -116t42 -173.5t-42 -173.5
t-117 -116t-175 -41.5zM389 166h58q0 81 16 142.5t44 113t62 102.5v39h-265v-125h43v78h159q-30 -46 -57 -97.5t-43.5 -113t-16.5 -139.5z" />
    <glyph glyph-name="uni2787" unicode="&#x2787;" horiz-adv-x="870" 
d="M435 -10q113 0 199 47t134 131t48 196t-48 196t-134 130.5t-199 46.5t-199 -46.5t-134 -130.5t-48 -196t48 -196t134 -131t199 -47zM435 33q-99 0 -174.5 41.5t-117.5 116t-42 173.5t42 173.5t117.5 116t174.5 41.5q100 0 175 -41.5t117 -116t42 -173.5t-42 -173.5
t-117 -116t-175 -41.5zM436 162q62 0 100 29.5t38 79.5q0 34 -19.5 61.5t-58.5 32.5v1q38 8 55 35t17 58q0 48 -35.5 77.5t-96.5 29.5t-96 -29.5t-35 -76.5q0 -33 17.5 -59.5t53.5 -34.5v-1q-37 -6 -57.5 -33t-20.5 -61q0 -51 38.5 -80t99.5 -29zM436 386q-39 0 -57.5 19.5
t-18.5 47.5q0 32 20.5 50t55.5 18t56 -18t21 -50q0 -28 -18 -47.5t-59 -19.5zM436 206q-36 0 -58 19t-22 51q0 28 19.5 47t60.5 19t61 -18.5t20 -47.5q0 -31 -22 -50.5t-59 -19.5z" />
    <glyph glyph-name="uni2788" unicode="&#x2788;" horiz-adv-x="870" 
d="M435 -10q113 0 199 47t134 131t48 196t-48 196t-134 130.5t-199 46.5t-199 -46.5t-134 -130.5t-48 -196t48 -196t134 -131t199 -47zM435 33q-99 0 -174.5 41.5t-117.5 116t-42 173.5t42 173.5t117.5 116t174.5 41.5q100 0 175 -41.5t117 -116t42 -173.5t-42 -173.5
t-117 -116t-175 -41.5zM431 161q45 0 76.5 20.5t48 68.5t16.5 129q0 92 -35.5 140t-103.5 48q-58 0 -95 -35t-37 -99q0 -58 32 -94t87 -36q38 0 62.5 18t33.5 45h2q0 -47 -6.5 -83t-25 -56t-54.5 -20q-32 0 -50.5 16.5t-21.5 40.5h-51q5 -50 39 -76.5t83 -26.5zM432 344
q-34 0 -55.5 24t-21.5 64t21.5 64t56.5 24t57 -23.5t22 -63.5q0 -37 -21 -63t-59 -26z" />
    <glyph glyph-name="G.ss01" horiz-adv-x="816" 
d="M381 -9q67 0 123.5 20t96 56t55.5 84h6l6 -151h69v385h-366v-67h275v-25q0 -70 -31.5 -121t-88.5 -79t-134 -28q-121 0 -191.5 79t-70.5 219q0 90 31.5 157.5t92.5 104.5t148 37q96 0 158 -42.5t81 -115.5h87q-12 74 -56.5 126t-113.5 79.5t-156 27.5q-108 0 -189 -46
t-126 -130t-45 -199q0 -112 42.5 -195.5t119 -129.5t177.5 -46z" />
    <glyph glyph-name="a.ss01" horiz-adv-x="539" 
d="M207 -9q65 0 115 29t66 77h4q0 -34 2.5 -60t5.5 -37h77q-4 8 -6.5 40.5t-2.5 66.5v239q0 98 -55 143t-149 45q-96 0 -155.5 -44t-61.5 -122h76q2 45 37 72.5t100 27.5q68 0 97.5 -33t29.5 -86v-41h-144q-94 0 -151.5 -42t-57.5 -123q0 -68 47.5 -110t125.5 -42zM235 56
q-58 0 -89 26t-31 71q0 48 37 72t102 24h134v-62q0 -58 -41 -94.5t-112 -36.5z" />
    <glyph glyph-name="g.ss01" horiz-adv-x="561" 
d="M206 -167h130q87 0 139.5 38t51.5 117q-1 65 -43.5 96.5t-119.5 31.5h-149q-31 0 -55 9.5t-24 36.5q0 18 12.5 33t35.5 18q19 -7 41 -10.5t51 -3.5q92 0 146.5 44.5t54.5 117.5q0 40 -17.5 76t-50.5 58q17 33 53 48.5t82 12.5v66q-67 3 -113.5 -25.5t-63.5 -81.5
q-18 10 -43.5 15t-47.5 5q-60 0 -106 -21.5t-71.5 -59.5t-25.5 -87q0 -44 18.5 -77t51.5 -52v-8q-33 -9 -54 -31.5t-21 -54.5q0 -28 16 -48.5t44 -29.5v-5q-39 -7 -69.5 -36t-30.5 -73q0 -52 42 -85.5t136 -33.5zM277 255q-58 0 -92.5 29t-34.5 81q0 49 33 81t93 32
q56 0 90.5 -30.5t34.5 -83.5q0 -48 -32.5 -78.5t-91.5 -30.5zM211 -115q-54 0 -83 19t-29 59q0 31 19.5 50t50.5 26h179q26 0 48.5 -5.5t36 -21t13.5 -46.5q0 -37 -25.5 -59t-78.5 -22h-131z" />
    <glyph glyph-name="zero.tf" 
d="M301 -9q76 0 133 42.5t89 125t32 202.5q0 178 -69 273t-184 95q-116 0 -186.5 -93.5t-70.5 -274.5q0 -178 70 -274t186 -96zM127 361q0 152 46 225.5t128 73.5q59 0 99.5 -39t59.5 -118l-328 -230q-5 40 -5 88zM301 61q-60 0 -100.5 38.5t-59.5 117.5l329 229
q4 -39 4 -85q0 -152 -46 -226t-127 -74z" />
    <glyph glyph-name="one.tf" 
d="M50 0h501v72h-197v649h-79q-3 -35 -19 -67t-48.5 -52t-84.5 -20h-35v-62h185v-448h-223v-72z" />
    <glyph glyph-name="two.tf" 
d="M65 0h470v72l-372 -1q7 43 35.5 78t70 66.5t86 63t83.5 67t63.5 79.5t24.5 100q0 61 -28 107t-78.5 72t-118.5 26q-71 0 -124.5 -28t-82.5 -79t-27 -120h77q-4 72 39 114t113 42q66 0 106 -37.5t40 -101.5q0 -42 -20.5 -75.5t-54 -62.5t-73.5 -57t-80.5 -58t-74 -66
t-54 -81t-20.5 -104v-16z" />
    <glyph glyph-name="three.tf" 
d="M297 -9q71 0 126 26.5t86.5 73.5t31.5 108q0 66 -33 112t-95 61v5q53 17 85 60.5t32 104.5q0 59 -30 101t-81.5 64.5t-116.5 22.5q-69 0 -123 -28t-84 -79t-29 -120h78q0 73 43.5 114.5t111.5 41.5q64 0 105 -33t41 -92q0 -55 -35 -92.5t-103 -37.5h-71v-64h74
q67 0 107 -35.5t40 -99.5q0 -63 -45 -103t-116 -40q-46 0 -82 20t-56 56t-19 83h-79q-1 -65 27 -117.5t81.5 -82.5t128.5 -30z" />
    <glyph glyph-name="four.tf" 
d="M389 0h81v183h95v68h-95v470h-110l-324 -473v-65h352zM115 251l274 395v-395h-274z" />
    <glyph glyph-name="five.tf" 
d="M295 -9q74 0 130.5 31.5t88 87.5t31.5 128q0 70 -30 124.5t-82 85.5t-119 31q-52 0 -95.5 -20.5t-66.5 -55.5l-4 2l11 245h347v71h-419l-16 -400h77q17 39 56 64t94 25q49 0 85 -22.5t56.5 -62t20.5 -90.5q0 -76 -45.5 -124t-118.5 -48q-47 0 -83 20t-56.5 55.5
t-19.5 81.5h-81q0 -68 30.5 -120t84.5 -80.5t124 -28.5z" />
    <glyph glyph-name="six.tf" 
d="M304 -8q72 0 126.5 29t85.5 83t31 129q0 72 -27.5 125t-77.5 82t-116 29q-71 0 -121 -34t-67 -91h-5q1 93 16 164t53.5 111t111.5 40q59 0 99.5 -29.5t47.5 -84.5h78q-8 85 -67 135t-158 50q-130 0 -195.5 -97.5t-65.5 -305.5q0 -162 62.5 -248.5t188.5 -86.5zM306 63
q-72 0 -116 44.5t-44 122.5q0 50 19.5 90t56 63t86.5 23q70 0 113 -45.5t43 -124.5t-43.5 -126t-114.5 -47z" />
    <glyph glyph-name="seven.tf" 
d="M219 0h87q0 114 19 206t52 170t76 148t91 139v58h-487v-220h66v149h324q-44 -64 -85 -133t-73 -146.5t-51 -169t-19 -201.5z" />
    <glyph glyph-name="eight.tf" 
d="M301 -7q76 0 132.5 24t88.5 68.5t32 104.5q0 66 -38.5 115.5t-112.5 56.5v4q72 11 106.5 59.5t34.5 109.5q0 58 -30 101.5t-84.5 68t-128.5 24.5q-112 0 -176.5 -52.5t-64.5 -140.5q0 -61 34 -109.5t106 -60.5v-4q-49 -6 -83.5 -31.5t-52 -62.5t-17.5 -79q0 -60 32 -104
t89 -68t133 -24zM301 397q-82 0 -120 37t-38 94q0 61 42.5 97t115.5 36q71 0 115 -35.5t44 -97.5q0 -54 -37 -92.5t-122 -38.5zM301 63q-74 0 -120 36.5t-46 100.5q0 53 39.5 91t126.5 38q86 0 126 -36.5t40 -92.5q0 -62 -44.5 -99.5t-121.5 -37.5z" />
    <glyph glyph-name="nine.tf" 
d="M293 -8q83 0 139.5 38.5t85.5 126.5t29 236q0 164 -62.5 250.5t-188.5 86.5q-71 0 -126 -29t-86 -83t-31 -130q0 -70 27.5 -123t77.5 -82.5t115 -29.5q74 0 123 35t66 90h5q0 -94 -13.5 -165t-50.5 -110.5t-109 -39.5q-62 0 -101 31t-45 83h-78q8 -85 67.5 -135
t155.5 -50zM292 317q-70 0 -113.5 45t-43.5 124q0 78 44 125.5t114 47.5q73 0 117 -45t44 -122q0 -50 -19.5 -89.5t-55.5 -62.5t-87 -23z" />
    <glyph glyph-name="zero.tf.ss03" 
d="M301 -9q76 0 133 42.5t89 125t32 202.5q0 178 -69 273t-184 95q-116 0 -186.5 -93.5t-70.5 -274.5q0 -178 70 -274t186 -96zM301 660q77 0 122.5 -67t50.5 -204h-347q5 138 50 204.5t124 66.5zM301 61q-78 0 -123.5 67t-50.5 204h347q-5 -138 -50.5 -204.5t-122.5 -66.5z
" />
    <glyph glyph-name="zero.dnom" horiz-adv-x="345" 
d="M173 -4q64 0 103 51t39 148q0 96 -38 148t-103 52q-64 0 -103.5 -51t-39.5 -148q0 -95 38.5 -147.5t103.5 -52.5zM174 42q-41 0 -65 36t-24 117t24 117.5t65 36.5q40 0 63.5 -36.5t23.5 -117.5t-23.5 -117t-63.5 -36z" />
    <glyph glyph-name="one.dnom" horiz-adv-x="218" 
d="M104 0h54v391h-52q-3 -29 -22 -47.5t-60 -18.5h-15v-41h95v-284z" />
    <glyph glyph-name="two.dnom" horiz-adv-x="324" 
d="M32 0h263v48h-115q-16 0 -39.5 -0.5t-41.5 -2.5q7 27 28.5 48t49 40.5t53.5 40.5t43.5 47.5t17.5 61.5q0 50 -35 81.5t-91 31.5q-59 0 -96 -34.5t-36 -91.5h53q-2 35 18 56.5t57 21.5q34 0 54 -18.5t20 -49.5q0 -30 -20.5 -52.5t-50.5 -43t-60.5 -43.5t-51 -54.5
t-20.5 -77.5v-9z" />
    <glyph glyph-name="three.dnom" horiz-adv-x="328" 
d="M159 -5q61 0 99.5 32t38.5 82q0 33 -17 58.5t-52 33.5v3q29 10 45.5 33.5t16.5 55.5q0 47 -36 75t-92 28t-94.5 -32.5t-38.5 -91.5h53q0 35 22.5 56t56.5 21q32 0 52.5 -17t20.5 -46q0 -27 -17.5 -45.5t-52.5 -18.5h-40v-42h43q34 0 54 -17.5t20 -49.5q0 -31 -22.5 -51
t-59.5 -20q-35 0 -58 21.5t-23 56.5h-52q-1 -54 35 -89.5t98 -35.5z" />
    <glyph glyph-name="four.dnom" horiz-adv-x="322" 
d="M203 0h55v96h53v45h-53v250h-72l-177 -253v-42h194v-96zM64 141l139 199v-199h-139z" />
    <glyph glyph-name="five.dnom" horiz-adv-x="338" 
d="M167 -5q62 0 101 37.5t39 97.5q0 57 -35.5 93.5t-91.5 36.5q-27 0 -50 -9.5t-35 -26.5l-3 1l6 118h186v48h-234l-9 -222h51q8 20 28 33t48 13q38 0 60.5 -24.5t22.5 -62.5q0 -37 -23 -61t-60 -24q-36 0 -59 21t-22 55h-55q1 -53 37.5 -88.5t97.5 -35.5z" />
    <glyph glyph-name="six.dnom" horiz-adv-x="336" 
d="M172 -4q61 0 99 35t38 96q0 58 -33.5 93.5t-88.5 35.5q-37 0 -63.5 -17t-35.5 -45h-3q0 69 19 111.5t74 42.5q30 0 50.5 -14.5t24.5 -40.5h51q-4 47 -38 75t-88 28q-73 0 -110 -53t-37 -164q0 -90 36 -136.5t105 -46.5zM174 43q-37 0 -59.5 22.5t-22.5 61.5q0 37 22 62
t60 25q36 0 58 -23t22 -62t-22 -62.5t-58 -23.5z" />
    <glyph glyph-name="seven.dnom" horiz-adv-x="291" 
d="M97 0h58q0 82 17.5 143t46 110.5t62.5 98.5v39h-272v-125h44v77h164q-30 -44 -57.5 -93.5t-45 -110t-17.5 -139.5z" />
    <glyph glyph-name="eight.dnom" horiz-adv-x="339" 
d="M170 -4q64 0 103 29.5t39 78.5q0 36 -21.5 62t-59.5 30v2q38 7 56 33t18 57q0 48 -36.5 77.5t-98.5 29.5t-98 -29t-36 -77q0 -34 19 -59t54 -32v-2q-39 -5 -60 -32t-21 -61q0 -49 39 -78t103 -29zM170 219q-40 0 -59.5 18.5t-19.5 46.5q0 30 21 48t58 18q36 0 58 -17.5
t22 -48.5q0 -28 -19 -46.5t-61 -18.5zM170 44q-37 0 -60 17.5t-23 49.5q0 26 20 45t63 19t63.5 -18t20.5 -46q0 -31 -23 -49t-61 -18z" />
    <glyph glyph-name="nine.dnom" horiz-adv-x="337" 
d="M163 -4q69 0 106 48.5t37 165.5q0 91 -35.5 138.5t-105.5 47.5q-61 0 -99 -35.5t-38 -97.5q0 -57 34 -92t87 -35q38 0 64 16.5t36 44.5h3q0 -70 -17.5 -112.5t-71.5 -42.5q-32 0 -51.5 16t-22.5 39h-52q5 -47 39 -74t87 -27zM162 177q-35 0 -57 23t-22 62t22 62.5
t58 23.5q38 0 60 -22.5t22 -60.5t-22.5 -63t-60.5 -25z" />
    <glyph glyph-name="zero.numr" horiz-adv-x="345" 
d="M173 326q64 0 103 51t39 148q0 96 -38 148t-103 52q-64 0 -103.5 -51t-39.5 -148q0 -95 38.5 -147.5t103.5 -52.5zM174 372q-41 0 -65 36.5t-24 117.5q0 80 24 116.5t65 36.5q40 0 63.5 -36.5t23.5 -116.5q0 -81 -23.5 -117.5t-63.5 -36.5z" />
    <glyph glyph-name="one.numr" horiz-adv-x="218" 
d="M104 330h54v391h-52q-3 -29 -22 -47t-60 -18h-15v-42h95v-284z" />
    <glyph glyph-name="two.numr" horiz-adv-x="324" 
d="M32 330h263v48h-115q-16 0 -39.5 -0.5t-41.5 -1.5q7 26 28.5 47t49 40.5t53.5 40.5t43.5 47.5t17.5 61.5q0 50 -35 81.5t-91 31.5q-59 0 -96 -34.5t-36 -91.5h53q-2 35 18 57t57 22q34 0 54 -19t20 -50q0 -30 -20.5 -52.5t-50.5 -42.5t-60.5 -43.5t-51 -55t-20.5 -76.5
v-10z" />
    <glyph glyph-name="three.numr" horiz-adv-x="328" 
d="M159 325q61 0 99.5 32t38.5 82q0 34 -17 59t-52 34v2q29 10 45.5 33.5t16.5 55.5q0 47 -36 75t-92 28t-94.5 -32.5t-38.5 -91.5h53q0 35 22.5 56t56.5 21q32 0 52.5 -17t20.5 -46q0 -27 -17.5 -45.5t-52.5 -18.5h-40v-42h43q34 0 54 -17.5t20 -49.5q0 -31 -22.5 -51
t-59.5 -20q-35 0 -58 22t-23 56h-52q-1 -54 35 -89.5t98 -35.5z" />
    <glyph glyph-name="four.numr" horiz-adv-x="322" 
d="M203 330h55v96h53v45h-53v250h-72l-177 -253v-42h194v-96zM64 471l139 199v-199h-139z" />
    <glyph glyph-name="five.numr" horiz-adv-x="338" 
d="M167 325q62 0 101 37.5t39 97.5q0 57 -35.5 94t-91.5 37q-27 0 -50 -10t-35 -27l-3 1l6 118h186v48h-234l-9 -221h51q8 20 28 32.5t48 12.5q38 0 60.5 -24.5t22.5 -62.5q0 -37 -23 -60.5t-60 -23.5q-36 0 -59 20.5t-22 54.5h-55q1 -53 37.5 -88.5t97.5 -35.5z" />
    <glyph glyph-name="six.numr" horiz-adv-x="336" 
d="M172 326q61 0 99 35t38 97q0 57 -33.5 92.5t-88.5 35.5q-37 0 -63.5 -17t-35.5 -45h-3q0 69 19 112t74 43q30 0 50.5 -14.5t24.5 -40.5h51q-4 47 -38 74.5t-88 27.5q-73 0 -110 -53t-37 -163q0 -184 141 -184zM174 374q-37 0 -59.5 22t-22.5 61q0 38 22 62.5t60 24.5
q36 0 58 -23t22 -62t-22 -62t-58 -23z" />
    <glyph glyph-name="seven.numr" horiz-adv-x="291" 
d="M97 330h58q0 82 17.5 143t46 110.5t62.5 98.5v39h-272v-124h44v76h164q-30 -44 -57.5 -93.5t-45 -110t-17.5 -139.5z" />
    <glyph glyph-name="eight.numr" horiz-adv-x="339" 
d="M170 327q64 0 103 29t39 78q0 36 -21.5 62t-59.5 30v3q38 7 56 32.5t18 57.5q0 47 -36.5 76.5t-98.5 29.5t-98 -29t-36 -77q0 -34 19 -59t54 -31v-3q-39 -5 -60 -32t-21 -60q0 -49 39 -78t103 -29zM170 549q-40 0 -59.5 18.5t-19.5 46.5q0 30 21 48t58 18q36 0 58 -17.5
t22 -48.5q0 -27 -19 -46t-61 -19zM170 374q-37 0 -60 18t-23 49q0 26 20 45t63 19t63.5 -18t20.5 -46q0 -31 -23 -49t-61 -18z" />
    <glyph glyph-name="nine.numr" horiz-adv-x="337" 
d="M163 326q69 0 106 49t37 165q0 91 -35.5 138.5t-105.5 47.5q-61 0 -99 -35t-38 -97q0 -58 34 -93t87 -35q38 0 64 17t36 44h3q0 -70 -17.5 -112t-71.5 -42q-32 0 -51.5 15.5t-22.5 39.5h-52q5 -48 39 -75t87 -27zM162 507q-35 0 -57 23t-22 62t22 62.5t58 23.5
q38 0 60 -22.5t22 -60.5q0 -37 -22.5 -62.5t-60.5 -25.5z" />
    <glyph glyph-name="parenleft.case" horiz-adv-x="319" 
d="M216 -63h73q-47 46 -82.5 113t-55.5 148t-20 167q0 83 19 163t54.5 148.5t84.5 116.5h-73q-51 -47 -88 -115.5t-57 -149t-20 -163.5t20 -163.5t57 -148.5t88 -116z" />
    <glyph glyph-name="parenright.case" horiz-adv-x="319" 
d="M30 -63h73q52 48 89 116t56.5 148.5t19.5 163.5t-19.5 163.5t-56.5 149t-89 115.5h-73q50 -48 85 -116.5t54 -148.5t19 -163q0 -86 -20 -167t-55.5 -148t-82.5 -113z" />
    <glyph glyph-name="braceleft.case" horiz-adv-x="371" 
d="M198 -63h164v61h-154v255q0 45 -20 75.5t-55 36.5v4q30 3 52.5 31.5t22.5 79.5v252h154v61h-164q-34 0 -50 -19t-16 -48v-244q0 -40 -19 -62t-44 -22h-29v-66h29q25 0 44 -21t19 -61v-246q0 -28 16 -47.5t50 -19.5z" />
    <glyph glyph-name="braceright.case" horiz-adv-x="371" 
d="M9 -63h165q34 0 50 19.5t16 47.5v246q0 40 19 61t44 21h28v66h-28q-25 0 -44 22t-19 62v244q0 29 -16 48t-50 19h-165v-61h154v-252q0 -51 22.5 -79.5t52.5 -31.5v-4q-34 -6 -54.5 -36.5t-20.5 -75.5v-255h-154v-61z" />
    <glyph glyph-name="bracketleft.case" horiz-adv-x="333" 
d="M93 -63h230v61h-153v734h153v61h-230v-856z" />
    <glyph glyph-name="bracketright.case" horiz-adv-x="333" 
d="M9 -63h231v856h-231v-61h154v-734h-154v-61z" />
    <glyph glyph-name="M.BRACKET.300" horiz-adv-x="913" 
d="M93 0h84v367l-2 271h7l238 -638h73l238 638h7l-3 -271v-367h84v729h-131l-230 -598h-4l-229 598h-132v-729z" />
    <glyph glyph-name="a.ss01.BRACKET.300" horiz-adv-x="553" 
d="M212 -9q65 0 115 29t66 75h4v-26q0 -40 21.5 -59t58.5 -19q14 0 29.5 4t25.5 12v55q-11 -11 -29 -11q-14 0 -21.5 9t-7.5 32v256q0 97 -55 141.5t-149 44.5q-96 0 -155.5 -43.5t-62.5 -120.5h77q1 44 36.5 71t100.5 27q68 0 97.5 -32t29.5 -85v-48h-144q-94 0 -152 -41
t-58 -122q0 -67 48 -108t125 -41zM240 56q-58 0 -88.5 25.5t-30.5 69.5q0 51 36.5 76t102.5 25h133v-67q0 -57 -41 -93t-112 -36z" />
    <glyph glyph-name="cent.BRACKET.500" horiz-adv-x="565" 
d="M255 -85h56v77q89 5 147.5 56.5t64.5 135.5h-79q-7 -55 -47.5 -89.5t-103.5 -34.5q-76 0 -122.5 53t-46.5 148q0 91 44.5 147t125.5 56q56 0 97 -29.5t51 -85.5h79q-5 53 -33 93.5t-73.5 64t-103.5 26.5v76h-56v-79q-98 -13 -155.5 -85.5t-57.5 -182.5q0 -112 57.5 -184
t155.5 -85v-78z" />
    <glyph glyph-name="dollar.BRACKET.500" horiz-adv-x="635" 
d="M289 -85h55v77q118 5 180.5 61t62.5 143q0 61 -19.5 100t-53.5 61.5t-77 35t-91 21.5q-70 13 -113 27t-62.5 38.5t-19.5 68.5q0 56 41.5 89t117.5 33q75 0 120 -36t48 -108h86q-1 89 -58 145.5t-162 64.5v78h-55v-78q-106 -6 -166 -59t-60 -140q0 -64 28.5 -103
t82.5 -60.5t131 -35.5q72 -13 114.5 -30t61 -45t18.5 -75q0 -65 -49 -97t-129 -32q-96 0 -140.5 45.5t-46.5 122.5h-88q2 -98 61 -162.5t182 -72.5v-77z" />
    <glyph glyph-name="e.BRACKET.300" horiz-adv-x="562" 
d="M289 -9q60 0 109 21t81 59t39 88h-78q-10 -46 -50.5 -74.5t-100.5 -28.5q-76 0 -122 50.5t-48 141.5h401q8 82 -16 146t-79 101.5t-140 37.5q-76 0 -131 -34t-85 -95t-30 -143q0 -81 30.5 -142t86.5 -94.5t133 -33.5zM284 469q70 0 113 -41t44 -124h-320q5 77 49 121
t114 44z" />
    <glyph glyph-name="f.BRACKET.200" horiz-adv-x="325" 
d="M113 0h81v458h120v67h-120v81q0 29 13.5 46.5t50.5 17.5h68v59h-87q-58 0 -92 -29t-34 -86v-89h-100v-67h100v-458z" />
    <glyph glyph-name="s.BRACKET.300" horiz-adv-x="501" 
d="M252 -10q95 0 152.5 40.5t57.5 115.5q0 52 -22.5 82.5t-64.5 46.5t-101 24q-73 11 -107 29t-34 61q0 38 31 61t87 23q55 0 88 -23.5t34 -78.5h79q-1 75 -54 119.5t-146 44.5q-90 0 -145 -42.5t-55 -111.5q0 -73 49 -103.5t146 -44.5q71 -10 102 -28.5t31 -65.5
q0 -42 -32 -65t-94 -23q-61 0 -98.5 27.5t-37.5 85.5h-81q0 -78 57 -126t158 -48z" />
    <glyph glyph-name="w.BRACKET.300" horiz-adv-x="724" 
d="M145 0h106l107 422h4l111 -422h106l138 525h-79l-113 -444h-3l-113 444h-91l-110 -444h-4l-115 444h-82z" />
    </font>
</defs>
</svg>
