<svg width="17" height="17" viewBox="0 0 17 17" fill="none" xmlns="http://www.w3.org/2000/svg">
<path fill-rule="evenodd" clip-rule="evenodd" d="M8.5 0C13.1944 0 17 3.80558 17 8.5C17 13.1944 13.1944 17 8.5 17C3.80558 17 0 13.1944 0 8.5C0 3.80558 3.80558 0 8.5 0ZM8.5 0.89474C4.29973 0.89474 0.89474 4.29973 0.89474 8.5C0.89474 12.7003 4.29973 16.1053 8.5 16.1053C12.7003 16.1053 16.1053 12.7003 16.1053 8.5C16.1053 4.29973 12.7003 0.89474 8.5 0.89474ZM8.12747 6.44449C7.3742 6.7954 6.73354 7.40052 6.09239 8.28525C6.00096 8.41141 5.99726 8.48807 6.0912 8.55588C6.15723 8.60355 6.19561 8.5883 6.2918 8.48568C6.30466 8.47185 6.30466 8.47185 6.31783 8.45758C6.40098 8.36753 6.46796 8.29112 6.61103 8.12497C7.08378 7.57597 7.31469 7.35 7.67356 7.14334C7.98412 6.9645 8.25705 7.22732 8.20508 7.56365C8.19049 7.65807 8.16538 7.72776 8.10068 7.87737C8.07494 7.93689 8.06408 7.96278 8.05201 7.99452C7.93538 8.30114 7.83713 8.55691 7.63127 9.0911L7.62143 9.11666C7.55918 9.27818 7.55918 9.27817 7.497 9.43966C7.22739 10.1404 7.06379 10.57 6.895 11.0244L6.8851 11.0511C6.85491 11.1321 6.82484 11.2132 6.79488 11.2943C6.60147 11.8188 6.49086 12.1596 6.40673 12.5221C6.39359 12.5785 6.39359 12.5785 6.38028 12.6358C6.33288 12.8409 6.30751 12.973 6.29333 13.1088C6.2688 13.3436 6.28852 13.5359 6.36232 13.6975C6.44583 13.8804 6.62526 14.0112 6.82999 14.041C7.17103 14.0905 7.5001 14.087 7.78194 14.0228C7.94056 13.9868 8.09749 13.9396 8.25148 13.8817C8.69731 13.7141 9.12681 13.4525 9.54283 13.1068C9.90682 12.8034 10.2512 12.4338 10.6123 11.9746C10.6438 11.9348 10.6438 11.9348 10.6751 11.8951C10.7842 11.756 10.8376 11.6657 10.8576 11.5703C10.8793 11.4667 10.7917 11.3617 10.7217 11.3969C10.6871 11.4142 10.651 11.4501 10.5958 11.5197C10.5564 11.5703 10.535 11.5973 10.5135 11.6216C10.4279 11.7186 10.3375 11.8178 10.2395 11.9227C10.078 12.0954 9.91389 12.2645 9.67588 12.5052C9.55466 12.6277 9.40221 12.7349 9.23831 12.8155C8.97596 12.9444 8.7393 12.7819 8.76772 12.4911C8.78648 12.2991 8.83298 12.1007 8.90252 11.9088C9.05442 11.4894 9.17862 11.1503 9.45339 10.4031C9.57256 10.0791 9.62401 9.9391 9.68827 9.76387C9.8788 9.24456 10.0309 8.8265 10.1756 8.42313C10.3544 7.92486 10.4554 7.55344 10.5021 7.16988C10.5374 6.88059 10.4569 6.60391 10.2734 6.41369C10.0699 6.20282 9.78038 6.10568 9.41985 6.10995C9.02094 6.11469 8.55562 6.24503 8.12747 6.44449ZM10.8579 3.00533C10.1411 2.72643 9.28088 3.20558 9.13684 3.96451C9.0324 4.51456 9.23788 4.98946 9.65728 5.18837C10.4887 5.58266 11.4864 4.95088 11.4865 4.03002C11.4865 3.51776 11.2677 3.16481 10.8579 3.00533Z" fill="#1D2327"/>
</svg>
