<svg width="35" height="35" viewBox="0 0 35 35" fill="none" xmlns="http://www.w3.org/2000/svg">
<rect width="35" height="35" rx="5" fill="#6A56F6"/>
<path d="M20.1343 9.625H8.50484C8.1567 9.625 7.875 9.90555 7.875 10.2523V12.7163C7.875 13.0622 8.1567 13.3436 8.50484 13.3436H20.1352C20.4824 13.3436 20.765 13.0631 20.765 12.7163V10.2523C20.765 9.90643 20.4833 9.625 20.1352 9.625H20.1343Z" fill="white"/>
<path d="M26.7505 15.3972H12.685C12.3378 15.3972 12.0552 15.6778 12.0552 16.0245V18.4886C12.0552 18.8344 12.3369 19.1159 12.685 19.1159H26.7514C27.0987 19.1159 27.3813 18.8353 27.3813 18.4886V16.0245C27.3813 15.6787 27.0996 15.3972 26.7514 15.3972H26.7505Z" fill="white"/>
<path d="M26.7521 21.169H23.4842C23.137 21.169 22.8544 21.4496 22.8544 21.7963V24.2604C22.8544 24.6062 23.1361 24.8876 23.4842 24.8876H26.7521C27.0994 24.8876 27.3819 24.6071 27.3819 24.2604V21.7963C27.3819 21.4505 27.1002 21.169 26.7521 21.169Z" fill="white"/>
<path d="M20.1359 21.169H16.8689C16.5216 21.169 16.239 21.4496 16.239 21.7963V24.2604C16.239 24.6062 16.5207 24.8876 16.8689 24.8876H20.1359C20.4831 24.8876 20.7657 24.6071 20.7657 24.2604V21.7963C20.7657 21.4505 20.484 21.169 20.1359 21.169Z" fill="white"/>
<path d="M26.7521 9.625H23.4842C23.137 9.625 22.8544 9.90555 22.8544 10.2523V12.7163C22.8544 13.0622 23.1361 13.3436 23.4842 13.3436H26.7521C27.0994 13.3436 27.3819 13.0631 27.3819 12.7163V10.2523C27.3819 9.90643 27.1002 9.625 26.7521 9.625Z" fill="white"/>
</svg>
