<svg width="30" height="30" viewBox="0 0 30 30" fill="none" xmlns="http://www.w3.org/2000/svg">
<path d="M19.1827 30C19.4221 30 19.6154 29.8067 19.6154 29.5673V23.4361C19.6154 23.2067 19.5245 22.9861 19.3615 22.8245L17.5601 21.0231C17.3971 20.8601 17.1779 20.7692 16.9486 20.7692H13.05C12.8207 20.7692 12.6 20.8601 12.4385 21.0231L10.637 22.8245C10.474 22.9875 10.3832 23.2067 10.3832 23.4361V29.5673C10.3832 29.8067 10.5764 30 10.8159 30H19.1827Z" fill="white"/>
<path d="M22.8231 10.6385L21.0216 12.4399C20.8587 12.6029 20.7678 12.8221 20.7678 13.0514V16.95C20.7678 17.1793 20.8587 17.4 21.0216 17.5615L22.8231 19.363C22.9861 19.526 23.2053 19.6168 23.4346 19.6168H29.5659C29.8053 19.6168 29.9986 19.4236 29.9986 19.1841V10.8188C29.9986 10.5793 29.8053 10.3861 29.5659 10.3861H23.4346C23.2053 10.3861 22.9846 10.4769 22.8231 10.6399V10.6385Z" fill="white"/>
<path d="M10.8173 0C10.5779 0 10.3846 0.193269 10.3846 0.432692V6.56394C10.3846 6.79327 10.4755 7.01394 10.6385 7.17548L12.4399 8.97692C12.6029 9.1399 12.8221 9.23077 13.0514 9.23077H16.95C17.1793 9.23077 17.4 9.1399 17.5615 8.97692L19.363 7.17548C19.526 7.0125 19.6168 6.79327 19.6168 6.56394V0.432692C19.6168 0.193269 19.4236 0 19.1841 0H10.8173Z" fill="white"/>
<path d="M29.5673 20.7692H23.4361C23.2067 20.7692 22.9861 20.8601 22.8245 21.0231L21.0231 22.8245C20.8601 22.9875 20.7692 23.2067 20.7692 23.4361V29.5673C20.7692 29.8067 20.9625 30 21.2019 30H29.5673C29.8067 30 30 29.8067 30 29.5673V21.2019C30 20.9625 29.8067 20.7692 29.5673 20.7692Z" fill="white"/>
<path d="M8.79808 0H2.66683C2.43606 0 2.21683 0.0908654 2.05385 0.253846L0.253846 2.05385C0.0908654 2.21683 0 2.43606 0 2.66683V8.79808C0 9.0375 0.193269 9.23077 0.432692 9.23077H6.56394C6.79327 9.23077 7.01394 9.1399 7.17548 8.97692L8.97692 7.17548C9.1399 7.0125 9.23077 6.79327 9.23077 6.56394V0.432692C9.23077 0.193269 9.0375 0 8.79808 0Z" fill="white"/>
<path d="M20.7692 0.432692V6.56394C20.7692 6.79327 20.8601 7.01394 21.0231 7.17548L22.8245 8.97692C22.9875 9.1399 23.2067 9.23077 23.4361 9.23077H29.5673C29.8067 9.23077 30 9.0375 30 8.79808V0.432692C30 0.193269 29.8067 0 29.5673 0H21.2019C20.9625 0 20.7692 0.193269 20.7692 0.432692Z" fill="white"/>
<path d="M15 17.3077C13.725 17.3077 12.6923 16.275 12.6923 15C12.6923 13.725 13.7264 12.6923 15 12.6923C16.2736 12.6923 17.3077 13.725 17.3077 15C17.3077 16.275 16.2736 17.3077 15 17.3077Z" fill="white"/>
<path d="M0 21.2019V29.5673C0 29.8067 0.193269 30 0.432692 30H8.79808C9.0375 30 9.23077 29.8067 9.23077 29.5673V23.4361C9.23077 23.2067 9.1399 22.9861 8.97692 22.8245L7.17548 21.0231C7.0125 20.8601 6.79327 20.7692 6.56394 20.7692H0.432692C0.193269 20.7692 0 20.9625 0 21.2019Z" fill="white"/>
<path d="M8.97692 12.4385L7.17548 10.637C7.0125 10.474 6.79327 10.3832 6.56394 10.3832H0.432692C0.193269 10.3846 0 10.5779 0 10.8173V19.1827C0 19.4221 0.193269 19.6154 0.432692 19.6154H6.66346C6.89279 19.6154 7.11346 19.5245 7.275 19.3615L8.97692 17.6611C9.1399 17.4981 9.23077 17.2788 9.23077 17.0495V13.0514C9.23077 12.8221 9.1399 12.6014 8.97692 12.4399V12.4385Z" fill="white"/>
</svg>
