<?xml version="1.0" standalone="no"?>
<!DOCTYPE svg PUBLIC "-//W3C//DTD SVG 1.1//EN" "http://www.w3.org/Graphics/SVG/1.1/DTD/svg11.dtd" >
<svg xmlns="http://www.w3.org/2000/svg" xmlns:xlink="http://www.w3.org/1999/xlink" version="1.1">
<metadata>
Created by FontForge 20201107 at Thu Jun  8 17:17:00 2023
 By 
Copyright 2020 The Plus Jakarta Sans Project Authors (https://github.com/tokotype/PlusJakartaSans)
</metadata>
<defs>
<font id="PlusJakartaSans-Light" horiz-adv-x="572" >
  <font-face 
    font-family="Plus Jakarta Sans Light"
    font-weight="300"
    font-stretch="normal"
    units-per-em="1000"
    panose-1="0 0 0 0 0 0 0 0 0 0"
    ascent="800"
    descent="-200"
    x-height="531"
    cap-height="745"
    bbox="-153 -236 1332 1179"
    underline-thickness="40"
    underline-position="-175"
    unicode-range="U+000D-FB02"
  />
<missing-glyph horiz-adv-x="640" 
d="M60 675v70h520v-70h-520zM60 0v70h520v-70h-520zM60 225v70h520v-70h-520zM60 450v70h520v-70h-520z" />
    <glyph glyph-name="fi" unicode="fi" 
d="M138 0v474h-108v57h108v51q0 56 22.5 95t61.5 59.5t86 20.5q11 0 22.5 -1.5t19.5 -3.5v-54q-8 2 -19 2.5t-17 0.5q-52 0 -84 -29.5t-32 -89.5v-51h302v-57h-302v-474h-60zM446 0v531h60v-531h-60z" />
    <glyph glyph-name="fl" unicode="fl" horiz-adv-x="615" 
d="M138 0v474h-108v57h108v51q0 56 22.5 95t61.5 59.5t86 20.5q11 0 22.5 -1.5t19.5 -3.5v-54q-8 2 -19 2.5t-17 0.5q-52 0 -84 -29.5t-32 -89.5v-51h302v-57h-302v-474h-60zM473 0v757h60v-757h-60z" />
    <glyph glyph-name="f_f" unicode="ff" horiz-adv-x="770" 
d="M138 0v474h-108v57h108v51q0 56 22.5 95t61.5 59.5t86 20.5q11 0 22.5 -1.5t19.5 -3.5v-54q-8 2 -19 2.5t-17 0.5q-52 0 -84 -29.5t-32 -89.5v-51h302v-57h-302v-474h-60zM518 0v474h-108v57h108v51q0 56 22.5 95t61.5 59.5t86 20.5q11 0 22.5 -1.5t19.5 -3.5v-54
q-8 2 -19 2.5t-17 0.5q-52 0 -84 -29.5t-32 -89.5v-51h132v-57h-132v-474h-60z" />
    <glyph glyph-name="f_f_i" unicode="ffi" horiz-adv-x="952" 
d="M138 0v474h-108v57h108v51q0 56 22.5 95t61.5 59.5t86 20.5q11 0 22.5 -1.5t19.5 -3.5v-54q-8 2 -19 2.5t-17 0.5q-52 0 -84 -29.5t-32 -89.5v-51h302v-57h-302v-474h-60zM826 0v531h60v-531h-60zM518 0v474h-108v57h108v51q0 56 22.5 95t61.5 59.5t86 20.5
q11 0 22.5 -1.5t19.5 -3.5v-54q-8 2 -19 2.5t-17 0.5q-52 0 -84 -29.5t-32 -89.5v-51h302v-57h-302v-474h-60z" />
    <glyph glyph-name="f_f_l" unicode="ffl" horiz-adv-x="995" 
d="M138 0v474h-108v57h108v51q0 56 22.5 95t61.5 59.5t86 20.5q11 0 22.5 -1.5t19.5 -3.5v-54q-8 2 -19 2.5t-17 0.5q-52 0 -84 -29.5t-32 -89.5v-51h302v-57h-302v-474h-60zM853 0v757h60v-757h-60zM518 0v474h-108v57h108v51q0 56 22.5 95t61.5 59.5t86 20.5
q11 0 22.5 -1.5t19.5 -3.5v-54q-8 2 -19 2.5t-17 0.5q-52 0 -84 -29.5t-32 -89.5v-51h302v-57h-302v-474h-60z" />
    <glyph glyph-name=".notdef" horiz-adv-x="640" 
d="M60 675v70h520v-70h-520zM60 0v70h520v-70h-520zM60 225v70h520v-70h-520zM60 450v70h520v-70h-520z" />
    <glyph glyph-name=".null" horiz-adv-x="0" 
 />
    <glyph glyph-name="nonmarkingreturn" horiz-adv-x="333" 
 />
    <glyph glyph-name="CR" unicode="&#xd;" horiz-adv-x="170" 
 />
    <glyph glyph-name="space" unicode=" " horiz-adv-x="165" 
 />
    <glyph glyph-name="exclam" unicode="!" horiz-adv-x="269" 
d="M106 211l-4 534h65l-4 -534h-57zM101 0v100h68v-100h-68z" />
    <glyph glyph-name="quotedbl" unicode="&#x22;" horiz-adv-x="371" 
d="M94 544l-11 201h67l-11 -201h-45zM232 544l-12 201h68l-11 -201h-45z" />
    <glyph glyph-name="numbersign" unicode="#" horiz-adv-x="766" 
d="M99 0l59 204h-120v58h136l64 222h-120v58h137l58 203h66l-58 -203h222l59 203h66l-59 -203h120v-58h-136l-65 -222h120v-58h-136l-59 -204h-66l59 204h-222l-59 -204h-66zM240 262h222l65 222h-223z" />
    <glyph glyph-name="dollar" unicode="$" horiz-adv-x="643" 
d="M336 -12q-71 0 -127.5 27t-94 71t-53.5 95l58 21q28 -76 83.5 -116t132.5 -40q51 0 89.5 17t60.5 48t22 73q0 58 -32.5 90t-84.5 46l-136 40q-83 24 -122.5 77.5t-39.5 121.5q0 59 28.5 103.5t77.5 69.5t111 25q65 0 116.5 -24.5t87 -64t50.5 -87.5l-57 -21
q-25 69 -77 104.5t-119 35.5q-44 0 -79 -17t-55 -48t-20 -73q0 -51 29 -87t97 -57l122 -36q80 -24 123.5 -73.5t43.5 -121.5q0 -59 -30 -103.5t-83.5 -70t-121.5 -25.5zM301 -100v945h58v-945h-58z" />
    <glyph glyph-name="percent" unicode="%" horiz-adv-x="951" 
d="M131 0l613 745h79l-613 -745h-79zM242 376q-52 0 -95 26t-69 69t-26 96q0 52 26 95.5t69 69t95 25.5t95 -25.5t68.5 -69t25.5 -95.5q0 -53 -25.5 -96t-68.5 -69t-95 -26zM242 434q38 0 66.5 19t45.5 50t17 63q0 35 -17 65t-45.5 49.5t-66.5 19.5q-37 0 -66.5 -19
t-46.5 -49.5t-17 -64.5t17 -64.5t46.5 -49.5t66.5 -19zM710 -12q-52 0 -95 26t-69 69t-26 96q0 52 26 95.5t69 69t95 25.5t95 -25.5t68.5 -68.5t25.5 -96t-25.5 -96t-68.5 -69t-95 -26zM710 46q38 0 66.5 19t45.5 50t17 63q0 35 -17 65t-45.5 49.5t-66.5 19.5
q-37 0 -66.5 -19t-46.5 -49.5t-17 -64.5t17 -64.5t46.5 -49.5t66.5 -19z" />
    <glyph glyph-name="ampersand" unicode="&#x26;" horiz-adv-x="728" 
d="M257 -12q-57 0 -102.5 22.5t-72 63t-26.5 94.5q0 45 16.5 79.5t41.5 62.5t54 50t55 40l40 27q34 23 62.5 47t46.5 52.5t18 63.5q0 46 -30.5 76t-74.5 30q-46 0 -75.5 -30.5t-29.5 -76.5q0 -32 14.5 -61t36.5 -54t44 -48l415 -426h-88l-377 382q-23 24 -48.5 54.5
t-43.5 68t-18 82.5q0 50 22.5 88t61 60t86.5 22q46 0 84.5 -21.5t61.5 -59t23 -86.5q0 -51 -23.5 -89.5t-58 -67.5t-67.5 -52l-39 -26q-36 -26 -68.5 -52.5t-53 -58.5t-20.5 -75q0 -56 37.5 -88t96.5 -32q41 0 71.5 14t54 36.5t42.5 49t35 51.5l115 171h75l-133 -202
q-16 -25 -39 -56t-53.5 -59.5t-72 -47t-96.5 -18.5z" />
    <glyph glyph-name="quotesingle" unicode="'" horiz-adv-x="233" 
d="M94 544l-11 201h67l-11 -201h-45z" />
    <glyph glyph-name="parenleft" unicode="(" horiz-adv-x="282" 
d="M204 -135q-76 89 -115.5 203t-39.5 238q0 128 40 240t115 199h58q-72 -97 -110 -210t-38 -229q0 -114 38 -227.5t110 -213.5h-58z" />
    <glyph glyph-name="parenright" unicode=")" horiz-adv-x="282" 
d="M20 -135q72 100 110 213.5t38 227.5q0 116 -38 229t-110 210h58q76 -87 115.5 -199t39.5 -240q0 -124 -39 -238t-116 -203h-58z" />
    <glyph glyph-name="asterisk" unicode="*" horiz-adv-x="469" 
d="M143 391l-49 35l90 120l-131 44l18 58l133 -44v141h61v-141l132 44l19 -58l-131 -44l90 -120l-49 -35l-92 119z" />
    <glyph glyph-name="plus" unicode="+" horiz-adv-x="601" 
d="M271 0v221h-220v60h220v219h60v-219h220v-60h-220v-221h-60z" />
    <glyph glyph-name="comma" unicode="," horiz-adv-x="259" 
d="M81 -126v34q25 8 37.5 30t12.5 62h-30v100h67v-77q0 -63 -22.5 -100.5t-64.5 -48.5z" />
    <glyph glyph-name="hyphen" unicode="-" horiz-adv-x="483" 
d="M74 237v58h335v-58h-335z" />
    <glyph glyph-name="period" unicode="." horiz-adv-x="274" 
d="M103 0v100h68v-100h-68z" />
    <glyph glyph-name="slash" unicode="/" horiz-adv-x="413" 
d="M2 -120l338 825h71l-338 -825h-71z" />
    <glyph glyph-name="zero" unicode="0" horiz-adv-x="723" 
d="M363 -12q-87 0 -152.5 48.5t-102 135.5t-36.5 201q0 115 36.5 201.5t101.5 134.5t152 48q86 0 151 -48t101.5 -134.5t36.5 -201.5t-36 -201.5t-101 -135t-151 -48.5zM363 50q69 0 119 41t77.5 113.5t27.5 168.5q0 97 -27.5 169.5t-77.5 113t-120 40.5q-69 0 -119.5 -40.5
t-78 -113.5t-27.5 -169q0 -95 27.5 -168t78.5 -114t120 -41z" />
    <glyph glyph-name="one" unicode="1" horiz-adv-x="355" 
d="M180 0v688h-140v57h205v-745h-65z" />
    <glyph glyph-name="two" unicode="2" horiz-adv-x="589" 
d="M57 0v40l209 230q62 68 102.5 113.5t61 84.5t20.5 85q0 70 -41.5 108.5t-114.5 38.5q-71 0 -119 -41t-65 -114l-59 13q14 63 48 107.5t84 68t111 23.5q64 0 113.5 -25.5t78.5 -71.5t29 -107q0 -45 -19.5 -87t-56 -88t-91.5 -105l-196 -215h379v-58h-474z" />
    <glyph glyph-name="three" unicode="3" horiz-adv-x="604" 
d="M294 -12q-60 0 -110 22t-85.5 63t-51.5 98l55 21q20 -67 69.5 -106.5t121.5 -39.5q55 0 97 21.5t65 62t23 94.5q0 57 -24.5 95.5t-66 58t-93.5 19.5q-11 0 -25 -1t-25 -3l-11 27l205 268h-360v57h437v-50l-200 -260l-5 13q64 1 116.5 -27t84 -78.5t31.5 -118.5
q0 -66 -31 -119.5t-87 -85t-130 -31.5z" />
    <glyph glyph-name="four" unicode="4" horiz-adv-x="618" 
d="M429 0v176h-384v53l386 516h58v-514h86v-55h-86v-176h-60zM98 208l-8 23h339v455l24 -6z" />
    <glyph glyph-name="five" unicode="5" horiz-adv-x="612" 
d="M303 -12q-60 0 -111 22.5t-86.5 63.5t-51.5 97l54 21q20 -69 72.5 -107.5t122.5 -38.5q54 0 94.5 24t63.5 66.5t23 95.5t-24 94.5t-64.5 65t-91.5 23.5q-53 0 -97 -24.5t-64 -57.5l-53 11l55 401h374v-57h-351l27 18l-44 -320l-21 10q30 40 77.5 59.5t99.5 19.5
q70 0 124.5 -32.5t86 -87.5t31.5 -123q0 -70 -31.5 -125t-87 -87t-127.5 -32z" />
    <glyph glyph-name="six" unicode="6" horiz-adv-x="592" 
d="M297 -12q-68 0 -121.5 31.5t-84.5 87t-31 127.5q0 44 11 84t32.5 79t51.5 79l203 269h78l-271 -359l-16 -4q19 31 44.5 47.5t54.5 23.5t57 7q65 0 117 -30t82.5 -82.5t30.5 -122.5q0 -68 -31.5 -121.5t-85 -84.5t-121.5 -31zM298 46q49 0 88 23t61.5 63t22.5 91
q0 52 -22.5 92.5t-61 63.5t-88.5 23q-49 0 -88.5 -23t-61.5 -63.5t-22 -92.5q0 -51 22.5 -91.5t61.5 -63t88 -22.5z" />
    <glyph glyph-name="seven" unicode="7" horiz-adv-x="533" 
d="M77 0l342 688h-377v57h448v-55l-344 -690h-69z" />
    <glyph glyph-name="eight" unicode="8" horiz-adv-x="617" 
d="M309 -12q-71 0 -126 29.5t-87 81t-32 116.5q0 72 41 128.5t110 78.5l2 -18q-53 23 -82.5 67t-29.5 97q0 54 27 96.5t73 67.5t104 25t103.5 -24t72 -67t26.5 -98t-28.5 -97t-80.5 -67v18q69 -21 110.5 -78t41.5 -129q0 -65 -32 -116.5t-87.5 -81t-125.5 -29.5zM309 46
q54 0 94 20.5t63 58.5t23 89q0 50 -23 88t-63 59t-94 21t-94.5 -21t-63 -59t-22.5 -88q0 -51 22.5 -88.5t63 -58.5t94.5 -21zM309 440q39 0 70 17t49 46t18 67q0 39 -18 67.5t-49 45.5t-70 17t-70.5 -17t-50 -45.5t-18.5 -67.5q0 -38 18.5 -67t49.5 -46t71 -17z" />
    <glyph glyph-name="nine" unicode="9" horiz-adv-x="592" 
d="M157 0l270 359l16 5q-18 -30 -43.5 -47.5t-54 -24.5t-58.5 -7q-64 0 -116 30t-83 83t-31 123q0 69 31.5 122t85.5 83.5t121 30.5q69 0 122.5 -31.5t84 -87t30.5 -126.5q0 -44 -10.5 -84t-32 -79t-52.5 -80l-203 -269h-77zM295 344q50 0 88.5 23t61 63.5t22.5 91.5
q0 52 -23 92t-61.5 63t-87.5 23q-50 0 -88.5 -23t-61 -63t-22.5 -92q0 -51 22 -91.5t61 -63.5t89 -23z" />
    <glyph glyph-name="colon" unicode=":" horiz-adv-x="274" 
d="M103 0v100h68v-100h-68zM103 431v100h68v-100h-68z" />
    <glyph glyph-name="semicolon" unicode=";" horiz-adv-x="294" 
d="M103 -126v29q26 8 40.5 32.5t15.5 64.5h-36v100h68v-77q0 -63 -22.5 -100.5t-65.5 -48.5zM123 431v100h68v-100h-68z" />
    <glyph glyph-name="less" unicode="&#x3c;" horiz-adv-x="601" 
d="M534 45l-398 195v52l398 195v-66l-349 -168v26l349 -169v-65z" />
    <glyph glyph-name="equal" unicode="=" horiz-adv-x="601" 
d="M76 339v60h450v-60h-450zM76 104v60h450v-60h-450z" />
    <glyph glyph-name="greater" unicode="&#x3e;" horiz-adv-x="601" 
d="M68 45v65l348 169v-26l-348 168v66l397 -195v-52z" />
    <glyph glyph-name="question" unicode="?" horiz-adv-x="487" 
d="M164 211v7q0 46 16 80.5t42 63.5t54 55q39 37 70.5 76.5t31.5 91.5q0 30 -15 56t-44 42.5t-70 16.5q-60 0 -101.5 -36.5t-54.5 -100.5l-58 12q10 56 39.5 96.5t74.5 63t100 22.5q56 0 100 -24t69 -63t25 -86q0 -46 -20 -82t-50 -66.5t-60 -60.5q-34 -35 -60.5 -71.5
t-26.5 -85.5v-7h-62zM163 0v100h68v-100h-68z" />
    <glyph glyph-name="at" unicode="@" horiz-adv-x="928" 
d="M483 -206q-87 0 -162 31.5t-131 88t-87 131.5t-31 162q0 86 31.5 160.5t87.5 130.5t131 87t161 31q91 0 166 -33t129.5 -90.5t84 -130t29.5 -151.5q0 -65 -20 -112t-55 -73t-82 -26q-31 0 -58.5 12.5t-46 35.5t-24.5 53l16 -6q-16 -32 -39.5 -53t-53 -31.5t-64.5 -10.5
q-57 0 -103 28t-73 76t-27 108t27 108t73 76.5t103 28.5q49 0 91.5 -22t64.5 -65l-11 -13v90h57v-280q0 -37 18 -57t52 -20q42 0 67.5 38.5t25.5 113.5q0 74 -25.5 137.5t-72 111t-110 74t-139.5 26.5t-140.5 -27t-111 -74.5t-72.5 -111t-26 -136.5q0 -75 25.5 -139.5
t72.5 -114t111.5 -77t143.5 -27.5q46 0 88 10t77 30l26 -50q-84 -48 -194 -48zM466 58q41 0 72 20t49 55t18 80q0 68 -39 110.5t-100 42.5q-40 0 -72.5 -19.5t-51 -54t-18.5 -80.5q0 -44 18.5 -79t50.5 -55t73 -20z" />
    <glyph glyph-name="A" unicode="A" horiz-adv-x="648" 
d="M17 0l274 745h67l274 -745h-70l-68 190h-339l-69 -190h-69zM176 250h296l-160 445h24z" />
    <glyph glyph-name="B" unicode="B" horiz-adv-x="694" 
d="M94 0v745h307q61 0 106.5 -24t71 -66t25.5 -97q0 -58 -30 -103t-84 -65v17q44 -14 76.5 -42.5t50 -67.5t17.5 -84q0 -97 -61.5 -155t-171.5 -58h-307zM159 60h238q79 0 125.5 41t46.5 111q0 69 -45.5 110.5t-121.5 41.5h-243v-304zM159 423h236q65 0 104.5 37t39.5 97
t-38.5 94t-105.5 34h-236v-262z" />
    <glyph glyph-name="C" unicode="C" horiz-adv-x="785" 
d="M429 -12q-77 0 -142 28.5t-113.5 80.5t-75 122t-26.5 154q0 83 26.5 153.5t75 122t113.5 80t142 28.5q75 0 135 -27t101 -69t59 -87l-61 -27q-30 67 -90.5 108t-143.5 41q-85 0 -151.5 -41t-103.5 -113.5t-37 -168.5t37 -169t103.5 -113.5t151.5 -40.5q83 0 143.5 40.5
t90.5 107.5l61 -27q-18 -44 -59 -86t-101 -69.5t-135 -27.5z" />
    <glyph glyph-name="D" unicode="D" horiz-adv-x="743" 
d="M94 0v745h241q110 0 190.5 -45.5t124.5 -129t44 -197.5q0 -113 -44 -197t-124.5 -130t-190.5 -46h-241zM159 60h175q89 0 154.5 39t102 109.5t36.5 164.5q0 95 -36.5 165t-102.5 108.5t-154 38.5h-175v-625z" />
    <glyph glyph-name="E" unicode="E" horiz-adv-x="613" 
d="M94 0v745h470v-60h-405v-281h385v-60h-385v-284h405v-60h-470z" />
    <glyph glyph-name="F" unicode="F" horiz-adv-x="587" 
d="M94 0v745h455v-60h-390v-281h355v-60h-355v-344h-65z" />
    <glyph glyph-name="G" unicode="G" horiz-adv-x="828" 
d="M431 -12q-79 0 -144.5 28.5t-113.5 80t-74.5 121.5t-26.5 154t26.5 154t75 122t114 80.5t143.5 28.5q77 0 137.5 -27t102 -69t59.5 -87l-60 -28q-30 69 -91.5 109.5t-147.5 40.5q-85 0 -152 -41t-104.5 -113.5t-37.5 -169.5q0 -96 37.5 -169t104 -113t152.5 -40
q77 0 138.5 34.5t97 94t35.5 136.5v35l29 -31h-300v58h336v-56q0 -70 -25.5 -130.5t-70.5 -106t-106.5 -71t-133.5 -25.5z" />
    <glyph glyph-name="H" unicode="H" horiz-adv-x="737" 
d="M94 0v745h65v-339h420v339h65v-745h-65v346h-420v-346h-65z" />
    <glyph glyph-name="I" unicode="I" horiz-adv-x="252" 
d="M94 0v745h65v-745h-65z" />
    <glyph glyph-name="J" unicode="J" horiz-adv-x="382" 
d="M61 0v65h39q57 0 90.5 35t33.5 100v545h65v-547q0 -61 -23.5 -105.5t-66 -68.5t-99.5 -24h-39z" />
    <glyph glyph-name="K" unicode="K" horiz-adv-x="653" 
d="M94 0v745h65v-447l-19 9l392 438h84l-302 -339l3 46l319 -452h-79l-269 379l-129 -146v-233h-65z" />
    <glyph glyph-name="L" unicode="L" horiz-adv-x="532" 
d="M94 0v745h65v-685h335v-60h-400z" />
    <glyph glyph-name="M" unicode="M" horiz-adv-x="827" 
d="M94 0v745h55l278 -414h-27l279 414h55v-745h-65v650l16 -9l-270 -403h-3l-270 403l17 9v-650h-65z" />
    <glyph glyph-name="N" unicode="N" horiz-adv-x="737" 
d="M94 0v745h55l451 -647h-21v647h65v-745h-55l-453 651h23v-651h-65z" />
    <glyph glyph-name="O" unicode="O" horiz-adv-x="881" 
d="M441 -12q-77 0 -144 28.5t-117.5 80t-79 122t-28.5 154.5q0 85 28.5 155t79.5 121.5t117.5 79.5t143.5 28q76 0 143 -28t117.5 -79.5t79.5 -122t29 -154.5t-29 -154.5t-79.5 -122t-117.5 -80t-143 -28.5zM441 50q67 0 123 25t96.5 70t62.5 103.5t22 124.5q0 65 -22 123.5
t-62.5 103.5t-96 70.5t-123.5 25.5t-123.5 -25.5t-96 -70.5t-62.5 -103.5t-22 -123.5q0 -66 22 -124.5t62.5 -103.5t96.5 -70t123 -25z" />
    <glyph glyph-name="P" unicode="P" horiz-adv-x="644" 
d="M94 0v745h250q71 0 125 -28t84.5 -79t30.5 -118t-30.5 -117.5t-84 -79t-125.5 -28.5h-185v-295h-65zM159 355h187q51 0 90 20.5t61 58t22 87.5t-22 86.5t-61 57t-90 20.5h-187v-330z" />
    <glyph glyph-name="Q" unicode="Q" horiz-adv-x="881" 
d="M441 -12q-77 0 -144 28.5t-117.5 80t-79 122t-28.5 154.5q0 85 28.5 155t79.5 121.5t117.5 79.5t143.5 28q76 0 143 -28t117.5 -79.5t79.5 -122t29 -154.5t-29 -154.5t-79.5 -122t-117.5 -80t-143 -28.5zM441 50q67 0 123 25t96.5 70t62.5 103.5t22 124.5q0 65 -22 123.5
t-62.5 103.5t-96 70.5t-123.5 25.5t-123.5 -25.5t-96 -70.5t-62.5 -103.5t-22 -123.5q0 -66 22 -124.5t62.5 -103.5t96.5 -70t123 -25zM664 -90l-257 388h75l257 -388h-75z" />
    <glyph glyph-name="R" unicode="R" horiz-adv-x="638" 
d="M94 0v745h250q71 0 125 -28t84.5 -79t30.5 -118q0 -80 -43.5 -136.5t-116.5 -77.5l176 -306h-77l-185 326l54 -31h-233v-295h-65zM159 355h187q51 0 90 20.5t61 58t22 87.5t-22 86.5t-61 57t-90 20.5h-187v-330z" />
    <glyph glyph-name="S" unicode="S" horiz-adv-x="643" 
d="M336 -12q-71 0 -127.5 27t-94 71t-53.5 95l58 21q28 -76 83.5 -116t132.5 -40q51 0 89.5 17t60.5 48t22 73q0 58 -32.5 90t-84.5 46l-136 40q-83 24 -122.5 77.5t-39.5 121.5q0 59 28.5 103.5t77.5 69.5t111 25q65 0 116.5 -24.5t87 -64t50.5 -87.5l-57 -21
q-25 69 -77 104.5t-119 35.5q-44 0 -79 -17t-55 -48t-20 -73q0 -51 29 -87t97 -57l122 -36q80 -24 123.5 -73.5t43.5 -121.5q0 -59 -30 -103.5t-83.5 -70t-121.5 -25.5z" />
    <glyph glyph-name="T" unicode="T" horiz-adv-x="513" 
d="M225 0v685h-208v60h480v-60h-207v-685h-65z" />
    <glyph glyph-name="U" unicode="U" horiz-adv-x="695" 
d="M348 -12q-77 0 -135 33t-90.5 91.5t-32.5 134.5v498h65v-500q0 -58 24.5 -102.5t68 -69.5t100.5 -25t100.5 25t67.5 69.5t24 102.5v500h65v-498q0 -76 -32 -134.5t-90 -91.5t-135 -33z" />
    <glyph glyph-name="V" unicode="V" horiz-adv-x="653" 
d="M294 0l-277 745h69l250 -686h-18l249 686h70l-277 -745h-66z" />
    <glyph glyph-name="W" unicode="W" horiz-adv-x="986" 
d="M235 0l-218 745h67l196 -684l-22 1l202 683h67l201 -683l-22 -1l196 684h68l-219 -745h-66l-203 688h23l-203 -688h-67z" />
    <glyph glyph-name="X" unicode="X" horiz-adv-x="593" 
d="M17 0l241 381l-232 364h76l203 -321h-17l203 321h75l-232 -364l243 -381h-76l-213 338h17l-213 -338h-75z" />
    <glyph glyph-name="Y" unicode="Y" horiz-adv-x="624" 
d="M280 0v340l-263 405h73l237 -361h-29l236 361h73l-262 -405v-340h-65z" />
    <glyph glyph-name="Z" unicode="Z" horiz-adv-x="595" 
d="M28 0v42l444 643h-418v60h504v-42l-443 -643h453v-60h-540z" />
    <glyph glyph-name="bracketleft" unicode="[" horiz-adv-x="298" 
d="M88 -135v880h185v-57h-120v-765h120v-58h-185z" />
    <glyph glyph-name="backslash" unicode="\" horiz-adv-x="413" 
d="M340 -120l-338 825h71l338 -825h-71z" />
    <glyph glyph-name="bracketright" unicode="]" horiz-adv-x="298" 
d="M25 -135v58h120v765h-120v57h185v-880h-185z" />
    <glyph glyph-name="asciicircum" unicode="^" horiz-adv-x="601" 
d="M106 427l168 318h53l168 -318h-69l-141 272h33l-143 -272h-69z" />
    <glyph glyph-name="underscore" unicode="_" horiz-adv-x="573" 
d="M74 -57v57h425v-57h-425z" />
    <glyph glyph-name="grave" unicode="`" horiz-adv-x="341" 
d="M214 640l-111 150h82l90 -150h-61z" />
    <glyph glyph-name="a" unicode="a" horiz-adv-x="573" 
d="M235 -12q-50 0 -89 19t-62 53t-23 78q0 39 17 73t55 58.5t99 34.5l215 36v-56l-199 -33q-68 -11 -96 -41t-28 -70q0 -43 32.5 -70t82.5 -27q58 0 101 26.5t67 70t24 95.5v132q0 53 -38 86t-99 33q-50 0 -90 -25t-61 -65l-54 29q15 32 46 59t72 43t87 16q58 0 102.5 -22.5
t69.5 -62t25 -91.5v-367h-60v111l7 -5q-13 -32 -43 -58.5t-70.5 -43t-89.5 -16.5z" />
    <glyph glyph-name="b" unicode="b" horiz-adv-x="671" 
d="M349 -12q-73 0 -130.5 35.5t-85.5 97.5l10 14v-135h-60v757h60v-360l-10 19q30 58 86.5 92.5t129.5 34.5q75 0 134 -36t93 -99t34 -142t-34 -142t-93 -99.5t-134 -36.5zM347 48q57 0 102 28.5t71 78t26 111.5t-26 111t-71 77.5t-102 28.5t-103 -28.5t-73 -77.5t-27 -111
t27 -111.5t73 -78t103 -28.5z" />
    <glyph glyph-name="c" unicode="c" horiz-adv-x="604" 
d="M325 -12q-76 0 -135.5 36.5t-94 99.5t-34.5 142q0 80 34.5 142.5t94 98.5t135.5 36q50 0 92.5 -17t75.5 -46t50 -67l-53 -28q-24 46 -67 73t-98 27q-57 0 -102.5 -28t-72.5 -77.5t-27 -113.5t27 -113.5t72.5 -77.5t102.5 -28q55 0 98 27t67 74l53 -29q-17 -37 -50 -66.5
t-75.5 -47t-92.5 -17.5z" />
    <glyph glyph-name="d" unicode="d" horiz-adv-x="671" 
d="M322 -12q-74 0 -133.5 36.5t-93.5 99.5t-34 142t34 142t93.5 99t133.5 36q73 0 130 -34.5t86 -92.5l-10 -19v360h60v-757h-60v135l10 -14q-28 -62 -85.5 -97.5t-130.5 -35.5zM324 48q58 0 103.5 28.5t72.5 78t27 111.5t-27 111t-72.5 77.5t-103.5 28.5q-57 0 -102 -28.5
t-71 -77.5t-26 -111t26 -111.5t71 -78t102 -28.5z" />
    <glyph glyph-name="e" unicode="e" horiz-adv-x="621" 
d="M326 -12q-75 0 -135 36.5t-95 100t-35 142.5t34 141.5t92 98.5t130 36q55 0 99.5 -20t77 -55.5t50 -81t17.5 -95.5q0 -10 -1 -21t-3 -23h-461v55h427l-27 -21q6 58 -17 104.5t-65.5 74t-96.5 27.5t-99 -28.5t-71 -78t-24 -114.5q-2 -65 25 -115t74 -78.5t104 -28.5
q58 0 101 27.5t70 73.5l51 -27q-18 -37 -51 -66.5t-76.5 -46.5t-94.5 -17z" />
    <glyph glyph-name="f" unicode="f" horiz-adv-x="390" 
d="M138 0v474h-108v57h108v51q0 56 22.5 95t61.5 59.5t86 20.5q11 0 22.5 -1.5t19.5 -3.5v-54q-8 2 -19 2.5t-17 0.5q-52 0 -84 -29.5t-32 -89.5v-51h132v-57h-132v-474h-60z" />
    <glyph glyph-name="g" unicode="g" horiz-adv-x="663" 
d="M331 -220q-53 0 -98 17t-78 46t-52 66l54 29q22 -43 66.5 -71t106.5 -28q50 0 93 19.5t70.5 60t27.5 101.5v135l11 -14q-28 -62 -85 -97.5t-127 -35.5q-74 0 -133 36t-92.5 97t-33.5 135t33.5 134.5t92 96.5t133.5 36q70 0 126 -34.5t86 -92.5l-11 -19v134h60v-511
q0 -69 -32 -123.5t-88.5 -85.5t-129.5 -31zM322 68q56 0 100.5 28t70.5 75.5t26 104.5t-26 104t-70.5 75t-100.5 28q-57 0 -102 -28t-70 -75t-25 -104t25 -104.5t69.5 -75.5t102.5 -28z" />
    <glyph glyph-name="h" unicode="h" 
d="M83 0v757h60v-333l-15 4q18 53 64.5 84t108.5 31q55 0 100 -25t72 -69.5t27 -101.5v-347h-60v330q0 48 -19.5 82.5t-53 53t-75.5 18.5q-45 0 -78.5 -21t-52 -58t-18.5 -85v-320h-60z" />
    <glyph glyph-name="i" unicode="i" horiz-adv-x="225" 
d="M83 0v531h60v-531h-60zM83 635v110h60v-110h-60z" />
    <glyph glyph-name="j" unicode="j" horiz-adv-x="225" 
d="M-20 -220q-10 0 -21 1.5t-19 3.5v55q19 -3 39 -3q47 0 75.5 27t28.5 80v587h60v-587q0 -53 -21.5 -89.5t-58 -55.5t-83.5 -19zM83 635v110h60v-110h-60z" />
    <glyph glyph-name="k" unicode="k" horiz-adv-x="544" 
d="M83 0v757h60v-541l-31 3l314 312h82l-214 -214l234 -317h-75l-222 298l40 -1l-144 -148l16 41v-190h-60z" />
    <glyph glyph-name="l" unicode="l" horiz-adv-x="225" 
d="M83 0v757h60v-757h-60z" />
    <glyph glyph-name="m" unicode="m" horiz-adv-x="909" 
d="M83 0v531h60v-107l-11 15q20 48 64.5 76t99.5 28q62 0 113 -35.5t71 -94.5l-19 -1q17 61 67.5 96t112.5 35q53 0 97.5 -25t72 -69.5t27.5 -101.5v-347h-60v330q0 48 -19.5 82.5t-51.5 53t-72 18.5q-43 0 -75.5 -21t-51 -58t-18.5 -85v-320h-60v330q0 48 -19 82.5
t-51.5 53t-72.5 18.5q-43 0 -75.5 -21t-50.5 -58t-18 -85v-320h-60z" />
    <glyph glyph-name="n" unicode="n" 
d="M83 0v531h60v-107l-15 4q18 53 64.5 84t108.5 31q55 0 100 -25t72 -69.5t27 -101.5v-347h-60v330q0 48 -19 82.5t-52.5 53t-76.5 18.5q-45 0 -79 -21t-52 -58t-18 -85v-320h-60z" />
    <glyph glyph-name="o" unicode="o" horiz-adv-x="659" 
d="M330 -12q-76 0 -137 36t-96.5 99.5t-35.5 142.5t35.5 142t96 99t137.5 36q76 0 137 -36t96 -98.5t35 -142.5t-36 -143t-96.5 -99t-135.5 -36zM330 47q57 0 103.5 28.5t73.5 78.5t27 112t-27 111t-73 78t-104 29t-104.5 -28.5t-73.5 -78t-27 -111.5t27.5 -112t73.5 -78.5
t104 -28.5z" />
    <glyph glyph-name="p" unicode="p" horiz-adv-x="671" 
d="M83 -200v731h60v-134l-10 19q30 58 86.5 92.5t129.5 34.5q75 0 134 -36t93 -99t34 -143q0 -78 -34 -141t-93 -99.5t-134 -36.5q-73 0 -130.5 35.5t-85.5 97.5l10 14v-335h-60zM347 48q57 0 102 28.5t71 78t26 111.5t-26 111t-71 77.5t-102 28.5t-103 -28.5t-73 -77.5
t-27 -111t27 -111.5t72.5 -78t103.5 -28.5z" />
    <glyph glyph-name="q" unicode="q" horiz-adv-x="671" 
d="M528 -200v335l10 -14q-28 -62 -85.5 -97.5t-130.5 -35.5q-74 0 -133.5 36.5t-93.5 99.5t-34 142t34 142t93.5 99t133.5 36q73 0 130 -34.5t86 -92.5l-10 -19v134h60v-731h-60zM324 48q58 0 103.5 28.5t72.5 78t27 111.5t-27 111t-72.5 77.5t-103.5 28.5q-57 0 -102 -28.5
t-71 -77.5t-26 -111t26 -111.5t71 -78t102 -28.5z" />
    <glyph glyph-name="r" unicode="r" horiz-adv-x="339" 
d="M83 0v531h60v-99l-11 9q17 45 58.5 71t98.5 26h34v-60h-41q-65 0 -102 -41.5t-37 -111.5v-325h-60z" />
    <glyph glyph-name="s" unicode="s" horiz-adv-x="508" 
d="M262 -12q-74 0 -130 37t-82 101l52 24q25 -49 67 -77.5t93 -28.5q52 0 87.5 25.5t35.5 67.5q0 26 -13.5 44t-34.5 29.5t-45 17.5l-82 23q-69 19 -101.5 56t-32.5 87q0 45 23 78.5t62 52t86 18.5q66 0 120 -34t76 -92l-54 -25q-21 45 -59 70.5t-84 25.5q-48 0 -78 -25.5
t-30 -64.5q0 -25 12 -41.5t31.5 -27t40.5 -16.5l89 -26q65 -18 100.5 -57t35.5 -92q0 -43 -24 -77t-66 -53.5t-95 -19.5z" />
    <glyph glyph-name="t" unicode="t" horiz-adv-x="384" 
d="M276 -6q-66 0 -102 37.5t-36 109.5v333h-100v57h38q30 0 46 18t16 49v57h60v-124h116v-57h-116v-333q0 -22 6.5 -43t25.5 -34t55 -13q8 0 19.5 1t18.5 2v-54q-11 -3 -25 -4.5t-22 -1.5z" />
    <glyph glyph-name="u" unicode="u" 
d="M271 -12q-54 0 -99.5 25t-72.5 70.5t-27 108.5v339h60v-334q0 -47 19.5 -80.5t53 -51.5t75.5 -18q46 0 79.5 21t51.5 58.5t18 85.5v319h60v-531h-60v108l15 -5q-18 -52 -64 -83.5t-109 -31.5z" />
    <glyph glyph-name="v" unicode="v" horiz-adv-x="518" 
d="M227 0l-210 531h67l186 -478h-23l186 478h69l-213 -531h-62z" />
    <glyph glyph-name="w" unicode="w" horiz-adv-x="783" 
d="M199 0l-182 531h67l159 -481h-26l144 481h61l144 -481h-26l160 481h67l-183 -531h-61l-139 464h15l-139 -464h-61z" />
    <glyph glyph-name="x" unicode="x" horiz-adv-x="481" 
d="M17 0l187 266l-186 265h75l171 -245h-45l170 245h75l-186 -265l186 -266h-75l-170 246h45l-172 -246h-75z" />
    <glyph glyph-name="y" unicode="y" horiz-adv-x="533" 
d="M85 -220q-14 0 -30.5 2.5t-31.5 7.5v56q12 -3 27.5 -5t28.5 -2q49 1 77 24t51 76l38 89v-56l-225 559h66l193 -482h-24l194 482h67l-248 -605q-14 -33 -37 -67t-58.5 -56.5t-87.5 -22.5z" />
    <glyph glyph-name="z" unicode="z" horiz-adv-x="442" 
d="M28 0v48l330 455l14 -29h-326v57h372v-47l-330 -456l-15 30h347v-58h-392z" />
    <glyph glyph-name="braceleft" unicode="{" horiz-adv-x="304" 
d="M248 -135q-59 0 -96.5 37.5t-37.5 98.5v199q0 34 -16 55t-51 21h-28v58h28q35 0 51 21.5t16 55.5v198q0 61 37.5 98.5t96.5 37.5h31v-57h-31q-32 0 -50.5 -22t-18.5 -56v-197q1 -31 -9 -58t-35 -50q24 -20 34.5 -49t9.5 -58v-198q0 -33 18.5 -55t50.5 -22h31v-58h-31z
" />
    <glyph glyph-name="bar" unicode="|" horiz-adv-x="285" 
d="M110 -190v1035h65v-1035h-65z" />
    <glyph glyph-name="braceright" unicode="}" horiz-adv-x="304" 
d="M25 -135v58h31q33 0 51.5 22t17.5 55v198q0 29 10.5 58t33.5 49q-24 23 -34.5 50t-9.5 58v197q1 34 -17.5 56t-51.5 22h-31v57h31q60 0 97 -37.5t37 -98.5v-198q0 -34 16.5 -55.5t51.5 -21.5h27v-58h-27q-35 0 -51.5 -21t-16.5 -55v-199q0 -61 -37 -98.5t-97 -37.5h-31z
" />
    <glyph glyph-name="asciitilde" unicode="~" horiz-adv-x="601" 
d="M397 212q-33 0 -56.5 11.5t-43 26.5t-40 26.5t-46.5 11.5q-28 0 -47.5 -16.5t-24.5 -55.5h-55q4 65 39 97t85 32q33 0 56.5 -11.5t43 -26.5t40 -26.5t46.5 -11.5q27 0 45 16t24 56h55q-4 -64 -37.5 -96.5t-83.5 -32.5z" />
    <glyph glyph-name="uni00A0" unicode="&#xa0;" horiz-adv-x="165" 
 />
    <glyph glyph-name="exclamdown" unicode="&#xa1;" horiz-adv-x="269" 
d="M102 -214l4 534h57l4 -534h-65zM101 431v100h68v-100h-68z" />
    <glyph glyph-name="cent" unicode="&#xa2;" horiz-adv-x="604" 
d="M325 96q-76 0 -135.5 36.5t-94 99.5t-34.5 142t34.5 141.5t94 99t135.5 36.5q50 0 92.5 -17t75.5 -46.5t50 -67.5l-53 -28q-24 47 -67 73.5t-98 26.5q-57 0 -102.5 -27.5t-72.5 -77t-27 -114.5q0 -64 27 -113.5t72.5 -77.5t102.5 -28q55 0 98 27t67 74l53 -28
q-17 -37 -50 -67t-75.5 -47t-92.5 -17zM292 0v745h58v-745h-58z" />
    <glyph glyph-name="sterling" unicode="&#xa3;" horiz-adv-x="646" 
d="M47 0v58h100v479q0 66 28 115.5t79 77t117 27.5q60 0 108.5 -22.5t80 -65.5t39.5 -104l-59 -13q-9 71 -54 109.5t-115 38.5q-73 0 -116 -43.5t-43 -119.5v-479h344v-58h-509zM47 351v55h350v-55h-350z" />
    <glyph glyph-name="currency" unicode="&#xa4;" horiz-adv-x="586" 
d="M101 37l-40 40l75 75q-19 26 -29.5 56t-10.5 61t10.5 61t29.5 57l-75 75l40 40l75 -75q25 18 55.5 29t61.5 11t61.5 -10.5t56.5 -29.5l75 75l40 -40l-75 -75q19 -27 29 -56.5t10 -61.5t-10 -61.5t-29 -55.5l75 -75l-40 -40l-75 75q-27 -20 -57 -30t-61 -10q-28 0 -59 9.5
t-58 30.5zM293 134q38 0 68.5 18.5t49 49t18.5 67.5q0 38 -18.5 68.5t-49 49t-68.5 18.5q-37 0 -68 -18.5t-50 -49t-19 -68.5q0 -37 19 -67.5t50 -49t68 -18.5z" />
    <glyph glyph-name="yen" unicode="&#xa5;" horiz-adv-x="624" 
d="M280 0v340l-263 405h73l237 -361h-29l236 361h73l-262 -405v-340h-65zM137 308v55h350v-55h-350zM137 153v55h350v-55h-350z" />
    <glyph glyph-name="brokenbar" unicode="&#xa6;" horiz-adv-x="285" 
d="M110 428v417h65v-417h-65zM110 -190v418h65v-418h-65z" />
    <glyph glyph-name="section" unicode="&#xa7;" horiz-adv-x="538" 
d="M274 -97q-78 0 -138 39.5t-86 104.5l54 26q26 -54 72 -83.5t99 -29.5q54 0 91 28t37 72q0 27 -13.5 45.5t-36 31.5t-48.5 20l-87 25q-72 21 -106.5 59.5t-34.5 90.5q0 46 24.5 81.5t65 55.5t90.5 20l-1 -43q-51 0 -83 -30t-32 -76q0 -26 12.5 -45t33 -31t43.5 -19l94 -27
q68 -20 105.5 -61t37.5 -96q0 -45 -24.5 -81t-68.5 -56.5t-100 -20.5zM283 171v43q55 0 92.5 30.5t37.5 78.5q0 29 -13.5 48.5t-36 33t-48.5 20.5l-87 25q-72 21 -106.5 59.5t-34.5 90.5q0 47 24 82t65 55t92 20q68 0 124.5 -36t79.5 -96l-55 -26q-23 47 -63 74t-88 27
q-51 0 -83 -27.5t-32 -68.5q0 -25 12.5 -43t33 -29.5t43.5 -18.5l94 -27q68 -19 105.5 -60.5t37.5 -96.5q0 -45 -25 -81t-69 -56.5t-100 -20.5z" />
    <glyph glyph-name="dieresis" unicode="&#xa8;" horiz-adv-x="417" 
d="M103 640v88h85v-88h-85zM268 640v88h85v-88h-85z" />
    <glyph glyph-name="copyright" unicode="&#xa9;" horiz-adv-x="895" 
d="M448 -12q-80 0 -150 29.5t-123 82.5t-82.5 123t-29.5 150q0 79 29.5 148.5t82.5 122.5t122.5 83t150.5 30q80 0 149.5 -30t122.5 -83t82.5 -122.5t29.5 -148.5q0 -81 -30 -150.5t-83 -122.5t-122.5 -82.5t-148.5 -29.5zM448 47q68 0 127 25t103 69.5t69 104t25 127.5
q0 67 -24.5 126t-69 104t-103.5 70t-127 25t-127 -25t-103.5 -69.5t-69.5 -103.5t-25 -127t25 -127.5t69.5 -104t103.5 -69.5t127 -25zM453 163q-57 0 -102.5 27.5t-71.5 75t-26 107.5q0 61 26 108t71.5 74t102.5 27q42 0 76 -14.5t57.5 -38t33.5 -50.5l-53 -26
q-13 31 -42.5 52.5t-71.5 21.5q-62 0 -101 -42.5t-39 -111.5t39 -112t101 -43q42 0 71 21t43 53l53 -25q-10 -27 -33.5 -50.5t-57.5 -38.5t-76 -15z" />
    <glyph glyph-name="ordfeminine" unicode="&#xaa;" horiz-adv-x="456" 
d="M186 364q-54 0 -89.5 29.5t-35.5 76.5q0 43 30 75.5t93 42.5l142 24v-50l-129 -21q-41 -7 -58 -25t-17 -44t20.5 -42.5t49.5 -16.5q37 0 65 16t43 43.5t15 60.5v95q0 33 -24 53.5t-63 20.5q-33 0 -59.5 -16.5t-38.5 -44.5l-51 27q17 38 59 62.5t91 24.5q64 0 104 -35.5
t40 -91.5v-256h-56v74l9 -3q-16 -34 -53.5 -56.5t-86.5 -22.5z" />
    <glyph glyph-name="guillemotleft" unicode="&#xab;" horiz-adv-x="506" 
d="M181 81l-152 188l152 188h68l-149 -188l149 -188h-68zM409 81l-152 188l152 188h68l-149 -188l149 -188h-68z" />
    <glyph glyph-name="logicalnot" unicode="&#xac;" horiz-adv-x="601" 
d="M491 40v181h-440v60h500v-241h-60z" />
    <glyph glyph-name="registered" unicode="&#xae;" horiz-adv-x="639" 
d="M320 272q-71 0 -129.5 34.5t-93 93t-34.5 128.5q0 71 34.5 129t93 92.5t129.5 34.5q53 0 99.5 -20t81.5 -55t55 -81.5t20 -99.5q0 -70 -34.5 -128.5t-92.5 -93t-129 -34.5zM320 323q57 0 103.5 27t74 74t27.5 104t-27.5 103.5t-74 74t-103.5 27.5q-58 0 -104.5 -27.5
t-74 -74t-27.5 -103.5t27.5 -103.5t74 -74t104.5 -27.5zM227 394v270h104q41 0 67.5 -22.5t26.5 -63.5q0 -25 -11.5 -45.5t-36.5 -31.5l63 -107h-58l-55 98h-49v-98h-51zM278 537h53q20 0 31.5 12t11.5 29q0 18 -11.5 29t-31.5 11h-53v-81z" />
    <glyph glyph-name="macron" unicode="&#xaf;" horiz-adv-x="437" 
d="M103 660v55h260v-55h-260z" />
    <glyph glyph-name="degree" unicode="&#xb0;" horiz-adv-x="461" 
d="M230 463q-41 0 -74.5 19t-53 52.5t-19.5 75.5t19.5 75t53 52.5t75.5 19.5t75 -19.5t52.5 -53t19.5 -75.5t-19.5 -75t-52.5 -52t-76 -19zM230 513q38 0 67.5 26.5t29.5 69.5q0 45 -29.5 71.5t-67.5 26.5t-67 -26.5t-29 -71.5q0 -43 28.5 -69.5t67.5 -26.5z" />
    <glyph glyph-name="plusminus" unicode="&#xb1;" horiz-adv-x="601" 
d="M271 145v186h-220v60h220v184h60v-184h220v-60h-220v-186h-60zM51 0v60h500v-60h-500z" />
    <glyph glyph-name="uni00B2" unicode="&#xb2;" horiz-adv-x="428" 
d="M43 223v43l145 156q42 46 68.5 76t39 54.5t12.5 53.5q0 43 -26 67.5t-70 24.5q-45 0 -76 -25.5t-42 -72.5l-55 15q9 43 33.5 73.5t60.5 47.5t78 17q47 0 82.5 -18.5t56 -50.5t20.5 -75q0 -48 -28.5 -90.5t-80.5 -98.5l-133 -143h253v-54h-338z" />
    <glyph glyph-name="uni00B3" unicode="&#xb3;" horiz-adv-x="433" 
d="M213 215q-42 0 -78 15.5t-61 43.5t-37 67l53 20q14 -42 46 -66.5t77 -24.5q52 0 84.5 30.5t32.5 82.5q0 53 -33.5 81.5t-83.5 28.5q-22 0 -41 -5l-13 27l141 176h-238v54h309v-49l-137 -173l-3 17q46 0 82 -20t57.5 -55t21.5 -82t-23 -85t-63.5 -60.5t-92.5 -22.5z" />
    <glyph glyph-name="acute" unicode="&#xb4;" horiz-adv-x="341" 
d="M103 640l90 150h82l-111 -150h-61z" />
    <glyph glyph-name="uni00B5" unicode="&#xb5;" 
d="M72 -140v671h60v-334q0 -47 19.5 -80.5t53 -51.5t75.5 -18q46 0 79.5 21t51.5 58.5t18 85.5v319h60v-531h-60v108l10 -15q-19 -48 -64 -76.5t-104 -28.5q-46 0 -87 19t-68 54l16 18v-219h-60z" />
    <glyph glyph-name="paragraph" unicode="&#xb6;" horiz-adv-x="378" 
d="M203 -100v538q-45 0 -79.5 20t-55 55t-20.5 79t20 79t55 54.5t80 19.5h65v-845h-65z" />
    <glyph glyph-name="periodcentered" unicode="&#xb7;" horiz-adv-x="274" 
d="M103 220v100h68v-100h-68z" />
    <glyph glyph-name="cedilla" unicode="&#xb8;" horiz-adv-x="382" 
d="M203 -225q-28 0 -55 10t-45 28l18 43q16 -16 36.5 -24.5t39.5 -8.5q24 0 38 12.5t14 30.5q0 26 -25.5 40t-75.5 19l25 85h48l-14 -53q47 -9 73 -33.5t26 -58.5q0 -40 -29 -65t-74 -25z" />
    <glyph glyph-name="uni00B9" unicode="&#xb9;" horiz-adv-x="297" 
d="M123 223v468h-98v54h160v-522h-62z" />
    <glyph glyph-name="ordmasculine" unicode="&#xba;" horiz-adv-x="506" 
d="M254 364q-54 0 -98 25.5t-69.5 70t-25.5 100.5t25.5 100t69.5 69.5t98 25.5t97.5 -25.5t69 -69.5t25.5 -100q0 -57 -26 -101t-69.5 -69.5t-96.5 -25.5zM254 420q36 0 65.5 18.5t47 50t17.5 71.5t-17.5 71.5t-46.5 50t-66 18.5t-67 -18.5t-47.5 -50t-17.5 -71.5
q0 -39 17.5 -71t47.5 -50.5t67 -18.5z" />
    <glyph glyph-name="guillemotright" unicode="&#xbb;" horiz-adv-x="506" 
d="M257 81l150 188l-150 188h69l151 -188l-151 -188h-69zM29 81l150 188l-150 188h69l151 -188l-151 -188h-69z" />
    <glyph glyph-name="onequarter" unicode="&#xbc;" horiz-adv-x="877" 
d="M104 328v366h-79v51h138v-417h-59zM122 0l446 745h67l-446 -745h-67zM723 0v95h-203v49l201 274h58v-274h56v-49h-56v-95h-56zM564 123l-9 21h168v226l17 -5z" />
    <glyph glyph-name="onehalf" unicode="&#xbd;" horiz-adv-x="844" 
d="M104 328v366h-79v51h138v-417h-59zM122 0l446 745h67l-446 -745h-67zM524 0v42l115 123q33 35 53 58t29.5 41.5t9.5 39.5q0 32 -19.5 49.5t-51.5 17.5t-55 -18.5t-32 -53.5l-52 16q7 34 27 58.5t49 37.5t63 13q57 0 93.5 -32.5t36.5 -83.5q0 -40 -24.5 -74t-59.5 -72
l-103 -111h195v-51h-274z" />
    <glyph glyph-name="threequarters" unicode="&#xbe;" horiz-adv-x="969" 
d="M180 321q-51 0 -90.5 27.5t-52.5 73.5l50 19q11 -32 35.5 -50t57.5 -18q38 0 62 23t24 61q0 39 -24 60.5t-62 21.5q-9 0 -19.5 -1.5t-17.5 -4.5l-12 27l111 135h-184v50h250v-47l-108 -133l-2 18q55 -1 91 -35.5t36 -89.5q0 -38 -18.5 -69t-51.5 -49.5t-75 -18.5zM214 0
l446 745h67l-446 -745h-67zM815 0v95h-203v49l201 274h58v-274h56v-49h-56v-95h-56zM656 123l-9 21h168v226l17 -5z" />
    <glyph glyph-name="questiondown" unicode="&#xbf;" horiz-adv-x="487" 
d="M238 -226q-56 0 -100 24t-69 63.5t-25 85.5q0 47 20 83t50 66.5t60 60.5q34 34 60.5 71.5t26.5 84.5v7h62v-7q0 -45 -16 -80t-41.5 -63.5t-54.5 -54.5q-39 -38 -70.5 -77t-31.5 -92q0 -29 15.5 -55.5t44 -43t69.5 -16.5q60 0 101.5 37t54.5 100l58 -12q-9 -55 -39 -96
t-75 -63.5t-100 -22.5zM256 431v100h68v-100h-68z" />
    <glyph glyph-name="Agrave" unicode="&#xc0;" horiz-adv-x="648" 
d="M17 0l274 745h67l274 -745h-70l-68 190h-339l-69 -190h-69zM176 250h296l-160 445h24zM294 854l-111 150h82l90 -150h-61z" />
    <glyph glyph-name="Aacute" unicode="&#xc1;" horiz-adv-x="648" 
d="M17 0l274 745h67l274 -745h-70l-68 190h-339l-69 -190h-69zM176 250h296l-160 445h24zM294 854l90 150h82l-111 -150h-61z" />
    <glyph glyph-name="Acircumflex" unicode="&#xc2;" horiz-adv-x="648" 
d="M17 0l274 745h67l274 -745h-70l-68 190h-339l-69 -190h-69zM176 250h296l-160 445h24zM170 854l123 150h63l124 -150h-70l-85 103l-85 -103h-70z" />
    <glyph glyph-name="Atilde" unicode="&#xc3;" horiz-adv-x="648" 
d="M17 0l274 745h67l274 -745h-70l-68 190h-339l-69 -190h-69zM176 250h296l-160 445h24zM383 854q-26 0 -42 10t-27.5 23.5t-22.5 23.5t-28 10t-27.5 -14.5t-10.5 -48.5h-51q0 54 24 84.5t67 30.5q25 0 40.5 -10t27 -23.5t23 -23.5t28.5 -10q19 0 30 16t11 47h50
q0 -51 -24.5 -83t-67.5 -32z" />
    <glyph glyph-name="Adieresis" unicode="&#xc4;" horiz-adv-x="648" 
d="M17 0l274 745h67l274 -745h-70l-68 190h-339l-69 -190h-69zM176 250h296l-160 445h24zM199 854v88h85v-88h-85zM364 854v88h85v-88h-85z" />
    <glyph glyph-name="Aring" unicode="&#xc5;" horiz-adv-x="648" 
d="M17 0l274 745h67l274 -745h-70l-68 190h-339l-69 -190h-69zM176 250h296l-160 445h24zM324 834q-41 0 -71.5 27t-30.5 74q0 46 30 73.5t72 27.5t72.5 -27.5t30.5 -73.5q0 -47 -30.5 -74t-72.5 -27zM324 879q23 0 39 15t16 40q0 26 -16 41t-39 15q-22 0 -38 -15t-16 -40
q0 -26 16 -41t38 -15z" />
    <glyph glyph-name="AE" unicode="&#xc6;" horiz-adv-x="986" 
d="M17 0l274 745h646v-60h-405v-281h385v-60h-385v-284h405v-60h-470v190h-312l-69 -190h-69zM176 250h291v435h-134z" />
    <glyph glyph-name="Ccedilla" unicode="&#xc7;" horiz-adv-x="785" 
d="M429 -12q-77 0 -142 28.5t-113.5 80.5t-75 122t-26.5 154q0 83 26.5 153.5t75 122t113.5 80t142 28.5q75 0 135 -27t101 -69t59 -87l-61 -27q-30 67 -90.5 108t-143.5 41q-85 0 -151.5 -41t-103.5 -113.5t-37 -168.5t37 -169t103.5 -113.5t151.5 -40.5q83 0 143.5 40.5
t90.5 107.5l61 -27q-18 -44 -59 -86t-101 -69.5t-135 -27.5zM439 -225q-28 0 -55 10t-45 28l18 43q16 -16 36.5 -24.5t39.5 -8.5q24 0 38 12.5t14 30.5q0 26 -25.5 40t-75.5 19l25 85h48l-14 -53q47 -9 73 -33.5t26 -58.5q0 -40 -29 -65t-74 -25z" />
    <glyph glyph-name="Egrave" unicode="&#xc8;" horiz-adv-x="613" 
d="M94 0v745h470v-60h-405v-281h385v-60h-385v-284h405v-60h-470zM299 854l-111 150h82l90 -150h-61z" />
    <glyph glyph-name="Eacute" unicode="&#xc9;" horiz-adv-x="613" 
d="M94 0v745h470v-60h-405v-281h385v-60h-385v-284h405v-60h-470zM298 854l90 150h82l-111 -150h-61z" />
    <glyph glyph-name="Ecircumflex" unicode="&#xca;" horiz-adv-x="613" 
d="M94 0v745h470v-60h-405v-281h385v-60h-385v-284h405v-60h-470zM174 854l123 150h63l124 -150h-70l-85 103l-85 -103h-70z" />
    <glyph glyph-name="Edieresis" unicode="&#xcb;" horiz-adv-x="613" 
d="M94 0v745h470v-60h-405v-281h385v-60h-385v-284h405v-60h-470zM204 854v88h85v-88h-85zM369 854v88h85v-88h-85z" />
    <glyph glyph-name="Igrave" unicode="&#xcc;" horiz-adv-x="252" 
d="M94 0v745h65v-745h-65zM96 854l-111 150h82l90 -150h-61z" />
    <glyph glyph-name="Iacute" unicode="&#xcd;" horiz-adv-x="252" 
d="M94 0v745h65v-745h-65zM96 854l90 150h82l-111 -150h-61z" />
    <glyph glyph-name="Icircumflex" unicode="&#xce;" horiz-adv-x="252" 
d="M94 0v745h65v-745h-65zM-28 854l123 150h63l124 -150h-70l-85 103l-85 -103h-70z" />
    <glyph glyph-name="Idieresis" unicode="&#xcf;" horiz-adv-x="252" 
d="M94 0v745h65v-745h-65zM1 854v88h85v-88h-85zM166 854v88h85v-88h-85z" />
    <glyph glyph-name="Eth" unicode="&#xd0;" horiz-adv-x="743" 
d="M29 344v58h295v-58h-295zM94 0v745h241q110 0 190.5 -45.5t124.5 -129t44 -197.5q0 -113 -44 -197t-124.5 -130t-190.5 -46h-241zM159 60h175q89 0 154.5 39t102 109.5t36.5 164.5q0 95 -36.5 165t-102.5 108.5t-154 38.5h-175v-625z" />
    <glyph glyph-name="Ntilde" unicode="&#xd1;" horiz-adv-x="737" 
d="M94 0v745h55l451 -647h-21v647h65v-745h-55l-453 651h23v-651h-65zM427 854q-26 0 -42 10t-27.5 23.5t-22.5 23.5t-28 10t-27.5 -14.5t-10.5 -48.5h-51q0 54 24 84.5t67 30.5q25 0 40.5 -10t27 -23.5t23 -23.5t28.5 -10q19 0 30 16t11 47h50q0 -51 -24.5 -83t-67.5 -32z
" />
    <glyph glyph-name="Ograve" unicode="&#xd2;" horiz-adv-x="881" 
d="M441 -12q-77 0 -144 28.5t-117.5 80t-79 122t-28.5 154.5q0 85 28.5 155t79.5 121.5t117.5 79.5t143.5 28q76 0 143 -28t117.5 -79.5t79.5 -122t29 -154.5t-29 -154.5t-79.5 -122t-117.5 -80t-143 -28.5zM441 50q67 0 123 25t96.5 70t62.5 103.5t22 124.5q0 65 -22 123.5
t-62.5 103.5t-96 70.5t-123.5 25.5t-123.5 -25.5t-96 -70.5t-62.5 -103.5t-22 -123.5q0 -66 22 -124.5t62.5 -103.5t96.5 -70t123 -25zM411 854l-111 150h82l90 -150h-61z" />
    <glyph glyph-name="Oacute" unicode="&#xd3;" horiz-adv-x="881" 
d="M441 -12q-77 0 -144 28.5t-117.5 80t-79 122t-28.5 154.5q0 85 28.5 155t79.5 121.5t117.5 79.5t143.5 28q76 0 143 -28t117.5 -79.5t79.5 -122t29 -154.5t-29 -154.5t-79.5 -122t-117.5 -80t-143 -28.5zM441 50q67 0 123 25t96.5 70t62.5 103.5t22 124.5q0 65 -22 123.5
t-62.5 103.5t-96 70.5t-123.5 25.5t-123.5 -25.5t-96 -70.5t-62.5 -103.5t-22 -123.5q0 -66 22 -124.5t62.5 -103.5t96.5 -70t123 -25zM410 854l90 150h82l-111 -150h-61z" />
    <glyph glyph-name="Ocircumflex" unicode="&#xd4;" horiz-adv-x="881" 
d="M441 -12q-77 0 -144 28.5t-117.5 80t-79 122t-28.5 154.5q0 85 28.5 155t79.5 121.5t117.5 79.5t143.5 28q76 0 143 -28t117.5 -79.5t79.5 -122t29 -154.5t-29 -154.5t-79.5 -122t-117.5 -80t-143 -28.5zM441 50q67 0 123 25t96.5 70t62.5 103.5t22 124.5q0 65 -22 123.5
t-62.5 103.5t-96 70.5t-123.5 25.5t-123.5 -25.5t-96 -70.5t-62.5 -103.5t-22 -123.5q0 -66 22 -124.5t62.5 -103.5t96.5 -70t123 -25zM286 854l123 150h63l124 -150h-70l-85 103l-85 -103h-70z" />
    <glyph glyph-name="Otilde" unicode="&#xd5;" horiz-adv-x="881" 
d="M441 -12q-77 0 -144 28.5t-117.5 80t-79 122t-28.5 154.5q0 85 28.5 155t79.5 121.5t117.5 79.5t143.5 28q76 0 143 -28t117.5 -79.5t79.5 -122t29 -154.5t-29 -154.5t-79.5 -122t-117.5 -80t-143 -28.5zM441 50q67 0 123 25t96.5 70t62.5 103.5t22 124.5q0 65 -22 123.5
t-62.5 103.5t-96 70.5t-123.5 25.5t-123.5 -25.5t-96 -70.5t-62.5 -103.5t-22 -123.5q0 -66 22 -124.5t62.5 -103.5t96.5 -70t123 -25zM499 854q-26 0 -42 10t-27.5 23.5t-22.5 23.5t-28 10t-27.5 -14.5t-10.5 -48.5h-51q0 54 24 84.5t67 30.5q25 0 40.5 -10t27 -23.5
t23 -23.5t28.5 -10q19 0 30 16t11 47h50q0 -51 -24.5 -83t-67.5 -32z" />
    <glyph glyph-name="Odieresis" unicode="&#xd6;" horiz-adv-x="881" 
d="M441 -12q-77 0 -144 28.5t-117.5 80t-79 122t-28.5 154.5q0 85 28.5 155t79.5 121.5t117.5 79.5t143.5 28q76 0 143 -28t117.5 -79.5t79.5 -122t29 -154.5t-29 -154.5t-79.5 -122t-117.5 -80t-143 -28.5zM441 50q67 0 123 25t96.5 70t62.5 103.5t22 124.5q0 65 -22 123.5
t-62.5 103.5t-96 70.5t-123.5 25.5t-123.5 -25.5t-96 -70.5t-62.5 -103.5t-22 -123.5q0 -66 22 -124.5t62.5 -103.5t96.5 -70t123 -25zM316 854v88h85v-88h-85zM481 854v88h85v-88h-85z" />
    <glyph glyph-name="multiply" unicode="&#xd7;" horiz-adv-x="601" 
d="M131 0l-43 42l170 171l-169 169l42 42l170 -169l169 169l42 -42l-169 -169l170 -171l-42 -42l-170 170z" />
    <glyph glyph-name="Oslash" unicode="&#xd8;" horiz-adv-x="881" 
d="M94 0l610 745h84l-610 -745h-84zM441 -12q-77 0 -144 28.5t-117.5 80t-79 122t-28.5 154.5q0 85 28.5 155t79.5 121.5t117.5 79.5t143.5 28q76 0 143 -28t117.5 -79.5t79.5 -122t29 -154.5t-29 -154.5t-79.5 -122t-117.5 -80t-143 -28.5zM441 50q67 0 123 25t96.5 70
t62.5 103.5t22 124.5q0 65 -22 123.5t-62.5 103.5t-96 70.5t-123.5 25.5t-123.5 -25.5t-96 -70.5t-62.5 -103.5t-22 -123.5q0 -66 22 -124.5t62.5 -103.5t96.5 -70t123 -25z" />
    <glyph glyph-name="Ugrave" unicode="&#xd9;" horiz-adv-x="695" 
d="M348 -12q-77 0 -135 33t-90.5 91.5t-32.5 134.5v498h65v-500q0 -58 24.5 -102.5t68 -69.5t100.5 -25t100.5 25t67.5 69.5t24 102.5v500h65v-498q0 -76 -32 -134.5t-90 -91.5t-135 -33zM318 854l-111 150h82l90 -150h-61z" />
    <glyph glyph-name="Uacute" unicode="&#xda;" horiz-adv-x="695" 
d="M348 -12q-77 0 -135 33t-90.5 91.5t-32.5 134.5v498h65v-500q0 -58 24.5 -102.5t68 -69.5t100.5 -25t100.5 25t67.5 69.5t24 102.5v500h65v-498q0 -76 -32 -134.5t-90 -91.5t-135 -33zM317 854l90 150h82l-111 -150h-61z" />
    <glyph glyph-name="Ucircumflex" unicode="&#xdb;" horiz-adv-x="695" 
d="M348 -12q-77 0 -135 33t-90.5 91.5t-32.5 134.5v498h65v-500q0 -58 24.5 -102.5t68 -69.5t100.5 -25t100.5 25t67.5 69.5t24 102.5v500h65v-498q0 -76 -32 -134.5t-90 -91.5t-135 -33zM193 854l123 150h63l124 -150h-70l-85 103l-85 -103h-70z" />
    <glyph glyph-name="Udieresis" unicode="&#xdc;" horiz-adv-x="695" 
d="M348 -12q-77 0 -135 33t-90.5 91.5t-32.5 134.5v498h65v-500q0 -58 24.5 -102.5t68 -69.5t100.5 -25t100.5 25t67.5 69.5t24 102.5v500h65v-498q0 -76 -32 -134.5t-90 -91.5t-135 -33zM223 854v88h85v-88h-85zM388 854v88h85v-88h-85z" />
    <glyph glyph-name="Yacute" unicode="&#xdd;" horiz-adv-x="624" 
d="M280 0v340l-263 405h73l237 -361h-29l236 361h73l-262 -405v-340h-65zM282 854l90 150h82l-111 -150h-61z" />
    <glyph glyph-name="Thorn" unicode="&#xde;" horiz-adv-x="635" 
d="M88 0v745h65v-147h185q71 0 125 -28.5t84.5 -79.5t30.5 -118t-30.5 -117.5t-84 -78.5t-125.5 -28h-185v-148h-65zM153 208h187q51 0 90 20.5t61 58t22 86.5q0 50 -22 87t-61 57.5t-90 20.5h-187v-330z" />
    <glyph glyph-name="germandbls" unicode="&#xdf;" horiz-adv-x="604" 
d="M94 -145v691q0 65 28 112t76.5 73t108.5 26t106.5 -23.5t73 -66.5t26.5 -101q0 -67 -33.5 -112t-91.5 -66l-4 19q79 -24 119.5 -72.5t40.5 -122.5q0 -64 -29.5 -111.5t-81 -74t-120.5 -26.5h-64v58h64q74 0 119.5 42.5t45.5 111.5t-46 111.5t-122 42.5h-61v58h54
q42 0 74.5 17.5t51.5 49t19 72.5q0 40 -18 71t-50 48.5t-74 17.5q-43 0 -77.5 -19t-54.5 -53.5t-20 -81.5v-691h-60z" />
    <glyph glyph-name="agrave" unicode="&#xe0;" horiz-adv-x="573" 
d="M235 -12q-50 0 -89 19t-62 53t-23 78q0 39 17 73t55 58.5t99 34.5l215 36v-56l-199 -33q-68 -11 -96 -41t-28 -70q0 -43 32.5 -70t82.5 -27q58 0 101 26.5t67 70t24 95.5v132q0 53 -38 86t-99 33q-50 0 -90 -25t-61 -65l-54 29q15 32 46 59t72 43t87 16q58 0 102.5 -22.5
t69.5 -62t25 -91.5v-367h-60v111l7 -5q-13 -32 -43 -58.5t-70.5 -43t-89.5 -16.5zM264 640l-111 150h82l90 -150h-61z" />
    <glyph glyph-name="aacute" unicode="&#xe1;" horiz-adv-x="573" 
d="M235 -12q-50 0 -89 19t-62 53t-23 78q0 39 17 73t55 58.5t99 34.5l215 36v-56l-199 -33q-68 -11 -96 -41t-28 -70q0 -43 32.5 -70t82.5 -27q58 0 101 26.5t67 70t24 95.5v132q0 53 -38 86t-99 33q-50 0 -90 -25t-61 -65l-54 29q15 32 46 59t72 43t87 16q58 0 102.5 -22.5
t69.5 -62t25 -91.5v-367h-60v111l7 -5q-13 -32 -43 -58.5t-70.5 -43t-89.5 -16.5zM263 640l90 150h82l-111 -150h-61z" />
    <glyph glyph-name="acircumflex" unicode="&#xe2;" horiz-adv-x="573" 
d="M235 -12q-50 0 -89 19t-62 53t-23 78q0 39 17 73t55 58.5t99 34.5l215 36v-56l-199 -33q-68 -11 -96 -41t-28 -70q0 -43 32.5 -70t82.5 -27q58 0 101 26.5t67 70t24 95.5v132q0 53 -38 86t-99 33q-50 0 -90 -25t-61 -65l-54 29q15 32 46 59t72 43t87 16q58 0 102.5 -22.5
t69.5 -62t25 -91.5v-367h-60v111l7 -5q-13 -32 -43 -58.5t-70.5 -43t-89.5 -16.5zM139 640l123 150h63l124 -150h-70l-85 103l-85 -103h-70z" />
    <glyph glyph-name="atilde" unicode="&#xe3;" horiz-adv-x="573" 
d="M235 -12q-50 0 -89 19t-62 53t-23 78q0 39 17 73t55 58.5t99 34.5l215 36v-56l-199 -33q-68 -11 -96 -41t-28 -70q0 -43 32.5 -70t82.5 -27q58 0 101 26.5t67 70t24 95.5v132q0 53 -38 86t-99 33q-50 0 -90 -25t-61 -65l-54 29q15 32 46 59t72 43t87 16q58 0 102.5 -22.5
t69.5 -62t25 -91.5v-367h-60v111l7 -5q-13 -32 -43 -58.5t-70.5 -43t-89.5 -16.5zM352 640q-26 0 -42 10t-27.5 23.5t-22.5 23.5t-28 10t-27.5 -14.5t-10.5 -48.5h-51q0 54 24 84.5t67 30.5q25 0 40.5 -10t27 -23.5t23 -23.5t28.5 -10q19 0 30 16t11 47h50q0 -51 -24.5 -83
t-67.5 -32z" />
    <glyph glyph-name="adieresis" unicode="&#xe4;" horiz-adv-x="573" 
d="M235 -12q-50 0 -89 19t-62 53t-23 78q0 39 17 73t55 58.5t99 34.5l215 36v-56l-199 -33q-68 -11 -96 -41t-28 -70q0 -43 32.5 -70t82.5 -27q58 0 101 26.5t67 70t24 95.5v132q0 53 -38 86t-99 33q-50 0 -90 -25t-61 -65l-54 29q15 32 46 59t72 43t87 16q58 0 102.5 -22.5
t69.5 -62t25 -91.5v-367h-60v111l7 -5q-13 -32 -43 -58.5t-70.5 -43t-89.5 -16.5zM169 640v88h85v-88h-85zM334 640v88h85v-88h-85z" />
    <glyph glyph-name="aring" unicode="&#xe5;" horiz-adv-x="573" 
d="M235 -12q-50 0 -89 19t-62 53t-23 78q0 39 17 73t55 58.5t99 34.5l215 36v-56l-199 -33q-68 -11 -96 -41t-28 -70q0 -43 32.5 -70t82.5 -27q58 0 101 26.5t67 70t24 95.5v132q0 53 -38 86t-99 33q-50 0 -90 -25t-61 -65l-54 29q15 32 46 59t72 43t87 16q58 0 102.5 -22.5
t69.5 -62t25 -91.5v-367h-60v111l7 -5q-13 -32 -43 -58.5t-70.5 -43t-89.5 -16.5zM293 620q-41 0 -71.5 27t-30.5 74q0 46 30 73.5t72 27.5t72.5 -27.5t30.5 -73.5q0 -47 -30.5 -74t-72.5 -27zM293 665q23 0 39 15t16 40q0 26 -16 41t-39 15q-22 0 -38 -15t-16 -40
q0 -26 16 -41t38 -15z" />
    <glyph glyph-name="ae" unicode="&#xe6;" horiz-adv-x="993" 
d="M235 -12q-50 0 -89 19t-62 53t-23 78q0 39 17 73t55 58.5t99 34.5l198 33v30q0 53 -37.5 86t-98.5 33q-50 0 -90 -25t-61 -65l-54 29q15 32 46 59t72 43t87 16q74 0 126 -37t66 -99l-19 1q32 62 90.5 98.5t131.5 36.5q54 0 99 -20t77 -55.5t49.5 -81t17.5 -95.5
q0 -10 -0.5 -21t-2.5 -23h-435q3 -60 31 -105.5t73 -71.5t100 -26q58 0 101 27.5t69 73.5l51 -27q-17 -37 -50 -66.5t-76.5 -46.5t-94.5 -17q-71 0 -128.5 33t-92.5 91l14 14v-126h-61v127l9 -18q-13 -32 -42.5 -60t-71 -44.5t-90.5 -16.5zM239 43q58 0 101 26.5t66.5 70
t23.5 95.5v46l-182 -30q-68 -11 -96 -41t-28 -70q0 -43 32.5 -70t82.5 -27zM496 302h373q0 54 -24 95.5t-65 65.5t-91 24q-49 0 -91 -23.5t-69 -65t-33 -96.5z" />
    <glyph glyph-name="ccedilla" unicode="&#xe7;" horiz-adv-x="604" 
d="M325 -12q-76 0 -135.5 36.5t-94 99.5t-34.5 142q0 80 34.5 142.5t94 98.5t135.5 36q50 0 92.5 -17t75.5 -46t50 -67l-53 -28q-24 46 -67 73t-98 27q-57 0 -102.5 -28t-72.5 -77.5t-27 -113.5t27 -113.5t72.5 -77.5t102.5 -28q55 0 98 27t67 74l53 -29q-17 -37 -50 -66.5
t-75.5 -47t-92.5 -17.5zM335 -225q-28 0 -55 10t-45 28l18 43q16 -16 36.5 -24.5t39.5 -8.5q24 0 38 12.5t14 30.5q0 26 -25.5 40t-75.5 19l25 85h48l-14 -53q47 -9 73 -33.5t26 -58.5q0 -40 -29 -65t-74 -25z" />
    <glyph glyph-name="egrave" unicode="&#xe8;" horiz-adv-x="621" 
d="M326 -12q-75 0 -135 36.5t-95 100t-35 142.5t34 141.5t92 98.5t130 36q55 0 99.5 -20t77 -55.5t50 -81t17.5 -95.5q0 -10 -1 -21t-3 -23h-461v55h427l-27 -21q6 58 -17 104.5t-65.5 74t-96.5 27.5t-99 -28.5t-71 -78t-24 -114.5q-2 -65 25 -115t74 -78.5t104 -28.5
q58 0 101 27.5t70 73.5l51 -27q-18 -37 -51 -66.5t-76.5 -46.5t-94.5 -17zM281 640l-111 150h82l90 -150h-61z" />
    <glyph glyph-name="eacute" unicode="&#xe9;" horiz-adv-x="621" 
d="M326 -12q-75 0 -135 36.5t-95 100t-35 142.5t34 141.5t92 98.5t130 36q55 0 99.5 -20t77 -55.5t50 -81t17.5 -95.5q0 -10 -1 -21t-3 -23h-461v55h427l-27 -21q6 58 -17 104.5t-65.5 74t-96.5 27.5t-99 -28.5t-71 -78t-24 -114.5q-2 -65 25 -115t74 -78.5t104 -28.5
q58 0 101 27.5t70 73.5l51 -27q-18 -37 -51 -66.5t-76.5 -46.5t-94.5 -17zM281 640l90 150h82l-111 -150h-61z" />
    <glyph glyph-name="ecircumflex" unicode="&#xea;" horiz-adv-x="621" 
d="M326 -12q-75 0 -135 36.5t-95 100t-35 142.5t34 141.5t92 98.5t130 36q55 0 99.5 -20t77 -55.5t50 -81t17.5 -95.5q0 -10 -1 -21t-3 -23h-461v55h427l-27 -21q6 58 -17 104.5t-65.5 74t-96.5 27.5t-99 -28.5t-71 -78t-24 -114.5q-2 -65 25 -115t74 -78.5t104 -28.5
q58 0 101 27.5t70 73.5l51 -27q-18 -37 -51 -66.5t-76.5 -46.5t-94.5 -17zM157 640l123 150h63l124 -150h-70l-85 103l-85 -103h-70z" />
    <glyph glyph-name="edieresis" unicode="&#xeb;" horiz-adv-x="621" 
d="M326 -12q-75 0 -135 36.5t-95 100t-35 142.5t34 141.5t92 98.5t130 36q55 0 99.5 -20t77 -55.5t50 -81t17.5 -95.5q0 -10 -1 -21t-3 -23h-461v55h427l-27 -21q6 58 -17 104.5t-65.5 74t-96.5 27.5t-99 -28.5t-71 -78t-24 -114.5q-2 -65 25 -115t74 -78.5t104 -28.5
q58 0 101 27.5t70 73.5l51 -27q-18 -37 -51 -66.5t-76.5 -46.5t-94.5 -17zM186 640v88h85v-88h-85zM351 640v88h85v-88h-85z" />
    <glyph glyph-name="igrave" unicode="&#xec;" horiz-adv-x="192" 
d="M66 0v531h60v-531h-60zM66 640l-111 150h82l90 -150h-61z" />
    <glyph glyph-name="iacute" unicode="&#xed;" horiz-adv-x="192" 
d="M66 0v531h60v-531h-60zM65 640l90 150h82l-111 -150h-61z" />
    <glyph glyph-name="icircumflex" unicode="&#xee;" horiz-adv-x="192" 
d="M66 0v531h60v-531h-60zM-59 640l123 150h63l124 -150h-70l-85 103l-85 -103h-70z" />
    <glyph glyph-name="idieresis" unicode="&#xef;" horiz-adv-x="192" 
d="M66 0v531h60v-531h-60zM-29 640v88h85v-88h-85zM136 640v88h85v-88h-85z" />
    <glyph glyph-name="eth" unicode="&#xf0;" horiz-adv-x="660" 
d="M335 -12q-59 0 -109.5 21t-87 58t-57 87t-20.5 108q0 77 34.5 138.5t95.5 97t139 35.5q40 0 81 -12t77 -40.5t60 -79.5l-20 -30q1 55 -15.5 108.5t-46.5 100t-72 82.5t-93 56.5t-108 20.5q-26 0 -53.5 -4.5t-55.5 -14.5l-15 55q66 21 128 21q79 0 143 -28t112.5 -76
t81 -110.5t49 -133t16.5 -140.5q0 -110 -35.5 -181t-95.5 -105t-133 -34zM330 47q57 0 103.5 29t73.5 78t27 109q0 59 -26 107t-72 76t-106 28t-106 -28t-72.5 -76.5t-26.5 -107.5q0 -61 28 -109.5t74.5 -77t102.5 -28.5zM247 588v51l287 103v-52z" />
    <glyph glyph-name="ntilde" unicode="&#xf1;" 
d="M83 0v531h60v-107l-15 4q18 53 64.5 84t108.5 31q55 0 100 -25t72 -69.5t27 -101.5v-347h-60v330q0 48 -19 82.5t-52.5 53t-76.5 18.5q-45 0 -79 -21t-52 -58t-18 -85v-320h-60zM345 640q-26 0 -42 10t-27.5 23.5t-22.5 23.5t-28 10t-27.5 -14.5t-10.5 -48.5h-51
q0 54 24 84.5t67 30.5q25 0 40.5 -10t27 -23.5t23 -23.5t28.5 -10q19 0 30 16t11 47h50q0 -51 -24.5 -83t-67.5 -32z" />
    <glyph glyph-name="ograve" unicode="&#xf2;" horiz-adv-x="659" 
d="M330 -12q-76 0 -137 36t-96.5 99.5t-35.5 142.5t35.5 142t96 99t137.5 36q76 0 137 -36t96 -98.5t35 -142.5t-36 -143t-96.5 -99t-135.5 -36zM330 47q57 0 103.5 28.5t73.5 78.5t27 112t-27 111t-73 78t-104 29t-104.5 -28.5t-73.5 -78t-27 -111.5t27.5 -112t73.5 -78.5
t104 -28.5zM300 640l-111 150h82l90 -150h-61z" />
    <glyph glyph-name="oacute" unicode="&#xf3;" horiz-adv-x="659" 
d="M330 -12q-76 0 -137 36t-96.5 99.5t-35.5 142.5t35.5 142t96 99t137.5 36q76 0 137 -36t96 -98.5t35 -142.5t-36 -143t-96.5 -99t-135.5 -36zM330 47q57 0 103.5 28.5t73.5 78.5t27 112t-27 111t-73 78t-104 29t-104.5 -28.5t-73.5 -78t-27 -111.5t27.5 -112t73.5 -78.5
t104 -28.5zM299 640l90 150h82l-111 -150h-61z" />
    <glyph glyph-name="ocircumflex" unicode="&#xf4;" horiz-adv-x="659" 
d="M330 -12q-76 0 -137 36t-96.5 99.5t-35.5 142.5t35.5 142t96 99t137.5 36q76 0 137 -36t96 -98.5t35 -142.5t-36 -143t-96.5 -99t-135.5 -36zM330 47q57 0 103.5 28.5t73.5 78.5t27 112t-27 111t-73 78t-104 29t-104.5 -28.5t-73.5 -78t-27 -111.5t27.5 -112t73.5 -78.5
t104 -28.5zM175 640l123 150h63l124 -150h-70l-85 103l-85 -103h-70z" />
    <glyph glyph-name="otilde" unicode="&#xf5;" horiz-adv-x="659" 
d="M330 -12q-76 0 -137 36t-96.5 99.5t-35.5 142.5t35.5 142t96 99t137.5 36q76 0 137 -36t96 -98.5t35 -142.5t-36 -143t-96.5 -99t-135.5 -36zM330 47q57 0 103.5 28.5t73.5 78.5t27 112t-27 111t-73 78t-104 29t-104.5 -28.5t-73.5 -78t-27 -111.5t27.5 -112t73.5 -78.5
t104 -28.5zM388 640q-26 0 -42 10t-27.5 23.5t-22.5 23.5t-28 10t-27.5 -14.5t-10.5 -48.5h-51q0 54 24 84.5t67 30.5q25 0 40.5 -10t27 -23.5t23 -23.5t28.5 -10q19 0 30 16t11 47h50q0 -51 -24.5 -83t-67.5 -32z" />
    <glyph glyph-name="odieresis" unicode="&#xf6;" horiz-adv-x="659" 
d="M330 -12q-76 0 -137 36t-96.5 99.5t-35.5 142.5t35.5 142t96 99t137.5 36q76 0 137 -36t96 -98.5t35 -142.5t-36 -143t-96.5 -99t-135.5 -36zM330 47q57 0 103.5 28.5t73.5 78.5t27 112t-27 111t-73 78t-104 29t-104.5 -28.5t-73.5 -78t-27 -111.5t27.5 -112t73.5 -78.5
t104 -28.5zM205 640v88h85v-88h-85zM370 640v88h85v-88h-85z" />
    <glyph glyph-name="divide" unicode="&#xf7;" horiz-adv-x="601" 
d="M51 221v60h500v-60h-500zM267 0v91h68v-91h-68zM267 410v90h68v-90h-68z" />
    <glyph glyph-name="oslash" unicode="&#xf8;" horiz-adv-x="659" 
d="M52 0l469 531h86l-469 -531h-86zM330 -12q-76 0 -137 36t-96.5 99.5t-35.5 142.5t35.5 142t96 99t137.5 36q76 0 137 -36t96 -98.5t35 -142.5t-36 -143t-96.5 -99t-135.5 -36zM330 47q57 0 103.5 28.5t73.5 78.5t27 112t-27 111t-73 78t-104 29t-104.5 -28.5t-73.5 -78
t-27 -111.5t27.5 -112t73.5 -78.5t104 -28.5z" />
    <glyph glyph-name="ugrave" unicode="&#xf9;" 
d="M271 -12q-54 0 -99.5 25t-72.5 70.5t-27 108.5v339h60v-334q0 -47 19.5 -80.5t53 -51.5t75.5 -18q46 0 79.5 21t51.5 58.5t18 85.5v319h60v-531h-60v108l15 -5q-18 -52 -64 -83.5t-109 -31.5zM256 640l-111 150h82l90 -150h-61z" />
    <glyph glyph-name="uacute" unicode="&#xfa;" 
d="M271 -12q-54 0 -99.5 25t-72.5 70.5t-27 108.5v339h60v-334q0 -47 19.5 -80.5t53 -51.5t75.5 -18q46 0 79.5 21t51.5 58.5t18 85.5v319h60v-531h-60v108l15 -5q-18 -52 -64 -83.5t-109 -31.5zM256 640l90 150h82l-111 -150h-61z" />
    <glyph glyph-name="ucircumflex" unicode="&#xfb;" 
d="M271 -12q-54 0 -99.5 25t-72.5 70.5t-27 108.5v339h60v-334q0 -47 19.5 -80.5t53 -51.5t75.5 -18q46 0 79.5 21t51.5 58.5t18 85.5v319h60v-531h-60v108l15 -5q-18 -52 -64 -83.5t-109 -31.5zM132 640l123 150h63l124 -150h-70l-85 103l-85 -103h-70z" />
    <glyph glyph-name="udieresis" unicode="&#xfc;" 
d="M271 -12q-54 0 -99.5 25t-72.5 70.5t-27 108.5v339h60v-334q0 -47 19.5 -80.5t53 -51.5t75.5 -18q46 0 79.5 21t51.5 58.5t18 85.5v319h60v-531h-60v108l15 -5q-18 -52 -64 -83.5t-109 -31.5zM161 640v88h85v-88h-85zM326 640v88h85v-88h-85z" />
    <glyph glyph-name="yacute" unicode="&#xfd;" horiz-adv-x="533" 
d="M85 -220q-14 0 -30.5 2.5t-31.5 7.5v56q12 -3 27.5 -5t28.5 -2q49 1 77 24t51 76l38 89v-56l-225 559h66l193 -482h-24l194 482h67l-248 -605q-14 -33 -37 -67t-58.5 -56.5t-87.5 -22.5zM236 640l90 150h82l-111 -150h-61z" />
    <glyph glyph-name="thorn" unicode="&#xfe;" horiz-adv-x="671" 
d="M83 -200v945h60v-348l-10 19q30 58 86.5 92.5t129.5 34.5q75 0 134 -36t93 -99t34 -142t-34 -142t-93 -99.5t-134 -36.5q-73 0 -130.5 35.5t-85.5 97.5l10 14v-335h-60zM347 48q57 0 102 28.5t71 78t26 111.5t-26 111t-71 77.5t-102 28.5t-103 -28.5t-73 -77.5t-27 -111
t27 -111.5t73 -78t103 -28.5z" />
    <glyph glyph-name="ydieresis" unicode="&#xff;" horiz-adv-x="533" 
d="M85 -220q-14 0 -30.5 2.5t-31.5 7.5v56q12 -3 27.5 -5t28.5 -2q49 1 77 24t51 76l38 89v-56l-225 559h66l193 -482h-24l194 482h67l-248 -605q-14 -33 -37 -67t-58.5 -56.5t-87.5 -22.5zM142 640v88h85v-88h-85zM307 640v88h85v-88h-85z" />
    <glyph glyph-name="Amacron" unicode="&#x100;" horiz-adv-x="648" 
d="M17 0l274 745h67l274 -745h-70l-68 190h-339l-69 -190h-69zM176 250h296l-160 445h24zM194 874v55h260v-55h-260z" />
    <glyph glyph-name="amacron" unicode="&#x101;" horiz-adv-x="573" 
d="M235 -12q-50 0 -89 19t-62 53t-23 78q0 39 17 73t55 58.5t99 34.5l215 36v-56l-199 -33q-68 -11 -96 -41t-28 -70q0 -43 32.5 -70t82.5 -27q58 0 101 26.5t67 70t24 95.5v132q0 53 -38 86t-99 33q-50 0 -90 -25t-61 -65l-54 29q15 32 46 59t72 43t87 16q58 0 102.5 -22.5
t69.5 -62t25 -91.5v-367h-60v111l7 -5q-13 -32 -43 -58.5t-70.5 -43t-89.5 -16.5zM164 660v55h260v-55h-260z" />
    <glyph glyph-name="Abreve" unicode="&#x102;" horiz-adv-x="648" 
d="M17 0l274 745h67l274 -745h-70l-68 190h-339l-69 -190h-69zM176 250h296l-160 445h24zM325 854q-47 0 -80 18.5t-50.5 51.5t-17.5 75h59q0 -43 23 -69t66 -26q42 0 65 26t23 69h59q0 -42 -17.5 -75t-50 -51.5t-79.5 -18.5z" />
    <glyph glyph-name="abreve" unicode="&#x103;" horiz-adv-x="573" 
d="M235 -12q-50 0 -89 19t-62 53t-23 78q0 39 17 73t55 58.5t99 34.5l215 36v-56l-199 -33q-68 -11 -96 -41t-28 -70q0 -43 32.5 -70t82.5 -27q58 0 101 26.5t67 70t24 95.5v132q0 53 -38 86t-99 33q-50 0 -90 -25t-61 -65l-54 29q15 32 46 59t72 43t87 16q58 0 102.5 -22.5
t69.5 -62t25 -91.5v-367h-60v111l7 -5q-13 -32 -43 -58.5t-70.5 -43t-89.5 -16.5zM294 640q-47 0 -80 18.5t-50.5 51.5t-17.5 75h59q0 -43 23 -69t66 -26q42 0 65 26t23 69h59q0 -42 -17.5 -75t-50 -51.5t-79.5 -18.5z" />
    <glyph glyph-name="Aogonek" unicode="&#x104;" horiz-adv-x="648" 
d="M17 0l274 745h67l274 -745h-70l-68 190h-339l-69 -190h-69zM176 250h296l-160 445h24zM563 -225q-46 0 -76 25t-30 68q0 37 18.5 67.5t48 52.5t62.5 30h24v-18q-22 -7 -44 -25.5t-36.5 -44t-14.5 -55.5q0 -23 14.5 -37.5t39.5 -14.5q20 0 40.5 8.5t35.5 24.5l18 -43
q-18 -18 -44.5 -28t-55.5 -10z" />
    <glyph glyph-name="aogonek" unicode="&#x105;" horiz-adv-x="573" 
d="M235 -12q-50 0 -89 19t-62 53t-23 78q0 39 17 73t55 58.5t99 34.5l215 36v-56l-199 -33q-68 -11 -96 -41t-28 -70q0 -43 32.5 -70t82.5 -27q58 0 101 26.5t67 70t24 95.5v132q0 53 -38 86t-99 33q-50 0 -90 -25t-61 -65l-54 29q15 32 46 59t72 43t87 16q58 0 102.5 -22.5
t69.5 -62t25 -91.5v-367h-60v111l7 -5q-13 -32 -43 -58.5t-70.5 -43t-89.5 -16.5zM427 -225q-46 0 -76 25t-30 68q0 37 18.5 67.5t48 52.5t62.5 30h24v-18q-22 -7 -44 -25.5t-36.5 -44t-14.5 -55.5q0 -23 14.5 -37.5t39.5 -14.5q20 0 40.5 8.5t35.5 24.5l18 -43
q-18 -18 -44.5 -28t-55.5 -10z" />
    <glyph glyph-name="Cacute" unicode="&#x106;" horiz-adv-x="785" 
d="M429 -12q-77 0 -142 28.5t-113.5 80.5t-75 122t-26.5 154q0 83 26.5 153.5t75 122t113.5 80t142 28.5q75 0 135 -27t101 -69t59 -87l-61 -27q-30 67 -90.5 108t-143.5 41q-85 0 -151.5 -41t-103.5 -113.5t-37 -168.5t37 -169t103.5 -113.5t151.5 -40.5q83 0 143.5 40.5
t90.5 107.5l61 -27q-18 -44 -59 -86t-101 -69.5t-135 -27.5zM399 854l90 150h82l-111 -150h-61z" />
    <glyph glyph-name="cacute" unicode="&#x107;" horiz-adv-x="604" 
d="M325 -12q-76 0 -135.5 36.5t-94 99.5t-34.5 142q0 80 34.5 142.5t94 98.5t135.5 36q50 0 92.5 -17t75.5 -46t50 -67l-53 -28q-24 46 -67 73t-98 27q-57 0 -102.5 -28t-72.5 -77.5t-27 -113.5t27 -113.5t72.5 -77.5t102.5 -28q55 0 98 27t67 74l53 -29q-17 -37 -50 -66.5
t-75.5 -47t-92.5 -17.5zM295 640l90 150h82l-111 -150h-61z" />
    <glyph glyph-name="Ccircumflex" unicode="&#x108;" horiz-adv-x="785" 
d="M429 -12q-77 0 -142 28.5t-113.5 80.5t-75 122t-26.5 154q0 83 26.5 153.5t75 122t113.5 80t142 28.5q75 0 135 -27t101 -69t59 -87l-61 -27q-30 67 -90.5 108t-143.5 41q-85 0 -151.5 -41t-103.5 -113.5t-37 -168.5t37 -169t103.5 -113.5t151.5 -40.5q83 0 143.5 40.5
t90.5 107.5l61 -27q-18 -44 -59 -86t-101 -69.5t-135 -27.5zM275 854l123 150h63l124 -150h-70l-85 103l-85 -103h-70z" />
    <glyph glyph-name="ccircumflex" unicode="&#x109;" horiz-adv-x="604" 
d="M325 -12q-76 0 -135.5 36.5t-94 99.5t-34.5 142q0 80 34.5 142.5t94 98.5t135.5 36q50 0 92.5 -17t75.5 -46t50 -67l-53 -28q-24 46 -67 73t-98 27q-57 0 -102.5 -28t-72.5 -77.5t-27 -113.5t27 -113.5t72.5 -77.5t102.5 -28q55 0 98 27t67 74l53 -29q-17 -37 -50 -66.5
t-75.5 -47t-92.5 -17.5zM171 640l123 150h63l124 -150h-70l-85 103l-85 -103h-70z" />
    <glyph glyph-name="Cdotaccent" unicode="&#x10a;" horiz-adv-x="785" 
d="M429 -12q-77 0 -142 28.5t-113.5 80.5t-75 122t-26.5 154q0 83 26.5 153.5t75 122t113.5 80t142 28.5q75 0 135 -27t101 -69t59 -87l-61 -27q-30 67 -90.5 108t-143.5 41q-85 0 -151.5 -41t-103.5 -113.5t-37 -168.5t37 -169t103.5 -113.5t151.5 -40.5q83 0 143.5 40.5
t90.5 107.5l61 -27q-18 -44 -59 -86t-101 -69.5t-135 -27.5zM387 854v88h85v-88h-85z" />
    <glyph glyph-name="cdotaccent" unicode="&#x10b;" horiz-adv-x="604" 
d="M325 -12q-76 0 -135.5 36.5t-94 99.5t-34.5 142q0 80 34.5 142.5t94 98.5t135.5 36q50 0 92.5 -17t75.5 -46t50 -67l-53 -28q-24 46 -67 73t-98 27q-57 0 -102.5 -28t-72.5 -77.5t-27 -113.5t27 -113.5t72.5 -77.5t102.5 -28q55 0 98 27t67 74l53 -29q-17 -37 -50 -66.5
t-75.5 -47t-92.5 -17.5zM283 640v88h85v-88h-85z" />
    <glyph glyph-name="Ccaron" unicode="&#x10c;" horiz-adv-x="785" 
d="M429 -12q-77 0 -142 28.5t-113.5 80.5t-75 122t-26.5 154q0 83 26.5 153.5t75 122t113.5 80t142 28.5q75 0 135 -27t101 -69t59 -87l-61 -27q-30 67 -90.5 108t-143.5 41q-85 0 -151.5 -41t-103.5 -113.5t-37 -168.5t37 -169t103.5 -113.5t151.5 -40.5q83 0 143.5 40.5
t90.5 107.5l61 -27q-18 -44 -59 -86t-101 -69.5t-135 -27.5zM397 854l-123 150h70l85 -102l85 102h70l-124 -150h-63z" />
    <glyph glyph-name="ccaron" unicode="&#x10d;" horiz-adv-x="604" 
d="M325 -12q-76 0 -135.5 36.5t-94 99.5t-34.5 142q0 80 34.5 142.5t94 98.5t135.5 36q50 0 92.5 -17t75.5 -46t50 -67l-53 -28q-24 46 -67 73t-98 27q-57 0 -102.5 -28t-72.5 -77.5t-27 -113.5t27 -113.5t72.5 -77.5t102.5 -28q55 0 98 27t67 74l53 -29q-17 -37 -50 -66.5
t-75.5 -47t-92.5 -17.5zM293 640l-123 150h70l85 -102l85 102h70l-124 -150h-63z" />
    <glyph glyph-name="Dcaron" unicode="&#x10e;" horiz-adv-x="743" 
d="M94 0v745h241q110 0 190.5 -45.5t124.5 -129t44 -197.5q0 -113 -44 -197t-124.5 -130t-190.5 -46h-241zM159 60h175q89 0 154.5 39t102 109.5t36.5 164.5q0 95 -36.5 165t-102.5 108.5t-154 38.5h-175v-625zM351 854l-123 150h70l85 -102l85 102h70l-124 -150h-63z" />
    <glyph glyph-name="dcaron" unicode="&#x10f;" horiz-adv-x="782" 
d="M322 -12q-74 0 -133.5 36.5t-93.5 99.5t-34 142t34 142t93.5 99t133.5 36q73 0 130 -34.5t86 -92.5l-10 -19v360h60v-757h-60v135l10 -14q-28 -62 -85.5 -97.5t-130.5 -35.5zM324 48q58 0 103.5 28.5t72.5 78t27 111.5t-27 111t-72.5 77.5t-103.5 28.5q-57 0 -102 -28.5
t-71 -77.5t-26 -111t26 -111.5t71 -78t102 -28.5zM671 595v162h70l-18 -162h-52z" />
    <glyph glyph-name="Dcroat" unicode="&#x110;" horiz-adv-x="743" 
d="M29 344v58h295v-58h-295zM94 0v745h241q110 0 190.5 -45.5t124.5 -129t44 -197.5q0 -113 -44 -197t-124.5 -130t-190.5 -46h-241zM159 60h175q89 0 154.5 39t102 109.5t36.5 164.5q0 95 -36.5 165t-102.5 108.5t-154 38.5h-175v-625z" />
    <glyph glyph-name="dcroat" unicode="&#x111;" horiz-adv-x="671" 
d="M424 613v55h270v-55h-270zM322 -12q-74 0 -133.5 36.5t-93.5 99.5t-34 142t34 142t93.5 99t133.5 36q73 0 130 -34.5t86 -92.5l-10 -19v360h60v-757h-60v135l10 -14q-28 -62 -85.5 -97.5t-130.5 -35.5zM324 48q58 0 103.5 28.5t72.5 78t27 111.5t-27 111t-72.5 77.5
t-103.5 28.5q-57 0 -102 -28.5t-71 -77.5t-26 -111t26 -111.5t71 -78t102 -28.5z" />
    <glyph glyph-name="Emacron" unicode="&#x112;" horiz-adv-x="613" 
d="M94 0v745h470v-60h-405v-281h385v-60h-385v-284h405v-60h-470zM199 874v55h260v-55h-260z" />
    <glyph glyph-name="emacron" unicode="&#x113;" horiz-adv-x="621" 
d="M326 -12q-75 0 -135 36.5t-95 100t-35 142.5t34 141.5t92 98.5t130 36q55 0 99.5 -20t77 -55.5t50 -81t17.5 -95.5q0 -10 -1 -21t-3 -23h-461v55h427l-27 -21q6 58 -17 104.5t-65.5 74t-96.5 27.5t-99 -28.5t-71 -78t-24 -114.5q-2 -65 25 -115t74 -78.5t104 -28.5
q58 0 101 27.5t70 73.5l51 -27q-18 -37 -51 -66.5t-76.5 -46.5t-94.5 -17zM181 660v55h260v-55h-260z" />
    <glyph glyph-name="Ebreve" unicode="&#x114;" horiz-adv-x="613" 
d="M94 0v745h470v-60h-405v-281h385v-60h-385v-284h405v-60h-470zM329 854q-47 0 -80 18.5t-50.5 51.5t-17.5 75h59q0 -43 23 -69t66 -26q42 0 65 26t23 69h59q0 -42 -17.5 -75t-50 -51.5t-79.5 -18.5z" />
    <glyph glyph-name="ebreve" unicode="&#x115;" horiz-adv-x="621" 
d="M326 -12q-75 0 -135 36.5t-95 100t-35 142.5t34 141.5t92 98.5t130 36q55 0 99.5 -20t77 -55.5t50 -81t17.5 -95.5q0 -10 -1 -21t-3 -23h-461v55h427l-27 -21q6 58 -17 104.5t-65.5 74t-96.5 27.5t-99 -28.5t-71 -78t-24 -114.5q-2 -65 25 -115t74 -78.5t104 -28.5
q58 0 101 27.5t70 73.5l51 -27q-18 -37 -51 -66.5t-76.5 -46.5t-94.5 -17zM312 640q-47 0 -80 18.5t-50.5 51.5t-17.5 75h59q0 -43 23 -69t66 -26q42 0 65 26t23 69h59q0 -42 -17.5 -75t-50 -51.5t-79.5 -18.5z" />
    <glyph glyph-name="Edotaccent" unicode="&#x116;" horiz-adv-x="613" 
d="M94 0v745h470v-60h-405v-281h385v-60h-385v-284h405v-60h-470zM286 854v88h85v-88h-85z" />
    <glyph glyph-name="edotaccent" unicode="&#x117;" horiz-adv-x="621" 
d="M326 -12q-75 0 -135 36.5t-95 100t-35 142.5t34 141.5t92 98.5t130 36q55 0 99.5 -20t77 -55.5t50 -81t17.5 -95.5q0 -10 -1 -21t-3 -23h-461v55h427l-27 -21q6 58 -17 104.5t-65.5 74t-96.5 27.5t-99 -28.5t-71 -78t-24 -114.5q-2 -65 25 -115t74 -78.5t104 -28.5
q58 0 101 27.5t70 73.5l51 -27q-18 -37 -51 -66.5t-76.5 -46.5t-94.5 -17zM269 640v88h85v-88h-85z" />
    <glyph glyph-name="Eogonek" unicode="&#x118;" horiz-adv-x="613" 
d="M94 0v745h470v-60h-405v-281h385v-60h-385v-284h405v-60h-470zM429 -225q-46 0 -76 25t-30 68q0 37 18.5 67.5t48 52.5t62.5 30h24v-18q-22 -7 -44 -25.5t-36.5 -44t-14.5 -55.5q0 -23 14.5 -37.5t39.5 -14.5q20 0 40.5 8.5t35.5 24.5l18 -43q-18 -18 -44.5 -28
t-55.5 -10z" />
    <glyph glyph-name="eogonek" unicode="&#x119;" horiz-adv-x="621" 
d="M326 -12q-75 0 -135 36.5t-95 100t-35 142.5t34 141.5t92 98.5t130 36q55 0 99.5 -20t77 -55.5t50 -81t17.5 -95.5q0 -10 -1 -21t-3 -23h-461v55h427l-27 -21q6 58 -17 104.5t-65.5 74t-96.5 27.5t-99 -28.5t-71 -78t-24 -114.5q-2 -65 25 -115t74 -78.5t104 -28.5
q58 0 101 27.5t70 73.5l51 -27q-18 -37 -51 -66.5t-76.5 -46.5t-94.5 -17zM292 -225q-46 0 -76 25t-30 68q0 37 18.5 67.5t48 52.5t62.5 30h24v-18q-22 -7 -44 -25.5t-36.5 -44t-14.5 -55.5q0 -23 14.5 -37.5t39.5 -14.5q20 0 40.5 8.5t35.5 24.5l18 -43q-18 -18 -44.5 -28
t-55.5 -10z" />
    <glyph glyph-name="Ecaron" unicode="&#x11a;" horiz-adv-x="613" 
d="M94 0v745h470v-60h-405v-281h385v-60h-385v-284h405v-60h-470zM297 854l-123 150h70l85 -102l85 102h70l-124 -150h-63z" />
    <glyph glyph-name="ecaron" unicode="&#x11b;" horiz-adv-x="621" 
d="M326 -12q-75 0 -135 36.5t-95 100t-35 142.5t34 141.5t92 98.5t130 36q55 0 99.5 -20t77 -55.5t50 -81t17.5 -95.5q0 -10 -1 -21t-3 -23h-461v55h427l-27 -21q6 58 -17 104.5t-65.5 74t-96.5 27.5t-99 -28.5t-71 -78t-24 -114.5q-2 -65 25 -115t74 -78.5t104 -28.5
q58 0 101 27.5t70 73.5l51 -27q-18 -37 -51 -66.5t-76.5 -46.5t-94.5 -17zM279 640l-123 150h70l85 -102l85 102h70l-124 -150h-63z" />
    <glyph glyph-name="Gcircumflex" unicode="&#x11c;" horiz-adv-x="828" 
d="M431 -12q-79 0 -144.5 28.5t-113.5 80t-74.5 121.5t-26.5 154t26.5 154t75 122t114 80.5t143.5 28.5q77 0 137.5 -27t102 -69t59.5 -87l-60 -28q-30 69 -91.5 109.5t-147.5 40.5q-85 0 -152 -41t-104.5 -113.5t-37.5 -169.5q0 -96 37.5 -169t104 -113t152.5 -40
q77 0 138.5 34.5t97 94t35.5 136.5v35l29 -31h-300v58h336v-56q0 -70 -25.5 -130.5t-70.5 -106t-106.5 -71t-133.5 -25.5zM260 854l123 150h63l124 -150h-70l-85 103l-85 -103h-70z" />
    <glyph glyph-name="gcircumflex" unicode="&#x11d;" horiz-adv-x="663" 
d="M331 -220q-53 0 -98 17t-78 46t-52 66l54 29q22 -43 66.5 -71t106.5 -28q50 0 93 19.5t70.5 60t27.5 101.5v135l11 -14q-28 -62 -85 -97.5t-127 -35.5q-74 0 -133 36t-92.5 97t-33.5 135t33.5 134.5t92 96.5t133.5 36q70 0 126 -34.5t86 -92.5l-11 -19v134h60v-511
q0 -69 -32 -123.5t-88.5 -85.5t-129.5 -31zM322 68q56 0 100.5 28t70.5 75.5t26 104.5t-26 104t-70.5 75t-100.5 28q-57 0 -102 -28t-70 -75t-25 -104t25 -104.5t69.5 -75.5t102.5 -28zM177 640l123 150h63l124 -150h-70l-85 103l-85 -103h-70z" />
    <glyph glyph-name="Gbreve" unicode="&#x11e;" horiz-adv-x="828" 
d="M431 -12q-79 0 -144.5 28.5t-113.5 80t-74.5 121.5t-26.5 154t26.5 154t75 122t114 80.5t143.5 28.5q77 0 137.5 -27t102 -69t59.5 -87l-60 -28q-30 69 -91.5 109.5t-147.5 40.5q-85 0 -152 -41t-104.5 -113.5t-37.5 -169.5q0 -96 37.5 -169t104 -113t152.5 -40
q77 0 138.5 34.5t97 94t35.5 136.5v35l29 -31h-300v58h336v-56q0 -70 -25.5 -130.5t-70.5 -106t-106.5 -71t-133.5 -25.5zM415 854q-47 0 -80 18.5t-50.5 51.5t-17.5 75h59q0 -43 23 -69t66 -26q42 0 65 26t23 69h59q0 -42 -17.5 -75t-50 -51.5t-79.5 -18.5z" />
    <glyph glyph-name="gbreve" unicode="&#x11f;" horiz-adv-x="663" 
d="M331 -220q-53 0 -98 17t-78 46t-52 66l54 29q22 -43 66.5 -71t106.5 -28q50 0 93 19.5t70.5 60t27.5 101.5v135l11 -14q-28 -62 -85 -97.5t-127 -35.5q-74 0 -133 36t-92.5 97t-33.5 135t33.5 134.5t92 96.5t133.5 36q70 0 126 -34.5t86 -92.5l-11 -19v134h60v-511
q0 -69 -32 -123.5t-88.5 -85.5t-129.5 -31zM322 68q56 0 100.5 28t70.5 75.5t26 104.5t-26 104t-70.5 75t-100.5 28q-57 0 -102 -28t-70 -75t-25 -104t25 -104.5t69.5 -75.5t102.5 -28zM332 640q-47 0 -80 18.5t-50.5 51.5t-17.5 75h59q0 -43 23 -69t66 -26q42 0 65 26
t23 69h59q0 -42 -17.5 -75t-50 -51.5t-79.5 -18.5z" />
    <glyph glyph-name="Gdotaccent" unicode="&#x120;" horiz-adv-x="828" 
d="M431 -12q-79 0 -144.5 28.5t-113.5 80t-74.5 121.5t-26.5 154t26.5 154t75 122t114 80.5t143.5 28.5q77 0 137.5 -27t102 -69t59.5 -87l-60 -28q-30 69 -91.5 109.5t-147.5 40.5q-85 0 -152 -41t-104.5 -113.5t-37.5 -169.5q0 -96 37.5 -169t104 -113t152.5 -40
q77 0 138.5 34.5t97 94t35.5 136.5v35l29 -31h-300v58h336v-56q0 -70 -25.5 -130.5t-70.5 -106t-106.5 -71t-133.5 -25.5zM372 854v88h85v-88h-85z" />
    <glyph glyph-name="gdotaccent" unicode="&#x121;" horiz-adv-x="663" 
d="M331 -220q-53 0 -98 17t-78 46t-52 66l54 29q22 -43 66.5 -71t106.5 -28q50 0 93 19.5t70.5 60t27.5 101.5v135l11 -14q-28 -62 -85 -97.5t-127 -35.5q-74 0 -133 36t-92.5 97t-33.5 135t33.5 134.5t92 96.5t133.5 36q70 0 126 -34.5t86 -92.5l-11 -19v134h60v-511
q0 -69 -32 -123.5t-88.5 -85.5t-129.5 -31zM322 68q56 0 100.5 28t70.5 75.5t26 104.5t-26 104t-70.5 75t-100.5 28q-57 0 -102 -28t-70 -75t-25 -104t25 -104.5t69.5 -75.5t102.5 -28zM289 640v88h85v-88h-85z" />
    <glyph glyph-name="uni0122" unicode="&#x122;" horiz-adv-x="828" 
d="M431 -12q-79 0 -144.5 28.5t-113.5 80t-74.5 121.5t-26.5 154t26.5 154t75 122t114 80.5t143.5 28.5q77 0 137.5 -27t102 -69t59.5 -87l-60 -28q-30 69 -91.5 109.5t-147.5 40.5q-85 0 -152 -41t-104.5 -113.5t-37.5 -169.5q0 -96 37.5 -169t104 -113t152.5 -40
q77 0 138.5 34.5t97 94t35.5 136.5v35l29 -31h-300v58h336v-56q0 -70 -25.5 -130.5t-70.5 -106t-106.5 -71t-133.5 -25.5zM335 -236l46 166h68l-62 -166h-52z" />
    <glyph glyph-name="uni0123" unicode="&#x123;" horiz-adv-x="663" 
d="M331 -220q-53 0 -98 17t-78 46t-52 66l54 29q22 -43 66.5 -71t106.5 -28q50 0 93 19.5t70.5 60t27.5 101.5v135l11 -14q-28 -62 -85 -97.5t-127 -35.5q-74 0 -133 36t-92.5 97t-33.5 135t33.5 134.5t92 96.5t133.5 36q70 0 126 -34.5t86 -92.5l-11 -19v134h60v-511
q0 -69 -32 -123.5t-88.5 -85.5t-129.5 -31zM322 68q56 0 100.5 28t70.5 75.5t26 104.5t-26 104t-70.5 75t-100.5 28q-57 0 -102 -28t-70 -75t-25 -104t25 -104.5t69.5 -75.5t102.5 -28zM298 614l62 167h52l-46 -167h-68z" />
    <glyph glyph-name="Hcircumflex" unicode="&#x124;" horiz-adv-x="737" 
d="M94 0v745h65v-339h420v339h65v-745h-65v346h-420v-346h-65zM214 854l123 150h63l124 -150h-70l-85 103l-85 -103h-70z" />
    <glyph glyph-name="hcircumflex" unicode="&#x125;" 
d="M83 0v757h60v-333l-15 4q18 53 64.5 84t108.5 31q55 0 100 -25t72 -69.5t27 -101.5v-347h-60v330q0 48 -19.5 82.5t-53 53t-75.5 18.5q-45 0 -78.5 -21t-52 -58t-18.5 -85v-320h-60zM-41 854l123 150h63l124 -150h-70l-85 103l-85 -103h-70z" />
    <glyph glyph-name="Hbar" unicode="&#x126;" horiz-adv-x="737" 
d="M2 566v60h734v-60h-734zM94 0v745h65v-339h420v339h65v-745h-65v346h-420v-346h-65z" />
    <glyph glyph-name="hbar" unicode="&#x127;" 
d="M-22 613v55h270v-55h-270zM83 0v757h60v-333l-15 4q18 53 64.5 84t108.5 31q55 0 100 -25t72 -69.5t27 -101.5v-347h-60v330q0 48 -19.5 82.5t-53 53t-75.5 18.5q-45 0 -78.5 -21t-52 -58t-18.5 -85v-320h-60z" />
    <glyph glyph-name="Itilde" unicode="&#x128;" horiz-adv-x="252" 
d="M94 0v745h65v-745h-65zM185 854q-26 0 -42 10t-27.5 23.5t-22.5 23.5t-28 10t-27.5 -14.5t-10.5 -48.5h-51q0 54 24 84.5t67 30.5q25 0 40.5 -10t27 -23.5t23 -23.5t28.5 -10q19 0 30 16t11 47h50q0 -51 -24.5 -83t-67.5 -32z" />
    <glyph glyph-name="itilde" unicode="&#x129;" horiz-adv-x="192" 
d="M66 0v531h60v-531h-60zM154 640q-26 0 -42 10t-27.5 23.5t-22.5 23.5t-28 10t-27.5 -14.5t-10.5 -48.5h-51q0 54 24 84.5t67 30.5q25 0 40.5 -10t27 -23.5t23 -23.5t28.5 -10q19 0 30 16t11 47h50q0 -51 -24.5 -83t-67.5 -32z" />
    <glyph glyph-name="Imacron" unicode="&#x12a;" horiz-adv-x="252" 
d="M94 0v745h65v-745h-65zM-4 874v55h260v-55h-260z" />
    <glyph glyph-name="imacron" unicode="&#x12b;" horiz-adv-x="192" 
d="M66 0v531h60v-531h-60zM-34 660v55h260v-55h-260z" />
    <glyph glyph-name="Ibreve" unicode="&#x12c;" horiz-adv-x="252" 
d="M94 0v745h65v-745h-65zM127 854q-47 0 -80 18.5t-50.5 51.5t-17.5 75h59q0 -43 23 -69t66 -26q42 0 65 26t23 69h59q0 -42 -17.5 -75t-50 -51.5t-79.5 -18.5z" />
    <glyph glyph-name="ibreve" unicode="&#x12d;" horiz-adv-x="192" 
d="M66 0v531h60v-531h-60zM96 640q-47 0 -80 18.5t-50.5 51.5t-17.5 75h59q0 -43 23 -69t66 -26q42 0 65 26t23 69h59q0 -42 -17.5 -75t-50 -51.5t-79.5 -18.5z" />
    <glyph glyph-name="Iogonek" unicode="&#x12e;" horiz-adv-x="252" 
d="M94 0v745h65v-745h-65zM99 -225q-46 0 -76 25t-30 68q0 37 18.5 67.5t48 52.5t62.5 30h24v-18q-22 -7 -44 -25.5t-36.5 -44t-14.5 -55.5q0 -23 14.5 -37.5t39.5 -14.5q20 0 40.5 8.5t35.5 24.5l18 -43q-18 -18 -44.5 -28t-55.5 -10z" />
    <glyph glyph-name="iogonek" unicode="&#x12f;" horiz-adv-x="192" 
d="M66 0v531h60v-531h-60zM53 640v88h85v-88h-85zM77 -225q-46 0 -76 25t-30 68q0 37 18.5 67.5t48 52.5t62.5 30h24v-18q-22 -7 -44 -25.5t-36.5 -44t-14.5 -55.5q0 -23 14.5 -37.5t39.5 -14.5q20 0 40.5 8.5t35.5 24.5l18 -43q-18 -18 -44.5 -28t-55.5 -10z" />
    <glyph glyph-name="Idotaccent" unicode="&#x130;" horiz-adv-x="252" 
d="M94 0v745h65v-745h-65zM84 854v88h85v-88h-85z" />
    <glyph glyph-name="dotlessi" unicode="&#x131;" horiz-adv-x="192" 
d="M66 0v531h60v-531h-60z" />
    <glyph glyph-name="IJ" unicode="&#x132;" horiz-adv-x="634" 
d="M94 0v745h65v-745h-65zM313 0v65h39q57 0 90.5 35t33.5 100v545h65v-547q0 -61 -23.5 -105.5t-66 -68.5t-99.5 -24h-39z" />
    <glyph glyph-name="ij" unicode="&#x133;" horiz-adv-x="450" 
d="M83 0v531h60v-531h-60zM83 635v110h60v-110h-60zM205 -220q-10 0 -21 1.5t-19 3.5v55q19 -3 39 -3q47 0 75.5 27t28.5 80v587h60v-587q0 -53 -21.5 -89.5t-58 -55.5t-83.5 -19zM308 635v110h60v-110h-60z" />
    <glyph glyph-name="Jcircumflex" unicode="&#x134;" horiz-adv-x="382" 
d="M61 0v65h39q57 0 90.5 35t33.5 100v545h65v-547q0 -61 -23.5 -105.5t-66 -68.5t-99.5 -24h-39zM102 854l123 150h63l124 -150h-70l-85 103l-85 -103h-70z" />
    <glyph glyph-name="jcircumflex" unicode="&#x135;" horiz-adv-x="225" 
d="M-20 -220q-10 0 -21 1.5t-19 3.5v55q19 -3 39 -3q47 0 75.5 27t28.5 80v587h60v-587q0 -53 -21.5 -89.5t-58 -55.5t-83.5 -19zM-41 640l123 150h63l124 -150h-70l-85 103l-85 -103h-70z" />
    <glyph glyph-name="uni0136" unicode="&#x136;" horiz-adv-x="653" 
d="M94 0v745h65v-447l-19 9l392 438h84l-302 -339l3 46l319 -452h-79l-269 379l-129 -146v-233h-65zM247 -236l46 166h68l-62 -166h-52z" />
    <glyph glyph-name="uni0137" unicode="&#x137;" horiz-adv-x="544" 
d="M83 0v757h60v-541l-31 3l314 312h82l-214 -214l234 -317h-75l-222 298l40 -1l-144 -148l16 41v-190h-60zM193 -236l46 166h68l-62 -166h-52z" />
    <glyph glyph-name="kgreenlandic" unicode="&#x138;" horiz-adv-x="544" 
d="M455 0l-190 263v47l152 221h75l-168 -244l204 -287h-73zM83 0v531h60v-531h-60zM114 257v57h197v-57h-197z" />
    <glyph glyph-name="Lacute" unicode="&#x139;" horiz-adv-x="532" 
d="M94 0v745h65v-685h335v-60h-400zM96 854l90 150h82l-111 -150h-61z" />
    <glyph glyph-name="lacute" unicode="&#x13a;" horiz-adv-x="225" 
d="M83 0v757h60v-757h-60zM83 854l90 150h82l-111 -150h-61z" />
    <glyph glyph-name="uni013B" unicode="&#x13b;" horiz-adv-x="532" 
d="M94 0v745h65v-685h335v-60h-400zM214 -236l46 166h68l-62 -166h-52z" />
    <glyph glyph-name="uni013C" unicode="&#x13c;" horiz-adv-x="225" 
d="M83 0v757h60v-757h-60zM34 -236l46 166h68l-62 -166h-52z" />
    <glyph glyph-name="Lcaron" unicode="&#x13d;" horiz-adv-x="532" 
d="M94 0v745h65v-685h335v-60h-400zM326 595v162h70l-18 -162h-52z" />
    <glyph glyph-name="lcaron" unicode="&#x13e;" horiz-adv-x="337" 
d="M83 0v757h60v-757h-60zM225 595v162h70l-18 -162h-52z" />
    <glyph glyph-name="Ldot" unicode="&#x13f;" horiz-adv-x="532" 
d="M327 324q-21 0 -35 13.5t-14 35.5q0 20 14 34t35 14q20 0 34 -14t14 -34q0 -21 -14 -35t-34 -14zM94 0v745h65v-685h335v-60h-400z" />
    <glyph glyph-name="ldot" unicode="&#x140;" horiz-adv-x="366" 
d="M276 324q-21 0 -35 13.5t-14 35.5q0 20 14 34t35 14q20 0 34 -14t14 -34q0 -21 -14 -35t-34 -14zM83 0v757h60v-757h-60z" />
    <glyph glyph-name="Lslash" unicode="&#x141;" horiz-adv-x="605" 
d="M47 239v68l304 200v-68zM167 0v745h65v-685h335v-60h-400z" />
    <glyph glyph-name="lslash" unicode="&#x142;" horiz-adv-x="316" 
d="M41 281v69l233 152v-68zM128 0v757h60v-757h-60z" />
    <glyph glyph-name="Nacute" unicode="&#x143;" horiz-adv-x="737" 
d="M94 0v745h55l451 -647h-21v647h65v-745h-55l-453 651h23v-651h-65zM338 854l90 150h82l-111 -150h-61z" />
    <glyph glyph-name="nacute" unicode="&#x144;" 
d="M83 0v531h60v-107l-15 4q18 53 64.5 84t108.5 31q55 0 100 -25t72 -69.5t27 -101.5v-347h-60v330q0 48 -19 82.5t-52.5 53t-76.5 18.5q-45 0 -79 -21t-52 -58t-18 -85v-320h-60zM256 640l90 150h82l-111 -150h-61z" />
    <glyph glyph-name="uni0145" unicode="&#x145;" horiz-adv-x="737" 
d="M94 0v745h55l451 -647h-21v647h65v-745h-55l-453 651h23v-651h-65zM289 -236l46 166h68l-62 -166h-52z" />
    <glyph glyph-name="uni0146" unicode="&#x146;" 
d="M83 0v531h60v-107l-15 4q18 53 64.5 84t108.5 31q55 0 100 -25t72 -69.5t27 -101.5v-347h-60v330q0 48 -19 82.5t-52.5 53t-76.5 18.5q-45 0 -79 -21t-52 -58t-18 -85v-320h-60zM207 -236l46 166h68l-62 -166h-52z" />
    <glyph glyph-name="Ncaron" unicode="&#x147;" horiz-adv-x="737" 
d="M94 0v745h55l451 -647h-21v647h65v-745h-55l-453 651h23v-651h-65zM337 854l-123 150h70l85 -102l85 102h70l-124 -150h-63z" />
    <glyph glyph-name="ncaron" unicode="&#x148;" 
d="M83 0v531h60v-107l-15 4q18 53 64.5 84t108.5 31q55 0 100 -25t72 -69.5t27 -101.5v-347h-60v330q0 48 -19 82.5t-52.5 53t-76.5 18.5q-45 0 -79 -21t-52 -58t-18 -85v-320h-60zM254 640l-123 150h70l85 -102l85 102h70l-124 -150h-63z" />
    <glyph glyph-name="Eng" unicode="&#x14a;" horiz-adv-x="737" 
d="M478 -220q-9 0 -20 1.5t-19 3.5v58q19 -3 39 -3q46 0 73.5 25.5t27.5 78.5v106l20 -66l-461 664l21 6v-654h-65v745h55l451 -646l-21 -6v652h65v-801q0 -53 -22 -89.5t-59.5 -55.5t-84.5 -19z" />
    <glyph glyph-name="eng" unicode="&#x14b;" horiz-adv-x="600" 
d="M326 -220q-10 0 -21 1.5t-19 3.5v55q19 -3 39 -3q47 0 75.5 27t28.5 80v386q0 48 -19.5 82.5t-53 53t-75.5 18.5q-46 0 -79.5 -21t-52 -58t-18.5 -85v-320h-60v531h60v-107l-14 4q18 53 64.5 84t107.5 31q55 0 100.5 -25t72.5 -69.5t27 -101.5v-403q0 -53 -21.5 -89.5
t-58 -55.5t-83.5 -19z" />
    <glyph glyph-name="Omacron" unicode="&#x14c;" horiz-adv-x="881" 
d="M441 -12q-77 0 -144 28.5t-117.5 80t-79 122t-28.5 154.5q0 85 28.5 155t79.5 121.5t117.5 79.5t143.5 28q76 0 143 -28t117.5 -79.5t79.5 -122t29 -154.5t-29 -154.5t-79.5 -122t-117.5 -80t-143 -28.5zM441 50q67 0 123 25t96.5 70t62.5 103.5t22 124.5q0 65 -22 123.5
t-62.5 103.5t-96 70.5t-123.5 25.5t-123.5 -25.5t-96 -70.5t-62.5 -103.5t-22 -123.5q0 -66 22 -124.5t62.5 -103.5t96.5 -70t123 -25zM311 874v55h260v-55h-260z" />
    <glyph glyph-name="omacron" unicode="&#x14d;" horiz-adv-x="659" 
d="M330 -12q-76 0 -137 36t-96.5 99.5t-35.5 142.5t35.5 142t96 99t137.5 36q76 0 137 -36t96 -98.5t35 -142.5t-36 -143t-96.5 -99t-135.5 -36zM330 47q57 0 103.5 28.5t73.5 78.5t27 112t-27 111t-73 78t-104 29t-104.5 -28.5t-73.5 -78t-27 -111.5t27.5 -112t73.5 -78.5
t104 -28.5zM200 660v55h260v-55h-260z" />
    <glyph glyph-name="Obreve" unicode="&#x14e;" horiz-adv-x="881" 
d="M441 -12q-77 0 -144 28.5t-117.5 80t-79 122t-28.5 154.5q0 85 28.5 155t79.5 121.5t117.5 79.5t143.5 28q76 0 143 -28t117.5 -79.5t79.5 -122t29 -154.5t-29 -154.5t-79.5 -122t-117.5 -80t-143 -28.5zM441 50q67 0 123 25t96.5 70t62.5 103.5t22 124.5q0 65 -22 123.5
t-62.5 103.5t-96 70.5t-123.5 25.5t-123.5 -25.5t-96 -70.5t-62.5 -103.5t-22 -123.5q0 -66 22 -124.5t62.5 -103.5t96.5 -70t123 -25zM441 854q-47 0 -80 18.5t-50.5 51.5t-17.5 75h59q0 -43 23 -69t66 -26q42 0 65 26t23 69h59q0 -42 -17.5 -75t-50 -51.5t-79.5 -18.5z
" />
    <glyph glyph-name="obreve" unicode="&#x14f;" horiz-adv-x="659" 
d="M330 -12q-76 0 -137 36t-96.5 99.5t-35.5 142.5t35.5 142t96 99t137.5 36q76 0 137 -36t96 -98.5t35 -142.5t-36 -143t-96.5 -99t-135.5 -36zM330 47q57 0 103.5 28.5t73.5 78.5t27 112t-27 111t-73 78t-104 29t-104.5 -28.5t-73.5 -78t-27 -111.5t27.5 -112t73.5 -78.5
t104 -28.5zM330 640q-47 0 -80 18.5t-50.5 51.5t-17.5 75h59q0 -43 23 -69t66 -26q42 0 65 26t23 69h59q0 -42 -17.5 -75t-50 -51.5t-79.5 -18.5z" />
    <glyph glyph-name="Ohungarumlaut" unicode="&#x150;" horiz-adv-x="881" 
d="M441 -12q-77 0 -144 28.5t-117.5 80t-79 122t-28.5 154.5q0 85 28.5 155t79.5 121.5t117.5 79.5t143.5 28q76 0 143 -28t117.5 -79.5t79.5 -122t29 -154.5t-29 -154.5t-79.5 -122t-117.5 -80t-143 -28.5zM441 50q67 0 123 25t96.5 70t62.5 103.5t22 124.5q0 65 -22 123.5
t-62.5 103.5t-96 70.5t-123.5 25.5t-123.5 -25.5t-96 -70.5t-62.5 -103.5t-22 -123.5q0 -66 22 -124.5t62.5 -103.5t96.5 -70t123 -25zM338 854l55 150h77l-76 -150h-56zM489 854l54 150h77l-76 -150h-55z" />
    <glyph glyph-name="ohungarumlaut" unicode="&#x151;" horiz-adv-x="659" 
d="M330 -12q-76 0 -137 36t-96.5 99.5t-35.5 142.5t35.5 142t96 99t137.5 36q76 0 137 -36t96 -98.5t35 -142.5t-36 -143t-96.5 -99t-135.5 -36zM330 47q57 0 103.5 28.5t73.5 78.5t27 112t-27 111t-73 78t-104 29t-104.5 -28.5t-73.5 -78t-27 -111.5t27.5 -112t73.5 -78.5
t104 -28.5zM227 640l55 150h77l-76 -150h-56zM378 640l54 150h77l-76 -150h-55z" />
    <glyph glyph-name="OE" unicode="&#x152;" horiz-adv-x="1270" 
d="M441 -12q-77 0 -144 28.5t-117.5 80t-79 122t-28.5 154.5q0 85 28.5 155t79.5 121.5t117.5 79.5t143.5 28q69 0 130.5 -23.5t111 -66.5t80.5 -103l-13 -15v196h470v-60h-405v-281h385v-60h-385v-284h405v-60h-470v196l13 -14q-31 -60 -80.5 -103.5t-111 -67t-130.5 -23.5
zM441 50q67 0 123 25t96.5 70t62.5 103.5t22 124.5q0 65 -22 123.5t-62.5 103.5t-96 70.5t-123.5 25.5t-123.5 -25.5t-96 -70.5t-62.5 -103.5t-22 -123.5q0 -66 22 -124.5t62.5 -103.5t96.5 -70t123 -25z" />
    <glyph glyph-name="oe" unicode="&#x153;" horiz-adv-x="1099" 
d="M330 -12q-76 0 -137 36.5t-96.5 99.5t-35.5 142q0 80 35.5 142.5t96 98.5t137.5 36q57 0 106 -21t85.5 -58.5t55.5 -88.5l-19 -1q19 51 54 89t82 59t101 21q55 0 99.5 -20t77 -55.5t50 -81t17.5 -95.5q0 -10 -1 -21t-3 -23h-434q3 -60 30.5 -105.5t73 -71.5t99.5 -26
q58 0 101 27.5t70 73.5l51 -27q-18 -37 -51 -66.5t-76.5 -46.5t-94.5 -17q-85 0 -150.5 47t-95.5 124h20q-20 -52 -56.5 -90t-85.5 -59.5t-106 -21.5zM330 47q57 0 103.5 29t73.5 79t27 111q0 62 -27 111.5t-73 78t-104 28.5t-104.5 -28.5t-73.5 -78t-27 -111.5
q0 -61 27.5 -111t73.5 -79t104 -29zM602 302h373q0 54 -24 95.5t-65 65.5t-91 24q-49 0 -91 -23.5t-69 -65t-33 -96.5z" />
    <glyph glyph-name="Racute" unicode="&#x154;" horiz-adv-x="638" 
d="M94 0v745h250q71 0 125 -28t84.5 -79t30.5 -118q0 -80 -43.5 -136.5t-116.5 -77.5l176 -306h-77l-185 326l54 -31h-233v-295h-65zM159 355h187q51 0 90 20.5t61 58t22 87.5t-22 86.5t-61 57t-90 20.5h-187v-330zM283 854l90 150h82l-111 -150h-61z" />
    <glyph glyph-name="racute" unicode="&#x155;" horiz-adv-x="339" 
d="M83 0v531h60v-99l-11 9q17 45 58.5 71t98.5 26h34v-60h-41q-65 0 -102 -41.5t-37 -111.5v-325h-60zM172 640l90 150h82l-111 -150h-61z" />
    <glyph glyph-name="uni0156" unicode="&#x156;" horiz-adv-x="638" 
d="M94 0v745h250q71 0 125 -28t84.5 -79t30.5 -118q0 -80 -43.5 -136.5t-116.5 -77.5l176 -306h-77l-185 326l54 -31h-233v-295h-65zM159 355h187q51 0 90 20.5t61 58t22 87.5t-22 86.5t-61 57t-90 20.5h-187v-330zM234 -236l46 166h68l-62 -166h-52z" />
    <glyph glyph-name="uni0157" unicode="&#x157;" horiz-adv-x="339" 
d="M83 0v531h60v-99l-11 9q17 45 58.5 71t98.5 26h34v-60h-41q-65 0 -102 -41.5t-37 -111.5v-325h-60zM34 -236l46 166h68l-62 -166h-52z" />
    <glyph glyph-name="Rcaron" unicode="&#x158;" horiz-adv-x="638" 
d="M94 0v745h250q71 0 125 -28t84.5 -79t30.5 -118q0 -80 -43.5 -136.5t-116.5 -77.5l176 -306h-77l-185 326l54 -31h-233v-295h-65zM159 355h187q51 0 90 20.5t61 58t22 87.5t-22 86.5t-61 57t-90 20.5h-187v-330zM282 854l-123 150h70l85 -102l85 102h70l-124 -150h-63z
" />
    <glyph glyph-name="rcaron" unicode="&#x159;" horiz-adv-x="339" 
d="M83 0v531h60v-99l-11 9q17 45 58.5 71t98.5 26h34v-60h-41q-65 0 -102 -41.5t-37 -111.5v-325h-60zM171 640l-123 150h70l85 -102l85 102h70l-124 -150h-63z" />
    <glyph glyph-name="Sacute" unicode="&#x15a;" horiz-adv-x="643" 
d="M336 -12q-71 0 -127.5 27t-94 71t-53.5 95l58 21q28 -76 83.5 -116t132.5 -40q51 0 89.5 17t60.5 48t22 73q0 58 -32.5 90t-84.5 46l-136 40q-83 24 -122.5 77.5t-39.5 121.5q0 59 28.5 103.5t77.5 69.5t111 25q65 0 116.5 -24.5t87 -64t50.5 -87.5l-57 -21
q-25 69 -77 104.5t-119 35.5q-44 0 -79 -17t-55 -48t-20 -73q0 -51 29 -87t97 -57l122 -36q80 -24 123.5 -73.5t43.5 -121.5q0 -59 -30 -103.5t-83.5 -70t-121.5 -25.5zM291 854l90 150h82l-111 -150h-61z" />
    <glyph glyph-name="sacute" unicode="&#x15b;" horiz-adv-x="508" 
d="M262 -12q-74 0 -130 37t-82 101l52 24q25 -49 67 -77.5t93 -28.5q52 0 87.5 25.5t35.5 67.5q0 26 -13.5 44t-34.5 29.5t-45 17.5l-82 23q-69 19 -101.5 56t-32.5 87q0 45 23 78.5t62 52t86 18.5q66 0 120 -34t76 -92l-54 -25q-21 45 -59 70.5t-84 25.5q-48 0 -78 -25.5
t-30 -64.5q0 -25 12 -41.5t31.5 -27t40.5 -16.5l89 -26q65 -18 100.5 -57t35.5 -92q0 -43 -24 -77t-66 -53.5t-95 -19.5zM224 640l90 150h82l-111 -150h-61z" />
    <glyph glyph-name="Scircumflex" unicode="&#x15c;" horiz-adv-x="643" 
d="M336 -12q-71 0 -127.5 27t-94 71t-53.5 95l58 21q28 -76 83.5 -116t132.5 -40q51 0 89.5 17t60.5 48t22 73q0 58 -32.5 90t-84.5 46l-136 40q-83 24 -122.5 77.5t-39.5 121.5q0 59 28.5 103.5t77.5 69.5t111 25q65 0 116.5 -24.5t87 -64t50.5 -87.5l-57 -21
q-25 69 -77 104.5t-119 35.5q-44 0 -79 -17t-55 -48t-20 -73q0 -51 29 -87t97 -57l122 -36q80 -24 123.5 -73.5t43.5 -121.5q0 -59 -30 -103.5t-83.5 -70t-121.5 -25.5zM167 854l123 150h63l124 -150h-70l-85 103l-85 -103h-70z" />
    <glyph glyph-name="scircumflex" unicode="&#x15d;" horiz-adv-x="508" 
d="M262 -12q-74 0 -130 37t-82 101l52 24q25 -49 67 -77.5t93 -28.5q52 0 87.5 25.5t35.5 67.5q0 26 -13.5 44t-34.5 29.5t-45 17.5l-82 23q-69 19 -101.5 56t-32.5 87q0 45 23 78.5t62 52t86 18.5q66 0 120 -34t76 -92l-54 -25q-21 45 -59 70.5t-84 25.5q-48 0 -78 -25.5
t-30 -64.5q0 -25 12 -41.5t31.5 -27t40.5 -16.5l89 -26q65 -18 100.5 -57t35.5 -92q0 -43 -24 -77t-66 -53.5t-95 -19.5zM100 640l123 150h63l124 -150h-70l-85 103l-85 -103h-70z" />
    <glyph glyph-name="Scedilla" unicode="&#x15e;" horiz-adv-x="643" 
d="M336 -12q-71 0 -127.5 27t-94 71t-53.5 95l58 21q28 -76 83.5 -116t132.5 -40q51 0 89.5 17t60.5 48t22 73q0 58 -32.5 90t-84.5 46l-136 40q-83 24 -122.5 77.5t-39.5 121.5q0 59 28.5 103.5t77.5 69.5t111 25q65 0 116.5 -24.5t87 -64t50.5 -87.5l-57 -21
q-25 69 -77 104.5t-119 35.5q-44 0 -79 -17t-55 -48t-20 -73q0 -51 29 -87t97 -57l122 -36q80 -24 123.5 -73.5t43.5 -121.5q0 -59 -30 -103.5t-83.5 -70t-121.5 -25.5zM345 -225q-28 0 -55 10t-45 28l18 43q16 -16 36.5 -24.5t39.5 -8.5q24 0 38 12.5t14 30.5
q0 26 -25.5 40t-75.5 19l25 85h48l-14 -53q47 -9 73 -33.5t26 -58.5q0 -40 -29 -65t-74 -25z" />
    <glyph glyph-name="scedilla" unicode="&#x15f;" horiz-adv-x="508" 
d="M262 -12q-74 0 -130 37t-82 101l52 24q25 -49 67 -77.5t93 -28.5q52 0 87.5 25.5t35.5 67.5q0 26 -13.5 44t-34.5 29.5t-45 17.5l-82 23q-69 19 -101.5 56t-32.5 87q0 45 23 78.5t62 52t86 18.5q66 0 120 -34t76 -92l-54 -25q-21 45 -59 70.5t-84 25.5q-48 0 -78 -25.5
t-30 -64.5q0 -25 12 -41.5t31.5 -27t40.5 -16.5l89 -26q65 -18 100.5 -57t35.5 -92q0 -43 -24 -77t-66 -53.5t-95 -19.5zM264 -225q-28 0 -55 10t-45 28l18 43q16 -16 36.5 -24.5t39.5 -8.5q24 0 38 12.5t14 30.5q0 26 -25.5 40t-75.5 19l25 85h48l-14 -53q47 -9 73 -33.5
t26 -58.5q0 -40 -29 -65t-74 -25z" />
    <glyph glyph-name="Scaron" unicode="&#x160;" horiz-adv-x="643" 
d="M336 -12q-71 0 -127.5 27t-94 71t-53.5 95l58 21q28 -76 83.5 -116t132.5 -40q51 0 89.5 17t60.5 48t22 73q0 58 -32.5 90t-84.5 46l-136 40q-83 24 -122.5 77.5t-39.5 121.5q0 59 28.5 103.5t77.5 69.5t111 25q65 0 116.5 -24.5t87 -64t50.5 -87.5l-57 -21
q-25 69 -77 104.5t-119 35.5q-44 0 -79 -17t-55 -48t-20 -73q0 -51 29 -87t97 -57l122 -36q80 -24 123.5 -73.5t43.5 -121.5q0 -59 -30 -103.5t-83.5 -70t-121.5 -25.5zM290 854l-123 150h70l85 -102l85 102h70l-124 -150h-63z" />
    <glyph glyph-name="scaron" unicode="&#x161;" horiz-adv-x="508" 
d="M262 -12q-74 0 -130 37t-82 101l52 24q25 -49 67 -77.5t93 -28.5q52 0 87.5 25.5t35.5 67.5q0 26 -13.5 44t-34.5 29.5t-45 17.5l-82 23q-69 19 -101.5 56t-32.5 87q0 45 23 78.5t62 52t86 18.5q66 0 120 -34t76 -92l-54 -25q-21 45 -59 70.5t-84 25.5q-48 0 -78 -25.5
t-30 -64.5q0 -25 12 -41.5t31.5 -27t40.5 -16.5l89 -26q65 -18 100.5 -57t35.5 -92q0 -43 -24 -77t-66 -53.5t-95 -19.5zM222 640l-123 150h70l85 -102l85 102h70l-124 -150h-63z" />
    <glyph glyph-name="uni0162" unicode="&#x162;" horiz-adv-x="513" 
d="M225 0v685h-208v60h480v-60h-207v-685h-65zM267 -225q-28 0 -55 10t-45 28l18 43q16 -16 36.5 -24.5t39.5 -8.5q24 0 38 12.5t14 30.5q0 26 -25.5 40t-75.5 19l25 85h48l-14 -53q47 -9 73 -33.5t26 -58.5q0 -40 -29 -65t-74 -25z" />
    <glyph glyph-name="uni0163" unicode="&#x163;" horiz-adv-x="384" 
d="M276 -6q-66 0 -102 37.5t-36 109.5v333h-100v57h38q30 0 46 18t16 49v57h60v-124h116v-57h-116v-333q0 -22 6.5 -43t25.5 -34t55 -13q8 0 19.5 1t18.5 2v-54q-11 -3 -25 -4.5t-22 -1.5zM267 -225q-28 0 -55 10t-45 28l18 43q16 -16 36.5 -24.5t39.5 -8.5q24 0 38 12.5
t14 30.5q0 26 -25.5 40t-75.5 19l25 85h48l-14 -53q47 -9 73 -33.5t26 -58.5q0 -40 -29 -65t-74 -25z" />
    <glyph glyph-name="Tcaron" unicode="&#x164;" horiz-adv-x="513" 
d="M225 0v685h-208v60h480v-60h-207v-685h-65zM225 854l-123 150h70l85 -102l85 102h70l-124 -150h-63z" />
    <glyph glyph-name="tcaron" unicode="&#x165;" horiz-adv-x="363" 
d="M276 -6q-66 0 -102 37.5t-36 109.5v333h-100v57h38q30 0 46 18t16 49v57h60v-124h116v-57h-116v-333q0 -22 6.5 -43t25.5 -34t55 -13q8 0 19.5 1t18.5 2v-54q-11 -3 -25 -4.5t-22 -1.5zM256 595v162h70l-18 -162h-52z" />
    <glyph glyph-name="Tbar" unicode="&#x166;" horiz-adv-x="513" 
d="M109 344v58h295v-58h-295zM225 0v685h-208v60h480v-60h-207v-685h-65z" />
    <glyph glyph-name="tbar" unicode="&#x167;" horiz-adv-x="384" 
d="M30 237v58h276v-58h-276zM276 -6q-66 0 -102 37.5t-36 109.5v333h-100v57h38q30 0 46 18t16 49v57h60v-124h116v-57h-116v-333q0 -22 6.5 -43t25.5 -34t55 -13q8 0 19.5 1t18.5 2v-54q-11 -3 -25 -4.5t-22 -1.5z" />
    <glyph glyph-name="Utilde" unicode="&#x168;" horiz-adv-x="695" 
d="M348 -12q-77 0 -135 33t-90.5 91.5t-32.5 134.5v498h65v-500q0 -58 24.5 -102.5t68 -69.5t100.5 -25t100.5 25t67.5 69.5t24 102.5v500h65v-498q0 -76 -32 -134.5t-90 -91.5t-135 -33zM406 854q-26 0 -42 10t-27.5 23.5t-22.5 23.5t-28 10t-27.5 -14.5t-10.5 -48.5h-51
q0 54 24 84.5t67 30.5q25 0 40.5 -10t27 -23.5t23 -23.5t28.5 -10q19 0 30 16t11 47h50q0 -51 -24.5 -83t-67.5 -32z" />
    <glyph glyph-name="utilde" unicode="&#x169;" 
d="M271 -12q-54 0 -99.5 25t-72.5 70.5t-27 108.5v339h60v-334q0 -47 19.5 -80.5t53 -51.5t75.5 -18q46 0 79.5 21t51.5 58.5t18 85.5v319h60v-531h-60v108l15 -5q-18 -52 -64 -83.5t-109 -31.5zM345 640q-26 0 -42 10t-27.5 23.5t-22.5 23.5t-28 10t-27.5 -14.5
t-10.5 -48.5h-51q0 54 24 84.5t67 30.5q25 0 40.5 -10t27 -23.5t23 -23.5t28.5 -10q19 0 30 16t11 47h50q0 -51 -24.5 -83t-67.5 -32z" />
    <glyph glyph-name="Umacron" unicode="&#x16a;" horiz-adv-x="695" 
d="M348 -12q-77 0 -135 33t-90.5 91.5t-32.5 134.5v498h65v-500q0 -58 24.5 -102.5t68 -69.5t100.5 -25t100.5 25t67.5 69.5t24 102.5v500h65v-498q0 -76 -32 -134.5t-90 -91.5t-135 -33zM218 874v55h260v-55h-260z" />
    <glyph glyph-name="umacron" unicode="&#x16b;" 
d="M271 -12q-54 0 -99.5 25t-72.5 70.5t-27 108.5v339h60v-334q0 -47 19.5 -80.5t53 -51.5t75.5 -18q46 0 79.5 21t51.5 58.5t18 85.5v319h60v-531h-60v108l15 -5q-18 -52 -64 -83.5t-109 -31.5zM156 660v55h260v-55h-260z" />
    <glyph glyph-name="Ubreve" unicode="&#x16c;" horiz-adv-x="695" 
d="M348 -12q-77 0 -135 33t-90.5 91.5t-32.5 134.5v498h65v-500q0 -58 24.5 -102.5t68 -69.5t100.5 -25t100.5 25t67.5 69.5t24 102.5v500h65v-498q0 -76 -32 -134.5t-90 -91.5t-135 -33zM348 854q-47 0 -80 18.5t-50.5 51.5t-17.5 75h59q0 -43 23 -69t66 -26q42 0 65 26
t23 69h59q0 -42 -17.5 -75t-50 -51.5t-79.5 -18.5z" />
    <glyph glyph-name="ubreve" unicode="&#x16d;" 
d="M271 -12q-54 0 -99.5 25t-72.5 70.5t-27 108.5v339h60v-334q0 -47 19.5 -80.5t53 -51.5t75.5 -18q46 0 79.5 21t51.5 58.5t18 85.5v319h60v-531h-60v108l15 -5q-18 -52 -64 -83.5t-109 -31.5zM287 640q-47 0 -80 18.5t-50.5 51.5t-17.5 75h59q0 -43 23 -69t66 -26
q42 0 65 26t23 69h59q0 -42 -17.5 -75t-50 -51.5t-79.5 -18.5z" />
    <glyph glyph-name="Uring" unicode="&#x16e;" horiz-adv-x="695" 
d="M348 -12q-77 0 -135 33t-90.5 91.5t-32.5 134.5v498h65v-500q0 -58 24.5 -102.5t68 -69.5t100.5 -25t100.5 25t67.5 69.5t24 102.5v500h65v-498q0 -76 -32 -134.5t-90 -91.5t-135 -33zM347 834q-41 0 -71.5 27t-30.5 74q0 46 30 73.5t72 27.5t72.5 -27.5t30.5 -73.5
q0 -47 -30.5 -74t-72.5 -27zM347 879q23 0 39 15t16 40q0 26 -16 41t-39 15q-22 0 -38 -15t-16 -40q0 -26 16 -41t38 -15z" />
    <glyph glyph-name="uring" unicode="&#x16f;" 
d="M271 -12q-54 0 -99.5 25t-72.5 70.5t-27 108.5v339h60v-334q0 -47 19.5 -80.5t53 -51.5t75.5 -18q46 0 79.5 21t51.5 58.5t18 85.5v319h60v-531h-60v108l15 -5q-18 -52 -64 -83.5t-109 -31.5zM286 620q-41 0 -71.5 27t-30.5 74q0 46 30 73.5t72 27.5t72.5 -27.5
t30.5 -73.5q0 -47 -30.5 -74t-72.5 -27zM286 665q23 0 39 15t16 40q0 26 -16 41t-39 15q-22 0 -38 -15t-16 -40q0 -26 16 -41t38 -15z" />
    <glyph glyph-name="Uhungarumlaut" unicode="&#x170;" horiz-adv-x="695" 
d="M348 -12q-77 0 -135 33t-90.5 91.5t-32.5 134.5v498h65v-500q0 -58 24.5 -102.5t68 -69.5t100.5 -25t100.5 25t67.5 69.5t24 102.5v500h65v-498q0 -76 -32 -134.5t-90 -91.5t-135 -33zM245 854l55 150h77l-76 -150h-56zM396 854l54 150h77l-76 -150h-55z" />
    <glyph glyph-name="uhungarumlaut" unicode="&#x171;" 
d="M271 -12q-54 0 -99.5 25t-72.5 70.5t-27 108.5v339h60v-334q0 -47 19.5 -80.5t53 -51.5t75.5 -18q46 0 79.5 21t51.5 58.5t18 85.5v319h60v-531h-60v108l15 -5q-18 -52 -64 -83.5t-109 -31.5zM183 640l55 150h77l-76 -150h-56zM334 640l54 150h77l-76 -150h-55z" />
    <glyph glyph-name="Uogonek" unicode="&#x172;" horiz-adv-x="695" 
d="M348 -12q-77 0 -135 33t-90.5 91.5t-32.5 134.5v498h65v-500q0 -58 24.5 -102.5t68 -69.5t100.5 -25t100.5 25t67.5 69.5t24 102.5v500h65v-498q0 -76 -32 -134.5t-90 -91.5t-135 -33zM333 -225q-46 0 -76 25t-30 68q0 37 18.5 67.5t48 52.5t62.5 30h24v-18
q-22 -7 -44 -25.5t-36.5 -44t-14.5 -55.5q0 -23 14.5 -37.5t39.5 -14.5q20 0 40.5 8.5t35.5 24.5l18 -43q-18 -18 -44.5 -28t-55.5 -10z" />
    <glyph glyph-name="uogonek" unicode="&#x173;" 
d="M271 -12q-54 0 -99.5 25t-72.5 70.5t-27 108.5v339h60v-334q0 -47 19.5 -80.5t53 -51.5t75.5 -18q46 0 79.5 21t51.5 58.5t18 85.5v319h60v-531h-60v108l15 -5q-18 -52 -64 -83.5t-109 -31.5zM425 -225q-46 0 -76 25t-30 68q0 37 18.5 67.5t48 52.5t62.5 30h24v-18
q-22 -7 -44 -25.5t-36.5 -44t-14.5 -55.5q0 -23 14.5 -37.5t39.5 -14.5q20 0 40.5 8.5t35.5 24.5l18 -43q-18 -18 -44.5 -28t-55.5 -10z" />
    <glyph glyph-name="Wcircumflex" unicode="&#x174;" horiz-adv-x="986" 
d="M235 0l-218 745h67l196 -684l-22 1l202 683h67l201 -683l-22 -1l196 684h68l-219 -745h-66l-203 688h23l-203 -688h-67zM339 854l123 150h63l124 -150h-70l-85 103l-85 -103h-70z" />
    <glyph glyph-name="wcircumflex" unicode="&#x175;" horiz-adv-x="783" 
d="M199 0l-182 531h67l159 -481h-26l144 481h61l144 -481h-26l160 481h67l-183 -531h-61l-139 464h15l-139 -464h-61zM238 640l123 150h63l124 -150h-70l-85 103l-85 -103h-70z" />
    <glyph glyph-name="Ycircumflex" unicode="&#x176;" horiz-adv-x="624" 
d="M280 0v340l-263 405h73l237 -361h-29l236 361h73l-262 -405v-340h-65zM158 854l123 150h63l124 -150h-70l-85 103l-85 -103h-70z" />
    <glyph glyph-name="ycircumflex" unicode="&#x177;" horiz-adv-x="533" 
d="M85 -220q-14 0 -30.5 2.5t-31.5 7.5v56q12 -3 27.5 -5t28.5 -2q49 1 77 24t51 76l38 89v-56l-225 559h66l193 -482h-24l194 482h67l-248 -605q-14 -33 -37 -67t-58.5 -56.5t-87.5 -22.5zM112 640l123 150h63l124 -150h-70l-85 103l-85 -103h-70z" />
    <glyph glyph-name="Ydieresis" unicode="&#x178;" horiz-adv-x="624" 
d="M280 0v340l-263 405h73l237 -361h-29l236 361h73l-262 -405v-340h-65zM187 854v88h85v-88h-85zM352 854v88h85v-88h-85z" />
    <glyph glyph-name="Zacute" unicode="&#x179;" horiz-adv-x="595" 
d="M28 0v42l444 643h-418v60h504v-42l-443 -643h453v-60h-540zM267 854l90 150h82l-111 -150h-61z" />
    <glyph glyph-name="zacute" unicode="&#x17a;" horiz-adv-x="442" 
d="M28 0v48l330 455l14 -29h-326v57h372v-47l-330 -456l-15 30h347v-58h-392zM188 640l90 150h82l-111 -150h-61z" />
    <glyph glyph-name="Zdotaccent" unicode="&#x17b;" horiz-adv-x="595" 
d="M28 0v42l444 643h-418v60h504v-42l-443 -643h453v-60h-540zM255 854v88h85v-88h-85z" />
    <glyph glyph-name="zdotaccent" unicode="&#x17c;" horiz-adv-x="442" 
d="M28 0v48l330 455l14 -29h-326v57h372v-47l-330 -456l-15 30h347v-58h-392zM176 640v88h85v-88h-85z" />
    <glyph glyph-name="Zcaron" unicode="&#x17d;" horiz-adv-x="595" 
d="M28 0v42l444 643h-418v60h504v-42l-443 -643h453v-60h-540zM266 854l-123 150h70l85 -102l85 102h70l-124 -150h-63z" />
    <glyph glyph-name="zcaron" unicode="&#x17e;" horiz-adv-x="442" 
d="M28 0v48l330 455l14 -29h-326v57h372v-47l-330 -456l-15 30h347v-58h-392zM187 640l-123 150h70l85 -102l85 102h70l-124 -150h-63z" />
    <glyph glyph-name="uni018F" unicode="&#x18f;" horiz-adv-x="838" 
d="M411 -12q-73 0 -135 26.5t-108 74.5t-71 111.5t-25 138.5q0 15 1 27.5t4 27.5h651v-60h-611l24 15v-10v-10q0 -80 35 -143t97 -99.5t140 -36.5q61 0 114 23.5t92.5 67t61 102.5t21.5 130q0 69 -22.5 127.5t-63.5 102t-97 68.5t-123 25q-82 0 -150 -38.5t-105 -104.5
l-56 29q27 52 73.5 91.5t108 61.5t129.5 22q79 0 146.5 -29t118 -81.5t78.5 -123t28 -153.5q0 -79 -26 -148t-73.5 -121.5t-112.5 -82.5t-144 -30z" />
    <glyph glyph-name="florin" unicode="&#x192;" horiz-adv-x="475" 
d="M97 -12q-11 0 -22 1.5t-19 3.5v55q7 -1 18 -2t18 -1q52 0 84 30.5t32 98.5v172h-132v55h132v171q0 61 22.5 102t61.5 62t86 21q11 0 22.5 -1.5t19.5 -3.5v-54q-8 2 -19 2.5t-17 0.5q-52 0 -84 -30.5t-32 -98.5v-171h132v-55h-132v-172q0 -61 -23 -102.5t-61.5 -62.5
t-86.5 -21z" />
    <glyph glyph-name="Ohorn" unicode="&#x1a0;" horiz-adv-x="881" 
d="M441 -12q-77 0 -144 28.5t-117.5 80t-79 122t-28.5 154.5q0 85 28.5 155t79.5 121.5t117.5 79.5t143.5 28h213q14 0 25.5 4.5t18.5 16.5t7 33t-6 40.5t-15 39.5h68q10 -20 16.5 -41.5t6.5 -45.5q0 -53 -31 -76t-82 -23h-54l10 7q57 -31 100.5 -81.5t67.5 -115.5t24 -142
q0 -84 -29 -154.5t-79.5 -122t-117.5 -80t-143 -28.5zM441 50q67 0 123 25t96.5 70t62.5 103.5t22 124.5q0 65 -22 123.5t-62.5 103.5t-96 70.5t-123.5 25.5t-123.5 -25.5t-96 -70.5t-62.5 -103.5t-22 -123.5q0 -66 22 -124.5t62.5 -103.5t96.5 -70t123 -25z" />
    <glyph glyph-name="ohorn" unicode="&#x1a1;" horiz-adv-x="659" 
d="M330 -12q-76 0 -137 36.5t-96.5 99.5t-35.5 142q0 80 35.5 142.5t96 98.5t137.5 36h113q14 0 26 5t19 17t7 32q0 21 -6.5 41t-14.5 40h59q9 -21 15.5 -42.5t6.5 -44.5q0 -44 -24 -68.5t-63 -28.5l3 10q58 -36 92.5 -97.5t34.5 -140.5q0 -80 -36 -143t-96.5 -99
t-135.5 -36zM330 47q57 0 103.5 29t73.5 79t27 111q0 62 -27 111.5t-73 78t-104 28.5t-104.5 -28.5t-73.5 -78t-27 -111.5q0 -61 27.5 -111t73.5 -79t104 -29z" />
    <glyph glyph-name="Uhorn" unicode="&#x1af;" horiz-adv-x="695" 
d="M348 -12q-77 0 -135 33t-90.5 91.5t-32.5 134.5v498h65v-500q0 -58 24.5 -102.5t68 -69.5t100.5 -25t100.5 25t67.5 69.5t24 102.5v500h58q21 0 36.5 11t15.5 43q0 21 -6.5 40.5t-15.5 39.5h69q9 -20 16 -41.5t7 -45.5q0 -52 -29.5 -78t-78.5 -26h-7v-441
q0 -76 -32 -134.5t-90 -91.5t-135 -33z" />
    <glyph glyph-name="uhorn" unicode="&#x1b0;" horiz-adv-x="585" 
d="M271 -12q-54 0 -99.5 25t-72.5 70.5t-27 108.5v339h60v-334q0 -47 19.5 -80.5t53 -51.5t75.5 -18q46 0 79.5 21t51.5 58.5t18 85.5v319h33q22 0 37 12t15 42q0 21 -6 41t-15 40h60q8 -21 15 -42.5t7 -44.5q0 -49 -28.5 -73t-73.5 -26l16 24v-504h-60v72
q-23 -39 -64 -61.5t-94 -22.5z" />
    <glyph glyph-name="uni01C4" unicode="&#x1c4;" horiz-adv-x="1338" 
d="M94 0v745h241q110 0 190.5 -45.5t124.5 -129t44 -197.5q0 -113 -44 -197t-124.5 -130t-190.5 -46h-241zM159 60h175q89 0 154.5 39t102 109.5t36.5 164.5q0 95 -36.5 165t-102.5 108.5t-154 38.5h-175v-625zM771 0v42l444 643h-418v60h504v-42l-443 -643h453v-60h-540z
M1009 854l-123 150h70l85 -102l85 102h70l-124 -150h-63z" />
    <glyph glyph-name="uni01C5" unicode="&#x1c5;" horiz-adv-x="1185" 
d="M94 0v745h241q110 0 190.5 -45.5t124.5 -129t44 -197.5q0 -113 -44 -197t-124.5 -130t-190.5 -46h-241zM159 60h175q89 0 154.5 39t102 109.5t36.5 164.5q0 95 -36.5 165t-102.5 108.5t-154 38.5h-175v-625zM771 0v48l330 455l14 -29h-326v57h372v-47l-330 -456l-15 30
h347v-58h-392zM930 640l-123 150h70l85 -102l85 102h70l-124 -150h-63z" />
    <glyph glyph-name="uni01C6" unicode="&#x1c6;" horiz-adv-x="1113" 
d="M322 -12q-74 0 -133.5 36.5t-93.5 99.5t-34 142t34 142t93.5 99t133.5 36q73 0 130 -34.5t86 -92.5l-10 -19v360h60v-757h-60v135l10 -14q-28 -62 -85.5 -97.5t-130.5 -35.5zM324 48q58 0 103.5 28.5t72.5 78t27 111.5t-27 111t-72.5 77.5t-103.5 28.5q-57 0 -102 -28.5
t-71 -77.5t-26 -111t26 -111.5t71 -78t102 -28.5zM699 0v48l330 455l14 -29h-326v57h372v-47l-330 -456l-15 30h347v-58h-392zM857 640l-123 150h70l85 -102l85 102h70l-124 -150h-63z" />
    <glyph glyph-name="uni01C7" unicode="&#x1c7;" horiz-adv-x="1098" 
d="M94 0v745h65v-685h335v-60h-400zM799 -12q-85 0 -143 46.5t-79 122.5l60 19q18 -58 60 -93t102 -35q41 0 73 18t50 50t18 74v555h65v-555q0 -60 -26 -105.5t-72.5 -71t-107.5 -25.5z" />
    <glyph glyph-name="uni01C8" unicode="&#x1c8;" horiz-adv-x="757" 
d="M94 0v745h65v-685h335v-60h-400zM512 -220q-10 0 -21 1.5t-19 3.5v55q19 -3 39 -3q47 0 75.5 27t28.5 80v587h60v-587q0 -53 -21.5 -89.5t-58 -55.5t-83.5 -19zM615 635v110h60v-110h-60z" />
    <glyph glyph-name="uni01C9" unicode="&#x1c9;" horiz-adv-x="450" 
d="M83 0v757h60v-757h-60zM205 -220q-10 0 -21 1.5t-19 3.5v55q19 -3 39 -3q47 0 75.5 27t28.5 80v587h60v-587q0 -53 -21.5 -89.5t-58 -55.5t-83.5 -19zM308 635v110h60v-110h-60z" />
    <glyph glyph-name="uni01CA" unicode="&#x1ca;" horiz-adv-x="1119" 
d="M94 0v745h55l451 -647h-21v647h65v-745h-55l-453 651h23v-651h-65zM798 0v65h39q57 0 90.5 35t33.5 100v545h65v-547q0 -61 -23.5 -105.5t-66 -68.5t-99.5 -24h-39z" />
    <glyph glyph-name="uni01CB" unicode="&#x1cb;" horiz-adv-x="962" 
d="M94 0v745h55l451 -647h-21v647h65v-745h-55l-453 651h23v-651h-65zM717 -220q-10 0 -21 1.5t-19 3.5v55q19 -3 39 -3q47 0 75.5 27t28.5 80v587h60v-587q0 -53 -21.5 -89.5t-58 -55.5t-83.5 -19zM820 635v110h60v-110h-60z" />
    <glyph glyph-name="uni01CC" unicode="&#x1cc;" horiz-adv-x="797" 
d="M83 0v531h60v-107l-15 4q18 53 64.5 84t108.5 31q55 0 100 -25t72 -69.5t27 -101.5v-347h-60v330q0 48 -19 82.5t-52.5 53t-76.5 18.5q-45 0 -79 -21t-52 -58t-18 -85v-320h-60zM552 -220q-10 0 -21 1.5t-19 3.5v55q19 -3 39 -3q47 0 75.5 27t28.5 80v587h60v-587
q0 -53 -21.5 -89.5t-58 -55.5t-83.5 -19zM655 635v110h60v-110h-60z" />
    <glyph glyph-name="Gcaron" unicode="&#x1e6;" horiz-adv-x="828" 
d="M431 -12q-79 0 -144.5 28.5t-113.5 80t-74.5 121.5t-26.5 154t26.5 154t75 122t114 80.5t143.5 28.5q77 0 137.5 -27t102 -69t59.5 -87l-60 -28q-30 69 -91.5 109.5t-147.5 40.5q-85 0 -152 -41t-104.5 -113.5t-37.5 -169.5q0 -96 37.5 -169t104 -113t152.5 -40
q77 0 138.5 34.5t97 94t35.5 136.5v35l29 -31h-300v58h336v-56q0 -70 -25.5 -130.5t-70.5 -106t-106.5 -71t-133.5 -25.5zM382 854l-123 150h70l85 -102l85 102h70l-124 -150h-63z" />
    <glyph glyph-name="gcaron" unicode="&#x1e7;" horiz-adv-x="663" 
d="M331 -220q-53 0 -98 17t-78 46t-52 66l54 29q22 -43 66.5 -71t106.5 -28q50 0 93 19.5t70.5 60t27.5 101.5v135l11 -14q-28 -62 -85 -97.5t-127 -35.5q-74 0 -133 36t-92.5 97t-33.5 135t33.5 134.5t92 96.5t133.5 36q70 0 126 -34.5t86 -92.5l-11 -19v134h60v-511
q0 -69 -32 -123.5t-88.5 -85.5t-129.5 -31zM322 68q56 0 100.5 28t70.5 75.5t26 104.5t-26 104t-70.5 75t-100.5 28q-57 0 -102 -28t-70 -75t-25 -104t25 -104.5t69.5 -75.5t102.5 -28zM300 640l-123 150h70l85 -102l85 102h70l-124 -150h-63z" />
    <glyph glyph-name="uni01EA" unicode="&#x1ea;" horiz-adv-x="881" 
d="M441 -12q-77 0 -144 28.5t-117.5 80t-79 122t-28.5 154.5q0 85 28.5 155t79.5 121.5t117.5 79.5t143.5 28q76 0 143 -28t117.5 -79.5t79.5 -122t29 -154.5t-29 -154.5t-79.5 -122t-117.5 -80t-143 -28.5zM441 50q67 0 123 25t96.5 70t62.5 103.5t22 124.5q0 65 -22 123.5
t-62.5 103.5t-96 70.5t-123.5 25.5t-123.5 -25.5t-96 -70.5t-62.5 -103.5t-22 -123.5q0 -66 22 -124.5t62.5 -103.5t96.5 -70t123 -25zM456 -225q-46 0 -76 25t-30 68q0 37 18.5 67.5t48 52.5t62.5 30h24v-18q-22 -7 -44 -25.5t-36.5 -44t-14.5 -55.5q0 -23 14.5 -37.5
t39.5 -14.5q20 0 40.5 8.5t35.5 24.5l18 -43q-18 -18 -44.5 -28t-55.5 -10z" />
    <glyph glyph-name="uni01EB" unicode="&#x1eb;" horiz-adv-x="659" 
d="M330 -12q-76 0 -137 36t-96.5 99.5t-35.5 142.5t35.5 142t96 99t137.5 36q76 0 137 -36t96 -98.5t35 -142.5t-36 -143t-96.5 -99t-135.5 -36zM330 47q57 0 103.5 28.5t73.5 78.5t27 112t-27 111t-73 78t-104 29t-104.5 -28.5t-73.5 -78t-27 -111.5t27.5 -112t73.5 -78.5
t104 -28.5zM345 -225q-46 0 -76 25t-30 68q0 37 18.5 67.5t48 52.5t62.5 30h24v-18q-22 -7 -44 -25.5t-36.5 -44t-14.5 -55.5q0 -23 14.5 -37.5t39.5 -14.5q20 0 40.5 8.5t35.5 24.5l18 -43q-18 -18 -44.5 -28t-55.5 -10z" />
    <glyph glyph-name="Aringacute" unicode="&#x1fa;" horiz-adv-x="648" 
d="M17 0l274 745h67l274 -745h-70l-68 190h-339l-69 -190h-69zM176 250h296l-160 445h24zM324 834q-41 0 -71.5 27t-30.5 74q0 46 30 73.5t72 27.5t72.5 -27.5t30.5 -73.5q0 -47 -30.5 -74t-72.5 -27zM324 879q23 0 39 15t16 40q0 26 -16 41t-39 15q-22 0 -38 -15t-16 -40
q0 -26 16 -41t38 -15zM322 1000l62 124h82l-77 -124h-67z" />
    <glyph glyph-name="aringacute" unicode="&#x1fb;" horiz-adv-x="573" 
d="M235 -12q-50 0 -89 19t-62 53t-23 78q0 39 17 73t55 58.5t99 34.5l215 36v-56l-199 -33q-68 -11 -96 -41t-28 -70q0 -43 32.5 -70t82.5 -27q58 0 101 26.5t67 70t24 95.5v132q0 53 -38 86t-99 33q-50 0 -90 -25t-61 -65l-54 29q15 32 46 59t72 43t87 16q58 0 102.5 -22.5
t69.5 -62t25 -91.5v-367h-60v111l7 -5q-13 -32 -43 -58.5t-70.5 -43t-89.5 -16.5zM293 620q-41 0 -71.5 27t-30.5 74q0 46 30 73.5t72 27.5t72.5 -27.5t30.5 -73.5q0 -47 -30.5 -74t-72.5 -27zM293 665q23 0 39 15t16 40q0 26 -16 41t-39 15q-22 0 -38 -15t-16 -40
q0 -26 16 -41t38 -15zM291 786l62 124h82l-77 -124h-67z" />
    <glyph glyph-name="AEacute" unicode="&#x1fc;" horiz-adv-x="986" 
d="M17 0l274 745h646v-60h-405v-281h385v-60h-385v-284h405v-60h-470v190h-312l-69 -190h-69zM176 250h291v435h-134zM463 854l90 150h82l-111 -150h-61z" />
    <glyph glyph-name="aeacute" unicode="&#x1fd;" horiz-adv-x="993" 
d="M235 -12q-50 0 -89 19t-62 53t-23 78q0 39 17 73t55 58.5t99 34.5l198 33v30q0 53 -37.5 86t-98.5 33q-50 0 -90 -25t-61 -65l-54 29q15 32 46 59t72 43t87 16q74 0 126 -37t66 -99l-19 1q32 62 90.5 98.5t131.5 36.5q54 0 99 -20t77 -55.5t49.5 -81t17.5 -95.5
q0 -10 -0.5 -21t-2.5 -23h-435q3 -60 31 -105.5t73 -71.5t100 -26q58 0 101 27.5t69 73.5l51 -27q-17 -37 -50 -66.5t-76.5 -46.5t-94.5 -17q-71 0 -128.5 33t-92.5 91l14 14v-126h-61v127l9 -18q-13 -32 -42.5 -60t-71 -44.5t-90.5 -16.5zM239 43q58 0 101 26.5t66.5 70
t23.5 95.5v46l-182 -30q-68 -11 -96 -41t-28 -70q0 -43 32.5 -70t82.5 -27zM496 302h373q0 54 -24 95.5t-65 65.5t-91 24q-49 0 -91 -23.5t-69 -65t-33 -96.5zM466 640l90 150h82l-111 -150h-61z" />
    <glyph glyph-name="Oslashacute" unicode="&#x1fe;" horiz-adv-x="881" 
d="M94 0l610 745h84l-610 -745h-84zM441 -12q-77 0 -144 28.5t-117.5 80t-79 122t-28.5 154.5q0 85 28.5 155t79.5 121.5t117.5 79.5t143.5 28q76 0 143 -28t117.5 -79.5t79.5 -122t29 -154.5t-29 -154.5t-79.5 -122t-117.5 -80t-143 -28.5zM441 50q67 0 123 25t96.5 70
t62.5 103.5t22 124.5q0 65 -22 123.5t-62.5 103.5t-96 70.5t-123.5 25.5t-123.5 -25.5t-96 -70.5t-62.5 -103.5t-22 -123.5q0 -66 22 -124.5t62.5 -103.5t96.5 -70t123 -25zM410 854l90 150h82l-111 -150h-61z" />
    <glyph glyph-name="oslashacute" unicode="&#x1ff;" horiz-adv-x="659" 
d="M52 0l469 531h86l-469 -531h-86zM330 -12q-76 0 -137 36t-96.5 99.5t-35.5 142.5t35.5 142t96 99t137.5 36q76 0 137 -36t96 -98.5t35 -142.5t-36 -143t-96.5 -99t-135.5 -36zM330 47q57 0 103.5 28.5t73.5 78.5t27 112t-27 111t-73 78t-104 29t-104.5 -28.5t-73.5 -78
t-27 -111.5t27.5 -112t73.5 -78.5t104 -28.5zM299 640l90 150h82l-111 -150h-61z" />
    <glyph glyph-name="uni0200" unicode="&#x200;" horiz-adv-x="648" 
d="M17 0l274 745h67l274 -745h-70l-68 190h-339l-69 -190h-69zM176 250h296l-160 445h24zM221 854l-111 149h77l90 -149h-56zM372 854l-111 149h77l89 -149h-55z" />
    <glyph glyph-name="uni0201" unicode="&#x201;" horiz-adv-x="573" 
d="M235 -12q-50 0 -89 19t-62 53t-23 78q0 39 17 73t55 58.5t99 34.5l215 36v-56l-199 -33q-68 -11 -96 -41t-28 -70q0 -43 32.5 -70t82.5 -27q58 0 101 26.5t67 70t24 95.5v132q0 53 -38 86t-99 33q-50 0 -90 -25t-61 -65l-54 29q15 32 46 59t72 43t87 16q58 0 102.5 -22.5
t69.5 -62t25 -91.5v-367h-60v111l7 -5q-13 -32 -43 -58.5t-70.5 -43t-89.5 -16.5zM191 640l-111 149h77l90 -149h-56zM342 640l-111 149h77l89 -149h-55z" />
    <glyph glyph-name="uni0202" unicode="&#x202;" horiz-adv-x="648" 
d="M17 0l274 745h67l274 -745h-70l-68 190h-339l-69 -190h-69zM176 250h296l-160 445h24zM177 854q0 43 17.5 75.5t50.5 51t80 18.5t79.5 -18.5t50 -51t17.5 -75.5h-59q0 44 -23 69.5t-65 25.5q-43 0 -66 -25.5t-23 -69.5h-59z" />
    <glyph glyph-name="uni0203" unicode="&#x203;" horiz-adv-x="573" 
d="M235 -12q-50 0 -89 19t-62 53t-23 78q0 39 17 73t55 58.5t99 34.5l215 36v-56l-199 -33q-68 -11 -96 -41t-28 -70q0 -43 32.5 -70t82.5 -27q58 0 101 26.5t67 70t24 95.5v132q0 53 -38 86t-99 33q-50 0 -90 -25t-61 -65l-54 29q15 32 46 59t72 43t87 16q58 0 102.5 -22.5
t69.5 -62t25 -91.5v-367h-60v111l7 -5q-13 -32 -43 -58.5t-70.5 -43t-89.5 -16.5zM146 640q0 43 17.5 75.5t50.5 51t80 18.5t79.5 -18.5t50 -51t17.5 -75.5h-59q0 44 -23 69.5t-65 25.5q-43 0 -66 -25.5t-23 -69.5h-59z" />
    <glyph glyph-name="uni0204" unicode="&#x204;" horiz-adv-x="613" 
d="M94 0v745h470v-60h-405v-281h385v-60h-385v-284h405v-60h-470zM226 854l-111 149h77l90 -149h-56zM377 854l-111 149h77l89 -149h-55z" />
    <glyph glyph-name="uni0205" unicode="&#x205;" horiz-adv-x="621" 
d="M326 -12q-75 0 -135 36.5t-95 100t-35 142.5t34 141.5t92 98.5t130 36q55 0 99.5 -20t77 -55.5t50 -81t17.5 -95.5q0 -10 -1 -21t-3 -23h-461v55h427l-27 -21q6 58 -17 104.5t-65.5 74t-96.5 27.5t-99 -28.5t-71 -78t-24 -114.5q-2 -65 25 -115t74 -78.5t104 -28.5
q58 0 101 27.5t70 73.5l51 -27q-18 -37 -51 -66.5t-76.5 -46.5t-94.5 -17zM208 640l-111 149h77l90 -149h-56zM359 640l-111 149h77l89 -149h-55z" />
    <glyph glyph-name="uni0206" unicode="&#x206;" horiz-adv-x="613" 
d="M94 0v745h470v-60h-405v-281h385v-60h-385v-284h405v-60h-470zM181 854q0 43 17.5 75.5t50.5 51t80 18.5t79.5 -18.5t50 -51t17.5 -75.5h-59q0 44 -23 69.5t-65 25.5q-43 0 -66 -25.5t-23 -69.5h-59z" />
    <glyph glyph-name="uni0207" unicode="&#x207;" horiz-adv-x="621" 
d="M326 -12q-75 0 -135 36.5t-95 100t-35 142.5t34 141.5t92 98.5t130 36q55 0 99.5 -20t77 -55.5t50 -81t17.5 -95.5q0 -10 -1 -21t-3 -23h-461v55h427l-27 -21q6 58 -17 104.5t-65.5 74t-96.5 27.5t-99 -28.5t-71 -78t-24 -114.5q-2 -65 25 -115t74 -78.5t104 -28.5
q58 0 101 27.5t70 73.5l51 -27q-18 -37 -51 -66.5t-76.5 -46.5t-94.5 -17zM164 640q0 43 17.5 75.5t50.5 51t80 18.5t79.5 -18.5t50 -51t17.5 -75.5h-59q0 44 -23 69.5t-65 25.5q-43 0 -66 -25.5t-23 -69.5h-59z" />
    <glyph glyph-name="uni0208" unicode="&#x208;" horiz-adv-x="252" 
d="M94 0v745h65v-745h-65zM23 854l-111 149h77l90 -149h-56zM174 854l-111 149h77l89 -149h-55z" />
    <glyph glyph-name="uni0209" unicode="&#x209;" horiz-adv-x="192" 
d="M66 0v531h60v-531h-60zM-7 640l-111 149h77l90 -149h-56zM144 640l-111 149h77l89 -149h-55z" />
    <glyph glyph-name="uni020A" unicode="&#x20a;" horiz-adv-x="252" 
d="M94 0v745h65v-745h-65zM-21 854q0 43 17.5 75.5t50.5 51t80 18.5t79.5 -18.5t50 -51t17.5 -75.5h-59q0 44 -23 69.5t-65 25.5q-43 0 -66 -25.5t-23 -69.5h-59z" />
    <glyph glyph-name="uni020B" unicode="&#x20b;" horiz-adv-x="192" 
d="M66 0v531h60v-531h-60zM-52 640q0 43 17.5 75.5t50.5 51t80 18.5t79.5 -18.5t50 -51t17.5 -75.5h-59q0 44 -23 69.5t-65 25.5q-43 0 -66 -25.5t-23 -69.5h-59z" />
    <glyph glyph-name="uni020C" unicode="&#x20c;" horiz-adv-x="881" 
d="M441 -12q-77 0 -144 28.5t-117.5 80t-79 122t-28.5 154.5q0 85 28.5 155t79.5 121.5t117.5 79.5t143.5 28q76 0 143 -28t117.5 -79.5t79.5 -122t29 -154.5t-29 -154.5t-79.5 -122t-117.5 -80t-143 -28.5zM441 50q67 0 123 25t96.5 70t62.5 103.5t22 124.5q0 65 -22 123.5
t-62.5 103.5t-96 70.5t-123.5 25.5t-123.5 -25.5t-96 -70.5t-62.5 -103.5t-22 -123.5q0 -66 22 -124.5t62.5 -103.5t96.5 -70t123 -25zM338 854l-111 149h77l90 -149h-56zM489 854l-111 149h77l89 -149h-55z" />
    <glyph glyph-name="uni020D" unicode="&#x20d;" horiz-adv-x="659" 
d="M330 -12q-76 0 -137 36t-96.5 99.5t-35.5 142.5t35.5 142t96 99t137.5 36q76 0 137 -36t96 -98.5t35 -142.5t-36 -143t-96.5 -99t-135.5 -36zM330 47q57 0 103.5 28.5t73.5 78.5t27 112t-27 111t-73 78t-104 29t-104.5 -28.5t-73.5 -78t-27 -111.5t27.5 -112t73.5 -78.5
t104 -28.5zM227 640l-111 149h77l90 -149h-56zM378 640l-111 149h77l89 -149h-55z" />
    <glyph glyph-name="uni020E" unicode="&#x20e;" horiz-adv-x="881" 
d="M441 -12q-77 0 -144 28.5t-117.5 80t-79 122t-28.5 154.5q0 85 28.5 155t79.5 121.5t117.5 79.5t143.5 28q76 0 143 -28t117.5 -79.5t79.5 -122t29 -154.5t-29 -154.5t-79.5 -122t-117.5 -80t-143 -28.5zM441 50q67 0 123 25t96.5 70t62.5 103.5t22 124.5q0 65 -22 123.5
t-62.5 103.5t-96 70.5t-123.5 25.5t-123.5 -25.5t-96 -70.5t-62.5 -103.5t-22 -123.5q0 -66 22 -124.5t62.5 -103.5t96.5 -70t123 -25zM293 854q0 43 17.5 75.5t50.5 51t80 18.5t79.5 -18.5t50 -51t17.5 -75.5h-59q0 44 -23 69.5t-65 25.5q-43 0 -66 -25.5t-23 -69.5h-59z
" />
    <glyph glyph-name="uni020F" unicode="&#x20f;" horiz-adv-x="659" 
d="M330 -12q-76 0 -137 36t-96.5 99.5t-35.5 142.5t35.5 142t96 99t137.5 36q76 0 137 -36t96 -98.5t35 -142.5t-36 -143t-96.5 -99t-135.5 -36zM330 47q57 0 103.5 28.5t73.5 78.5t27 112t-27 111t-73 78t-104 29t-104.5 -28.5t-73.5 -78t-27 -111.5t27.5 -112t73.5 -78.5
t104 -28.5zM182 640q0 43 17.5 75.5t50.5 51t80 18.5t79.5 -18.5t50 -51t17.5 -75.5h-59q0 44 -23 69.5t-65 25.5q-43 0 -66 -25.5t-23 -69.5h-59z" />
    <glyph glyph-name="uni0210" unicode="&#x210;" horiz-adv-x="638" 
d="M94 0v745h250q71 0 125 -28t84.5 -79t30.5 -118q0 -80 -43.5 -136.5t-116.5 -77.5l176 -306h-77l-185 326l54 -31h-233v-295h-65zM159 355h187q51 0 90 20.5t61 58t22 87.5t-22 86.5t-61 57t-90 20.5h-187v-330zM211 854l-111 149h77l90 -149h-56zM362 854l-111 149h77
l89 -149h-55z" />
    <glyph glyph-name="uni0211" unicode="&#x211;" horiz-adv-x="339" 
d="M83 0v531h60v-99l-11 9q17 45 58.5 71t98.5 26h34v-60h-41q-65 0 -102 -41.5t-37 -111.5v-325h-60zM100 640l-111 149h77l90 -149h-56zM251 640l-111 149h77l89 -149h-55z" />
    <glyph glyph-name="uni0212" unicode="&#x212;" horiz-adv-x="638" 
d="M94 0v745h250q71 0 125 -28t84.5 -79t30.5 -118q0 -80 -43.5 -136.5t-116.5 -77.5l176 -306h-77l-185 326l54 -31h-233v-295h-65zM159 355h187q51 0 90 20.5t61 58t22 87.5t-22 86.5t-61 57t-90 20.5h-187v-330zM166 854q0 43 17.5 75.5t50.5 51t80 18.5t79.5 -18.5
t50 -51t17.5 -75.5h-59q0 44 -23 69.5t-65 25.5q-43 0 -66 -25.5t-23 -69.5h-59z" />
    <glyph glyph-name="uni0213" unicode="&#x213;" horiz-adv-x="339" 
d="M83 0v531h60v-99l-11 9q17 45 58.5 71t98.5 26h34v-60h-41q-65 0 -102 -41.5t-37 -111.5v-325h-60zM55 640q0 43 17.5 75.5t50.5 51t80 18.5t79.5 -18.5t50 -51t17.5 -75.5h-59q0 44 -23 69.5t-65 25.5q-43 0 -66 -25.5t-23 -69.5h-59z" />
    <glyph glyph-name="uni0214" unicode="&#x214;" horiz-adv-x="695" 
d="M348 -12q-77 0 -135 33t-90.5 91.5t-32.5 134.5v498h65v-500q0 -58 24.5 -102.5t68 -69.5t100.5 -25t100.5 25t67.5 69.5t24 102.5v500h65v-498q0 -76 -32 -134.5t-90 -91.5t-135 -33zM245 854l-111 149h77l90 -149h-56zM396 854l-111 149h77l89 -149h-55z" />
    <glyph glyph-name="uni0215" unicode="&#x215;" 
d="M271 -12q-54 0 -99.5 25t-72.5 70.5t-27 108.5v339h60v-334q0 -47 19.5 -80.5t53 -51.5t75.5 -18q46 0 79.5 21t51.5 58.5t18 85.5v319h60v-531h-60v108l15 -5q-18 -52 -64 -83.5t-109 -31.5zM183 640l-111 149h77l90 -149h-56zM334 640l-111 149h77l89 -149h-55z" />
    <glyph glyph-name="uni0216" unicode="&#x216;" horiz-adv-x="695" 
d="M348 -12q-77 0 -135 33t-90.5 91.5t-32.5 134.5v498h65v-500q0 -58 24.5 -102.5t68 -69.5t100.5 -25t100.5 25t67.5 69.5t24 102.5v500h65v-498q0 -76 -32 -134.5t-90 -91.5t-135 -33zM200 854q0 43 17.5 75.5t50.5 51t80 18.5t79.5 -18.5t50 -51t17.5 -75.5h-59
q0 44 -23 69.5t-65 25.5q-43 0 -66 -25.5t-23 -69.5h-59z" />
    <glyph glyph-name="uni0217" unicode="&#x217;" 
d="M271 -12q-54 0 -99.5 25t-72.5 70.5t-27 108.5v339h60v-334q0 -47 19.5 -80.5t53 -51.5t75.5 -18q46 0 79.5 21t51.5 58.5t18 85.5v319h60v-531h-60v108l15 -5q-18 -52 -64 -83.5t-109 -31.5zM139 640q0 43 17.5 75.5t50.5 51t80 18.5t79.5 -18.5t50 -51t17.5 -75.5h-59
q0 44 -23 69.5t-65 25.5q-43 0 -66 -25.5t-23 -69.5h-59z" />
    <glyph glyph-name="uni0218" unicode="&#x218;" horiz-adv-x="643" 
d="M336 -12q-71 0 -127.5 27t-94 71t-53.5 95l58 21q28 -76 83.5 -116t132.5 -40q51 0 89.5 17t60.5 48t22 73q0 58 -32.5 90t-84.5 46l-136 40q-83 24 -122.5 77.5t-39.5 121.5q0 59 28.5 103.5t77.5 69.5t111 25q65 0 116.5 -24.5t87 -64t50.5 -87.5l-57 -21
q-25 69 -77 104.5t-119 35.5q-44 0 -79 -17t-55 -48t-20 -73q0 -51 29 -87t97 -57l122 -36q80 -24 123.5 -73.5t43.5 -121.5q0 -59 -30 -103.5t-83.5 -70t-121.5 -25.5zM256 -236l46 166h68l-62 -166h-52z" />
    <glyph glyph-name="uni0219" unicode="&#x219;" horiz-adv-x="508" 
d="M262 -12q-74 0 -130 37t-82 101l52 24q25 -49 67 -77.5t93 -28.5q52 0 87.5 25.5t35.5 67.5q0 26 -13.5 44t-34.5 29.5t-45 17.5l-82 23q-69 19 -101.5 56t-32.5 87q0 45 23 78.5t62 52t86 18.5q66 0 120 -34t76 -92l-54 -25q-21 45 -59 70.5t-84 25.5q-48 0 -78 -25.5
t-30 -64.5q0 -25 12 -41.5t31.5 -27t40.5 -16.5l89 -26q65 -18 100.5 -57t35.5 -92q0 -43 -24 -77t-66 -53.5t-95 -19.5zM175 -236l46 166h68l-62 -166h-52z" />
    <glyph glyph-name="uni021A" unicode="&#x21a;" horiz-adv-x="513" 
d="M225 0v685h-208v60h480v-60h-207v-685h-65zM177 -236l46 166h68l-62 -166h-52z" />
    <glyph glyph-name="uni021B" unicode="&#x21b;" horiz-adv-x="384" 
d="M276 -6q-66 0 -102 37.5t-36 109.5v333h-100v57h38q30 0 46 18t16 49v57h60v-124h116v-57h-116v-333q0 -22 6.5 -43t25.5 -34t55 -13q8 0 19.5 1t18.5 2v-54q-11 -3 -25 -4.5t-22 -1.5zM178 -236l46 166h68l-62 -166h-52z" />
    <glyph glyph-name="uni022A" unicode="&#x22a;" horiz-adv-x="881" 
d="M441 -12q-77 0 -144 28.5t-117.5 80t-79 122t-28.5 154.5q0 85 28.5 155t79.5 121.5t117.5 79.5t143.5 28q76 0 143 -28t117.5 -79.5t79.5 -122t29 -154.5t-29 -154.5t-79.5 -122t-117.5 -80t-143 -28.5zM441 50q67 0 123 25t96.5 70t62.5 103.5t22 124.5q0 65 -22 123.5
t-62.5 103.5t-96 70.5t-123.5 25.5t-123.5 -25.5t-96 -70.5t-62.5 -103.5t-22 -123.5q0 -66 22 -124.5t62.5 -103.5t96.5 -70t123 -25zM316 854v88h85v-88h-85zM481 854v88h85v-88h-85zM311 1044v55h260v-55h-260z" />
    <glyph glyph-name="uni022B" unicode="&#x22b;" horiz-adv-x="659" 
d="M330 -12q-76 0 -137 36t-96.5 99.5t-35.5 142.5t35.5 142t96 99t137.5 36q76 0 137 -36t96 -98.5t35 -142.5t-36 -143t-96.5 -99t-135.5 -36zM330 47q57 0 103.5 28.5t73.5 78.5t27 112t-27 111t-73 78t-104 29t-104.5 -28.5t-73.5 -78t-27 -111.5t27.5 -112t73.5 -78.5
t104 -28.5zM205 640v88h85v-88h-85zM370 640v88h85v-88h-85zM200 830v55h260v-55h-260z" />
    <glyph glyph-name="uni022C" unicode="&#x22c;" horiz-adv-x="881" 
d="M441 -12q-77 0 -144 28.5t-117.5 80t-79 122t-28.5 154.5q0 85 28.5 155t79.5 121.5t117.5 79.5t143.5 28q76 0 143 -28t117.5 -79.5t79.5 -122t29 -154.5t-29 -154.5t-79.5 -122t-117.5 -80t-143 -28.5zM441 50q67 0 123 25t96.5 70t62.5 103.5t22 124.5q0 65 -22 123.5
t-62.5 103.5t-96 70.5t-123.5 25.5t-123.5 -25.5t-96 -70.5t-62.5 -103.5t-22 -123.5q0 -66 22 -124.5t62.5 -103.5t96.5 -70t123 -25zM499 854q-26 0 -42 10t-27.5 23.5t-22.5 23.5t-28 10t-27.5 -14.5t-10.5 -48.5h-51q0 54 24 84.5t67 30.5q25 0 40.5 -10t27 -23.5
t23 -23.5t28.5 -10q19 0 30 16t11 47h50q0 -51 -24.5 -83t-67.5 -32zM311 1039v55h260v-55h-260z" />
    <glyph glyph-name="uni022D" unicode="&#x22d;" horiz-adv-x="659" 
d="M330 -12q-76 0 -137 36t-96.5 99.5t-35.5 142.5t35.5 142t96 99t137.5 36q76 0 137 -36t96 -98.5t35 -142.5t-36 -143t-96.5 -99t-135.5 -36zM330 47q57 0 103.5 28.5t73.5 78.5t27 112t-27 111t-73 78t-104 29t-104.5 -28.5t-73.5 -78t-27 -111.5t27.5 -112t73.5 -78.5
t104 -28.5zM388 640q-26 0 -42 10t-27.5 23.5t-22.5 23.5t-28 10t-27.5 -14.5t-10.5 -48.5h-51q0 54 24 84.5t67 30.5q25 0 40.5 -10t27 -23.5t23 -23.5t28.5 -10q19 0 30 16t11 47h50q0 -51 -24.5 -83t-67.5 -32zM200 825v55h260v-55h-260z" />
    <glyph glyph-name="uni0230" unicode="&#x230;" horiz-adv-x="881" 
d="M441 -12q-77 0 -144 28.5t-117.5 80t-79 122t-28.5 154.5q0 85 28.5 155t79.5 121.5t117.5 79.5t143.5 28q76 0 143 -28t117.5 -79.5t79.5 -122t29 -154.5t-29 -154.5t-79.5 -122t-117.5 -80t-143 -28.5zM441 50q67 0 123 25t96.5 70t62.5 103.5t22 124.5q0 65 -22 123.5
t-62.5 103.5t-96 70.5t-123.5 25.5t-123.5 -25.5t-96 -70.5t-62.5 -103.5t-22 -123.5q0 -66 22 -124.5t62.5 -103.5t96.5 -70t123 -25zM399 854v88h85v-88h-85zM311 1044v55h260v-55h-260z" />
    <glyph glyph-name="uni0231" unicode="&#x231;" horiz-adv-x="659" 
d="M330 -12q-76 0 -137 36t-96.5 99.5t-35.5 142.5t35.5 142t96 99t137.5 36q76 0 137 -36t96 -98.5t35 -142.5t-36 -143t-96.5 -99t-135.5 -36zM330 47q57 0 103.5 28.5t73.5 78.5t27 112t-27 111t-73 78t-104 29t-104.5 -28.5t-73.5 -78t-27 -111.5t27.5 -112t73.5 -78.5
t104 -28.5zM288 640v88h85v-88h-85zM200 830v55h260v-55h-260z" />
    <glyph glyph-name="uni0232" unicode="&#x232;" horiz-adv-x="624" 
d="M280 0v340l-263 405h73l237 -361h-29l236 361h73l-262 -405v-340h-65zM182 874v55h260v-55h-260z" />
    <glyph glyph-name="uni0233" unicode="&#x233;" horiz-adv-x="533" 
d="M85 -220q-14 0 -30.5 2.5t-31.5 7.5v56q12 -3 27.5 -5t28.5 -2q49 1 77 24t51 76l38 89v-56l-225 559h66l193 -482h-24l194 482h67l-248 -605q-14 -33 -37 -67t-58.5 -56.5t-87.5 -22.5zM137 660v55h260v-55h-260z" />
    <glyph glyph-name="uni0237" unicode="&#x237;" horiz-adv-x="225" 
d="M-20 -220q-10 0 -21 1.5t-19 3.5v55q19 -3 39 -3q47 0 75.5 27t28.5 80v587h60v-587q0 -53 -21.5 -89.5t-58 -55.5t-83.5 -19z" />
    <glyph glyph-name="uni0259" unicode="&#x259;" horiz-adv-x="621" 
d="M304 -12q-54 0 -99 20.5t-77 55.5t-49.5 80.5t-17.5 96.5q0 10 1 20.5t2 22.5h461v-55h-426l26 22q-5 -58 18 -105t65.5 -74.5t95.5 -27.5q55 0 100 28.5t71 78.5t23 114q3 66 -24 116t-74.5 78t-104.5 28t-100 -27.5t-70 -72.5l-51 27q18 38 50.5 67t76.5 45.5t94 16.5
q75 0 135 -36.5t95.5 -99t35.5 -142.5q0 -79 -34 -141.5t-92 -99t-131 -36.5z" />
    <glyph glyph-name="circumflex" unicode="&#x2c6;" horiz-adv-x="477" 
d="M103 640l123 150h63l124 -150h-70l-85 103l-85 -103h-70z" />
    <glyph glyph-name="caron" unicode="&#x2c7;" horiz-adv-x="477" 
d="M226 640l-123 150h70l85 -102l85 102h70l-124 -150h-63z" />
    <glyph glyph-name="breve" unicode="&#x2d8;" horiz-adv-x="461" 
d="M251 640q-47 0 -80 18.5t-50.5 51.5t-17.5 75h59q0 -43 23 -69t66 -26q42 0 65 26t23 69h59q0 -42 -17.5 -75t-50 -51.5t-79.5 -18.5z" />
    <glyph glyph-name="dotaccent" unicode="&#x2d9;" horiz-adv-x="264" 
d="M103 640v88h85v-88h-85z" />
    <glyph glyph-name="ring" unicode="&#x2da;" horiz-adv-x="376" 
d="M205 620q-41 0 -71.5 27t-30.5 74q0 46 30 73.5t72 27.5t72.5 -27.5t30.5 -73.5q0 -47 -30.5 -74t-72.5 -27zM205 665q23 0 39 15t16 40q0 26 -16 41t-39 15q-22 0 -38 -15t-16 -40q0 -26 16 -41t38 -15z" />
    <glyph glyph-name="ogonek" unicode="&#x2db;" horiz-adv-x="382" 
d="M209 -225q-46 0 -76 25t-30 68q0 37 18.5 67.5t48 52.5t62.5 30h24v-18q-22 -7 -44 -25.5t-36.5 -44t-14.5 -55.5q0 -23 14.5 -37.5t39.5 -14.5q20 0 40.5 8.5t35.5 24.5l18 -43q-18 -18 -44.5 -28t-55.5 -10z" />
    <glyph glyph-name="tilde" unicode="&#x2dc;" horiz-adv-x="471" 
d="M312 640q-26 0 -42 10t-27.5 23.5t-22.5 23.5t-28 10t-27.5 -14.5t-10.5 -48.5h-51q0 54 24 84.5t67 30.5q25 0 40.5 -10t27 -23.5t23 -23.5t28.5 -10q19 0 30 16t11 47h50q0 -51 -24.5 -83t-67.5 -32z" />
    <glyph glyph-name="hungarumlaut" unicode="&#x2dd;" horiz-adv-x="471" 
d="M103 640l55 150h77l-76 -150h-56zM254 640l54 150h77l-76 -150h-55z" />
    <glyph glyph-name="gravecomb" unicode="&#x300;" horiz-adv-x="0" 
d="M214 640l-111 150h82l90 -150h-61z" />
    <glyph glyph-name="acutecomb" unicode="&#x301;" horiz-adv-x="0" 
d="M103 640l90 150h82l-111 -150h-61z" />
    <glyph glyph-name="uni0302" unicode="&#x302;" horiz-adv-x="0" 
d="M103 640l123 150h63l124 -150h-70l-85 103l-85 -103h-70z" />
    <glyph glyph-name="tildecomb" unicode="&#x303;" horiz-adv-x="0" 
d="M312 640q-26 0 -42 10t-27.5 23.5t-22.5 23.5t-28 10t-27.5 -14.5t-10.5 -48.5h-51q0 54 24 84.5t67 30.5q25 0 40.5 -10t27 -23.5t23 -23.5t28.5 -10q19 0 30 16t11 47h50q0 -51 -24.5 -83t-67.5 -32z" />
    <glyph glyph-name="uni0304" unicode="&#x304;" horiz-adv-x="0" 
d="M103 660v55h260v-55h-260z" />
    <glyph glyph-name="uni0306" unicode="&#x306;" horiz-adv-x="0" 
d="M251 640q-47 0 -80 18.5t-50.5 51.5t-17.5 75h59q0 -43 23 -69t66 -26q42 0 65 26t23 69h59q0 -42 -17.5 -75t-50 -51.5t-79.5 -18.5z" />
    <glyph glyph-name="uni0307" unicode="&#x307;" horiz-adv-x="0" 
d="M103 640v88h85v-88h-85z" />
    <glyph glyph-name="uni0308" unicode="&#x308;" horiz-adv-x="0" 
d="M103 640v88h85v-88h-85zM268 640v88h85v-88h-85z" />
    <glyph glyph-name="hookabovecomb" unicode="&#x309;" horiz-adv-x="0" 
d="M198 600l-27 36q24 8 35.5 23.5t11.5 34.5t-14.5 32t-38.5 13q-12 0 -24.5 -2.5t-27.5 -10.5l-10 41q16 10 34.5 14t34.5 4q46 0 73.5 -24.5t27.5 -63.5q0 -30 -20.5 -57t-54.5 -40z" />
    <glyph glyph-name="uni030A" unicode="&#x30a;" horiz-adv-x="0" 
d="M205 620q-41 0 -71.5 27t-30.5 74q0 46 30 73.5t72 27.5t72.5 -27.5t30.5 -73.5q0 -47 -30.5 -74t-72.5 -27zM205 665q23 0 39 15t16 40q0 26 -16 41t-39 15q-22 0 -38 -15t-16 -40q0 -26 16 -41t38 -15z" />
    <glyph glyph-name="uni030B" unicode="&#x30b;" horiz-adv-x="0" 
d="M103 640l55 150h77l-76 -150h-56zM254 640l54 150h77l-76 -150h-55z" />
    <glyph glyph-name="uni030C" unicode="&#x30c;" horiz-adv-x="0" 
d="M226 640l-123 150h70l85 -102l85 102h70l-124 -150h-63z" />
    <glyph glyph-name="uni030F" unicode="&#x30f;" horiz-adv-x="0" 
d="M214 640l-111 149h77l90 -149h-56zM365 640l-111 149h77l89 -149h-55z" />
    <glyph glyph-name="uni0311" unicode="&#x311;" horiz-adv-x="0" 
d="M103 640q0 43 17.5 75.5t50.5 51t80 18.5t79.5 -18.5t50 -51t17.5 -75.5h-59q0 44 -23 69.5t-65 25.5q-43 0 -66 -25.5t-23 -69.5h-59z" />
    <glyph glyph-name="uni0312" unicode="&#x312;" horiz-adv-x="0" 
d="M103 600l62 167h52l-46 -167h-68z" />
    <glyph glyph-name="uni031B" unicode="&#x31b;" horiz-adv-x="0" 
d="M103 640v51h13q15 0 26.5 5t18.5 17t7 32q0 21 -6 41t-15 40h60q8 -21 15 -42.5t7 -44.5q0 -50 -29.5 -74.5t-76.5 -24.5h-20z" />
    <glyph glyph-name="dotbelowcomb" unicode="&#x323;" horiz-adv-x="0" 
d="M103 -177v87h85v-87h-85z" />
    <glyph glyph-name="uni0324" unicode="&#x324;" horiz-adv-x="0" 
d="M103 -177v87h85v-87h-85zM268 -177v87h85v-87h-85z" />
    <glyph glyph-name="uni0326" unicode="&#x326;" horiz-adv-x="0" 
d="M103 -236l46 166h68l-62 -166h-52z" />
    <glyph glyph-name="uni0327" unicode="&#x327;" horiz-adv-x="0" 
d="M203 -225q-28 0 -55 10t-45 28l18 43q16 -16 36.5 -24.5t39.5 -8.5q24 0 38 12.5t14 30.5q0 26 -25.5 40t-75.5 19l25 85h48l-14 -53q47 -9 73 -33.5t26 -58.5q0 -40 -29 -65t-74 -25z" />
    <glyph glyph-name="uni0328" unicode="&#x328;" horiz-adv-x="0" 
d="M209 -225q-46 0 -76 25t-30 68q0 37 18.5 67.5t48 52.5t62.5 30h24v-18q-22 -7 -44 -25.5t-36.5 -44t-14.5 -55.5q0 -23 14.5 -37.5t39.5 -14.5q20 0 40.5 8.5t35.5 24.5l18 -43q-18 -18 -44.5 -28t-55.5 -10z" />
    <glyph glyph-name="uni032E" unicode="&#x32e;" horiz-adv-x="0" 
d="M251 -235q-47 0 -80 18.5t-50.5 51.5t-17.5 75h59q0 -43 23 -69t66 -26q42 0 65 26t23 69h59q0 -42 -17.5 -75t-50 -51.5t-79.5 -18.5z" />
    <glyph glyph-name="uni0331" unicode="&#x331;" horiz-adv-x="0" 
d="M103 -155v55h260v-55h-260z" />
    <glyph glyph-name="uni0394" unicode="&#x394;" horiz-adv-x="604" 
d="M17 0v60l252 685h67l252 -685v-60h-571zM74 26l-24 34h505l-24 -34l-241 669h24z" />
    <glyph glyph-name="uni03A9" unicode="&#x3a9;" horiz-adv-x="881" 
d="M72 0v60h196l-17 -12q-80 47 -129.5 131.5t-49.5 193.5q0 85 28.5 155t79.5 121.5t117.5 79.5t143.5 28q76 0 143 -28t117.5 -79.5t79.5 -121.5t29 -155q0 -109 -49.5 -193.5t-130.5 -131.5l-16 12h196v-60h-271v60q63 23 109 69t71.5 109t25.5 135q0 65 -22 123.5
t-62.5 103.5t-96 70.5t-123.5 25.5t-123.5 -25.5t-96 -70.5t-62.5 -103.5t-22 -123.5q0 -72 25.5 -135t71.5 -109t109 -69v-60h-271z" />
    <glyph glyph-name="pi" unicode="&#x3c0;" horiz-adv-x="636" 
d="M138 0v474h-100v57h560v-57h-100v-474h-60v474h-240v-474h-60z" />
    <glyph glyph-name="uni0E3F" unicode="&#xe3f;" horiz-adv-x="694" 
d="M94 0v745h307q61 0 106.5 -24t71 -66t25.5 -97q0 -58 -30 -103t-84 -65v17q44 -14 76.5 -42.5t50 -67.5t17.5 -84q0 -97 -61.5 -155t-171.5 -58h-307zM159 60h238q79 0 125.5 41t46.5 111q0 69 -45.5 110.5t-121.5 41.5h-243v-304zM159 423h236q65 0 104.5 37t39.5 97
t-38.5 94t-105.5 34h-236v-262zM308 -100v945h57v-945h-57z" />
    <glyph glyph-name="uni1E08" unicode="&#x1e08;" horiz-adv-x="785" 
d="M429 -12q-77 0 -142 28.5t-113.5 80.5t-75 122t-26.5 154q0 83 26.5 153.5t75 122t113.5 80t142 28.5q75 0 135 -27t101 -69t59 -87l-61 -27q-30 67 -90.5 108t-143.5 41q-85 0 -151.5 -41t-103.5 -113.5t-37 -168.5t37 -169t103.5 -113.5t151.5 -40.5q83 0 143.5 40.5
t90.5 107.5l61 -27q-18 -44 -59 -86t-101 -69.5t-135 -27.5zM439 -225q-28 0 -55 10t-45 28l18 43q16 -16 36.5 -24.5t39.5 -8.5q24 0 38 12.5t14 30.5q0 26 -25.5 40t-75.5 19l25 85h48l-14 -53q47 -9 73 -33.5t26 -58.5q0 -40 -29 -65t-74 -25zM399 854l90 150h82
l-111 -150h-61z" />
    <glyph glyph-name="uni1E09" unicode="&#x1e09;" horiz-adv-x="604" 
d="M325 -12q-76 0 -135.5 36.5t-94 99.5t-34.5 142q0 80 34.5 142.5t94 98.5t135.5 36q50 0 92.5 -17t75.5 -46t50 -67l-53 -28q-24 46 -67 73t-98 27q-57 0 -102.5 -28t-72.5 -77.5t-27 -113.5t27 -113.5t72.5 -77.5t102.5 -28q55 0 98 27t67 74l53 -29q-17 -37 -50 -66.5
t-75.5 -47t-92.5 -17.5zM335 -225q-28 0 -55 10t-45 28l18 43q16 -16 36.5 -24.5t39.5 -8.5q24 0 38 12.5t14 30.5q0 26 -25.5 40t-75.5 19l25 85h48l-14 -53q47 -9 73 -33.5t26 -58.5q0 -40 -29 -65t-74 -25zM295 640l90 150h82l-111 -150h-61z" />
    <glyph glyph-name="uni1E0C" unicode="&#x1e0c;" horiz-adv-x="743" 
d="M94 0v745h241q110 0 190.5 -45.5t124.5 -129t44 -197.5q0 -113 -44 -197t-124.5 -130t-190.5 -46h-241zM159 60h175q89 0 154.5 39t102 109.5t36.5 164.5q0 95 -36.5 165t-102.5 108.5t-154 38.5h-175v-625zM340 -177v87h85v-87h-85z" />
    <glyph glyph-name="uni1E0D" unicode="&#x1e0d;" horiz-adv-x="671" 
d="M322 -12q-74 0 -133.5 36.5t-93.5 99.5t-34 142t34 142t93.5 99t133.5 36q73 0 130 -34.5t86 -92.5l-10 -19v360h60v-757h-60v135l10 -14q-28 -62 -85.5 -97.5t-130.5 -35.5zM324 48q58 0 103.5 28.5t72.5 78t27 111.5t-27 111t-72.5 77.5t-103.5 28.5q-57 0 -102 -28.5
t-71 -77.5t-26 -111t26 -111.5t71 -78t102 -28.5zM293 -177v87h85v-87h-85z" />
    <glyph glyph-name="uni1E0E" unicode="&#x1e0e;" horiz-adv-x="743" 
d="M94 0v745h241q110 0 190.5 -45.5t124.5 -129t44 -197.5q0 -113 -44 -197t-124.5 -130t-190.5 -46h-241zM159 60h175q89 0 154.5 39t102 109.5t36.5 164.5q0 95 -36.5 165t-102.5 108.5t-154 38.5h-175v-625zM253 -155v55h260v-55h-260z" />
    <glyph glyph-name="uni1E0F" unicode="&#x1e0f;" horiz-adv-x="671" 
d="M322 -12q-74 0 -133.5 36.5t-93.5 99.5t-34 142t34 142t93.5 99t133.5 36q73 0 130 -34.5t86 -92.5l-10 -19v360h60v-757h-60v135l10 -14q-28 -62 -85.5 -97.5t-130.5 -35.5zM324 48q58 0 103.5 28.5t72.5 78t27 111.5t-27 111t-72.5 77.5t-103.5 28.5q-57 0 -102 -28.5
t-71 -77.5t-26 -111t26 -111.5t71 -78t102 -28.5zM206 -155v55h260v-55h-260z" />
    <glyph glyph-name="uni1E14" unicode="&#x1e14;" horiz-adv-x="613" 
d="M94 0v745h470v-60h-405v-281h385v-60h-385v-284h405v-60h-470zM199 874v55h260v-55h-260zM299 1009l-111 150h82l90 -150h-61z" />
    <glyph glyph-name="uni1E15" unicode="&#x1e15;" horiz-adv-x="621" 
d="M326 -12q-75 0 -135 36.5t-95 100t-35 142.5t34 141.5t92 98.5t130 36q55 0 99.5 -20t77 -55.5t50 -81t17.5 -95.5q0 -10 -1 -21t-3 -23h-461v55h427l-27 -21q6 58 -17 104.5t-65.5 74t-96.5 27.5t-99 -28.5t-71 -78t-24 -114.5q-2 -65 25 -115t74 -78.5t104 -28.5
q58 0 101 27.5t70 73.5l51 -27q-18 -37 -51 -66.5t-76.5 -46.5t-94.5 -17zM181 660v55h260v-55h-260zM281 795l-111 150h82l90 -150h-61z" />
    <glyph glyph-name="uni1E16" unicode="&#x1e16;" horiz-adv-x="613" 
d="M94 0v745h470v-60h-405v-281h385v-60h-385v-284h405v-60h-470zM293 1009l89 150h82l-111 -150h-60zM193 874v55h260v-55h-260z" />
    <glyph glyph-name="uni1E17" unicode="&#x1e17;" horiz-adv-x="621" 
d="M326 -12q-75 0 -135 36.5t-95 100t-35 142.5t34 141.5t92 98.5t130 36q55 0 99.5 -20t77 -55.5t50 -81t17.5 -95.5q0 -10 -1 -21t-3 -23h-461v55h427l-27 -21q6 58 -17 104.5t-65.5 74t-96.5 27.5t-99 -28.5t-71 -78t-24 -114.5q-2 -65 25 -115t74 -78.5t104 -28.5
q58 0 101 27.5t70 73.5l51 -27q-18 -37 -51 -66.5t-76.5 -46.5t-94.5 -17zM275 795l89 150h82l-111 -150h-60zM175 660v55h260v-55h-260z" />
    <glyph glyph-name="uni1E1C" unicode="&#x1e1c;" horiz-adv-x="613" 
d="M94 0v745h470v-60h-405v-281h385v-60h-385v-284h405v-60h-470zM339 -225q-28 0 -55 10t-45 28l18 43q16 -16 36.5 -24.5t39.5 -8.5q24 0 38 12.5t14 30.5q0 26 -25.5 40t-75.5 19l25 85h48l-14 -53q47 -9 73 -33.5t26 -58.5q0 -40 -29 -65t-74 -25zM329 854
q-47 0 -80 18.5t-50.5 51.5t-17.5 75h59q0 -43 23 -69t66 -26q42 0 65 26t23 69h59q0 -42 -17.5 -75t-50 -51.5t-79.5 -18.5z" />
    <glyph glyph-name="uni1E1D" unicode="&#x1e1d;" horiz-adv-x="621" 
d="M326 -12q-75 0 -135 36.5t-95 100t-35 142.5t34 141.5t92 98.5t130 36q55 0 99.5 -20t77 -55.5t50 -81t17.5 -95.5q0 -10 -1 -21t-3 -23h-461v55h427l-27 -21q6 58 -17 104.5t-65.5 74t-96.5 27.5t-99 -28.5t-71 -78t-24 -114.5q-2 -65 25 -115t74 -78.5t104 -28.5
q58 0 101 27.5t70 73.5l51 -27q-18 -37 -51 -66.5t-76.5 -46.5t-94.5 -17zM321 -225q-28 0 -55 10t-45 28l18 43q16 -16 36.5 -24.5t39.5 -8.5q24 0 38 12.5t14 30.5q0 26 -25.5 40t-75.5 19l25 85h48l-14 -53q47 -9 73 -33.5t26 -58.5q0 -40 -29 -65t-74 -25zM312 640
q-47 0 -80 18.5t-50.5 51.5t-17.5 75h59q0 -43 23 -69t66 -26q42 0 65 26t23 69h59q0 -42 -17.5 -75t-50 -51.5t-79.5 -18.5z" />
    <glyph glyph-name="uni1E20" unicode="&#x1e20;" horiz-adv-x="828" 
d="M431 -12q-79 0 -144.5 28.5t-113.5 80t-74.5 121.5t-26.5 154t26.5 154t75 122t114 80.5t143.5 28.5q77 0 137.5 -27t102 -69t59.5 -87l-60 -28q-30 69 -91.5 109.5t-147.5 40.5q-85 0 -152 -41t-104.5 -113.5t-37.5 -169.5q0 -96 37.5 -169t104 -113t152.5 -40
q77 0 138.5 34.5t97 94t35.5 136.5v35l29 -31h-300v58h336v-56q0 -70 -25.5 -130.5t-70.5 -106t-106.5 -71t-133.5 -25.5zM284 874v55h260v-55h-260z" />
    <glyph glyph-name="uni1E21" unicode="&#x1e21;" horiz-adv-x="663" 
d="M331 -220q-53 0 -98 17t-78 46t-52 66l54 29q22 -43 66.5 -71t106.5 -28q50 0 93 19.5t70.5 60t27.5 101.5v135l11 -14q-28 -62 -85 -97.5t-127 -35.5q-74 0 -133 36t-92.5 97t-33.5 135t33.5 134.5t92 96.5t133.5 36q70 0 126 -34.5t86 -92.5l-11 -19v134h60v-511
q0 -69 -32 -123.5t-88.5 -85.5t-129.5 -31zM322 68q56 0 100.5 28t70.5 75.5t26 104.5t-26 104t-70.5 75t-100.5 28q-57 0 -102 -28t-70 -75t-25 -104t25 -104.5t69.5 -75.5t102.5 -28zM202 660v55h260v-55h-260z" />
    <glyph glyph-name="uni1E24" unicode="&#x1e24;" horiz-adv-x="737" 
d="M94 0v745h65v-339h420v339h65v-745h-65v346h-420v-346h-65zM326 -177v87h85v-87h-85z" />
    <glyph glyph-name="uni1E25" unicode="&#x1e25;" 
d="M83 0v757h60v-333l-15 4q18 53 64.5 84t108.5 31q55 0 100 -25t72 -69.5t27 -101.5v-347h-60v330q0 48 -19.5 82.5t-53 53t-75.5 18.5q-45 0 -78.5 -21t-52 -58t-18.5 -85v-320h-60zM244 -177v87h85v-87h-85z" />
    <glyph glyph-name="uni1E2A" unicode="&#x1e2a;" horiz-adv-x="737" 
d="M94 0v745h65v-339h420v339h65v-745h-65v346h-420v-346h-65zM369 -235q-47 0 -80 18.5t-50.5 51.5t-17.5 75h59q0 -43 23 -69t66 -26q42 0 65 26t23 69h59q0 -42 -17.5 -75t-50 -51.5t-79.5 -18.5z" />
    <glyph glyph-name="uni1E2B" unicode="&#x1e2b;" 
d="M83 0v757h60v-333l-15 4q18 53 64.5 84t108.5 31q55 0 100 -25t72 -69.5t27 -101.5v-347h-60v330q0 48 -19.5 82.5t-53 53t-75.5 18.5q-45 0 -78.5 -21t-52 -58t-18.5 -85v-320h-60zM287 -235q-47 0 -80 18.5t-50.5 51.5t-17.5 75h59q0 -43 23 -69t66 -26q42 0 65 26
t23 69h59q0 -42 -17.5 -75t-50 -51.5t-79.5 -18.5z" />
    <glyph glyph-name="uni1E2E" unicode="&#x1e2e;" horiz-adv-x="252" 
d="M94 0v745h65v-745h-65zM87 1009l90 150h82l-111 -150h-61zM-5 854v88h85v-88h-85zM160 854v88h85v-88h-85z" />
    <glyph glyph-name="uni1E2F" unicode="&#x1e2f;" horiz-adv-x="192" 
d="M66 0v531h60v-531h-60zM56 795l90 150h82l-111 -150h-61zM-36 640v88h85v-88h-85zM129 640v88h85v-88h-85z" />
    <glyph glyph-name="uni1E36" unicode="&#x1e36;" horiz-adv-x="532" 
d="M94 0v745h65v-685h335v-60h-400zM251 -177v87h85v-87h-85z" />
    <glyph glyph-name="uni1E37" unicode="&#x1e37;" horiz-adv-x="225" 
d="M83 0v757h60v-757h-60zM71 -177v87h85v-87h-85z" />
    <glyph glyph-name="uni1E3A" unicode="&#x1e3a;" horiz-adv-x="532" 
d="M94 0v745h65v-685h335v-60h-400zM164 -155v55h260v-55h-260z" />
    <glyph glyph-name="uni1E3B" unicode="&#x1e3b;" horiz-adv-x="225" 
d="M83 0v757h60v-757h-60zM-17 -155v55h260v-55h-260z" />
    <glyph glyph-name="uni1E42" unicode="&#x1e42;" horiz-adv-x="827" 
d="M94 0v745h55l278 -414h-27l279 414h55v-745h-65v650l16 -9l-270 -403h-3l-270 403l17 9v-650h-65zM371 -177v87h85v-87h-85z" />
    <glyph glyph-name="uni1E43" unicode="&#x1e43;" horiz-adv-x="909" 
d="M83 0v531h60v-107l-11 15q20 48 64.5 76t99.5 28q62 0 113 -35.5t71 -94.5l-19 -1q17 61 67.5 96t112.5 35q53 0 97.5 -25t72 -69.5t27.5 -101.5v-347h-60v330q0 48 -19.5 82.5t-51.5 53t-72 18.5q-43 0 -75.5 -21t-51 -58t-18.5 -85v-320h-60v330q0 48 -19 82.5
t-51.5 53t-72.5 18.5q-43 0 -75.5 -21t-50.5 -58t-18 -85v-320h-60zM412 -177v87h85v-87h-85z" />
    <glyph glyph-name="uni1E44" unicode="&#x1e44;" horiz-adv-x="737" 
d="M94 0v745h55l451 -647h-21v647h65v-745h-55l-453 651h23v-651h-65zM326 854v88h85v-88h-85z" />
    <glyph glyph-name="uni1E45" unicode="&#x1e45;" 
d="M83 0v531h60v-107l-15 4q18 53 64.5 84t108.5 31q55 0 100 -25t72 -69.5t27 -101.5v-347h-60v330q0 48 -19 82.5t-52.5 53t-76.5 18.5q-45 0 -79 -21t-52 -58t-18 -85v-320h-60zM244 640v88h85v-88h-85z" />
    <glyph glyph-name="uni1E46" unicode="&#x1e46;" horiz-adv-x="737" 
d="M94 0v745h55l451 -647h-21v647h65v-745h-55l-453 651h23v-651h-65zM326 -177v87h85v-87h-85z" />
    <glyph glyph-name="uni1E47" unicode="&#x1e47;" 
d="M83 0v531h60v-107l-15 4q18 53 64.5 84t108.5 31q55 0 100 -25t72 -69.5t27 -101.5v-347h-60v330q0 48 -19 82.5t-52.5 53t-76.5 18.5q-45 0 -79 -21t-52 -58t-18 -85v-320h-60zM244 -177v87h85v-87h-85z" />
    <glyph glyph-name="uni1E48" unicode="&#x1e48;" horiz-adv-x="737" 
d="M94 0v745h55l451 -647h-21v647h65v-745h-55l-453 651h23v-651h-65zM239 -155v55h260v-55h-260z" />
    <glyph glyph-name="uni1E49" unicode="&#x1e49;" 
d="M83 0v531h60v-107l-15 4q18 53 64.5 84t108.5 31q55 0 100 -25t72 -69.5t27 -101.5v-347h-60v330q0 48 -19 82.5t-52.5 53t-76.5 18.5q-45 0 -79 -21t-52 -58t-18 -85v-320h-60zM156 -155v55h260v-55h-260z" />
    <glyph glyph-name="uni1E4C" unicode="&#x1e4c;" horiz-adv-x="881" 
d="M441 -12q-77 0 -144 28.5t-117.5 80t-79 122t-28.5 154.5q0 85 28.5 155t79.5 121.5t117.5 79.5t143.5 28q76 0 143 -28t117.5 -79.5t79.5 -122t29 -154.5t-29 -154.5t-79.5 -122t-117.5 -80t-143 -28.5zM441 50q67 0 123 25t96.5 70t62.5 103.5t22 124.5q0 65 -22 123.5
t-62.5 103.5t-96 70.5t-123.5 25.5t-123.5 -25.5t-96 -70.5t-62.5 -103.5t-22 -123.5q0 -66 22 -124.5t62.5 -103.5t96.5 -70t123 -25zM499 854q-26 0 -42 10t-27.5 23.5t-22.5 23.5t-28 10t-27.5 -14.5t-10.5 -48.5h-51q0 54 24 84.5t67 30.5q25 0 40.5 -10t27 -23.5
t23 -23.5t28.5 -10q19 0 30 16t11 47h50q0 -51 -24.5 -83t-67.5 -32zM410 1009l90 150h82l-111 -150h-61z" />
    <glyph glyph-name="uni1E4D" unicode="&#x1e4d;" horiz-adv-x="659" 
d="M330 -12q-76 0 -137 36t-96.5 99.5t-35.5 142.5t35.5 142t96 99t137.5 36q76 0 137 -36t96 -98.5t35 -142.5t-36 -143t-96.5 -99t-135.5 -36zM330 47q57 0 103.5 28.5t73.5 78.5t27 112t-27 111t-73 78t-104 29t-104.5 -28.5t-73.5 -78t-27 -111.5t27.5 -112t73.5 -78.5
t104 -28.5zM388 640q-26 0 -42 10t-27.5 23.5t-22.5 23.5t-28 10t-27.5 -14.5t-10.5 -48.5h-51q0 54 24 84.5t67 30.5q25 0 40.5 -10t27 -23.5t23 -23.5t28.5 -10q19 0 30 16t11 47h50q0 -51 -24.5 -83t-67.5 -32zM299 795l90 150h82l-111 -150h-61z" />
    <glyph glyph-name="uni1E4E" unicode="&#x1e4e;" horiz-adv-x="881" 
d="M441 -12q-77 0 -144 28.5t-117.5 80t-79 122t-28.5 154.5q0 85 28.5 155t79.5 121.5t117.5 79.5t143.5 28q76 0 143 -28t117.5 -79.5t79.5 -122t29 -154.5t-29 -154.5t-79.5 -122t-117.5 -80t-143 -28.5zM441 50q67 0 123 25t96.5 70t62.5 103.5t22 124.5q0 65 -22 123.5
t-62.5 103.5t-96 70.5t-123.5 25.5t-123.5 -25.5t-96 -70.5t-62.5 -103.5t-22 -123.5q0 -66 22 -124.5t62.5 -103.5t96.5 -70t123 -25zM499 854q-26 0 -42 10t-27.5 23.5t-22.5 23.5t-28 10t-27.5 -14.5t-10.5 -48.5h-51q0 54 24 84.5t67 30.5q25 0 40.5 -10t27 -23.5
t23 -23.5t28.5 -10q19 0 30 16t11 47h50q0 -51 -24.5 -83t-67.5 -32zM316 1037v87h85v-87h-85zM481 1037v87h85v-87h-85z" />
    <glyph glyph-name="uni1E4F" unicode="&#x1e4f;" horiz-adv-x="659" 
d="M330 -12q-76 0 -137 36t-96.5 99.5t-35.5 142.5t35.5 142t96 99t137.5 36q76 0 137 -36t96 -98.5t35 -142.5t-36 -143t-96.5 -99t-135.5 -36zM330 47q57 0 103.5 28.5t73.5 78.5t27 112t-27 111t-73 78t-104 29t-104.5 -28.5t-73.5 -78t-27 -111.5t27.5 -112t73.5 -78.5
t104 -28.5zM388 640q-26 0 -42 10t-27.5 23.5t-22.5 23.5t-28 10t-27.5 -14.5t-10.5 -48.5h-51q0 54 24 84.5t67 30.5q25 0 40.5 -10t27 -23.5t23 -23.5t28.5 -10q19 0 30 16t11 47h50q0 -51 -24.5 -83t-67.5 -32zM205 823v87h85v-87h-85zM370 823v87h85v-87h-85z" />
    <glyph glyph-name="uni1E50" unicode="&#x1e50;" horiz-adv-x="881" 
d="M441 -12q-77 0 -144 28.5t-117.5 80t-79 122t-28.5 154.5q0 85 28.5 155t79.5 121.5t117.5 79.5t143.5 28q76 0 143 -28t117.5 -79.5t79.5 -122t29 -154.5t-29 -154.5t-79.5 -122t-117.5 -80t-143 -28.5zM441 50q67 0 123 25t96.5 70t62.5 103.5t22 124.5q0 65 -22 123.5
t-62.5 103.5t-96 70.5t-123.5 25.5t-123.5 -25.5t-96 -70.5t-62.5 -103.5t-22 -123.5q0 -66 22 -124.5t62.5 -103.5t96.5 -70t123 -25zM311 874v55h260v-55h-260zM411 1009l-111 150h82l90 -150h-61z" />
    <glyph glyph-name="uni1E51" unicode="&#x1e51;" horiz-adv-x="659" 
d="M330 -12q-76 0 -137 36t-96.5 99.5t-35.5 142.5t35.5 142t96 99t137.5 36q76 0 137 -36t96 -98.5t35 -142.5t-36 -143t-96.5 -99t-135.5 -36zM330 47q57 0 103.5 28.5t73.5 78.5t27 112t-27 111t-73 78t-104 29t-104.5 -28.5t-73.5 -78t-27 -111.5t27.5 -112t73.5 -78.5
t104 -28.5zM200 660v55h260v-55h-260zM300 795l-111 150h82l90 -150h-61z" />
    <glyph glyph-name="uni1E52" unicode="&#x1e52;" horiz-adv-x="881" 
d="M441 -12q-77 0 -144 28.5t-117.5 80t-79 122t-28.5 154.5q0 85 28.5 155t79.5 121.5t117.5 79.5t143.5 28q76 0 143 -28t117.5 -79.5t79.5 -122t29 -154.5t-29 -154.5t-79.5 -122t-117.5 -80t-143 -28.5zM441 50q67 0 123 25t96.5 70t62.5 103.5t22 124.5q0 65 -22 123.5
t-62.5 103.5t-96 70.5t-123.5 25.5t-123.5 -25.5t-96 -70.5t-62.5 -103.5t-22 -123.5q0 -66 22 -124.5t62.5 -103.5t96.5 -70t123 -25zM405 1009l89 150h82l-111 -150h-60zM305 874v55h260v-55h-260z" />
    <glyph glyph-name="uni1E53" unicode="&#x1e53;" horiz-adv-x="659" 
d="M330 -12q-76 0 -137 36t-96.5 99.5t-35.5 142.5t35.5 142t96 99t137.5 36q76 0 137 -36t96 -98.5t35 -142.5t-36 -143t-96.5 -99t-135.5 -36zM330 47q57 0 103.5 28.5t73.5 78.5t27 112t-27 111t-73 78t-104 29t-104.5 -28.5t-73.5 -78t-27 -111.5t27.5 -112t73.5 -78.5
t104 -28.5zM294 795l89 150h82l-111 -150h-60zM194 660v55h260v-55h-260z" />
    <glyph glyph-name="uni1E5A" unicode="&#x1e5a;" horiz-adv-x="638" 
d="M94 0v745h250q71 0 125 -28t84.5 -79t30.5 -118q0 -80 -43.5 -136.5t-116.5 -77.5l176 -306h-77l-185 326l54 -31h-233v-295h-65zM159 355h187q51 0 90 20.5t61 58t22 87.5t-22 86.5t-61 57t-90 20.5h-187v-330zM271 -177v87h85v-87h-85z" />
    <glyph glyph-name="uni1E5B" unicode="&#x1e5b;" horiz-adv-x="339" 
d="M83 0v531h60v-99l-11 9q17 45 58.5 71t98.5 26h34v-60h-41q-65 0 -102 -41.5t-37 -111.5v-325h-60zM71 -177v87h85v-87h-85z" />
    <glyph glyph-name="uni1E5E" unicode="&#x1e5e;" horiz-adv-x="638" 
d="M94 0v745h250q71 0 125 -28t84.5 -79t30.5 -118q0 -80 -43.5 -136.5t-116.5 -77.5l176 -306h-77l-185 326l54 -31h-233v-295h-65zM159 355h187q51 0 90 20.5t61 58t22 87.5t-22 86.5t-61 57t-90 20.5h-187v-330zM184 -155v55h260v-55h-260z" />
    <glyph glyph-name="uni1E5F" unicode="&#x1e5f;" horiz-adv-x="339" 
d="M83 0v531h60v-99l-11 9q17 45 58.5 71t98.5 26h34v-60h-41q-65 0 -102 -41.5t-37 -111.5v-325h-60zM-17 -155v55h260v-55h-260z" />
    <glyph glyph-name="uni1E60" unicode="&#x1e60;" horiz-adv-x="643" 
d="M336 -12q-71 0 -127.5 27t-94 71t-53.5 95l58 21q28 -76 83.5 -116t132.5 -40q51 0 89.5 17t60.5 48t22 73q0 58 -32.5 90t-84.5 46l-136 40q-83 24 -122.5 77.5t-39.5 121.5q0 59 28.5 103.5t77.5 69.5t111 25q65 0 116.5 -24.5t87 -64t50.5 -87.5l-57 -21
q-25 69 -77 104.5t-119 35.5q-44 0 -79 -17t-55 -48t-20 -73q0 -51 29 -87t97 -57l122 -36q80 -24 123.5 -73.5t43.5 -121.5q0 -59 -30 -103.5t-83.5 -70t-121.5 -25.5zM279 854v88h85v-88h-85z" />
    <glyph glyph-name="uni1E61" unicode="&#x1e61;" horiz-adv-x="508" 
d="M262 -12q-74 0 -130 37t-82 101l52 24q25 -49 67 -77.5t93 -28.5q52 0 87.5 25.5t35.5 67.5q0 26 -13.5 44t-34.5 29.5t-45 17.5l-82 23q-69 19 -101.5 56t-32.5 87q0 45 23 78.5t62 52t86 18.5q66 0 120 -34t76 -92l-54 -25q-21 45 -59 70.5t-84 25.5q-48 0 -78 -25.5
t-30 -64.5q0 -25 12 -41.5t31.5 -27t40.5 -16.5l89 -26q65 -18 100.5 -57t35.5 -92q0 -43 -24 -77t-66 -53.5t-95 -19.5zM212 640v88h85v-88h-85z" />
    <glyph glyph-name="uni1E62" unicode="&#x1e62;" horiz-adv-x="643" 
d="M336 -12q-71 0 -127.5 27t-94 71t-53.5 95l58 21q28 -76 83.5 -116t132.5 -40q51 0 89.5 17t60.5 48t22 73q0 58 -32.5 90t-84.5 46l-136 40q-83 24 -122.5 77.5t-39.5 121.5q0 59 28.5 103.5t77.5 69.5t111 25q65 0 116.5 -24.5t87 -64t50.5 -87.5l-57 -21
q-25 69 -77 104.5t-119 35.5q-44 0 -79 -17t-55 -48t-20 -73q0 -51 29 -87t97 -57l122 -36q80 -24 123.5 -73.5t43.5 -121.5q0 -59 -30 -103.5t-83.5 -70t-121.5 -25.5zM293 -177v87h85v-87h-85z" />
    <glyph glyph-name="uni1E63" unicode="&#x1e63;" horiz-adv-x="508" 
d="M262 -12q-74 0 -130 37t-82 101l52 24q25 -49 67 -77.5t93 -28.5q52 0 87.5 25.5t35.5 67.5q0 26 -13.5 44t-34.5 29.5t-45 17.5l-82 23q-69 19 -101.5 56t-32.5 87q0 45 23 78.5t62 52t86 18.5q66 0 120 -34t76 -92l-54 -25q-21 45 -59 70.5t-84 25.5q-48 0 -78 -25.5
t-30 -64.5q0 -25 12 -41.5t31.5 -27t40.5 -16.5l89 -26q65 -18 100.5 -57t35.5 -92q0 -43 -24 -77t-66 -53.5t-95 -19.5zM212 -177v87h85v-87h-85z" />
    <glyph glyph-name="uni1E64" unicode="&#x1e64;" horiz-adv-x="643" 
d="M336 -12q-71 0 -127.5 27t-94 71t-53.5 95l58 21q28 -76 83.5 -116t132.5 -40q51 0 89.5 17t60.5 48t22 73q0 58 -32.5 90t-84.5 46l-136 40q-83 24 -122.5 77.5t-39.5 121.5q0 59 28.5 103.5t77.5 69.5t111 25q65 0 116.5 -24.5t87 -64t50.5 -87.5l-57 -21
q-25 69 -77 104.5t-119 35.5q-44 0 -79 -17t-55 -48t-20 -73q0 -51 29 -87t97 -57l122 -36q80 -24 123.5 -73.5t43.5 -121.5q0 -59 -30 -103.5t-83.5 -70t-121.5 -25.5zM285 854l90 135h82l-111 -135h-61zM212 937v87h85v-87h-85z" />
    <glyph glyph-name="uni1E65" unicode="&#x1e65;" horiz-adv-x="508" 
d="M262 -12q-74 0 -130 37t-82 101l52 24q25 -49 67 -77.5t93 -28.5q52 0 87.5 25.5t35.5 67.5q0 26 -13.5 44t-34.5 29.5t-45 17.5l-82 23q-69 19 -101.5 56t-32.5 87q0 45 23 78.5t62 52t86 18.5q66 0 120 -34t76 -92l-54 -25q-21 45 -59 70.5t-84 25.5q-48 0 -78 -25.5
t-30 -64.5q0 -25 12 -41.5t31.5 -27t40.5 -16.5l89 -26q65 -18 100.5 -57t35.5 -92q0 -43 -24 -77t-66 -53.5t-95 -19.5zM218 640l90 135h82l-111 -135h-61zM145 723v87h85v-87h-85z" />
    <glyph glyph-name="uni1E66" unicode="&#x1e66;" horiz-adv-x="643" 
d="M336 -12q-71 0 -127.5 27t-94 71t-53.5 95l58 21q28 -76 83.5 -116t132.5 -40q51 0 89.5 17t60.5 48t22 73q0 58 -32.5 90t-84.5 46l-136 40q-83 24 -122.5 77.5t-39.5 121.5q0 59 28.5 103.5t77.5 69.5t111 25q65 0 116.5 -24.5t87 -64t50.5 -87.5l-57 -21
q-25 69 -77 104.5t-119 35.5q-44 0 -79 -17t-55 -48t-20 -73q0 -51 29 -87t97 -57l122 -36q80 -24 123.5 -73.5t43.5 -121.5q0 -59 -30 -103.5t-83.5 -70t-121.5 -25.5zM290 854l-123 135h72l83 -87l83 87h72l-124 -135h-63zM280 1037v87h85v-87h-85z" />
    <glyph glyph-name="uni1E67" unicode="&#x1e67;" horiz-adv-x="508" 
d="M262 -12q-74 0 -130 37t-82 101l52 24q25 -49 67 -77.5t93 -28.5q52 0 87.5 25.5t35.5 67.5q0 26 -13.5 44t-34.5 29.5t-45 17.5l-82 23q-69 19 -101.5 56t-32.5 87q0 45 23 78.5t62 52t86 18.5q66 0 120 -34t76 -92l-54 -25q-21 45 -59 70.5t-84 25.5q-48 0 -78 -25.5
t-30 -64.5q0 -25 12 -41.5t31.5 -27t40.5 -16.5l89 -26q65 -18 100.5 -57t35.5 -92q0 -43 -24 -77t-66 -53.5t-95 -19.5zM222 640l-123 135h72l83 -87l83 87h72l-124 -135h-63zM212 823v87h85v-87h-85z" />
    <glyph glyph-name="uni1E68" unicode="&#x1e68;" horiz-adv-x="643" 
d="M336 -12q-71 0 -127.5 27t-94 71t-53.5 95l58 21q28 -76 83.5 -116t132.5 -40q51 0 89.5 17t60.5 48t22 73q0 58 -32.5 90t-84.5 46l-136 40q-83 24 -122.5 77.5t-39.5 121.5q0 59 28.5 103.5t77.5 69.5t111 25q65 0 116.5 -24.5t87 -64t50.5 -87.5l-57 -21
q-25 69 -77 104.5t-119 35.5q-44 0 -79 -17t-55 -48t-20 -73q0 -51 29 -87t97 -57l122 -36q80 -24 123.5 -73.5t43.5 -121.5q0 -59 -30 -103.5t-83.5 -70t-121.5 -25.5zM293 -177v87h85v-87h-85zM279 854v88h85v-88h-85z" />
    <glyph glyph-name="uni1E69" unicode="&#x1e69;" horiz-adv-x="508" 
d="M262 -12q-74 0 -130 37t-82 101l52 24q25 -49 67 -77.5t93 -28.5q52 0 87.5 25.5t35.5 67.5q0 26 -13.5 44t-34.5 29.5t-45 17.5l-82 23q-69 19 -101.5 56t-32.5 87q0 45 23 78.5t62 52t86 18.5q66 0 120 -34t76 -92l-54 -25q-21 45 -59 70.5t-84 25.5q-48 0 -78 -25.5
t-30 -64.5q0 -25 12 -41.5t31.5 -27t40.5 -16.5l89 -26q65 -18 100.5 -57t35.5 -92q0 -43 -24 -77t-66 -53.5t-95 -19.5zM212 -177v87h85v-87h-85zM212 640v88h85v-88h-85z" />
    <glyph glyph-name="uni1E6C" unicode="&#x1e6c;" horiz-adv-x="513" 
d="M225 0v685h-208v60h480v-60h-207v-685h-65zM214 -177v87h85v-87h-85z" />
    <glyph glyph-name="uni1E6D" unicode="&#x1e6d;" horiz-adv-x="384" 
d="M276 -6q-66 0 -102 37.5t-36 109.5v333h-100v57h38q30 0 46 18t16 49v57h60v-124h116v-57h-116v-333q0 -22 6.5 -43t25.5 -34t55 -13q8 0 19.5 1t18.5 2v-54q-11 -3 -25 -4.5t-22 -1.5zM215 -177v87h85v-87h-85z" />
    <glyph glyph-name="uni1E6E" unicode="&#x1e6e;" horiz-adv-x="513" 
d="M225 0v685h-208v60h480v-60h-207v-685h-65zM127 -155v55h260v-55h-260z" />
    <glyph glyph-name="uni1E6F" unicode="&#x1e6f;" horiz-adv-x="384" 
d="M276 -6q-66 0 -102 37.5t-36 109.5v333h-100v57h38q30 0 46 18t16 49v57h60v-124h116v-57h-116v-333q0 -22 6.5 -43t25.5 -34t55 -13q8 0 19.5 1t18.5 2v-54q-11 -3 -25 -4.5t-22 -1.5zM127 -155v55h260v-55h-260z" />
    <glyph glyph-name="uni1E78" unicode="&#x1e78;" horiz-adv-x="695" 
d="M348 -12q-77 0 -135 33t-90.5 91.5t-32.5 134.5v498h65v-500q0 -58 24.5 -102.5t68 -69.5t100.5 -25t100.5 25t67.5 69.5t24 102.5v500h65v-498q0 -76 -32 -134.5t-90 -91.5t-135 -33zM406 854q-26 0 -42 10t-27.5 23.5t-22.5 23.5t-28 10t-27.5 -14.5t-10.5 -48.5h-51
q0 54 24 84.5t67 30.5q25 0 40.5 -10t27 -23.5t23 -23.5t28.5 -10q19 0 30 16t11 47h50q0 -51 -24.5 -83t-67.5 -32zM317 1009l90 150h82l-111 -150h-61z" />
    <glyph glyph-name="uni1E79" unicode="&#x1e79;" 
d="M271 -12q-54 0 -99.5 25t-72.5 70.5t-27 108.5v339h60v-334q0 -47 19.5 -80.5t53 -51.5t75.5 -18q46 0 79.5 21t51.5 58.5t18 85.5v319h60v-531h-60v108l15 -5q-18 -52 -64 -83.5t-109 -31.5zM345 640q-26 0 -42 10t-27.5 23.5t-22.5 23.5t-28 10t-27.5 -14.5
t-10.5 -48.5h-51q0 54 24 84.5t67 30.5q25 0 40.5 -10t27 -23.5t23 -23.5t28.5 -10q19 0 30 16t11 47h50q0 -51 -24.5 -83t-67.5 -32zM256 795l90 150h82l-111 -150h-61z" />
    <glyph glyph-name="uni1E7A" unicode="&#x1e7a;" horiz-adv-x="695" 
d="M348 -12q-77 0 -135 33t-90.5 91.5t-32.5 134.5v498h65v-500q0 -58 24.5 -102.5t68 -69.5t100.5 -25t100.5 25t67.5 69.5t24 102.5v500h65v-498q0 -76 -32 -134.5t-90 -91.5t-135 -33zM218 874v55h260v-55h-260zM223 1037v87h85v-87h-85zM388 1037v87h85v-87h-85z" />
    <glyph glyph-name="uni1E7B" unicode="&#x1e7b;" 
d="M271 -12q-54 0 -99.5 25t-72.5 70.5t-27 108.5v339h60v-334q0 -47 19.5 -80.5t53 -51.5t75.5 -18q46 0 79.5 21t51.5 58.5t18 85.5v319h60v-531h-60v108l15 -5q-18 -52 -64 -83.5t-109 -31.5zM157 660v55h260v-55h-260zM162 823v87h85v-87h-85zM327 823v87h85v-87h-85z
" />
    <glyph glyph-name="Wgrave" unicode="&#x1e80;" horiz-adv-x="986" 
d="M235 0l-218 745h67l196 -684l-22 1l202 683h67l201 -683l-22 -1l196 684h68l-219 -745h-66l-203 688h23l-203 -688h-67zM463 854l-111 150h82l90 -150h-61z" />
    <glyph glyph-name="wgrave" unicode="&#x1e81;" horiz-adv-x="783" 
d="M199 0l-182 531h67l159 -481h-26l144 481h61l144 -481h-26l160 481h67l-183 -531h-61l-139 464h15l-139 -464h-61zM362 640l-111 150h82l90 -150h-61z" />
    <glyph glyph-name="Wacute" unicode="&#x1e82;" horiz-adv-x="986" 
d="M235 0l-218 745h67l196 -684l-22 1l202 683h67l201 -683l-22 -1l196 684h68l-219 -745h-66l-203 688h23l-203 -688h-67zM463 854l90 150h82l-111 -150h-61z" />
    <glyph glyph-name="wacute" unicode="&#x1e83;" horiz-adv-x="783" 
d="M199 0l-182 531h67l159 -481h-26l144 481h61l144 -481h-26l160 481h67l-183 -531h-61l-139 464h15l-139 -464h-61zM362 640l90 150h82l-111 -150h-61z" />
    <glyph glyph-name="Wdieresis" unicode="&#x1e84;" horiz-adv-x="986" 
d="M235 0l-218 745h67l196 -684l-22 1l202 683h67l201 -683l-22 -1l196 684h68l-219 -745h-66l-203 688h23l-203 -688h-67zM368 854v88h85v-88h-85zM533 854v88h85v-88h-85z" />
    <glyph glyph-name="wdieresis" unicode="&#x1e85;" horiz-adv-x="783" 
d="M199 0l-182 531h67l159 -481h-26l144 481h61l144 -481h-26l160 481h67l-183 -531h-61l-139 464h15l-139 -464h-61zM267 640v88h85v-88h-85zM432 640v88h85v-88h-85z" />
    <glyph glyph-name="uni1E8E" unicode="&#x1e8e;" horiz-adv-x="624" 
d="M280 0v340l-263 405h73l237 -361h-29l236 361h73l-262 -405v-340h-65zM270 854v88h85v-88h-85z" />
    <glyph glyph-name="uni1E8F" unicode="&#x1e8f;" horiz-adv-x="533" 
d="M85 -220q-14 0 -30.5 2.5t-31.5 7.5v56q12 -3 27.5 -5t28.5 -2q49 1 77 24t51 76l38 89v-56l-225 559h66l193 -482h-24l194 482h67l-248 -605q-14 -33 -37 -67t-58.5 -56.5t-87.5 -22.5zM224 640v88h85v-88h-85z" />
    <glyph glyph-name="uni1E92" unicode="&#x1e92;" horiz-adv-x="595" 
d="M28 0v42l444 643h-418v60h504v-42l-443 -643h453v-60h-540zM255 -177v87h85v-87h-85z" />
    <glyph glyph-name="uni1E93" unicode="&#x1e93;" horiz-adv-x="442" 
d="M28 0v48l330 455l14 -29h-326v57h372v-47l-330 -456l-15 30h347v-58h-392zM176 -177v87h85v-87h-85z" />
    <glyph glyph-name="uni1E97" unicode="&#x1e97;" horiz-adv-x="384" 
d="M276 -6q-66 0 -102 37.5t-36 109.5v333h-100v57h38q30 0 46 18t16 49v57h60v-124h116v-57h-116v-333q0 -22 6.5 -43t25.5 -34t55 -13q8 0 19.5 1t18.5 2v-54q-11 -3 -25 -4.5t-22 -1.5zM43 764v88h85v-88h-85zM208 764v88h85v-88h-85z" />
    <glyph glyph-name="uni1E9E" unicode="&#x1e9e;" horiz-adv-x="1285" 
d="M336 -12q-71 0 -127.5 27t-94 71t-53.5 95l58 21q28 -76 83.5 -116t132.5 -40q51 0 89.5 17t60.5 48t22 73q0 58 -32.5 90t-84.5 46l-136 40q-83 24 -122.5 77.5t-39.5 121.5q0 59 28.5 103.5t77.5 69.5t111 25q65 0 116.5 -24.5t87 -64t50.5 -87.5l-57 -21
q-25 69 -77 104.5t-119 35.5q-44 0 -79 -17t-55 -48t-20 -73q0 -51 29 -87t97 -57l122 -36q80 -24 123.5 -73.5t43.5 -121.5q0 -59 -30 -103.5t-83.5 -70t-121.5 -25.5zM979 -12q-71 0 -127.5 27t-94 71t-53.5 95l58 21q28 -76 83.5 -116t132.5 -40q51 0 89.5 17t60.5 48
t22 73q0 58 -32.5 90t-84.5 46l-136 40q-83 24 -122.5 77.5t-39.5 121.5q0 59 28.5 103.5t77.5 69.5t111 25q65 0 116.5 -24.5t87 -64t50.5 -87.5l-57 -21q-25 69 -77 104.5t-119 35.5q-44 0 -79 -17t-55 -48t-20 -73q0 -51 29 -87t97 -57l122 -36q80 -24 123.5 -73.5
t43.5 -121.5q0 -59 -30 -103.5t-83.5 -70t-121.5 -25.5z" />
    <glyph glyph-name="uni1EA0" unicode="&#x1ea0;" horiz-adv-x="648" 
d="M17 0l274 745h67l274 -745h-70l-68 190h-339l-69 -190h-69zM176 250h296l-160 445h24zM282 -177v87h85v-87h-85z" />
    <glyph glyph-name="uni1EA1" unicode="&#x1ea1;" horiz-adv-x="573" 
d="M235 -12q-50 0 -89 19t-62 53t-23 78q0 39 17 73t55 58.5t99 34.5l215 36v-56l-199 -33q-68 -11 -96 -41t-28 -70q0 -43 32.5 -70t82.5 -27q58 0 101 26.5t67 70t24 95.5v132q0 53 -38 86t-99 33q-50 0 -90 -25t-61 -65l-54 29q15 32 46 59t72 43t87 16q58 0 102.5 -22.5
t69.5 -62t25 -91.5v-367h-60v111l7 -5q-13 -32 -43 -58.5t-70.5 -43t-89.5 -16.5zM244 -177v87h85v-87h-85z" />
    <glyph glyph-name="uni1EA2" unicode="&#x1ea2;" horiz-adv-x="648" 
d="M17 0l274 745h67l274 -745h-70l-68 190h-339l-69 -190h-69zM176 250h296l-160 445h24zM334 814l-27 36q24 8 35.5 23.5t11.5 34.5t-14.5 32t-38.5 13q-12 0 -24.5 -2.5t-27.5 -10.5l-10 41q16 10 34.5 14t34.5 4q46 0 73.5 -24.5t27.5 -63.5q0 -30 -20.5 -57t-54.5 -40z
" />
    <glyph glyph-name="uni1EA3" unicode="&#x1ea3;" horiz-adv-x="573" 
d="M235 -12q-50 0 -89 19t-62 53t-23 78q0 39 17 73t55 58.5t99 34.5l215 36v-56l-199 -33q-68 -11 -96 -41t-28 -70q0 -43 32.5 -70t82.5 -27q58 0 101 26.5t67 70t24 95.5v132q0 53 -38 86t-99 33q-50 0 -90 -25t-61 -65l-54 29q15 32 46 59t72 43t87 16q58 0 102.5 -22.5
t69.5 -62t25 -91.5v-367h-60v111l7 -5q-13 -32 -43 -58.5t-70.5 -43t-89.5 -16.5zM303 600l-27 36q24 8 35.5 23.5t11.5 34.5t-14.5 32t-38.5 13q-12 0 -24.5 -2.5t-27.5 -10.5l-10 41q16 10 34.5 14t34.5 4q46 0 73.5 -24.5t27.5 -63.5q0 -30 -20.5 -57t-54.5 -40z" />
    <glyph glyph-name="uni1EA4" unicode="&#x1ea4;" horiz-adv-x="648" 
d="M17 0l274 745h67l274 -745h-70l-68 190h-339l-69 -190h-69zM176 250h296l-160 445h24zM170 854l123 135h63l124 -135h-72l-83 88l-83 -88h-72zM439 922l69 127h82l-91 -127h-60z" />
    <glyph glyph-name="uni1EA5" unicode="&#x1ea5;" horiz-adv-x="573" 
d="M235 -12q-50 0 -89 19t-62 53t-23 78q0 39 17 73t55 58.5t99 34.5l215 36v-56l-199 -33q-68 -11 -96 -41t-28 -70q0 -43 32.5 -70t82.5 -27q58 0 101 26.5t67 70t24 95.5v132q0 53 -38 86t-99 33q-50 0 -90 -25t-61 -65l-54 29q15 32 46 59t72 43t87 16q58 0 102.5 -22.5
t69.5 -62t25 -91.5v-367h-60v111l7 -5q-13 -32 -43 -58.5t-70.5 -43t-89.5 -16.5zM139 640l123 135h63l124 -135h-72l-83 88l-83 -88h-72zM408 708l69 127h82l-91 -127h-60z" />
    <glyph glyph-name="uni1EA6" unicode="&#x1ea6;" horiz-adv-x="648" 
d="M17 0l274 745h67l274 -745h-70l-68 190h-339l-69 -190h-69zM176 250h296l-160 445h24zM170 854l123 135h63l124 -135h-72l-83 88l-83 -88h-72zM494 922l-91 127h82l69 -127h-60z" />
    <glyph glyph-name="uni1EA7" unicode="&#x1ea7;" horiz-adv-x="573" 
d="M235 -12q-50 0 -89 19t-62 53t-23 78q0 39 17 73t55 58.5t99 34.5l215 36v-56l-199 -33q-68 -11 -96 -41t-28 -70q0 -43 32.5 -70t82.5 -27q58 0 101 26.5t67 70t24 95.5v132q0 53 -38 86t-99 33q-50 0 -90 -25t-61 -65l-54 29q15 32 46 59t72 43t87 16q58 0 102.5 -22.5
t69.5 -62t25 -91.5v-367h-60v111l7 -5q-13 -32 -43 -58.5t-70.5 -43t-89.5 -16.5zM139 640l123 135h63l124 -135h-72l-83 88l-83 -88h-72zM463 708l-91 127h82l69 -127h-60z" />
    <glyph glyph-name="uni1EA8" unicode="&#x1ea8;" horiz-adv-x="648" 
d="M17 0l274 745h67l274 -745h-70l-68 190h-339l-69 -190h-69zM176 250h296l-160 445h24zM169 854l123 135h63l124 -135h-72l-83 88l-83 -88h-72zM461 924l-27 36q24 8 35.5 23.5t11.5 34.5t-14.5 32t-38.5 13q-12 0 -24.5 -2.5t-27.5 -10.5l-10 41q16 10 34.5 14t34.5 4
q46 0 73.5 -24.5t27.5 -63.5q0 -30 -20.5 -57t-54.5 -40z" />
    <glyph glyph-name="uni1EA9" unicode="&#x1ea9;" horiz-adv-x="573" 
d="M235 -12q-50 0 -89 19t-62 53t-23 78q0 39 17 73t55 58.5t99 34.5l215 36v-56l-199 -33q-68 -11 -96 -41t-28 -70q0 -43 32.5 -70t82.5 -27q58 0 101 26.5t67 70t24 95.5v132q0 53 -38 86t-99 33q-50 0 -90 -25t-61 -65l-54 29q15 32 46 59t72 43t87 16q58 0 102.5 -22.5
t69.5 -62t25 -91.5v-367h-60v111l7 -5q-13 -32 -43 -58.5t-70.5 -43t-89.5 -16.5zM139 640l123 135h63l124 -135h-72l-83 88l-83 -88h-72zM431 710l-27 36q24 8 35.5 23.5t11.5 34.5t-14.5 32t-38.5 13q-12 0 -24.5 -2.5t-27.5 -10.5l-10 41q16 10 34.5 14t34.5 4
q46 0 73.5 -24.5t27.5 -63.5q0 -30 -20.5 -57t-54.5 -40z" />
    <glyph glyph-name="uni1EAA" unicode="&#x1eaa;" horiz-adv-x="648" 
d="M17 0l274 745h67l274 -745h-70l-68 190h-339l-69 -190h-69zM176 250h296l-160 445h24zM170 854l122 135h64l123 -135h-71l-84 88l-83 -88h-71zM372 1051q-21 0 -33.5 10t-22 23.5t-18.5 23.5t-23 10t-22 -15t-8 -48h-48q0 36 9.5 61.5t27 39t40.5 13.5q21 0 34 -10
t22 -23.5t18.5 -23.5t22.5 -10q16 0 24 16.5t8 46.5h48q0 -50 -21.5 -82t-57.5 -32z" />
    <glyph glyph-name="uni1EAB" unicode="&#x1eab;" horiz-adv-x="573" 
d="M235 -12q-50 0 -89 19t-62 53t-23 78q0 39 17 73t55 58.5t99 34.5l215 36v-56l-199 -33q-68 -11 -96 -41t-28 -70q0 -43 32.5 -70t82.5 -27q58 0 101 26.5t67 70t24 95.5v132q0 53 -38 86t-99 33q-50 0 -90 -25t-61 -65l-54 29q15 32 46 59t72 43t87 16q58 0 102.5 -22.5
t69.5 -62t25 -91.5v-367h-60v111l7 -5q-13 -32 -43 -58.5t-70.5 -43t-89.5 -16.5zM140 640l122 135h64l123 -135h-71l-84 88l-83 -88h-71zM342 837q-21 0 -33.5 10t-22 23.5t-18.5 23.5t-23 10t-22 -15t-8 -48h-48q0 36 9.5 61.5t27 39t40.5 13.5q21 0 34 -10t22 -23.5
t18.5 -23.5t22.5 -10q16 0 24 16.5t8 46.5h48q0 -50 -21.5 -82t-57.5 -32z" />
    <glyph glyph-name="uni1EAC" unicode="&#x1eac;" horiz-adv-x="648" 
d="M17 0l274 745h67l274 -745h-70l-68 190h-339l-69 -190h-69zM176 250h296l-160 445h24zM282 -177v87h85v-87h-85zM170 854l123 150h63l124 -150h-70l-85 103l-85 -103h-70z" />
    <glyph glyph-name="uni1EAD" unicode="&#x1ead;" horiz-adv-x="573" 
d="M235 -12q-50 0 -89 19t-62 53t-23 78q0 39 17 73t55 58.5t99 34.5l215 36v-56l-199 -33q-68 -11 -96 -41t-28 -70q0 -43 32.5 -70t82.5 -27q58 0 101 26.5t67 70t24 95.5v132q0 53 -38 86t-99 33q-50 0 -90 -25t-61 -65l-54 29q15 32 46 59t72 43t87 16q58 0 102.5 -22.5
t69.5 -62t25 -91.5v-367h-60v111l7 -5q-13 -32 -43 -58.5t-70.5 -43t-89.5 -16.5zM244 -177v87h85v-87h-85zM139 640l123 150h63l124 -150h-70l-85 103l-85 -103h-70z" />
    <glyph glyph-name="uni1EAE" unicode="&#x1eae;" horiz-adv-x="648" 
d="M17 0l274 745h67l274 -745h-70l-68 190h-339l-69 -190h-69zM176 250h296l-160 445h24zM325 854q-47 0 -80 16t-50.5 44.5t-17.5 64.5h59q0 -34 23 -54.5t66 -20.5q42 0 65 20.5t23 54.5h59q0 -36 -17.5 -64.5t-50 -44.5t-79.5 -16zM294 1009l90 150h82l-111 -150h-61z
" />
    <glyph glyph-name="uni1EAF" unicode="&#x1eaf;" horiz-adv-x="573" 
d="M235 -12q-50 0 -89 19t-62 53t-23 78q0 39 17 73t55 58.5t99 34.5l215 36v-56l-199 -33q-68 -11 -96 -41t-28 -70q0 -43 32.5 -70t82.5 -27q58 0 101 26.5t67 70t24 95.5v132q0 53 -38 86t-99 33q-50 0 -90 -25t-61 -65l-54 29q15 32 46 59t72 43t87 16q58 0 102.5 -22.5
t69.5 -62t25 -91.5v-367h-60v111l7 -5q-13 -32 -43 -58.5t-70.5 -43t-89.5 -16.5zM294 640q-47 0 -80 16t-50.5 44.5t-17.5 64.5h59q0 -34 23 -54.5t66 -20.5q42 0 65 20.5t23 54.5h59q0 -36 -17.5 -64.5t-50 -44.5t-79.5 -16zM263 795l90 150h82l-111 -150h-61z" />
    <glyph glyph-name="uni1EB0" unicode="&#x1eb0;" horiz-adv-x="648" 
d="M17 0l274 745h67l274 -745h-70l-68 190h-339l-69 -190h-69zM176 250h296l-160 445h24zM324 854q-46 0 -79 16t-50.5 44.5t-17.5 64.5h59q0 -34 23 -54.5t65 -20.5q43 0 66 20.5t23 54.5h59q0 -36 -17.5 -64.5t-50.5 -44.5t-80 -16zM294 1009l-111 150h82l90 -150h-61z
" />
    <glyph glyph-name="uni1EB1" unicode="&#x1eb1;" horiz-adv-x="573" 
d="M235 -12q-50 0 -89 19t-62 53t-23 78q0 39 17 73t55 58.5t99 34.5l215 36v-56l-199 -33q-68 -11 -96 -41t-28 -70q0 -43 32.5 -70t82.5 -27q58 0 101 26.5t67 70t24 95.5v132q0 53 -38 86t-99 33q-50 0 -90 -25t-61 -65l-54 29q15 32 46 59t72 43t87 16q58 0 102.5 -22.5
t69.5 -62t25 -91.5v-367h-60v111l7 -5q-13 -32 -43 -58.5t-70.5 -43t-89.5 -16.5zM294 640q-46 0 -79 16t-50.5 44.5t-17.5 64.5h59q0 -34 23 -54.5t65 -20.5q43 0 66 20.5t23 54.5h59q0 -36 -17.5 -64.5t-50.5 -44.5t-80 -16zM264 795l-111 150h82l90 -150h-61z" />
    <glyph glyph-name="uni1EB2" unicode="&#x1eb2;" horiz-adv-x="648" 
d="M17 0l274 745h67l274 -745h-70l-68 190h-339l-69 -190h-69zM176 250h296l-160 445h24zM324 854q-46 0 -79 16t-50.5 44.5t-17.5 64.5h59q0 -34 23 -54.5t65 -20.5q43 0 66 20.5t23 54.5h59q0 -36 -17.5 -64.5t-50.5 -44.5t-80 -16zM334 994l-27 36q23 8 35 23.5t12 34.5
t-15 32t-38 13q-13 0 -25 -2.5t-27 -10.5l-10 41q16 10 34 14t35 4q45 0 73 -24.5t28 -63.5q0 -30 -21 -57t-54 -40z" />
    <glyph glyph-name="uni1EB3" unicode="&#x1eb3;" horiz-adv-x="573" 
d="M235 -12q-50 0 -89 19t-62 53t-23 78q0 39 17 73t55 58.5t99 34.5l215 36v-56l-199 -33q-68 -11 -96 -41t-28 -70q0 -43 32.5 -70t82.5 -27q58 0 101 26.5t67 70t24 95.5v132q0 53 -38 86t-99 33q-50 0 -90 -25t-61 -65l-54 29q15 32 46 59t72 43t87 16q58 0 102.5 -22.5
t69.5 -62t25 -91.5v-367h-60v111l7 -5q-13 -32 -43 -58.5t-70.5 -43t-89.5 -16.5zM293 640q-46 0 -79 16t-50.5 44.5t-17.5 64.5h59q0 -34 23 -54.5t65 -20.5q43 0 66 20.5t23 54.5h59q0 -36 -17.5 -64.5t-50.5 -44.5t-80 -16zM303 780l-27 36q23 8 35 23.5t12 34.5t-15 32
t-38 13q-13 0 -25 -2.5t-27 -10.5l-10 41q16 10 34 14t35 4q45 0 73 -24.5t28 -63.5q0 -30 -21 -57t-54 -40z" />
    <glyph glyph-name="uni1EB4" unicode="&#x1eb4;" horiz-adv-x="648" 
d="M17 0l274 745h67l274 -745h-70l-68 190h-339l-69 -190h-69zM176 250h296l-160 445h24zM372 1051q-21 0 -34 10t-22.5 23.5t-18.5 23.5t-22 10q-14 0 -22.5 -15t-8.5 -48h-48q0 36 10 61.5t27 39t40 13.5q21 0 34 -10t22.5 -23.5t18.5 -23.5t23 -10q16 0 24 16.5t8 46.5
h48q0 -50 -21.5 -82t-57.5 -32zM324 854q-47 0 -80 16t-50 44.5t-17 64.5h58q0 -34 23.5 -54.5t65.5 -20.5t65 20.5t23 54.5h59q0 -36 -17 -64.5t-50 -44.5t-80 -16z" />
    <glyph glyph-name="uni1EB5" unicode="&#x1eb5;" horiz-adv-x="573" 
d="M235 -12q-50 0 -89 19t-62 53t-23 78q0 39 17 73t55 58.5t99 34.5l215 36v-56l-199 -33q-68 -11 -96 -41t-28 -70q0 -43 32.5 -70t82.5 -27q58 0 101 26.5t67 70t24 95.5v132q0 53 -38 86t-99 33q-50 0 -90 -25t-61 -65l-54 29q15 32 46 59t72 43t87 16q58 0 102.5 -22.5
t69.5 -62t25 -91.5v-367h-60v111l7 -5q-13 -32 -43 -58.5t-70.5 -43t-89.5 -16.5zM342 837q-21 0 -34 10t-22.5 23.5t-18.5 23.5t-22 10q-14 0 -22.5 -15t-8.5 -48h-48q0 36 10 61.5t27 39t40 13.5q21 0 34 -10t22.5 -23.5t18.5 -23.5t23 -10q16 0 24 16.5t8 46.5h48
q0 -50 -21.5 -82t-57.5 -32zM294 640q-47 0 -80 16t-50 44.5t-17 64.5h58q0 -34 23.5 -54.5t65.5 -20.5t65 20.5t23 54.5h59q0 -36 -17 -64.5t-50 -44.5t-80 -16z" />
    <glyph glyph-name="uni1EB6" unicode="&#x1eb6;" horiz-adv-x="648" 
d="M17 0l274 745h67l274 -745h-70l-68 190h-339l-69 -190h-69zM176 250h296l-160 445h24zM282 -177v87h85v-87h-85zM325 854q-47 0 -80 18.5t-50.5 51.5t-17.5 75h59q0 -43 23 -69t66 -26q42 0 65 26t23 69h59q0 -42 -17.5 -75t-50 -51.5t-79.5 -18.5z" />
    <glyph glyph-name="uni1EB7" unicode="&#x1eb7;" horiz-adv-x="573" 
d="M235 -12q-50 0 -89 19t-62 53t-23 78q0 39 17 73t55 58.5t99 34.5l215 36v-56l-199 -33q-68 -11 -96 -41t-28 -70q0 -43 32.5 -70t82.5 -27q58 0 101 26.5t67 70t24 95.5v132q0 53 -38 86t-99 33q-50 0 -90 -25t-61 -65l-54 29q15 32 46 59t72 43t87 16q58 0 102.5 -22.5
t69.5 -62t25 -91.5v-367h-60v111l7 -5q-13 -32 -43 -58.5t-70.5 -43t-89.5 -16.5zM244 -177v87h85v-87h-85zM294 640q-47 0 -80 18.5t-50.5 51.5t-17.5 75h59q0 -43 23 -69t66 -26q42 0 65 26t23 69h59q0 -42 -17.5 -75t-50 -51.5t-79.5 -18.5z" />
    <glyph glyph-name="uni1EB8" unicode="&#x1eb8;" horiz-adv-x="613" 
d="M94 0v745h470v-60h-405v-281h385v-60h-385v-284h405v-60h-470zM286 -177v87h85v-87h-85z" />
    <glyph glyph-name="uni1EB9" unicode="&#x1eb9;" horiz-adv-x="621" 
d="M326 -12q-75 0 -135 36.5t-95 100t-35 142.5t34 141.5t92 98.5t130 36q55 0 99.5 -20t77 -55.5t50 -81t17.5 -95.5q0 -10 -1 -21t-3 -23h-461v55h427l-27 -21q6 58 -17 104.5t-65.5 74t-96.5 27.5t-99 -28.5t-71 -78t-24 -114.5q-2 -65 25 -115t74 -78.5t104 -28.5
q58 0 101 27.5t70 73.5l51 -27q-18 -37 -51 -66.5t-76.5 -46.5t-94.5 -17zM269 -177v87h85v-87h-85z" />
    <glyph glyph-name="uni1EBA" unicode="&#x1eba;" horiz-adv-x="613" 
d="M94 0v745h470v-60h-405v-281h385v-60h-385v-284h405v-60h-470zM338 814l-27 36q24 8 35.5 23.5t11.5 34.5t-14.5 32t-38.5 13q-12 0 -24.5 -2.5t-27.5 -10.5l-10 41q16 10 34.5 14t34.5 4q46 0 73.5 -24.5t27.5 -63.5q0 -30 -20.5 -57t-54.5 -40z" />
    <glyph glyph-name="uni1EBB" unicode="&#x1ebb;" horiz-adv-x="621" 
d="M326 -12q-75 0 -135 36.5t-95 100t-35 142.5t34 141.5t92 98.5t130 36q55 0 99.5 -20t77 -55.5t50 -81t17.5 -95.5q0 -10 -1 -21t-3 -23h-461v55h427l-27 -21q6 58 -17 104.5t-65.5 74t-96.5 27.5t-99 -28.5t-71 -78t-24 -114.5q-2 -65 25 -115t74 -78.5t104 -28.5
q58 0 101 27.5t70 73.5l51 -27q-18 -37 -51 -66.5t-76.5 -46.5t-94.5 -17zM321 600l-27 36q24 8 35.5 23.5t11.5 34.5t-14.5 32t-38.5 13q-12 0 -24.5 -2.5t-27.5 -10.5l-10 41q16 10 34.5 14t34.5 4q46 0 73.5 -24.5t27.5 -63.5q0 -30 -20.5 -57t-54.5 -40z" />
    <glyph glyph-name="uni1EBC" unicode="&#x1ebc;" horiz-adv-x="613" 
d="M94 0v745h470v-60h-405v-281h385v-60h-385v-284h405v-60h-470zM387 854q-26 0 -42 10t-27.5 23.5t-22.5 23.5t-28 10t-27.5 -14.5t-10.5 -48.5h-51q0 54 24 84.5t67 30.5q25 0 40.5 -10t27 -23.5t23 -23.5t28.5 -10q19 0 30 16t11 47h50q0 -51 -24.5 -83t-67.5 -32z" />
    <glyph glyph-name="uni1EBD" unicode="&#x1ebd;" horiz-adv-x="621" 
d="M326 -12q-75 0 -135 36.5t-95 100t-35 142.5t34 141.5t92 98.5t130 36q55 0 99.5 -20t77 -55.5t50 -81t17.5 -95.5q0 -10 -1 -21t-3 -23h-461v55h427l-27 -21q6 58 -17 104.5t-65.5 74t-96.5 27.5t-99 -28.5t-71 -78t-24 -114.5q-2 -65 25 -115t74 -78.5t104 -28.5
q58 0 101 27.5t70 73.5l51 -27q-18 -37 -51 -66.5t-76.5 -46.5t-94.5 -17zM370 640q-26 0 -42 10t-27.5 23.5t-22.5 23.5t-28 10t-27.5 -14.5t-10.5 -48.5h-51q0 54 24 84.5t67 30.5q25 0 40.5 -10t27 -23.5t23 -23.5t28.5 -10q19 0 30 16t11 47h50q0 -51 -24.5 -83
t-67.5 -32z" />
    <glyph glyph-name="uni1EBE" unicode="&#x1ebe;" horiz-adv-x="613" 
d="M94 0v745h470v-60h-405v-281h385v-60h-385v-284h405v-60h-470zM174 854l123 135h63l124 -135h-72l-83 88l-83 -88h-72zM443 922l69 127h82l-91 -127h-60z" />
    <glyph glyph-name="uni1EBF" unicode="&#x1ebf;" horiz-adv-x="621" 
d="M326 -12q-75 0 -135 36.5t-95 100t-35 142.5t34 141.5t92 98.5t130 36q55 0 99.5 -20t77 -55.5t50 -81t17.5 -95.5q0 -10 -1 -21t-3 -23h-461v55h427l-27 -21q6 58 -17 104.5t-65.5 74t-96.5 27.5t-99 -28.5t-71 -78t-24 -114.5q-2 -65 25 -115t74 -78.5t104 -28.5
q58 0 101 27.5t70 73.5l51 -27q-18 -37 -51 -66.5t-76.5 -46.5t-94.5 -17zM157 640l123 135h63l124 -135h-72l-83 88l-83 -88h-72zM426 708l69 127h82l-91 -127h-60z" />
    <glyph glyph-name="uni1EC0" unicode="&#x1ec0;" horiz-adv-x="613" 
d="M94 0v745h470v-60h-405v-281h385v-60h-385v-284h405v-60h-470zM174 854l123 135h63l124 -135h-72l-83 88l-83 -88h-72zM498 922l-91 127h82l69 -127h-60z" />
    <glyph glyph-name="uni1EC1" unicode="&#x1ec1;" horiz-adv-x="621" 
d="M326 -12q-75 0 -135 36.5t-95 100t-35 142.5t34 141.5t92 98.5t130 36q55 0 99.5 -20t77 -55.5t50 -81t17.5 -95.5q0 -10 -1 -21t-3 -23h-461v55h427l-27 -21q6 58 -17 104.5t-65.5 74t-96.5 27.5t-99 -28.5t-71 -78t-24 -114.5q-2 -65 25 -115t74 -78.5t104 -28.5
q58 0 101 27.5t70 73.5l51 -27q-18 -37 -51 -66.5t-76.5 -46.5t-94.5 -17zM157 640l123 135h63l124 -135h-72l-83 88l-83 -88h-72zM481 708l-91 127h82l69 -127h-60z" />
    <glyph glyph-name="uni1EC2" unicode="&#x1ec2;" horiz-adv-x="613" 
d="M94 0v745h470v-60h-405v-281h385v-60h-385v-284h405v-60h-470zM174 854l123 135h63l124 -135h-72l-83 88l-83 -88h-72zM466 924l-27 36q24 8 35.5 23.5t11.5 34.5t-14.5 32t-38.5 13q-12 0 -24.5 -2.5t-27.5 -10.5l-10 41q16 10 34.5 14t34.5 4q46 0 73.5 -24.5
t27.5 -63.5q0 -30 -20.5 -57t-54.5 -40z" />
    <glyph glyph-name="uni1EC3" unicode="&#x1ec3;" horiz-adv-x="621" 
d="M326 -12q-75 0 -135 36.5t-95 100t-35 142.5t34 141.5t92 98.5t130 36q55 0 99.5 -20t77 -55.5t50 -81t17.5 -95.5q0 -10 -1 -21t-3 -23h-461v55h427l-27 -21q6 58 -17 104.5t-65.5 74t-96.5 27.5t-99 -28.5t-71 -78t-24 -114.5q-2 -65 25 -115t74 -78.5t104 -28.5
q58 0 101 27.5t70 73.5l51 -27q-18 -37 -51 -66.5t-76.5 -46.5t-94.5 -17zM156 640l123 135h63l124 -135h-72l-83 88l-83 -88h-72zM448 710l-27 36q24 8 35.5 23.5t11.5 34.5t-14.5 32t-38.5 13q-12 0 -24.5 -2.5t-27.5 -10.5l-10 41q16 10 34.5 14t34.5 4q46 0 73.5 -24.5
t27.5 -63.5q0 -30 -20.5 -57t-54.5 -40z" />
    <glyph glyph-name="uni1EC4" unicode="&#x1ec4;" horiz-adv-x="613" 
d="M94 0v745h470v-60h-405v-281h385v-60h-385v-284h405v-60h-470zM175 854l122 135h64l123 -135h-71l-84 88l-83 -88h-71zM377 1051q-21 0 -33.5 10t-22 23.5t-18.5 23.5t-23 10t-22 -15t-8 -48h-48q0 36 9.5 61.5t27 39t40.5 13.5q21 0 34 -10t22 -23.5t18.5 -23.5
t22.5 -10q16 0 24 16.5t8 46.5h48q0 -50 -21.5 -82t-57.5 -32z" />
    <glyph glyph-name="uni1EC5" unicode="&#x1ec5;" horiz-adv-x="621" 
d="M326 -12q-75 0 -135 36.5t-95 100t-35 142.5t34 141.5t92 98.5t130 36q55 0 99.5 -20t77 -55.5t50 -81t17.5 -95.5q0 -10 -1 -21t-3 -23h-461v55h427l-27 -21q6 58 -17 104.5t-65.5 74t-96.5 27.5t-99 -28.5t-71 -78t-24 -114.5q-2 -65 25 -115t74 -78.5t104 -28.5
q58 0 101 27.5t70 73.5l51 -27q-18 -37 -51 -66.5t-76.5 -46.5t-94.5 -17zM157 640l122 135h64l123 -135h-71l-84 88l-83 -88h-71zM359 837q-21 0 -33.5 10t-22 23.5t-18.5 23.5t-23 10t-22 -15t-8 -48h-48q0 36 9.5 61.5t27 39t40.5 13.5q21 0 34 -10t22 -23.5t18.5 -23.5
t22.5 -10q16 0 24 16.5t8 46.5h48q0 -50 -21.5 -82t-57.5 -32z" />
    <glyph glyph-name="uni1EC6" unicode="&#x1ec6;" horiz-adv-x="613" 
d="M94 0v745h470v-60h-405v-281h385v-60h-385v-284h405v-60h-470zM286 -177v87h85v-87h-85zM174 854l123 150h63l124 -150h-70l-85 103l-85 -103h-70z" />
    <glyph glyph-name="uni1EC7" unicode="&#x1ec7;" horiz-adv-x="621" 
d="M326 -12q-75 0 -135 36.5t-95 100t-35 142.5t34 141.5t92 98.5t130 36q55 0 99.5 -20t77 -55.5t50 -81t17.5 -95.5q0 -10 -1 -21t-3 -23h-461v55h427l-27 -21q6 58 -17 104.5t-65.5 74t-96.5 27.5t-99 -28.5t-71 -78t-24 -114.5q-2 -65 25 -115t74 -78.5t104 -28.5
q58 0 101 27.5t70 73.5l51 -27q-18 -37 -51 -66.5t-76.5 -46.5t-94.5 -17zM269 -177v87h85v-87h-85zM157 640l123 150h63l124 -150h-70l-85 103l-85 -103h-70z" />
    <glyph glyph-name="uni1EC8" unicode="&#x1ec8;" horiz-adv-x="252" 
d="M94 0v745h65v-745h-65zM136 814l-27 36q24 8 35.5 23.5t11.5 34.5t-14.5 32t-38.5 13q-12 0 -24.5 -2.5t-27.5 -10.5l-10 41q16 10 34.5 14t34.5 4q46 0 73.5 -24.5t27.5 -63.5q0 -30 -20.5 -57t-54.5 -40z" />
    <glyph glyph-name="uni1EC9" unicode="&#x1ec9;" horiz-adv-x="192" 
d="M66 0v531h60v-531h-60zM105 600l-27 36q24 8 35.5 23.5t11.5 34.5t-14.5 32t-38.5 13q-12 0 -24.5 -2.5t-27.5 -10.5l-10 41q16 10 34.5 14t34.5 4q46 0 73.5 -24.5t27.5 -63.5q0 -30 -20.5 -57t-54.5 -40z" />
    <glyph glyph-name="uni1ECA" unicode="&#x1eca;" horiz-adv-x="252" 
d="M94 0v745h65v-745h-65zM84 -177v87h85v-87h-85z" />
    <glyph glyph-name="uni1ECB" unicode="&#x1ecb;" horiz-adv-x="225" 
d="M83 0v531h60v-531h-60zM83 635v110h60v-110h-60zM71 -177v87h85v-87h-85z" />
    <glyph glyph-name="uni1ECC" unicode="&#x1ecc;" horiz-adv-x="881" 
d="M441 -12q-77 0 -144 28.5t-117.5 80t-79 122t-28.5 154.5q0 85 28.5 155t79.5 121.5t117.5 79.5t143.5 28q76 0 143 -28t117.5 -79.5t79.5 -122t29 -154.5t-29 -154.5t-79.5 -122t-117.5 -80t-143 -28.5zM441 50q67 0 123 25t96.5 70t62.5 103.5t22 124.5q0 65 -22 123.5
t-62.5 103.5t-96 70.5t-123.5 25.5t-123.5 -25.5t-96 -70.5t-62.5 -103.5t-22 -123.5q0 -66 22 -124.5t62.5 -103.5t96.5 -70t123 -25zM398 -177v87h85v-87h-85z" />
    <glyph glyph-name="uni1ECD" unicode="&#x1ecd;" horiz-adv-x="659" 
d="M330 -12q-76 0 -137 36t-96.5 99.5t-35.5 142.5t35.5 142t96 99t137.5 36q76 0 137 -36t96 -98.5t35 -142.5t-36 -143t-96.5 -99t-135.5 -36zM330 47q57 0 103.5 28.5t73.5 78.5t27 112t-27 111t-73 78t-104 29t-104.5 -28.5t-73.5 -78t-27 -111.5t27.5 -112t73.5 -78.5
t104 -28.5zM287 -177v87h85v-87h-85z" />
    <glyph glyph-name="uni1ECE" unicode="&#x1ece;" horiz-adv-x="881" 
d="M441 -12q-77 0 -144 28.5t-117.5 80t-79 122t-28.5 154.5q0 85 28.5 155t79.5 121.5t117.5 79.5t143.5 28q76 0 143 -28t117.5 -79.5t79.5 -122t29 -154.5t-29 -154.5t-79.5 -122t-117.5 -80t-143 -28.5zM441 50q67 0 123 25t96.5 70t62.5 103.5t22 124.5q0 65 -22 123.5
t-62.5 103.5t-96 70.5t-123.5 25.5t-123.5 -25.5t-96 -70.5t-62.5 -103.5t-22 -123.5q0 -66 22 -124.5t62.5 -103.5t96.5 -70t123 -25zM450 814l-27 36q24 8 35.5 23.5t11.5 34.5t-14.5 32t-38.5 13q-12 0 -24.5 -2.5t-27.5 -10.5l-10 41q16 10 34.5 14t34.5 4
q46 0 73.5 -24.5t27.5 -63.5q0 -30 -20.5 -57t-54.5 -40z" />
    <glyph glyph-name="uni1ECF" unicode="&#x1ecf;" horiz-adv-x="659" 
d="M330 -12q-76 0 -137 36t-96.5 99.5t-35.5 142.5t35.5 142t96 99t137.5 36q76 0 137 -36t96 -98.5t35 -142.5t-36 -143t-96.5 -99t-135.5 -36zM330 47q57 0 103.5 28.5t73.5 78.5t27 112t-27 111t-73 78t-104 29t-104.5 -28.5t-73.5 -78t-27 -111.5t27.5 -112t73.5 -78.5
t104 -28.5zM339 600l-27 36q24 8 35.5 23.5t11.5 34.5t-14.5 32t-38.5 13q-12 0 -24.5 -2.5t-27.5 -10.5l-10 41q16 10 34.5 14t34.5 4q46 0 73.5 -24.5t27.5 -63.5q0 -30 -20.5 -57t-54.5 -40z" />
    <glyph glyph-name="uni1ED0" unicode="&#x1ed0;" horiz-adv-x="881" 
d="M441 -12q-77 0 -144 28.5t-117.5 80t-79 122t-28.5 154.5q0 85 28.5 155t79.5 121.5t117.5 79.5t143.5 28q76 0 143 -28t117.5 -79.5t79.5 -122t29 -154.5t-29 -154.5t-79.5 -122t-117.5 -80t-143 -28.5zM441 50q67 0 123 25t96.5 70t62.5 103.5t22 124.5q0 65 -22 123.5
t-62.5 103.5t-96 70.5t-123.5 25.5t-123.5 -25.5t-96 -70.5t-62.5 -103.5t-22 -123.5q0 -66 22 -124.5t62.5 -103.5t96.5 -70t123 -25zM286 854l123 135h63l124 -135h-72l-83 88l-83 -88h-72zM555 922l69 127h82l-91 -127h-60z" />
    <glyph glyph-name="uni1ED1" unicode="&#x1ed1;" horiz-adv-x="659" 
d="M330 -12q-76 0 -137 36t-96.5 99.5t-35.5 142.5t35.5 142t96 99t137.5 36q76 0 137 -36t96 -98.5t35 -142.5t-36 -143t-96.5 -99t-135.5 -36zM330 47q57 0 103.5 28.5t73.5 78.5t27 112t-27 111t-73 78t-104 29t-104.5 -28.5t-73.5 -78t-27 -111.5t27.5 -112t73.5 -78.5
t104 -28.5zM175 640l123 135h63l124 -135h-72l-83 88l-83 -88h-72zM444 708l69 127h82l-91 -127h-60z" />
    <glyph glyph-name="uni1ED2" unicode="&#x1ed2;" horiz-adv-x="881" 
d="M441 -12q-77 0 -144 28.5t-117.5 80t-79 122t-28.5 154.5q0 85 28.5 155t79.5 121.5t117.5 79.5t143.5 28q76 0 143 -28t117.5 -79.5t79.5 -122t29 -154.5t-29 -154.5t-79.5 -122t-117.5 -80t-143 -28.5zM441 50q67 0 123 25t96.5 70t62.5 103.5t22 124.5q0 65 -22 123.5
t-62.5 103.5t-96 70.5t-123.5 25.5t-123.5 -25.5t-96 -70.5t-62.5 -103.5t-22 -123.5q0 -66 22 -124.5t62.5 -103.5t96.5 -70t123 -25zM286 854l123 135h63l124 -135h-72l-83 88l-83 -88h-72zM610 922l-91 127h82l69 -127h-60z" />
    <glyph glyph-name="uni1ED3" unicode="&#x1ed3;" horiz-adv-x="659" 
d="M330 -12q-76 0 -137 36t-96.5 99.5t-35.5 142.5t35.5 142t96 99t137.5 36q76 0 137 -36t96 -98.5t35 -142.5t-36 -143t-96.5 -99t-135.5 -36zM330 47q57 0 103.5 28.5t73.5 78.5t27 112t-27 111t-73 78t-104 29t-104.5 -28.5t-73.5 -78t-27 -111.5t27.5 -112t73.5 -78.5
t104 -28.5zM175 640l123 135h63l124 -135h-72l-83 88l-83 -88h-72zM499 708l-91 127h82l69 -127h-60z" />
    <glyph glyph-name="uni1ED4" unicode="&#x1ed4;" horiz-adv-x="881" 
d="M441 -12q-77 0 -144 28.5t-117.5 80t-79 122t-28.5 154.5q0 85 28.5 155t79.5 121.5t117.5 79.5t143.5 28q76 0 143 -28t117.5 -79.5t79.5 -122t29 -154.5t-29 -154.5t-79.5 -122t-117.5 -80t-143 -28.5zM441 50q67 0 123 25t96.5 70t62.5 103.5t22 124.5q0 65 -22 123.5
t-62.5 103.5t-96 70.5t-123.5 25.5t-123.5 -25.5t-96 -70.5t-62.5 -103.5t-22 -123.5q0 -66 22 -124.5t62.5 -103.5t96.5 -70t123 -25zM286 854l123 135h63l124 -135h-72l-83 88l-83 -88h-72zM578 924l-27 36q24 8 35.5 23.5t11.5 34.5t-14.5 32t-38.5 13q-12 0 -24.5 -2.5
t-27.5 -10.5l-10 41q16 10 34.5 14t34.5 4q46 0 73.5 -24.5t27.5 -63.5q0 -30 -20.5 -57t-54.5 -40z" />
    <glyph glyph-name="uni1ED5" unicode="&#x1ed5;" horiz-adv-x="659" 
d="M330 -12q-76 0 -137 36t-96.5 99.5t-35.5 142.5t35.5 142t96 99t137.5 36q76 0 137 -36t96 -98.5t35 -142.5t-36 -143t-96.5 -99t-135.5 -36zM330 47q57 0 103.5 28.5t73.5 78.5t27 112t-27 111t-73 78t-104 29t-104.5 -28.5t-73.5 -78t-27 -111.5t27.5 -112t73.5 -78.5
t104 -28.5zM175 640l123 135h63l124 -135h-72l-83 88l-83 -88h-72zM467 710l-27 36q24 8 35.5 23.5t11.5 34.5t-14.5 32t-38.5 13q-12 0 -24.5 -2.5t-27.5 -10.5l-10 41q16 10 34.5 14t34.5 4q46 0 73.5 -24.5t27.5 -63.5q0 -30 -20.5 -57t-54.5 -40z" />
    <glyph glyph-name="uni1ED6" unicode="&#x1ed6;" horiz-adv-x="881" 
d="M441 -12q-77 0 -144 28.5t-117.5 80t-79 122t-28.5 154.5q0 85 28.5 155t79.5 121.5t117.5 79.5t143.5 28q76 0 143 -28t117.5 -79.5t79.5 -122t29 -154.5t-29 -154.5t-79.5 -122t-117.5 -80t-143 -28.5zM441 50q67 0 123 25t96.5 70t62.5 103.5t22 124.5q0 65 -22 123.5
t-62.5 103.5t-96 70.5t-123.5 25.5t-123.5 -25.5t-96 -70.5t-62.5 -103.5t-22 -123.5q0 -66 22 -124.5t62.5 -103.5t96.5 -70t123 -25zM287 854l122 135h64l123 -135h-71l-84 88l-83 -88h-71zM489 1051q-21 0 -33.5 10t-22 23.5t-18.5 23.5t-23 10t-22 -15t-8 -48h-48
q0 36 9.5 61.5t27 39t40.5 13.5q21 0 34 -10t22 -23.5t18.5 -23.5t22.5 -10q16 0 24 16.5t8 46.5h48q0 -50 -21.5 -82t-57.5 -32z" />
    <glyph glyph-name="uni1ED7" unicode="&#x1ed7;" horiz-adv-x="659" 
d="M330 -12q-76 0 -137 36t-96.5 99.5t-35.5 142.5t35.5 142t96 99t137.5 36q76 0 137 -36t96 -98.5t35 -142.5t-36 -143t-96.5 -99t-135.5 -36zM330 47q57 0 103.5 28.5t73.5 78.5t27 112t-27 111t-73 78t-104 29t-104.5 -28.5t-73.5 -78t-27 -111.5t27.5 -112t73.5 -78.5
t104 -28.5zM176 640l122 135h64l123 -135h-71l-84 88l-83 -88h-71zM378 837q-21 0 -33.5 10t-22 23.5t-18.5 23.5t-23 10t-22 -15t-8 -48h-48q0 36 9.5 61.5t27 39t40.5 13.5q21 0 34 -10t22 -23.5t18.5 -23.5t22.5 -10q16 0 24 16.5t8 46.5h48q0 -50 -21.5 -82t-57.5 -32z
" />
    <glyph glyph-name="uni1ED8" unicode="&#x1ed8;" horiz-adv-x="881" 
d="M441 -12q-77 0 -144 28.5t-117.5 80t-79 122t-28.5 154.5q0 85 28.5 155t79.5 121.5t117.5 79.5t143.5 28q76 0 143 -28t117.5 -79.5t79.5 -122t29 -154.5t-29 -154.5t-79.5 -122t-117.5 -80t-143 -28.5zM441 50q67 0 123 25t96.5 70t62.5 103.5t22 124.5q0 65 -22 123.5
t-62.5 103.5t-96 70.5t-123.5 25.5t-123.5 -25.5t-96 -70.5t-62.5 -103.5t-22 -123.5q0 -66 22 -124.5t62.5 -103.5t96.5 -70t123 -25zM398 -177v87h85v-87h-85zM286 854l123 150h63l124 -150h-70l-85 103l-85 -103h-70z" />
    <glyph glyph-name="uni1ED9" unicode="&#x1ed9;" horiz-adv-x="659" 
d="M330 -12q-76 0 -137 36t-96.5 99.5t-35.5 142.5t35.5 142t96 99t137.5 36q76 0 137 -36t96 -98.5t35 -142.5t-36 -143t-96.5 -99t-135.5 -36zM330 47q57 0 103.5 28.5t73.5 78.5t27 112t-27 111t-73 78t-104 29t-104.5 -28.5t-73.5 -78t-27 -111.5t27.5 -112t73.5 -78.5
t104 -28.5zM287 -177v87h85v-87h-85zM175 640l123 150h63l124 -150h-70l-85 103l-85 -103h-70z" />
    <glyph glyph-name="uni1EDA" unicode="&#x1eda;" horiz-adv-x="881" 
d="M441 -12q-77 0 -144 28.5t-117.5 80t-79 122t-28.5 154.5q0 85 28.5 155t79.5 121.5t117.5 79.5t143.5 28h213q14 0 25.5 4.5t18.5 16.5t7 33t-6 40.5t-15 39.5h68q10 -20 16.5 -41.5t6.5 -45.5q0 -53 -31 -76t-82 -23h-54l10 7q57 -31 100.5 -81.5t67.5 -115.5t24 -142
q0 -84 -29 -154.5t-79.5 -122t-117.5 -80t-143 -28.5zM441 50q67 0 123 25t96.5 70t62.5 103.5t22 124.5q0 65 -22 123.5t-62.5 103.5t-96 70.5t-123.5 25.5t-123.5 -25.5t-96 -70.5t-62.5 -103.5t-22 -123.5q0 -66 22 -124.5t62.5 -103.5t96.5 -70t123 -25zM410 854l90 150
h82l-111 -150h-61z" />
    <glyph glyph-name="uni1EDB" unicode="&#x1edb;" horiz-adv-x="659" 
d="M330 -12q-76 0 -137 36.5t-96.5 99.5t-35.5 142q0 80 35.5 142.5t96 98.5t137.5 36h113q14 0 26 5t19 17t7 32q0 21 -6.5 41t-14.5 40h59q9 -21 15.5 -42.5t6.5 -44.5q0 -44 -24 -68.5t-63 -28.5l3 10q58 -36 92.5 -97.5t34.5 -140.5q0 -80 -36 -143t-96.5 -99
t-135.5 -36zM330 47q57 0 103.5 29t73.5 79t27 111q0 62 -27 111.5t-73 78t-104 28.5t-104.5 -28.5t-73.5 -78t-27 -111.5q0 -61 27.5 -111t73.5 -79t104 -29zM299 640l90 150h82l-111 -150h-61z" />
    <glyph glyph-name="uni1EDC" unicode="&#x1edc;" horiz-adv-x="881" 
d="M441 -12q-77 0 -144 28.5t-117.5 80t-79 122t-28.5 154.5q0 85 28.5 155t79.5 121.5t117.5 79.5t143.5 28h213q14 0 25.5 4.5t18.5 16.5t7 33t-6 40.5t-15 39.5h68q10 -20 16.5 -41.5t6.5 -45.5q0 -53 -31 -76t-82 -23h-54l10 7q57 -31 100.5 -81.5t67.5 -115.5t24 -142
q0 -84 -29 -154.5t-79.5 -122t-117.5 -80t-143 -28.5zM441 50q67 0 123 25t96.5 70t62.5 103.5t22 124.5q0 65 -22 123.5t-62.5 103.5t-96 70.5t-123.5 25.5t-123.5 -25.5t-96 -70.5t-62.5 -103.5t-22 -123.5q0 -66 22 -124.5t62.5 -103.5t96.5 -70t123 -25zM411 854
l-111 150h82l90 -150h-61z" />
    <glyph glyph-name="uni1EDD" unicode="&#x1edd;" horiz-adv-x="659" 
d="M330 -12q-76 0 -137 36.5t-96.5 99.5t-35.5 142q0 80 35.5 142.5t96 98.5t137.5 36h113q14 0 26 5t19 17t7 32q0 21 -6.5 41t-14.5 40h59q9 -21 15.5 -42.5t6.5 -44.5q0 -44 -24 -68.5t-63 -28.5l3 10q58 -36 92.5 -97.5t34.5 -140.5q0 -80 -36 -143t-96.5 -99
t-135.5 -36zM330 47q57 0 103.5 29t73.5 79t27 111q0 62 -27 111.5t-73 78t-104 28.5t-104.5 -28.5t-73.5 -78t-27 -111.5q0 -61 27.5 -111t73.5 -79t104 -29zM300 640l-111 150h82l90 -150h-61z" />
    <glyph glyph-name="uni1EDE" unicode="&#x1ede;" horiz-adv-x="881" 
d="M441 -12q-77 0 -144 28.5t-117.5 80t-79 122t-28.5 154.5q0 85 28.5 155t79.5 121.5t117.5 79.5t143.5 28h213q14 0 25.5 4.5t18.5 16.5t7 33t-6 40.5t-15 39.5h68q10 -20 16.5 -41.5t6.5 -45.5q0 -53 -31 -76t-82 -23h-54l10 7q57 -31 100.5 -81.5t67.5 -115.5t24 -142
q0 -84 -29 -154.5t-79.5 -122t-117.5 -80t-143 -28.5zM441 50q67 0 123 25t96.5 70t62.5 103.5t22 124.5q0 65 -22 123.5t-62.5 103.5t-96 70.5t-123.5 25.5t-123.5 -25.5t-96 -70.5t-62.5 -103.5t-22 -123.5q0 -66 22 -124.5t62.5 -103.5t96.5 -70t123 -25zM450 814l-27 36
q24 8 35.5 23.5t11.5 34.5t-14.5 32t-38.5 13q-12 0 -24.5 -2.5t-27.5 -10.5l-10 41q16 10 34.5 14t34.5 4q46 0 73.5 -24.5t27.5 -63.5q0 -30 -20.5 -57t-54.5 -40z" />
    <glyph glyph-name="uni1EDF" unicode="&#x1edf;" horiz-adv-x="659" 
d="M330 -12q-76 0 -137 36.5t-96.5 99.5t-35.5 142q0 80 35.5 142.5t96 98.5t137.5 36h113q14 0 26 5t19 17t7 32q0 21 -6.5 41t-14.5 40h59q9 -21 15.5 -42.5t6.5 -44.5q0 -44 -24 -68.5t-63 -28.5l3 10q58 -36 92.5 -97.5t34.5 -140.5q0 -80 -36 -143t-96.5 -99
t-135.5 -36zM330 47q57 0 103.5 29t73.5 79t27 111q0 62 -27 111.5t-73 78t-104 28.5t-104.5 -28.5t-73.5 -78t-27 -111.5q0 -61 27.5 -111t73.5 -79t104 -29zM339 600l-27 36q24 8 35.5 23.5t11.5 34.5t-14.5 32t-38.5 13q-12 0 -24.5 -2.5t-27.5 -10.5l-10 41
q16 10 34.5 14t34.5 4q46 0 73.5 -24.5t27.5 -63.5q0 -30 -20.5 -57t-54.5 -40z" />
    <glyph glyph-name="uni1EE0" unicode="&#x1ee0;" horiz-adv-x="881" 
d="M441 -12q-77 0 -144 28.5t-117.5 80t-79 122t-28.5 154.5q0 85 28.5 155t79.5 121.5t117.5 79.5t143.5 28h213q14 0 25.5 4.5t18.5 16.5t7 33t-6 40.5t-15 39.5h68q10 -20 16.5 -41.5t6.5 -45.5q0 -53 -31 -76t-82 -23h-54l10 7q57 -31 100.5 -81.5t67.5 -115.5t24 -142
q0 -84 -29 -154.5t-79.5 -122t-117.5 -80t-143 -28.5zM441 50q67 0 123 25t96.5 70t62.5 103.5t22 124.5q0 65 -22 123.5t-62.5 103.5t-96 70.5t-123.5 25.5t-123.5 -25.5t-96 -70.5t-62.5 -103.5t-22 -123.5q0 -66 22 -124.5t62.5 -103.5t96.5 -70t123 -25zM499 854
q-26 0 -42 10t-27.5 23.5t-22.5 23.5t-28 10t-27.5 -14.5t-10.5 -48.5h-51q0 54 24 84.5t67 30.5q25 0 40.5 -10t27 -23.5t23 -23.5t28.5 -10q19 0 30 16t11 47h50q0 -51 -24.5 -83t-67.5 -32z" />
    <glyph glyph-name="uni1EE1" unicode="&#x1ee1;" horiz-adv-x="659" 
d="M330 -12q-76 0 -137 36.5t-96.5 99.5t-35.5 142q0 80 35.5 142.5t96 98.5t137.5 36h113q14 0 26 5t19 17t7 32q0 21 -6.5 41t-14.5 40h59q9 -21 15.5 -42.5t6.5 -44.5q0 -44 -24 -68.5t-63 -28.5l3 10q58 -36 92.5 -97.5t34.5 -140.5q0 -80 -36 -143t-96.5 -99
t-135.5 -36zM330 47q57 0 103.5 29t73.5 79t27 111q0 62 -27 111.5t-73 78t-104 28.5t-104.5 -28.5t-73.5 -78t-27 -111.5q0 -61 27.5 -111t73.5 -79t104 -29zM388 640q-26 0 -42 10t-27.5 23.5t-22.5 23.5t-28 10t-27.5 -14.5t-10.5 -48.5h-51q0 54 24 84.5t67 30.5
q25 0 40.5 -10t27 -23.5t23 -23.5t28.5 -10q19 0 30 16t11 47h50q0 -51 -24.5 -83t-67.5 -32z" />
    <glyph glyph-name="uni1EE2" unicode="&#x1ee2;" horiz-adv-x="881" 
d="M441 -12q-77 0 -144 28.5t-117.5 80t-79 122t-28.5 154.5q0 85 28.5 155t79.5 121.5t117.5 79.5t143.5 28h213q14 0 25.5 4.5t18.5 16.5t7 33t-6 40.5t-15 39.5h68q10 -20 16.5 -41.5t6.5 -45.5q0 -53 -31 -76t-82 -23h-54l10 7q57 -31 100.5 -81.5t67.5 -115.5t24 -142
q0 -84 -29 -154.5t-79.5 -122t-117.5 -80t-143 -28.5zM441 50q67 0 123 25t96.5 70t62.5 103.5t22 124.5q0 65 -22 123.5t-62.5 103.5t-96 70.5t-123.5 25.5t-123.5 -25.5t-96 -70.5t-62.5 -103.5t-22 -123.5q0 -66 22 -124.5t62.5 -103.5t96.5 -70t123 -25zM398 -177v87h85
v-87h-85z" />
    <glyph glyph-name="uni1EE3" unicode="&#x1ee3;" horiz-adv-x="659" 
d="M330 -12q-76 0 -137 36.5t-96.5 99.5t-35.5 142q0 80 35.5 142.5t96 98.5t137.5 36h113q14 0 26 5t19 17t7 32q0 21 -6.5 41t-14.5 40h59q9 -21 15.5 -42.5t6.5 -44.5q0 -44 -24 -68.5t-63 -28.5l3 10q58 -36 92.5 -97.5t34.5 -140.5q0 -80 -36 -143t-96.5 -99
t-135.5 -36zM330 47q57 0 103.5 29t73.5 79t27 111q0 62 -27 111.5t-73 78t-104 28.5t-104.5 -28.5t-73.5 -78t-27 -111.5q0 -61 27.5 -111t73.5 -79t104 -29zM287 -177v87h85v-87h-85z" />
    <glyph glyph-name="uni1EE4" unicode="&#x1ee4;" horiz-adv-x="695" 
d="M348 -12q-77 0 -135 33t-90.5 91.5t-32.5 134.5v498h65v-500q0 -58 24.5 -102.5t68 -69.5t100.5 -25t100.5 25t67.5 69.5t24 102.5v500h65v-498q0 -76 -32 -134.5t-90 -91.5t-135 -33zM305 -177v87h85v-87h-85z" />
    <glyph glyph-name="uni1EE5" unicode="&#x1ee5;" 
d="M271 -12q-54 0 -99.5 25t-72.5 70.5t-27 108.5v339h60v-334q0 -47 19.5 -80.5t53 -51.5t75.5 -18q46 0 79.5 21t51.5 58.5t18 85.5v319h60v-531h-60v108l15 -5q-18 -52 -64 -83.5t-109 -31.5zM244 -177v87h85v-87h-85z" />
    <glyph glyph-name="uni1EE6" unicode="&#x1ee6;" horiz-adv-x="695" 
d="M348 -12q-77 0 -135 33t-90.5 91.5t-32.5 134.5v498h65v-500q0 -58 24.5 -102.5t68 -69.5t100.5 -25t100.5 25t67.5 69.5t24 102.5v500h65v-498q0 -76 -32 -134.5t-90 -91.5t-135 -33zM357 814l-27 36q24 8 35.5 23.5t11.5 34.5t-14.5 32t-38.5 13q-12 0 -24.5 -2.5
t-27.5 -10.5l-10 41q16 10 34.5 14t34.5 4q46 0 73.5 -24.5t27.5 -63.5q0 -30 -20.5 -57t-54.5 -40z" />
    <glyph glyph-name="uni1EE7" unicode="&#x1ee7;" 
d="M271 -12q-54 0 -99.5 25t-72.5 70.5t-27 108.5v339h60v-334q0 -47 19.5 -80.5t53 -51.5t75.5 -18q46 0 79.5 21t51.5 58.5t18 85.5v319h60v-531h-60v108l15 -5q-18 -52 -64 -83.5t-109 -31.5zM296 600l-27 36q24 8 35.5 23.5t11.5 34.5t-14.5 32t-38.5 13
q-12 0 -24.5 -2.5t-27.5 -10.5l-10 41q16 10 34.5 14t34.5 4q46 0 73.5 -24.5t27.5 -63.5q0 -30 -20.5 -57t-54.5 -40z" />
    <glyph glyph-name="uni1EE8" unicode="&#x1ee8;" horiz-adv-x="695" 
d="M348 -12q-77 0 -135 33t-90.5 91.5t-32.5 134.5v498h65v-500q0 -58 24.5 -102.5t68 -69.5t100.5 -25t100.5 25t67.5 69.5t24 102.5v500h58q21 0 36.5 11t15.5 43q0 21 -6.5 40.5t-15.5 39.5h69q9 -20 16 -41.5t7 -45.5q0 -52 -29.5 -78t-78.5 -26h-7v-441
q0 -76 -32 -134.5t-90 -91.5t-135 -33zM317 854l90 150h82l-111 -150h-61z" />
    <glyph glyph-name="uni1EE9" unicode="&#x1ee9;" horiz-adv-x="585" 
d="M271 -12q-54 0 -99.5 25t-72.5 70.5t-27 108.5v339h60v-334q0 -47 19.5 -80.5t53 -51.5t75.5 -18q46 0 79.5 21t51.5 58.5t18 85.5v319h33q22 0 37 12t15 42q0 21 -6 41t-15 40h60q8 -21 15 -42.5t7 -44.5q0 -49 -28.5 -73t-73.5 -26l16 24v-504h-60v72
q-23 -39 -64 -61.5t-94 -22.5zM256 640l90 150h82l-111 -150h-61z" />
    <glyph glyph-name="uni1EEA" unicode="&#x1eea;" horiz-adv-x="695" 
d="M348 -12q-77 0 -135 33t-90.5 91.5t-32.5 134.5v498h65v-500q0 -58 24.5 -102.5t68 -69.5t100.5 -25t100.5 25t67.5 69.5t24 102.5v500h58q21 0 36.5 11t15.5 43q0 21 -6.5 40.5t-15.5 39.5h69q9 -20 16 -41.5t7 -45.5q0 -52 -29.5 -78t-78.5 -26h-7v-441
q0 -76 -32 -134.5t-90 -91.5t-135 -33zM318 854l-111 150h82l90 -150h-61z" />
    <glyph glyph-name="uni1EEB" unicode="&#x1eeb;" horiz-adv-x="585" 
d="M271 -12q-54 0 -99.5 25t-72.5 70.5t-27 108.5v339h60v-334q0 -47 19.5 -80.5t53 -51.5t75.5 -18q46 0 79.5 21t51.5 58.5t18 85.5v319h33q22 0 37 12t15 42q0 21 -6 41t-15 40h60q8 -21 15 -42.5t7 -44.5q0 -49 -28.5 -73t-73.5 -26l16 24v-504h-60v72
q-23 -39 -64 -61.5t-94 -22.5zM256 640l-111 150h82l90 -150h-61z" />
    <glyph glyph-name="uni1EEC" unicode="&#x1eec;" horiz-adv-x="695" 
d="M348 -12q-77 0 -135 33t-90.5 91.5t-32.5 134.5v498h65v-500q0 -58 24.5 -102.5t68 -69.5t100.5 -25t100.5 25t67.5 69.5t24 102.5v500h58q21 0 36.5 11t15.5 43q0 21 -6.5 40.5t-15.5 39.5h69q9 -20 16 -41.5t7 -45.5q0 -52 -29.5 -78t-78.5 -26h-7v-441
q0 -76 -32 -134.5t-90 -91.5t-135 -33zM357 814l-27 36q24 8 35.5 23.5t11.5 34.5t-14.5 32t-38.5 13q-12 0 -24.5 -2.5t-27.5 -10.5l-10 41q16 10 34.5 14t34.5 4q46 0 73.5 -24.5t27.5 -63.5q0 -30 -20.5 -57t-54.5 -40z" />
    <glyph glyph-name="uni1EED" unicode="&#x1eed;" horiz-adv-x="585" 
d="M271 -12q-54 0 -99.5 25t-72.5 70.5t-27 108.5v339h60v-334q0 -47 19.5 -80.5t53 -51.5t75.5 -18q46 0 79.5 21t51.5 58.5t18 85.5v319h33q22 0 37 12t15 42q0 21 -6 41t-15 40h60q8 -21 15 -42.5t7 -44.5q0 -49 -28.5 -73t-73.5 -26l16 24v-504h-60v72
q-23 -39 -64 -61.5t-94 -22.5zM296 600l-27 36q24 8 35.5 23.5t11.5 34.5t-14.5 32t-38.5 13q-12 0 -24.5 -2.5t-27.5 -10.5l-10 41q16 10 34.5 14t34.5 4q46 0 73.5 -24.5t27.5 -63.5q0 -30 -20.5 -57t-54.5 -40z" />
    <glyph glyph-name="uni1EEE" unicode="&#x1eee;" horiz-adv-x="695" 
d="M348 -12q-77 0 -135 33t-90.5 91.5t-32.5 134.5v498h65v-500q0 -58 24.5 -102.5t68 -69.5t100.5 -25t100.5 25t67.5 69.5t24 102.5v500h58q21 0 36.5 11t15.5 43q0 21 -6.5 40.5t-15.5 39.5h69q9 -20 16 -41.5t7 -45.5q0 -52 -29.5 -78t-78.5 -26h-7v-441
q0 -76 -32 -134.5t-90 -91.5t-135 -33zM406 854q-26 0 -42 10t-27.5 23.5t-22.5 23.5t-28 10t-27.5 -14.5t-10.5 -48.5h-51q0 54 24 84.5t67 30.5q25 0 40.5 -10t27 -23.5t23 -23.5t28.5 -10q19 0 30 16t11 47h50q0 -51 -24.5 -83t-67.5 -32z" />
    <glyph glyph-name="uni1EEF" unicode="&#x1eef;" horiz-adv-x="585" 
d="M271 -12q-54 0 -99.5 25t-72.5 70.5t-27 108.5v339h60v-334q0 -47 19.5 -80.5t53 -51.5t75.5 -18q46 0 79.5 21t51.5 58.5t18 85.5v319h33q22 0 37 12t15 42q0 21 -6 41t-15 40h60q8 -21 15 -42.5t7 -44.5q0 -49 -28.5 -73t-73.5 -26l16 24v-504h-60v72
q-23 -39 -64 -61.5t-94 -22.5zM345 640q-26 0 -42 10t-27.5 23.5t-22.5 23.5t-28 10t-27.5 -14.5t-10.5 -48.5h-51q0 54 24 84.5t67 30.5q25 0 40.5 -10t27 -23.5t23 -23.5t28.5 -10q19 0 30 16t11 47h50q0 -51 -24.5 -83t-67.5 -32z" />
    <glyph glyph-name="uni1EF0" unicode="&#x1ef0;" horiz-adv-x="695" 
d="M348 -12q-77 0 -135 33t-90.5 91.5t-32.5 134.5v498h65v-500q0 -58 24.5 -102.5t68 -69.5t100.5 -25t100.5 25t67.5 69.5t24 102.5v500h58q21 0 36.5 11t15.5 43q0 21 -6.5 40.5t-15.5 39.5h69q9 -20 16 -41.5t7 -45.5q0 -52 -29.5 -78t-78.5 -26h-7v-441
q0 -76 -32 -134.5t-90 -91.5t-135 -33zM305 -177v87h85v-87h-85z" />
    <glyph glyph-name="uni1EF1" unicode="&#x1ef1;" horiz-adv-x="585" 
d="M271 -12q-54 0 -99.5 25t-72.5 70.5t-27 108.5v339h60v-334q0 -47 19.5 -80.5t53 -51.5t75.5 -18q46 0 79.5 21t51.5 58.5t18 85.5v319h33q22 0 37 12t15 42q0 21 -6 41t-15 40h60q8 -21 15 -42.5t7 -44.5q0 -49 -28.5 -73t-73.5 -26l16 24v-504h-60v72
q-23 -39 -64 -61.5t-94 -22.5zM244 -177v87h85v-87h-85z" />
    <glyph glyph-name="Ygrave" unicode="&#x1ef2;" horiz-adv-x="624" 
d="M280 0v340l-263 405h73l237 -361h-29l236 361h73l-262 -405v-340h-65zM282 854l-111 150h82l90 -150h-61z" />
    <glyph glyph-name="ygrave" unicode="&#x1ef3;" horiz-adv-x="533" 
d="M85 -220q-14 0 -30.5 2.5t-31.5 7.5v56q12 -3 27.5 -5t28.5 -2q49 1 77 24t51 76l38 89v-56l-225 559h66l193 -482h-24l194 482h67l-248 -605q-14 -33 -37 -67t-58.5 -56.5t-87.5 -22.5zM237 640l-111 150h82l90 -150h-61z" />
    <glyph glyph-name="uni1EF4" unicode="&#x1ef4;" horiz-adv-x="624" 
d="M280 0v340l-263 405h73l237 -361h-29l236 361h73l-262 -405v-340h-65zM270 -177v87h85v-87h-85z" />
    <glyph glyph-name="uni1EF5" unicode="&#x1ef5;" horiz-adv-x="533" 
d="M85 -220q-14 0 -30.5 2.5t-31.5 7.5v56q12 -3 27.5 -5t28.5 -2q49 1 77 24t51 76l38 89v-56l-225 559h66l193 -482h-24l194 482h67l-248 -605q-14 -33 -37 -67t-58.5 -56.5t-87.5 -22.5zM440 -77v87h85v-87h-85z" />
    <glyph glyph-name="uni1EF6" unicode="&#x1ef6;" horiz-adv-x="624" 
d="M280 0v340l-263 405h73l237 -361h-29l236 361h73l-262 -405v-340h-65zM322 814l-27 36q24 8 35.5 23.5t11.5 34.5t-14.5 32t-38.5 13q-12 0 -24.5 -2.5t-27.5 -10.5l-10 41q16 10 34.5 14t34.5 4q46 0 73.5 -24.5t27.5 -63.5q0 -30 -20.5 -57t-54.5 -40z" />
    <glyph glyph-name="uni1EF7" unicode="&#x1ef7;" horiz-adv-x="533" 
d="M85 -220q-14 0 -30.5 2.5t-31.5 7.5v56q12 -3 27.5 -5t28.5 -2q49 1 77 24t51 76l38 89v-56l-225 559h66l193 -482h-24l194 482h67l-248 -605q-14 -33 -37 -67t-58.5 -56.5t-87.5 -22.5zM276 600l-27 36q24 8 35.5 23.5t11.5 34.5t-14.5 32t-38.5 13q-12 0 -24.5 -2.5
t-27.5 -10.5l-10 41q16 10 34.5 14t34.5 4q46 0 73.5 -24.5t27.5 -63.5q0 -30 -20.5 -57t-54.5 -40z" />
    <glyph glyph-name="uni1EF8" unicode="&#x1ef8;" horiz-adv-x="624" 
d="M280 0v340l-263 405h73l237 -361h-29l236 361h73l-262 -405v-340h-65zM371 854q-26 0 -42 10t-27.5 23.5t-22.5 23.5t-28 10t-27.5 -14.5t-10.5 -48.5h-51q0 54 24 84.5t67 30.5q25 0 40.5 -10t27 -23.5t23 -23.5t28.5 -10q19 0 30 16t11 47h50q0 -51 -24.5 -83
t-67.5 -32z" />
    <glyph glyph-name="uni1EF9" unicode="&#x1ef9;" horiz-adv-x="533" 
d="M85 -220q-14 0 -30.5 2.5t-31.5 7.5v56q12 -3 27.5 -5t28.5 -2q49 1 77 24t51 76l38 89v-56l-225 559h66l193 -482h-24l194 482h67l-248 -605q-14 -33 -37 -67t-58.5 -56.5t-87.5 -22.5zM325 640q-26 0 -42 10t-27.5 23.5t-22.5 23.5t-28 10t-27.5 -14.5t-10.5 -48.5h-51
q0 54 24 84.5t67 30.5q25 0 40.5 -10t27 -23.5t23 -23.5t28.5 -10q19 0 30 16t11 47h50q0 -51 -24.5 -83t-67.5 -32z" />
    <glyph glyph-name="uni2002" unicode="&#x2002;" horiz-adv-x="500" 
 />
    <glyph glyph-name="uni2003" unicode="&#x2003;" horiz-adv-x="1000" 
 />
    <glyph glyph-name="uni2007" unicode="&#x2007;" horiz-adv-x="600" 
 />
    <glyph glyph-name="uni2008" unicode="&#x2008;" horiz-adv-x="274" 
 />
    <glyph glyph-name="uni2009" unicode="&#x2009;" horiz-adv-x="205" 
 />
    <glyph glyph-name="uni200A" unicode="&#x200a;" horiz-adv-x="42" 
 />
    <glyph glyph-name="uni200B" unicode="&#x200b;" horiz-adv-x="0" 
 />
    <glyph glyph-name="uni2010" unicode="&#x2010;" horiz-adv-x="483" 
d="M46 237v58h335v-58h-335z" />
    <glyph glyph-name="figuredash" unicode="&#x2012;" horiz-adv-x="558" 
d="M46 237v58h410v-58h-410z" />
    <glyph glyph-name="endash" unicode="&#x2013;" horiz-adv-x="558" 
d="M74 237v58h410v-58h-410z" />
    <glyph glyph-name="emdash" unicode="&#x2014;" horiz-adv-x="893" 
d="M74 237v58h745v-58h-745z" />
    <glyph glyph-name="uni2015" unicode="&#x2015;" horiz-adv-x="893" 
d="M46 237v58h745v-58h-745z" />
    <glyph glyph-name="quoteleft" unicode="&#x2018;" horiz-adv-x="259" 
d="M81 545v80q0 51 23 86.5t64 45.5v-33q-25 -6 -37.5 -27t-13.5 -52h31v-100h-67z" />
    <glyph glyph-name="quoteright" unicode="&#x2019;" horiz-adv-x="259" 
d="M81 533v33q25 7 37.5 27.5t13.5 51.5h-31v100h67v-80q0 -51 -23 -86.5t-64 -45.5z" />
    <glyph glyph-name="quotesinglbase" unicode="&#x201a;" horiz-adv-x="259" 
d="M81 -112v33q25 7 37.5 27.5t13.5 51.5h-31v100h67v-80q0 -51 -23 -86.5t-64 -45.5z" />
    <glyph glyph-name="quotedblleft" unicode="&#x201c;" horiz-adv-x="399" 
d="M221 545v80q0 51 23 86.5t64 45.5v-33q-25 -6 -37.5 -27t-13.5 -52h31v-100h-67zM81 545v80q0 51 23 86.5t64 45.5v-33q-25 -6 -37.5 -27t-13.5 -52h31v-100h-67z" />
    <glyph glyph-name="quotedblright" unicode="&#x201d;" horiz-adv-x="399" 
d="M221 533v33q25 7 37.5 27.5t13.5 51.5h-31v100h67v-80q0 -51 -23 -86.5t-64 -45.5zM81 533v33q25 7 37.5 27.5t13.5 51.5h-31v100h67v-80q0 -51 -23 -86.5t-64 -45.5z" />
    <glyph glyph-name="quotedblbase" unicode="&#x201e;" horiz-adv-x="399" 
d="M81 -112v33q25 7 37.5 27.5t13.5 51.5h-31v100h67v-80q0 -51 -23 -86.5t-64 -45.5zM221 -112v33q25 7 37.5 27.5t13.5 51.5h-31v100h67v-80q0 -51 -23 -86.5t-64 -45.5z" />
    <glyph glyph-name="dagger" unicode="&#x2020;" horiz-adv-x="621" 
d="M278 -190v662h-237v60h237v213h65v-213h238v-60h-238v-662h-65z" />
    <glyph glyph-name="daggerdbl" unicode="&#x2021;" horiz-adv-x="645" 
d="M290 -190v214h-237v60h237v388h-237v60h237v213h65v-213h238v-60h-238v-388h238v-60h-238v-214h-65z" />
    <glyph glyph-name="bullet" unicode="&#x2022;" horiz-adv-x="496" 
d="M251 121q-42 0 -75.5 19t-53 52.5t-19.5 75.5q0 40 19.5 72.5t52.5 51.5t76 19q40 0 71.5 -19t50.5 -51.5t20 -72.5q0 -42 -19 -75.5t-51 -52.5t-72 -19z" />
    <glyph glyph-name="ellipsis" unicode="&#x2026;" horiz-adv-x="674" 
d="M103 0v100h68v-100h-68zM303 0v100h68v-100h-68zM503 0v100h68v-100h-68z" />
    <glyph glyph-name="perthousand" unicode="&#x2030;" horiz-adv-x="1385" 
d="M131 0l613 745h79l-613 -745h-79zM242 376q-52 0 -95 26t-69 69t-26 96q0 52 26 95.5t69 69t95 25.5t95 -25.5t68.5 -69t25.5 -95.5q0 -53 -25.5 -96t-68.5 -69t-95 -26zM242 434q38 0 66.5 19t45.5 50t17 63q0 35 -17 65t-45.5 49.5t-66.5 19.5q-37 0 -66.5 -19
t-46.5 -49.5t-17 -64.5t17 -64.5t46.5 -49.5t66.5 -19zM710 -12q-52 0 -95 26t-69 69t-26 96q0 52 26 95.5t69 69t95 25.5t95 -25.5t68.5 -68.5t25.5 -96t-25.5 -96t-68.5 -69t-95 -26zM710 46q38 0 66.5 19t45.5 50t17 63q0 35 -17 65t-45.5 49.5t-66.5 19.5
q-37 0 -66.5 -19t-46.5 -49.5t-17 -64.5t17 -64.5t46.5 -49.5t66.5 -19zM1144 -12q-52 0 -95.5 26t-69 69t-25.5 96t25.5 96t69 68.5t95.5 25.5t94.5 -25.5t68 -68.5t25.5 -96t-25.5 -96t-68 -69t-94.5 -26zM1143 46q38 0 67 19t45.5 50t16.5 63q0 35 -16.5 65t-45.5 49.5
t-67 19.5q-36 0 -65.5 -19t-46.5 -49.5t-17 -64.5t17 -64.5t46.5 -49.5t65.5 -19z" />
    <glyph glyph-name="minute" unicode="&#x2032;" horiz-adv-x="283" 
d="M110 544v201h68l-11 -201h-57z" />
    <glyph glyph-name="second" unicode="&#x2033;" horiz-adv-x="420" 
d="M110 544v201h68l-11 -201h-57zM248 544v201h67l-11 -201h-56z" />
    <glyph glyph-name="guilsinglleft" unicode="&#x2039;" horiz-adv-x="278" 
d="M181 81l-152 188l152 188h68l-149 -188l149 -188h-68z" />
    <glyph glyph-name="guilsinglright" unicode="&#x203a;" horiz-adv-x="278" 
d="M29 81l150 188l-150 188h69l151 -188l-151 -188h-69z" />
    <glyph glyph-name="fraction" unicode="&#x2044;" horiz-adv-x="207" 
d="M-153 0l446 745h67l-446 -745h-67z" />
    <glyph glyph-name="uni2070" unicode="&#x2070;" horiz-adv-x="515" 
d="M258 215q-61 0 -108 34t-72.5 95t-25.5 140q0 80 26 140.5t72 94.5t107 34q62 0 108 -34t71.5 -94.5t25.5 -140.5t-25.5 -140.5t-71.5 -94.5t-107 -34zM258 272q44 0 76 27t49.5 74.5t17.5 110.5q0 64 -17.5 111.5t-49.5 74t-77 26.5q-43 0 -75.5 -26.5t-50 -74
t-17.5 -111.5q0 -63 17.5 -110.5t50 -74.5t76.5 -27z" />
    <glyph glyph-name="uni2074" unicode="&#x2074;" horiz-adv-x="465" 
d="M298 223v121h-260v50l260 351h58v-350h66v-51h-66v-121h-58zM86 374l-9 21h221v298l19 -5z" />
    <glyph glyph-name="uni2075" unicode="&#x2075;" horiz-adv-x="445" 
d="M217 215q-42 0 -77.5 15t-61.5 43t-37 67l51 20q14 -43 48 -66.5t77 -23.5q50 0 82 33.5t32 83.5q0 34 -15 60t-40.5 41.5t-58.5 15.5q-32 0 -61 -15.5t-41 -38.5l-50 11l39 284h268v-53h-245l25 22l-31 -223l-20 13q22 28 54 41.5t69 13.5q49 0 87 -23t60 -61.5
t22 -87.5t-22.5 -87.5t-62.5 -61.5t-91 -23z" />
    <glyph glyph-name="uni2076" unicode="&#x2076;" horiz-adv-x="416" 
d="M208 215q-49 0 -88 22t-61 61t-22 89q0 43 16 83t50 85l144 190h74l-185 -243l-13 3q19 26 45 34.5t49 8.5q46 0 82.5 -21t58 -58t21.5 -86q0 -48 -22.5 -86t-61.5 -60t-87 -22zM208 270q47 0 78 32t31 80q0 49 -31 81t-78 32q-46 0 -77.5 -32t-31.5 -81q0 -48 31.5 -80
t77.5 -32z" />
    <glyph glyph-name="uni2077" unicode="&#x2077;" horiz-adv-x="379" 
d="M60 223l233 469h-259v53h324v-52l-231 -470h-67z" />
    <glyph glyph-name="uni2078" unicode="&#x2078;" horiz-adv-x="453" 
d="M226 215q-51 0 -91 21t-62.5 57t-22.5 81q0 50 28.5 88.5t77.5 54.5l-1 -16q-38 15 -58.5 47t-20.5 69q0 39 20 69.5t53.5 48.5t76.5 18t77 -17.5t53.5 -48t19.5 -70.5t-21.5 -70.5t-57.5 -45.5l-1 16q51 -17 78.5 -56t27.5 -88q0 -44 -22.5 -80t-62.5 -57t-91 -21z
M226 268q51 0 82.5 29t31.5 77q0 47 -31.5 76.5t-82.5 29.5t-83 -29.5t-32 -76.5q0 -48 32 -77t83 -29zM226 533q38 0 62.5 23.5t24.5 60.5q0 36 -25 59t-62 23q-38 0 -63 -23t-25 -59q0 -37 25 -60.5t63 -23.5z" />
    <glyph glyph-name="uni2079" unicode="&#x2079;" horiz-adv-x="416" 
d="M96 223l184 242l13 -2q-18 -25 -42.5 -34t-51.5 -9q-45 0 -82 21.5t-58.5 58.5t-21.5 85t22.5 86t61.5 60t87 22q50 0 88.5 -22t60.5 -61t22 -89q0 -45 -16.5 -85t-49.5 -83l-143 -190h-74zM208 473q47 0 78 32t31 81t-31.5 80.5t-77.5 31.5t-77.5 -31.5t-31.5 -80.5
t31.5 -81t77.5 -32z" />
    <glyph glyph-name="uni207A" unicode="&#x207a;" horiz-adv-x="451" 
d="M199 308v149h-148v54h148v147h54v-147h148v-54h-148v-149h-54z" />
    <glyph glyph-name="uni207B" unicode="&#x207b;" horiz-adv-x="466" 
d="M76 457v54h315v-54h-315z" />
    <glyph glyph-name="uni207C" unicode="&#x207c;" horiz-adv-x="466" 
d="M76 537v54h315v-54h-315zM76 371v54h315v-54h-315z" />
    <glyph glyph-name="uni207D" unicode="&#x207d;" horiz-adv-x="233" 
d="M161 121q-55 64 -83.5 144t-28.5 168q0 90 28.5 169t83.5 143h52q-50 -72 -76 -151t-26 -161q0 -81 26.5 -161t75.5 -151h-52z" />
    <glyph glyph-name="uni207E" unicode="&#x207e;" horiz-adv-x="234" 
d="M20 121q51 72 77 151.5t26 160.5q0 83 -26 162t-77 150h52q56 -64 84.5 -143t28.5 -169q0 -88 -28.5 -168t-84.5 -144h-52z" />
    </font>
</defs>
</svg>
