<svg xmlns="http://www.w3.org/2000/svg" viewBox="0 0 256 256" width="100" height="100"><path d="M5 2v2h11V2zm12 0v2h11V2zm12 0v2h4V2zm20 1.977c-2.161 1.556-10 7.688-10 14.783 0 .395.01.79.037 1.177.251 4.906 2.154 9.32 4.996 11.788.875-2.545 2.745-4.272 4.967-4.272 2.222 0 4.092 1.727 4.967 4.272 2.843-2.468 4.745-6.88 4.994-11.766.03-.409.039-.8.039-1.2 0-7.106-7.837-13.23-10-14.782zM5 5v2h28V5zm0 3v2h4V8zm5 0v2h11V8zm12 0v2h11V8zm26.984 1c.146-.002.29.028.424.088C49.98 9.345 55 11.686 55 15v2a6 6 0 1 1-12 0v-2c0-3.314 5.02-5.655 5.592-5.912.123-.055.257-.085.392-.088zM49 11.105c-1.7.846-4 2.479-4 3.895v2a4 4 0 1 0 8 0v-2c0-1.416-2.3-3.049-4-3.895zM19 14c-7.18 0-13 2.239-13 5s5.82 5 13 5 13-2.239 13-5-5.82-5-13-5zM6 22.582V28c0 1.261 1.534 2.594 4.1 3.564A25.8 25.8 0 0 0 19 33c3.026.047 6.037-.44 8.895-1.436C30.467 30.594 32 29.261 32 28v-5.418C29.456 24.656 24.7 26 19 26S8.544 24.656 6 22.582zM44 24h2v2h-2zm3 0h4v2h-4zm5 0h2v2h-2zm-3 5.453c-1.9 0-3.5 2.541-3.5 5.547 0 2.338 2.4 4.457 3.5 5.31 1.1-.853 3.5-2.972 3.5-5.31 0-3.006-1.6-5.547-3.5-5.547zm-9.3.072L38.878 31h1.783c-.348-.474-.669-.966-.963-1.475zm18.6 0A15.99 15.99 0 0 1 57.339 31h1.783zM48 31h2v4h-2zm-42 .576V37c0 1.261 1.534 2.594 4.1 3.564A25.8 25.8 0 0 0 19 42c3.026.047 6.037-.44 8.895-1.436C30.467 39.594 32 38.261 32 37v-5.424a12.356 12.356 0 0 1-3.4 1.86A27.853 27.853 0 0 1 19 35a27.848 27.848 0 0 1-9.605-1.564A12.33 12.33 0 0 1 6 31.576zM41 39v4h2v-4zm15 0v4h2v-4zM6 40.576V46a1.9 1.9 0 0 0 .13.658C6.964 48.78 12.01 51 19 51c6.99 0 12.038-2.22 12.879-4.365A1.87 1.87 0 0 0 32 46v-5.424a12.356 12.356 0 0 1-3.4 1.86A27.853 27.853 0 0 1 19 44a27.848 27.848 0 0 1-9.605-1.564A12.33 12.33 0 0 1 6 40.576zM44 42v4h2v-4zm8 0v4h2v-4zm-11 2v2h2v-2zm15 0v2h2v-2zm-8 1v4h2v-4zm-4 2v2h2v-2zm8 0v2h2v-2zm-19.17 1.777C30.565 51.325 25.264 53 19 53S7.418 51.322 5.164 48.781A2.178 2.178 0 0 0 4 50.5c0 1.006 1.094 1.967 2.66 2.336a1 1 0 0 1 .762.842A4.94 4.94 0 0 0 12.26 58c.16 0 .322-.007.482-.023a.991.991 0 0 1 .717.199 9.318 9.318 0 0 0 11.213-.106c.244-.193.562-.264.865-.193.342.083.692.124 1.043.123a4.91 4.91 0 0 0 4.873-4.549 1 1 0 0 1 .629-.842C33.265 52.144 34 51.335 34 50.5a2.179 2.179 0 0 0-1.17-1.723zM48 50v2h2v-2zm0 3v2H33.19a6.932 6.932 0 0 1-.94 2H49a1 1 0 0 0 1-1v-3zm4 1v2h10v-2zm0 3v2h5v-2zm6 0v2h4v-2zm-6 3v2h10v-2z" transform="scale(4)" fill="#01843e" stroke-miterlimit="10" font-family="none" font-weight="none" font-size="none" text-anchor="none" style="mix-blend-mode:normal"/></svg>